####
#
# OBJ File Generated by Meshlab
#
####
# Object base_gripper.obj
#
# Vertices: 1589
# Faces: 3190
#
####
v 0.001254 -0.006500 -0.005936
v 0.001254 -0.013000 -0.005936
v 0.001407 -0.006500 -0.005930
v 0.001407 -0.013000 -0.005930
v 0.001558 -0.006500 -0.005910
v 0.001558 -0.013000 -0.005910
v 0.001707 -0.006500 -0.005877
v 0.001707 -0.013000 -0.005877
v 0.001853 -0.006500 -0.005831
v 0.001853 -0.013000 -0.005831
v 0.001994 -0.006500 -0.005772
v 0.001994 -0.013000 -0.005772
v 0.002129 -0.006500 -0.005702
v 0.002129 -0.013000 -0.005702
v 0.002258 -0.006500 -0.005620
v 0.002258 -0.013000 -0.005620
v 0.002379 -0.006500 -0.005527
v 0.002379 -0.013000 -0.005527
v 0.002492 -0.006500 -0.005424
v 0.002492 -0.013000 -0.005424
v 0.002595 -0.006500 -0.005311
v 0.002595 -0.013000 -0.005311
v 0.002688 -0.006500 -0.005190
v 0.002688 -0.013000 -0.005190
v 0.002770 -0.006500 -0.005061
v 0.002770 -0.013000 -0.005061
v 0.002840 -0.006500 -0.004926
v 0.002840 -0.013000 -0.004926
v 0.002899 -0.006500 -0.004785
v 0.002899 -0.013000 -0.004785
v 0.002945 -0.006500 -0.004639
v 0.002945 -0.013000 -0.004639
v 0.002978 -0.006500 -0.004490
v 0.002978 -0.013000 -0.004490
v 0.002998 -0.006500 -0.004339
v 0.002998 -0.013000 -0.004339
v 0.003004 -0.006500 -0.004186
v 0.003004 -0.013000 -0.004186
v 0.002998 -0.006500 -0.004034
v 0.002998 -0.013000 -0.004034
v 0.002978 -0.006500 -0.003882
v 0.002978 -0.013000 -0.003882
v 0.002945 -0.006500 -0.003733
v 0.002945 -0.013000 -0.003733
v 0.002899 -0.006500 -0.003588
v 0.002899 -0.013000 -0.003588
v 0.002840 -0.006500 -0.003447
v 0.002840 -0.013000 -0.003447
v 0.002770 -0.006500 -0.003311
v 0.002770 -0.013000 -0.003311
v 0.002688 -0.006500 -0.003183
v 0.002688 -0.013000 -0.003183
v 0.002595 -0.006500 -0.003061
v 0.002595 -0.013000 -0.003061
v 0.002492 -0.006500 -0.002949
v 0.002492 -0.013000 -0.002949
v 0.002379 -0.006500 -0.002846
v 0.002379 -0.013000 -0.002846
v 0.002258 -0.006500 -0.002753
v 0.002258 -0.013000 -0.002753
v 0.002129 -0.006500 -0.002671
v 0.002129 -0.013000 -0.002671
v 0.001994 -0.006500 -0.002600
v 0.001994 -0.013000 -0.002600
v 0.001853 -0.006500 -0.002542
v 0.001853 -0.013000 -0.002542
v 0.001707 -0.006500 -0.002496
v 0.001707 -0.013000 -0.002496
v 0.001558 -0.006500 -0.002463
v 0.001558 -0.013000 -0.002463
v 0.001407 -0.006500 -0.002443
v 0.001407 -0.013000 -0.002443
v 0.001254 -0.006500 -0.002436
v 0.001254 -0.013000 -0.002436
v 0.001102 -0.006500 -0.002443
v 0.001102 -0.013000 -0.002443
v 0.000950 -0.006500 -0.002463
v 0.000950 -0.013000 -0.002463
v 0.000801 -0.006500 -0.002496
v 0.000801 -0.013000 -0.002496
v 0.000656 -0.006500 -0.002542
v 0.000656 -0.013000 -0.002542
v 0.000515 -0.006500 -0.002600
v 0.000515 -0.013000 -0.002600
v 0.000379 -0.006500 -0.002671
v 0.000379 -0.013000 -0.002671
v 0.000250 -0.006500 -0.002753
v 0.000250 -0.013000 -0.002753
v 0.000129 -0.006500 -0.002846
v 0.000129 -0.013000 -0.002846
v 0.000017 -0.006500 -0.002949
v 0.000017 -0.013000 -0.002949
v -0.000086 -0.006500 -0.003061
v -0.000086 -0.013000 -0.003061
v -0.000179 -0.006500 -0.003183
v -0.000179 -0.013000 -0.003183
v -0.000261 -0.006500 -0.003311
v -0.000261 -0.013000 -0.003311
v -0.000332 -0.006500 -0.003447
v -0.000332 -0.013000 -0.003447
v -0.000390 -0.006500 -0.003588
v -0.000390 -0.013000 -0.003588
v -0.000436 -0.006500 -0.003733
v -0.000436 -0.013000 -0.003733
v -0.000469 -0.006500 -0.003882
v -0.000469 -0.013000 -0.003882
v -0.000489 -0.006500 -0.004034
v -0.000489 -0.013000 -0.004034
v -0.000496 -0.006500 -0.004186
v -0.000496 -0.013000 -0.004186
v -0.000489 -0.006500 -0.004339
v -0.000489 -0.013000 -0.004339
v -0.000469 -0.006500 -0.004490
v -0.000469 -0.013000 -0.004490
v -0.000436 -0.006500 -0.004639
v -0.000436 -0.013000 -0.004639
v -0.000390 -0.006500 -0.004785
v -0.000390 -0.013000 -0.004785
v -0.000332 -0.006500 -0.004926
v -0.000332 -0.013000 -0.004926
v -0.000261 -0.006500 -0.005061
v -0.000261 -0.013000 -0.005061
v -0.000179 -0.006500 -0.005190
v -0.000179 -0.013000 -0.005190
v -0.000086 -0.006500 -0.005311
v -0.000086 -0.013000 -0.005311
v 0.000017 -0.006500 -0.005424
v 0.000017 -0.013000 -0.005424
v 0.000129 -0.006500 -0.005527
v 0.000129 -0.013000 -0.005527
v 0.000250 -0.006500 -0.005620
v 0.000250 -0.013000 -0.005620
v 0.000379 -0.006500 -0.005702
v 0.000379 -0.013000 -0.005702
v 0.000515 -0.006500 -0.005772
v 0.000515 -0.013000 -0.005772
v 0.000656 -0.006500 -0.005831
v 0.000656 -0.013000 -0.005831
v 0.000801 -0.006500 -0.005877
v 0.000801 -0.013000 -0.005877
v 0.000950 -0.006500 -0.005910
v 0.000950 -0.013000 -0.005910
v 0.001102 -0.006500 -0.005930
v 0.001102 -0.013000 -0.005930
v -0.025550 -0.006500 -0.000410
v -0.025398 -0.006500 -0.000430
v -0.025246 -0.006500 0.001314
v -0.025246 -0.006500 -0.000436
v -0.025093 -0.006500 -0.000430
v -0.025985 -0.006500 -0.000272
v -0.025844 -0.006500 -0.000331
v -0.025699 -0.006500 -0.000377
v -0.026371 -0.006500 -0.000027
v -0.026250 -0.006500 -0.000120
v -0.026121 -0.006500 -0.000202
v -0.026679 -0.006500 0.000310
v -0.026586 -0.006500 0.000189
v -0.026483 -0.006500 0.000076
v -0.026890 -0.006500 0.000715
v -0.026832 -0.006500 0.000574
v -0.026761 -0.006500 0.000439
v -0.026989 -0.006500 0.001161
v -0.026969 -0.006500 0.001010
v -0.026936 -0.006500 0.000861
v -0.026969 -0.006500 0.001618
v -0.026989 -0.006500 0.001466
v -0.026996 -0.006500 0.001314
v -0.026832 -0.006500 0.002053
v -0.026890 -0.006500 0.001912
v -0.026936 -0.006500 0.001767
v -0.026586 -0.006500 0.002439
v -0.026679 -0.006500 0.002317
v -0.026761 -0.006500 0.002189
v -0.026250 -0.006500 0.002747
v -0.026371 -0.006500 0.002654
v -0.026483 -0.006500 0.002551
v -0.025844 -0.006500 0.002958
v -0.025985 -0.006500 0.002900
v -0.026121 -0.006500 0.002829
v -0.025398 -0.006500 0.003057
v -0.025550 -0.006500 0.003037
v -0.025699 -0.006500 0.003004
v -0.024942 -0.006500 0.003037
v -0.025093 -0.006500 0.003057
v -0.025246 -0.006500 0.003064
v -0.024506 -0.006500 0.002900
v -0.024647 -0.006500 0.002958
v -0.024793 -0.006500 0.003004
v -0.024121 -0.006500 0.002654
v -0.024242 -0.006500 0.002747
v -0.024371 -0.006500 0.002829
v -0.023812 -0.006500 0.002317
v -0.023905 -0.006500 0.002439
v -0.024008 -0.006500 0.002551
v -0.023601 -0.006500 0.001912
v -0.023660 -0.006500 0.002053
v -0.023730 -0.006500 0.002189
v -0.023502 -0.006500 0.001466
v -0.023522 -0.006500 0.001618
v -0.023555 -0.006500 0.001767
v -0.023522 -0.006500 0.001010
v -0.023502 -0.006500 0.001161
v -0.023496 -0.006500 0.001314
v -0.023660 -0.006500 0.000574
v -0.023601 -0.006500 0.000715
v -0.023555 -0.006500 0.000861
v -0.023905 -0.006500 0.000189
v -0.023812 -0.006500 0.000310
v -0.023730 -0.006500 0.000439
v -0.024242 -0.006500 -0.000120
v -0.024121 -0.006500 -0.000027
v -0.024008 -0.006500 0.000076
v -0.024647 -0.006500 -0.000331
v -0.024506 -0.006500 -0.000272
v -0.024371 -0.006500 -0.000202
v -0.024942 -0.006500 -0.000410
v -0.024793 -0.006500 -0.000377
v -0.010050 -0.006500 0.009090
v -0.009898 -0.006500 0.009070
v -0.009746 -0.006500 0.010814
v -0.009746 -0.006500 0.009064
v -0.009593 -0.006500 0.009070
v -0.010485 -0.006500 0.009228
v -0.010344 -0.006500 0.009169
v -0.010199 -0.006500 0.009123
v -0.010871 -0.006500 0.009473
v -0.010750 -0.006500 0.009380
v -0.010621 -0.006500 0.009298
v -0.011179 -0.006500 0.009810
v -0.011086 -0.006500 0.009689
v -0.010983 -0.006500 0.009576
v -0.011390 -0.006500 0.010215
v -0.011332 -0.006500 0.010074
v -0.011261 -0.006500 0.009939
v -0.011489 -0.006500 0.010661
v -0.011469 -0.006500 0.010510
v -0.011436 -0.006500 0.010361
v -0.011469 -0.006500 0.011118
v -0.011489 -0.006500 0.010966
v -0.011496 -0.006500 0.010814
v -0.011332 -0.006500 0.011553
v -0.011390 -0.006500 0.011412
v -0.011436 -0.006500 0.011267
v -0.011086 -0.006500 0.011939
v -0.011179 -0.006500 0.011817
v -0.011261 -0.006500 0.011689
v -0.010750 -0.006500 0.012247
v -0.010871 -0.006500 0.012154
v -0.010983 -0.006500 0.012051
v -0.010344 -0.006500 0.012458
v -0.010485 -0.006500 0.012400
v -0.010621 -0.006500 0.012329
v -0.009898 -0.006500 0.012557
v -0.010050 -0.006500 0.012537
v -0.010199 -0.006500 0.012504
v -0.009442 -0.006500 0.012537
v -0.009593 -0.006500 0.012557
v -0.009746 -0.006500 0.012564
v -0.009006 -0.006500 0.012400
v -0.009147 -0.006500 0.012458
v -0.009293 -0.006500 0.012504
v -0.008621 -0.006500 0.012154
v -0.008742 -0.006500 0.012247
v -0.008871 -0.006500 0.012329
v -0.008312 -0.006500 0.011817
v -0.008405 -0.006500 0.011939
v -0.008508 -0.006500 0.012051
v -0.008101 -0.006500 0.011412
v -0.008160 -0.006500 0.011553
v -0.008230 -0.006500 0.011689
v -0.008002 -0.006500 0.010966
v -0.008022 -0.006500 0.011118
v -0.008055 -0.006500 0.011267
v -0.008022 -0.006500 0.010510
v -0.008002 -0.006500 0.010661
v -0.007996 -0.006500 0.010814
v -0.008160 -0.006500 0.010074
v -0.008101 -0.006500 0.010215
v -0.008055 -0.006500 0.010361
v -0.008405 -0.006500 0.009689
v -0.008312 -0.006500 0.009810
v -0.008230 -0.006500 0.009939
v -0.008742 -0.006500 0.009380
v -0.008621 -0.006500 0.009473
v -0.008508 -0.006500 0.009576
v -0.009147 -0.006500 0.009169
v -0.009006 -0.006500 0.009228
v -0.008871 -0.006500 0.009298
v -0.009442 -0.006500 0.009090
v -0.009293 -0.006500 0.009123
v -0.009746 -0.013000 0.009064
v -0.009593 -0.013000 0.009070
v -0.009442 -0.013000 0.009090
v -0.009293 -0.013000 0.009123
v -0.009147 -0.013000 0.009169
v -0.009006 -0.013000 0.009228
v -0.008871 -0.013000 0.009298
v -0.008742 -0.013000 0.009380
v -0.008621 -0.013000 0.009473
v -0.008508 -0.013000 0.009576
v -0.008405 -0.013000 0.009689
v -0.008312 -0.013000 0.009810
v -0.008230 -0.013000 0.009939
v -0.008160 -0.013000 0.010074
v -0.008101 -0.013000 0.010215
v -0.008055 -0.013000 0.010361
v -0.008022 -0.013000 0.010510
v -0.008002 -0.013000 0.010661
v -0.007996 -0.013000 0.010814
v -0.008002 -0.013000 0.010966
v -0.008022 -0.013000 0.011118
v -0.008055 -0.013000 0.011267
v -0.008101 -0.013000 0.011412
v -0.008160 -0.013000 0.011553
v -0.008230 -0.013000 0.011689
v -0.008312 -0.013000 0.011817
v -0.008405 -0.013000 0.011939
v -0.008508 -0.013000 0.012051
v -0.008621 -0.013000 0.012154
v -0.008742 -0.013000 0.012247
v -0.008871 -0.013000 0.012329
v -0.009006 -0.013000 0.012400
v -0.009147 -0.013000 0.012458
v -0.009293 -0.013000 0.012504
v -0.009442 -0.013000 0.012537
v -0.009593 -0.013000 0.012557
v -0.009746 -0.013000 0.012564
v -0.009898 -0.013000 0.012557
v -0.010050 -0.013000 0.012537
v -0.010199 -0.013000 0.012504
v -0.010344 -0.013000 0.012458
v -0.010485 -0.013000 0.012400
v -0.010621 -0.013000 0.012329
v -0.010750 -0.013000 0.012247
v -0.010871 -0.013000 0.012154
v -0.010983 -0.013000 0.012051
v -0.011086 -0.013000 0.011939
v -0.011179 -0.013000 0.011817
v -0.011261 -0.013000 0.011689
v -0.011332 -0.013000 0.011553
v -0.011390 -0.013000 0.011412
v -0.011436 -0.013000 0.011267
v -0.011469 -0.013000 0.011118
v -0.011489 -0.013000 0.010966
v -0.011496 -0.013000 0.010814
v -0.011489 -0.013000 0.010661
v -0.011469 -0.013000 0.010510
v -0.011436 -0.013000 0.010361
v -0.011390 -0.013000 0.010215
v -0.011332 -0.013000 0.010074
v -0.011261 -0.013000 0.009939
v -0.011179 -0.013000 0.009810
v -0.011086 -0.013000 0.009689
v -0.010983 -0.013000 0.009576
v -0.010871 -0.013000 0.009473
v -0.010750 -0.013000 0.009380
v -0.010621 -0.013000 0.009298
v -0.010485 -0.013000 0.009228
v -0.010344 -0.013000 0.009169
v -0.010199 -0.013000 0.009123
v -0.010050 -0.013000 0.009090
v -0.009898 -0.013000 0.009070
v -0.009746 -0.008000 0.014314
v -0.009441 -0.013000 0.014300
v -0.009441 -0.008000 0.014300
v -0.009138 -0.013000 0.014261
v -0.009138 -0.008000 0.014261
v -0.008840 -0.013000 0.014194
v -0.008840 -0.008000 0.014194
v -0.008549 -0.013000 0.014103
v -0.008549 -0.008000 0.014103
v -0.008267 -0.013000 0.013986
v -0.008267 -0.008000 0.013986
v -0.007996 -0.013000 0.013845
v -0.007996 -0.008000 0.013845
v -0.007738 -0.013000 0.013681
v -0.007738 -0.008000 0.013681
v -0.007496 -0.013000 0.013495
v -0.007496 -0.008000 0.013495
v -0.007271 -0.013000 0.013289
v -0.007271 -0.008000 0.013289
v -0.007065 -0.013000 0.013063
v -0.007065 -0.008000 0.013063
v -0.006879 -0.013000 0.012821
v -0.006879 -0.008000 0.012821
v -0.006715 -0.013000 0.012564
v -0.006715 -0.008000 0.012564
v -0.006574 -0.013000 0.012293
v -0.006574 -0.008000 0.012293
v -0.006457 -0.013000 0.012011
v -0.006457 -0.008000 0.012011
v -0.006365 -0.013000 0.011720
v -0.006365 -0.008000 0.011720
v -0.006299 -0.013000 0.011421
v -0.006299 -0.008000 0.011421
v -0.006259 -0.013000 0.011119
v -0.006259 -0.008000 0.011119
v -0.006246 -0.013000 0.010814
v -0.006246 -0.008000 0.010814
v -0.006259 -0.013000 0.010509
v -0.006259 -0.008000 0.010509
v -0.006299 -0.013000 0.010206
v -0.006299 -0.008000 0.010206
v -0.006365 -0.013000 0.009908
v -0.006365 -0.008000 0.009908
v -0.006457 -0.013000 0.009617
v -0.006457 -0.008000 0.009617
v -0.006574 -0.013000 0.009335
v -0.006574 -0.008000 0.009335
v -0.006715 -0.013000 0.009064
v -0.006715 -0.008000 0.009064
v -0.006879 -0.013000 0.008806
v -0.006879 -0.008000 0.008806
v -0.007065 -0.013000 0.008564
v -0.007065 -0.008000 0.008564
v -0.007271 -0.013000 0.008339
v -0.007271 -0.008000 0.008339
v -0.007496 -0.013000 0.008133
v -0.007496 -0.008000 0.008133
v -0.007738 -0.013000 0.007947
v -0.007738 -0.008000 0.007947
v -0.007996 -0.013000 0.007783
v -0.007996 -0.008000 0.007783
v -0.008267 -0.013000 0.007642
v -0.008267 -0.008000 0.007642
v -0.008549 -0.013000 0.007525
v -0.008549 -0.008000 0.007525
v -0.008840 -0.013000 0.007433
v -0.008840 -0.008000 0.007433
v -0.009138 -0.013000 0.007367
v -0.009138 -0.008000 0.007367
v -0.009441 -0.013000 0.007327
v -0.009441 -0.008000 0.007327
v -0.009746 -0.013000 0.007314
v -0.009746 -0.008000 0.007314
v -0.010051 -0.013000 0.007327
v -0.010051 -0.008000 0.007327
v -0.010354 -0.013000 0.007367
v -0.010354 -0.008000 0.007367
v -0.010652 -0.013000 0.007433
v -0.010652 -0.008000 0.007433
v -0.010943 -0.013000 0.007525
v -0.010943 -0.008000 0.007525
v -0.011225 -0.013000 0.007642
v -0.011225 -0.008000 0.007642
v -0.011496 -0.013000 0.007783
v -0.011496 -0.008000 0.007783
v -0.011753 -0.013000 0.007947
v -0.011753 -0.008000 0.007947
v -0.011996 -0.013000 0.008133
v -0.011996 -0.008000 0.008133
v -0.012221 -0.013000 0.008339
v -0.012221 -0.008000 0.008339
v -0.012427 -0.013000 0.008564
v -0.012427 -0.008000 0.008564
v -0.012613 -0.013000 0.008806
v -0.012613 -0.008000 0.008806
v -0.012777 -0.013000 0.009064
v -0.012777 -0.008000 0.009064
v -0.012918 -0.013000 0.009335
v -0.012918 -0.008000 0.009335
v -0.013035 -0.013000 0.009617
v -0.013035 -0.008000 0.009617
v -0.013127 -0.013000 0.009908
v -0.013127 -0.008000 0.009908
v -0.013193 -0.013000 0.010206
v -0.013193 -0.008000 0.010206
v -0.013232 -0.013000 0.010509
v -0.013232 -0.008000 0.010509
v -0.013246 -0.013000 0.010814
v -0.013246 -0.008000 0.010814
v -0.013232 -0.013000 0.011119
v -0.013232 -0.008000 0.011119
v -0.013193 -0.013000 0.011421
v -0.013193 -0.008000 0.011421
v -0.013127 -0.013000 0.011720
v -0.013127 -0.008000 0.011720
v -0.013035 -0.013000 0.012011
v -0.013035 -0.008000 0.012011
v -0.012918 -0.013000 0.012293
v -0.012918 -0.008000 0.012293
v -0.012777 -0.013000 0.012564
v -0.012777 -0.008000 0.012564
v -0.012613 -0.013000 0.012821
v -0.012613 -0.008000 0.012821
v -0.012427 -0.013000 0.013063
v -0.012427 -0.008000 0.013063
v -0.012221 -0.013000 0.013289
v -0.012221 -0.008000 0.013289
v -0.011996 -0.013000 0.013495
v -0.011996 -0.008000 0.013495
v -0.011753 -0.013000 0.013681
v -0.011753 -0.008000 0.013681
v -0.011496 -0.013000 0.013845
v -0.011496 -0.008000 0.013845
v -0.011225 -0.013000 0.013986
v -0.011225 -0.008000 0.013986
v -0.010943 -0.013000 0.014103
v -0.010943 -0.008000 0.014103
v -0.010652 -0.013000 0.014194
v -0.010652 -0.008000 0.014194
v -0.010354 -0.013000 0.014261
v -0.010354 -0.008000 0.014261
v -0.010051 -0.013000 0.014300
v -0.010051 -0.008000 0.014300
v -0.009746 -0.013000 0.014314
v -0.025246 -0.008000 0.004814
v -0.024941 -0.013000 0.004800
v -0.024941 -0.008000 0.004800
v -0.024638 -0.013000 0.004761
v -0.024638 -0.008000 0.004761
v -0.024340 -0.013000 0.004694
v -0.024340 -0.008000 0.004694
v -0.024049 -0.013000 0.004603
v -0.024049 -0.008000 0.004603
v -0.023767 -0.013000 0.004486
v -0.023767 -0.008000 0.004486
v -0.023496 -0.013000 0.004345
v -0.023496 -0.008000 0.004345
v -0.023238 -0.013000 0.004181
v -0.023238 -0.008000 0.004181
v -0.022996 -0.013000 0.003995
v -0.022996 -0.008000 0.003995
v -0.022771 -0.013000 0.003789
v -0.022771 -0.008000 0.003789
v -0.022565 -0.013000 0.003563
v -0.022565 -0.008000 0.003563
v -0.022379 -0.013000 0.003321
v -0.022379 -0.008000 0.003321
v -0.022215 -0.013000 0.003064
v -0.022215 -0.008000 0.003064
v -0.022074 -0.013000 0.002793
v -0.022074 -0.008000 0.002793
v -0.021957 -0.013000 0.002511
v -0.021957 -0.008000 0.002511
v -0.021865 -0.013000 0.002220
v -0.021865 -0.008000 0.002220
v -0.021799 -0.013000 0.001921
v -0.021799 -0.008000 0.001921
v -0.021759 -0.013000 0.001619
v -0.021759 -0.008000 0.001619
v -0.021746 -0.013000 0.001314
v -0.021746 -0.008000 0.001314
v -0.021759 -0.013000 0.001009
v -0.021759 -0.008000 0.001009
v -0.021799 -0.013000 0.000706
v -0.021799 -0.008000 0.000706
v -0.021865 -0.013000 0.000408
v -0.021865 -0.008000 0.000408
v -0.021957 -0.013000 0.000117
v -0.021957 -0.008000 0.000117
v -0.022074 -0.013000 -0.000165
v -0.022074 -0.008000 -0.000165
v -0.022215 -0.013000 -0.000436
v -0.022215 -0.008000 -0.000436
v -0.022379 -0.013000 -0.000694
v -0.022379 -0.008000 -0.000694
v -0.022565 -0.013000 -0.000936
v -0.022565 -0.008000 -0.000936
v -0.022771 -0.013000 -0.001161
v -0.022771 -0.008000 -0.001161
v -0.022996 -0.013000 -0.001367
v -0.022996 -0.008000 -0.001367
v -0.023238 -0.013000 -0.001553
v -0.023238 -0.008000 -0.001553
v -0.023496 -0.013000 -0.001717
v -0.023496 -0.008000 -0.001717
v -0.023767 -0.013000 -0.001858
v -0.023767 -0.008000 -0.001858
v -0.024049 -0.013000 -0.001975
v -0.024049 -0.008000 -0.001975
v -0.024340 -0.013000 -0.002067
v -0.024340 -0.008000 -0.002067
v -0.024638 -0.013000 -0.002133
v -0.024638 -0.008000 -0.002133
v -0.024941 -0.013000 -0.002173
v -0.024941 -0.008000 -0.002173
v -0.025246 -0.013000 -0.002186
v -0.025246 -0.008000 -0.002186
v -0.025551 -0.013000 -0.002173
v -0.025551 -0.008000 -0.002173
v -0.025854 -0.013000 -0.002133
v -0.025854 -0.008000 -0.002133
v -0.026152 -0.013000 -0.002067
v -0.026152 -0.008000 -0.002067
v -0.026443 -0.013000 -0.001975
v -0.026443 -0.008000 -0.001975
v -0.026725 -0.013000 -0.001858
v -0.026725 -0.008000 -0.001858
v -0.026996 -0.013000 -0.001717
v -0.026996 -0.008000 -0.001717
v -0.027253 -0.013000 -0.001553
v -0.027253 -0.008000 -0.001553
v -0.027496 -0.013000 -0.001367
v -0.027496 -0.008000 -0.001367
v -0.027721 -0.013000 -0.001161
v -0.027721 -0.008000 -0.001161
v -0.027927 -0.013000 -0.000936
v -0.027927 -0.008000 -0.000936
v -0.028113 -0.013000 -0.000694
v -0.028113 -0.008000 -0.000694
v -0.028277 -0.013000 -0.000436
v -0.028277 -0.008000 -0.000436
v -0.028418 -0.013000 -0.000165
v -0.028418 -0.008000 -0.000165
v -0.028535 -0.013000 0.000117
v -0.028535 -0.008000 0.000117
v -0.028627 -0.013000 0.000408
v -0.028627 -0.008000 0.000408
v -0.028693 -0.013000 0.000706
v -0.028693 -0.008000 0.000706
v -0.028732 -0.013000 0.001009
v -0.028732 -0.008000 0.001009
v -0.028746 -0.013000 0.001314
v -0.028746 -0.008000 0.001314
v -0.028732 -0.013000 0.001619
v -0.028732 -0.008000 0.001619
v -0.028693 -0.013000 0.001921
v -0.028693 -0.008000 0.001921
v -0.028627 -0.013000 0.002220
v -0.028627 -0.008000 0.002220
v -0.028535 -0.013000 0.002511
v -0.028535 -0.008000 0.002511
v -0.028418 -0.013000 0.002793
v -0.028418 -0.008000 0.002793
v -0.028277 -0.013000 0.003064
v -0.028277 -0.008000 0.003064
v -0.028113 -0.013000 0.003321
v -0.028113 -0.008000 0.003321
v -0.027927 -0.013000 0.003563
v -0.027927 -0.008000 0.003563
v -0.027721 -0.013000 0.003789
v -0.027721 -0.008000 0.003789
v -0.027496 -0.013000 0.003995
v -0.027496 -0.008000 0.003995
v -0.027253 -0.013000 0.004181
v -0.027253 -0.008000 0.004181
v -0.026996 -0.013000 0.004345
v -0.026996 -0.008000 0.004345
v -0.026725 -0.013000 0.004486
v -0.026725 -0.008000 0.004486
v -0.026443 -0.013000 0.004603
v -0.026443 -0.008000 0.004603
v -0.026152 -0.013000 0.004694
v -0.026152 -0.008000 0.004694
v -0.025854 -0.013000 0.004761
v -0.025854 -0.008000 0.004761
v -0.025551 -0.013000 0.004800
v -0.025551 -0.008000 0.004800
v -0.025246 -0.013000 0.004814
v 0.001254 -0.006500 -0.004186
v 0.006254 -0.008000 -0.005186
v -0.002246 -0.008000 -0.013186
v 0.006254 0.000000 -0.005186
v -0.002246 0.000000 -0.013186
v -0.020496 -0.008000 0.020734
v -0.017246 -0.008000 0.022814
v -0.017246 0.000000 0.022814
v -0.029746 -0.008000 0.014814
v -0.029246 -0.008000 0.015134
v -0.029746 0.000000 0.014814
v -0.028138 -0.008000 0.015843
v -0.023138 -0.008000 0.019043
v -0.007917 0.000000 -0.013186
v -0.007917 -0.008000 -0.013186
v -0.007603 0.000000 -0.012484
v -0.007603 -0.008000 -0.012484
v -0.007350 0.000000 -0.011758
v -0.007350 -0.008000 -0.011758
v -0.007161 0.000000 -0.011012
v -0.007161 -0.008000 -0.011012
v -0.007035 0.000000 -0.010253
v -0.007035 -0.008000 -0.010253
v -0.006975 0.000000 -0.009487
v -0.006975 -0.008000 -0.009487
v -0.006981 0.000000 -0.008717
v -0.006981 -0.008000 -0.008717
v -0.007052 0.000000 -0.007952
v -0.007052 -0.008000 -0.007952
v -0.007188 0.000000 -0.007195
v -0.007188 -0.008000 -0.007195
v -0.007389 0.000000 -0.006452
v -0.007389 -0.008000 -0.006452
v -0.007652 0.000000 -0.005729
v -0.007652 -0.008000 -0.005729
v -0.007976 0.000000 -0.005032
v -0.007976 -0.008000 -0.005032
v -0.008358 0.000000 -0.004364
v -0.008358 -0.008000 -0.004364
v -0.008796 0.000000 -0.003732
v -0.008796 -0.008000 -0.003732
v -0.009286 0.000000 -0.003139
v -0.009286 -0.008000 -0.003139
v -0.009825 0.000000 -0.002591
v -0.009825 -0.008000 -0.002591
v -0.010409 0.000000 -0.002090
v -0.010409 -0.008000 -0.002090
v -0.011033 0.000000 -0.001641
v -0.011033 -0.008000 -0.001641
v -0.011694 0.000000 -0.001247
v -0.011694 -0.008000 -0.001247
v -0.012386 0.000000 -0.000911
v -0.012386 -0.008000 -0.000911
v -0.013104 0.000000 -0.000635
v -0.013104 -0.008000 -0.000635
v -0.013843 0.000000 -0.000422
v -0.013843 -0.008000 -0.000422
v -0.014597 0.000000 -0.000272
v -0.014597 -0.008000 -0.000272
v -0.015362 0.000000 -0.000187
v -0.015362 -0.008000 -0.000187
v -0.016131 0.000000 -0.000168
v -0.016131 -0.008000 -0.000168
v -0.016898 0.000000 -0.000215
v -0.016898 -0.008000 -0.000215
v -0.017659 0.000000 -0.000327
v -0.017659 -0.008000 -0.000327
v -0.018408 0.000000 -0.000503
v -0.018408 -0.008000 -0.000503
v -0.019139 0.000000 -0.000743
v -0.019139 -0.008000 -0.000743
v -0.019846 0.000000 -0.001045
v -0.019846 -0.008000 -0.001045
v -0.020526 0.000000 -0.001405
v -0.020526 -0.008000 -0.001405
v -0.021172 0.000000 -0.001823
v -0.021172 -0.008000 -0.001823
v -0.021780 0.000000 -0.002294
v -0.021780 -0.008000 -0.002294
v -0.022345 0.000000 -0.002815
v -0.022345 -0.008000 -0.002815
v -0.022864 0.000000 -0.003383
v -0.022864 -0.008000 -0.003383
v -0.023333 0.000000 -0.003992
v -0.023333 -0.008000 -0.003992
v -0.023748 0.000000 -0.004640
v -0.023748 -0.008000 -0.004640
v -0.024106 0.000000 -0.005321
v -0.024106 -0.008000 -0.005321
v -0.024405 0.000000 -0.006029
v -0.024405 -0.008000 -0.006029
v -0.024642 0.000000 -0.006761
v -0.024642 -0.008000 -0.006761
v -0.024816 0.000000 -0.007510
v -0.024816 -0.008000 -0.007510
v -0.024925 0.000000 -0.008272
v -0.024925 -0.008000 -0.008272
v -0.025246 -0.013000 -0.000436
v -0.025093 -0.013000 -0.000430
v -0.024942 -0.013000 -0.000410
v -0.024793 -0.013000 -0.000377
v -0.024647 -0.013000 -0.000331
v -0.024506 -0.013000 -0.000272
v -0.024371 -0.013000 -0.000202
v -0.024242 -0.013000 -0.000120
v -0.024121 -0.013000 -0.000027
v -0.024008 -0.013000 0.000076
v -0.023905 -0.013000 0.000189
v -0.023812 -0.013000 0.000310
v -0.023730 -0.013000 0.000439
v -0.023660 -0.013000 0.000574
v -0.023601 -0.013000 0.000715
v -0.023555 -0.013000 0.000861
v -0.023522 -0.013000 0.001010
v -0.023502 -0.013000 0.001161
v -0.023496 -0.013000 0.001314
v -0.023502 -0.013000 0.001466
v -0.023522 -0.013000 0.001618
v -0.023555 -0.013000 0.001767
v -0.023601 -0.013000 0.001912
v -0.023660 -0.013000 0.002053
v -0.023730 -0.013000 0.002189
v -0.023812 -0.013000 0.002317
v -0.023905 -0.013000 0.002439
v -0.024008 -0.013000 0.002551
v -0.024121 -0.013000 0.002654
v -0.024242 -0.013000 0.002747
v -0.024371 -0.013000 0.002829
v -0.024506 -0.013000 0.002900
v -0.024647 -0.013000 0.002958
v -0.024793 -0.013000 0.003004
v -0.024942 -0.013000 0.003037
v -0.025093 -0.013000 0.003057
v -0.025246 -0.013000 0.003064
v -0.025398 -0.013000 0.003057
v -0.025550 -0.013000 0.003037
v -0.025699 -0.013000 0.003004
v -0.025844 -0.013000 0.002958
v -0.025985 -0.013000 0.002900
v -0.026121 -0.013000 0.002829
v -0.026250 -0.013000 0.002747
v -0.026371 -0.013000 0.002654
v -0.026483 -0.013000 0.002551
v -0.026586 -0.013000 0.002439
v -0.026679 -0.013000 0.002317
v -0.026761 -0.013000 0.002189
v -0.026832 -0.013000 0.002053
v -0.026890 -0.013000 0.001912
v -0.026936 -0.013000 0.001767
v -0.026969 -0.013000 0.001618
v -0.026989 -0.013000 0.001466
v -0.026996 -0.013000 0.001314
v -0.026989 -0.013000 0.001161
v -0.026969 -0.013000 0.001010
v -0.026936 -0.013000 0.000861
v -0.026890 -0.013000 0.000715
v -0.026832 -0.013000 0.000574
v -0.026761 -0.013000 0.000439
v -0.026679 -0.013000 0.000310
v -0.026586 -0.013000 0.000189
v -0.026483 -0.013000 0.000076
v -0.026371 -0.013000 -0.000027
v -0.026250 -0.013000 -0.000120
v -0.026121 -0.013000 -0.000202
v -0.025985 -0.013000 -0.000272
v -0.025844 -0.013000 -0.000331
v -0.025699 -0.013000 -0.000377
v -0.025550 -0.013000 -0.000410
v -0.025398 -0.013000 -0.000430
v -0.029746 -0.008000 0.011046
v -0.029746 -0.008000 -0.005186
v -0.029746 -0.008000 -0.004936
v -0.029746 0.000000 -0.005186
v -0.029746 -0.008000 0.001546
v -0.029746 -0.008000 0.006064
v -0.004696 -0.008000 -0.013186
v -0.003246 -0.008000 -0.013186
v -0.000496 -0.013000 -0.001155
v -0.000753 -0.013000 -0.001319
v -0.000996 -0.013000 -0.001505
v -0.001221 -0.013000 -0.001711
v -0.001427 -0.013000 -0.001937
v -0.001613 -0.013000 -0.002179
v -0.001777 -0.013000 -0.002436
v -0.001918 -0.013000 -0.002707
v -0.002035 -0.013000 -0.002989
v -0.002127 -0.013000 -0.003280
v -0.002193 -0.013000 -0.003579
v -0.002232 -0.013000 -0.003881
v -0.002246 -0.013000 -0.004186
v -0.002232 -0.013000 -0.004491
v -0.002193 -0.013000 -0.004794
v -0.002127 -0.013000 -0.005092
v -0.002035 -0.013000 -0.005383
v -0.001918 -0.013000 -0.005665
v -0.001777 -0.013000 -0.005936
v -0.001613 -0.013000 -0.006194
v -0.001427 -0.013000 -0.006436
v -0.001221 -0.013000 -0.006661
v -0.000996 -0.013000 -0.006867
v -0.000753 -0.013000 -0.007053
v -0.000496 -0.013000 -0.007217
v -0.000225 -0.013000 -0.007358
v 0.000057 -0.013000 -0.007475
v 0.000348 -0.013000 -0.007567
v 0.000646 -0.013000 -0.007633
v 0.000949 -0.013000 -0.007673
v 0.001254 -0.013000 -0.007686
v 0.001559 -0.013000 -0.007673
v 0.001862 -0.013000 -0.007633
v 0.002160 -0.013000 -0.007567
v 0.002451 -0.013000 -0.007475
v 0.002733 -0.013000 -0.007358
v 0.003004 -0.013000 -0.007217
v 0.003262 -0.013000 -0.007053
v 0.003504 -0.013000 -0.006867
v 0.003729 -0.013000 -0.006661
v 0.003935 -0.013000 -0.006436
v 0.004121 -0.013000 -0.006194
v 0.004285 -0.013000 -0.005936
v 0.004426 -0.013000 -0.005665
v 0.004543 -0.013000 -0.005383
v 0.004635 -0.013000 -0.005092
v 0.004701 -0.013000 -0.004794
v 0.004741 -0.013000 -0.004491
v 0.004754 -0.013000 -0.004186
v 0.004741 -0.013000 -0.003881
v 0.004701 -0.013000 -0.003579
v 0.004635 -0.013000 -0.003280
v 0.004543 -0.013000 -0.002989
v 0.004426 -0.013000 -0.002707
v 0.004285 -0.013000 -0.002436
v 0.004121 -0.013000 -0.002179
v 0.003935 -0.013000 -0.001937
v 0.003729 -0.013000 -0.001711
v 0.003504 -0.013000 -0.001505
v 0.003262 -0.013000 -0.001319
v 0.003004 -0.013000 -0.001155
v 0.002733 -0.013000 -0.001014
v 0.002451 -0.013000 -0.000897
v 0.002160 -0.013000 -0.000806
v 0.001862 -0.013000 -0.000739
v 0.001559 -0.013000 -0.000700
v 0.001254 -0.013000 -0.000686
v 0.000949 -0.013000 -0.000700
v 0.000646 -0.013000 -0.000739
v 0.000348 -0.013000 -0.000806
v 0.000057 -0.013000 -0.000897
v -0.000225 -0.013000 -0.001014
v -0.003246 -0.008000 0.022814
v -0.002246 -0.008000 0.022814
v -0.002246 0.000000 0.022814
v -0.013796 -0.008000 0.022814
v -0.009746 -0.008000 0.022814
v -0.004696 -0.008000 0.022814
v -0.004696 -0.008000 0.019043
v -0.029246 -0.008000 0.001546
v -0.029246 -0.008000 0.011046
v -0.006746 -0.008000 0.015838
v -0.012606 -0.008000 0.019041
v -0.012468 -0.008000 0.019023
v -0.009746 -0.008000 0.019043
v -0.012332 -0.008000 0.018993
v -0.012199 -0.008000 0.018951
v -0.013024 -0.008000 0.015872
v -0.013160 -0.008000 0.015902
v -0.013796 -0.008000 0.015843
v -0.013546 -0.008000 0.016062
v -0.013664 -0.008000 0.016137
v -0.012070 -0.008000 0.018897
v -0.011946 -0.008000 0.018833
v -0.011828 -0.008000 0.018758
v -0.011717 -0.008000 0.018673
v -0.011614 -0.008000 0.018579
v -0.011520 -0.008000 0.018476
v -0.011435 -0.008000 0.018365
v -0.011360 -0.008000 0.018247
v -0.011296 -0.008000 0.018123
v -0.011296 -0.008000 0.016771
v -0.011360 -0.008000 0.016647
v -0.009746 -0.008000 0.015843
v -0.011435 -0.008000 0.016530
v -0.013293 -0.008000 0.015944
v -0.013422 -0.008000 0.015997
v -0.011520 -0.008000 0.016419
v -0.011614 -0.008000 0.016316
v -0.011717 -0.008000 0.016222
v -0.011828 -0.008000 0.016137
v -0.011946 -0.008000 0.016062
v -0.012070 -0.008000 0.015997
v -0.012199 -0.008000 0.015944
v -0.012332 -0.008000 0.015902
v -0.012468 -0.008000 0.015872
v -0.011242 -0.008000 0.017995
v -0.011200 -0.008000 0.017861
v -0.011170 -0.008000 0.017725
v -0.011152 -0.008000 0.017587
v -0.011146 -0.008000 0.017447
v -0.011152 -0.008000 0.017308
v -0.011170 -0.008000 0.017169
v -0.011200 -0.008000 0.017033
v -0.011242 -0.008000 0.016900
v -0.012606 -0.008000 0.015853
v -0.012746 -0.008000 0.015847
v -0.012885 -0.008000 0.015853
v -0.013664 -0.008000 0.018758
v -0.013546 -0.008000 0.018833
v -0.013796 -0.008000 0.019043
v -0.013422 -0.008000 0.018897
v -0.013293 -0.008000 0.018951
v -0.013160 -0.008000 0.018993
v -0.013024 -0.008000 0.019023
v -0.012885 -0.008000 0.019041
v -0.014056 -0.008000 0.016530
v -0.014131 -0.008000 0.016647
v -0.020496 -0.008000 0.015843
v -0.014196 -0.008000 0.016771
v -0.014249 -0.008000 0.016900
v -0.014291 -0.008000 0.017033
v -0.014322 -0.008000 0.017169
v -0.014340 -0.008000 0.017308
v -0.014346 -0.008000 0.017447
v -0.014340 -0.008000 0.017587
v -0.020496 -0.008000 0.019043
v -0.014322 -0.008000 0.017725
v -0.014291 -0.008000 0.017861
v -0.014131 -0.008000 0.018247
v -0.014056 -0.008000 0.018365
v -0.013774 -0.008000 0.016222
v -0.013877 -0.008000 0.016316
v -0.013971 -0.008000 0.016419
v -0.014249 -0.008000 0.017995
v -0.014196 -0.008000 0.018123
v -0.013971 -0.008000 0.018476
v -0.013877 -0.008000 0.018579
v -0.013774 -0.008000 0.018673
v 0.006254 -0.008000 0.006064
v -0.000276 -0.008000 0.006126
v -0.000253 -0.008000 0.005953
v -0.000276 -0.008000 0.005431
v 0.006254 -0.008000 0.001546
v -0.000314 -0.008000 0.005261
v -0.002763 -0.008000 0.003847
v -0.002930 -0.008000 0.003899
v -0.003246 -0.008000 0.001546
v -0.003091 -0.008000 0.003966
v -0.000246 -0.008000 0.005779
v -0.000253 -0.008000 0.005604
v -0.000366 -0.008000 0.005095
v -0.000433 -0.008000 0.004933
v -0.000514 -0.008000 0.004779
v -0.000608 -0.008000 0.004632
v -0.000714 -0.008000 0.004493
v -0.000832 -0.008000 0.004365
v -0.000960 -0.008000 0.004247
v -0.001099 -0.008000 0.004140
v -0.001246 -0.008000 0.004047
v -0.001899 -0.008000 0.003809
v -0.002072 -0.008000 0.003786
v -0.002246 -0.008000 0.003779
v -0.001401 -0.008000 0.003966
v -0.001562 -0.008000 0.003899
v -0.001728 -0.008000 0.003847
v -0.002420 -0.008000 0.003786
v -0.002593 -0.008000 0.003809
v -0.001099 -0.008000 0.007417
v -0.000960 -0.008000 0.007311
v 0.006254 -0.008000 0.011046
v -0.000832 -0.008000 0.007193
v -0.000714 -0.008000 0.007064
v -0.000608 -0.008000 0.006926
v -0.000514 -0.008000 0.006779
v -0.003393 -0.008000 0.007417
v -0.003246 -0.008000 0.007511
v -0.003246 -0.008000 0.011046
v -0.003091 -0.008000 0.007591
v -0.002930 -0.008000 0.007658
v -0.002763 -0.008000 0.007711
v -0.002593 -0.008000 0.007748
v -0.000433 -0.008000 0.006624
v -0.000366 -0.008000 0.006463
v -0.000314 -0.008000 0.006296
v -0.002420 -0.008000 0.007771
v -0.002246 -0.008000 0.007779
v -0.002072 -0.008000 0.007771
v -0.001562 -0.008000 0.007658
v -0.001401 -0.008000 0.007591
v -0.001246 -0.008000 0.007511
v -0.001899 -0.008000 0.007748
v -0.001728 -0.008000 0.007711
v -0.003884 -0.008000 0.006926
v -0.003778 -0.008000 0.007064
v -0.004696 -0.008000 0.011046
v -0.003660 -0.008000 0.007193
v -0.003531 -0.008000 0.007311
v -0.004696 -0.008000 0.006064
v -0.004215 -0.008000 0.006126
v -0.004178 -0.008000 0.006296
v -0.004125 -0.008000 0.006463
v -0.004058 -0.008000 0.006624
v -0.003978 -0.008000 0.006779
v -0.004215 -0.008000 0.005431
v -0.004238 -0.008000 0.005604
v -0.003246 -0.008000 0.004047
v -0.003393 -0.008000 0.004140
v -0.004696 -0.008000 0.001546
v -0.003531 -0.008000 0.004247
v -0.003660 -0.008000 0.004365
v -0.003778 -0.008000 0.004493
v -0.003884 -0.008000 0.004632
v -0.003978 -0.008000 0.004779
v -0.004058 -0.008000 0.004933
v -0.004125 -0.008000 0.005095
v -0.004178 -0.008000 0.005261
v -0.004246 -0.008000 0.005779
v -0.004238 -0.008000 0.005953
v -0.018246 -0.008000 0.004047
v -0.018393 -0.008000 0.004140
v -0.020496 -0.008000 0.001546
v -0.018531 -0.008000 0.004247
v -0.018660 -0.008000 0.004365
v -0.018778 -0.008000 0.004493
v -0.018884 -0.008000 0.004632
v -0.018978 -0.008000 0.004779
v -0.015253 -0.008000 0.005953
v -0.015246 -0.008000 0.005779
v -0.013796 -0.008000 0.006064
v -0.015253 -0.008000 0.005604
v -0.015276 -0.008000 0.005431
v -0.015314 -0.008000 0.005261
v -0.013796 -0.008000 0.001546
v -0.015514 -0.008000 0.004779
v -0.015608 -0.008000 0.004632
v -0.019178 -0.008000 0.005261
v -0.020496 -0.008000 0.006064
v -0.019125 -0.008000 0.005095
v -0.019058 -0.008000 0.004933
v -0.015366 -0.008000 0.005095
v -0.015433 -0.008000 0.004933
v -0.015714 -0.008000 0.004493
v -0.015832 -0.008000 0.004365
v -0.015960 -0.008000 0.004247
v -0.019215 -0.008000 0.005431
v -0.019238 -0.008000 0.005604
v -0.019246 -0.008000 0.005779
v -0.017593 -0.008000 0.003809
v -0.017763 -0.008000 0.003847
v -0.016899 -0.008000 0.003809
v -0.017072 -0.008000 0.003786
v -0.017420 -0.008000 0.003786
v -0.017246 -0.008000 0.003779
v -0.017930 -0.008000 0.003899
v -0.018091 -0.008000 0.003966
v -0.016099 -0.008000 0.004140
v -0.016246 -0.008000 0.004047
v -0.016401 -0.008000 0.003966
v -0.016562 -0.008000 0.003899
v -0.016728 -0.008000 0.003847
v -0.019238 -0.008000 0.005953
v -0.019215 -0.008000 0.006126
v -0.019178 -0.008000 0.006296
v -0.018884 -0.008000 0.006926
v -0.018778 -0.008000 0.007064
v -0.020496 -0.008000 0.011046
v -0.015366 -0.008000 0.006463
v -0.015314 -0.008000 0.006296
v -0.015276 -0.008000 0.006126
v -0.018660 -0.008000 0.007193
v -0.018531 -0.008000 0.007311
v -0.018393 -0.008000 0.007417
v -0.017246 -0.008000 0.007779
v -0.017072 -0.008000 0.007771
v -0.013796 -0.008000 0.011046
v -0.019125 -0.008000 0.006463
v -0.019058 -0.008000 0.006624
v -0.018978 -0.008000 0.006779
v -0.016899 -0.008000 0.007748
v -0.016728 -0.008000 0.007711
v -0.016562 -0.008000 0.007658
v -0.018246 -0.008000 0.007511
v -0.018091 -0.008000 0.007591
v -0.017930 -0.008000 0.007658
v -0.016401 -0.008000 0.007591
v -0.016246 -0.008000 0.007511
v -0.016099 -0.008000 0.007417
v -0.015960 -0.008000 0.007311
v -0.015832 -0.008000 0.007193
v -0.015714 -0.008000 0.007064
v -0.017763 -0.008000 0.007711
v -0.017593 -0.008000 0.007748
v -0.017420 -0.008000 0.007771
v -0.015608 -0.008000 0.006926
v -0.015514 -0.008000 0.006779
v -0.015433 -0.008000 0.006624
v -0.004696 -0.008000 0.015843
v -0.006606 -0.008000 0.015845
v -0.006885 -0.008000 0.015845
v -0.007024 -0.008000 0.015863
v -0.007160 -0.008000 0.015893
v -0.007293 -0.008000 0.015935
v -0.007422 -0.008000 0.015988
v -0.007546 -0.008000 0.016053
v -0.007664 -0.008000 0.016128
v -0.007774 -0.008000 0.016213
v -0.007877 -0.008000 0.016307
v -0.007971 -0.008000 0.016410
v -0.008056 -0.008000 0.016521
v -0.008131 -0.008000 0.016638
v -0.008196 -0.008000 0.016762
v -0.008249 -0.008000 0.016891
v -0.008291 -0.008000 0.017024
v -0.008322 -0.008000 0.017161
v -0.007546 -0.008000 0.018824
v -0.007422 -0.008000 0.018889
v -0.007293 -0.008000 0.018942
v -0.007160 -0.008000 0.018984
v -0.005946 -0.008000 0.016053
v -0.006070 -0.008000 0.015988
v -0.006199 -0.008000 0.015935
v -0.006332 -0.008000 0.015893
v -0.006468 -0.008000 0.015863
v -0.008340 -0.008000 0.017578
v -0.008346 -0.008000 0.017438
v -0.008340 -0.008000 0.017299
v -0.007024 -0.008000 0.019014
v -0.006885 -0.008000 0.019032
v -0.006746 -0.008000 0.019038
v -0.006606 -0.008000 0.019032
v -0.006468 -0.008000 0.019014
v -0.006332 -0.008000 0.018984
v -0.006199 -0.008000 0.018942
v -0.006070 -0.008000 0.018889
v -0.005946 -0.008000 0.018824
v -0.005828 -0.008000 0.018749
v -0.005717 -0.008000 0.018664
v -0.005170 -0.008000 0.017716
v -0.005200 -0.008000 0.017853
v -0.005242 -0.008000 0.017986
v -0.008322 -0.008000 0.017716
v -0.008291 -0.008000 0.017853
v -0.008249 -0.008000 0.017986
v -0.008056 -0.008000 0.018356
v -0.007971 -0.008000 0.018467
v -0.007877 -0.008000 0.018570
v -0.007774 -0.008000 0.018664
v -0.007664 -0.008000 0.018749
v -0.005614 -0.008000 0.018570
v -0.005520 -0.008000 0.018467
v -0.005435 -0.008000 0.018356
v -0.005360 -0.008000 0.018238
v -0.005296 -0.008000 0.018115
v -0.005152 -0.008000 0.017578
v -0.005146 -0.008000 0.017438
v -0.005152 -0.008000 0.017299
v -0.005170 -0.008000 0.017161
v -0.005200 -0.008000 0.017024
v -0.005242 -0.008000 0.016891
v -0.005296 -0.008000 0.016762
v -0.005360 -0.008000 0.016638
v -0.005435 -0.008000 0.016521
v -0.005520 -0.008000 0.016410
v -0.005614 -0.008000 0.016307
v -0.005717 -0.008000 0.016213
v -0.005828 -0.008000 0.016128
v -0.008196 -0.008000 0.018115
v -0.008131 -0.008000 0.018238
v -0.029246 -0.008000 -0.004936
v 0.006254 -0.008000 0.014814
v -0.003246 -0.008000 0.015843
v 0.001761 -0.008000 0.019043
v -0.003246 -0.008000 0.019043
v -0.002035 -0.008000 -0.005383
v -0.002127 -0.008000 -0.005092
v -0.003246 -0.008000 -0.004936
v 0.004543 -0.008000 -0.005383
v 0.004426 -0.008000 -0.005665
v -0.001613 -0.008000 -0.006194
v -0.001777 -0.008000 -0.005936
v 0.004285 -0.008000 -0.005936
v 0.004121 -0.008000 -0.006194
v 0.003935 -0.008000 -0.006436
v 0.003004 -0.008000 -0.007217
v 0.002733 -0.008000 -0.007358
v 0.002451 -0.008000 -0.007475
v 0.002160 -0.008000 -0.007567
v 0.001862 -0.008000 -0.007633
v 0.001559 -0.008000 -0.007673
v 0.001254 -0.008000 -0.007686
v -0.000225 -0.008000 -0.007358
v 0.000057 -0.008000 -0.007475
v 0.000348 -0.008000 -0.007567
v 0.003729 -0.008000 -0.006661
v 0.003504 -0.008000 -0.006867
v 0.003262 -0.008000 -0.007053
v 0.000949 -0.008000 -0.007673
v 0.000646 -0.008000 -0.007633
v -0.000496 -0.008000 -0.007217
v -0.000753 -0.008000 -0.007053
v -0.000996 -0.008000 -0.006867
v -0.001918 -0.008000 -0.005665
v -0.001221 -0.008000 -0.006661
v -0.001427 -0.008000 -0.006436
v -0.004696 -0.008000 -0.004936
v -0.009746 -0.008000 0.001546
v 0.004121 -0.008000 -0.002179
v 0.004285 -0.008000 -0.002436
v 0.004426 -0.008000 -0.002707
v 0.004741 -0.008000 -0.003881
v 0.004754 -0.008000 -0.004186
v 0.006254 -0.008000 -0.004936
v 0.004543 -0.008000 -0.002989
v 0.004635 -0.008000 -0.003280
v 0.004701 -0.008000 -0.003579
v 0.004741 -0.008000 -0.004491
v 0.004701 -0.008000 -0.004794
v 0.004635 -0.008000 -0.005092
v -0.002193 -0.008000 -0.004794
v -0.002232 -0.008000 -0.004491
v -0.002246 -0.008000 -0.004186
v -0.002035 -0.008000 -0.002989
v -0.001918 -0.008000 -0.002707
v -0.002232 -0.008000 -0.003881
v -0.002193 -0.008000 -0.003579
v -0.002127 -0.008000 -0.003280
v -0.001777 -0.008000 -0.002436
v -0.001613 -0.008000 -0.002179
v -0.001427 -0.008000 -0.001937
v 0.003504 -0.008000 -0.001505
v 0.003262 -0.008000 -0.001319
v 0.003004 -0.008000 -0.001155
v 0.003729 -0.008000 -0.001711
v 0.003935 -0.008000 -0.001937
v -0.001221 -0.008000 -0.001711
v -0.000996 -0.008000 -0.001505
v -0.000753 -0.008000 -0.001319
v 0.002160 -0.008000 -0.000806
v 0.001862 -0.008000 -0.000739
v 0.001559 -0.008000 -0.000700
v 0.002451 -0.008000 -0.000897
v 0.002733 -0.008000 -0.001014
v 0.001254 -0.008000 -0.000686
v 0.000949 -0.008000 -0.000700
v -0.000496 -0.008000 -0.001155
v -0.000225 -0.008000 -0.001014
v 0.000057 -0.008000 -0.000897
v 0.000348 -0.008000 -0.000806
v 0.000646 -0.008000 -0.000739
v -0.029246 -0.008000 0.006064
v -0.009746 -0.008000 0.006064
v -0.012746 -0.008000 0.019047
v 0.006254 0.000000 0.014814
v -0.001099 0.000000 0.007417
v -0.001246 0.000000 0.007511
v -0.007971 0.000000 0.016410
v -0.017072 0.000000 0.007771
v -0.017246 0.000000 0.007779
v -0.012746 0.000000 0.019047
v -0.012885 0.000000 0.019041
v -0.006746 0.000000 0.019038
v -0.006885 0.000000 0.019032
v -0.012332 0.000000 0.018993
v -0.012468 0.000000 0.019023
v -0.012606 0.000000 0.019041
v -0.007774 0.000000 0.016213
v -0.000714 0.000000 0.007064
v -0.007877 0.000000 0.016307
v -0.000832 0.000000 0.007193
v -0.000960 0.000000 0.007311
v -0.001401 0.000000 0.007591
v -0.001562 0.000000 0.007658
v -0.001728 0.000000 0.007711
v -0.001899 0.000000 0.007748
v -0.002072 0.000000 0.007771
v -0.002246 0.000000 0.007779
v -0.007422 0.000000 0.018889
v -0.007293 0.000000 0.018942
v -0.007160 0.000000 0.018984
v -0.013024 0.000000 0.019023
v -0.013160 0.000000 0.018993
v -0.013293 0.000000 0.018951
v -0.013422 0.000000 0.018897
v -0.013546 0.000000 0.018833
v -0.013664 0.000000 0.018758
v -0.007024 0.000000 0.019014
v -0.006606 0.000000 0.015845
v -0.006468 0.000000 0.015863
v -0.006332 0.000000 0.015893
v -0.000608 0.000000 0.006926
v -0.006199 0.000000 0.018942
v -0.006332 0.000000 0.018984
v -0.015253 0.000000 0.005953
v -0.014340 0.000000 0.017587
v -0.015246 0.000000 0.005779
v -0.014346 0.000000 0.017447
v -0.015253 0.000000 0.005604
v -0.014340 0.000000 0.017308
v -0.014322 0.000000 0.017169
v -0.014291 0.000000 0.017033
v -0.014249 0.000000 0.016900
v -0.014196 0.000000 0.016771
v -0.006468 0.000000 0.019014
v -0.006606 0.000000 0.019032
v -0.014131 0.000000 0.016647
v -0.014056 0.000000 0.016530
v -0.013971 0.000000 0.016419
v -0.013971 0.000000 0.018476
v -0.014056 0.000000 0.018365
v -0.014131 0.000000 0.018247
v -0.014196 0.000000 0.018123
v -0.007664 0.000000 0.016128
v -0.007546 0.000000 0.016053
v -0.007422 0.000000 0.015988
v -0.007293 0.000000 0.015935
v -0.007160 0.000000 0.015893
v -0.007024 0.000000 0.015863
v -0.013546 0.000000 0.016062
v -0.013422 0.000000 0.015997
v -0.015276 0.000000 0.005431
v -0.013293 0.000000 0.015944
v -0.013877 0.000000 0.016316
v -0.013774 0.000000 0.016222
v -0.013664 0.000000 0.016137
v -0.013774 0.000000 0.018673
v -0.013877 0.000000 0.018579
v -0.006885 0.000000 0.015845
v -0.006746 0.000000 0.015838
v -0.015276 0.000000 0.006126
v -0.015314 0.000000 0.006296
v -0.015366 0.000000 0.006463
v -0.003778 0.000000 0.004493
v -0.003660 0.000000 0.004365
v -0.015433 0.000000 0.006624
v -0.015514 0.000000 0.006779
v -0.015608 0.000000 0.006926
v -0.014249 0.000000 0.017995
v -0.014291 0.000000 0.017861
v -0.014322 0.000000 0.017725
v -0.002763 0.000000 0.003847
v -0.002593 0.000000 0.003809
v -0.005828 0.000000 0.018749
v -0.005946 0.000000 0.018824
v -0.006070 0.000000 0.018889
v -0.008196 0.000000 0.016762
v -0.008131 0.000000 0.016638
v -0.011360 0.000000 0.016647
v -0.008056 0.000000 0.016521
v -0.011435 0.000000 0.018365
v -0.011520 0.000000 0.018476
v -0.011614 0.000000 0.018579
v -0.011717 0.000000 0.018673
v -0.011828 0.000000 0.018758
v -0.000960 0.000000 0.004247
v -0.000832 0.000000 0.004365
v -0.011946 0.000000 0.018833
v -0.012070 0.000000 0.018897
v -0.012199 0.000000 0.018951
v -0.015714 0.000000 0.007064
v -0.015832 0.000000 0.007193
v -0.015960 0.000000 0.007311
v -0.016899 0.000000 0.007748
v -0.018884 0.000000 0.004632
v -0.018778 0.000000 0.004493
v -0.012746 0.000000 0.015847
v -0.012606 0.000000 0.015853
v -0.012468 0.000000 0.015872
v -0.002420 0.000000 0.007771
v -0.011614 0.000000 0.016316
v -0.011520 0.000000 0.016419
v -0.003531 0.000000 0.007311
v -0.004058 0.000000 0.004933
v -0.004125 0.000000 0.005095
v -0.012070 0.000000 0.015997
v -0.003978 0.000000 0.004779
v -0.003884 0.000000 0.004632
v -0.005296 0.000000 0.016762
v -0.005242 0.000000 0.016891
v -0.011296 0.000000 0.016771
v -0.011242 0.000000 0.016900
v -0.008249 0.000000 0.016891
v -0.008291 0.000000 0.017024
v -0.016099 0.000000 0.007417
v -0.016246 0.000000 0.007511
v -0.016401 0.000000 0.007591
v -0.016562 0.000000 0.007658
v -0.016728 0.000000 0.007711
v -0.018393 0.000000 0.007417
v -0.018531 0.000000 0.007311
v -0.018660 0.000000 0.007193
v -0.018778 0.000000 0.007064
v -0.018884 0.000000 0.006926
v -0.018978 0.000000 0.006779
v -0.019058 0.000000 0.006624
v -0.012332 0.000000 0.015902
v -0.012199 0.000000 0.015944
v -0.011946 0.000000 0.016062
v -0.003778 0.000000 0.007064
v -0.011828 0.000000 0.016137
v -0.011717 0.000000 0.016222
v -0.011435 0.000000 0.016530
v -0.003393 0.000000 0.007417
v -0.003531 0.000000 0.004247
v -0.003393 0.000000 0.004140
v -0.003246 0.000000 0.004047
v -0.000514 0.000000 0.004779
v -0.000433 0.000000 0.004933
v -0.000366 0.000000 0.005095
v -0.000314 0.000000 0.005261
v -0.000314 0.000000 0.006296
v -0.000276 0.000000 0.006126
v -0.000253 0.000000 0.005953
v -0.006199 0.000000 0.015935
v -0.006070 0.000000 0.015988
v -0.000514 0.000000 0.006779
v -0.005946 0.000000 0.016053
v -0.005200 0.000000 0.017024
v -0.005170 0.000000 0.017161
v -0.005152 0.000000 0.017299
v -0.005146 0.000000 0.017438
v -0.005152 0.000000 0.017578
v -0.005170 0.000000 0.017716
v -0.007546 0.000000 0.018824
v -0.011296 0.000000 0.018123
v -0.011360 0.000000 0.018247
v -0.011200 0.000000 0.017033
v -0.008340 0.000000 0.017299
v -0.008322 0.000000 0.017161
v -0.017420 0.000000 0.007771
v -0.017593 0.000000 0.007748
v -0.017763 0.000000 0.007711
v -0.017930 0.000000 0.007658
v -0.018091 0.000000 0.007591
v -0.018246 0.000000 0.007511
v -0.019215 0.000000 0.005431
v -0.019178 0.000000 0.005261
v -0.019125 0.000000 0.005095
v -0.013160 0.000000 0.015902
v -0.013024 0.000000 0.015872
v -0.012885 0.000000 0.015853
v -0.002593 0.000000 0.007748
v -0.002763 0.000000 0.007711
v -0.002930 0.000000 0.007658
v -0.003091 0.000000 0.007591
v -0.003246 0.000000 0.007511
v -0.003884 0.000000 0.006926
v -0.003978 0.000000 0.006779
v -0.004058 0.000000 0.006624
v -0.004125 0.000000 0.006463
v -0.004178 0.000000 0.006296
v -0.004215 0.000000 0.006126
v -0.003091 0.000000 0.003966
v -0.002930 0.000000 0.003899
v -0.000714 0.000000 0.004493
v -0.000608 0.000000 0.004632
v -0.000276 0.000000 0.005431
v -0.000253 0.000000 0.005604
v -0.000246 0.000000 0.005779
v -0.005828 0.000000 0.016128
v -0.005717 0.000000 0.016213
v -0.005614 0.000000 0.016307
v -0.005360 0.000000 0.018238
v -0.005435 0.000000 0.018356
v -0.005520 0.000000 0.018467
v -0.011170 0.000000 0.017169
v -0.011152 0.000000 0.017308
v -0.008346 0.000000 0.017438
v -0.011146 0.000000 0.017447
v -0.008340 0.000000 0.017578
v -0.011152 0.000000 0.017587
v -0.008322 0.000000 0.017716
v -0.008291 0.000000 0.017853
v -0.019125 0.000000 0.006463
v -0.019178 0.000000 0.006296
v -0.019215 0.000000 0.006126
v -0.019058 0.000000 0.004933
v -0.018978 0.000000 0.004779
v -0.003660 0.000000 0.007193
v -0.004238 0.000000 0.005953
v -0.004246 0.000000 0.005779
v -0.004238 0.000000 0.005604
v -0.004215 0.000000 0.005431
v -0.004178 0.000000 0.005261
v -0.002420 0.000000 0.003786
v -0.002246 0.000000 0.003779
v -0.002072 0.000000 0.003786
v -0.001899 0.000000 0.003809
v -0.001728 0.000000 0.003847
v -0.001562 0.000000 0.003899
v -0.001401 0.000000 0.003966
v -0.005200 0.000000 0.017853
v -0.005242 0.000000 0.017986
v -0.005296 0.000000 0.018115
v -0.005614 0.000000 0.018570
v -0.005717 0.000000 0.018664
v -0.007664 0.000000 0.018749
v -0.007774 0.000000 0.018664
v -0.007877 0.000000 0.018570
v -0.015832 0.000000 0.004365
v -0.015714 0.000000 0.004493
v -0.015608 0.000000 0.004632
v -0.015514 0.000000 0.004779
v -0.015433 0.000000 0.004933
v -0.015366 0.000000 0.005095
v -0.015314 0.000000 0.005261
v -0.001246 0.000000 0.004047
v -0.001099 0.000000 0.004140
v -0.007971 0.000000 0.018467
v -0.008056 0.000000 0.018356
v -0.008131 0.000000 0.018238
v -0.019238 0.000000 0.005953
v -0.019246 0.000000 0.005779
v -0.019238 0.000000 0.005604
v -0.000366 0.000000 0.006463
v -0.000433 0.000000 0.006624
v -0.011200 0.000000 0.017861
v -0.011242 0.000000 0.017995
v -0.008249 0.000000 0.017986
v -0.008196 0.000000 0.018115
v -0.011170 0.000000 0.017725
v -0.005520 0.000000 0.016410
v -0.005435 0.000000 0.016521
v -0.005360 0.000000 0.016638
v -0.017246 0.000000 0.003779
v -0.017072 0.000000 0.003786
v -0.016246 0.000000 0.004047
v -0.016099 0.000000 0.004140
v -0.015960 0.000000 0.004247
v -0.016899 0.000000 0.003809
v -0.018393 0.000000 0.004140
v -0.018246 0.000000 0.004047
v -0.018660 0.000000 0.004365
v -0.018531 0.000000 0.004247
v -0.017420 0.000000 0.003786
v -0.017593 0.000000 0.003809
v -0.017763 0.000000 0.003847
v -0.017930 0.000000 0.003899
v -0.018091 0.000000 0.003966
v -0.016728 0.000000 0.003847
v -0.016562 0.000000 0.003899
v -0.016401 0.000000 0.003966
# 1589 vertices, 0 vertices normals

f 1 2 3
f 2 4 3
f 3 4 5
f 4 6 5
f 5 6 7
f 6 8 7
f 7 8 9
f 8 10 9
f 9 10 11
f 10 12 11
f 11 12 13
f 12 14 13
f 13 14 15
f 14 16 15
f 15 16 17
f 16 18 17
f 17 18 19
f 18 20 19
f 19 20 21
f 20 22 21
f 21 22 23
f 22 24 23
f 23 24 25
f 24 26 25
f 25 26 27
f 26 28 27
f 27 28 29
f 28 30 29
f 29 30 31
f 30 32 31
f 31 32 33
f 32 34 33
f 33 34 35
f 34 36 35
f 35 36 37
f 36 38 37
f 37 38 39
f 38 40 39
f 39 40 41
f 40 42 41
f 41 42 43
f 42 44 43
f 43 44 45
f 44 46 45
f 45 46 47
f 46 48 47
f 47 48 49
f 48 50 49
f 49 50 51
f 50 52 51
f 51 52 53
f 52 54 53
f 53 54 55
f 54 56 55
f 55 56 57
f 56 58 57
f 57 58 59
f 58 60 59
f 59 60 61
f 60 62 61
f 61 62 63
f 62 64 63
f 63 64 65
f 64 66 65
f 65 66 67
f 66 68 67
f 67 68 69
f 68 70 69
f 69 70 71
f 70 72 71
f 71 72 73
f 72 74 73
f 73 74 75
f 74 76 75
f 75 76 77
f 76 78 77
f 77 78 79
f 78 80 79
f 79 80 81
f 80 82 81
f 81 82 83
f 82 84 83
f 83 84 85
f 84 86 85
f 85 86 87
f 86 88 87
f 87 88 89
f 88 90 89
f 89 90 91
f 90 92 91
f 91 92 93
f 92 94 93
f 93 94 95
f 94 96 95
f 95 96 97
f 96 98 97
f 97 98 99
f 98 100 99
f 99 100 101
f 100 102 101
f 101 102 103
f 102 104 103
f 103 104 105
f 104 106 105
f 105 106 107
f 106 108 107
f 107 108 109
f 108 110 109
f 109 110 111
f 110 112 111
f 111 112 113
f 112 114 113
f 113 114 115
f 114 116 115
f 115 116 117
f 116 118 117
f 117 118 119
f 118 120 119
f 119 120 121
f 120 122 121
f 121 122 123
f 122 124 123
f 123 124 125
f 124 126 125
f 125 126 127
f 126 128 127
f 127 128 129
f 128 130 129
f 129 130 131
f 130 132 131
f 131 132 133
f 132 134 133
f 133 134 135
f 134 136 135
f 135 136 137
f 136 138 137
f 137 138 139
f 138 140 139
f 139 140 141
f 140 142 141
f 141 142 143
f 142 144 143
f 143 144 1
f 144 2 1
f 145 146 147
f 146 148 147
f 147 148 149
f 150 151 147
f 151 152 147
f 147 152 145
f 153 154 147
f 154 155 147
f 147 155 150
f 156 157 147
f 157 158 147
f 147 158 153
f 159 160 147
f 160 161 147
f 147 161 156
f 162 163 147
f 163 164 147
f 147 164 159
f 165 166 147
f 166 167 147
f 147 167 162
f 168 169 147
f 169 170 147
f 147 170 165
f 171 172 147
f 172 173 147
f 147 173 168
f 174 175 147
f 175 176 147
f 147 176 171
f 177 178 147
f 178 179 147
f 147 179 174
f 180 181 147
f 181 182 147
f 147 182 177
f 183 184 147
f 184 185 147
f 147 185 180
f 186 187 147
f 187 188 147
f 147 188 183
f 189 190 147
f 190 191 147
f 147 191 186
f 192 193 147
f 193 194 147
f 147 194 189
f 195 196 147
f 196 197 147
f 147 197 192
f 198 199 147
f 199 200 147
f 147 200 195
f 201 202 147
f 202 203 147
f 147 203 198
f 204 205 147
f 205 206 147
f 147 206 201
f 207 208 147
f 208 209 147
f 147 209 204
f 210 211 147
f 211 212 147
f 147 212 207
f 213 214 147
f 214 215 147
f 147 215 210
f 149 216 147
f 216 217 147
f 147 217 213
f 218 219 220
f 219 221 220
f 220 221 222
f 223 224 220
f 224 225 220
f 220 225 218
f 226 227 220
f 227 228 220
f 220 228 223
f 229 230 220
f 230 231 220
f 220 231 226
f 232 233 220
f 233 234 220
f 220 234 229
f 235 236 220
f 236 237 220
f 220 237 232
f 238 239 220
f 239 240 220
f 220 240 235
f 241 242 220
f 242 243 220
f 220 243 238
f 244 245 220
f 245 246 220
f 220 246 241
f 247 248 220
f 248 249 220
f 220 249 244
f 250 251 220
f 251 252 220
f 220 252 247
f 253 254 220
f 254 255 220
f 220 255 250
f 256 257 220
f 257 258 220
f 220 258 253
f 259 260 220
f 260 261 220
f 220 261 256
f 262 263 220
f 263 264 220
f 220 264 259
f 265 266 220
f 266 267 220
f 220 267 262
f 268 269 220
f 269 270 220
f 220 270 265
f 271 272 220
f 272 273 220
f 220 273 268
f 274 275 220
f 275 276 220
f 220 276 271
f 277 278 220
f 278 279 220
f 220 279 274
f 280 281 220
f 281 282 220
f 220 282 277
f 283 284 220
f 284 285 220
f 220 285 280
f 286 287 220
f 287 288 220
f 220 288 283
f 222 289 220
f 289 290 220
f 220 290 286
f 221 291 222
f 291 292 222
f 222 292 289
f 292 293 289
f 289 293 290
f 293 294 290
f 290 294 286
f 294 295 286
f 286 295 287
f 295 296 287
f 287 296 288
f 296 297 288
f 288 297 283
f 297 298 283
f 283 298 284
f 298 299 284
f 284 299 285
f 299 300 285
f 285 300 280
f 300 301 280
f 280 301 281
f 301 302 281
f 281 302 282
f 302 303 282
f 282 303 277
f 303 304 277
f 277 304 278
f 304 305 278
f 278 305 279
f 305 306 279
f 279 306 274
f 306 307 274
f 274 307 275
f 307 308 275
f 275 308 276
f 308 309 276
f 276 309 271
f 309 310 271
f 271 310 272
f 310 311 272
f 272 311 273
f 311 312 273
f 273 312 268
f 312 313 268
f 268 313 269
f 313 314 269
f 269 314 270
f 314 315 270
f 270 315 265
f 315 316 265
f 265 316 266
f 316 317 266
f 266 317 267
f 317 318 267
f 267 318 262
f 318 319 262
f 262 319 263
f 319 320 263
f 263 320 264
f 320 321 264
f 264 321 259
f 321 322 259
f 259 322 260
f 322 323 260
f 260 323 261
f 323 324 261
f 261 324 256
f 324 325 256
f 256 325 257
f 325 326 257
f 257 326 258
f 326 327 258
f 258 327 253
f 327 328 253
f 253 328 254
f 328 329 254
f 254 329 255
f 329 330 255
f 255 330 250
f 330 331 250
f 250 331 251
f 331 332 251
f 251 332 252
f 332 333 252
f 252 333 247
f 333 334 247
f 247 334 248
f 334 335 248
f 248 335 249
f 335 336 249
f 249 336 244
f 336 337 244
f 244 337 245
f 337 338 245
f 245 338 246
f 338 339 246
f 246 339 241
f 339 340 241
f 241 340 242
f 340 341 242
f 242 341 243
f 341 342 243
f 243 342 238
f 342 343 238
f 238 343 239
f 343 344 239
f 239 344 240
f 344 345 240
f 240 345 235
f 345 346 235
f 235 346 236
f 346 347 236
f 236 347 237
f 347 348 237
f 237 348 232
f 348 349 232
f 232 349 233
f 349 350 233
f 233 350 234
f 350 351 234
f 234 351 229
f 351 352 229
f 229 352 230
f 352 353 230
f 230 353 231
f 353 354 231
f 231 354 226
f 354 355 226
f 226 355 227
f 355 356 227
f 227 356 228
f 356 357 228
f 228 357 223
f 357 358 223
f 223 358 224
f 358 359 224
f 224 359 225
f 359 360 225
f 225 360 218
f 360 361 218
f 218 361 219
f 361 362 219
f 219 362 221
f 362 291 221
f 363 364 365
f 364 366 365
f 365 366 367
f 366 368 367
f 367 368 369
f 368 370 369
f 369 370 371
f 370 372 371
f 371 372 373
f 372 374 373
f 373 374 375
f 374 376 375
f 375 376 377
f 376 378 377
f 377 378 379
f 378 380 379
f 379 380 381
f 380 382 381
f 381 382 383
f 382 384 383
f 383 384 385
f 384 386 385
f 385 386 387
f 386 388 387
f 387 388 389
f 388 390 389
f 389 390 391
f 390 392 391
f 391 392 393
f 392 394 393
f 393 394 395
f 394 396 395
f 395 396 397
f 396 398 397
f 397 398 399
f 398 400 399
f 399 400 401
f 400 402 401
f 401 402 403
f 402 404 403
f 403 404 405
f 404 406 405
f 405 406 407
f 406 408 407
f 407 408 409
f 408 410 409
f 409 410 411
f 410 412 411
f 411 412 413
f 412 414 413
f 413 414 415
f 414 416 415
f 415 416 417
f 416 418 417
f 417 418 419
f 418 420 419
f 419 420 421
f 420 422 421
f 421 422 423
f 422 424 423
f 423 424 425
f 424 426 425
f 425 426 427
f 426 428 427
f 427 428 429
f 428 430 429
f 429 430 431
f 430 432 431
f 431 432 433
f 432 434 433
f 433 434 435
f 434 436 435
f 435 436 437
f 436 438 437
f 437 438 439
f 438 440 439
f 439 440 441
f 440 442 441
f 441 442 443
f 442 444 443
f 443 444 445
f 444 446 445
f 445 446 447
f 446 448 447
f 447 448 449
f 448 450 449
f 449 450 451
f 450 452 451
f 451 452 453
f 452 454 453
f 453 454 455
f 454 456 455
f 455 456 457
f 456 458 457
f 457 458 459
f 458 460 459
f 459 460 461
f 460 462 461
f 461 462 463
f 462 464 463
f 463 464 465
f 464 466 465
f 465 466 467
f 466 468 467
f 467 468 469
f 468 470 469
f 469 470 471
f 470 472 471
f 471 472 473
f 472 474 473
f 473 474 475
f 474 476 475
f 475 476 477
f 476 478 477
f 477 478 479
f 478 480 479
f 479 480 481
f 480 482 481
f 481 482 483
f 482 484 483
f 483 484 485
f 484 486 485
f 485 486 487
f 486 488 487
f 487 488 489
f 488 490 489
f 489 490 491
f 490 492 491
f 491 492 493
f 492 494 493
f 493 494 495
f 494 496 495
f 495 496 497
f 496 498 497
f 497 498 499
f 498 500 499
f 499 500 501
f 500 502 501
f 501 502 503
f 502 504 503
f 503 504 505
f 504 506 505
f 505 506 363
f 506 364 363
f 507 508 509
f 508 510 509
f 509 510 511
f 510 512 511
f 511 512 513
f 512 514 513
f 513 514 515
f 514 516 515
f 515 516 517
f 516 518 517
f 517 518 519
f 518 520 519
f 519 520 521
f 520 522 521
f 521 522 523
f 522 524 523
f 523 524 525
f 524 526 525
f 525 526 527
f 526 528 527
f 527 528 529
f 528 530 529
f 529 530 531
f 530 532 531
f 531 532 533
f 532 534 533
f 533 534 535
f 534 536 535
f 535 536 537
f 536 538 537
f 537 538 539
f 538 540 539
f 539 540 541
f 540 542 541
f 541 542 543
f 542 544 543
f 543 544 545
f 544 546 545
f 545 546 547
f 546 548 547
f 547 548 549
f 548 550 549
f 549 550 551
f 550 552 551
f 551 552 553
f 552 554 553
f 553 554 555
f 554 556 555
f 555 556 557
f 556 558 557
f 557 558 559
f 558 560 559
f 559 560 561
f 560 562 561
f 561 562 563
f 562 564 563
f 563 564 565
f 564 566 565
f 565 566 567
f 566 568 567
f 567 568 569
f 568 570 569
f 569 570 571
f 570 572 571
f 571 572 573
f 572 574 573
f 573 574 575
f 574 576 575
f 575 576 577
f 576 578 577
f 577 578 579
f 578 580 579
f 579 580 581
f 580 582 581
f 581 582 583
f 582 584 583
f 583 584 585
f 584 586 585
f 585 586 587
f 586 588 587
f 587 588 589
f 588 590 589
f 589 590 591
f 590 592 591
f 591 592 593
f 592 594 593
f 593 594 595
f 594 596 595
f 595 596 597
f 596 598 597
f 597 598 599
f 598 600 599
f 599 600 601
f 600 602 601
f 601 602 603
f 602 604 603
f 603 604 605
f 604 606 605
f 605 606 607
f 606 608 607
f 607 608 609
f 608 610 609
f 609 610 611
f 610 612 611
f 611 612 613
f 612 614 613
f 613 614 615
f 614 616 615
f 615 616 617
f 616 618 617
f 617 618 619
f 618 620 619
f 619 620 621
f 620 622 621
f 621 622 623
f 622 624 623
f 623 624 625
f 624 626 625
f 625 626 627
f 626 628 627
f 627 628 629
f 628 630 629
f 629 630 631
f 630 632 631
f 631 632 633
f 632 634 633
f 633 634 635
f 634 636 635
f 635 636 637
f 636 638 637
f 637 638 639
f 638 640 639
f 639 640 641
f 640 642 641
f 641 642 643
f 642 644 643
f 643 644 645
f 644 646 645
f 645 646 647
f 646 648 647
f 647 648 649
f 648 650 649
f 649 650 507
f 650 508 507
f 141 143 651
f 143 1 651
f 651 1 3
f 135 137 651
f 137 139 651
f 651 139 141
f 129 131 651
f 131 133 651
f 651 133 135
f 123 125 651
f 125 127 651
f 651 127 129
f 117 119 651
f 119 121 651
f 651 121 123
f 111 113 651
f 113 115 651
f 651 115 117
f 105 107 651
f 107 109 651
f 651 109 111
f 99 101 651
f 101 103 651
f 651 103 105
f 93 95 651
f 95 97 651
f 651 97 99
f 87 89 651
f 89 91 651
f 651 91 93
f 81 83 651
f 83 85 651
f 651 85 87
f 75 77 651
f 77 79 651
f 651 79 81
f 69 71 651
f 71 73 651
f 651 73 75
f 63 65 651
f 65 67 651
f 651 67 69
f 57 59 651
f 59 61 651
f 651 61 63
f 51 53 651
f 53 55 651
f 651 55 57
f 45 47 651
f 47 49 651
f 651 49 51
f 39 41 651
f 41 43 651
f 651 43 45
f 33 35 651
f 35 37 651
f 651 37 39
f 27 29 651
f 29 31 651
f 651 31 33
f 21 23 651
f 23 25 651
f 651 25 27
f 15 17 651
f 17 19 651
f 651 19 21
f 9 11 651
f 11 13 651
f 651 13 15
f 3 5 651
f 5 7 651
f 651 7 9
f 652 653 654
f 653 655 654
f 656 657 658
f 659 660 661
f 660 662 661
f 661 662 658
f 662 663 658
f 658 663 656
f 664 665 666
f 665 667 666
f 666 667 668
f 667 669 668
f 668 669 670
f 669 671 670
f 670 671 672
f 671 673 672
f 672 673 674
f 673 675 674
f 674 675 676
f 675 677 676
f 676 677 678
f 677 679 678
f 678 679 680
f 679 681 680
f 680 681 682
f 681 683 682
f 682 683 684
f 683 685 684
f 684 685 686
f 685 687 686
f 686 687 688
f 687 689 688
f 688 689 690
f 689 691 690
f 690 691 692
f 691 693 692
f 692 693 694
f 693 695 694
f 694 695 696
f 695 697 696
f 696 697 698
f 697 699 698
f 698 699 700
f 699 701 700
f 700 701 702
f 701 703 702
f 702 703 704
f 703 705 704
f 704 705 706
f 705 707 706
f 706 707 708
f 707 709 708
f 708 709 710
f 709 711 710
f 710 711 712
f 711 713 712
f 712 713 714
f 713 715 714
f 714 715 716
f 715 717 716
f 716 717 718
f 717 719 718
f 718 719 720
f 719 721 720
f 720 721 722
f 721 723 722
f 722 723 724
f 723 725 724
f 724 725 726
f 725 727 726
f 726 727 728
f 727 729 728
f 728 729 730
f 729 731 730
f 730 731 732
f 731 733 732
f 732 733 734
f 733 735 734
f 734 735 736
f 735 737 736
f 736 737 738
f 737 739 738
f 738 739 740
f 739 741 740
f 740 741 742
f 741 743 742
f 742 743 744
f 743 745 744
f 744 745 746
f 745 747 746
f 148 748 149
f 748 749 149
f 149 749 216
f 749 750 216
f 216 750 217
f 750 751 217
f 217 751 213
f 751 752 213
f 213 752 214
f 752 753 214
f 214 753 215
f 753 754 215
f 215 754 210
f 754 755 210
f 210 755 211
f 755 756 211
f 211 756 212
f 756 757 212
f 212 757 207
f 757 758 207
f 207 758 208
f 758 759 208
f 208 759 209
f 759 760 209
f 209 760 204
f 760 761 204
f 204 761 205
f 761 762 205
f 205 762 206
f 762 763 206
f 206 763 201
f 763 764 201
f 201 764 202
f 764 765 202
f 202 765 203
f 765 766 203
f 203 766 198
f 766 767 198
f 198 767 199
f 767 768 199
f 199 768 200
f 768 769 200
f 200 769 195
f 769 770 195
f 195 770 196
f 770 771 196
f 196 771 197
f 771 772 197
f 197 772 192
f 772 773 192
f 192 773 193
f 773 774 193
f 193 774 194
f 774 775 194
f 194 775 189
f 775 776 189
f 189 776 190
f 776 777 190
f 190 777 191
f 777 778 191
f 191 778 186
f 778 779 186
f 186 779 187
f 779 780 187
f 187 780 188
f 780 781 188
f 188 781 183
f 781 782 183
f 183 782 184
f 782 783 184
f 184 783 185
f 783 784 185
f 185 784 180
f 784 785 180
f 180 785 181
f 785 786 181
f 181 786 182
f 786 787 182
f 182 787 177
f 787 788 177
f 177 788 178
f 788 789 178
f 178 789 179
f 789 790 179
f 179 790 174
f 790 791 174
f 174 791 175
f 791 792 175
f 175 792 176
f 792 793 176
f 176 793 171
f 793 794 171
f 171 794 172
f 794 795 172
f 172 795 173
f 795 796 173
f 173 796 168
f 796 797 168
f 168 797 169
f 797 798 169
f 169 798 170
f 798 799 170
f 170 799 165
f 799 800 165
f 165 800 166
f 800 801 166
f 166 801 167
f 801 802 167
f 167 802 162
f 802 803 162
f 162 803 163
f 803 804 163
f 163 804 164
f 804 805 164
f 164 805 159
f 805 806 159
f 159 806 160
f 806 807 160
f 160 807 161
f 807 808 161
f 161 808 156
f 808 809 156
f 156 809 157
f 809 810 157
f 157 810 158
f 810 811 158
f 158 811 153
f 811 812 153
f 153 812 154
f 812 813 154
f 154 813 155
f 813 814 155
f 155 814 150
f 814 815 150
f 150 815 151
f 815 816 151
f 151 816 152
f 816 817 152
f 152 817 145
f 817 818 145
f 145 818 146
f 818 819 146
f 146 819 148
f 819 748 148
f 820 659 661
f 821 822 823
f 822 824 823
f 823 824 661
f 824 825 661
f 661 825 820
f 747 821 746
f 821 823 746
f 665 664 826
f 664 655 826
f 826 655 827
f 655 653 827
f 86 828 88
f 828 829 88
f 88 829 90
f 829 830 90
f 90 830 92
f 830 831 92
f 92 831 94
f 831 832 94
f 94 832 96
f 832 833 96
f 96 833 98
f 833 834 98
f 98 834 100
f 834 835 100
f 100 835 102
f 835 836 102
f 102 836 104
f 836 837 104
f 104 837 106
f 837 838 106
f 106 838 108
f 838 839 108
f 108 839 110
f 839 840 110
f 110 840 112
f 840 841 112
f 112 841 114
f 841 842 114
f 114 842 116
f 842 843 116
f 116 843 118
f 843 844 118
f 118 844 120
f 844 845 120
f 120 845 122
f 845 846 122
f 122 846 124
f 846 847 124
f 124 847 126
f 847 848 126
f 126 848 128
f 848 849 128
f 128 849 130
f 849 850 130
f 130 850 132
f 850 851 132
f 132 851 134
f 851 852 134
f 134 852 136
f 852 853 136
f 136 853 138
f 853 854 138
f 138 854 140
f 854 855 140
f 140 855 142
f 855 856 142
f 142 856 144
f 856 857 144
f 144 857 2
f 857 858 2
f 2 858 4
f 858 859 4
f 4 859 6
f 859 860 6
f 6 860 8
f 860 861 8
f 8 861 10
f 861 862 10
f 10 862 12
f 862 863 12
f 12 863 14
f 863 864 14
f 14 864 16
f 864 865 16
f 16 865 18
f 865 866 18
f 18 866 20
f 866 867 20
f 20 867 22
f 867 868 22
f 22 868 24
f 868 869 24
f 24 869 26
f 869 870 26
f 26 870 28
f 870 871 28
f 28 871 30
f 871 872 30
f 30 872 32
f 872 873 32
f 32 873 34
f 873 874 34
f 34 874 36
f 874 875 36
f 36 875 38
f 875 876 38
f 38 876 40
f 876 877 40
f 40 877 42
f 877 878 42
f 42 878 44
f 878 879 44
f 44 879 46
f 879 880 46
f 46 880 48
f 880 881 48
f 48 881 50
f 881 882 50
f 50 882 52
f 882 883 52
f 52 883 54
f 883 884 54
f 54 884 56
f 884 885 56
f 56 885 58
f 885 886 58
f 58 886 60
f 886 887 60
f 60 887 62
f 887 888 62
f 62 888 64
f 888 889 64
f 64 889 66
f 889 890 66
f 66 890 68
f 890 891 68
f 68 891 70
f 891 892 70
f 70 892 72
f 892 893 72
f 72 893 74
f 893 894 74
f 74 894 76
f 894 895 76
f 76 895 78
f 895 896 78
f 78 896 80
f 896 897 80
f 80 897 82
f 897 898 82
f 82 898 84
f 898 899 84
f 84 899 86
f 899 828 86
f 900 901 902
f 657 903 658
f 903 904 658
f 658 904 902
f 904 905 902
f 902 905 900
f 906 905 904
f 615 617 907
f 667 665 826
f 662 660 908
f 385 387 909
f 910 911 912
f 911 913 912
f 912 913 914
f 915 916 917
f 917 918 919
f 914 920 912
f 920 921 912
f 912 921 922
f 922 923 912
f 923 924 912
f 912 924 925
f 925 926 912
f 926 927 912
f 912 927 928
f 929 930 931
f 930 932 931
f 916 933 917
f 933 934 917
f 917 934 918
f 932 935 931
f 935 936 931
f 931 936 937
f 937 938 931
f 938 939 931
f 931 939 940
f 940 941 931
f 941 942 931
f 931 942 943
f 928 944 912
f 944 945 912
f 912 945 946
f 946 947 912
f 947 948 912
f 912 948 931
f 948 949 931
f 931 949 950
f 950 951 931
f 951 952 931
f 931 952 929
f 943 953 931
f 953 954 931
f 931 954 917
f 954 955 917
f 917 955 915
f 956 957 958
f 957 959 958
f 958 959 960
f 960 961 958
f 961 962 958
f 958 962 963
f 964 965 966
f 965 967 966
f 966 967 968
f 968 969 966
f 969 970 966
f 966 970 971
f 972 973 974
f 973 975 974
f 974 975 976
f 974 977 978
f 979 980 966
f 980 981 966
f 966 981 964
f 976 982 974
f 982 983 974
f 974 983 977
f 978 984 974
f 984 985 974
f 974 985 958
f 985 986 958
f 958 986 956
f 987 988 989
f 987 990 991
f 990 992 991
f 993 994 995
f 994 996 995
f 989 997 987
f 997 998 987
f 987 998 990
f 992 999 991
f 999 1000 991
f 991 1000 1001
f 1001 1002 991
f 1002 1003 991
f 991 1003 1004
f 1004 1005 991
f 1005 1006 991
f 991 1006 1007
f 1008 1009 995
f 1009 1010 995
f 1007 1011 991
f 1011 1012 991
f 991 1012 995
f 1012 1013 995
f 995 1013 1008
f 1010 1014 995
f 1014 1015 995
f 995 1015 993
f 1016 1017 1018
f 1017 1019 1018
f 1019 1020 1018
f 1020 1021 1018
f 1018 1021 1022
f 1023 1024 1025
f 1024 1026 1025
f 1026 1027 1025
f 1027 1028 1025
f 1025 1028 1029
f 1022 1030 1018
f 1030 1031 1018
f 1018 1031 987
f 1031 1032 987
f 987 1032 988
f 1029 1033 1025
f 1033 1034 1025
f 1025 1034 1035
f 1036 1037 1018
f 1037 1038 1018
f 1018 1038 1016
f 1035 1039 1025
f 1039 1040 1025
f 1025 1040 1036
f 1041 1042 1043
f 1042 1044 1043
f 1043 1044 1045
f 1046 1047 1048
f 1049 1050 1043
f 1050 1051 1043
f 1043 1051 1041
f 1052 1053 1046
f 1054 1055 1056
f 1055 1057 1056
f 1056 1057 1058
f 1058 1059 1056
f 1059 1060 1056
f 1056 1060 1061
f 1061 1062 1056
f 1062 1063 1056
f 1056 1063 1064
f 1053 1065 1046
f 1065 1066 1046
f 1046 1066 1047
f 1067 1068 1069
f 1068 1070 1069
f 1069 1070 1071
f 1071 1072 1069
f 1072 1073 1069
f 1069 1073 1074
f 1075 1076 1077
f 1076 1078 1077
f 1078 1079 1077
f 1077 1079 1080
f 1081 1082 1083
f 1084 1085 1086
f 1085 1069 1086
f 1086 1069 1087
f 1069 1074 1087
f 1080 1088 1081
f 1088 1089 1081
f 1081 1089 1082
f 1083 1090 1081
f 1090 1091 1081
f 1081 1091 1092
f 1084 1093 1085
f 1093 1094 1085
f 1085 1094 1095
f 1096 1097 1069
f 1081 1098 1099
f 1096 1069 1100
f 1081 1099 1069
f 1099 1101 1069
f 1069 1101 1100
f 1097 1102 1069
f 1102 1103 1069
f 1069 1103 1067
f 1092 1104 1081
f 1104 1105 1081
f 1081 1105 1106
f 1106 1107 1081
f 1107 1108 1081
f 1081 1108 1098
f 1095 1109 1085
f 1109 1110 1085
f 1085 1110 1111
f 1112 1113 1114
f 1115 1116 1077
f 1116 1117 1077
f 1077 1117 1075
f 1113 1118 1114
f 1118 1119 1114
f 1114 1119 1120
f 1121 1122 1123
f 1111 1124 1085
f 1124 1125 1085
f 1085 1125 1114
f 1125 1126 1114
f 1114 1126 1112
f 1122 1127 1123
f 1127 1128 1123
f 1123 1128 1129
f 1120 1130 1114
f 1130 1131 1114
f 1114 1131 1132
f 1129 1133 1123
f 1133 1134 1123
f 1123 1134 1135
f 1135 1136 1123
f 1136 1137 1123
f 1123 1137 1138
f 1132 1139 1114
f 1139 1140 1114
f 1114 1140 1141
f 1138 1142 1123
f 1142 1143 1123
f 1123 1143 1077
f 1143 1144 1077
f 1077 1144 1115
f 395 397 1043
f 389 391 1145
f 909 387 1146
f 931 365 367
f 1145 391 1043
f 391 393 1043
f 1043 393 395
f 931 367 1147
f 367 369 1147
f 1147 369 371
f 371 373 1147
f 373 375 1147
f 1147 375 909
f 375 377 909
f 909 377 379
f 379 381 909
f 381 383 909
f 909 383 385
f 1147 1148 931
f 1148 1149 931
f 931 1149 1150
f 1150 1151 931
f 1151 1152 931
f 931 1152 1153
f 1153 1154 931
f 1154 1155 931
f 931 1155 1156
f 1156 1157 931
f 1157 1158 931
f 931 1158 1159
f 1159 1160 931
f 1160 1161 931
f 931 1161 1162
f 1163 1164 912
f 1164 1165 912
f 912 1165 1166
f 1167 1168 1145
f 1168 1169 1145
f 1145 1169 1170
f 387 389 1146
f 389 1145 1146
f 1146 1145 1171
f 1145 1170 1171
f 1172 912 1173
f 912 931 1173
f 1173 931 1174
f 931 1162 1174
f 1166 1175 912
f 1175 1176 912
f 912 1176 1177
f 906 1178 1179
f 1179 1180 906
f 1180 1181 906
f 906 1181 1182
f 1182 1183 906
f 1183 1184 906
f 906 1184 1185
f 1186 906 1187
f 906 1188 1187
f 1172 1189 912
f 1189 1190 912
f 912 1190 1191
f 1192 1193 912
f 1193 1194 912
f 1194 1195 912
f 1195 1196 912
f 912 1196 1163
f 1185 1197 906
f 1197 1198 906
f 906 1198 1199
f 1199 1200 906
f 1200 1201 906
f 906 1201 1188
f 1186 1202 906
f 1202 1203 906
f 906 1203 1145
f 1203 1204 1145
f 1204 1205 1145
f 1145 1205 1206
f 1206 1207 1145
f 1207 1208 1145
f 1145 1208 1209
f 1209 1210 1145
f 1210 1211 1145
f 1145 1211 1212
f 1212 1213 1145
f 1213 1214 1145
f 1145 1214 1167
f 1191 1215 912
f 1215 1216 912
f 912 1216 1192
f 743 1217 745
f 1217 747 745
f 743 741 1217
f 741 739 1217
f 1217 739 737
f 974 663 662
f 963 903 958
f 903 657 958
f 958 657 974
f 657 656 974
f 974 656 663
f 1036 1018 1025
f 1018 1218 1025
f 1025 1218 1219
f 1218 1220 1219
f 1219 1220 1221
f 1220 901 1221
f 1221 901 900
f 1222 1223 1224
f 652 1225 1226
f 1227 1228 827
f 1226 1229 652
f 1229 1230 652
f 652 1230 1231
f 1232 1233 653
f 1233 1234 653
f 653 1234 1235
f 1235 1236 653
f 1236 1237 653
f 653 1237 1238
f 1239 827 1240
f 827 653 1240
f 1240 653 1241
f 1231 1242 652
f 1242 1243 652
f 652 1243 653
f 1243 1244 653
f 653 1244 1232
f 1238 1245 653
f 1245 1246 653
f 653 1246 1241
f 1239 1247 827
f 1247 1248 827
f 827 1248 1249
f 827 1228 1224
f 1228 1250 1224
f 1224 1250 1222
f 1249 1251 827
f 1251 1252 827
f 827 1252 1227
f 685 683 1253
f 683 681 1253
f 681 679 1253
f 679 677 1253
f 1253 677 826
f 677 675 826
f 826 675 673
f 673 671 826
f 671 669 826
f 826 669 667
f 1254 695 1056
f 695 693 1056
f 693 691 1056
f 691 689 1056
f 1056 689 1253
f 689 687 1253
f 1253 687 685
f 701 699 1254
f 699 697 1254
f 1254 697 695
f 1081 705 1254
f 705 703 1254
f 1254 703 701
f 711 709 1081
f 709 707 1081
f 1081 707 705
f 725 723 1069
f 723 721 1069
f 1069 721 719
f 719 717 1069
f 717 715 1069
f 1069 715 1081
f 715 713 1081
f 1081 713 711
f 615 907 613
f 599 601 1217
f 601 603 1217
f 1217 603 605
f 605 607 1217
f 607 609 1217
f 1217 609 907
f 609 611 907
f 907 611 613
f 593 595 1217
f 595 597 1217
f 1217 597 599
f 575 577 737
f 543 545 1069
f 545 547 1069
f 1069 547 725
f 547 549 725
f 725 549 551
f 551 553 725
f 553 555 725
f 725 555 727
f 585 587 1217
f 555 557 727
f 557 559 727
f 727 559 729
f 587 589 1217
f 589 591 1217
f 1217 591 593
f 559 561 729
f 561 563 729
f 729 563 731
f 563 565 731
f 731 565 733
f 565 567 733
f 567 569 733
f 733 569 735
f 569 571 735
f 735 571 737
f 571 573 737
f 737 573 575
f 577 579 737
f 579 581 737
f 737 581 1217
f 581 583 1217
f 1217 583 585
f 1255 1256 991
f 1256 1257 991
f 1258 1259 1260
f 1257 1261 991
f 1261 1262 991
f 991 1262 1260
f 1262 1263 1260
f 1260 1263 1258
f 1259 1264 1260
f 1264 1265 1260
f 1260 1265 652
f 1265 1266 652
f 652 1266 1225
f 1223 1267 1224
f 1267 1268 1224
f 1224 1268 1269
f 995 1270 1271
f 1269 1272 1224
f 1272 1273 1224
f 1224 1273 995
f 1273 1274 995
f 995 1274 1270
f 1271 1275 995
f 1275 1276 995
f 995 1276 1277
f 1278 991 1279
f 991 1280 1279
f 1278 1281 991
f 1281 1282 991
f 991 1282 1255
f 1277 1283 995
f 1283 1284 995
f 995 1284 1285
f 1286 991 1287
f 991 1288 1287
f 1286 1289 991
f 1289 1290 991
f 991 1290 1280
f 1288 991 1291
f 991 995 1291
f 1291 995 1292
f 1285 1293 995
f 1293 1294 995
f 995 1294 1295
f 1295 1296 995
f 1296 1297 995
f 995 1297 1292
f 537 539 1069
f 539 541 1069
f 1069 541 543
f 625 627 1298
f 627 629 1298
f 1298 629 631
f 537 1069 535
f 1069 1085 535
f 535 1085 533
f 617 619 907
f 619 621 907
f 907 621 1298
f 621 623 1298
f 1298 623 625
f 631 633 1298
f 633 635 1298
f 1298 635 637
f 637 639 1298
f 639 641 1298
f 1298 641 643
f 643 645 1298
f 645 647 1298
f 1298 647 649
f 507 509 1085
f 509 511 1085
f 511 513 1085
f 1085 513 515
f 521 523 1085
f 523 525 1085
f 1085 525 527
f 527 529 1085
f 529 531 1085
f 1085 531 533
f 515 517 1085
f 517 519 1085
f 1085 519 521
f 397 399 1043
f 399 401 1043
f 1043 401 403
f 403 405 1043
f 405 1046 1043
f 1043 1046 1049
f 1046 1048 1049
f 405 407 1046
f 407 409 1046
f 1046 409 411
f 411 413 1046
f 413 415 1046
f 1046 415 417
f 417 419 1046
f 419 421 1046
f 1046 421 423
f 423 425 1046
f 425 427 1046
f 1046 427 1299
f 427 429 1299
f 1299 429 431
f 503 505 931
f 505 363 931
f 931 363 365
f 479 917 477
f 917 1123 477
f 477 1123 475
f 479 481 917
f 481 483 917
f 917 483 485
f 491 493 917
f 493 495 917
f 485 487 917
f 487 489 917
f 917 489 491
f 495 497 917
f 497 499 917
f 917 499 931
f 499 501 931
f 931 501 503
f 431 433 1299
f 433 435 1299
f 1299 435 437
f 455 457 1077
f 457 459 1077
f 1077 459 461
f 443 1077 441
f 1077 1299 441
f 441 1299 439
f 1299 437 439
f 443 445 1077
f 445 447 1077
f 1077 447 449
f 461 463 1077
f 463 465 1077
f 1077 465 1123
f 465 467 1123
f 1123 467 469
f 469 471 1123
f 471 473 1123
f 1123 473 475
f 449 451 1077
f 451 453 1077
f 1077 453 455
f 963 1300 903
f 1300 910 903
f 903 910 904
f 910 912 904
f 904 912 906
f 912 1177 906
f 906 1177 1178
f 900 905 1221
f 905 906 1221
f 1221 906 1219
f 906 1145 1219
f 1219 1145 1025
f 1145 1043 1025
f 1025 1043 1023
f 1043 1045 1023
f 919 979 917
f 979 966 917
f 917 966 1123
f 966 1114 1123
f 1123 1114 1121
f 1114 1141 1121
f 649 507 1298
f 507 1085 1298
f 1298 1085 908
f 1085 1114 908
f 908 1114 662
f 1114 966 662
f 662 966 974
f 966 971 974
f 974 971 972
f 1080 1081 1077
f 1081 1254 1077
f 1077 1254 1299
f 1254 1056 1299
f 1299 1056 1046
f 1056 1064 1046
f 1046 1064 1052
f 660 659 908
f 659 820 908
f 908 820 1298
f 820 825 1298
f 1298 825 907
f 825 824 907
f 907 824 1217
f 824 822 1217
f 1217 822 747
f 822 821 747
f 996 1054 995
f 1054 1056 995
f 995 1056 1224
f 1056 1253 1224
f 1224 1253 827
f 1253 826 827
f 316 384 317
f 384 382 317
f 317 382 318
f 382 380 318
f 318 380 319
f 380 378 319
f 319 378 320
f 378 376 320
f 320 376 321
f 376 374 321
f 321 374 322
f 374 372 322
f 322 372 323
f 372 370 323
f 323 370 324
f 370 368 324
f 324 368 325
f 368 366 325
f 325 366 326
f 366 364 326
f 326 364 327
f 364 506 327
f 327 506 328
f 506 504 328
f 328 504 329
f 504 502 329
f 329 502 330
f 502 500 330
f 330 500 331
f 500 498 331
f 331 498 332
f 498 496 332
f 332 496 333
f 496 494 333
f 333 494 334
f 494 492 334
f 334 492 335
f 492 490 335
f 335 490 336
f 490 488 336
f 336 488 337
f 488 486 337
f 337 486 338
f 486 484 338
f 338 484 339
f 484 482 339
f 339 482 340
f 482 480 340
f 340 480 341
f 480 478 341
f 341 478 342
f 478 476 342
f 342 476 343
f 476 474 343
f 343 474 344
f 474 472 344
f 344 472 345
f 472 470 345
f 345 470 346
f 470 468 346
f 346 468 347
f 468 466 347
f 347 466 348
f 466 464 348
f 348 464 349
f 464 462 349
f 349 462 350
f 462 460 350
f 350 460 351
f 460 458 351
f 351 458 352
f 458 456 352
f 352 456 353
f 456 454 353
f 353 454 354
f 454 452 354
f 354 452 355
f 452 450 355
f 355 450 356
f 450 448 356
f 356 448 357
f 448 446 357
f 357 446 358
f 446 444 358
f 358 444 359
f 444 442 359
f 359 442 360
f 442 440 360
f 360 440 361
f 440 438 361
f 361 438 362
f 438 436 362
f 362 436 291
f 436 434 291
f 291 434 292
f 434 432 292
f 292 432 293
f 432 430 293
f 293 430 294
f 430 428 294
f 294 428 295
f 428 426 295
f 295 426 296
f 426 424 296
f 296 424 297
f 424 422 297
f 297 422 298
f 422 420 298
f 298 420 299
f 420 418 299
f 299 418 300
f 418 416 300
f 300 416 301
f 416 414 301
f 301 414 302
f 414 412 302
f 302 412 303
f 412 410 303
f 303 410 304
f 410 408 304
f 304 408 305
f 408 406 305
f 305 406 306
f 406 404 306
f 306 404 307
f 404 402 307
f 307 402 308
f 402 400 308
f 308 400 309
f 400 398 309
f 309 398 310
f 398 396 310
f 310 396 311
f 396 394 311
f 311 394 312
f 394 392 312
f 312 392 313
f 392 390 313
f 313 390 314
f 390 388 314
f 314 388 315
f 388 386 315
f 315 386 316
f 386 384 316
f 1260 652 654
f 1218 1018 1301
f 1018 987 1301
f 1301 987 654
f 987 991 654
f 654 991 1260
f 776 522 777
f 522 520 777
f 777 520 778
f 520 518 778
f 778 518 779
f 518 516 779
f 779 516 780
f 516 514 780
f 780 514 781
f 514 512 781
f 781 512 782
f 512 510 782
f 782 510 783
f 510 508 783
f 783 508 784
f 508 650 784
f 784 650 785
f 650 648 785
f 785 648 786
f 648 646 786
f 786 646 787
f 646 644 787
f 787 644 788
f 644 642 788
f 788 642 789
f 642 640 789
f 789 640 790
f 640 638 790
f 790 638 791
f 638 636 791
f 791 636 792
f 636 634 792
f 792 634 793
f 634 632 793
f 793 632 794
f 632 630 794
f 794 630 795
f 630 628 795
f 795 628 796
f 628 626 796
f 796 626 797
f 626 624 797
f 797 624 798
f 624 622 798
f 798 622 799
f 622 620 799
f 799 620 800
f 620 618 800
f 800 618 801
f 618 616 801
f 801 616 802
f 616 614 802
f 802 614 803
f 614 612 803
f 803 612 804
f 612 610 804
f 804 610 805
f 610 608 805
f 805 608 806
f 608 606 806
f 806 606 807
f 606 604 807
f 807 604 808
f 604 602 808
f 808 602 809
f 602 600 809
f 809 600 810
f 600 598 810
f 810 598 811
f 598 596 811
f 811 596 812
f 596 594 812
f 812 594 813
f 594 592 813
f 813 592 814
f 592 590 814
f 814 590 815
f 590 588 815
f 815 588 816
f 588 586 816
f 816 586 817
f 586 584 817
f 817 584 818
f 584 582 818
f 818 582 819
f 582 580 819
f 819 580 748
f 580 578 748
f 748 578 749
f 578 576 749
f 749 576 750
f 576 574 750
f 750 574 751
f 574 572 751
f 751 572 752
f 572 570 752
f 752 570 753
f 570 568 753
f 753 568 754
f 568 566 754
f 754 566 755
f 566 564 755
f 755 564 756
f 564 562 756
f 756 562 757
f 562 560 757
f 757 560 758
f 560 558 758
f 758 558 759
f 558 556 759
f 759 556 760
f 556 554 760
f 760 554 761
f 554 552 761
f 761 552 762
f 552 550 762
f 762 550 763
f 550 548 763
f 763 548 764
f 548 546 764
f 764 546 765
f 546 544 765
f 765 544 766
f 544 542 766
f 766 542 767
f 542 540 767
f 767 540 768
f 540 538 768
f 768 538 769
f 538 536 769
f 769 536 770
f 536 534 770
f 770 534 771
f 534 532 771
f 771 532 772
f 532 530 772
f 772 530 773
f 530 528 773
f 773 528 774
f 528 526 774
f 774 526 775
f 526 524 775
f 775 524 776
f 524 522 776
f 1218 1301 1220
f 1301 902 1220
f 1220 902 901
f 1302 1303 1304
f 1305 1306 658
f 658 1307 1308
f 902 1309 1310
f 1311 1312 658
f 1312 1313 658
f 658 1313 1307
f 1314 1315 1316
f 1315 1317 1316
f 1316 1317 1304
f 1317 1318 1304
f 1304 1318 1302
f 1303 1319 1304
f 1319 1320 1304
f 1304 1320 1321
f 1321 1322 1304
f 1322 1323 1304
f 1304 1323 1324
f 1325 658 1326
f 658 1327 1326
f 1308 1328 658
f 1328 1329 658
f 658 1329 1330
f 1330 1331 658
f 1331 1332 658
f 658 1332 1333
f 902 1310 658
f 1310 1334 658
f 658 1334 1327
f 1335 1336 1315
f 1336 1337 1315
f 1315 1337 1338
f 1339 1340 902
f 1341 1342 1343
f 1342 1344 1343
f 1343 1344 1345
f 1344 1346 1345
f 1345 1346 1347
f 1347 1348 1345
f 1348 1349 1345
f 1345 1349 1350
f 1340 1351 902
f 1351 1352 902
f 902 1352 1309
f 1350 1353 1345
f 1353 1354 1345
f 1345 1354 1355
f 1356 1357 658
f 1357 1358 658
f 658 1358 1359
f 1314 1360 1315
f 1360 1361 1315
f 1315 1361 1362
f 1362 1363 1315
f 1363 1364 1315
f 1315 1364 1365
f 1366 1367 1368
f 1367 1369 1368
f 1355 1370 1345
f 1370 1371 1345
f 1345 1371 1368
f 1371 1372 1368
f 1368 1372 1366
f 1333 1373 658
f 1373 1374 658
f 658 1374 1356
f 1365 1375 1315
f 1375 1376 1315
f 1315 1376 1335
f 1341 1377 1342
f 1377 1378 1342
f 1342 1378 1379
f 1380 1381 655
f 1379 1382 1342
f 1382 1383 1342
f 1342 1383 1384
f 1359 1385 658
f 1385 1386 658
f 658 1386 1387
f 1388 1389 655
f 1390 1391 902
f 1391 1392 902
f 902 1392 1339
f 1393 1394 1395
f 1394 1396 1395
f 1325 1397 1398
f 1398 1399 1325
f 1399 1400 1325
f 1325 1400 1401
f 664 666 655
f 666 668 655
f 1402 1403 654
f 1401 1404 1325
f 1404 1405 1325
f 1325 1405 658
f 1405 1406 658
f 658 1406 1311
f 1384 1407 1342
f 1407 1408 1342
f 1342 1408 1409
f 1305 658 1410
f 658 1387 1410
f 1410 1387 1342
f 823 1411 1412
f 702 1413 700
f 1413 1414 700
f 700 1414 698
f 698 1414 696
f 1414 1415 696
f 696 1415 694
f 668 670 655
f 670 672 655
f 655 672 674
f 674 676 655
f 676 678 655
f 655 678 680
f 1416 1395 1324
f 1395 1396 1324
f 1324 1396 1304
f 1417 1418 1419
f 1420 655 1421
f 655 1422 1421
f 1420 1423 655
f 1423 1424 655
f 655 1424 1380
f 1425 1426 1301
f 1395 1427 1393
f 1427 1428 1393
f 1393 1428 1429
f 1428 1430 1429
f 1409 1431 1342
f 1431 1432 1342
f 1342 1432 1433
f 1433 1434 1342
f 1434 1435 1342
f 1342 1435 1410
f 1436 1437 661
f 1437 1438 661
f 661 1438 1439
f 1439 1440 661
f 1440 1441 661
f 661 1441 1442
f 1443 684 686
f 686 688 1443
f 688 690 1443
f 1443 690 1415
f 690 692 1415
f 1415 692 694
f 1422 655 1444
f 655 680 1444
f 1444 680 1443
f 680 682 1443
f 1443 682 684
f 1422 1445 1446
f 1445 1447 1446
f 1446 1447 1448
f 1418 1449 1419
f 1449 1395 1419
f 1419 1395 1450
f 1381 1451 655
f 1451 1452 655
f 655 1452 1453
f 1454 1455 654
f 1455 1456 654
f 654 1456 1457
f 1458 1301 1459
f 1301 1460 1459
f 1337 1461 1338
f 1461 1462 1338
f 1338 1462 1463
f 1462 1464 1463
f 1426 1465 1301
f 1465 1466 1301
f 1301 1466 1467
f 1467 1468 1301
f 1468 1469 1301
f 1301 1469 1470
f 1471 1472 1325
f 1472 1473 1325
f 1325 1473 1397
f 1474 1475 1428
f 1475 1476 1428
f 1428 1476 1430
f 1306 1477 658
f 1477 1478 658
f 658 1478 1479
f 1479 1480 658
f 1480 1481 658
f 658 1481 661
f 1481 1482 661
f 661 1482 1436
f 1483 1484 823
f 1484 1485 823
f 1369 1486 1368
f 1486 1487 1368
f 1368 1487 1488
f 1416 1489 1395
f 1489 1490 1395
f 1395 1490 1491
f 1491 1492 1395
f 1492 1493 1395
f 1395 1493 1450
f 1446 1494 1422
f 1494 1495 1422
f 1422 1495 1496
f 1496 1497 1422
f 1497 1498 1422
f 1422 1498 1499
f 1453 1500 655
f 1500 1501 655
f 655 1501 1388
f 1403 1502 654
f 1502 1503 654
f 654 1503 1454
f 1457 1504 654
f 1504 1505 654
f 654 1505 1301
f 1505 1506 1301
f 1301 1506 1460
f 1464 1507 1463
f 1507 1508 1463
f 1463 1508 1509
f 1510 1511 902
f 1511 1512 902
f 1474 1513 1475
f 1513 1514 1475
f 1475 1514 1515
f 1514 1516 1515
f 1515 1516 1517
f 1516 1518 1517
f 1517 1518 1519
f 1518 1520 1519
f 1442 1521 661
f 1521 1522 661
f 661 1522 1523
f 1485 1524 823
f 1524 1525 823
f 823 1525 1411
f 746 823 744
f 823 742 744
f 1417 1419 1448
f 1419 1526 1448
f 1448 1526 1446
f 1499 1527 1422
f 1527 1528 1422
f 1422 1528 1529
f 1529 1530 1422
f 1530 1531 1422
f 1422 1531 1421
f 1389 1532 655
f 1532 1533 655
f 655 1533 1534
f 1534 1535 655
f 1535 1536 655
f 655 1536 654
f 1536 1537 654
f 654 1537 1538
f 1470 1539 1301
f 1539 1540 1301
f 1301 1540 902
f 1540 1541 902
f 902 1541 1510
f 1512 1542 902
f 1542 1543 902
f 902 1543 1390
f 1471 1544 1472
f 1544 1545 1472
f 1472 1545 1546
f 736 738 823
f 738 740 823
f 823 740 742
f 1547 1548 708
f 1548 1549 708
f 708 1549 1550
f 1550 1551 708
f 1551 1552 708
f 708 1552 1553
f 1553 1368 708
f 1368 1488 708
f 708 1488 706
f 1488 1413 706
f 706 1413 704
f 1413 702 704
f 1538 1554 654
f 1554 1555 654
f 654 1555 1402
f 1546 1556 1472
f 1556 1557 1472
f 1472 1557 1558
f 1523 1559 661
f 1559 1560 661
f 661 1560 823
f 1560 1561 823
f 823 1561 1483
f 1458 1562 1301
f 1562 1563 1301
f 1301 1563 1463
f 1564 1565 1566
f 1565 1472 1566
f 1566 1472 1567
f 1472 1558 1567
f 1520 1518 1566
f 1518 1568 1566
f 1566 1568 1564
f 1509 1569 1463
f 1569 1570 1463
f 1463 1570 1301
f 1570 1571 1301
f 1301 1571 1425
f 714 1572 1573
f 1574 1575 708
f 1575 1576 708
f 708 1576 1547
f 714 1573 712
f 1573 1577 712
f 712 1577 710
f 732 1578 730
f 1578 1579 730
f 730 1579 728
f 1412 1580 823
f 1580 1581 823
f 823 1581 736
f 1581 1578 736
f 736 1578 734
f 1578 732 734
f 1572 714 1582
f 714 716 1582
f 1582 716 1583
f 716 718 1583
f 1583 718 1584
f 718 720 1584
f 1584 720 1585
f 720 722 1585
f 1585 722 1586
f 722 724 1586
f 1586 724 1579
f 724 726 1579
f 1579 726 728
f 1577 1587 710
f 1587 1588 710
f 710 1588 708
f 1588 1589 708
f 708 1589 1574
f 1413 954 1414
f 954 953 1414
f 1414 953 1415
f 953 943 1415
f 1415 943 1443
f 943 942 1443
f 1443 942 1444
f 942 941 1444
f 1444 941 1422
f 941 940 1422
f 1422 940 1445
f 940 939 1445
f 1445 939 1447
f 939 938 1447
f 1447 938 1448
f 938 937 1448
f 1448 937 1417
f 937 936 1417
f 1417 936 1418
f 936 935 1418
f 1418 935 1449
f 935 932 1449
f 1449 932 1395
f 932 930 1395
f 1395 930 1427
f 930 929 1427
f 1427 929 1428
f 929 952 1428
f 1428 952 1474
f 952 951 1474
f 1474 951 1513
f 951 950 1513
f 1513 950 1514
f 950 949 1514
f 1514 949 1516
f 949 948 1516
f 1516 948 1518
f 948 947 1518
f 1518 947 1568
f 947 946 1568
f 1568 946 1564
f 946 945 1564
f 1564 945 1565
f 945 944 1565
f 1565 944 1472
f 944 928 1472
f 1472 928 1473
f 928 927 1473
f 1473 927 1397
f 927 926 1397
f 1397 926 1398
f 926 925 1398
f 1398 925 1399
f 925 924 1399
f 1399 924 1400
f 924 923 1400
f 1400 923 1401
f 923 922 1401
f 1401 922 1404
f 922 921 1404
f 1404 921 1405
f 921 920 1405
f 1405 920 1406
f 920 914 1406
f 1406 914 1311
f 914 913 1311
f 1311 913 1312
f 913 911 1312
f 1312 911 1313
f 911 910 1313
f 1313 910 1307
f 910 1300 1307
f 1307 1300 1308
f 1300 963 1308
f 1308 963 1328
f 963 962 1328
f 1328 962 1329
f 962 961 1329
f 1329 961 1330
f 961 960 1330
f 1330 960 1331
f 960 959 1331
f 1331 959 1332
f 959 957 1332
f 1332 957 1333
f 957 956 1333
f 1333 956 1373
f 956 986 1373
f 1373 986 1374
f 986 985 1374
f 1374 985 1356
f 985 984 1356
f 1356 984 1357
f 984 978 1357
f 1357 978 1358
f 978 977 1358
f 1358 977 1359
f 977 983 1359
f 1359 983 1385
f 983 982 1385
f 1385 982 1386
f 982 976 1386
f 1386 976 1387
f 976 975 1387
f 1387 975 1342
f 975 973 1342
f 1342 973 1344
f 973 972 1344
f 1344 972 1346
f 972 971 1346
f 1346 971 1347
f 971 970 1347
f 1347 970 1348
f 970 969 1348
f 1348 969 1349
f 969 968 1349
f 1349 968 1350
f 968 967 1350
f 1350 967 1353
f 967 965 1353
f 1353 965 1354
f 965 964 1354
f 1354 964 1355
f 964 981 1355
f 1355 981 1370
f 981 980 1370
f 1370 980 1371
f 980 979 1371
f 1371 979 1372
f 979 919 1372
f 1372 919 1366
f 919 918 1366
f 1366 918 1367
f 918 934 1367
f 1367 934 1369
f 934 933 1369
f 1369 933 1486
f 933 916 1486
f 1486 916 1487
f 916 915 1487
f 1487 915 1488
f 915 955 1488
f 1488 955 1413
f 955 954 1413
f 1533 1010 1534
f 1010 1009 1534
f 1534 1009 1535
f 1009 1008 1535
f 1535 1008 1536
f 1008 1013 1536
f 1536 1013 1537
f 1013 1012 1537
f 1537 1012 1538
f 1012 1011 1538
f 1538 1011 1554
f 1011 1007 1554
f 1554 1007 1555
f 1007 1006 1555
f 1555 1006 1402
f 1006 1005 1402
f 1402 1005 1403
f 1005 1004 1403
f 1403 1004 1502
f 1004 1003 1502
f 1502 1003 1503
f 1003 1002 1503
f 1503 1002 1454
f 1002 1001 1454
f 1454 1001 1455
f 1001 1000 1455
f 1455 1000 1456
f 1000 999 1456
f 1456 999 1457
f 999 992 1457
f 1457 992 1504
f 992 990 1504
f 1504 990 1505
f 990 998 1505
f 1505 998 1506
f 998 997 1506
f 1506 997 1460
f 997 989 1460
f 1460 989 1459
f 989 988 1459
f 1459 988 1458
f 988 1032 1458
f 1458 1032 1562
f 1032 1031 1562
f 1562 1031 1563
f 1031 1030 1563
f 1563 1030 1463
f 1030 1022 1463
f 1463 1022 1338
f 1022 1021 1338
f 1338 1021 1315
f 1021 1020 1315
f 1315 1020 1317
f 1020 1019 1317
f 1317 1019 1318
f 1019 1017 1318
f 1318 1017 1302
f 1017 1016 1302
f 1302 1016 1303
f 1016 1038 1303
f 1303 1038 1319
f 1038 1037 1319
f 1319 1037 1320
f 1037 1036 1320
f 1320 1036 1321
f 1036 1040 1321
f 1321 1040 1322
f 1040 1039 1322
f 1322 1039 1323
f 1039 1035 1323
f 1323 1035 1324
f 1035 1034 1324
f 1324 1034 1416
f 1034 1033 1416
f 1416 1033 1489
f 1033 1029 1489
f 1489 1029 1490
f 1029 1028 1490
f 1490 1028 1491
f 1028 1027 1491
f 1491 1027 1492
f 1027 1026 1492
f 1492 1026 1493
f 1026 1024 1493
f 1493 1024 1450
f 1024 1023 1450
f 1450 1023 1419
f 1023 1045 1419
f 1419 1045 1526
f 1045 1044 1526
f 1526 1044 1446
f 1044 1042 1446
f 1446 1042 1494
f 1042 1041 1494
f 1494 1041 1495
f 1041 1051 1495
f 1495 1051 1496
f 1051 1050 1496
f 1496 1050 1497
f 1050 1049 1497
f 1497 1049 1498
f 1049 1048 1498
f 1498 1048 1499
f 1048 1047 1499
f 1499 1047 1527
f 1047 1066 1527
f 1527 1066 1528
f 1066 1065 1528
f 1528 1065 1529
f 1065 1053 1529
f 1529 1053 1530
f 1053 1052 1530
f 1530 1052 1531
f 1052 1064 1531
f 1531 1064 1421
f 1064 1063 1421
f 1421 1063 1420
f 1063 1062 1420
f 1420 1062 1423
f 1062 1061 1423
f 1423 1061 1424
f 1061 1060 1424
f 1424 1060 1380
f 1060 1059 1380
f 1380 1059 1381
f 1059 1058 1381
f 1381 1058 1451
f 1058 1057 1451
f 1451 1057 1452
f 1057 1055 1452
f 1452 1055 1453
f 1055 1054 1453
f 1453 1054 1500
f 1054 996 1500
f 1500 996 1501
f 996 994 1501
f 1501 994 1388
f 994 993 1388
f 1388 993 1389
f 993 1015 1389
f 1389 1015 1532
f 1015 1014 1532
f 1532 1014 1533
f 1014 1010 1533
f 1291 893 1288
f 893 892 1288
f 1288 892 1287
f 892 891 1287
f 1287 891 1286
f 891 890 1286
f 1286 890 1289
f 890 889 1289
f 1289 889 1290
f 889 888 1290
f 1290 888 1280
f 888 887 1280
f 1280 887 1279
f 887 886 1279
f 1279 886 1278
f 886 885 1278
f 1278 885 1281
f 885 884 1281
f 1281 884 1282
f 884 883 1282
f 1282 883 1255
f 883 882 1255
f 1255 882 1256
f 882 881 1256
f 1256 881 1257
f 881 880 1257
f 1257 880 1261
f 880 879 1261
f 1261 879 1262
f 879 878 1262
f 1262 878 1263
f 878 877 1263
f 1263 877 1258
f 877 876 1258
f 1258 876 1259
f 876 875 1259
f 1259 875 1264
f 875 874 1264
f 1264 874 1265
f 874 873 1265
f 1265 873 1266
f 873 872 1266
f 1266 872 1225
f 872 871 1225
f 1225 871 1226
f 871 870 1226
f 1226 870 1229
f 870 869 1229
f 1229 869 1230
f 869 868 1230
f 1230 868 1231
f 868 867 1231
f 1231 867 1242
f 867 866 1242
f 1242 866 1243
f 866 865 1243
f 1243 865 1244
f 865 864 1244
f 1244 864 1232
f 864 863 1232
f 1232 863 1233
f 863 862 1233
f 1233 862 1234
f 862 861 1234
f 1234 861 1235
f 861 860 1235
f 1235 860 1236
f 860 859 1236
f 1236 859 1237
f 859 858 1237
f 1237 858 1238
f 858 857 1238
f 1238 857 1245
f 857 856 1245
f 1245 856 1246
f 856 855 1246
f 1246 855 1241
f 855 854 1241
f 1241 854 1240
f 854 853 1240
f 1240 853 1239
f 853 852 1239
f 1239 852 1247
f 852 851 1247
f 1247 851 1248
f 851 850 1248
f 1248 850 1249
f 850 849 1249
f 1249 849 1251
f 849 848 1251
f 1251 848 1252
f 848 847 1252
f 1252 847 1227
f 847 846 1227
f 1227 846 1228
f 846 845 1228
f 1228 845 1250
f 845 844 1250
f 1250 844 1222
f 844 843 1222
f 1222 843 1223
f 843 842 1223
f 1223 842 1267
f 842 841 1267
f 1267 841 1268
f 841 840 1268
f 1268 840 1269
f 840 839 1269
f 1269 839 1272
f 839 838 1272
f 1272 838 1273
f 838 837 1273
f 1273 837 1274
f 837 836 1274
f 1274 836 1270
f 836 835 1270
f 1270 835 1271
f 835 834 1271
f 1271 834 1275
f 834 833 1275
f 1275 833 1276
f 833 832 1276
f 1276 832 1277
f 832 831 1277
f 1277 831 1283
f 831 830 1283
f 1283 830 1284
f 830 829 1284
f 1284 829 1285
f 829 828 1285
f 1285 828 1293
f 828 899 1293
f 1293 899 1294
f 899 898 1294
f 1294 898 1295
f 898 897 1295
f 1295 897 1296
f 897 896 1296
f 1296 896 1297
f 896 895 1297
f 1297 895 1292
f 895 894 1292
f 1292 894 1291
f 894 893 1291
f 1572 1101 1573
f 1101 1099 1573
f 1573 1099 1577
f 1099 1098 1577
f 1577 1098 1587
f 1098 1108 1587
f 1587 1108 1588
f 1108 1107 1588
f 1588 1107 1589
f 1107 1106 1589
f 1589 1106 1574
f 1106 1105 1574
f 1574 1105 1575
f 1105 1104 1575
f 1575 1104 1576
f 1104 1092 1576
f 1576 1092 1547
f 1092 1091 1547
f 1547 1091 1548
f 1091 1090 1548
f 1548 1090 1549
f 1090 1083 1549
f 1549 1083 1550
f 1083 1082 1550
f 1550 1082 1551
f 1082 1089 1551
f 1551 1089 1552
f 1089 1088 1552
f 1552 1088 1553
f 1088 1080 1553
f 1553 1080 1368
f 1080 1079 1368
f 1368 1079 1345
f 1079 1078 1345
f 1345 1078 1343
f 1078 1076 1343
f 1343 1076 1341
f 1076 1075 1341
f 1341 1075 1377
f 1075 1117 1377
f 1377 1117 1378
f 1117 1116 1378
f 1378 1116 1379
f 1116 1115 1379
f 1379 1115 1382
f 1115 1144 1382
f 1382 1144 1383
f 1144 1143 1383
f 1383 1143 1384
f 1143 1142 1384
f 1384 1142 1407
f 1142 1138 1407
f 1407 1138 1408
f 1138 1137 1408
f 1408 1137 1409
f 1137 1136 1409
f 1409 1136 1431
f 1136 1135 1431
f 1431 1135 1432
f 1135 1134 1432
f 1432 1134 1433
f 1134 1133 1433
f 1433 1133 1434
f 1133 1129 1434
f 1434 1129 1435
f 1129 1128 1435
f 1435 1128 1410
f 1128 1127 1410
f 1410 1127 1305
f 1127 1122 1305
f 1305 1122 1306
f 1122 1121 1306
f 1306 1121 1477
f 1121 1141 1477
f 1477 1141 1478
f 1141 1140 1478
f 1478 1140 1479
f 1140 1139 1479
f 1479 1139 1480
f 1139 1132 1480
f 1480 1132 1481
f 1132 1131 1481
f 1481 1131 1482
f 1131 1130 1482
f 1482 1130 1436
f 1130 1120 1436
f 1436 1120 1437
f 1120 1119 1437
f 1437 1119 1438
f 1119 1118 1438
f 1438 1118 1439
f 1118 1113 1439
f 1439 1113 1440
f 1113 1112 1440
f 1440 1112 1441
f 1112 1126 1441
f 1441 1126 1442
f 1126 1125 1442
f 1442 1125 1521
f 1125 1124 1521
f 1521 1124 1522
f 1124 1111 1522
f 1522 1111 1523
f 1111 1110 1523
f 1523 1110 1559
f 1110 1109 1559
f 1559 1109 1560
f 1109 1095 1560
f 1560 1095 1561
f 1095 1094 1561
f 1561 1094 1483
f 1094 1093 1483
f 1483 1093 1484
f 1093 1084 1484
f 1484 1084 1485
f 1084 1086 1485
f 1485 1086 1524
f 1086 1087 1524
f 1524 1087 1525
f 1087 1074 1525
f 1525 1074 1411
f 1074 1073 1411
f 1411 1073 1412
f 1073 1072 1412
f 1412 1072 1580
f 1072 1071 1580
f 1580 1071 1581
f 1071 1070 1581
f 1581 1070 1578
f 1070 1068 1578
f 1578 1068 1579
f 1068 1067 1579
f 1579 1067 1586
f 1067 1103 1586
f 1586 1103 1585
f 1103 1102 1585
f 1585 1102 1584
f 1102 1097 1584
f 1584 1097 1583
f 1097 1096 1583
f 1583 1096 1582
f 1096 1100 1582
f 1582 1100 1572
f 1100 1101 1572
f 1376 909 1335
f 909 1146 1335
f 1335 1146 1336
f 1146 1171 1336
f 1336 1171 1337
f 1171 1170 1337
f 1337 1170 1461
f 1170 1169 1461
f 1461 1169 1462
f 1169 1168 1462
f 1462 1168 1464
f 1168 1167 1464
f 1464 1167 1507
f 1167 1214 1507
f 1507 1214 1508
f 1214 1213 1508
f 1508 1213 1509
f 1213 1212 1509
f 1509 1212 1569
f 1212 1211 1569
f 1569 1211 1570
f 1211 1210 1570
f 1570 1210 1571
f 1210 1209 1571
f 1571 1209 1425
f 1209 1208 1425
f 1425 1208 1426
f 1208 1207 1426
f 1426 1207 1465
f 1207 1206 1465
f 1465 1206 1466
f 1206 1205 1466
f 1466 1205 1467
f 1205 1204 1467
f 1467 1204 1468
f 1204 1203 1468
f 1468 1203 1469
f 1203 1202 1469
f 1469 1202 1470
f 1202 1186 1470
f 1470 1186 1539
f 1186 1187 1539
f 1539 1187 1540
f 1187 1188 1540
f 1540 1188 1541
f 1188 1201 1541
f 1541 1201 1510
f 1201 1200 1510
f 1510 1200 1511
f 1200 1199 1511
f 1511 1199 1512
f 1199 1198 1512
f 1512 1198 1542
f 1198 1197 1542
f 1542 1197 1543
f 1197 1185 1543
f 1543 1185 1390
f 1185 1184 1390
f 1390 1184 1391
f 1184 1183 1391
f 1391 1183 1392
f 1183 1182 1392
f 1392 1182 1339
f 1182 1181 1339
f 1339 1181 1340
f 1181 1180 1340
f 1340 1180 1351
f 1180 1179 1351
f 1351 1179 1352
f 1179 1178 1352
f 1352 1178 1309
f 1178 1177 1309
f 1309 1177 1310
f 1177 1176 1310
f 1310 1176 1334
f 1176 1175 1334
f 1334 1175 1327
f 1175 1166 1327
f 1327 1166 1326
f 1166 1165 1326
f 1326 1165 1325
f 1165 1164 1325
f 1325 1164 1471
f 1164 1163 1471
f 1471 1163 1544
f 1163 1196 1544
f 1544 1196 1545
f 1196 1195 1545
f 1545 1195 1546
f 1195 1194 1546
f 1546 1194 1556
f 1194 1193 1556
f 1556 1193 1557
f 1193 1192 1557
f 1557 1192 1558
f 1192 1216 1558
f 1558 1216 1567
f 1216 1215 1567
f 1567 1215 1566
f 1215 1191 1566
f 1566 1191 1520
f 1191 1190 1520
f 1520 1190 1519
f 1190 1189 1519
f 1519 1189 1517
f 1189 1172 1517
f 1517 1172 1515
f 1172 1173 1515
f 1515 1173 1475
f 1173 1174 1475
f 1475 1174 1476
f 1174 1162 1476
f 1476 1162 1430
f 1162 1161 1430
f 1430 1161 1429
f 1161 1160 1429
f 1429 1160 1393
f 1160 1159 1393
f 1393 1159 1394
f 1159 1158 1394
f 1394 1158 1396
f 1158 1157 1396
f 1396 1157 1304
f 1157 1156 1304
f 1304 1156 1316
f 1156 1155 1316
f 1316 1155 1314
f 1155 1154 1314
f 1314 1154 1360
f 1154 1153 1360
f 1360 1153 1361
f 1153 1152 1361
f 1361 1152 1362
f 1152 1151 1362
f 1362 1151 1363
f 1151 1150 1363
f 1363 1150 1364
f 1150 1149 1364
f 1364 1149 1365
f 1149 1148 1365
f 1365 1148 1375
f 1148 1147 1375
f 1375 1147 1376
f 1147 909 1376
# 3190 faces, 0 coords texture

# End of File
