####
#
# OBJ File Generated by Meshlab
#
####
# Object chouchengmr106_3.obj
#
# Vertices: 1008
# Faces: 2016
#
####
v 0.002719 -0.001250 0.001268
v 0.003036 -0.001250 0.001416
v 0.002598 -0.001250 0.001500
v 0.002901 -0.001250 0.001675
v 0.002457 -0.001250 0.001721
v 0.002744 -0.001250 0.001921
v 0.002298 -0.001250 0.001928
v 0.002566 -0.001250 0.002153
v 0.002121 -0.001250 0.002121
v 0.002369 -0.001250 0.002369
v 0.001928 -0.001250 0.002298
v 0.002153 -0.001250 0.002566
v 0.001721 -0.001250 0.002457
v 0.001921 -0.001250 0.002744
v 0.001500 -0.001250 0.002598
v 0.001675 -0.001250 0.002901
v 0.001268 -0.001250 0.002719
v 0.001416 -0.001250 0.003036
v 0.001026 -0.001250 0.002819
v 0.001146 -0.001250 0.003148
v 0.000776 -0.001250 0.002898
v 0.000867 -0.001250 0.003236
v 0.000521 -0.001250 0.002954
v 0.000582 -0.001250 0.003299
v 0.000261 -0.001250 0.002989
v 0.000292 -0.001250 0.003337
v -0.000000 -0.001250 0.003000
v -0.000000 -0.001250 0.003350
v -0.000261 -0.001250 0.002989
v -0.000292 -0.001250 0.003337
v -0.000521 -0.001250 0.002954
v -0.000582 -0.001250 0.003299
v -0.000776 -0.001250 0.002898
v -0.000867 -0.001250 0.003236
v -0.001026 -0.001250 0.002819
v -0.001146 -0.001250 0.003148
v -0.001268 -0.001250 0.002719
v -0.001416 -0.001250 0.003036
v -0.001500 -0.001250 0.002598
v -0.001675 -0.001250 0.002901
v -0.001721 -0.001250 0.002457
v -0.001921 -0.001250 0.002744
v -0.001928 -0.001250 0.002298
v -0.002153 -0.001250 0.002566
v -0.002121 -0.001250 0.002121
v -0.002369 -0.001250 0.002369
v -0.002298 -0.001250 0.001928
v -0.002566 -0.001250 0.002153
v -0.002457 -0.001250 0.001721
v -0.002744 -0.001250 0.001921
v -0.002598 -0.001250 0.001500
v -0.002901 -0.001250 0.001675
v -0.002719 -0.001250 0.001268
v -0.003036 -0.001250 0.001416
v -0.002819 -0.001250 0.001026
v -0.003148 -0.001250 0.001146
v -0.002898 -0.001250 0.000776
v -0.003236 -0.001250 0.000867
v -0.002954 -0.001250 0.000521
v -0.003299 -0.001250 0.000582
v -0.002989 -0.001250 0.000261
v -0.003337 -0.001250 0.000292
v -0.003000 -0.001250 -0.000000
v -0.003350 -0.001250 0.000000
v -0.002989 -0.001250 -0.000261
v -0.003337 -0.001250 -0.000292
v -0.002954 -0.001250 -0.000521
v -0.003299 -0.001250 -0.000582
v -0.002898 -0.001250 -0.000776
v -0.003236 -0.001250 -0.000867
v -0.002819 -0.001250 -0.001026
v -0.003148 -0.001250 -0.001146
v -0.002719 -0.001250 -0.001268
v -0.003036 -0.001250 -0.001416
v -0.002598 -0.001250 -0.001500
v -0.002901 -0.001250 -0.001675
v -0.002457 -0.001250 -0.001721
v -0.002744 -0.001250 -0.001921
v -0.002298 -0.001250 -0.001928
v -0.002566 -0.001250 -0.002153
v -0.002121 -0.001250 -0.002121
v -0.002369 -0.001250 -0.002369
v -0.001928 -0.001250 -0.002298
v -0.002153 -0.001250 -0.002566
v -0.001721 -0.001250 -0.002457
v -0.001921 -0.001250 -0.002744
v -0.001500 -0.001250 -0.002598
v -0.001675 -0.001250 -0.002901
v -0.001268 -0.001250 -0.002719
v -0.001416 -0.001250 -0.003036
v -0.001026 -0.001250 -0.002819
v -0.001146 -0.001250 -0.003148
v -0.000776 -0.001250 -0.002898
v -0.000867 -0.001250 -0.003236
v -0.000521 -0.001250 -0.002954
v -0.000582 -0.001250 -0.003299
v -0.000261 -0.001250 -0.002989
v -0.000292 -0.001250 -0.003337
v 0.000000 -0.001250 -0.003000
v 0.000000 -0.001250 -0.003350
v 0.000261 -0.001250 -0.002989
v 0.000292 -0.001250 -0.003337
v 0.000521 -0.001250 -0.002954
v 0.000582 -0.001250 -0.003299
v 0.000776 -0.001250 -0.002898
v 0.000867 -0.001250 -0.003236
v 0.001026 -0.001250 -0.002819
v 0.001146 -0.001250 -0.003148
v 0.001268 -0.001250 -0.002719
v 0.001416 -0.001250 -0.003036
v 0.001500 -0.001250 -0.002598
v 0.001675 -0.001250 -0.002901
v 0.001721 -0.001250 -0.002457
v 0.001921 -0.001250 -0.002744
v 0.001928 -0.001250 -0.002298
v 0.002153 -0.001250 -0.002566
v 0.002121 -0.001250 -0.002121
v 0.002369 -0.001250 -0.002369
v 0.002298 -0.001250 -0.001928
v 0.002566 -0.001250 -0.002153
v 0.002457 -0.001250 -0.001721
v 0.002744 -0.001250 -0.001921
v 0.002598 -0.001250 -0.001500
v 0.002901 -0.001250 -0.001675
v 0.002719 -0.001250 -0.001268
v 0.003036 -0.001250 -0.001416
v 0.002819 -0.001250 -0.001026
v 0.003148 -0.001250 -0.001146
v 0.002898 -0.001250 -0.000776
v 0.003236 -0.001250 -0.000867
v 0.002954 -0.001250 -0.000521
v 0.003299 -0.001250 -0.000582
v 0.002989 -0.001250 -0.000261
v 0.003337 -0.001250 -0.000292
v 0.003000 -0.001250 0.000000
v 0.003350 -0.001250 0.000000
v 0.002989 -0.001250 0.000261
v 0.003337 -0.001250 0.000292
v 0.002954 -0.001250 0.000521
v 0.003299 -0.001250 0.000582
v 0.002898 -0.001250 0.000776
v 0.003236 -0.001250 0.000867
v 0.002819 -0.001250 0.001026
v 0.003148 -0.001250 0.001146
v 0.000000 -0.001100 -0.003500
v -0.000305 -0.001100 -0.003487
v -0.000608 -0.001100 -0.003447
v -0.000906 -0.001100 -0.003381
v -0.001197 -0.001100 -0.003289
v -0.001479 -0.001100 -0.003172
v -0.001750 -0.001100 -0.003031
v -0.002008 -0.001100 -0.002867
v -0.002250 -0.001100 -0.002681
v -0.002475 -0.001100 -0.002475
v -0.002681 -0.001100 -0.002250
v -0.002867 -0.001100 -0.002008
v -0.003031 -0.001100 -0.001750
v -0.003172 -0.001100 -0.001479
v -0.003289 -0.001100 -0.001197
v -0.003381 -0.001100 -0.000906
v -0.003447 -0.001100 -0.000608
v -0.003487 -0.001100 -0.000305
v -0.003500 -0.001100 0.000000
v -0.003487 -0.001100 0.000305
v -0.003447 -0.001100 0.000608
v -0.003381 -0.001100 0.000906
v -0.003289 -0.001100 0.001197
v -0.003172 -0.001100 0.001479
v -0.003031 -0.001100 0.001750
v -0.002867 -0.001100 0.002008
v -0.002681 -0.001100 0.002250
v -0.002475 -0.001100 0.002475
v -0.002250 -0.001100 0.002681
v -0.002008 -0.001100 0.002867
v -0.001750 -0.001100 0.003031
v -0.001479 -0.001100 0.003172
v -0.001197 -0.001100 0.003289
v -0.000906 -0.001100 0.003381
v -0.000608 -0.001100 0.003447
v -0.000305 -0.001100 0.003487
v -0.000000 -0.001100 0.003500
v 0.000305 -0.001100 0.003487
v 0.000608 -0.001100 0.003447
v 0.000906 -0.001100 0.003381
v 0.001197 -0.001100 0.003289
v 0.001479 -0.001100 0.003172
v 0.001750 -0.001100 0.003031
v 0.002008 -0.001100 0.002867
v 0.002250 -0.001100 0.002681
v 0.002475 -0.001100 0.002475
v 0.002681 -0.001100 0.002250
v 0.002867 -0.001100 0.002008
v 0.003031 -0.001100 0.001750
v 0.003172 -0.001100 0.001479
v 0.003289 -0.001100 0.001197
v 0.003381 -0.001100 0.000906
v 0.003447 -0.001100 0.000608
v 0.003487 -0.001100 0.000305
v 0.003500 -0.001100 0.000000
v 0.003487 -0.001100 -0.000305
v 0.003447 -0.001100 -0.000608
v 0.003381 -0.001100 -0.000906
v 0.003289 -0.001100 -0.001197
v 0.003172 -0.001100 -0.001479
v 0.003031 -0.001100 -0.001750
v 0.002867 -0.001100 -0.002008
v 0.002681 -0.001100 -0.002250
v 0.002475 -0.001100 -0.002475
v 0.002250 -0.001100 -0.002681
v 0.002008 -0.001100 -0.002867
v 0.001750 -0.001100 -0.003031
v 0.001479 -0.001100 -0.003172
v 0.001197 -0.001100 -0.003289
v 0.000906 -0.001100 -0.003381
v 0.000608 -0.001100 -0.003447
v 0.000305 -0.001100 -0.003487
v -0.004347 -0.001100 0.001165
v -0.004432 -0.001100 0.000781
v -0.004483 -0.001100 0.000392
v -0.004500 -0.001100 0.000000
v -0.004483 -0.001100 -0.000392
v -0.004432 -0.001100 -0.000781
v -0.004347 -0.001100 -0.001165
v -0.004229 -0.001100 -0.001539
v -0.004078 -0.001100 -0.001902
v -0.003897 -0.001100 -0.002250
v -0.003686 -0.001100 -0.002581
v -0.003447 -0.001100 -0.002893
v -0.003182 -0.001100 -0.003182
v -0.002893 -0.001100 -0.003447
v -0.002581 -0.001100 -0.003686
v -0.002250 -0.001100 -0.003897
v -0.001902 -0.001100 -0.004078
v -0.001539 -0.001100 -0.004229
v -0.001165 -0.001100 -0.004347
v -0.000781 -0.001100 -0.004432
v -0.000392 -0.001100 -0.004483
v 0.000000 -0.001100 -0.004500
v 0.000392 -0.001100 -0.004483
v 0.000781 -0.001100 -0.004432
v 0.001165 -0.001100 -0.004347
v 0.001539 -0.001100 -0.004229
v 0.001902 -0.001100 -0.004078
v 0.002250 -0.001100 -0.003897
v 0.002581 -0.001100 -0.003686
v 0.002893 -0.001100 -0.003447
v 0.003182 -0.001100 -0.003182
v 0.003447 -0.001100 -0.002893
v 0.003686 -0.001100 -0.002581
v 0.003897 -0.001100 -0.002250
v 0.004078 -0.001100 -0.001902
v 0.004229 -0.001100 -0.001539
v 0.004347 -0.001100 -0.001165
v 0.004432 -0.001100 -0.000781
v 0.004483 -0.001100 -0.000392
v 0.004500 -0.001100 0.000000
v 0.004483 -0.001100 0.000392
v 0.004432 -0.001100 0.000781
v 0.004347 -0.001100 0.001165
v 0.004229 -0.001100 0.001539
v 0.004078 -0.001100 0.001902
v 0.003897 -0.001100 0.002250
v 0.003686 -0.001100 0.002581
v 0.003447 -0.001100 0.002893
v 0.003182 -0.001100 0.003182
v 0.002893 -0.001100 0.003447
v 0.002581 -0.001100 0.003686
v 0.002250 -0.001100 0.003897
v 0.001902 -0.001100 0.004078
v 0.001539 -0.001100 0.004229
v 0.001165 -0.001100 0.004347
v 0.000781 -0.001100 0.004432
v 0.000392 -0.001100 0.004483
v -0.000000 -0.001100 0.004500
v -0.000392 -0.001100 0.004483
v -0.000781 -0.001100 0.004432
v -0.001165 -0.001100 0.004347
v -0.001539 -0.001100 0.004229
v -0.001902 -0.001100 0.004078
v -0.002250 -0.001100 0.003897
v -0.002581 -0.001100 0.003686
v -0.002893 -0.001100 0.003447
v -0.003182 -0.001100 0.003182
v -0.003447 -0.001100 0.002893
v -0.003686 -0.001100 0.002581
v -0.003897 -0.001100 0.002250
v -0.004078 -0.001100 0.001902
v -0.004229 -0.001100 0.001539
v 0.000405 -0.001250 -0.004632
v 0.000807 -0.001250 -0.004579
v 0.001204 -0.001250 -0.004492
v 0.001590 -0.001250 -0.004370
v 0.001965 -0.001250 -0.004214
v 0.002325 -0.001250 -0.004027
v 0.002667 -0.001250 -0.003809
v 0.002989 -0.001250 -0.003562
v 0.003288 -0.001250 -0.003288
v 0.003562 -0.001250 -0.002989
v 0.003809 -0.001250 -0.002667
v 0.004027 -0.001250 -0.002325
v 0.004214 -0.001250 -0.001965
v 0.004370 -0.001250 -0.001590
v 0.004492 -0.001250 -0.001204
v 0.004579 -0.001250 -0.000807
v 0.004632 -0.001250 -0.000405
v 0.004650 -0.001250 0.000000
v 0.004632 -0.001250 0.000405
v 0.004579 -0.001250 0.000807
v 0.004492 -0.001250 0.001204
v 0.004370 -0.001250 0.001590
v 0.004214 -0.001250 0.001965
v 0.004027 -0.001250 0.002325
v 0.003809 -0.001250 0.002667
v 0.003562 -0.001250 0.002989
v 0.003288 -0.001250 0.003288
v 0.002989 -0.001250 0.003562
v 0.002667 -0.001250 0.003809
v 0.002325 -0.001250 0.004027
v 0.001965 -0.001250 0.004214
v 0.001590 -0.001250 0.004370
v 0.001204 -0.001250 0.004492
v 0.000807 -0.001250 0.004579
v 0.000405 -0.001250 0.004632
v -0.000000 -0.001250 0.004650
v -0.000405 -0.001250 0.004632
v -0.000807 -0.001250 0.004579
v -0.001204 -0.001250 0.004492
v -0.001590 -0.001250 0.004370
v -0.001965 -0.001250 0.004214
v -0.002325 -0.001250 0.004027
v -0.002667 -0.001250 0.003809
v -0.002989 -0.001250 0.003562
v -0.003288 -0.001250 0.003288
v -0.003562 -0.001250 0.002989
v -0.003809 -0.001250 0.002667
v -0.004027 -0.001250 0.002325
v -0.004214 -0.001250 0.001965
v -0.004370 -0.001250 0.001590
v -0.004492 -0.001250 0.001204
v -0.004579 -0.001250 0.000807
v -0.004632 -0.001250 0.000405
v -0.004650 -0.001250 0.000000
v -0.004632 -0.001250 -0.000405
v -0.004579 -0.001250 -0.000807
v -0.004492 -0.001250 -0.001204
v -0.004370 -0.001250 -0.001590
v -0.004214 -0.001250 -0.001965
v -0.004027 -0.001250 -0.002325
v -0.003809 -0.001250 -0.002667
v -0.003562 -0.001250 -0.002989
v -0.003288 -0.001250 -0.003288
v -0.002989 -0.001250 -0.003562
v -0.002667 -0.001250 -0.003809
v -0.002325 -0.001250 -0.004027
v -0.001965 -0.001250 -0.004214
v -0.001590 -0.001250 -0.004370
v -0.001204 -0.001250 -0.004492
v -0.000807 -0.001250 -0.004579
v -0.000405 -0.001250 -0.004632
v -0.000000 -0.001250 -0.004650
v -0.000427 -0.001250 0.004881
v -0.000851 -0.001250 0.004826
v -0.001268 -0.001250 0.004733
v -0.001676 -0.001250 0.004604
v -0.002071 -0.001250 0.004441
v -0.002450 -0.001250 0.004244
v -0.002811 -0.001250 0.004014
v -0.003150 -0.001250 0.003754
v -0.003465 -0.001250 0.003465
v -0.003754 -0.001250 0.003150
v -0.004014 -0.001250 0.002811
v -0.004244 -0.001250 0.002450
v -0.004441 -0.001250 0.002071
v -0.004604 -0.001250 0.001676
v -0.004733 -0.001250 0.001268
v -0.004826 -0.001250 0.000851
v -0.004881 -0.001250 0.000427
v -0.004900 -0.001250 0.000000
v -0.004881 -0.001250 -0.000427
v -0.004826 -0.001250 -0.000851
v -0.004733 -0.001250 -0.001268
v -0.004604 -0.001250 -0.001676
v -0.004441 -0.001250 -0.002071
v -0.004244 -0.001250 -0.002450
v -0.004014 -0.001250 -0.002811
v -0.003754 -0.001250 -0.003150
v -0.003465 -0.001250 -0.003465
v -0.003150 -0.001250 -0.003754
v -0.002811 -0.001250 -0.004014
v -0.002450 -0.001250 -0.004244
v -0.002071 -0.001250 -0.004441
v -0.001676 -0.001250 -0.004604
v -0.001268 -0.001250 -0.004733
v -0.000851 -0.001250 -0.004826
v -0.000427 -0.001250 -0.004881
v 0.000000 -0.001250 -0.004900
v 0.000427 -0.001250 -0.004881
v 0.000851 -0.001250 -0.004826
v 0.001268 -0.001250 -0.004733
v 0.001676 -0.001250 -0.004604
v 0.002071 -0.001250 -0.004441
v 0.002450 -0.001250 -0.004244
v 0.002811 -0.001250 -0.004014
v 0.003150 -0.001250 -0.003754
v 0.003465 -0.001250 -0.003465
v 0.003754 -0.001250 -0.003150
v 0.004014 -0.001250 -0.002811
v 0.004244 -0.001250 -0.002450
v 0.004441 -0.001250 -0.002071
v 0.004604 -0.001250 -0.001676
v 0.004733 -0.001250 -0.001268
v 0.004826 -0.001250 -0.000851
v 0.004881 -0.001250 -0.000427
v 0.004900 -0.001250 0.000000
v 0.004881 -0.001250 0.000427
v 0.004826 -0.001250 0.000851
v 0.004733 -0.001250 0.001268
v 0.004604 -0.001250 0.001676
v 0.004441 -0.001250 0.002071
v 0.004244 -0.001250 0.002450
v 0.004014 -0.001250 0.002811
v 0.003754 -0.001250 0.003150
v 0.003465 -0.001250 0.003465
v 0.003150 -0.001250 0.003754
v 0.002811 -0.001250 0.004014
v 0.002450 -0.001250 0.004244
v 0.002071 -0.001250 0.004441
v 0.001676 -0.001250 0.004604
v 0.001268 -0.001250 0.004733
v 0.000851 -0.001250 0.004826
v 0.000427 -0.001250 0.004881
v 0.000000 -0.001250 0.004900
v 0.000000 -0.001150 -0.005000
v -0.000436 -0.001150 -0.004981
v -0.000868 -0.001150 -0.004924
v -0.001294 -0.001150 -0.004830
v -0.001710 -0.001150 -0.004698
v -0.002113 -0.001150 -0.004532
v -0.002500 -0.001150 -0.004330
v -0.002868 -0.001150 -0.004096
v -0.003214 -0.001150 -0.003830
v -0.003536 -0.001150 -0.003536
v -0.003830 -0.001150 -0.003214
v -0.004096 -0.001150 -0.002868
v -0.004330 -0.001150 -0.002500
v -0.004532 -0.001150 -0.002113
v -0.004698 -0.001150 -0.001710
v -0.004830 -0.001150 -0.001294
v -0.004924 -0.001150 -0.000868
v -0.004981 -0.001150 -0.000436
v -0.005000 -0.001150 0.000000
v -0.004981 -0.001150 0.000436
v -0.004924 -0.001150 0.000868
v -0.004830 -0.001150 0.001294
v -0.004698 -0.001150 0.001710
v -0.004532 -0.001150 0.002113
v -0.004330 -0.001150 0.002500
v -0.004096 -0.001150 0.002868
v -0.003830 -0.001150 0.003214
v -0.003536 -0.001150 0.003536
v -0.003214 -0.001150 0.003830
v -0.002868 -0.001150 0.004096
v -0.002500 -0.001150 0.004330
v -0.002113 -0.001150 0.004532
v -0.001710 -0.001150 0.004698
v -0.001294 -0.001150 0.004830
v -0.000868 -0.001150 0.004924
v -0.000436 -0.001150 0.004981
v 0.000000 -0.001150 0.005000
v 0.000436 -0.001150 0.004981
v 0.000868 -0.001150 0.004924
v 0.001294 -0.001150 0.004830
v 0.001710 -0.001150 0.004698
v 0.002113 -0.001150 0.004532
v 0.002500 -0.001150 0.004330
v 0.002868 -0.001150 0.004096
v 0.003214 -0.001150 0.003830
v 0.003536 -0.001150 0.003536
v 0.003830 -0.001150 0.003214
v 0.004096 -0.001150 0.002868
v 0.004330 -0.001150 0.002500
v 0.004532 -0.001150 0.002113
v 0.004698 -0.001150 0.001710
v 0.004830 -0.001150 0.001294
v 0.004924 -0.001150 0.000868
v 0.004981 -0.001150 0.000436
v 0.005000 -0.001150 0.000000
v 0.004981 -0.001150 -0.000436
v 0.004924 -0.001150 -0.000868
v 0.004830 -0.001150 -0.001294
v 0.004698 -0.001150 -0.001710
v 0.004532 -0.001150 -0.002113
v 0.004330 -0.001150 -0.002500
v 0.004096 -0.001150 -0.002868
v 0.003830 -0.001150 -0.003214
v 0.003536 -0.001150 -0.003536
v 0.003214 -0.001150 -0.003830
v 0.002868 -0.001150 -0.004096
v 0.002500 -0.001150 -0.004330
v 0.002113 -0.001150 -0.004532
v 0.001710 -0.001150 -0.004698
v 0.001294 -0.001150 -0.004830
v 0.000868 -0.001150 -0.004924
v 0.000436 -0.001150 -0.004981
v 0.005000 0.001150 -0.000000
v 0.004981 0.001150 -0.000436
v 0.004924 0.001150 -0.000868
v 0.004830 0.001150 -0.001294
v 0.004698 0.001150 -0.001710
v 0.004532 0.001150 -0.002113
v 0.004330 0.001150 -0.002500
v 0.004096 0.001150 -0.002868
v 0.003830 0.001150 -0.003214
v 0.003536 0.001150 -0.003536
v 0.003214 0.001150 -0.003830
v 0.002868 0.001150 -0.004096
v 0.002500 0.001150 -0.004330
v 0.002113 0.001150 -0.004532
v 0.001710 0.001150 -0.004698
v 0.001294 0.001150 -0.004830
v 0.000868 0.001150 -0.004924
v 0.000436 0.001150 -0.004981
v 0.000000 0.001150 -0.005000
v -0.000436 0.001150 -0.004981
v -0.000868 0.001150 -0.004924
v -0.001294 0.001150 -0.004830
v -0.001710 0.001150 -0.004698
v -0.002113 0.001150 -0.004532
v -0.002500 0.001150 -0.004330
v -0.002868 0.001150 -0.004096
v -0.003214 0.001150 -0.003830
v -0.003536 0.001150 -0.003536
v -0.003830 0.001150 -0.003214
v -0.004096 0.001150 -0.002868
v -0.004330 0.001150 -0.002500
v -0.004532 0.001150 -0.002113
v -0.004698 0.001150 -0.001710
v -0.004830 0.001150 -0.001294
v -0.004924 0.001150 -0.000868
v -0.004981 0.001150 -0.000436
v -0.005000 0.001150 0.000000
v -0.004981 0.001150 0.000436
v -0.004924 0.001150 0.000868
v -0.004830 0.001150 0.001294
v -0.004698 0.001150 0.001710
v -0.004532 0.001150 0.002113
v -0.004330 0.001150 0.002500
v -0.004096 0.001150 0.002868
v -0.003830 0.001150 0.003214
v -0.003536 0.001150 0.003536
v -0.003214 0.001150 0.003830
v -0.002868 0.001150 0.004096
v -0.002500 0.001150 0.004330
v -0.002113 0.001150 0.004532
v -0.001710 0.001150 0.004698
v -0.001294 0.001150 0.004830
v -0.000868 0.001150 0.004924
v -0.000436 0.001150 0.004981
v 0.000000 0.001150 0.005000
v 0.000436 0.001150 0.004981
v 0.000868 0.001150 0.004924
v 0.001294 0.001150 0.004830
v 0.001710 0.001150 0.004698
v 0.002113 0.001150 0.004532
v 0.002500 0.001150 0.004330
v 0.002868 0.001150 0.004096
v 0.003214 0.001150 0.003830
v 0.003536 0.001150 0.003536
v 0.003830 0.001150 0.003214
v 0.004096 0.001150 0.002868
v 0.004330 0.001150 0.002500
v 0.004532 0.001150 0.002113
v 0.004698 0.001150 0.001710
v 0.004830 0.001150 0.001294
v 0.004924 0.001150 0.000868
v 0.004981 0.001150 0.000436
v 0.000427 0.001250 -0.004881
v 0.000851 0.001250 -0.004826
v 0.001268 0.001250 -0.004733
v 0.001676 0.001250 -0.004604
v 0.002071 0.001250 -0.004441
v 0.002450 0.001250 -0.004244
v 0.002811 0.001250 -0.004014
v 0.003150 0.001250 -0.003754
v 0.003465 0.001250 -0.003465
v 0.003754 0.001250 -0.003150
v 0.004014 0.001250 -0.002811
v 0.004244 0.001250 -0.002450
v 0.004441 0.001250 -0.002071
v 0.004604 0.001250 -0.001676
v 0.004733 0.001250 -0.001268
v 0.004826 0.001250 -0.000851
v 0.004881 0.001250 -0.000427
v 0.004900 0.001250 0.000000
v 0.004881 0.001250 0.000427
v 0.004826 0.001250 0.000851
v 0.004733 0.001250 0.001268
v 0.004604 0.001250 0.001676
v 0.004441 0.001250 0.002071
v 0.004244 0.001250 0.002450
v 0.004014 0.001250 0.002811
v 0.003754 0.001250 0.003150
v 0.003465 0.001250 0.003465
v 0.003150 0.001250 0.003754
v 0.002811 0.001250 0.004014
v 0.002450 0.001250 0.004244
v 0.002071 0.001250 0.004441
v 0.001676 0.001250 0.004604
v 0.001268 0.001250 0.004733
v 0.000851 0.001250 0.004826
v 0.000427 0.001250 0.004881
v 0.000000 0.001250 0.004900
v -0.000427 0.001250 0.004881
v -0.000851 0.001250 0.004826
v -0.001268 0.001250 0.004733
v -0.001676 0.001250 0.004604
v -0.002071 0.001250 0.004441
v -0.002450 0.001250 0.004244
v -0.002811 0.001250 0.004014
v -0.003150 0.001250 0.003754
v -0.003465 0.001250 0.003465
v -0.003754 0.001250 0.003150
v -0.004014 0.001250 0.002811
v -0.004244 0.001250 0.002450
v -0.004441 0.001250 0.002071
v -0.004604 0.001250 0.001676
v -0.004733 0.001250 0.001268
v -0.004826 0.001250 0.000851
v -0.004881 0.001250 0.000427
v -0.004900 0.001250 0.000000
v -0.004881 0.001250 -0.000427
v -0.004826 0.001250 -0.000851
v -0.004733 0.001250 -0.001268
v -0.004604 0.001250 -0.001676
v -0.004441 0.001250 -0.002071
v -0.004244 0.001250 -0.002450
v -0.004014 0.001250 -0.002811
v -0.003754 0.001250 -0.003150
v -0.003465 0.001250 -0.003465
v -0.003150 0.001250 -0.003754
v -0.002811 0.001250 -0.004014
v -0.002450 0.001250 -0.004244
v -0.002071 0.001250 -0.004441
v -0.001676 0.001250 -0.004604
v -0.001268 0.001250 -0.004733
v -0.000851 0.001250 -0.004826
v -0.000427 0.001250 -0.004881
v 0.000000 0.001250 -0.004900
v 0.001268 0.001250 0.002719
v 0.001416 0.001250 0.003036
v 0.001500 0.001250 0.002598
v 0.001675 0.001250 0.002901
v 0.001721 0.001250 0.002457
v 0.001921 0.001250 0.002744
v 0.001928 0.001250 0.002298
v 0.002153 0.001250 0.002566
v 0.002121 0.001250 0.002121
v 0.002369 0.001250 0.002369
v 0.002298 0.001250 0.001928
v 0.002566 0.001250 0.002153
v 0.002457 0.001250 0.001721
v 0.002744 0.001250 0.001921
v 0.002598 0.001250 0.001500
v 0.002901 0.001250 0.001675
v 0.002719 0.001250 0.001268
v 0.003036 0.001250 0.001416
v 0.002819 0.001250 0.001026
v 0.003148 0.001250 0.001146
v 0.002898 0.001250 0.000776
v 0.003236 0.001250 0.000867
v 0.002954 0.001250 0.000521
v 0.003299 0.001250 0.000582
v 0.002989 0.001250 0.000261
v 0.003337 0.001250 0.000292
v 0.003000 0.001250 0.000000
v 0.003350 0.001250 -0.000000
v 0.002989 0.001250 -0.000261
v 0.003337 0.001250 -0.000292
v 0.002954 0.001250 -0.000521
v 0.003299 0.001250 -0.000582
v 0.002898 0.001250 -0.000776
v 0.003236 0.001250 -0.000867
v 0.002819 0.001250 -0.001026
v 0.003148 0.001250 -0.001146
v 0.002719 0.001250 -0.001268
v 0.003036 0.001250 -0.001416
v 0.002598 0.001250 -0.001500
v 0.002901 0.001250 -0.001675
v 0.002457 0.001250 -0.001721
v 0.002744 0.001250 -0.001921
v 0.002298 0.001250 -0.001928
v 0.002566 0.001250 -0.002153
v 0.002121 0.001250 -0.002121
v 0.002369 0.001250 -0.002369
v 0.001928 0.001250 -0.002298
v 0.002153 0.001250 -0.002566
v 0.001721 0.001250 -0.002457
v 0.001921 0.001250 -0.002744
v 0.001500 0.001250 -0.002598
v 0.001675 0.001250 -0.002901
v 0.001268 0.001250 -0.002719
v 0.001416 0.001250 -0.003036
v 0.001026 0.001250 -0.002819
v 0.001146 0.001250 -0.003148
v 0.000776 0.001250 -0.002898
v 0.000867 0.001250 -0.003236
v 0.000521 0.001250 -0.002954
v 0.000582 0.001250 -0.003299
v 0.000261 0.001250 -0.002989
v 0.000292 0.001250 -0.003337
v 0.000000 0.001250 -0.003000
v -0.000000 0.001250 -0.003350
v -0.000261 0.001250 -0.002989
v -0.000292 0.001250 -0.003337
v -0.000521 0.001250 -0.002954
v -0.000582 0.001250 -0.003299
v -0.000776 0.001250 -0.002898
v -0.000867 0.001250 -0.003236
v -0.001026 0.001250 -0.002819
v -0.001146 0.001250 -0.003148
v -0.001268 0.001250 -0.002719
v -0.001416 0.001250 -0.003036
v -0.001500 0.001250 -0.002598
v -0.001675 0.001250 -0.002901
v -0.001721 0.001250 -0.002457
v -0.001921 0.001250 -0.002744
v -0.001928 0.001250 -0.002298
v -0.002153 0.001250 -0.002566
v -0.002121 0.001250 -0.002121
v -0.002369 0.001250 -0.002369
v -0.002298 0.001250 -0.001928
v -0.002566 0.001250 -0.002153
v -0.002457 0.001250 -0.001721
v -0.002744 0.001250 -0.001921
v -0.002598 0.001250 -0.001500
v -0.002901 0.001250 -0.001675
v -0.002719 0.001250 -0.001268
v -0.003036 0.001250 -0.001416
v -0.002819 0.001250 -0.001026
v -0.003148 0.001250 -0.001146
v -0.002898 0.001250 -0.000776
v -0.003236 0.001250 -0.000867
v -0.002954 0.001250 -0.000521
v -0.003299 0.001250 -0.000582
v -0.002989 0.001250 -0.000261
v -0.003337 0.001250 -0.000292
v -0.003000 0.001250 -0.000000
v -0.003350 0.001250 0.000000
v -0.002989 0.001250 0.000261
v -0.003337 0.001250 0.000292
v -0.002954 0.001250 0.000521
v -0.003299 0.001250 0.000582
v -0.002898 0.001250 0.000776
v -0.003236 0.001250 0.000867
v -0.002819 0.001250 0.001026
v -0.003148 0.001250 0.001146
v -0.002719 0.001250 0.001268
v -0.003036 0.001250 0.001416
v -0.002598 0.001250 0.001500
v -0.002901 0.001250 0.001675
v -0.002457 0.001250 0.001721
v -0.002744 0.001250 0.001921
v -0.002298 0.001250 0.001928
v -0.002566 0.001250 0.002153
v -0.002121 0.001250 0.002121
v -0.002369 0.001250 0.002369
v -0.001928 0.001250 0.002298
v -0.002153 0.001250 0.002566
v -0.001721 0.001250 0.002457
v -0.001921 0.001250 0.002744
v -0.001500 0.001250 0.002598
v -0.001675 0.001250 0.002901
v -0.001268 0.001250 0.002719
v -0.001416 0.001250 0.003036
v -0.001026 0.001250 0.002819
v -0.001146 0.001250 0.003148
v -0.000776 0.001250 0.002898
v -0.000867 0.001250 0.003236
v -0.000521 0.001250 0.002954
v -0.000582 0.001250 0.003299
v -0.000261 0.001250 0.002989
v -0.000292 0.001250 0.003337
v -0.000000 0.001250 0.003000
v 0.000000 0.001250 0.003350
v 0.000261 0.001250 0.002989
v 0.000292 0.001250 0.003337
v 0.000521 0.001250 0.002954
v 0.000582 0.001250 0.003299
v 0.000776 0.001250 0.002898
v 0.000867 0.001250 0.003236
v 0.001026 0.001250 0.002819
v 0.001146 0.001250 0.003148
v 0.000000 0.001100 -0.003500
v 0.000305 0.001100 -0.003487
v 0.000608 0.001100 -0.003447
v 0.000906 0.001100 -0.003381
v 0.001197 0.001100 -0.003289
v 0.001479 0.001100 -0.003172
v 0.001750 0.001100 -0.003031
v 0.002008 0.001100 -0.002867
v 0.002250 0.001100 -0.002681
v 0.002475 0.001100 -0.002475
v 0.002681 0.001100 -0.002250
v 0.002867 0.001100 -0.002008
v 0.003031 0.001100 -0.001750
v 0.003172 0.001100 -0.001479
v 0.003289 0.001100 -0.001197
v 0.003381 0.001100 -0.000906
v 0.003447 0.001100 -0.000608
v 0.003487 0.001100 -0.000305
v 0.003500 0.001100 0.000000
v 0.003487 0.001100 0.000305
v 0.003447 0.001100 0.000608
v 0.003381 0.001100 0.000906
v 0.003289 0.001100 0.001197
v 0.003172 0.001100 0.001479
v 0.003031 0.001100 0.001750
v 0.002867 0.001100 0.002008
v 0.002681 0.001100 0.002250
v 0.002475 0.001100 0.002475
v 0.002250 0.001100 0.002681
v 0.002008 0.001100 0.002867
v 0.001750 0.001100 0.003031
v 0.001479 0.001100 0.003172
v 0.001197 0.001100 0.003289
v 0.000906 0.001100 0.003381
v 0.000608 0.001100 0.003447
v 0.000305 0.001100 0.003487
v 0.000000 0.001100 0.003500
v -0.000305 0.001100 0.003487
v -0.000608 0.001100 0.003447
v -0.000906 0.001100 0.003381
v -0.001197 0.001100 0.003289
v -0.001479 0.001100 0.003172
v -0.001750 0.001100 0.003031
v -0.002008 0.001100 0.002867
v -0.002250 0.001100 0.002681
v -0.002475 0.001100 0.002475
v -0.002681 0.001100 0.002250
v -0.002867 0.001100 0.002008
v -0.003031 0.001100 0.001750
v -0.003172 0.001100 0.001479
v -0.003289 0.001100 0.001197
v -0.003381 0.001100 0.000906
v -0.003447 0.001100 0.000608
v -0.003487 0.001100 0.000305
v -0.003500 0.001100 0.000000
v -0.003487 0.001100 -0.000305
v -0.003447 0.001100 -0.000608
v -0.003381 0.001100 -0.000906
v -0.003289 0.001100 -0.001197
v -0.003172 0.001100 -0.001479
v -0.003031 0.001100 -0.001750
v -0.002867 0.001100 -0.002008
v -0.002681 0.001100 -0.002250
v -0.002475 0.001100 -0.002475
v -0.002250 0.001100 -0.002681
v -0.002008 0.001100 -0.002867
v -0.001750 0.001100 -0.003031
v -0.001479 0.001100 -0.003172
v -0.001197 0.001100 -0.003289
v -0.000906 0.001100 -0.003381
v -0.000608 0.001100 -0.003447
v -0.000305 0.001100 -0.003487
v -0.004229 0.001100 -0.001539
v -0.004347 0.001100 -0.001165
v -0.004432 0.001100 -0.000781
v -0.004483 0.001100 -0.000392
v -0.004500 0.001100 0.000000
v -0.004483 0.001100 0.000392
v -0.004432 0.001100 0.000781
v -0.004347 0.001100 0.001165
v -0.004229 0.001100 0.001539
v -0.004078 0.001100 0.001902
v -0.003897 0.001100 0.002250
v -0.003686 0.001100 0.002581
v -0.003447 0.001100 0.002893
v -0.003182 0.001100 0.003182
v -0.002893 0.001100 0.003447
v -0.002581 0.001100 0.003686
v -0.002250 0.001100 0.003897
v -0.001902 0.001100 0.004078
v -0.001539 0.001100 0.004229
v -0.001165 0.001100 0.004347
v -0.000781 0.001100 0.004432
v -0.000392 0.001100 0.004483
v -0.000000 0.001100 0.004500
v 0.000392 0.001100 0.004483
v 0.000781 0.001100 0.004432
v 0.001165 0.001100 0.004347
v 0.001539 0.001100 0.004229
v 0.001902 0.001100 0.004078
v 0.002250 0.001100 0.003897
v 0.002581 0.001100 0.003686
v 0.002893 0.001100 0.003447
v 0.003182 0.001100 0.003182
v 0.003447 0.001100 0.002893
v 0.003686 0.001100 0.002581
v 0.003897 0.001100 0.002250
v 0.004078 0.001100 0.001902
v 0.004229 0.001100 0.001539
v 0.004347 0.001100 0.001165
v 0.004432 0.001100 0.000781
v 0.004483 0.001100 0.000392
v 0.004500 0.001100 -0.000000
v 0.004483 0.001100 -0.000392
v 0.004432 0.001100 -0.000781
v 0.004347 0.001100 -0.001165
v 0.004229 0.001100 -0.001539
v 0.004078 0.001100 -0.001902
v 0.003897 0.001100 -0.002250
v 0.003686 0.001100 -0.002581
v 0.003447 0.001100 -0.002893
v 0.003182 0.001100 -0.003182
v 0.002893 0.001100 -0.003447
v 0.002581 0.001100 -0.003686
v 0.002250 0.001100 -0.003897
v 0.001902 0.001100 -0.004078
v 0.001539 0.001100 -0.004229
v 0.001165 0.001100 -0.004347
v 0.000781 0.001100 -0.004432
v 0.000392 0.001100 -0.004483
v -0.000000 0.001100 -0.004500
v -0.000392 0.001100 -0.004483
v -0.000781 0.001100 -0.004432
v -0.001165 0.001100 -0.004347
v -0.001539 0.001100 -0.004229
v -0.001902 0.001100 -0.004078
v -0.002250 0.001100 -0.003897
v -0.002581 0.001100 -0.003686
v -0.002893 0.001100 -0.003447
v -0.003182 0.001100 -0.003182
v -0.003447 0.001100 -0.002893
v -0.003686 0.001100 -0.002581
v -0.003897 0.001100 -0.002250
v -0.004078 0.001100 -0.001902
v -0.000405 0.001250 -0.004632
v -0.000807 0.001250 -0.004579
v -0.001204 0.001250 -0.004492
v -0.001590 0.001250 -0.004370
v -0.001965 0.001250 -0.004214
v -0.002325 0.001250 -0.004027
v -0.002667 0.001250 -0.003809
v -0.002989 0.001250 -0.003562
v -0.003288 0.001250 -0.003288
v -0.003562 0.001250 -0.002989
v -0.003809 0.001250 -0.002667
v -0.004027 0.001250 -0.002325
v -0.004214 0.001250 -0.001965
v -0.004370 0.001250 -0.001590
v -0.004492 0.001250 -0.001204
v -0.004579 0.001250 -0.000807
v -0.004632 0.001250 -0.000405
v -0.004650 0.001250 0.000000
v -0.004632 0.001250 0.000405
v -0.004579 0.001250 0.000807
v -0.004492 0.001250 0.001204
v -0.004370 0.001250 0.001590
v -0.004214 0.001250 0.001965
v -0.004027 0.001250 0.002325
v -0.003809 0.001250 0.002667
v -0.003562 0.001250 0.002989
v -0.003288 0.001250 0.003288
v -0.002989 0.001250 0.003562
v -0.002667 0.001250 0.003809
v -0.002325 0.001250 0.004027
v -0.001965 0.001250 0.004214
v -0.001590 0.001250 0.004370
v -0.001204 0.001250 0.004492
v -0.000807 0.001250 0.004579
v -0.000405 0.001250 0.004632
v -0.000000 0.001250 0.004650
v 0.000405 0.001250 0.004632
v 0.000807 0.001250 0.004579
v 0.001204 0.001250 0.004492
v 0.001590 0.001250 0.004370
v 0.001965 0.001250 0.004214
v 0.002325 0.001250 0.004027
v 0.002667 0.001250 0.003809
v 0.002989 0.001250 0.003562
v 0.003288 0.001250 0.003288
v 0.003562 0.001250 0.002989
v 0.003809 0.001250 0.002667
v 0.004027 0.001250 0.002325
v 0.004214 0.001250 0.001965
v 0.004370 0.001250 0.001590
v 0.004492 0.001250 0.001204
v 0.004579 0.001250 0.000807
v 0.004632 0.001250 0.000405
v 0.004650 0.001250 0.000000
v 0.004632 0.001250 -0.000405
v 0.004579 0.001250 -0.000807
v 0.004492 0.001250 -0.001204
v 0.004370 0.001250 -0.001590
v 0.004214 0.001250 -0.001965
v 0.004027 0.001250 -0.002325
v 0.003809 0.001250 -0.002667
v 0.003562 0.001250 -0.002989
v 0.003288 0.001250 -0.003288
v 0.002989 0.001250 -0.003562
v 0.002667 0.001250 -0.003809
v 0.002325 0.001250 -0.004027
v 0.001965 0.001250 -0.004214
v 0.001590 0.001250 -0.004370
v 0.001204 0.001250 -0.004492
v 0.000807 0.001250 -0.004579
v 0.000405 0.001250 -0.004632
v -0.000000 0.001250 -0.004650
# 1008 vertices, 0 vertices normals

f 1 2 3
f 2 4 3
f 3 4 5
f 4 6 5
f 5 6 7
f 6 8 7
f 7 8 9
f 8 10 9
f 9 10 11
f 10 12 11
f 11 12 13
f 12 14 13
f 13 14 15
f 14 16 15
f 15 16 17
f 16 18 17
f 17 18 19
f 18 20 19
f 19 20 21
f 20 22 21
f 21 22 23
f 22 24 23
f 23 24 25
f 24 26 25
f 25 26 27
f 26 28 27
f 27 28 29
f 28 30 29
f 29 30 31
f 30 32 31
f 31 32 33
f 32 34 33
f 33 34 35
f 34 36 35
f 35 36 37
f 36 38 37
f 37 38 39
f 38 40 39
f 39 40 41
f 40 42 41
f 41 42 43
f 42 44 43
f 43 44 45
f 44 46 45
f 45 46 47
f 46 48 47
f 47 48 49
f 48 50 49
f 49 50 51
f 50 52 51
f 51 52 53
f 52 54 53
f 53 54 55
f 54 56 55
f 55 56 57
f 56 58 57
f 57 58 59
f 58 60 59
f 59 60 61
f 60 62 61
f 61 62 63
f 62 64 63
f 63 64 65
f 64 66 65
f 65 66 67
f 66 68 67
f 67 68 69
f 68 70 69
f 69 70 71
f 70 72 71
f 71 72 73
f 72 74 73
f 73 74 75
f 74 76 75
f 75 76 77
f 76 78 77
f 77 78 79
f 78 80 79
f 79 80 81
f 80 82 81
f 81 82 83
f 82 84 83
f 83 84 85
f 84 86 85
f 85 86 87
f 86 88 87
f 87 88 89
f 88 90 89
f 89 90 91
f 90 92 91
f 91 92 93
f 92 94 93
f 93 94 95
f 94 96 95
f 95 96 97
f 96 98 97
f 97 98 99
f 98 100 99
f 99 100 101
f 100 102 101
f 101 102 103
f 102 104 103
f 103 104 105
f 104 106 105
f 105 106 107
f 106 108 107
f 107 108 109
f 108 110 109
f 109 110 111
f 110 112 111
f 111 112 113
f 112 114 113
f 113 114 115
f 114 116 115
f 115 116 117
f 116 118 117
f 117 118 119
f 118 120 119
f 119 120 121
f 120 122 121
f 121 122 123
f 122 124 123
f 123 124 125
f 124 126 125
f 125 126 127
f 126 128 127
f 127 128 129
f 128 130 129
f 129 130 131
f 130 132 131
f 131 132 133
f 132 134 133
f 133 134 135
f 134 136 135
f 135 136 137
f 136 138 137
f 137 138 139
f 138 140 139
f 139 140 141
f 140 142 141
f 141 142 143
f 142 144 143
f 143 144 1
f 144 2 1
f 145 98 146
f 98 96 146
f 146 96 147
f 96 94 147
f 147 94 148
f 94 92 148
f 148 92 149
f 92 90 149
f 149 90 150
f 90 88 150
f 150 88 151
f 88 86 151
f 151 86 152
f 86 84 152
f 152 84 153
f 84 82 153
f 153 82 154
f 82 80 154
f 154 80 155
f 80 78 155
f 155 78 156
f 78 76 156
f 156 76 157
f 76 74 157
f 157 74 158
f 74 72 158
f 158 72 159
f 72 70 159
f 159 70 160
f 70 68 160
f 160 68 161
f 68 66 161
f 161 66 162
f 66 64 162
f 162 64 163
f 64 62 163
f 163 62 164
f 62 60 164
f 164 60 165
f 60 58 165
f 165 58 166
f 58 56 166
f 166 56 167
f 56 54 167
f 167 54 168
f 54 52 168
f 168 52 169
f 52 50 169
f 169 50 170
f 50 48 170
f 170 48 171
f 48 46 171
f 171 46 172
f 46 44 172
f 172 44 173
f 44 42 173
f 173 42 174
f 42 40 174
f 174 40 175
f 40 38 175
f 175 38 176
f 38 36 176
f 176 36 177
f 36 34 177
f 177 34 178
f 34 32 178
f 178 32 179
f 32 30 179
f 179 30 180
f 30 28 180
f 180 28 181
f 28 26 181
f 181 26 182
f 26 24 182
f 182 24 183
f 24 22 183
f 183 22 184
f 22 20 184
f 184 20 185
f 20 18 185
f 185 18 186
f 18 16 186
f 186 16 187
f 16 14 187
f 187 14 188
f 14 12 188
f 188 12 189
f 12 10 189
f 189 10 190
f 10 8 190
f 190 8 191
f 8 6 191
f 191 6 192
f 6 4 192
f 192 4 193
f 4 2 193
f 193 2 194
f 2 144 194
f 194 144 195
f 144 142 195
f 195 142 196
f 142 140 196
f 196 140 197
f 140 138 197
f 197 138 198
f 138 136 198
f 198 136 199
f 136 134 199
f 199 134 200
f 134 132 200
f 200 132 201
f 132 130 201
f 201 130 202
f 130 128 202
f 202 128 203
f 128 126 203
f 203 126 204
f 126 124 204
f 204 124 205
f 124 122 205
f 205 122 206
f 122 120 206
f 206 120 207
f 120 118 207
f 207 118 208
f 118 116 208
f 208 116 209
f 116 114 209
f 209 114 210
f 114 112 210
f 210 112 211
f 112 110 211
f 211 110 212
f 110 108 212
f 212 108 213
f 108 106 213
f 213 106 214
f 106 104 214
f 214 104 215
f 104 102 215
f 215 102 216
f 102 100 216
f 216 100 145
f 100 98 145
f 166 217 165
f 217 218 165
f 165 218 164
f 218 219 164
f 164 219 163
f 219 220 163
f 163 220 162
f 220 221 162
f 162 221 161
f 221 222 161
f 161 222 160
f 222 223 160
f 160 223 159
f 223 224 159
f 159 224 158
f 224 225 158
f 158 225 157
f 225 226 157
f 157 226 156
f 226 227 156
f 156 227 155
f 227 228 155
f 155 228 154
f 228 229 154
f 154 229 153
f 229 230 153
f 153 230 152
f 230 231 152
f 152 231 151
f 231 232 151
f 151 232 150
f 232 233 150
f 150 233 149
f 233 234 149
f 149 234 148
f 234 235 148
f 148 235 147
f 235 236 147
f 147 236 146
f 236 237 146
f 146 237 145
f 237 238 145
f 145 238 216
f 238 239 216
f 216 239 215
f 239 240 215
f 215 240 214
f 240 241 214
f 214 241 213
f 241 242 213
f 213 242 212
f 242 243 212
f 212 243 211
f 243 244 211
f 211 244 210
f 244 245 210
f 210 245 209
f 245 246 209
f 209 246 208
f 246 247 208
f 208 247 207
f 247 248 207
f 207 248 206
f 248 249 206
f 206 249 205
f 249 250 205
f 205 250 204
f 250 251 204
f 204 251 203
f 251 252 203
f 203 252 202
f 252 253 202
f 202 253 201
f 253 254 201
f 201 254 200
f 254 255 200
f 200 255 199
f 255 256 199
f 199 256 198
f 256 257 198
f 198 257 197
f 257 258 197
f 197 258 196
f 258 259 196
f 196 259 195
f 259 260 195
f 195 260 194
f 260 261 194
f 194 261 193
f 261 262 193
f 193 262 192
f 262 263 192
f 192 263 191
f 263 264 191
f 191 264 190
f 264 265 190
f 190 265 189
f 265 266 189
f 189 266 188
f 266 267 188
f 188 267 187
f 267 268 187
f 187 268 186
f 268 269 186
f 186 269 185
f 269 270 185
f 185 270 184
f 270 271 184
f 184 271 183
f 271 272 183
f 183 272 182
f 272 273 182
f 182 273 181
f 273 274 181
f 181 274 180
f 274 275 180
f 180 275 179
f 275 276 179
f 179 276 178
f 276 277 178
f 178 277 177
f 277 278 177
f 177 278 176
f 278 279 176
f 176 279 175
f 279 280 175
f 175 280 174
f 280 281 174
f 174 281 173
f 281 282 173
f 173 282 172
f 282 283 172
f 172 283 171
f 283 284 171
f 171 284 170
f 284 285 170
f 170 285 169
f 285 286 169
f 169 286 168
f 286 287 168
f 168 287 167
f 287 288 167
f 167 288 166
f 288 217 166
f 239 289 240
f 289 290 240
f 240 290 241
f 290 291 241
f 241 291 242
f 291 292 242
f 242 292 243
f 292 293 243
f 243 293 244
f 293 294 244
f 244 294 245
f 294 295 245
f 245 295 246
f 295 296 246
f 246 296 247
f 296 297 247
f 247 297 248
f 297 298 248
f 248 298 249
f 298 299 249
f 249 299 250
f 299 300 250
f 250 300 251
f 300 301 251
f 251 301 252
f 301 302 252
f 252 302 253
f 302 303 253
f 253 303 254
f 303 304 254
f 254 304 255
f 304 305 255
f 255 305 256
f 305 306 256
f 256 306 257
f 306 307 257
f 257 307 258
f 307 308 258
f 258 308 259
f 308 309 259
f 259 309 260
f 309 310 260
f 260 310 261
f 310 311 261
f 261 311 262
f 311 312 262
f 262 312 263
f 312 313 263
f 263 313 264
f 313 314 264
f 264 314 265
f 314 315 265
f 265 315 266
f 315 316 266
f 266 316 267
f 316 317 267
f 267 317 268
f 317 318 268
f 268 318 269
f 318 319 269
f 269 319 270
f 319 320 270
f 270 320 271
f 320 321 271
f 271 321 272
f 321 322 272
f 272 322 273
f 322 323 273
f 273 323 274
f 323 324 274
f 274 324 275
f 324 325 275
f 275 325 276
f 325 326 276
f 276 326 277
f 326 327 277
f 277 327 278
f 327 328 278
f 278 328 279
f 328 329 279
f 279 329 280
f 329 330 280
f 280 330 281
f 330 331 281
f 281 331 282
f 331 332 282
f 282 332 283
f 332 333 283
f 283 333 284
f 333 334 284
f 284 334 285
f 334 335 285
f 285 335 286
f 335 336 286
f 286 336 287
f 336 337 287
f 287 337 288
f 337 338 288
f 288 338 217
f 338 339 217
f 217 339 218
f 339 340 218
f 218 340 219
f 340 341 219
f 219 341 220
f 341 342 220
f 220 342 221
f 342 343 221
f 221 343 222
f 343 344 222
f 222 344 223
f 344 345 223
f 223 345 224
f 345 346 224
f 224 346 225
f 346 347 225
f 225 347 226
f 347 348 226
f 226 348 227
f 348 349 227
f 227 349 228
f 349 350 228
f 228 350 229
f 350 351 229
f 229 351 230
f 351 352 230
f 230 352 231
f 352 353 231
f 231 353 232
f 353 354 232
f 232 354 233
f 354 355 233
f 233 355 234
f 355 356 234
f 234 356 235
f 356 357 235
f 235 357 236
f 357 358 236
f 236 358 237
f 358 359 237
f 237 359 238
f 359 360 238
f 238 360 239
f 360 289 239
f 325 361 326
f 361 362 326
f 326 362 327
f 362 363 327
f 327 363 328
f 363 364 328
f 328 364 329
f 364 365 329
f 329 365 330
f 365 366 330
f 330 366 331
f 366 367 331
f 331 367 332
f 367 368 332
f 332 368 333
f 368 369 333
f 333 369 334
f 369 370 334
f 334 370 335
f 370 371 335
f 335 371 336
f 371 372 336
f 336 372 337
f 372 373 337
f 337 373 338
f 373 374 338
f 338 374 339
f 374 375 339
f 339 375 340
f 375 376 340
f 340 376 341
f 376 377 341
f 341 377 342
f 377 378 342
f 342 378 343
f 378 379 343
f 343 379 344
f 379 380 344
f 344 380 345
f 380 381 345
f 345 381 346
f 381 382 346
f 346 382 347
f 382 383 347
f 347 383 348
f 383 384 348
f 348 384 349
f 384 385 349
f 349 385 350
f 385 386 350
f 350 386 351
f 386 387 351
f 351 387 352
f 387 388 352
f 352 388 353
f 388 389 353
f 353 389 354
f 389 390 354
f 354 390 355
f 390 391 355
f 355 391 356
f 391 392 356
f 356 392 357
f 392 393 357
f 357 393 358
f 393 394 358
f 358 394 359
f 394 395 359
f 359 395 360
f 395 396 360
f 360 396 289
f 396 397 289
f 289 397 290
f 397 398 290
f 290 398 291
f 398 399 291
f 291 399 292
f 399 400 292
f 292 400 293
f 400 401 293
f 293 401 294
f 401 402 294
f 294 402 295
f 402 403 295
f 295 403 296
f 403 404 296
f 296 404 297
f 404 405 297
f 297 405 298
f 405 406 298
f 298 406 299
f 406 407 299
f 299 407 300
f 407 408 300
f 300 408 301
f 408 409 301
f 301 409 302
f 409 410 302
f 302 410 303
f 410 411 303
f 303 411 304
f 411 412 304
f 304 412 305
f 412 413 305
f 305 413 306
f 413 414 306
f 306 414 307
f 414 415 307
f 307 415 308
f 415 416 308
f 308 416 309
f 416 417 309
f 309 417 310
f 417 418 310
f 310 418 311
f 418 419 311
f 311 419 312
f 419 420 312
f 312 420 313
f 420 421 313
f 313 421 314
f 421 422 314
f 314 422 315
f 422 423 315
f 315 423 316
f 423 424 316
f 316 424 317
f 424 425 317
f 317 425 318
f 425 426 318
f 318 426 319
f 426 427 319
f 319 427 320
f 427 428 320
f 320 428 321
f 428 429 321
f 321 429 322
f 429 430 322
f 322 430 323
f 430 431 323
f 323 431 324
f 431 432 324
f 324 432 325
f 432 361 325
f 433 395 434
f 395 394 434
f 434 394 435
f 394 393 435
f 435 393 436
f 393 392 436
f 436 392 437
f 392 391 437
f 437 391 438
f 391 390 438
f 438 390 439
f 390 389 439
f 439 389 440
f 389 388 440
f 440 388 441
f 388 387 441
f 441 387 442
f 387 386 442
f 442 386 443
f 386 385 443
f 443 385 444
f 385 384 444
f 444 384 445
f 384 383 445
f 445 383 446
f 383 382 446
f 446 382 447
f 382 381 447
f 447 381 448
f 381 380 448
f 448 380 449
f 380 379 449
f 449 379 450
f 379 378 450
f 450 378 451
f 378 377 451
f 451 377 452
f 377 376 452
f 452 376 453
f 376 375 453
f 453 375 454
f 375 374 454
f 454 374 455
f 374 373 455
f 455 373 456
f 373 372 456
f 456 372 457
f 372 371 457
f 457 371 458
f 371 370 458
f 458 370 459
f 370 369 459
f 459 369 460
f 369 368 460
f 460 368 461
f 368 367 461
f 461 367 462
f 367 366 462
f 462 366 463
f 366 365 463
f 463 365 464
f 365 364 464
f 464 364 465
f 364 363 465
f 465 363 466
f 363 362 466
f 466 362 467
f 362 361 467
f 467 361 468
f 361 432 468
f 468 432 469
f 432 431 469
f 469 431 470
f 431 430 470
f 470 430 471
f 430 429 471
f 471 429 472
f 429 428 472
f 472 428 473
f 428 427 473
f 473 427 474
f 427 426 474
f 474 426 475
f 426 425 475
f 475 425 476
f 425 424 476
f 476 424 477
f 424 423 477
f 477 423 478
f 423 422 478
f 478 422 479
f 422 421 479
f 479 421 480
f 421 420 480
f 480 420 481
f 420 419 481
f 481 419 482
f 419 418 482
f 482 418 483
f 418 417 483
f 483 417 484
f 417 416 484
f 484 416 485
f 416 415 485
f 485 415 486
f 415 414 486
f 486 414 487
f 414 413 487
f 487 413 488
f 413 412 488
f 488 412 489
f 412 411 489
f 489 411 490
f 411 410 490
f 490 410 491
f 410 409 491
f 491 409 492
f 409 408 492
f 492 408 493
f 408 407 493
f 493 407 494
f 407 406 494
f 494 406 495
f 406 405 495
f 495 405 496
f 405 404 496
f 496 404 497
f 404 403 497
f 497 403 498
f 403 402 498
f 498 402 499
f 402 401 499
f 499 401 500
f 401 400 500
f 500 400 501
f 400 399 501
f 501 399 502
f 399 398 502
f 502 398 503
f 398 397 503
f 503 397 504
f 397 396 504
f 504 396 433
f 396 395 433
f 505 488 506
f 488 489 506
f 506 489 507
f 489 490 507
f 507 490 508
f 490 491 508
f 508 491 509
f 491 492 509
f 509 492 510
f 492 493 510
f 510 493 511
f 493 494 511
f 511 494 512
f 494 495 512
f 512 495 513
f 495 496 513
f 513 496 514
f 496 497 514
f 514 497 515
f 497 498 515
f 515 498 516
f 498 499 516
f 516 499 517
f 499 500 517
f 517 500 518
f 500 501 518
f 518 501 519
f 501 502 519
f 519 502 520
f 502 503 520
f 520 503 521
f 503 504 521
f 521 504 522
f 504 433 522
f 522 433 523
f 433 434 523
f 523 434 524
f 434 435 524
f 524 435 525
f 435 436 525
f 525 436 526
f 436 437 526
f 526 437 527
f 437 438 527
f 527 438 528
f 438 439 528
f 528 439 529
f 439 440 529
f 529 440 530
f 440 441 530
f 530 441 531
f 441 442 531
f 531 442 532
f 442 443 532
f 532 443 533
f 443 444 533
f 533 444 534
f 444 445 534
f 534 445 535
f 445 446 535
f 535 446 536
f 446 447 536
f 536 447 537
f 447 448 537
f 537 448 538
f 448 449 538
f 538 449 539
f 449 450 539
f 539 450 540
f 450 451 540
f 540 451 541
f 451 452 541
f 541 452 542
f 452 453 542
f 542 453 543
f 453 454 543
f 543 454 544
f 454 455 544
f 544 455 545
f 455 456 545
f 545 456 546
f 456 457 546
f 546 457 547
f 457 458 547
f 547 458 548
f 458 459 548
f 548 459 549
f 459 460 549
f 549 460 550
f 460 461 550
f 550 461 551
f 461 462 551
f 551 462 552
f 462 463 552
f 552 463 553
f 463 464 553
f 553 464 554
f 464 465 554
f 554 465 555
f 465 466 555
f 555 466 556
f 466 467 556
f 556 467 557
f 467 468 557
f 557 468 558
f 468 469 558
f 558 469 559
f 469 470 559
f 559 470 560
f 470 471 560
f 560 471 561
f 471 472 561
f 561 472 562
f 472 473 562
f 562 473 563
f 473 474 563
f 563 474 564
f 474 475 564
f 564 475 565
f 475 476 565
f 565 476 566
f 476 477 566
f 566 477 567
f 477 478 567
f 567 478 568
f 478 479 568
f 568 479 569
f 479 480 569
f 569 480 570
f 480 481 570
f 570 481 571
f 481 482 571
f 571 482 572
f 482 483 572
f 572 483 573
f 483 484 573
f 573 484 574
f 484 485 574
f 574 485 575
f 485 486 575
f 575 486 576
f 486 487 576
f 576 487 505
f 487 488 505
f 523 577 522
f 577 578 522
f 522 578 521
f 578 579 521
f 521 579 520
f 579 580 520
f 520 580 519
f 580 581 519
f 519 581 518
f 581 582 518
f 518 582 517
f 582 583 517
f 517 583 516
f 583 584 516
f 516 584 515
f 584 585 515
f 515 585 514
f 585 586 514
f 514 586 513
f 586 587 513
f 513 587 512
f 587 588 512
f 512 588 511
f 588 589 511
f 511 589 510
f 589 590 510
f 510 590 509
f 590 591 509
f 509 591 508
f 591 592 508
f 508 592 507
f 592 593 507
f 507 593 506
f 593 594 506
f 506 594 505
f 594 595 505
f 505 595 576
f 595 596 576
f 576 596 575
f 596 597 575
f 575 597 574
f 597 598 574
f 574 598 573
f 598 599 573
f 573 599 572
f 599 600 572
f 572 600 571
f 600 601 571
f 571 601 570
f 601 602 570
f 570 602 569
f 602 603 569
f 569 603 568
f 603 604 568
f 568 604 567
f 604 605 567
f 567 605 566
f 605 606 566
f 566 606 565
f 606 607 565
f 565 607 564
f 607 608 564
f 564 608 563
f 608 609 563
f 563 609 562
f 609 610 562
f 562 610 561
f 610 611 561
f 561 611 560
f 611 612 560
f 560 612 559
f 612 613 559
f 559 613 558
f 613 614 558
f 558 614 557
f 614 615 557
f 557 615 556
f 615 616 556
f 556 616 555
f 616 617 555
f 555 617 554
f 617 618 554
f 554 618 553
f 618 619 553
f 553 619 552
f 619 620 552
f 552 620 551
f 620 621 551
f 551 621 550
f 621 622 550
f 550 622 549
f 622 623 549
f 549 623 548
f 623 624 548
f 548 624 547
f 624 625 547
f 547 625 546
f 625 626 546
f 546 626 545
f 626 627 545
f 545 627 544
f 627 628 544
f 544 628 543
f 628 629 543
f 543 629 542
f 629 630 542
f 542 630 541
f 630 631 541
f 541 631 540
f 631 632 540
f 540 632 539
f 632 633 539
f 539 633 538
f 633 634 538
f 538 634 537
f 634 635 537
f 537 635 536
f 635 636 536
f 536 636 535
f 636 637 535
f 535 637 534
f 637 638 534
f 534 638 533
f 638 639 533
f 533 639 532
f 639 640 532
f 532 640 531
f 640 641 531
f 531 641 530
f 641 642 530
f 530 642 529
f 642 643 529
f 529 643 528
f 643 644 528
f 528 644 527
f 644 645 527
f 527 645 526
f 645 646 526
f 526 646 525
f 646 647 525
f 525 647 524
f 647 648 524
f 524 648 523
f 648 577 523
f 649 650 651
f 650 652 651
f 651 652 653
f 652 654 653
f 653 654 655
f 654 656 655
f 655 656 657
f 656 658 657
f 657 658 659
f 658 660 659
f 659 660 661
f 660 662 661
f 661 662 663
f 662 664 663
f 663 664 665
f 664 666 665
f 665 666 667
f 666 668 667
f 667 668 669
f 668 670 669
f 669 670 671
f 670 672 671
f 671 672 673
f 672 674 673
f 673 674 675
f 674 676 675
f 675 676 677
f 676 678 677
f 677 678 679
f 678 680 679
f 679 680 681
f 680 682 681
f 681 682 683
f 682 684 683
f 683 684 685
f 684 686 685
f 685 686 687
f 686 688 687
f 687 688 689
f 688 690 689
f 689 690 691
f 690 692 691
f 691 692 693
f 692 694 693
f 693 694 695
f 694 696 695
f 695 696 697
f 696 698 697
f 697 698 699
f 698 700 699
f 699 700 701
f 700 702 701
f 701 702 703
f 702 704 703
f 703 704 705
f 704 706 705
f 705 706 707
f 706 708 707
f 707 708 709
f 708 710 709
f 709 710 711
f 710 712 711
f 711 712 713
f 712 714 713
f 713 714 715
f 714 716 715
f 715 716 717
f 716 718 717
f 717 718 719
f 718 720 719
f 719 720 721
f 720 722 721
f 721 722 723
f 722 724 723
f 723 724 725
f 724 726 725
f 725 726 727
f 726 728 727
f 727 728 729
f 728 730 729
f 729 730 731
f 730 732 731
f 731 732 733
f 732 734 733
f 733 734 735
f 734 736 735
f 735 736 737
f 736 738 737
f 737 738 739
f 738 740 739
f 739 740 741
f 740 742 741
f 741 742 743
f 742 744 743
f 743 744 745
f 744 746 745
f 745 746 747
f 746 748 747
f 747 748 749
f 748 750 749
f 749 750 751
f 750 752 751
f 751 752 753
f 752 754 753
f 753 754 755
f 754 756 755
f 755 756 757
f 756 758 757
f 757 758 759
f 758 760 759
f 759 760 761
f 760 762 761
f 761 762 763
f 762 764 763
f 763 764 765
f 764 766 765
f 765 766 767
f 766 768 767
f 767 768 769
f 768 770 769
f 769 770 771
f 770 772 771
f 771 772 773
f 772 774 773
f 773 774 775
f 774 776 775
f 775 776 777
f 776 778 777
f 777 778 779
f 778 780 779
f 779 780 781
f 780 782 781
f 781 782 783
f 782 784 783
f 783 784 785
f 784 786 785
f 785 786 787
f 786 788 787
f 787 788 789
f 788 790 789
f 789 790 791
f 790 792 791
f 791 792 649
f 792 650 649
f 135 675 133
f 675 677 133
f 133 677 131
f 677 679 131
f 131 679 129
f 679 681 129
f 129 681 127
f 681 683 127
f 127 683 125
f 683 685 125
f 125 685 123
f 685 687 123
f 123 687 121
f 687 689 121
f 121 689 119
f 689 691 119
f 119 691 117
f 691 693 117
f 117 693 115
f 693 695 115
f 115 695 113
f 695 697 113
f 113 697 111
f 697 699 111
f 111 699 109
f 699 701 109
f 109 701 107
f 701 703 107
f 107 703 105
f 703 705 105
f 105 705 103
f 705 707 103
f 103 707 101
f 707 709 101
f 101 709 99
f 709 711 99
f 99 711 97
f 711 713 97
f 97 713 95
f 713 715 95
f 95 715 93
f 715 717 93
f 93 717 91
f 717 719 91
f 91 719 89
f 719 721 89
f 89 721 87
f 721 723 87
f 87 723 85
f 723 725 85
f 85 725 83
f 725 727 83
f 83 727 81
f 727 729 81
f 81 729 79
f 729 731 79
f 79 731 77
f 731 733 77
f 77 733 75
f 733 735 75
f 75 735 73
f 735 737 73
f 73 737 71
f 737 739 71
f 71 739 69
f 739 741 69
f 69 741 67
f 741 743 67
f 67 743 65
f 743 745 65
f 65 745 63
f 745 747 63
f 63 747 61
f 747 749 61
f 61 749 59
f 749 751 59
f 59 751 57
f 751 753 57
f 57 753 55
f 753 755 55
f 55 755 53
f 755 757 53
f 53 757 51
f 757 759 51
f 51 759 49
f 759 761 49
f 49 761 47
f 761 763 47
f 47 763 45
f 763 765 45
f 45 765 43
f 765 767 43
f 43 767 41
f 767 769 41
f 41 769 39
f 769 771 39
f 39 771 37
f 771 773 37
f 37 773 35
f 773 775 35
f 35 775 33
f 775 777 33
f 33 777 31
f 777 779 31
f 31 779 29
f 779 781 29
f 29 781 27
f 781 783 27
f 27 783 25
f 783 785 25
f 25 785 23
f 785 787 23
f 23 787 21
f 787 789 21
f 21 789 19
f 789 791 19
f 19 791 17
f 791 649 17
f 17 649 15
f 649 651 15
f 15 651 13
f 651 653 13
f 13 653 11
f 653 655 11
f 11 655 9
f 655 657 9
f 9 657 7
f 657 659 7
f 7 659 5
f 659 661 5
f 5 661 3
f 661 663 3
f 3 663 1
f 663 665 1
f 1 665 143
f 665 667 143
f 143 667 141
f 667 669 141
f 141 669 139
f 669 671 139
f 139 671 137
f 671 673 137
f 137 673 135
f 673 675 135
f 793 710 794
f 710 708 794
f 794 708 795
f 708 706 795
f 795 706 796
f 706 704 796
f 796 704 797
f 704 702 797
f 797 702 798
f 702 700 798
f 798 700 799
f 700 698 799
f 799 698 800
f 698 696 800
f 800 696 801
f 696 694 801
f 801 694 802
f 694 692 802
f 802 692 803
f 692 690 803
f 803 690 804
f 690 688 804
f 804 688 805
f 688 686 805
f 805 686 806
f 686 684 806
f 806 684 807
f 684 682 807
f 807 682 808
f 682 680 808
f 808 680 809
f 680 678 809
f 809 678 810
f 678 676 810
f 810 676 811
f 676 674 811
f 811 674 812
f 674 672 812
f 812 672 813
f 672 670 813
f 813 670 814
f 670 668 814
f 814 668 815
f 668 666 815
f 815 666 816
f 666 664 816
f 816 664 817
f 664 662 817
f 817 662 818
f 662 660 818
f 818 660 819
f 660 658 819
f 819 658 820
f 658 656 820
f 820 656 821
f 656 654 821
f 821 654 822
f 654 652 822
f 822 652 823
f 652 650 823
f 823 650 824
f 650 792 824
f 824 792 825
f 792 790 825
f 825 790 826
f 790 788 826
f 826 788 827
f 788 786 827
f 827 786 828
f 786 784 828
f 828 784 829
f 784 782 829
f 829 782 830
f 782 780 830
f 830 780 831
f 780 778 831
f 831 778 832
f 778 776 832
f 832 776 833
f 776 774 833
f 833 774 834
f 774 772 834
f 834 772 835
f 772 770 835
f 835 770 836
f 770 768 836
f 836 768 837
f 768 766 837
f 837 766 838
f 766 764 838
f 838 764 839
f 764 762 839
f 839 762 840
f 762 760 840
f 840 760 841
f 760 758 841
f 841 758 842
f 758 756 842
f 842 756 843
f 756 754 843
f 843 754 844
f 754 752 844
f 844 752 845
f 752 750 845
f 845 750 846
f 750 748 846
f 846 748 847
f 748 746 847
f 847 746 848
f 746 744 848
f 848 744 849
f 744 742 849
f 849 742 850
f 742 740 850
f 850 740 851
f 740 738 851
f 851 738 852
f 738 736 852
f 852 736 853
f 736 734 853
f 853 734 854
f 734 732 854
f 854 732 855
f 732 730 855
f 855 730 856
f 730 728 856
f 856 728 857
f 728 726 857
f 857 726 858
f 726 724 858
f 858 724 859
f 724 722 859
f 859 722 860
f 722 720 860
f 860 720 861
f 720 718 861
f 861 718 862
f 718 716 862
f 862 716 863
f 716 714 863
f 863 714 864
f 714 712 864
f 864 712 793
f 712 710 793
f 851 865 850
f 865 866 850
f 850 866 849
f 866 867 849
f 849 867 848
f 867 868 848
f 848 868 847
f 868 869 847
f 847 869 846
f 869 870 846
f 846 870 845
f 870 871 845
f 845 871 844
f 871 872 844
f 844 872 843
f 872 873 843
f 843 873 842
f 873 874 842
f 842 874 841
f 874 875 841
f 841 875 840
f 875 876 840
f 840 876 839
f 876 877 839
f 839 877 838
f 877 878 838
f 838 878 837
f 878 879 837
f 837 879 836
f 879 880 836
f 836 880 835
f 880 881 835
f 835 881 834
f 881 882 834
f 834 882 833
f 882 883 833
f 833 883 832
f 883 884 832
f 832 884 831
f 884 885 831
f 831 885 830
f 885 886 830
f 830 886 829
f 886 887 829
f 829 887 828
f 887 888 828
f 828 888 827
f 888 889 827
f 827 889 826
f 889 890 826
f 826 890 825
f 890 891 825
f 825 891 824
f 891 892 824
f 824 892 823
f 892 893 823
f 823 893 822
f 893 894 822
f 822 894 821
f 894 895 821
f 821 895 820
f 895 896 820
f 820 896 819
f 896 897 819
f 819 897 818
f 897 898 818
f 818 898 817
f 898 899 817
f 817 899 816
f 899 900 816
f 816 900 815
f 900 901 815
f 815 901 814
f 901 902 814
f 814 902 813
f 902 903 813
f 813 903 812
f 903 904 812
f 812 904 811
f 904 905 811
f 811 905 810
f 905 906 810
f 810 906 809
f 906 907 809
f 809 907 808
f 907 908 808
f 808 908 807
f 908 909 807
f 807 909 806
f 909 910 806
f 806 910 805
f 910 911 805
f 805 911 804
f 911 912 804
f 804 912 803
f 912 913 803
f 803 913 802
f 913 914 802
f 802 914 801
f 914 915 801
f 801 915 800
f 915 916 800
f 800 916 799
f 916 917 799
f 799 917 798
f 917 918 798
f 798 918 797
f 918 919 797
f 797 919 796
f 919 920 796
f 796 920 795
f 920 921 795
f 795 921 794
f 921 922 794
f 794 922 793
f 922 923 793
f 793 923 864
f 923 924 864
f 864 924 863
f 924 925 863
f 863 925 862
f 925 926 862
f 862 926 861
f 926 927 861
f 861 927 860
f 927 928 860
f 860 928 859
f 928 929 859
f 859 929 858
f 929 930 858
f 858 930 857
f 930 931 857
f 857 931 856
f 931 932 856
f 856 932 855
f 932 933 855
f 855 933 854
f 933 934 854
f 854 934 853
f 934 935 853
f 853 935 852
f 935 936 852
f 852 936 851
f 936 865 851
f 924 937 925
f 937 938 925
f 925 938 926
f 938 939 926
f 926 939 927
f 939 940 927
f 927 940 928
f 940 941 928
f 928 941 929
f 941 942 929
f 929 942 930
f 942 943 930
f 930 943 931
f 943 944 931
f 931 944 932
f 944 945 932
f 932 945 933
f 945 946 933
f 933 946 934
f 946 947 934
f 934 947 935
f 947 948 935
f 935 948 936
f 948 949 936
f 936 949 865
f 949 950 865
f 865 950 866
f 950 951 866
f 866 951 867
f 951 952 867
f 867 952 868
f 952 953 868
f 868 953 869
f 953 954 869
f 869 954 870
f 954 955 870
f 870 955 871
f 955 956 871
f 871 956 872
f 956 957 872
f 872 957 873
f 957 958 873
f 873 958 874
f 958 959 874
f 874 959 875
f 959 960 875
f 875 960 876
f 960 961 876
f 876 961 877
f 961 962 877
f 877 962 878
f 962 963 878
f 878 963 879
f 963 964 879
f 879 964 880
f 964 965 880
f 880 965 881
f 965 966 881
f 881 966 882
f 966 967 882
f 882 967 883
f 967 968 883
f 883 968 884
f 968 969 884
f 884 969 885
f 969 970 885
f 885 970 886
f 970 971 886
f 886 971 887
f 971 972 887
f 887 972 888
f 972 973 888
f 888 973 889
f 973 974 889
f 889 974 890
f 974 975 890
f 890 975 891
f 975 976 891
f 891 976 892
f 976 977 892
f 892 977 893
f 977 978 893
f 893 978 894
f 978 979 894
f 894 979 895
f 979 980 895
f 895 980 896
f 980 981 896
f 896 981 897
f 981 982 897
f 897 982 898
f 982 983 898
f 898 983 899
f 983 984 899
f 899 984 900
f 984 985 900
f 900 985 901
f 985 986 901
f 901 986 902
f 986 987 902
f 902 987 903
f 987 988 903
f 903 988 904
f 988 989 904
f 904 989 905
f 989 990 905
f 905 990 906
f 990 991 906
f 906 991 907
f 991 992 907
f 907 992 908
f 992 993 908
f 908 993 909
f 993 994 909
f 909 994 910
f 994 995 910
f 910 995 911
f 995 996 911
f 911 996 912
f 996 997 912
f 912 997 913
f 997 998 913
f 913 998 914
f 998 999 914
f 914 999 915
f 999 1000 915
f 915 1000 916
f 1000 1001 916
f 916 1001 917
f 1001 1002 917
f 917 1002 918
f 1002 1003 918
f 918 1003 919
f 1003 1004 919
f 919 1004 920
f 1004 1005 920
f 920 1005 921
f 1005 1006 921
f 921 1006 922
f 1006 1007 922
f 922 1007 923
f 1007 1008 923
f 923 1008 924
f 1008 937 924
f 983 601 984
f 601 600 984
f 984 600 985
f 600 599 985
f 985 599 986
f 599 598 986
f 986 598 987
f 598 597 987
f 987 597 988
f 597 596 988
f 988 596 989
f 596 595 989
f 989 595 990
f 595 594 990
f 990 594 991
f 594 593 991
f 991 593 992
f 593 592 992
f 992 592 993
f 592 591 993
f 993 591 994
f 591 590 994
f 994 590 995
f 590 589 995
f 995 589 996
f 589 588 996
f 996 588 997
f 588 587 997
f 997 587 998
f 587 586 998
f 998 586 999
f 586 585 999
f 999 585 1000
f 585 584 1000
f 1000 584 1001
f 584 583 1001
f 1001 583 1002
f 583 582 1002
f 1002 582 1003
f 582 581 1003
f 1003 581 1004
f 581 580 1004
f 1004 580 1005
f 580 579 1005
f 1005 579 1006
f 579 578 1006
f 1006 578 1007
f 578 577 1007
f 1007 577 1008
f 577 648 1008
f 1008 648 937
f 648 647 937
f 937 647 938
f 647 646 938
f 938 646 939
f 646 645 939
f 939 645 940
f 645 644 940
f 940 644 941
f 644 643 941
f 941 643 942
f 643 642 942
f 942 642 943
f 642 641 943
f 943 641 944
f 641 640 944
f 944 640 945
f 640 639 945
f 945 639 946
f 639 638 946
f 946 638 947
f 638 637 947
f 947 637 948
f 637 636 948
f 948 636 949
f 636 635 949
f 949 635 950
f 635 634 950
f 950 634 951
f 634 633 951
f 951 633 952
f 633 632 952
f 952 632 953
f 632 631 953
f 953 631 954
f 631 630 954
f 954 630 955
f 630 629 955
f 955 629 956
f 629 628 956
f 956 628 957
f 628 627 957
f 957 627 958
f 627 626 958
f 958 626 959
f 626 625 959
f 959 625 960
f 625 624 960
f 960 624 961
f 624 623 961
f 961 623 962
f 623 622 962
f 962 622 963
f 622 621 963
f 963 621 964
f 621 620 964
f 964 620 965
f 620 619 965
f 965 619 966
f 619 618 966
f 966 618 967
f 618 617 967
f 967 617 968
f 617 616 968
f 968 616 969
f 616 615 969
f 969 615 970
f 615 614 970
f 970 614 971
f 614 613 971
f 971 613 972
f 613 612 972
f 972 612 973
f 612 611 973
f 973 611 974
f 611 610 974
f 974 610 975
f 610 609 975
f 975 609 976
f 609 608 976
f 976 608 977
f 608 607 977
f 977 607 978
f 607 606 978
f 978 606 979
f 606 605 979
f 979 605 980
f 605 604 980
f 980 604 981
f 604 603 981
f 981 603 982
f 603 602 982
f 982 602 983
f 602 601 983
# 2016 faces, 0 coords texture

# End of File
