####
#
# OBJ File Generated by Meshlab
#
####
# Object gear_link2.obj
#
# Vertices: 1294
# Faces: 2592
#
####
v -0.005991 -0.004000 0.023752
v -0.004495 -0.004000 0.023200
v -0.004400 -0.004000 0.024897
v -0.004321 -0.004000 0.025258
v 0.001987 -0.004000 0.021590
v 0.001804 -0.004000 0.021598
v -0.003503 -0.004000 0.020210
v 0.001622 -0.004000 0.021622
v -0.003692 -0.004000 0.020527
v 0.000700 -0.004000 0.030061
v 0.000340 -0.004000 0.029978
v 0.002764 -0.004000 0.030143
v -0.005458 -0.004000 0.026726
v -0.005436 -0.004000 0.026700
v -0.005521 -0.004000 0.027111
v 0.001443 -0.004000 0.021661
v -0.004397 -0.004000 0.022468
v 0.001269 -0.004000 0.021716
v 0.001099 -0.004000 0.021786
v 0.008397 -0.004000 0.022614
v 0.007899 -0.004000 0.020988
v 0.009718 -0.004000 0.021720
v 0.009494 -0.004000 0.020989
v 0.009746 -0.004000 0.021700
v 0.002170 -0.004000 0.025782
v 0.002352 -0.004000 0.025758
v -0.003082 -0.004000 0.027759
v 0.002530 -0.004000 0.025718
v 0.009966 -0.004000 0.024676
v 0.009962 -0.004000 0.023933
v 0.009993 -0.004000 0.023947
v 0.008345 -0.004000 0.025042
v 0.008478 -0.004000 0.023348
v 0.009902 -0.004000 0.024696
v 0.009935 -0.004000 0.024687
v -0.001013 -0.004000 0.017923
v -0.001387 -0.004000 0.018134
v -0.001746 -0.004000 0.018368
v -0.000081 -0.004000 -0.000087
v -0.000105 -0.004000 0.000095
v -0.001013 -0.004000 0.002923
v 0.003129 -0.004000 0.030089
v 0.003490 -0.004000 0.030013
v 0.008258 -0.004000 0.025401
v 0.000937 -0.004000 0.021871
v 0.000782 -0.004000 0.021969
v 0.000637 -0.004000 0.022081
v 0.000502 -0.004000 0.022205
v 0.000378 -0.004000 0.022340
v -0.004456 -0.004000 0.022833
v -0.005750 -0.004000 0.021501
v -0.005773 -0.004000 0.021476
v -0.005491 -0.004000 0.020819
v -0.005558 -0.004000 0.020829
v -0.005855 -0.004000 0.021125
v -0.005591 -0.004000 0.020838
v -0.005623 -0.004000 0.020850
v -0.003948 -0.004000 0.018265
v -0.003915 -0.004000 0.018274
v -0.004374 -0.004000 0.018873
v -0.003883 -0.004000 0.018286
v -0.002413 -0.004000 0.018905
v -0.002088 -0.004000 0.018626
v 0.002170 -0.004000 0.021598
v 0.007555 -0.004000 0.020336
v 0.002352 -0.004000 0.021622
v 0.007736 -0.004000 0.020657
v 0.009689 -0.004000 0.021039
v 0.009718 -0.004000 0.021057
v 0.009885 -0.004000 0.021304
v 0.000502 -0.004000 0.025175
v 0.000637 -0.004000 0.025298
v 0.009013 -0.004000 0.027535
v 0.008980 -0.004000 0.027531
v 0.009423 -0.004000 0.027014
v -0.005159 -0.004000 0.027375
v -0.005193 -0.004000 0.027372
v -0.005949 -0.004000 0.024516
v -0.005981 -0.004000 0.024506
v -0.006013 -0.004000 0.024494
v -0.005793 -0.004000 0.021449
v -0.005812 -0.004000 0.021420
v -0.005827 -0.004000 0.021390
v -0.005841 -0.004000 0.021359
v -0.005851 -0.004000 0.021327
v -0.005859 -0.004000 0.021294
v -0.005864 -0.004000 0.021260
v -0.005866 -0.004000 0.021226
v -0.005865 -0.004000 0.021192
v -0.005525 -0.004000 0.020823
v -0.005862 -0.004000 0.021158
v -0.004049 -0.004000 0.018255
v -0.004083 -0.004000 0.018257
v -0.004116 -0.004000 0.018262
v -0.004015 -0.004000 0.018255
v -0.003981 -0.004000 0.018259
v 0.006148 -0.004000 0.018696
v 0.006495 -0.004000 0.019007
v -0.001853 -0.004000 0.028934
v -0.001549 -0.004000 0.029143
v 0.008448 -0.004000 0.022980
v -0.001234 -0.004000 0.029336
v -0.001377 -0.004000 0.030924
v 0.000168 -0.004000 0.022640
v 0.000084 -0.004000 0.022802
v -0.003511 -0.004000 0.027158
v 0.000782 -0.004000 0.025410
v 0.000937 -0.004000 0.025508
v 0.001099 -0.004000 0.025593
v 0.010180 -0.004000 0.024468
v 0.010165 -0.004000 0.024498
v 0.010213 -0.004000 0.024269
v 0.009411 -0.004000 0.026982
v 0.004929 -0.004000 0.031399
v 0.004897 -0.004000 0.031410
v 0.005185 -0.004000 0.030999
v 0.008150 -0.004000 0.025754
v 0.005079 -0.004000 0.029407
v 0.004471 -0.004000 0.031272
v -0.004222 -0.004000 0.025614
v -0.005411 -0.004000 0.026677
v -0.005091 -0.004000 0.027371
v -0.005125 -0.004000 0.027374
v -0.005226 -0.004000 0.027366
v -0.005259 -0.004000 0.027358
v -0.005291 -0.004000 0.027347
v -0.005322 -0.004000 0.027333
v -0.005352 -0.004000 0.027317
v -0.005380 -0.004000 0.027298
v -0.005508 -0.004000 0.027142
v -0.006044 -0.004000 0.024479
v -0.006073 -0.004000 0.024462
v -0.006100 -0.004000 0.024442
v -0.003862 -0.004000 0.020855
v -0.005457 -0.004000 0.020819
v -0.005698 -0.004000 0.021545
v -0.005725 -0.004000 0.021524
v -0.004243 -0.004000 0.018311
v -0.004213 -0.004000 0.018295
v -0.000113 -0.004000 0.000278
v -0.000105 -0.004000 0.000461
v 0.004987 -0.004000 0.017923
v 0.005392 -0.004000 0.018153
v 0.005780 -0.004000 0.018411
v 0.008011 -0.004000 0.018410
v 0.008043 -0.004000 0.018402
v 0.008455 -0.004000 0.019019
v 0.009891 -0.004000 0.021338
v 0.003191 -0.004000 0.021969
v 0.003037 -0.004000 0.021871
v 0.002874 -0.004000 0.021786
v 0.002705 -0.004000 0.021716
v 0.001269 -0.004000 0.025663
v 0.001443 -0.004000 0.025718
v 0.001622 -0.004000 0.025758
v 0.010055 -0.004000 0.024625
v 0.010081 -0.004000 0.024604
v 0.010022 -0.004000 0.023963
v 0.010163 -0.004000 0.024108
v 0.010178 -0.004000 0.024138
v 0.010027 -0.004000 0.024645
v 0.009997 -0.004000 0.024661
v 0.007404 -0.004000 0.027282
v 0.007191 -0.004000 0.027584
v 0.006962 -0.004000 0.027873
v 0.007376 -0.004000 0.029875
v 0.007342 -0.004000 0.029881
v 0.007646 -0.004000 0.029314
v 0.001699 -0.004000 0.031888
v 0.001670 -0.004000 0.031870
v 0.002279 -0.004000 0.031663
v -0.000669 -0.004000 0.031213
v -0.000691 -0.004000 0.031239
v -0.000864 -0.004000 0.031343
v -0.000896 -0.004000 0.031352
v -0.000930 -0.004000 0.031357
v -0.000964 -0.004000 0.031360
v -0.006222 -0.004000 0.024281
v -0.006234 -0.004000 0.024249
v -0.006243 -0.004000 0.024217
v -0.006237 -0.004000 0.024015
v -0.006226 -0.004000 0.023983
v -0.006213 -0.004000 0.023952
v -0.006196 -0.004000 0.023922
v -0.005819 -0.004000 0.021030
v -0.005802 -0.004000 0.021001
v -0.005834 -0.004000 0.021061
v -0.005782 -0.004000 0.020973
v -0.005760 -0.004000 0.020947
v -0.005736 -0.004000 0.020923
v -0.005710 -0.004000 0.020902
v -0.005683 -0.004000 0.020882
v -0.005846 -0.004000 0.021093
v -0.005653 -0.004000 0.020865
v -0.004181 -0.004000 0.018281
v -0.004149 -0.004000 0.018270
v -0.000042 -0.004000 0.000821
v 0.000014 -0.004000 0.000996
v 0.007978 -0.004000 0.018421
v 0.008077 -0.004000 0.018396
v 0.008111 -0.004000 0.018393
v 0.008145 -0.004000 0.018394
v 0.009528 -0.004000 0.020990
v 0.009562 -0.004000 0.020994
v 0.009595 -0.004000 0.021001
v 0.009746 -0.004000 0.021077
v 0.009771 -0.004000 0.021100
v 0.009795 -0.004000 0.021124
v 0.009877 -0.004000 0.021271
v 0.009865 -0.004000 0.021239
v 0.009851 -0.004000 0.021208
v 0.009865 -0.004000 0.021538
v 0.009852 -0.004000 0.021568
v 0.009835 -0.004000 0.021598
v 0.009816 -0.004000 0.021626
v 0.002530 -0.004000 0.021661
v 0.000267 -0.004000 0.022485
v 0.000014 -0.004000 0.022971
v -0.000042 -0.004000 0.023146
v -0.000081 -0.004000 0.023325
v 0.001804 -0.004000 0.025782
v 0.001987 -0.004000 0.025790
v 0.010051 -0.004000 0.023982
v 0.010077 -0.004000 0.024003
v 0.010102 -0.004000 0.024027
v 0.010209 -0.004000 0.024235
v 0.010145 -0.004000 0.024079
v 0.010148 -0.004000 0.024527
v 0.010128 -0.004000 0.024555
v 0.010124 -0.004000 0.024052
v 0.010105 -0.004000 0.024580
v 0.001893 -0.004000 0.031941
v 0.001859 -0.004000 0.031939
v 0.001826 -0.004000 0.031935
v 0.001792 -0.004000 0.031927
v -0.005407 -0.004000 0.027277
v -0.005432 -0.004000 0.027254
v -0.005454 -0.004000 0.027228
v -0.004384 -0.004000 0.018454
v -0.004366 -0.004000 0.018425
v -0.004345 -0.004000 0.018398
v -0.004323 -0.004000 0.018373
v -0.001815 -0.004000 -0.000965
v -0.001694 -0.004000 -0.001289
v 0.000084 -0.004000 -0.000610
v 0.000084 -0.004000 0.001165
v 0.000168 -0.004000 0.001328
v 0.000267 -0.004000 0.001482
v 0.001443 -0.004000 0.002306
v 0.001622 -0.004000 0.002346
v 0.008178 -0.004000 0.018397
v 0.008212 -0.004000 0.018403
v 0.008245 -0.004000 0.018411
v 0.008277 -0.004000 0.018423
v 0.008307 -0.004000 0.018437
v 0.008337 -0.004000 0.018454
v 0.008365 -0.004000 0.018473
v 0.008391 -0.004000 0.018494
v 0.008416 -0.004000 0.018518
v 0.009628 -0.004000 0.021011
v 0.009659 -0.004000 0.021024
v 0.009816 -0.004000 0.021151
v 0.009835 -0.004000 0.021179
v 0.009894 -0.004000 0.021371
v 0.009894 -0.004000 0.021405
v 0.009891 -0.004000 0.021439
v 0.009795 -0.004000 0.021653
v 0.009771 -0.004000 0.021677
v 0.002705 -0.004000 0.025663
v -0.003798 -0.004000 0.029184
v 0.003472 -0.004000 0.025175
v 0.003596 -0.004000 0.025039
v 0.004087 -0.004000 0.023690
v 0.004079 -0.004000 0.023873
v 0.004055 -0.004000 0.024054
v 0.004079 -0.004000 0.023507
v 0.004055 -0.004000 0.023325
v 0.004015 -0.004000 0.023146
v -0.000105 -0.004000 0.023507
v -0.000113 -0.004000 0.023690
v -0.000105 -0.004000 0.023873
v -0.000081 -0.004000 0.024054
v -0.000042 -0.004000 0.024233
v 0.000014 -0.004000 0.024408
v 0.010214 -0.004000 0.024337
v 0.010210 -0.004000 0.024370
v 0.010203 -0.004000 0.024404
v 0.009315 -0.004000 0.026844
v 0.009339 -0.004000 0.026868
v 0.009361 -0.004000 0.026894
v 0.005070 -0.004000 0.031308
v 0.005045 -0.004000 0.031331
v 0.005019 -0.004000 0.031351
v -0.000716 -0.004000 0.031262
v -0.000743 -0.004000 0.031283
v -0.000771 -0.004000 0.031302
v -0.000801 -0.004000 0.031318
v -0.000832 -0.004000 0.031332
v -0.001065 -0.004000 0.031351
v -0.001098 -0.004000 0.031342
v -0.001130 -0.004000 0.031331
v -0.001161 -0.004000 0.031316
v -0.005475 -0.004000 0.027201
v -0.005493 -0.004000 0.027172
v -0.005540 -0.004000 0.026910
v -0.005533 -0.004000 0.026877
v -0.005523 -0.004000 0.026844
v -0.005511 -0.004000 0.026813
v -0.006126 -0.004000 0.024420
v -0.006150 -0.004000 0.024395
v -0.006171 -0.004000 0.024369
v -0.006191 -0.004000 0.024341
v -0.006208 -0.004000 0.024312
v -0.006249 -0.004000 0.024183
v -0.006252 -0.004000 0.024149
v -0.006253 -0.004000 0.024116
v -0.006250 -0.004000 0.024082
v -0.006245 -0.004000 0.024048
v -0.006178 -0.004000 0.023894
v -0.006157 -0.004000 0.023867
v -0.006134 -0.004000 0.023842
v -0.004436 -0.004000 0.018614
v -0.004432 -0.004000 0.018580
v -0.004424 -0.004000 0.018547
v -0.004298 -0.004000 0.018350
v -0.004271 -0.004000 0.018329
v 0.003037 -0.004000 0.002096
v 0.003191 -0.004000 0.001998
v 0.004987 -0.004000 0.002923
v 0.003337 -0.004000 0.001886
v -0.000081 -0.004000 0.000642
v 0.000937 -0.004000 0.002096
v 0.000782 -0.004000 0.001998
v 0.000637 -0.004000 0.001886
v 0.001099 -0.004000 0.002181
v 0.001269 -0.004000 0.002251
v 0.001804 -0.004000 0.002370
v 0.001987 -0.004000 0.002378
v 0.002170 -0.004000 0.002370
v 0.002352 -0.004000 0.002346
v 0.008438 -0.004000 0.018544
v 0.008458 -0.004000 0.018571
v 0.008473 -0.004000 0.018990
v 0.008476 -0.004000 0.018600
v 0.008491 -0.004000 0.018630
v 0.008512 -0.004000 0.018896
v 0.008502 -0.004000 0.018928
v 0.008520 -0.004000 0.018728
v 0.008489 -0.004000 0.018960
v 0.009885 -0.004000 0.021473
v 0.009877 -0.004000 0.021506
v 0.003337 -0.004000 0.025298
v 0.003596 -0.004000 0.022340
v 0.003707 -0.004000 0.022485
v 0.003806 -0.004000 0.022640
v 0.003472 -0.004000 0.022205
v 0.003337 -0.004000 0.022081
v 0.000084 -0.004000 0.024577
v 0.000168 -0.004000 0.024740
v -0.003305 -0.004000 0.027464
v 0.000267 -0.004000 0.024894
v 0.000378 -0.004000 0.025039
v 0.010215 -0.004000 0.024303
v 0.009380 -0.004000 0.026922
v 0.009397 -0.004000 0.026952
v 0.009438 -0.004000 0.027080
v 0.009442 -0.004000 0.027114
v 0.009323 -0.004000 0.027421
v 0.009297 -0.004000 0.027444
v 0.009270 -0.004000 0.027465
v 0.009242 -0.004000 0.027483
v 0.009212 -0.004000 0.027499
v 0.009180 -0.004000 0.027512
v 0.009148 -0.004000 0.027522
v 0.009115 -0.004000 0.027530
v 0.007500 -0.004000 0.029822
v 0.007471 -0.004000 0.029839
v 0.007309 -0.004000 0.029885
v 0.007275 -0.004000 0.029886
v 0.007241 -0.004000 0.029883
v 0.007207 -0.004000 0.029878
v 0.007174 -0.004000 0.029870
v 0.007142 -0.004000 0.029860
v 0.005184 -0.004000 0.031067
v 0.005179 -0.004000 0.031100
v 0.005093 -0.004000 0.031282
v 0.004990 -0.004000 0.031370
v 0.004960 -0.004000 0.031386
v 0.004729 -0.004000 0.031422
v 0.004762 -0.004000 0.031425
v 0.004796 -0.004000 0.031426
v 0.004695 -0.004000 0.031415
v 0.004663 -0.004000 0.031406
v 0.004631 -0.004000 0.031394
v 0.004600 -0.004000 0.031380
v 0.004571 -0.004000 0.031363
v 0.004543 -0.004000 0.031343
v 0.004517 -0.004000 0.031321
v 0.004493 -0.004000 0.031297
v 0.002058 -0.004000 0.031908
v 0.002027 -0.004000 0.031920
v 0.001994 -0.004000 0.031929
v 0.001760 -0.004000 0.031917
v 0.001729 -0.004000 0.031904
v 0.001643 -0.004000 0.031850
v 0.001618 -0.004000 0.031827
v 0.001594 -0.004000 0.031802
v -0.001377 -0.004000 0.030992
v -0.001379 -0.004000 0.030958
v -0.001269 -0.004000 0.031235
v -0.001244 -0.004000 0.031259
v -0.005496 -0.004000 0.026782
v -0.005478 -0.004000 0.026753
v -0.006053 -0.004000 0.023781
v -0.006023 -0.004000 0.023765
v -0.006081 -0.004000 0.023799
v -0.006108 -0.004000 0.023819
v -0.004400 -0.004000 0.018484
v -0.004391 -0.004000 0.018844
v -0.004406 -0.004000 0.018813
v -0.004434 -0.004000 0.018716
v -0.004438 -0.004000 0.018682
v -0.004438 -0.004000 0.018648
v -0.004413 -0.004000 0.018515
v 0.000168 -0.004000 -0.000772
v -0.001544 -0.004000 -0.001601
v 0.000267 -0.004000 -0.000927
v -0.001369 -0.004000 -0.001899
v 0.000378 -0.004000 -0.001072
v -0.001168 -0.004000 -0.002181
v 0.000502 -0.004000 -0.001207
v -0.000944 -0.004000 -0.002445
v 0.000637 -0.004000 -0.001331
v -0.000697 -0.004000 -0.002688
v 0.000782 -0.004000 -0.001443
v -0.000431 -0.004000 -0.002909
v 0.000937 -0.004000 -0.001541
v -0.000147 -0.004000 -0.003106
v 0.001099 -0.004000 -0.001626
v 0.000154 -0.004000 -0.003278
v 0.001269 -0.004000 -0.001696
v 0.000468 -0.004000 -0.003423
v 0.001443 -0.004000 -0.001751
v 0.000794 -0.004000 -0.003540
v 0.001622 -0.004000 -0.001791
v 0.001128 -0.004000 -0.003629
v 0.001804 -0.004000 -0.001814
v 0.000378 -0.004000 0.001627
v 0.000502 -0.004000 0.001763
v 0.008503 -0.004000 0.018662
v 0.008513 -0.004000 0.018695
v 0.008524 -0.004000 0.018761
v 0.008525 -0.004000 0.018795
v 0.008524 -0.004000 0.018829
v -0.003574 -0.004000 0.029741
v -0.003541 -0.004000 0.029751
v -0.003508 -0.004000 0.029758
v -0.003605 -0.004000 0.029728
v -0.003636 -0.004000 0.029713
v -0.003664 -0.004000 0.029695
v 0.002874 -0.004000 0.025593
v 0.003037 -0.004000 0.025508
v 0.003191 -0.004000 0.025410
v 0.003707 -0.004000 0.024894
v 0.003806 -0.004000 0.024740
v 0.003890 -0.004000 0.024577
v 0.003960 -0.004000 0.022971
v 0.003890 -0.004000 0.022802
v 0.010191 -0.004000 0.024170
v 0.010201 -0.004000 0.024202
v 0.010193 -0.004000 0.024436
v 0.009081 -0.004000 0.027534
v 0.009047 -0.004000 0.027536
v 0.007440 -0.004000 0.029854
v 0.007408 -0.004000 0.029866
v 0.007111 -0.004000 0.029846
v 0.007081 -0.004000 0.029830
v 0.005707 -0.004000 0.029020
v 0.005398 -0.004000 0.029223
v 0.004864 -0.004000 0.031418
v 0.004830 -0.004000 0.031423
v 0.002171 -0.004000 0.031833
v 0.002145 -0.004000 0.031855
v 0.001961 -0.004000 0.031936
v 0.001927 -0.004000 0.031940
v 0.001573 -0.004000 0.031775
v 0.001555 -0.004000 0.031747
v 0.001538 -0.004000 0.031717
v -0.000998 -0.004000 0.031360
v -0.001032 -0.004000 0.031357
v -0.001190 -0.004000 0.031300
v -0.001218 -0.004000 0.031281
v -0.001344 -0.004000 0.031123
v -0.001356 -0.004000 0.031092
v -0.005543 -0.004000 0.027012
v -0.005539 -0.004000 0.027045
v -0.005531 -0.004000 0.027078
v -0.005545 -0.004000 0.026978
v -0.005544 -0.004000 0.026944
v -0.004418 -0.004000 0.018782
v -0.004427 -0.004000 0.018749
v 0.002530 -0.004000 0.002306
v 0.002705 -0.004000 0.002251
v 0.002874 -0.004000 0.002181
v -0.003245 -0.004000 0.029713
v -0.003276 -0.004000 0.029728
v -0.003307 -0.004000 0.029741
v -0.003407 -0.004000 0.029762
v -0.003440 -0.004000 0.029764
v -0.003474 -0.004000 0.029762
v 0.009432 -0.004000 0.027047
v 0.009442 -0.004000 0.027148
v 0.009440 -0.004000 0.027182
v 0.009434 -0.004000 0.027216
v 0.009402 -0.004000 0.027312
v 0.009385 -0.004000 0.027342
v 0.009367 -0.004000 0.027370
v 0.009346 -0.004000 0.027397
v 0.007659 -0.004000 0.029346
v 0.007554 -0.004000 0.029781
v 0.007528 -0.004000 0.029803
v 0.005186 -0.004000 0.031033
v 0.005114 -0.004000 0.031256
v 0.005132 -0.004000 0.031227
v 0.005148 -0.004000 0.031197
v 0.002118 -0.004000 0.031875
v 0.002089 -0.004000 0.031893
v 0.001525 -0.004000 0.031686
v 0.001514 -0.004000 0.031654
v 0.001064 -0.004000 0.030124
v -0.001329 -0.004000 0.031153
v -0.001291 -0.004000 0.031210
v -0.001311 -0.004000 0.031182
v -0.001366 -0.004000 0.031059
v -0.001373 -0.004000 0.031026
v 0.008519 -0.004000 0.018863
v -0.003340 -0.004000 0.029751
v -0.003373 -0.004000 0.029758
v -0.003692 -0.004000 0.029675
v -0.003717 -0.004000 0.029653
v -0.003741 -0.004000 0.029628
v -0.003823 -0.004000 0.029247
v -0.003781 -0.004000 0.029574
v -0.003832 -0.004000 0.029280
v -0.003838 -0.004000 0.029313
v -0.003762 -0.004000 0.029602
v -0.003812 -0.004000 0.029215
v 0.003960 -0.004000 0.024408
v 0.004015 -0.004000 0.024233
v 0.009426 -0.004000 0.027249
v 0.009415 -0.004000 0.027281
v 0.007664 -0.004000 0.029612
v 0.007652 -0.004000 0.029644
v 0.007578 -0.004000 0.029757
v 0.005172 -0.004000 0.031133
v 0.005161 -0.004000 0.031166
v 0.002267 -0.004000 0.031695
v 0.002253 -0.004000 0.031725
v 0.002195 -0.004000 0.031809
v 0.002236 -0.004000 0.031755
v 0.002216 -0.004000 0.031783
v -0.001592 -0.004000 0.002064
v -0.001733 -0.004000 0.001748
v -0.000042 -0.004000 -0.000266
v -0.001986 -0.004000 0.000744
v -0.002011 -0.004000 0.000399
v -0.002007 -0.004000 0.000053
v -0.001972 -0.004000 -0.000291
v 0.000014 -0.004000 -0.000441
v -0.001908 -0.004000 -0.000632
v 0.001469 -0.004000 -0.003689
v 0.001814 -0.004000 -0.003719
v 0.001987 -0.004000 -0.001822
v 0.002160 -0.004000 -0.003719
v 0.002170 -0.004000 -0.001814
v 0.002505 -0.004000 -0.003689
v 0.002352 -0.004000 -0.001791
v 0.002846 -0.004000 -0.003629
v 0.002530 -0.004000 -0.001751
v 0.003180 -0.004000 -0.003540
v 0.002705 -0.004000 -0.001696
v 0.003506 -0.004000 -0.003423
v 0.002874 -0.004000 -0.001626
v 0.003820 -0.004000 -0.003278
v 0.003037 -0.004000 -0.001541
v 0.004120 -0.004000 -0.003106
v 0.003191 -0.004000 -0.001443
v 0.004405 -0.004000 -0.002909
v 0.003337 -0.004000 -0.001331
v 0.004671 -0.004000 -0.002688
v 0.003472 -0.004000 -0.001207
v 0.004918 -0.004000 -0.002445
v 0.003596 -0.004000 -0.001072
v 0.005142 -0.004000 -0.002181
v 0.003707 -0.004000 -0.000927
v 0.005343 -0.004000 -0.001899
v 0.003806 -0.004000 -0.000772
v 0.005518 -0.004000 -0.001601
v 0.003890 -0.004000 -0.000610
v 0.005667 -0.004000 -0.001289
v 0.003960 -0.004000 -0.000441
v 0.005789 -0.004000 -0.000965
v 0.004015 -0.004000 -0.000266
v 0.005882 -0.004000 -0.000632
v 0.004055 -0.004000 -0.000087
v 0.005946 -0.004000 -0.000291
v 0.004079 -0.004000 0.000095
v 0.005981 -0.004000 0.000053
v 0.004087 -0.004000 0.000278
v 0.005985 -0.004000 0.000399
v 0.004079 -0.004000 0.000461
v 0.005960 -0.004000 0.000744
v 0.004055 -0.004000 0.000642
v 0.005904 -0.004000 0.001086
v 0.004015 -0.004000 0.000821
v 0.005820 -0.004000 0.001421
v 0.003960 -0.004000 0.000996
v 0.005707 -0.004000 0.001748
v 0.003890 -0.004000 0.001165
v 0.005566 -0.004000 0.002064
v 0.003806 -0.004000 0.001328
v 0.005398 -0.004000 0.002367
v 0.003707 -0.004000 0.001482
v 0.005204 -0.004000 0.002654
v 0.003596 -0.004000 0.001627
v 0.003472 -0.004000 0.001763
v -0.003832 -0.004000 0.029448
v -0.003838 -0.004000 0.029415
v 0.007673 -0.004000 0.029579
v -0.001424 -0.004000 0.002367
v -0.003823 -0.004000 0.029481
v -0.003798 -0.004000 0.029544
v -0.003812 -0.004000 0.029513
v -0.003840 -0.004000 0.029381
v -0.003840 -0.004000 0.029347
v 0.007669 -0.004000 0.029378
v 0.007677 -0.004000 0.029411
v 0.007682 -0.004000 0.029444
v 0.007637 -0.004000 0.029674
v 0.007620 -0.004000 0.029703
v 0.007600 -0.004000 0.029731
v -0.001231 -0.004000 0.002654
v -0.001846 -0.004000 0.001421
v -0.001931 -0.004000 0.001086
v 0.007684 -0.004000 0.029478
v 0.007683 -0.004000 0.029512
v 0.007680 -0.004000 0.029546
v -0.000669 0.000000 0.031213
v -0.000691 0.000000 0.031239
v -0.000716 0.000000 0.031262
v -0.000743 0.000000 0.031283
v -0.000771 0.000000 0.031302
v -0.000801 0.000000 0.031318
v -0.000832 0.000000 0.031332
v -0.000864 0.000000 0.031343
v -0.000896 0.000000 0.031352
v -0.000930 0.000000 0.031357
v -0.000964 0.000000 0.031360
v -0.000998 0.000000 0.031360
v -0.001032 0.000000 0.031357
v -0.001065 0.000000 0.031351
v -0.001098 0.000000 0.031342
v -0.001130 0.000000 0.031331
v -0.001161 0.000000 0.031316
v -0.001190 0.000000 0.031300
v -0.001218 0.000000 0.031281
v -0.001244 0.000000 0.031259
v -0.001269 0.000000 0.031235
v -0.001291 0.000000 0.031210
v -0.001311 0.000000 0.031182
v -0.001329 0.000000 0.031153
v -0.001344 0.000000 0.031123
v -0.001356 0.000000 0.031092
v -0.001366 0.000000 0.031059
v -0.001373 0.000000 0.031026
v -0.001377 0.000000 0.030992
v -0.001379 0.000000 0.030958
v -0.001377 0.000000 0.030924
v 0.000340 0.000000 0.029978
v 0.001064 0.000000 0.030124
v 0.000700 0.000000 0.030061
v 0.001514 0.000000 0.031654
v 0.002279 0.000000 0.031663
v 0.002267 0.000000 0.031695
v 0.002253 0.000000 0.031725
v 0.002236 0.000000 0.031755
v 0.002216 0.000000 0.031783
v 0.002195 0.000000 0.031809
v 0.002171 0.000000 0.031833
v 0.002145 0.000000 0.031855
v 0.002118 0.000000 0.031875
v 0.002089 0.000000 0.031893
v 0.002058 0.000000 0.031908
v 0.002027 0.000000 0.031920
v 0.001994 0.000000 0.031929
v 0.001961 0.000000 0.031936
v 0.001927 0.000000 0.031940
v 0.001893 0.000000 0.031941
v 0.001859 0.000000 0.031939
v 0.001826 0.000000 0.031935
v 0.001792 0.000000 0.031927
v 0.001760 0.000000 0.031917
v 0.001729 0.000000 0.031904
v 0.001699 0.000000 0.031888
v 0.001670 0.000000 0.031870
v 0.001643 0.000000 0.031850
v 0.001618 0.000000 0.031827
v 0.001594 0.000000 0.031802
v 0.001573 0.000000 0.031775
v 0.001555 0.000000 0.031747
v 0.001538 0.000000 0.031717
v 0.001525 0.000000 0.031686
v 0.002764 0.000000 0.030143
v 0.003490 0.000000 0.030013
v 0.003129 0.000000 0.030089
v 0.004471 0.000000 0.031272
v 0.005185 0.000000 0.030999
v 0.005186 0.000000 0.031033
v 0.005184 0.000000 0.031067
v 0.005179 0.000000 0.031100
v 0.005172 0.000000 0.031133
v 0.005161 0.000000 0.031166
v 0.005148 0.000000 0.031197
v 0.005132 0.000000 0.031227
v 0.005114 0.000000 0.031256
v 0.005093 0.000000 0.031282
v 0.005070 0.000000 0.031308
v 0.005045 0.000000 0.031331
v 0.005019 0.000000 0.031351
v 0.004990 0.000000 0.031370
v 0.004960 0.000000 0.031386
v 0.004929 0.000000 0.031399
v 0.004897 0.000000 0.031410
v 0.004864 0.000000 0.031418
v 0.004830 0.000000 0.031423
v 0.004796 0.000000 0.031426
v 0.004762 0.000000 0.031425
v 0.004729 0.000000 0.031422
v 0.004695 0.000000 0.031415
v 0.004663 0.000000 0.031406
v 0.004631 0.000000 0.031394
v 0.004600 0.000000 0.031380
v 0.004571 0.000000 0.031363
v 0.004543 0.000000 0.031343
v 0.004517 0.000000 0.031321
v 0.004493 0.000000 0.031297
v 0.005079 0.000000 0.029407
v 0.005707 0.000000 0.029020
v 0.005398 0.000000 0.029223
v 0.007081 0.000000 0.029830
v 0.007646 0.000000 0.029314
v 0.007659 0.000000 0.029346
v 0.007669 0.000000 0.029378
v 0.007677 0.000000 0.029411
v 0.007682 0.000000 0.029444
v 0.007684 0.000000 0.029478
v 0.007683 0.000000 0.029512
v 0.007680 0.000000 0.029546
v 0.007673 0.000000 0.029579
v 0.007664 0.000000 0.029612
v 0.007652 0.000000 0.029644
v 0.007637 0.000000 0.029674
v 0.007620 0.000000 0.029703
v 0.007600 0.000000 0.029731
v 0.007578 0.000000 0.029757
v 0.007554 0.000000 0.029781
v 0.007528 0.000000 0.029803
v 0.007500 0.000000 0.029822
v 0.007471 0.000000 0.029839
v 0.007440 0.000000 0.029854
v 0.007408 0.000000 0.029866
v 0.007376 0.000000 0.029875
v 0.007342 0.000000 0.029881
v 0.007309 0.000000 0.029885
v 0.007275 0.000000 0.029886
v 0.007241 0.000000 0.029883
v 0.007207 0.000000 0.029878
v 0.007174 0.000000 0.029870
v 0.007142 0.000000 0.029860
v 0.007111 0.000000 0.029846
v 0.006962 0.000000 0.027873
v 0.007404 0.000000 0.027282
v 0.007191 0.000000 0.027584
v 0.008980 0.000000 0.027531
v 0.009315 0.000000 0.026844
v 0.009339 0.000000 0.026868
v 0.009361 0.000000 0.026894
v 0.009380 0.000000 0.026922
v 0.009397 0.000000 0.026952
v 0.009411 0.000000 0.026982
v 0.009423 0.000000 0.027014
v 0.009432 0.000000 0.027047
v 0.009438 0.000000 0.027080
v 0.009442 0.000000 0.027114
v 0.009442 0.000000 0.027148
v 0.009440 0.000000 0.027182
v 0.009434 0.000000 0.027216
v 0.009426 0.000000 0.027249
v 0.009415 0.000000 0.027281
v 0.009402 0.000000 0.027312
v 0.009385 0.000000 0.027342
v 0.009367 0.000000 0.027370
v 0.009346 0.000000 0.027397
v 0.009323 0.000000 0.027421
v 0.009297 0.000000 0.027444
v 0.009270 0.000000 0.027465
v 0.009242 0.000000 0.027483
v 0.009212 0.000000 0.027499
v 0.009180 0.000000 0.027512
v 0.009148 0.000000 0.027522
v 0.009115 0.000000 0.027530
v 0.009081 0.000000 0.027534
v 0.009047 0.000000 0.027536
v 0.009013 0.000000 0.027535
v 0.008150 0.000000 0.025754
v 0.001987 0.000000 -0.001822
v 0.002170 0.000000 -0.001814
v 0.002352 0.000000 -0.001791
v 0.002530 0.000000 -0.001751
v 0.002705 0.000000 -0.001696
v 0.002874 0.000000 -0.001626
v 0.003037 0.000000 -0.001541
v 0.003191 0.000000 -0.001443
v 0.003337 0.000000 -0.001331
v 0.003472 0.000000 -0.001207
v 0.003596 0.000000 -0.001072
v 0.003707 0.000000 -0.000927
v 0.003806 0.000000 -0.000772
v 0.003890 0.000000 -0.000610
v 0.003960 0.000000 -0.000441
v 0.004015 0.000000 -0.000266
v 0.004055 0.000000 -0.000087
v 0.004079 0.000000 0.000095
v 0.004087 0.000000 0.000278
v 0.004079 0.000000 0.000461
v 0.004055 0.000000 0.000642
v 0.004015 0.000000 0.000821
v 0.003960 0.000000 0.000996
v 0.003890 0.000000 0.001165
v 0.003806 0.000000 0.001328
v 0.003707 0.000000 0.001482
v 0.003596 0.000000 0.001627
v 0.003472 0.000000 0.001763
v 0.003337 0.000000 0.001886
v 0.003191 0.000000 0.001998
v 0.003037 0.000000 0.002096
v 0.002874 0.000000 0.002181
v 0.002705 0.000000 0.002251
v 0.002530 0.000000 0.002306
v 0.002352 0.000000 0.002346
v 0.002170 0.000000 0.002370
v 0.001987 0.000000 0.002378
v 0.001804 0.000000 0.002370
v 0.001622 0.000000 0.002346
v 0.001443 0.000000 0.002306
v 0.001269 0.000000 0.002251
v 0.001099 0.000000 0.002181
v 0.000937 0.000000 0.002096
v 0.000782 0.000000 0.001998
v 0.000637 0.000000 0.001886
v 0.000502 0.000000 0.001763
v 0.000378 0.000000 0.001627
v 0.000267 0.000000 0.001482
v 0.000168 0.000000 0.001328
v 0.000084 0.000000 0.001165
v 0.000014 0.000000 0.000996
v -0.000042 0.000000 0.000821
v -0.000081 0.000000 0.000642
v -0.000105 0.000000 0.000461
v -0.000113 0.000000 0.000278
v -0.000105 0.000000 0.000095
v -0.000081 0.000000 -0.000087
v -0.000042 0.000000 -0.000266
v 0.000014 0.000000 -0.000441
v 0.000084 0.000000 -0.000610
v 0.000168 0.000000 -0.000772
v 0.000267 0.000000 -0.000927
v 0.000378 0.000000 -0.001072
v 0.000502 0.000000 -0.001207
v 0.000637 0.000000 -0.001331
v 0.000782 0.000000 -0.001443
v 0.000937 0.000000 -0.001541
v 0.001099 0.000000 -0.001626
v 0.001269 0.000000 -0.001696
v 0.001443 0.000000 -0.001751
v 0.001622 0.000000 -0.001791
v 0.001804 0.000000 -0.001814
v 0.008345 0.000000 0.025042
v 0.008258 0.000000 0.025401
v 0.009902 0.000000 0.024696
v -0.005698 0.000000 0.021545
v -0.005725 0.000000 0.021524
v -0.005750 0.000000 0.021501
v -0.005773 0.000000 0.021476
v -0.005793 0.000000 0.021449
v -0.005812 0.000000 0.021420
v -0.005827 0.000000 0.021390
v -0.005841 0.000000 0.021359
v -0.005851 0.000000 0.021327
v -0.005859 0.000000 0.021294
v -0.005864 0.000000 0.021260
v -0.005866 0.000000 0.021226
v -0.005865 0.000000 0.021192
v -0.005862 0.000000 0.021158
v -0.005855 0.000000 0.021125
v -0.005846 0.000000 0.021093
v -0.005834 0.000000 0.021061
v -0.005819 0.000000 0.021030
v -0.005802 0.000000 0.021001
v -0.005782 0.000000 0.020973
v -0.005760 0.000000 0.020947
v -0.005736 0.000000 0.020923
v -0.005710 0.000000 0.020902
v -0.005683 0.000000 0.020882
v -0.005653 0.000000 0.020865
v -0.005623 0.000000 0.020850
v -0.005591 0.000000 0.020838
v -0.005558 0.000000 0.020829
v -0.005525 0.000000 0.020823
v -0.005491 0.000000 0.020819
v -0.005457 0.000000 0.020819
v -0.003082 0.000000 0.027759
v -0.003305 0.000000 0.027464
v -0.003511 0.000000 0.027158
v -0.004397 0.000000 0.022468
v -0.004495 0.000000 0.023200
v -0.004456 0.000000 0.022833
v -0.005949 0.000000 0.024516
v -0.004400 0.000000 0.024897
v -0.001234 0.000000 0.029336
v -0.001549 0.000000 0.029143
v -0.001853 0.000000 0.028934
v -0.005991 0.000000 0.023752
v -0.004222 0.000000 0.025614
v -0.004321 0.000000 0.025258
v -0.003862 0.000000 0.020855
v -0.005411 0.000000 0.026677
v -0.005091 0.000000 0.027371
v -0.005125 0.000000 0.027374
v -0.005159 0.000000 0.027375
v -0.005193 0.000000 0.027372
v -0.005226 0.000000 0.027366
v -0.005259 0.000000 0.027358
v -0.005291 0.000000 0.027347
v -0.005322 0.000000 0.027333
v -0.005352 0.000000 0.027317
v -0.005380 0.000000 0.027298
v -0.005407 0.000000 0.027277
v -0.005432 0.000000 0.027254
v -0.005454 0.000000 0.027228
v -0.005475 0.000000 0.027201
v -0.005493 0.000000 0.027172
v -0.005508 0.000000 0.027142
v -0.005521 0.000000 0.027111
v -0.005531 0.000000 0.027078
v -0.005539 0.000000 0.027045
v -0.005543 0.000000 0.027012
v -0.005545 0.000000 0.026978
v -0.005544 0.000000 0.026944
v -0.005540 0.000000 0.026910
v -0.005533 0.000000 0.026877
v -0.005523 0.000000 0.026844
v -0.005511 0.000000 0.026813
v -0.005496 0.000000 0.026782
v -0.005478 0.000000 0.026753
v -0.005458 0.000000 0.026726
v -0.005436 0.000000 0.026700
v -0.003245 0.000000 0.029713
v 0.001987 0.000000 0.021590
v 0.002170 0.000000 0.021598
v 0.002352 0.000000 0.021622
v 0.002530 0.000000 0.021661
v 0.002705 0.000000 0.021716
v 0.002874 0.000000 0.021786
v 0.003037 0.000000 0.021871
v 0.003191 0.000000 0.021969
v 0.003337 0.000000 0.022081
v 0.003472 0.000000 0.022205
v 0.003596 0.000000 0.022340
v 0.003707 0.000000 0.022485
v 0.003806 0.000000 0.022640
v 0.003890 0.000000 0.022802
v 0.003960 0.000000 0.022971
v 0.004015 0.000000 0.023146
v 0.004055 0.000000 0.023325
v 0.004079 0.000000 0.023507
v 0.004087 0.000000 0.023690
v 0.004079 0.000000 0.023873
v 0.004055 0.000000 0.024054
v 0.004015 0.000000 0.024233
v 0.003960 0.000000 0.024408
v 0.003890 0.000000 0.024577
v 0.003806 0.000000 0.024740
v 0.003707 0.000000 0.024894
v 0.003596 0.000000 0.025039
v 0.003472 0.000000 0.025175
v 0.003337 0.000000 0.025298
v 0.003191 0.000000 0.025410
v 0.003037 0.000000 0.025508
v 0.002874 0.000000 0.025593
v 0.002705 0.000000 0.025663
v 0.002530 0.000000 0.025718
v 0.002352 0.000000 0.025758
v 0.002170 0.000000 0.025782
v 0.001987 0.000000 0.025790
v 0.001804 0.000000 0.025782
v 0.001622 0.000000 0.025758
v 0.001443 0.000000 0.025718
v 0.001269 0.000000 0.025663
v 0.001099 0.000000 0.025593
v 0.000937 0.000000 0.025508
v 0.000782 0.000000 0.025410
v 0.000637 0.000000 0.025298
v 0.000502 0.000000 0.025175
v 0.000378 0.000000 0.025039
v 0.000267 0.000000 0.024894
v 0.000168 0.000000 0.024740
v 0.000084 0.000000 0.024577
v 0.000014 0.000000 0.024408
v -0.000042 0.000000 0.024233
v -0.000081 0.000000 0.024054
v -0.000105 0.000000 0.023873
v -0.000113 0.000000 0.023690
v -0.000105 0.000000 0.023507
v -0.000081 0.000000 0.023325
v -0.000042 0.000000 0.023146
v 0.000014 0.000000 0.022971
v 0.000084 0.000000 0.022802
v 0.000168 0.000000 0.022640
v 0.000267 0.000000 0.022485
v 0.000378 0.000000 0.022340
v 0.000502 0.000000 0.022205
v 0.000637 0.000000 0.022081
v 0.000782 0.000000 0.021969
v 0.000937 0.000000 0.021871
v 0.001099 0.000000 0.021786
v 0.001269 0.000000 0.021716
v 0.001443 0.000000 0.021661
v 0.001622 0.000000 0.021622
v 0.001804 0.000000 0.021598
v 0.008397 0.000000 0.022614
v 0.008448 0.000000 0.022980
v 0.008478 0.000000 0.023348
v -0.003276 0.000000 0.029728
v -0.003307 0.000000 0.029741
v -0.003340 0.000000 0.029751
v -0.003373 0.000000 0.029758
v -0.003407 0.000000 0.029762
v -0.003440 0.000000 0.029764
v -0.003474 0.000000 0.029762
v -0.003508 0.000000 0.029758
v -0.003541 0.000000 0.029751
v -0.003574 0.000000 0.029741
v -0.003605 0.000000 0.029728
v -0.003636 0.000000 0.029713
v -0.003664 0.000000 0.029695
v -0.003692 0.000000 0.029675
v -0.003717 0.000000 0.029653
v -0.003741 0.000000 0.029628
v -0.003762 0.000000 0.029602
v -0.003781 0.000000 0.029574
v -0.003798 0.000000 0.029544
v -0.003812 0.000000 0.029513
v -0.003823 0.000000 0.029481
v -0.003832 0.000000 0.029448
v -0.003838 0.000000 0.029415
v -0.003840 0.000000 0.029381
v -0.003840 0.000000 0.029347
v -0.003838 0.000000 0.029313
v -0.003832 0.000000 0.029280
v -0.003823 0.000000 0.029247
v -0.003812 0.000000 0.029215
v -0.003798 0.000000 0.029184
v -0.005981 0.000000 0.024506
v -0.006013 0.000000 0.024494
v -0.006044 0.000000 0.024479
v -0.006073 0.000000 0.024462
v -0.006100 0.000000 0.024442
v -0.006126 0.000000 0.024420
v -0.006150 0.000000 0.024395
v -0.006171 0.000000 0.024369
v -0.006191 0.000000 0.024341
v -0.006208 0.000000 0.024312
v -0.006222 0.000000 0.024281
v -0.006234 0.000000 0.024249
v -0.006243 0.000000 0.024217
v -0.006249 0.000000 0.024183
v -0.006252 0.000000 0.024149
v -0.006253 0.000000 0.024116
v -0.006250 0.000000 0.024082
v -0.006245 0.000000 0.024048
v -0.006237 0.000000 0.024015
v -0.006226 0.000000 0.023983
v -0.006213 0.000000 0.023952
v -0.006196 0.000000 0.023922
v -0.006178 0.000000 0.023894
v -0.006157 0.000000 0.023867
v -0.006134 0.000000 0.023842
v -0.006108 0.000000 0.023819
v -0.006081 0.000000 0.023799
v -0.006053 0.000000 0.023781
v -0.006023 0.000000 0.023765
v 0.005392 0.000000 0.018153
v -0.001387 0.000000 0.018134
v -0.001746 0.000000 0.018368
v -0.003503 0.000000 0.020210
v -0.003948 0.000000 0.018265
v -0.003981 0.000000 0.018259
v -0.004374 0.000000 0.018873
v -0.003915 0.000000 0.018274
v -0.001013 0.000000 0.017923
v -0.003692 0.000000 0.020527
v 0.007736 0.000000 0.020657
v 0.007555 0.000000 0.020336
v 0.005780 0.000000 0.018411
v 0.006148 0.000000 0.018696
v -0.002088 0.000000 0.018626
v -0.002413 0.000000 0.018905
v -0.003883 0.000000 0.018286
v -0.004015 0.000000 0.018255
v -0.004049 0.000000 0.018255
v -0.004083 0.000000 0.018257
v 0.009962 0.000000 0.023933
v 0.009935 0.000000 0.024687
v 0.004987 0.000000 0.017923
v 0.009528 0.000000 0.020990
v 0.009894 0.000000 0.021405
v 0.009894 0.000000 0.021371
v -0.004116 0.000000 0.018262
v -0.004149 0.000000 0.018270
v -0.004181 0.000000 0.018281
v -0.004438 0.000000 0.018682
v -0.004434 0.000000 0.018716
v -0.004400 0.000000 0.018484
v 0.009891 0.000000 0.021338
v 0.009885 0.000000 0.021304
v 0.009562 0.000000 0.020994
v 0.009771 0.000000 0.021100
v 0.009746 0.000000 0.021077
v 0.008145 0.000000 0.018394
v 0.008111 0.000000 0.018393
v 0.008455 0.000000 0.019019
v 0.008077 0.000000 0.018396
v 0.008043 0.000000 0.018402
v 0.008011 0.000000 0.018410
v 0.007978 0.000000 0.018421
v 0.006495 0.000000 0.019007
v -0.004213 0.000000 0.018295
v -0.004243 0.000000 0.018311
v -0.004271 0.000000 0.018329
v -0.004345 0.000000 0.018398
v -0.004366 0.000000 0.018425
v -0.004424 0.000000 0.018547
v -0.004432 0.000000 0.018580
v -0.004436 0.000000 0.018614
v 0.009966 0.000000 0.024676
v 0.009997 0.000000 0.024661
v 0.010027 0.000000 0.024645
v 0.010105 0.000000 0.024580
v 0.010128 0.000000 0.024555
v 0.010145 0.000000 0.024079
v 0.009835 0.000000 0.021598
v 0.009852 0.000000 0.021568
v 0.009865 0.000000 0.021538
v 0.009877 0.000000 0.021506
v 0.009877 0.000000 0.021271
v 0.009865 0.000000 0.021239
v 0.009851 0.000000 0.021208
v 0.009835 0.000000 0.021179
v 0.009718 0.000000 0.021057
v 0.009689 0.000000 0.021039
v 0.009659 0.000000 0.021024
v 0.008473 0.000000 0.018990
v 0.008489 0.000000 0.018960
v 0.008520 0.000000 0.018728
v 0.008502 0.000000 0.018928
v 0.008503 0.000000 0.018662
v 0.008491 0.000000 0.018630
v 0.008476 0.000000 0.018600
v 0.008458 0.000000 0.018571
v 0.008337 0.000000 0.018454
v 0.008365 0.000000 0.018473
v 0.008391 0.000000 0.018494
v 0.008307 0.000000 0.018437
v 0.008277 0.000000 0.018423
v 0.008245 0.000000 0.018411
v 0.008212 0.000000 0.018403
v 0.008178 0.000000 0.018397
v -0.004298 0.000000 0.018350
v -0.004323 0.000000 0.018373
v -0.004413 0.000000 0.018515
v 0.004987 0.000000 0.002923
v -0.001013 0.000000 0.002923
v 0.010148 0.000000 0.024527
v 0.010165 0.000000 0.024498
v 0.010163 0.000000 0.024108
v 0.010081 0.000000 0.024604
v 0.010124 0.000000 0.024052
v 0.010102 0.000000 0.024027
v 0.010077 0.000000 0.024003
v 0.010051 0.000000 0.023982
v 0.010022 0.000000 0.023963
v 0.010055 0.000000 0.024625
v 0.009993 0.000000 0.023947
v 0.007899 0.000000 0.020988
v 0.009494 0.000000 0.020989
v 0.009718 0.000000 0.021720
v 0.009746 0.000000 0.021700
v 0.009771 0.000000 0.021677
v 0.009816 0.000000 0.021151
v 0.009795 0.000000 0.021124
v 0.009628 0.000000 0.021011
v 0.009595 0.000000 0.021001
v 0.008513 0.000000 0.018695
v 0.008438 0.000000 0.018544
v 0.008416 0.000000 0.018518
v -0.004438 0.000000 0.018648
v -0.004427 0.000000 0.018749
v -0.004418 0.000000 0.018782
v -0.004406 0.000000 0.018813
v -0.004384 0.000000 0.018454
v -0.004391 0.000000 0.018844
v 0.009795 0.000000 0.021653
v 0.009816 0.000000 0.021626
v 0.009885 0.000000 0.021473
v 0.009891 0.000000 0.021439
v 0.008524 0.000000 0.018829
v 0.008524 0.000000 0.018761
v 0.008525 0.000000 0.018795
v 0.010203 0.000000 0.024404
v 0.010210 0.000000 0.024370
v 0.010214 0.000000 0.024337
v 0.010180 0.000000 0.024468
v 0.010213 0.000000 0.024269
v 0.010209 0.000000 0.024235
v 0.010201 0.000000 0.024202
v 0.008512 0.000000 0.018896
v 0.008519 0.000000 0.018863
v 0.010193 0.000000 0.024436
v 0.010215 0.000000 0.024303
v 0.010191 0.000000 0.024170
v 0.010178 0.000000 0.024138
v 0.001814 0.000000 -0.003719
v 0.001469 0.000000 -0.003689
v 0.001128 0.000000 -0.003629
v 0.000794 0.000000 -0.003540
v 0.000468 0.000000 -0.003423
v 0.000154 0.000000 -0.003278
v -0.000147 0.000000 -0.003106
v -0.000431 0.000000 -0.002909
v -0.000697 0.000000 -0.002688
v -0.000944 0.000000 -0.002445
v -0.001168 0.000000 -0.002181
v -0.001369 0.000000 -0.001899
v -0.001544 0.000000 -0.001601
v -0.001694 0.000000 -0.001289
v -0.001815 0.000000 -0.000965
v -0.001908 0.000000 -0.000632
v -0.001972 0.000000 -0.000291
v -0.002007 0.000000 0.000053
v -0.002011 0.000000 0.000399
v -0.001986 0.000000 0.000744
v -0.001931 0.000000 0.001086
v -0.001846 0.000000 0.001421
v -0.001733 0.000000 0.001748
v -0.001592 0.000000 0.002064
v -0.001424 0.000000 0.002367
v -0.001231 0.000000 0.002654
v 0.005204 0.000000 0.002654
v 0.005398 0.000000 0.002367
v 0.005566 0.000000 0.002064
v 0.005707 0.000000 0.001748
v 0.005820 0.000000 0.001421
v 0.005904 0.000000 0.001086
v 0.005960 0.000000 0.000744
v 0.005985 0.000000 0.000399
v 0.005981 0.000000 0.000053
v 0.005946 0.000000 -0.000291
v 0.005882 0.000000 -0.000632
v 0.005789 0.000000 -0.000965
v 0.005667 0.000000 -0.001289
v 0.005518 0.000000 -0.001601
v 0.005343 0.000000 -0.001899
v 0.005142 0.000000 -0.002181
v 0.004918 0.000000 -0.002445
v 0.004671 0.000000 -0.002688
v 0.004405 0.000000 -0.002909
v 0.004120 0.000000 -0.003106
v 0.003820 0.000000 -0.003278
v 0.003506 0.000000 -0.003423
v 0.003180 0.000000 -0.003540
v 0.002846 0.000000 -0.003629
v 0.002505 0.000000 -0.003689
v 0.002160 0.000000 -0.003719
# 1294 vertices, 0 vertices normals

f 1 2 3
f 3 2 4
f 5 6 7
f 6 8 7
f 7 8 9
f 10 11 12
f 13 14 15
f 8 16 17
f 16 18 17
f 17 18 19
f 20 21 22
f 21 23 22
f 22 23 24
f 25 26 27
f 26 28 27
f 29 30 31
f 32 33 34
f 33 30 34
f 34 30 35
f 30 29 35
f 36 5 37
f 5 38 37
f 39 40 41
f 42 33 43
f 33 32 43
f 43 32 44
f 19 45 17
f 45 46 17
f 17 46 47
f 47 48 17
f 48 49 17
f 17 49 50
f 49 2 50
f 51 52 53
f 54 55 56
f 55 57 56
f 58 59 60
f 59 61 60
f 60 61 7
f 61 62 7
f 7 62 5
f 62 63 5
f 5 63 38
f 64 65 66
f 65 67 66
f 68 69 70
f 27 71 72
f 73 74 75
f 76 77 14
f 3 78 1
f 78 79 1
f 1 79 80
f 52 81 53
f 81 82 53
f 53 82 83
f 83 84 53
f 84 85 53
f 53 85 86
f 86 87 53
f 87 88 53
f 53 88 89
f 54 90 55
f 90 53 55
f 55 53 91
f 53 89 91
f 92 60 93
f 60 94 93
f 92 95 60
f 95 96 60
f 60 96 58
f 5 97 98
f 99 20 100
f 20 101 100
f 100 101 102
f 101 33 102
f 102 33 103
f 104 105 106
f 72 107 27
f 107 108 27
f 27 108 109
f 110 111 112
f 75 74 113
f 114 115 116
f 44 117 43
f 117 118 43
f 43 118 119
f 118 116 119
f 4 2 120
f 2 106 120
f 120 106 121
f 106 122 121
f 121 122 14
f 122 123 14
f 14 123 76
f 77 124 14
f 124 125 14
f 14 125 126
f 126 127 14
f 127 128 14
f 14 128 129
f 15 14 130
f 80 131 1
f 131 132 1
f 1 132 133
f 9 8 134
f 8 17 134
f 134 17 135
f 17 136 135
f 135 136 53
f 136 137 53
f 53 137 51
f 138 139 60
f 40 140 41
f 140 141 41
f 41 141 36
f 142 143 5
f 143 144 5
f 5 144 97
f 145 146 147
f 23 70 148
f 149 150 20
f 150 151 20
f 20 151 152
f 109 153 27
f 153 154 27
f 27 154 155
f 156 31 157
f 31 158 157
f 159 160 111
f 156 161 31
f 161 162 31
f 31 162 29
f 74 163 117
f 163 164 117
f 117 164 165
f 166 167 168
f 169 170 171
f 42 12 33
f 12 11 33
f 33 11 103
f 11 172 103
f 103 172 173
f 174 175 103
f 175 176 103
f 103 176 177
f 178 179 1
f 179 180 1
f 181 182 1
f 182 183 1
f 1 183 184
f 185 186 187
f 186 188 187
f 187 188 189
f 189 190 187
f 190 191 187
f 187 191 192
f 55 193 57
f 193 187 57
f 57 187 194
f 187 192 194
f 139 195 60
f 195 196 60
f 60 196 94
f 197 198 5
f 64 5 65
f 5 98 65
f 65 98 147
f 98 199 147
f 147 199 145
f 146 200 147
f 200 201 147
f 147 201 202
f 23 203 70
f 203 204 70
f 70 204 205
f 69 206 70
f 206 207 70
f 70 207 208
f 209 70 210
f 70 211 210
f 212 213 23
f 213 214 23
f 23 214 215
f 67 21 66
f 21 20 66
f 66 20 216
f 20 152 216
f 2 49 106
f 49 217 106
f 106 217 104
f 105 218 106
f 218 219 106
f 106 219 220
f 155 221 27
f 221 222 27
f 27 222 25
f 158 223 157
f 223 224 157
f 157 224 225
f 112 111 226
f 159 111 227
f 111 228 227
f 227 228 229
f 225 230 157
f 230 227 157
f 157 227 231
f 227 229 231
f 232 233 171
f 233 234 171
f 171 234 235
f 129 236 14
f 236 237 14
f 14 237 238
f 239 240 60
f 240 241 60
f 60 241 242
f 243 244 245
f 198 246 5
f 246 247 5
f 5 247 248
f 5 249 250
f 202 251 147
f 251 252 147
f 147 252 253
f 253 254 147
f 254 255 147
f 147 255 256
f 256 257 147
f 257 258 147
f 147 258 259
f 205 260 70
f 260 261 70
f 70 261 68
f 208 262 70
f 262 263 70
f 70 263 211
f 148 264 23
f 264 265 23
f 23 265 266
f 215 267 23
f 267 268 23
f 23 268 24
f 28 269 27
f 269 99 27
f 27 99 270
f 271 272 20
f 273 20 274
f 20 275 274
f 273 276 20
f 276 277 20
f 20 277 278
f 220 279 106
f 279 280 106
f 106 280 281
f 281 282 106
f 282 283 106
f 106 283 284
f 285 286 287
f 117 288 74
f 288 289 74
f 74 289 290
f 291 292 116
f 292 293 116
f 173 294 103
f 294 295 103
f 103 295 296
f 296 297 103
f 297 298 103
f 103 298 174
f 299 300 103
f 300 301 103
f 103 301 302
f 238 303 14
f 303 304 14
f 14 304 130
f 305 306 15
f 306 307 15
f 15 307 308
f 133 309 1
f 309 310 1
f 1 310 311
f 311 312 1
f 312 313 1
f 1 313 178
f 180 314 1
f 314 315 1
f 1 315 316
f 316 317 1
f 317 318 1
f 1 318 181
f 184 319 1
f 319 320 1
f 1 320 321
f 322 323 324
f 242 325 60
f 325 326 60
f 60 326 138
f 327 328 329
f 328 330 329
f 36 141 5
f 141 331 5
f 5 331 197
f 332 5 333
f 5 334 333
f 332 335 5
f 335 336 5
f 5 336 249
f 250 337 5
f 337 338 5
f 5 338 142
f 338 339 142
f 142 339 340
f 259 341 147
f 341 342 147
f 147 342 343
f 342 344 343
f 343 344 345
f 346 347 348
f 347 349 348
f 348 349 343
f 266 350 23
f 350 351 23
f 23 351 212
f 271 20 352
f 353 20 354
f 20 355 354
f 353 356 20
f 356 357 20
f 20 357 149
f 284 358 106
f 358 359 106
f 106 359 360
f 359 361 360
f 360 361 27
f 361 362 27
f 27 362 71
f 285 287 363
f 290 364 74
f 364 365 74
f 74 365 113
f 366 367 368
f 369 370 75
f 370 371 75
f 75 371 372
f 372 373 75
f 373 374 75
f 75 374 375
f 168 376 377
f 167 378 168
f 378 379 168
f 168 379 380
f 380 381 168
f 381 382 168
f 168 382 383
f 384 385 386
f 293 387 116
f 387 388 116
f 116 388 114
f 389 116 390
f 116 391 390
f 389 392 116
f 392 393 116
f 116 393 394
f 394 395 116
f 395 396 116
f 116 396 397
f 397 398 116
f 398 399 116
f 116 399 119
f 400 401 171
f 401 402 171
f 235 403 171
f 403 404 171
f 171 404 169
f 170 405 171
f 405 406 171
f 171 406 407
f 408 409 410
f 409 103 410
f 410 103 411
f 308 412 15
f 412 413 15
f 15 413 13
f 414 415 416
f 415 1 416
f 416 1 417
f 1 321 417
f 239 60 418
f 60 419 418
f 418 419 420
f 418 421 422
f 422 423 418
f 423 322 418
f 418 322 424
f 322 324 424
f 245 244 425
f 244 426 425
f 425 426 427
f 426 428 427
f 427 428 429
f 428 430 429
f 429 430 431
f 430 432 431
f 431 432 433
f 432 434 433
f 433 434 435
f 434 436 435
f 435 436 437
f 436 438 437
f 437 438 439
f 438 440 439
f 439 440 441
f 440 442 441
f 441 442 443
f 442 444 443
f 443 444 445
f 444 446 445
f 445 446 447
f 248 448 5
f 448 449 5
f 5 449 334
f 345 450 343
f 450 451 343
f 343 451 348
f 452 453 454
f 455 270 456
f 270 457 456
f 455 458 270
f 458 459 270
f 270 459 460
f 269 461 99
f 461 462 99
f 99 462 20
f 462 463 20
f 20 463 352
f 272 464 20
f 464 465 20
f 20 465 466
f 278 467 20
f 467 468 20
f 20 468 355
f 160 469 111
f 469 470 111
f 111 470 226
f 363 287 112
f 287 471 112
f 112 471 110
f 375 472 75
f 472 473 75
f 75 473 73
f 377 474 168
f 474 475 168
f 168 475 166
f 383 476 168
f 476 477 168
f 168 477 165
f 477 478 165
f 165 478 117
f 478 479 117
f 117 479 118
f 115 480 116
f 480 481 116
f 116 481 391
f 171 482 483
f 402 484 171
f 484 485 171
f 171 485 232
f 407 486 171
f 486 487 171
f 171 487 488
f 177 489 103
f 489 490 103
f 103 490 299
f 302 491 103
f 491 492 103
f 103 492 411
f 410 493 494
f 495 15 496
f 15 497 496
f 495 498 15
f 498 499 15
f 15 499 305
f 420 500 418
f 500 501 418
f 418 501 421
f 340 502 142
f 502 503 142
f 142 503 329
f 503 504 329
f 329 504 327
f 99 505 270
f 505 506 270
f 270 506 507
f 508 509 270
f 509 510 270
f 270 510 457
f 369 75 368
f 75 511 368
f 368 511 366
f 367 512 368
f 512 513 368
f 368 513 514
f 515 516 368
f 516 517 368
f 368 517 518
f 519 520 168
f 520 521 168
f 168 521 376
f 291 116 386
f 116 522 386
f 386 522 384
f 523 386 524
f 386 525 524
f 483 526 171
f 526 527 171
f 171 527 400
f 488 528 171
f 528 529 171
f 171 529 12
f 529 530 12
f 12 530 10
f 493 410 531
f 410 532 531
f 531 532 533
f 494 534 410
f 534 535 410
f 410 535 408
f 452 454 348
f 454 536 348
f 348 536 346
f 507 537 270
f 537 538 270
f 270 538 508
f 460 539 270
f 539 540 270
f 270 540 541
f 542 543 544
f 543 545 544
f 541 546 270
f 546 543 270
f 270 543 547
f 543 542 547
f 466 548 20
f 548 549 20
f 20 549 275
f 514 550 368
f 550 551 368
f 368 551 515
f 552 553 554
f 385 555 386
f 555 556 386
f 386 556 525
f 171 557 482
f 557 558 482
f 482 558 559
f 558 560 559
f 559 560 561
f 562 563 564
f 565 566 564
f 566 567 564
f 564 567 568
f 245 569 243
f 569 564 243
f 243 564 570
f 564 568 570
f 446 571 447
f 571 572 447
f 447 572 573
f 572 574 573
f 573 574 575
f 574 576 575
f 575 576 577
f 576 578 577
f 577 578 579
f 578 580 579
f 579 580 581
f 580 582 581
f 581 582 583
f 582 584 583
f 583 584 585
f 584 586 585
f 585 586 587
f 586 588 587
f 587 588 589
f 588 590 589
f 589 590 591
f 590 592 591
f 591 592 593
f 592 594 593
f 593 594 595
f 594 596 595
f 595 596 597
f 596 598 597
f 597 598 599
f 598 600 599
f 599 600 601
f 600 602 601
f 601 602 603
f 602 604 603
f 603 604 605
f 604 606 605
f 605 606 607
f 606 608 607
f 607 608 609
f 608 610 609
f 609 610 611
f 610 612 611
f 611 612 613
f 612 614 613
f 613 614 615
f 614 616 615
f 615 616 617
f 616 618 617
f 617 618 619
f 618 620 619
f 619 620 621
f 620 622 621
f 621 622 623
f 622 624 623
f 623 624 625
f 624 329 625
f 625 329 626
f 329 330 626
f 543 627 628
f 552 554 629
f 562 564 630
f 627 543 631
f 543 632 631
f 631 632 633
f 628 634 543
f 634 635 543
f 543 635 545
f 519 636 520
f 636 637 520
f 520 637 638
f 553 639 554
f 639 640 554
f 554 640 641
f 39 41 564
f 41 642 564
f 564 642 630
f 563 643 564
f 643 644 564
f 564 644 565
f 638 645 520
f 645 646 520
f 520 646 554
f 646 647 554
f 554 647 629
f 172 648 649
f 172 649 173
f 649 650 173
f 173 650 294
f 650 651 294
f 294 651 295
f 651 652 295
f 295 652 296
f 652 653 296
f 296 653 297
f 653 654 297
f 297 654 298
f 654 655 298
f 298 655 174
f 655 656 174
f 174 656 175
f 656 657 175
f 175 657 176
f 657 658 176
f 176 658 177
f 658 659 177
f 177 659 489
f 659 660 489
f 489 660 490
f 660 661 490
f 490 661 299
f 661 662 299
f 299 662 300
f 662 663 300
f 300 663 301
f 663 664 301
f 301 664 302
f 664 665 302
f 302 665 491
f 665 666 491
f 491 666 492
f 666 667 492
f 492 667 411
f 667 668 411
f 411 668 410
f 668 669 410
f 410 669 532
f 669 670 532
f 532 670 533
f 670 671 533
f 533 671 531
f 671 672 531
f 531 672 493
f 672 673 493
f 493 673 494
f 673 674 494
f 494 674 534
f 674 675 534
f 534 675 535
f 675 676 535
f 535 676 408
f 676 677 408
f 408 677 409
f 677 678 409
f 409 678 103
f 172 11 648
f 11 679 648
f 530 680 681
f 530 681 10
f 681 679 10
f 10 679 11
f 530 529 680
f 529 682 680
f 171 683 684
f 171 684 557
f 684 685 557
f 557 685 558
f 685 686 558
f 558 686 560
f 686 687 560
f 560 687 561
f 687 688 561
f 561 688 559
f 688 689 559
f 559 689 482
f 689 690 482
f 482 690 483
f 690 691 483
f 483 691 526
f 691 692 526
f 526 692 527
f 692 693 527
f 527 693 400
f 693 694 400
f 400 694 401
f 694 695 401
f 401 695 402
f 695 696 402
f 402 696 484
f 696 697 484
f 484 697 485
f 697 698 485
f 485 698 232
f 698 699 232
f 232 699 233
f 699 700 233
f 233 700 234
f 700 701 234
f 234 701 235
f 701 702 235
f 235 702 403
f 702 703 403
f 403 703 404
f 703 704 404
f 404 704 169
f 704 705 169
f 169 705 170
f 705 706 170
f 170 706 405
f 706 707 405
f 405 707 406
f 707 708 406
f 406 708 407
f 708 709 407
f 407 709 486
f 709 710 486
f 486 710 487
f 710 711 487
f 487 711 488
f 711 712 488
f 488 712 528
f 712 682 528
f 528 682 529
f 171 12 683
f 12 713 683
f 43 714 715
f 43 715 42
f 715 713 42
f 42 713 12
f 43 119 714
f 119 716 714
f 116 717 718
f 116 718 522
f 718 719 522
f 522 719 384
f 719 720 384
f 384 720 385
f 720 721 385
f 385 721 555
f 721 722 555
f 555 722 556
f 722 723 556
f 556 723 525
f 723 724 525
f 525 724 524
f 724 725 524
f 524 725 523
f 725 726 523
f 523 726 386
f 726 727 386
f 386 727 291
f 727 728 291
f 291 728 292
f 728 729 292
f 292 729 293
f 729 730 293
f 293 730 387
f 730 731 387
f 387 731 388
f 731 732 388
f 388 732 114
f 732 733 114
f 114 733 115
f 733 734 115
f 115 734 480
f 734 735 480
f 480 735 481
f 735 736 481
f 481 736 391
f 736 737 391
f 391 737 390
f 737 738 390
f 390 738 389
f 738 739 389
f 389 739 392
f 739 740 392
f 392 740 393
f 740 741 393
f 393 741 394
f 741 742 394
f 394 742 395
f 742 743 395
f 395 743 396
f 743 744 396
f 396 744 397
f 744 745 397
f 397 745 398
f 745 746 398
f 398 746 399
f 746 716 399
f 399 716 119
f 116 118 717
f 118 747 717
f 478 748 749
f 478 749 479
f 749 747 479
f 479 747 118
f 478 477 748
f 477 750 748
f 168 751 752
f 168 752 519
f 752 753 519
f 519 753 636
f 753 754 636
f 636 754 637
f 754 755 637
f 637 755 638
f 755 756 638
f 638 756 645
f 756 757 645
f 645 757 646
f 757 758 646
f 646 758 647
f 758 759 647
f 647 759 629
f 759 760 629
f 629 760 552
f 760 761 552
f 552 761 553
f 761 762 553
f 553 762 639
f 762 763 639
f 639 763 640
f 763 764 640
f 640 764 641
f 764 765 641
f 641 765 554
f 765 766 554
f 554 766 520
f 766 767 520
f 520 767 521
f 767 768 521
f 521 768 376
f 768 769 376
f 376 769 377
f 769 770 377
f 377 770 474
f 770 771 474
f 474 771 475
f 771 772 475
f 475 772 166
f 772 773 166
f 166 773 167
f 773 774 167
f 167 774 378
f 774 775 378
f 378 775 379
f 775 776 379
f 379 776 380
f 776 777 380
f 380 777 381
f 777 778 381
f 381 778 382
f 778 779 382
f 382 779 383
f 779 780 383
f 383 780 476
f 780 750 476
f 476 750 477
f 168 165 751
f 165 781 751
f 163 782 783
f 163 783 164
f 783 781 164
f 164 781 165
f 163 74 782
f 74 784 782
f 288 785 786
f 288 786 289
f 786 787 289
f 289 787 290
f 787 788 290
f 290 788 364
f 788 789 364
f 364 789 365
f 789 790 365
f 365 790 113
f 790 791 113
f 113 791 75
f 791 792 75
f 75 792 511
f 792 793 511
f 511 793 366
f 793 794 366
f 366 794 367
f 794 795 367
f 367 795 512
f 795 796 512
f 512 796 513
f 796 797 513
f 513 797 514
f 797 798 514
f 514 798 550
f 798 799 550
f 550 799 551
f 799 800 551
f 551 800 515
f 800 801 515
f 515 801 516
f 801 802 516
f 516 802 517
f 802 803 517
f 517 803 518
f 803 804 518
f 518 804 368
f 804 805 368
f 368 805 369
f 805 806 369
f 369 806 370
f 806 807 370
f 370 807 371
f 807 808 371
f 371 808 372
f 808 809 372
f 372 809 373
f 809 810 373
f 373 810 374
f 810 811 374
f 374 811 375
f 811 812 375
f 375 812 472
f 812 813 472
f 472 813 473
f 813 814 473
f 473 814 73
f 814 784 73
f 73 784 74
f 288 117 785
f 117 815 785
f 816 573 817
f 573 575 817
f 817 575 818
f 575 577 818
f 818 577 819
f 577 579 819
f 819 579 820
f 579 581 820
f 820 581 821
f 581 583 821
f 821 583 822
f 583 585 822
f 822 585 823
f 585 587 823
f 823 587 824
f 587 589 824
f 824 589 825
f 589 591 825
f 825 591 826
f 591 593 826
f 826 593 827
f 593 595 827
f 827 595 828
f 595 597 828
f 828 597 829
f 597 599 829
f 829 599 830
f 599 601 830
f 830 601 831
f 601 603 831
f 831 603 832
f 603 605 832
f 832 605 833
f 605 607 833
f 833 607 834
f 607 609 834
f 834 609 835
f 609 611 835
f 835 611 836
f 611 613 836
f 836 613 837
f 613 615 837
f 837 615 838
f 615 617 838
f 838 617 839
f 617 619 839
f 839 619 840
f 619 621 840
f 840 621 841
f 621 623 841
f 841 623 842
f 623 625 842
f 842 625 843
f 625 626 843
f 843 626 844
f 626 330 844
f 844 330 845
f 330 328 845
f 845 328 846
f 328 327 846
f 846 327 847
f 327 504 847
f 847 504 848
f 504 503 848
f 848 503 849
f 503 502 849
f 849 502 850
f 502 340 850
f 850 340 851
f 340 339 851
f 851 339 852
f 339 338 852
f 852 338 853
f 338 337 853
f 853 337 854
f 337 250 854
f 854 250 855
f 250 249 855
f 855 249 856
f 249 336 856
f 856 336 857
f 336 335 857
f 857 335 858
f 335 332 858
f 858 332 859
f 332 333 859
f 859 333 860
f 333 334 860
f 860 334 861
f 334 449 861
f 861 449 862
f 449 448 862
f 862 448 863
f 448 248 863
f 863 248 864
f 248 247 864
f 864 247 865
f 247 246 865
f 865 246 866
f 246 198 866
f 866 198 867
f 198 197 867
f 867 197 868
f 197 331 868
f 868 331 869
f 331 141 869
f 869 141 870
f 141 140 870
f 870 140 871
f 140 40 871
f 871 40 872
f 40 39 872
f 872 39 873
f 39 564 873
f 873 564 874
f 564 569 874
f 874 569 875
f 569 245 875
f 875 245 876
f 245 425 876
f 876 425 877
f 425 427 877
f 877 427 878
f 427 429 878
f 878 429 879
f 429 431 879
f 879 431 880
f 431 433 880
f 880 433 881
f 433 435 881
f 881 435 882
f 435 437 882
f 882 437 883
f 437 439 883
f 883 439 884
f 439 441 884
f 884 441 885
f 441 443 885
f 885 443 886
f 443 445 886
f 886 445 887
f 445 447 887
f 887 447 816
f 447 573 816
f 32 888 889
f 32 889 44
f 889 815 44
f 44 815 117
f 32 34 888
f 34 890 888
f 136 891 892
f 136 892 137
f 892 893 137
f 137 893 51
f 893 894 51
f 51 894 52
f 894 895 52
f 52 895 81
f 895 896 81
f 81 896 82
f 896 897 82
f 82 897 83
f 897 898 83
f 83 898 84
f 898 899 84
f 84 899 85
f 899 900 85
f 85 900 86
f 900 901 86
f 86 901 87
f 901 902 87
f 87 902 88
f 902 903 88
f 88 903 89
f 903 904 89
f 89 904 91
f 904 905 91
f 91 905 55
f 905 906 55
f 55 906 193
f 906 907 193
f 193 907 187
f 907 908 187
f 187 908 185
f 908 909 185
f 185 909 186
f 909 910 186
f 186 910 188
f 910 911 188
f 188 911 189
f 911 912 189
f 189 912 190
f 912 913 190
f 190 913 191
f 913 914 191
f 191 914 192
f 914 915 192
f 192 915 194
f 915 916 194
f 194 916 57
f 916 917 57
f 57 917 56
f 917 918 56
f 56 918 54
f 918 919 54
f 54 919 90
f 919 920 90
f 90 920 53
f 920 921 53
f 53 921 135
f 27 922 923
f 27 923 360
f 923 924 360
f 360 924 106
f 136 17 891
f 17 925 891
f 2 926 927
f 2 927 50
f 927 925 50
f 50 925 17
f 78 3 928
f 3 929 928
f 102 930 931
f 102 931 100
f 931 932 100
f 100 932 99
f 2 1 926
f 1 933 926
f 120 934 935
f 120 935 4
f 935 929 4
f 4 929 3
f 134 135 936
f 135 921 936
f 120 121 934
f 121 937 934
f 122 938 939
f 122 939 123
f 939 940 123
f 123 940 76
f 940 941 76
f 76 941 77
f 941 942 77
f 77 942 124
f 942 943 124
f 124 943 125
f 943 944 125
f 125 944 126
f 944 945 126
f 126 945 127
f 945 946 127
f 127 946 128
f 946 947 128
f 128 947 129
f 947 948 129
f 129 948 236
f 948 949 236
f 236 949 237
f 949 950 237
f 237 950 238
f 950 951 238
f 238 951 303
f 951 952 303
f 303 952 304
f 952 953 304
f 304 953 130
f 953 954 130
f 130 954 15
f 954 955 15
f 15 955 497
f 955 956 497
f 497 956 496
f 956 957 496
f 496 957 495
f 957 958 495
f 495 958 498
f 958 959 498
f 498 959 499
f 959 960 499
f 499 960 305
f 960 961 305
f 305 961 306
f 961 962 306
f 306 962 307
f 962 963 307
f 307 963 308
f 963 964 308
f 308 964 412
f 964 965 412
f 412 965 413
f 965 966 413
f 413 966 13
f 966 967 13
f 13 967 14
f 967 937 14
f 14 937 121
f 122 106 938
f 106 924 938
f 102 103 930
f 103 678 930
f 505 99 968
f 99 932 968
f 969 5 970
f 5 64 970
f 970 64 971
f 64 66 971
f 971 66 972
f 66 216 972
f 972 216 973
f 216 152 973
f 973 152 974
f 152 151 974
f 974 151 975
f 151 150 975
f 975 150 976
f 150 149 976
f 976 149 977
f 149 357 977
f 977 357 978
f 357 356 978
f 978 356 979
f 356 353 979
f 979 353 980
f 353 354 980
f 980 354 981
f 354 355 981
f 981 355 982
f 355 468 982
f 982 468 983
f 468 467 983
f 983 467 984
f 467 278 984
f 984 278 985
f 278 277 985
f 985 277 986
f 277 276 986
f 986 276 987
f 276 273 987
f 987 273 988
f 273 274 988
f 988 274 989
f 274 275 989
f 989 275 990
f 275 549 990
f 990 549 991
f 549 548 991
f 991 548 992
f 548 466 992
f 992 466 993
f 466 465 993
f 993 465 994
f 465 464 994
f 994 464 995
f 464 272 995
f 995 272 996
f 272 271 996
f 996 271 997
f 271 352 997
f 997 352 998
f 352 463 998
f 998 463 999
f 463 462 999
f 999 462 1000
f 462 461 1000
f 1000 461 1001
f 461 269 1001
f 1001 269 1002
f 269 28 1002
f 1002 28 1003
f 28 26 1003
f 1003 26 1004
f 26 25 1004
f 1004 25 1005
f 25 222 1005
f 1005 222 1006
f 222 221 1006
f 1006 221 1007
f 221 155 1007
f 1007 155 1008
f 155 154 1008
f 1008 154 1009
f 154 153 1009
f 1009 153 1010
f 153 109 1010
f 1010 109 1011
f 109 108 1011
f 1011 108 1012
f 108 107 1012
f 1012 107 1013
f 107 72 1013
f 1013 72 1014
f 72 71 1014
f 1014 71 1015
f 71 362 1015
f 1015 362 1016
f 362 361 1016
f 1016 361 1017
f 361 359 1017
f 1017 359 1018
f 359 358 1018
f 1018 358 1019
f 358 284 1019
f 1019 284 1020
f 284 283 1020
f 1020 283 1021
f 283 282 1021
f 1021 282 1022
f 282 281 1022
f 1022 281 1023
f 281 280 1023
f 1023 280 1024
f 280 279 1024
f 1024 279 1025
f 279 220 1025
f 1025 220 1026
f 220 219 1026
f 1026 219 1027
f 219 218 1027
f 1027 218 1028
f 218 105 1028
f 1028 105 1029
f 105 104 1029
f 1029 104 1030
f 104 217 1030
f 1030 217 1031
f 217 49 1031
f 1031 49 1032
f 49 48 1032
f 1032 48 1033
f 48 47 1033
f 1033 47 1034
f 47 46 1034
f 1034 46 1035
f 46 45 1035
f 1035 45 1036
f 45 19 1036
f 1036 19 1037
f 19 18 1037
f 1037 18 1038
f 18 16 1038
f 1038 16 1039
f 16 8 1039
f 1039 8 1040
f 8 6 1040
f 1040 6 969
f 6 5 969
f 20 1041 1042
f 20 1042 101
f 1042 1043 101
f 101 1043 33
f 505 968 1044
f 505 1044 506
f 1044 1045 506
f 506 1045 507
f 1045 1046 507
f 507 1046 537
f 1046 1047 537
f 537 1047 538
f 1047 1048 538
f 538 1048 508
f 1048 1049 508
f 508 1049 509
f 1049 1050 509
f 509 1050 510
f 1050 1051 510
f 510 1051 457
f 1051 1052 457
f 457 1052 456
f 1052 1053 456
f 456 1053 455
f 1053 1054 455
f 455 1054 458
f 1054 1055 458
f 458 1055 459
f 1055 1056 459
f 459 1056 460
f 1056 1057 460
f 460 1057 539
f 1057 1058 539
f 539 1058 540
f 1058 1059 540
f 540 1059 541
f 1059 1060 541
f 541 1060 546
f 1060 1061 546
f 546 1061 543
f 1061 1062 543
f 543 1062 632
f 1062 1063 632
f 632 1063 633
f 1063 1064 633
f 633 1064 631
f 1064 1065 631
f 631 1065 627
f 1065 1066 627
f 627 1066 628
f 1066 1067 628
f 628 1067 634
f 1067 1068 634
f 634 1068 635
f 1068 1069 635
f 635 1069 545
f 1069 1070 545
f 545 1070 544
f 1070 1071 544
f 544 1071 542
f 1071 1072 542
f 542 1072 547
f 1072 1073 547
f 547 1073 270
f 78 928 1074
f 78 1074 79
f 1074 1075 79
f 79 1075 80
f 1075 1076 80
f 80 1076 131
f 1076 1077 131
f 131 1077 132
f 1077 1078 132
f 132 1078 133
f 1078 1079 133
f 133 1079 309
f 1079 1080 309
f 309 1080 310
f 1080 1081 310
f 310 1081 311
f 1081 1082 311
f 311 1082 312
f 1082 1083 312
f 312 1083 313
f 1083 1084 313
f 313 1084 178
f 1084 1085 178
f 178 1085 179
f 1085 1086 179
f 179 1086 180
f 1086 1087 180
f 180 1087 314
f 1087 1088 314
f 314 1088 315
f 1088 1089 315
f 315 1089 316
f 1089 1090 316
f 316 1090 317
f 1090 1091 317
f 317 1091 318
f 1091 1092 318
f 318 1092 181
f 1092 1093 181
f 181 1093 182
f 1093 1094 182
f 182 1094 183
f 1094 1095 183
f 183 1095 184
f 1095 1096 184
f 184 1096 319
f 1096 1097 319
f 319 1097 320
f 1097 1098 320
f 320 1098 321
f 1098 1099 321
f 321 1099 417
f 1099 1100 417
f 417 1100 416
f 1100 1101 416
f 416 1101 414
f 1101 1102 414
f 414 1102 415
f 1102 933 415
f 415 933 1
f 27 270 922
f 270 1073 922
f 783 782 1103
f 749 748 1103
f 891 925 936
f 1104 1105 1106
f 928 929 926
f 1107 1108 1109
f 1044 968 1073
f 777 776 751
f 889 1103 815
f 1103 782 815
f 815 782 785
f 782 784 785
f 785 784 786
f 1107 1109 1110
f 1104 1106 1111
f 1106 1112 1111
f 1111 1112 936
f 747 714 717
f 714 716 717
f 657 656 678
f 751 773 772
f 888 1113 1114
f 889 888 1103
f 888 1114 1103
f 1103 1114 1115
f 1114 1116 1115
f 1105 1117 1106
f 1117 1118 1106
f 1106 1118 1109
f 1118 1119 1109
f 1109 1119 1110
f 936 925 1111
f 925 927 1111
f 1111 927 926
f 926 929 1111
f 929 935 1111
f 1111 935 934
f 732 731 717
f 1073 968 922
f 968 932 922
f 932 931 922
f 922 931 930
f 783 1103 781
f 1103 748 781
f 781 748 751
f 748 750 751
f 751 750 780
f 776 775 751
f 775 774 751
f 751 774 773
f 790 789 784
f 1043 1042 888
f 1042 1041 888
f 1108 1120 1109
f 1120 1121 1109
f 1109 1121 1122
f 999 1000 713
f 1000 1001 713
f 1057 1056 1073
f 780 779 751
f 779 778 751
f 751 778 777
f 772 771 751
f 771 770 751
f 751 770 769
f 769 768 751
f 768 767 751
f 751 767 766
f 805 804 791
f 1043 888 1123
f 888 890 1123
f 1123 890 1124
f 918 905 919
f 905 920 919
f 926 933 928
f 933 1102 928
f 928 1102 1074
f 1102 1075 1074
f 943 942 937
f 942 941 937
f 937 941 940
f 993 994 713
f 994 995 713
f 713 995 996
f 996 997 713
f 997 998 713
f 713 998 999
f 1001 1002 713
f 1002 1003 713
f 713 1003 1004
f 693 692 683
f 1125 1032 1033
f 1036 1037 1125
f 1037 1038 1125
f 1038 1039 1125
f 1039 1040 1125
f 1125 1040 969
f 709 708 682
f 708 707 682
f 682 704 703
f 700 699 682
f 699 698 682
f 682 698 697
f 679 681 1005
f 681 680 1005
f 1005 680 695
f 680 682 695
f 695 682 696
f 682 697 696
f 755 754 766
f 789 788 784
f 788 787 784
f 784 787 786
f 1126 1127 1128
f 1122 1129 1109
f 1129 1130 1109
f 1109 1130 1131
f 1132 1133 1134
f 918 917 905
f 917 916 905
f 905 916 906
f 946 945 937
f 945 944 937
f 937 944 943
f 940 939 937
f 939 938 937
f 937 938 934
f 938 924 934
f 934 924 1111
f 713 989 990
f 1004 1005 713
f 1005 695 713
f 713 695 683
f 695 694 683
f 683 694 693
f 1033 1034 1125
f 1034 1035 1125
f 1125 1035 1036
f 1025 1026 852
f 1026 1027 852
f 1027 1028 852
f 1028 1029 852
f 852 1029 1030
f 849 850 1125
f 850 851 1125
f 1125 851 1032
f 851 852 1032
f 1032 852 1031
f 852 1030 1031
f 716 746 717
f 746 745 717
f 717 745 744
f 744 743 717
f 743 742 717
f 717 742 741
f 741 740 717
f 740 739 717
f 717 739 738
f 738 737 717
f 737 736 717
f 717 736 735
f 731 730 717
f 730 729 717
f 717 729 728
f 1056 1055 1073
f 1055 1054 1073
f 1073 1054 1053
f 1053 1052 1073
f 1052 1051 1073
f 1073 1051 1050
f 656 655 678
f 655 654 678
f 678 654 653
f 653 652 678
f 652 651 678
f 678 651 650
f 707 706 682
f 706 705 682
f 682 705 704
f 703 702 682
f 702 701 682
f 682 701 700
f 790 784 791
f 784 814 791
f 791 814 813
f 808 791 809
f 791 810 809
f 808 807 791
f 807 806 791
f 791 806 805
f 796 795 804
f 795 794 804
f 1128 1135 1126
f 1135 1136 1126
f 1126 1136 1137
f 1138 1139 1136
f 1140 1141 1142
f 1141 1143 1142
f 1142 1143 1144
f 1144 1145 1142
f 1145 1146 1142
f 1142 1146 1114
f 1146 1147 1114
f 1114 1147 1116
f 1131 1148 1109
f 1148 1149 1109
f 1109 1149 1150
f 1109 1151 1152
f 1153 1154 1155
f 905 904 920
f 904 903 920
f 920 903 902
f 902 901 920
f 901 900 920
f 920 900 899
f 899 898 920
f 898 897 920
f 920 897 896
f 896 895 920
f 895 894 920
f 920 894 893
f 1078 1077 1102
f 1077 1076 1102
f 1102 1076 1075
f 990 991 713
f 991 992 713
f 713 992 993
f 969 970 1125
f 970 971 1125
f 1125 971 972
f 972 973 1125
f 973 974 1125
f 1125 974 1103
f 974 975 1103
f 1103 975 976
f 1103 985 986
f 1023 1024 1111
f 922 1009 1010
f 735 734 717
f 734 733 717
f 717 733 732
f 1072 1061 1073
f 1061 1060 1073
f 1050 1049 1073
f 1049 1048 1073
f 1073 1048 1047
f 678 667 666
f 663 662 678
f 662 661 678
f 678 661 660
f 709 682 710
f 682 712 710
f 710 712 711
f 754 753 766
f 753 752 766
f 766 752 751
f 1124 1156 1123
f 1156 1157 1123
f 1123 1157 1158
f 1159 1160 1161
f 1162 1163 1126
f 1163 1164 1126
f 1126 1164 1165
f 1166 1167 1136
f 1167 1168 1136
f 1136 1168 1169
f 1139 1170 1136
f 1170 1171 1136
f 1136 1171 1172
f 1173 1174 1175
f 1174 1176 1175
f 1177 1178 1142
f 1178 1179 1142
f 1142 1179 1180
f 1181 1142 1182
f 1142 1183 1182
f 1181 1184 1142
f 1184 1185 1142
f 1142 1185 1186
f 1186 1187 1142
f 1187 1188 1142
f 1142 1188 1140
f 1150 1189 1109
f 1189 1190 1109
f 1109 1190 1151
f 1153 1155 1191
f 936 921 891
f 921 920 891
f 891 920 892
f 920 893 892
f 1086 1085 1102
f 1085 1084 1102
f 962 961 954
f 954 953 937
f 953 952 937
f 949 948 937
f 948 947 937
f 937 947 946
f 692 691 683
f 691 690 683
f 683 690 689
f 842 843 1192
f 843 844 1192
f 1192 844 845
f 845 846 1192
f 846 847 1192
f 1192 847 1125
f 847 848 1125
f 1125 848 849
f 857 1193 856
f 1193 1111 856
f 856 1111 855
f 1006 1007 922
f 1007 1008 922
f 922 1008 1009
f 1010 1011 922
f 1011 1012 922
f 922 1012 1013
f 924 1018 1019
f 725 724 726
f 724 723 726
f 726 723 722
f 728 727 717
f 727 726 717
f 717 726 718
f 726 719 718
f 1060 1059 1073
f 1059 1058 1073
f 1073 1058 1057
f 1047 1046 1073
f 1046 1045 1073
f 1073 1045 1044
f 667 678 668
f 678 677 668
f 668 677 676
f 666 665 678
f 665 664 678
f 678 664 663
f 660 659 678
f 659 658 678
f 678 658 657
f 764 763 765
f 763 762 765
f 762 761 765
f 761 760 765
f 765 760 759
f 813 812 791
f 812 811 791
f 791 811 810
f 804 803 802
f 802 801 804
f 801 800 804
f 804 800 799
f 794 793 804
f 793 792 804
f 804 792 791
f 1160 1194 1161
f 1194 1195 1161
f 1161 1195 1196
f 1159 1161 1197
f 1161 1198 1197
f 1197 1198 1199
f 1199 1200 1197
f 1200 1201 1197
f 1197 1201 1202
f 1158 1203 1123
f 1203 1197 1123
f 1123 1197 1204
f 1197 1202 1204
f 1113 888 1205
f 888 1041 1205
f 1205 1041 1206
f 1041 1207 1206
f 1206 1207 1126
f 1207 1208 1126
f 1126 1208 1209
f 1169 1210 1136
f 1210 1211 1136
f 1136 1211 1138
f 1172 1212 1136
f 1212 1213 1136
f 1136 1213 1137
f 1173 1175 1142
f 1175 1214 1142
f 1142 1214 1177
f 1180 1215 1142
f 1215 1216 1142
f 1142 1216 1183
f 1191 1155 1134
f 1155 1217 1134
f 1134 1217 1132
f 1133 1218 1134
f 1218 1219 1134
f 1134 1219 1220
f 1152 1221 1109
f 1221 1134 1109
f 1109 1134 1222
f 1134 1220 1222
f 906 916 907
f 916 915 907
f 907 915 914
f 914 913 907
f 913 912 907
f 907 912 911
f 911 910 907
f 910 909 907
f 907 909 908
f 1095 1102 1096
f 1102 1097 1096
f 1095 1094 1102
f 1094 1093 1102
f 1102 1093 1092
f 937 967 954
f 967 966 954
f 954 966 965
f 952 951 937
f 951 950 937
f 937 950 949
f 687 686 688
f 686 685 688
f 688 685 689
f 685 684 689
f 689 684 683
f 976 977 1103
f 977 978 1103
f 1103 978 979
f 979 980 1103
f 980 981 1103
f 1103 981 982
f 986 987 1103
f 987 988 1103
f 1103 988 989
f 713 715 989
f 715 714 989
f 989 714 1103
f 714 747 1103
f 1103 747 749
f 1025 852 1024
f 852 853 1024
f 1024 853 1111
f 853 854 1111
f 1111 854 855
f 650 649 678
f 649 648 678
f 678 648 930
f 648 679 930
f 930 679 922
f 679 1005 922
f 922 1005 1006
f 722 721 726
f 721 720 726
f 726 720 719
f 1072 1071 1061
f 1071 1070 1061
f 1061 1070 1069
f 759 758 765
f 758 757 765
f 765 757 766
f 757 756 766
f 766 756 755
f 799 798 804
f 798 797 804
f 804 797 796
f 1209 1223 1126
f 1223 1224 1126
f 1126 1224 1162
f 1165 1225 1126
f 1225 1226 1126
f 1126 1226 1127
f 1175 1227 1228
f 1227 1229 1228
f 1102 1101 1097
f 1101 1100 1097
f 1097 1100 1098
f 1100 1099 1098
f 1092 1091 1102
f 1091 1090 1102
f 1102 1090 1089
f 1089 1088 1102
f 1088 1087 1102
f 1102 1087 1086
f 1084 1083 1102
f 1083 1082 1102
f 1102 1082 1081
f 1081 1080 1102
f 1080 1079 1102
f 1102 1079 1078
f 965 964 954
f 964 963 954
f 954 963 962
f 982 983 1103
f 983 984 1103
f 1103 984 985
f 1013 1014 922
f 1014 1015 922
f 922 1015 923
f 1015 1016 923
f 923 1016 924
f 1016 1017 924
f 924 1017 1018
f 1019 1020 924
f 1020 1021 924
f 924 1021 1111
f 1021 1022 1111
f 1111 1022 1023
f 1069 1068 1061
f 1068 1067 1061
f 1061 1067 1066
f 1066 1065 1061
f 1065 1064 1061
f 1061 1064 1062
f 1064 1063 1062
f 676 675 668
f 675 674 668
f 668 674 673
f 673 672 668
f 672 671 668
f 668 671 669
f 671 670 669
f 1230 1231 1232
f 1233 1234 1195
f 1234 1235 1195
f 1195 1235 1236
f 1176 1237 1175
f 1237 1238 1175
f 1175 1238 1227
f 961 960 954
f 960 959 954
f 954 959 958
f 958 957 954
f 957 956 954
f 954 956 955
f 1233 1239 1234
f 1239 1230 1234
f 1234 1230 1240
f 1230 1232 1240
f 1236 1241 1195
f 1241 1242 1195
f 1195 1242 1196
f 857 858 1193
f 858 859 1193
f 1193 859 860
f 816 1243 887
f 1243 1244 887
f 887 1244 886
f 1244 1245 886
f 886 1245 885
f 1245 1246 885
f 885 1246 884
f 1246 1247 884
f 884 1247 883
f 1247 1248 883
f 883 1248 882
f 1248 1249 882
f 882 1249 881
f 1249 1250 881
f 881 1250 880
f 1250 1251 880
f 880 1251 879
f 1251 1252 879
f 879 1252 878
f 1252 1253 878
f 878 1253 877
f 1253 1254 877
f 877 1254 876
f 1254 1255 876
f 876 1255 875
f 1255 1256 875
f 875 1256 874
f 1256 1257 874
f 874 1257 873
f 1257 1258 873
f 873 1258 872
f 1258 1259 872
f 872 1259 871
f 1259 1260 871
f 871 1260 870
f 1260 1261 870
f 870 1261 869
f 1261 1262 869
f 869 1262 868
f 1262 1263 868
f 868 1263 867
f 1263 1264 867
f 867 1264 866
f 1264 1265 866
f 866 1265 865
f 1265 1266 865
f 865 1266 864
f 1266 1267 864
f 864 1267 863
f 1267 1268 863
f 863 1268 862
f 1268 1193 862
f 862 1193 861
f 1193 860 861
f 842 1192 841
f 1192 1269 841
f 841 1269 840
f 1269 1270 840
f 840 1270 839
f 1270 1271 839
f 839 1271 838
f 1271 1272 838
f 838 1272 837
f 1272 1273 837
f 837 1273 836
f 1273 1274 836
f 836 1274 835
f 1274 1275 835
f 835 1275 834
f 1275 1276 834
f 834 1276 833
f 1276 1277 833
f 833 1277 832
f 1277 1278 832
f 832 1278 831
f 1278 1279 831
f 831 1279 830
f 1279 1280 830
f 830 1280 829
f 1280 1281 829
f 829 1281 828
f 1281 1282 828
f 828 1282 827
f 1282 1283 827
f 827 1283 826
f 1283 1284 826
f 826 1284 825
f 1284 1285 825
f 825 1285 824
f 1285 1286 824
f 824 1286 823
f 1286 1287 823
f 823 1287 822
f 1287 1288 822
f 822 1288 821
f 1288 1289 821
f 821 1289 820
f 1289 1290 820
f 820 1290 819
f 1290 1291 819
f 819 1291 818
f 1291 1292 818
f 818 1292 817
f 1292 1293 817
f 817 1293 816
f 1293 1294 816
f 816 1294 1243
f 65 1114 1113
f 65 1113 67
f 1113 1205 67
f 67 1205 21
f 134 936 1112
f 134 1112 9
f 1112 1106 9
f 9 1106 7
f 62 1118 1117
f 62 1117 63
f 1117 1105 63
f 63 1105 38
f 1105 1104 38
f 38 1104 37
f 1104 1111 37
f 37 1111 36
f 60 7 1109
f 7 1106 1109
f 65 147 1114
f 147 1142 1114
f 60 1109 1222
f 60 1222 419
f 1222 1220 419
f 419 1220 420
f 1220 1219 420
f 420 1219 500
f 1219 1218 500
f 500 1218 501
f 1218 1133 501
f 501 1133 421
f 1133 1132 421
f 421 1132 422
f 1132 1217 422
f 422 1217 423
f 1217 1155 423
f 423 1155 322
f 1155 1154 322
f 322 1154 323
f 1154 1153 323
f 323 1153 324
f 1153 1191 324
f 324 1191 424
f 1191 1134 424
f 424 1134 418
f 1134 1221 418
f 418 1221 239
f 1221 1152 239
f 239 1152 240
f 1152 1151 240
f 240 1151 241
f 1151 1190 241
f 241 1190 242
f 1190 1189 242
f 242 1189 325
f 1189 1150 325
f 325 1150 326
f 1150 1149 326
f 326 1149 138
f 1149 1148 138
f 138 1148 139
f 1148 1131 139
f 139 1131 195
f 1131 1130 195
f 195 1130 196
f 1130 1129 196
f 196 1129 94
f 1129 1122 94
f 94 1122 93
f 1122 1121 93
f 93 1121 92
f 1121 1120 92
f 92 1120 95
f 1120 1108 95
f 95 1108 96
f 1108 1107 96
f 96 1107 58
f 1107 1110 58
f 58 1110 59
f 1110 1119 59
f 59 1119 61
f 199 1146 1145
f 199 1145 145
f 1145 1144 145
f 145 1144 146
f 1144 1143 146
f 146 1143 200
f 1143 1141 200
f 200 1141 201
f 1141 1140 201
f 201 1140 202
f 1140 1188 202
f 202 1188 251
f 1188 1187 251
f 251 1187 252
f 1187 1186 252
f 252 1186 253
f 1186 1185 253
f 253 1185 254
f 1185 1184 254
f 254 1184 255
f 1184 1181 255
f 255 1181 256
f 1181 1182 256
f 256 1182 257
f 1182 1183 257
f 257 1183 258
f 1183 1216 258
f 258 1216 259
f 1216 1215 259
f 259 1215 341
f 1215 1180 341
f 341 1180 342
f 1180 1179 342
f 342 1179 344
f 1179 1178 344
f 344 1178 345
f 1178 1177 345
f 345 1177 450
f 1177 1214 450
f 450 1214 451
f 1214 1175 451
f 451 1175 348
f 1175 1228 348
f 348 1228 452
f 1228 1229 452
f 452 1229 453
f 1229 1227 453
f 453 1227 454
f 1227 1238 454
f 454 1238 536
f 1238 1237 536
f 536 1237 346
f 1237 1176 346
f 346 1176 347
f 1176 1174 347
f 347 1174 349
f 1174 1173 349
f 349 1173 343
f 1173 1142 343
f 343 1142 147
f 62 61 1118
f 61 1119 1118
f 199 98 1146
f 98 1147 1146
f 41 36 1193
f 36 1111 1193
f 30 33 1123
f 33 1043 1123
f 41 1193 1268
f 41 1268 642
f 1268 1267 642
f 642 1267 630
f 1267 1266 630
f 630 1266 562
f 1266 1265 562
f 562 1265 563
f 1265 1264 563
f 563 1264 643
f 1264 1263 643
f 643 1263 644
f 1263 1262 644
f 644 1262 565
f 1262 1261 565
f 565 1261 566
f 1261 1260 566
f 566 1260 567
f 1260 1259 567
f 567 1259 568
f 1259 1258 568
f 568 1258 570
f 1258 1257 570
f 570 1257 243
f 1257 1256 243
f 243 1256 244
f 1256 1255 244
f 244 1255 426
f 1255 1254 426
f 426 1254 428
f 1254 1253 428
f 428 1253 430
f 1253 1252 430
f 430 1252 432
f 1252 1251 432
f 432 1251 434
f 1251 1250 434
f 434 1250 436
f 1250 1249 436
f 436 1249 438
f 1249 1248 438
f 438 1248 440
f 1248 1247 440
f 440 1247 442
f 1247 1246 442
f 442 1246 444
f 1246 1245 444
f 444 1245 446
f 1245 1244 446
f 446 1244 571
f 1244 1243 571
f 571 1243 572
f 1243 1294 572
f 572 1294 574
f 1294 1293 574
f 574 1293 576
f 1293 1292 576
f 576 1292 578
f 1292 1291 578
f 578 1291 580
f 1291 1290 580
f 580 1290 582
f 1290 1289 582
f 582 1289 584
f 1289 1288 584
f 584 1288 586
f 1288 1287 586
f 586 1287 588
f 1287 1286 588
f 588 1286 590
f 1286 1285 590
f 590 1285 592
f 1285 1284 592
f 592 1284 594
f 1284 1283 594
f 594 1283 596
f 1283 1282 596
f 596 1282 598
f 1282 1281 598
f 598 1281 600
f 1281 1280 600
f 600 1280 602
f 1280 1279 602
f 602 1279 604
f 1279 1278 604
f 604 1278 606
f 1278 1277 606
f 606 1277 608
f 1277 1276 608
f 608 1276 610
f 1276 1275 610
f 610 1275 612
f 1275 1274 612
f 612 1274 614
f 1274 1273 614
f 614 1273 616
f 1273 1272 616
f 616 1272 618
f 1272 1271 618
f 618 1271 620
f 1271 1270 620
f 620 1270 622
f 1270 1269 622
f 622 1269 624
f 1269 1192 624
f 624 1192 329
f 20 22 1041
f 22 1207 1041
f 142 329 1125
f 329 1192 1125
f 23 21 1206
f 21 1205 1206
f 142 1125 1103
f 142 1103 143
f 1103 1115 143
f 143 1115 144
f 1115 1116 144
f 144 1116 97
f 1116 1147 97
f 97 1147 98
f 23 1206 1126
f 23 1126 203
f 1126 1137 203
f 203 1137 204
f 1137 1213 204
f 204 1213 205
f 1213 1212 205
f 205 1212 260
f 1212 1172 260
f 260 1172 261
f 1172 1171 261
f 261 1171 68
f 1171 1170 68
f 68 1170 69
f 1170 1139 69
f 69 1139 206
f 1139 1138 206
f 206 1138 207
f 1138 1211 207
f 207 1211 208
f 1211 1210 208
f 208 1210 262
f 1210 1169 262
f 262 1169 263
f 1169 1168 263
f 263 1168 211
f 1168 1167 211
f 211 1167 210
f 1167 1166 210
f 210 1166 209
f 1166 1136 209
f 209 1136 70
f 1136 1135 70
f 70 1135 148
f 1135 1128 148
f 148 1128 264
f 1128 1127 264
f 264 1127 265
f 1127 1226 265
f 265 1226 266
f 1226 1225 266
f 266 1225 350
f 1225 1165 350
f 350 1165 351
f 1165 1164 351
f 351 1164 212
f 1164 1163 212
f 212 1163 213
f 1163 1162 213
f 213 1162 214
f 1162 1224 214
f 214 1224 215
f 1224 1223 215
f 215 1223 267
f 1223 1209 267
f 267 1209 268
f 1209 1208 268
f 268 1208 24
f 1208 1207 24
f 24 1207 22
f 30 1123 1204
f 30 1204 31
f 1204 1202 31
f 31 1202 158
f 1202 1201 158
f 158 1201 223
f 1201 1200 223
f 223 1200 224
f 1200 1199 224
f 224 1199 225
f 1199 1198 225
f 225 1198 230
f 1198 1161 230
f 230 1161 227
f 1161 1196 227
f 227 1196 159
f 1196 1242 159
f 159 1242 160
f 1242 1241 160
f 160 1241 469
f 1241 1236 469
f 469 1236 470
f 1236 1235 470
f 470 1235 226
f 1235 1234 226
f 226 1234 112
f 1234 1240 112
f 112 1240 363
f 1240 1232 363
f 363 1232 285
f 1232 1231 285
f 285 1231 286
f 1231 1230 286
f 286 1230 287
f 1230 1239 287
f 287 1239 471
f 1239 1233 471
f 471 1233 110
f 1233 1195 110
f 110 1195 111
f 1195 1194 111
f 111 1194 228
f 1194 1160 228
f 228 1160 229
f 1160 1159 229
f 229 1159 231
f 1159 1197 231
f 231 1197 157
f 1197 1203 157
f 157 1203 156
f 1203 1158 156
f 156 1158 161
f 1158 1157 161
f 161 1157 162
f 1157 1156 162
f 162 1156 29
f 1156 1124 29
f 29 1124 35
f 1124 890 35
f 35 890 34
# 2592 faces, 0 coords texture

# End of File
