####
#
# OBJ File Generated by Meshlab
#
####
# Object gear_link.obj
#
# Vertices: 1352
# Faces: 2708
#
####
v -0.000042 -0.004000 0.029865
v -0.000042 0.000000 0.029865
v -0.000390 0.000000 0.029740
v -0.000390 -0.004000 0.029740
v -0.000729 0.000000 0.029595
v -0.000729 -0.004000 0.029595
v 0.000135 -0.004000 0.031450
v 0.000135 0.000000 0.031450
v 0.000886 -0.004000 0.031592
v 0.000886 0.000000 0.031592
v 0.000869 0.000000 0.031621
v 0.000869 -0.004000 0.031621
v 0.000850 0.000000 0.031649
v 0.000850 -0.004000 0.031649
v 0.000828 0.000000 0.031675
v 0.000828 -0.004000 0.031675
v 0.000804 0.000000 0.031699
v 0.000804 -0.004000 0.031699
v 0.000778 0.000000 0.031721
v 0.000778 -0.004000 0.031721
v 0.000751 0.000000 0.031741
v 0.000751 -0.004000 0.031741
v 0.000721 0.000000 0.031758
v 0.000721 -0.004000 0.031758
v 0.000691 0.000000 0.031773
v 0.000691 -0.004000 0.031773
v 0.000659 0.000000 0.031785
v 0.000659 -0.004000 0.031785
v 0.000627 0.000000 0.031795
v 0.000627 -0.004000 0.031795
v 0.000593 0.000000 0.031801
v 0.000593 -0.004000 0.031801
v 0.000560 0.000000 0.031805
v 0.000560 -0.004000 0.031805
v 0.000526 0.000000 0.031806
v 0.000526 -0.004000 0.031806
v 0.000492 0.000000 0.031804
v 0.000492 -0.004000 0.031804
v 0.000458 0.000000 0.031799
v 0.000458 -0.004000 0.031799
v 0.000425 0.000000 0.031791
v 0.000425 -0.004000 0.031791
v 0.000393 0.000000 0.031781
v 0.000393 -0.004000 0.031781
v 0.000361 0.000000 0.031768
v 0.000361 -0.004000 0.031768
v 0.000331 0.000000 0.031752
v 0.000331 -0.004000 0.031752
v 0.000303 0.000000 0.031733
v 0.000303 -0.004000 0.031733
v 0.000276 0.000000 0.031713
v 0.000276 -0.004000 0.031713
v 0.000251 0.000000 0.031690
v 0.000251 -0.004000 0.031690
v 0.000228 0.000000 0.031665
v 0.000228 -0.004000 0.031665
v 0.000207 0.000000 0.031638
v 0.000207 -0.004000 0.031638
v 0.000188 0.000000 0.031610
v 0.000188 -0.004000 0.031610
v 0.000172 0.000000 0.031580
v 0.000172 -0.004000 0.031580
v 0.000159 0.000000 0.031549
v 0.000159 -0.004000 0.031549
v 0.000148 0.000000 0.031517
v 0.000148 -0.004000 0.031517
v 0.000140 0.000000 0.031484
v 0.000140 -0.004000 0.031484
v 0.001628 -0.004000 0.030180
v 0.001628 0.000000 0.030180
v 0.001987 0.000000 -0.001822
v 0.001987 -0.004000 -0.001822
v 0.002170 0.000000 -0.001814
v 0.002170 -0.004000 -0.001814
v 0.002352 0.000000 -0.001791
v 0.002352 -0.004000 -0.001791
v 0.002530 0.000000 -0.001751
v 0.002530 -0.004000 -0.001751
v 0.002705 0.000000 -0.001696
v 0.002705 -0.004000 -0.001696
v 0.002874 0.000000 -0.001626
v 0.002874 -0.004000 -0.001626
v 0.003037 0.000000 -0.001541
v 0.003037 -0.004000 -0.001541
v 0.003191 0.000000 -0.001443
v 0.003191 -0.004000 -0.001443
v 0.003337 0.000000 -0.001331
v 0.003337 -0.004000 -0.001331
v 0.003472 0.000000 -0.001207
v 0.003472 -0.004000 -0.001207
v 0.003596 0.000000 -0.001072
v 0.003596 -0.004000 -0.001072
v 0.003707 0.000000 -0.000927
v 0.003707 -0.004000 -0.000927
v 0.003806 0.000000 -0.000772
v 0.003806 -0.004000 -0.000772
v 0.003890 0.000000 -0.000610
v 0.003890 -0.004000 -0.000610
v 0.003960 0.000000 -0.000441
v 0.003960 -0.004000 -0.000441
v 0.004015 0.000000 -0.000266
v 0.004015 -0.004000 -0.000266
v 0.004055 0.000000 -0.000087
v 0.004055 -0.004000 -0.000087
v 0.004079 0.000000 0.000095
v 0.004079 -0.004000 0.000095
v 0.004087 0.000000 0.000278
v 0.004087 -0.004000 0.000278
v 0.004079 0.000000 0.000461
v 0.004079 -0.004000 0.000461
v 0.004055 0.000000 0.000642
v 0.004055 -0.004000 0.000642
v 0.004015 0.000000 0.000821
v 0.004015 -0.004000 0.000821
v 0.003960 0.000000 0.000996
v 0.003960 -0.004000 0.000996
v 0.003890 0.000000 0.001165
v 0.003890 -0.004000 0.001165
v 0.003806 0.000000 0.001328
v 0.003806 -0.004000 0.001328
v 0.003707 0.000000 0.001482
v 0.003707 -0.004000 0.001482
v 0.003596 0.000000 0.001627
v 0.003596 -0.004000 0.001627
v 0.003472 0.000000 0.001763
v 0.003472 -0.004000 0.001763
v 0.003337 0.000000 0.001886
v 0.003337 -0.004000 0.001886
v 0.003191 0.000000 0.001998
v 0.003191 -0.004000 0.001998
v 0.003037 0.000000 0.002096
v 0.003037 -0.004000 0.002096
v 0.002874 0.000000 0.002181
v 0.002874 -0.004000 0.002181
v 0.002705 0.000000 0.002251
v 0.002705 -0.004000 0.002251
v 0.002530 0.000000 0.002306
v 0.002530 -0.004000 0.002306
v 0.002352 0.000000 0.002346
v 0.002352 -0.004000 0.002346
v 0.002170 0.000000 0.002370
v 0.002170 -0.004000 0.002370
v 0.001987 0.000000 0.002378
v 0.001987 -0.004000 0.002378
v 0.001804 0.000000 0.002370
v 0.001804 -0.004000 0.002370
v 0.001622 0.000000 0.002346
v 0.001622 -0.004000 0.002346
v 0.001443 0.000000 0.002306
v 0.001443 -0.004000 0.002306
v 0.001269 0.000000 0.002251
v 0.001269 -0.004000 0.002251
v 0.001099 0.000000 0.002181
v 0.001099 -0.004000 0.002181
v 0.000937 0.000000 0.002096
v 0.000937 -0.004000 0.002096
v 0.000782 0.000000 0.001998
v 0.000782 -0.004000 0.001998
v 0.000637 0.000000 0.001886
v 0.000637 -0.004000 0.001886
v 0.000502 0.000000 0.001763
v 0.000502 -0.004000 0.001763
v 0.000378 0.000000 0.001627
v 0.000378 -0.004000 0.001627
v 0.000267 0.000000 0.001482
v 0.000267 -0.004000 0.001482
v 0.000168 0.000000 0.001328
v 0.000168 -0.004000 0.001328
v 0.000084 0.000000 0.001165
v 0.000084 -0.004000 0.001165
v 0.000014 0.000000 0.000996
v 0.000014 -0.004000 0.000996
v -0.000042 0.000000 0.000821
v -0.000042 -0.004000 0.000821
v -0.000081 0.000000 0.000642
v -0.000081 -0.004000 0.000642
v -0.000105 0.000000 0.000461
v -0.000105 -0.004000 0.000461
v -0.000113 0.000000 0.000278
v -0.000113 -0.004000 0.000278
v -0.000105 0.000000 0.000095
v -0.000105 -0.004000 0.000095
v -0.000081 0.000000 -0.000087
v -0.000081 -0.004000 -0.000087
v -0.000042 0.000000 -0.000266
v -0.000042 -0.004000 -0.000266
v 0.000014 0.000000 -0.000441
v 0.000014 -0.004000 -0.000441
v 0.000084 0.000000 -0.000610
v 0.000084 -0.004000 -0.000610
v 0.000168 0.000000 -0.000772
v 0.000168 -0.004000 -0.000772
v 0.000267 0.000000 -0.000927
v 0.000267 -0.004000 -0.000927
v 0.000378 0.000000 -0.001072
v 0.000378 -0.004000 -0.001072
v 0.000502 0.000000 -0.001207
v 0.000502 -0.004000 -0.001207
v 0.000637 0.000000 -0.001331
v 0.000637 -0.004000 -0.001331
v 0.000782 0.000000 -0.001443
v 0.000782 -0.004000 -0.001443
v 0.000937 0.000000 -0.001541
v 0.000937 -0.004000 -0.001541
v 0.001099 0.000000 -0.001626
v 0.001099 -0.004000 -0.001626
v 0.001269 0.000000 -0.001696
v 0.001269 -0.004000 -0.001696
v 0.001443 0.000000 -0.001751
v 0.001443 -0.004000 -0.001751
v 0.001622 0.000000 -0.001791
v 0.001622 -0.004000 -0.001791
v 0.001804 0.000000 -0.001814
v 0.001804 -0.004000 -0.001814
v 0.002367 -0.004000 0.030179
v 0.002367 0.000000 0.030179
v 0.001997 0.000000 0.030190
v 0.001997 -0.004000 0.030190
v 0.003113 -0.004000 0.031588
v 0.003113 0.000000 0.031588
v 0.003864 -0.004000 0.031444
v 0.003864 0.000000 0.031444
v 0.003859 0.000000 0.031478
v 0.003859 -0.004000 0.031478
v 0.003851 0.000000 0.031511
v 0.003851 -0.004000 0.031511
v 0.003841 0.000000 0.031543
v 0.003841 -0.004000 0.031543
v 0.003827 0.000000 0.031574
v 0.003827 -0.004000 0.031574
v 0.003811 0.000000 0.031604
v 0.003811 -0.004000 0.031604
v 0.003793 0.000000 0.031633
v 0.003793 -0.004000 0.031633
v 0.003772 0.000000 0.031659
v 0.003772 -0.004000 0.031659
v 0.003749 0.000000 0.031684
v 0.003749 -0.004000 0.031684
v 0.003724 0.000000 0.031707
v 0.003724 -0.004000 0.031707
v 0.003697 0.000000 0.031728
v 0.003697 -0.004000 0.031728
v 0.003669 0.000000 0.031746
v 0.003669 -0.004000 0.031746
v 0.003639 0.000000 0.031762
v 0.003639 -0.004000 0.031762
v 0.003607 0.000000 0.031775
v 0.003607 -0.004000 0.031775
v 0.003575 0.000000 0.031786
v 0.003575 -0.004000 0.031786
v 0.003542 0.000000 0.031794
v 0.003542 -0.004000 0.031794
v 0.003508 0.000000 0.031799
v 0.003508 -0.004000 0.031799
v 0.003475 0.000000 0.031801
v 0.003475 -0.004000 0.031801
v 0.003441 0.000000 0.031800
v 0.003441 -0.004000 0.031800
v 0.003407 0.000000 0.031797
v 0.003407 -0.004000 0.031797
v 0.003374 0.000000 0.031790
v 0.003374 -0.004000 0.031790
v 0.003341 0.000000 0.031781
v 0.003341 -0.004000 0.031781
v 0.003309 0.000000 0.031769
v 0.003309 -0.004000 0.031769
v 0.003279 0.000000 0.031754
v 0.003279 -0.004000 0.031754
v 0.003249 0.000000 0.031737
v 0.003249 -0.004000 0.031737
v 0.003222 0.000000 0.031717
v 0.003222 -0.004000 0.031717
v 0.003196 0.000000 0.031695
v 0.003196 -0.004000 0.031695
v 0.003172 0.000000 0.031671
v 0.003172 -0.004000 0.031671
v 0.003150 0.000000 0.031645
v 0.003150 -0.004000 0.031645
v 0.003130 0.000000 0.031618
v 0.003130 -0.004000 0.031618
v 0.004036 -0.004000 0.029858
v 0.004036 0.000000 0.029858
v 0.001987 0.000000 0.021590
v 0.001987 -0.004000 0.021590
v 0.002170 0.000000 0.021598
v 0.002170 -0.004000 0.021598
v 0.002352 0.000000 0.021622
v 0.002352 -0.004000 0.021622
v 0.002530 0.000000 0.021661
v 0.002530 -0.004000 0.021661
v 0.002705 0.000000 0.021716
v 0.002705 -0.004000 0.021716
v 0.002874 0.000000 0.021786
v 0.002874 -0.004000 0.021786
v 0.003037 0.000000 0.021871
v 0.003037 -0.004000 0.021871
v 0.003191 0.000000 0.021969
v 0.003191 -0.004000 0.021969
v 0.003337 0.000000 0.022081
v 0.003337 -0.004000 0.022081
v 0.003472 0.000000 0.022205
v 0.003472 -0.004000 0.022205
v 0.003596 0.000000 0.022340
v 0.003596 -0.004000 0.022340
v 0.003707 0.000000 0.022485
v 0.003707 -0.004000 0.022485
v 0.003806 0.000000 0.022640
v 0.003806 -0.004000 0.022640
v 0.003890 0.000000 0.022802
v 0.003890 -0.004000 0.022802
v 0.003960 0.000000 0.022971
v 0.003960 -0.004000 0.022971
v 0.004015 0.000000 0.023146
v 0.004015 -0.004000 0.023146
v 0.004055 0.000000 0.023325
v 0.004055 -0.004000 0.023325
v 0.004079 0.000000 0.023507
v 0.004079 -0.004000 0.023507
v 0.004087 0.000000 0.023690
v 0.004087 -0.004000 0.023690
v 0.004079 0.000000 0.023873
v 0.004079 -0.004000 0.023873
v 0.004055 0.000000 0.024054
v 0.004055 -0.004000 0.024054
v 0.004015 0.000000 0.024233
v 0.004015 -0.004000 0.024233
v 0.003960 0.000000 0.024408
v 0.003960 -0.004000 0.024408
v 0.003890 0.000000 0.024577
v 0.003890 -0.004000 0.024577
v 0.003806 0.000000 0.024740
v 0.003806 -0.004000 0.024740
v 0.003707 0.000000 0.024894
v 0.003707 -0.004000 0.024894
v 0.003596 0.000000 0.025039
v 0.003596 -0.004000 0.025039
v 0.003472 0.000000 0.025175
v 0.003472 -0.004000 0.025175
v 0.003337 0.000000 0.025298
v 0.003337 -0.004000 0.025298
v 0.003191 0.000000 0.025410
v 0.003191 -0.004000 0.025410
v 0.003037 0.000000 0.025508
v 0.003037 -0.004000 0.025508
v 0.002874 0.000000 0.025593
v 0.002874 -0.004000 0.025593
v 0.002705 0.000000 0.025663
v 0.002705 -0.004000 0.025663
v 0.002530 0.000000 0.025718
v 0.002530 -0.004000 0.025718
v 0.002352 0.000000 0.025758
v 0.002352 -0.004000 0.025758
v 0.002170 0.000000 0.025782
v 0.002170 -0.004000 0.025782
v 0.001987 0.000000 0.025790
v 0.001987 -0.004000 0.025790
v 0.001804 0.000000 0.025782
v 0.001804 -0.004000 0.025782
v 0.001622 0.000000 0.025758
v 0.001622 -0.004000 0.025758
v 0.001443 0.000000 0.025718
v 0.001443 -0.004000 0.025718
v 0.001269 0.000000 0.025663
v 0.001269 -0.004000 0.025663
v 0.001099 0.000000 0.025593
v 0.001099 -0.004000 0.025593
v 0.000937 0.000000 0.025508
v 0.000937 -0.004000 0.025508
v 0.000782 0.000000 0.025410
v 0.000782 -0.004000 0.025410
v 0.000637 0.000000 0.025298
v 0.000637 -0.004000 0.025298
v 0.000502 0.000000 0.025175
v 0.000502 -0.004000 0.025175
v 0.000378 0.000000 0.025039
v 0.000378 -0.004000 0.025039
v 0.000267 0.000000 0.024894
v 0.000267 -0.004000 0.024894
v 0.000168 0.000000 0.024740
v 0.000168 -0.004000 0.024740
v 0.000084 0.000000 0.024577
v 0.000084 -0.004000 0.024577
v 0.000014 0.000000 0.024408
v 0.000014 -0.004000 0.024408
v -0.000042 0.000000 0.024233
v -0.000042 -0.004000 0.024233
v -0.000081 0.000000 0.024054
v -0.000081 -0.004000 0.024054
v -0.000105 0.000000 0.023873
v -0.000105 -0.004000 0.023873
v -0.000113 0.000000 0.023690
v -0.000113 -0.004000 0.023690
v -0.000105 0.000000 0.023507
v -0.000105 -0.004000 0.023507
v -0.000081 0.000000 0.023325
v -0.000081 -0.004000 0.023325
v -0.000042 0.000000 0.023146
v -0.000042 -0.004000 0.023146
v 0.000014 0.000000 0.022971
v 0.000014 -0.004000 0.022971
v 0.000084 0.000000 0.022802
v 0.000084 -0.004000 0.022802
v 0.000168 0.000000 0.022640
v 0.000168 -0.004000 0.022640
v 0.000267 0.000000 0.022485
v 0.000267 -0.004000 0.022485
v 0.000378 0.000000 0.022340
v 0.000378 -0.004000 0.022340
v 0.000502 0.000000 0.022205
v 0.000502 -0.004000 0.022205
v 0.000637 0.000000 0.022081
v 0.000637 -0.004000 0.022081
v 0.000782 0.000000 0.021969
v 0.000782 -0.004000 0.021969
v 0.000937 0.000000 0.021871
v 0.000937 -0.004000 0.021871
v 0.001099 0.000000 0.021786
v 0.001099 -0.004000 0.021786
v 0.001269 0.000000 0.021716
v 0.001269 -0.004000 0.021716
v 0.001443 0.000000 0.021661
v 0.001443 -0.004000 0.021661
v 0.001622 0.000000 0.021622
v 0.001622 -0.004000 0.021622
v 0.001804 0.000000 0.021598
v 0.001804 -0.004000 0.021598
v 0.004722 -0.004000 0.029586
v 0.004722 0.000000 0.029586
v 0.004383 0.000000 0.029732
v 0.004383 -0.004000 0.029732
v 0.005934 -0.004000 0.030623
v 0.005934 0.000000 0.030623
v 0.006580 -0.004000 0.030213
v 0.006580 0.000000 0.030213
v 0.006588 0.000000 0.030246
v 0.006588 -0.004000 0.030246
v 0.006592 0.000000 0.030280
v 0.006592 -0.004000 0.030280
v 0.006594 0.000000 0.030314
v 0.006594 -0.004000 0.030314
v 0.006593 0.000000 0.030348
v 0.006593 -0.004000 0.030348
v 0.006589 0.000000 0.030382
v 0.006589 -0.004000 0.030382
v 0.006583 0.000000 0.030415
v 0.006583 -0.004000 0.030415
v 0.006573 0.000000 0.030448
v 0.006573 -0.004000 0.030448
v 0.006561 0.000000 0.030479
v 0.006561 -0.004000 0.030479
v 0.006546 0.000000 0.030510
v 0.006546 -0.004000 0.030510
v 0.006529 0.000000 0.030539
v 0.006529 -0.004000 0.030539
v 0.006509 0.000000 0.030566
v 0.006509 -0.004000 0.030566
v 0.006487 0.000000 0.030592
v 0.006487 -0.004000 0.030592
v 0.006463 0.000000 0.030616
v 0.006463 -0.004000 0.030616
v 0.006437 0.000000 0.030638
v 0.006437 -0.004000 0.030638
v 0.006409 0.000000 0.030657
v 0.006409 -0.004000 0.030657
v 0.006379 0.000000 0.030674
v 0.006379 -0.004000 0.030674
v 0.006349 0.000000 0.030688
v 0.006349 -0.004000 0.030688
v 0.006317 0.000000 0.030700
v 0.006317 -0.004000 0.030700
v 0.006284 0.000000 0.030709
v 0.006284 -0.004000 0.030709
v 0.006251 0.000000 0.030715
v 0.006251 -0.004000 0.030715
v 0.006217 0.000000 0.030719
v 0.006217 -0.004000 0.030719
v 0.006183 0.000000 0.030719
v 0.006183 -0.004000 0.030719
v 0.006149 0.000000 0.030717
v 0.006149 -0.004000 0.030717
v 0.006115 0.000000 0.030711
v 0.006115 -0.004000 0.030711
v 0.006083 0.000000 0.030703
v 0.006083 -0.004000 0.030703
v 0.006050 0.000000 0.030693
v 0.006050 -0.004000 0.030693
v 0.006019 0.000000 0.030679
v 0.006019 -0.004000 0.030679
v 0.005989 0.000000 0.030663
v 0.005989 -0.004000 0.030663
v 0.005961 0.000000 0.030644
v 0.005961 -0.004000 0.030644
v 0.006158 -0.004000 0.028675
v 0.006158 0.000000 0.028675
v -0.001965 0.000000 0.030657
v -0.001938 0.000000 0.030636
v -0.002585 0.000000 0.030228
v 0.006434 0.000000 0.028430
v 0.006696 0.000000 0.028170
v 0.005469 0.000000 0.018201
v 0.008473 0.000000 0.024115
v 0.008487 0.000000 0.023746
v 0.007864 0.000000 0.026467
v 0.008012 0.000000 0.026128
v 0.008838 0.000000 0.019539
v 0.008804 0.000000 0.019544
v 0.009170 0.000000 0.020216
v -0.002814 0.000000 0.019307
v -0.001513 0.000000 0.018212
v -0.003438 0.000000 0.017839
v -0.002853 0.000000 0.017347
v -0.002882 0.000000 0.017330
v -0.003055 0.000000 0.019587
v -0.004087 0.000000 0.021376
v -0.003280 0.000000 0.019880
v -0.005207 0.000000 0.020240
v -0.004844 0.000000 0.019567
v -0.005230 0.000000 0.020214
v 0.008054 0.000000 0.021356
v -0.003112 0.000000 0.017285
v -0.003146 0.000000 0.017290
v -0.003179 0.000000 0.017298
v -0.003211 0.000000 0.017308
v -0.003242 0.000000 0.017322
v -0.004209 0.000000 0.021724
v -0.004310 0.000000 0.022079
v 0.008176 0.000000 0.021704
v 0.008279 0.000000 0.022059
v 0.009850 0.000000 0.022337
v 0.009943 0.000000 0.023096
v 0.009883 0.000000 0.022344
v 0.009974 0.000000 0.023081
v 0.007241 0.000000 0.019863
v 0.007015 0.000000 0.019571
v 0.006773 0.000000 0.019292
v -0.002977 0.000000 0.017294
v -0.003011 0.000000 0.017287
v -0.003328 0.000000 0.017377
v -0.003353 0.000000 0.017400
v -0.003463 0.000000 0.017606
v 0.009640 0.000000 0.026055
v 0.009673 0.000000 0.026049
v 0.009798 0.000000 0.025318
v -0.002913 0.000000 0.017315
v -0.002945 0.000000 0.017303
v -0.003044 0.000000 0.017284
v -0.003078 0.000000 0.017283
v -0.003376 0.000000 0.017425
v -0.003396 0.000000 0.017452
v -0.003415 0.000000 0.017480
v -0.003301 0.000000 0.017356
v -0.003468 0.000000 0.017640
v -0.003470 0.000000 0.017674
v -0.003469 0.000000 0.017708
v -0.003466 0.000000 0.017742
v -0.003459 0.000000 0.017775
v -0.004877 0.000000 0.019561
v -0.005269 0.000000 0.020159
v -0.005250 0.000000 0.020187
v -0.006179 0.000000 0.022908
v -0.006165 0.000000 0.022939
v -0.005880 0.000000 0.022362
v -0.005691 0.000000 0.026074
v -0.005658 0.000000 0.026080
v -0.005818 0.000000 0.025343
v -0.005624 0.000000 0.026083
v -0.004462 0.000000 0.024504
v -0.004030 0.000000 0.026148
v -0.003881 0.000000 0.026486
v -0.003713 0.000000 0.026814
v 0.008438 0.000000 0.024483
v 0.009606 0.000000 0.026058
v 0.009706 0.000000 0.026041
v 0.009738 0.000000 0.026030
v 0.009769 0.000000 0.026016
v 0.008973 0.000000 0.019546
v 0.008939 0.000000 0.019540
v -0.003431 0.000000 0.017510
v -0.003444 0.000000 0.017541
v -0.003455 0.000000 0.017573
v -0.003272 0.000000 0.017338
v -0.003450 0.000000 0.017808
v -0.005946 0.000000 0.022380
v -0.005977 0.000000 0.022393
v -0.006191 0.000000 0.022876
v -0.006007 0.000000 0.022408
v -0.006036 0.000000 0.022426
v -0.006148 0.000000 0.022968
v -0.006129 0.000000 0.022996
v -0.006108 0.000000 0.023022
v 0.008438 0.000000 0.028698
v 0.008674 0.000000 0.028100
v 0.008405 0.000000 0.028705
v 0.008371 0.000000 0.028710
v 0.008718 0.000000 0.028426
v 0.008726 0.000000 0.028393
v 0.009798 0.000000 0.025999
v 0.009826 0.000000 0.025980
v 0.009853 0.000000 0.025959
v 0.009877 0.000000 0.025935
v 0.009900 0.000000 0.025909
v 0.009920 0.000000 0.025882
v 0.009938 0.000000 0.025853
v 0.009953 0.000000 0.025823
v 0.009965 0.000000 0.025791
v 0.009975 0.000000 0.025557
v 0.009965 0.000000 0.025525
v 0.009899 0.000000 0.025407
v 0.009877 0.000000 0.025382
v 0.009852 0.000000 0.025358
v 0.009987 0.000000 0.025624
v 0.009068 0.000000 0.019581
v 0.009097 0.000000 0.019598
v 0.009125 0.000000 0.019617
v 0.008905 0.000000 0.019537
v 0.008871 0.000000 0.019537
v 0.007065 0.000000 0.017268
v 0.007031 0.000000 0.017266
v 0.007393 0.000000 0.017822
v 0.006997 0.000000 0.017267
v 0.006964 0.000000 0.017271
v 0.006930 0.000000 0.017278
v 0.006898 0.000000 0.017287
v 0.006866 0.000000 0.017299
v -0.004911 0.000000 0.019559
v -0.004945 0.000000 0.019559
v -0.004979 0.000000 0.019563
v -0.005321 0.000000 0.019931
v -0.005322 0.000000 0.019964
v -0.005274 0.000000 0.019769
v -0.006193 0.000000 0.022642
v -0.006182 0.000000 0.022610
v -0.006168 0.000000 0.022579
v -0.006084 0.000000 0.023047
v -0.006058 0.000000 0.023069
v -0.006031 0.000000 0.023089
v -0.006002 0.000000 0.023107
v -0.005971 0.000000 0.023122
v -0.004513 0.000000 0.023767
v -0.004498 0.000000 0.024136
v -0.004512 0.000000 0.028696
v -0.004481 0.000000 0.028709
v -0.004666 0.000000 0.028093
v -0.004280 0.000000 0.028727
v -0.004247 0.000000 0.028720
v -0.004214 0.000000 0.028710
v -0.002708 0.000000 0.028185
v -0.002445 0.000000 0.028445
v -0.002168 0.000000 0.028689
v -0.001993 0.000000 0.030676
v -0.001013 0.000000 0.017923
v 0.007697 0.000000 0.026796
v 0.008654 0.000000 0.028072
v 0.008204 0.000000 0.028690
v 0.008237 0.000000 0.028700
v 0.008270 0.000000 0.028706
v 0.008707 0.000000 0.028458
v 0.009975 0.000000 0.025759
v 0.009982 0.000000 0.025726
v 0.009987 0.000000 0.025692
v 0.010006 0.000000 0.022400
v 0.009977 0.000000 0.022382
v 0.007164 0.000000 0.017292
v 0.007132 0.000000 0.017281
v 0.007099 0.000000 0.017273
v 0.006806 0.000000 0.017331
v 0.006835 0.000000 0.017314
v -0.005320 0.000000 0.019998
v -0.005315 0.000000 0.020032
v -0.005237 0.000000 0.019712
v -0.005308 0.000000 0.020065
v -0.005297 0.000000 0.020097
v -0.005284 0.000000 0.020129
v -0.005914 0.000000 0.022370
v -0.006063 0.000000 0.022447
v -0.006089 0.000000 0.022469
v -0.006112 0.000000 0.022494
v -0.005787 0.000000 0.026041
v -0.005756 0.000000 0.026055
v -0.005724 0.000000 0.026066
v -0.004448 0.000000 0.028719
v -0.004415 0.000000 0.028726
v -0.004381 0.000000 0.028731
v 0.004987 0.000000 0.017923
v 0.008304 0.000000 0.028711
v 0.008338 0.000000 0.028712
v 0.008471 0.000000 0.028688
v 0.008502 0.000000 0.028675
v 0.008532 0.000000 0.028659
v 0.008613 0.000000 0.028598
v 0.008637 0.000000 0.028574
v 0.008658 0.000000 0.028547
v 0.009826 0.000000 0.025337
v 0.009988 0.000000 0.025658
v 0.009982 0.000000 0.025591
v 0.009952 0.000000 0.025493
v 0.009937 0.000000 0.025463
v 0.009919 0.000000 0.025434
v 0.010003 0.000000 0.023063
v 0.010030 0.000000 0.023043
v 0.010138 0.000000 0.022552
v 0.010103 0.000000 0.022494
v 0.010082 0.000000 0.022468
v 0.009947 0.000000 0.022367
v 0.009915 0.000000 0.022354
v 0.009037 0.000000 0.019567
v 0.009005 0.000000 0.019555
v 0.007385 0.000000 0.017492
v 0.007369 0.000000 0.017463
v 0.007350 0.000000 0.017434
v 0.007329 0.000000 0.017407
v 0.007306 0.000000 0.017382
v 0.007281 0.000000 0.017360
v 0.007254 0.000000 0.017339
v -0.005012 0.000000 0.019569
v -0.005045 0.000000 0.019578
v -0.005077 0.000000 0.019590
v -0.005257 0.000000 0.019740
v -0.006133 0.000000 0.022521
v -0.006152 0.000000 0.022549
v -0.006201 0.000000 0.022675
v -0.006207 0.000000 0.022708
v -0.006209 0.000000 0.022742
v -0.006209 0.000000 0.022776
v -0.006206 0.000000 0.022810
v -0.006200 0.000000 0.022843
v -0.005817 0.000000 0.026024
v -0.005846 0.000000 0.025362
v -0.005873 0.000000 0.025384
v -0.005995 0.000000 0.025785
v -0.005985 0.000000 0.025817
v -0.005972 0.000000 0.025849
v -0.004598 0.000000 0.028642
v -0.004571 0.000000 0.028663
v -0.004542 0.000000 0.028681
v -0.004347 0.000000 0.028732
v -0.004313 0.000000 0.028731
v 0.008561 0.000000 0.028641
v 0.008588 0.000000 0.028621
v 0.008677 0.000000 0.028519
v 0.008693 0.000000 0.028489
v 0.008716 0.000000 0.028192
v 0.008732 0.000000 0.028360
v 0.008705 0.000000 0.028160
v 0.008690 0.000000 0.028129
v 0.010177 0.000000 0.022783
v 0.010180 0.000000 0.022749
v 0.010079 0.000000 0.022996
v 0.010180 0.000000 0.022715
v 0.010122 0.000000 0.022522
v 0.010058 0.000000 0.022443
v 0.010033 0.000000 0.022421
v 0.009192 0.000000 0.020191
v 0.009272 0.000000 0.019840
v 0.009263 0.000000 0.019807
v 0.009250 0.000000 0.019776
v 0.009213 0.000000 0.020164
v 0.009231 0.000000 0.020135
v 0.009247 0.000000 0.020105
v 0.007225 0.000000 0.017321
v 0.007195 0.000000 0.017305
v -0.005107 0.000000 0.019604
v -0.005137 0.000000 0.019621
v -0.005165 0.000000 0.019641
v -0.005289 0.000000 0.019799
v -0.005301 0.000000 0.019831
v -0.005897 0.000000 0.025407
v -0.005920 0.000000 0.025433
v -0.005940 0.000000 0.025460
v -0.005958 0.000000 0.025489
v -0.005973 0.000000 0.025519
v -0.005985 0.000000 0.025551
v -0.005995 0.000000 0.025583
v -0.006002 0.000000 0.025616
v -0.006007 0.000000 0.025650
v -0.006002 0.000000 0.025752
v -0.005939 0.000000 0.025908
v -0.005919 0.000000 0.025935
v -0.006006 0.000000 0.025718
v -0.005896 0.000000 0.025961
v -0.005872 0.000000 0.025984
v -0.006008 0.000000 0.025684
v -0.005845 0.000000 0.026005
v -0.004687 0.000000 0.028541
v -0.004668 0.000000 0.028569
v -0.004685 0.000000 0.028121
v -0.004647 0.000000 0.028595
v -0.004624 0.000000 0.028620
v -0.002383 0.000000 0.030688
v -0.002352 0.000000 0.030703
v -0.002320 0.000000 0.030714
v -0.002287 0.000000 0.030723
v -0.002254 0.000000 0.030729
v -0.002086 0.000000 0.030717
v -0.002119 0.000000 0.030725
v -0.002152 0.000000 0.030730
v -0.002054 0.000000 0.030706
v -0.002023 0.000000 0.030692
v -0.001013 0.000000 0.002923
v -0.001266 0.000000 0.018062
v 0.008731 0.000000 0.028258
v 0.008725 0.000000 0.028225
v 0.008734 0.000000 0.028292
v 0.008734 0.000000 0.028326
v 0.009260 0.000000 0.020074
v 0.009270 0.000000 0.020041
v 0.009277 0.000000 0.020008
v 0.009282 0.000000 0.019975
v 0.009284 0.000000 0.019941
v 0.009235 0.000000 0.019745
v 0.009218 0.000000 0.019716
v 0.009198 0.000000 0.019689
v -0.005191 0.000000 0.019662
v -0.005215 0.000000 0.019686
v -0.005311 0.000000 0.019864
v -0.005317 0.000000 0.019897
v -0.005957 0.000000 0.025879
v -0.002587 0.000000 0.030430
v -0.002577 0.000000 0.030462
v -0.002533 0.000000 0.030554
v -0.002513 0.000000 0.030581
v -0.002491 0.000000 0.030607
v -0.002466 0.000000 0.030630
v -0.002220 0.000000 0.030732
v -0.002186 0.000000 0.030733
v 0.004987 0.000000 0.002923
v 0.010101 0.000000 0.022970
v 0.010120 0.000000 0.022942
v 0.010162 0.000000 0.022849
v 0.010137 0.000000 0.022912
v 0.010151 0.000000 0.022881
v 0.010171 0.000000 0.022817
v 0.010177 0.000000 0.022682
v 0.010172 0.000000 0.022648
v 0.010163 0.000000 0.022615
v 0.009283 0.000000 0.019907
v 0.009279 0.000000 0.019873
v 0.009176 0.000000 0.019663
v 0.009152 0.000000 0.019639
v 0.007405 0.000000 0.017790
v 0.007409 0.000000 0.017556
v 0.007398 0.000000 0.017524
v 0.007414 0.000000 0.017757
v 0.007420 0.000000 0.017724
v 0.007424 0.000000 0.017690
v 0.007424 0.000000 0.017656
v 0.007422 0.000000 0.017622
v 0.007417 0.000000 0.017589
v -0.002565 0.000000 0.030494
v -0.002550 0.000000 0.030524
v -0.002440 0.000000 0.030652
v -0.002412 0.000000 0.030671
v 0.010056 0.000000 0.023021
v 0.010152 0.000000 0.022583
v -0.004702 0.000000 0.028151
v -0.004716 0.000000 0.028182
v -0.004728 0.000000 0.028214
v -0.004745 0.000000 0.028348
v -0.004743 0.000000 0.028381
v -0.004745 0.000000 0.028314
v -0.004737 0.000000 0.028415
v -0.004742 0.000000 0.028280
v -0.004729 0.000000 0.028448
v -0.004717 0.000000 0.028480
v -0.004736 0.000000 0.028246
v -0.004704 0.000000 0.028511
v -0.002594 0.000000 0.030397
v -0.002593 0.000000 0.030261
v -0.002598 0.000000 0.030363
v -0.002597 0.000000 0.030295
v -0.002599 0.000000 0.030329
v 0.001814 0.000000 -0.003719
v 0.001469 0.000000 -0.003689
v 0.001128 0.000000 -0.003629
v 0.000794 0.000000 -0.003540
v 0.000468 0.000000 -0.003423
v 0.000154 0.000000 -0.003278
v -0.000147 0.000000 -0.003106
v -0.000431 0.000000 -0.002909
v -0.000697 0.000000 -0.002688
v -0.000944 0.000000 -0.002445
v -0.001168 0.000000 -0.002181
v -0.001369 0.000000 -0.001899
v -0.001544 0.000000 -0.001601
v -0.001694 0.000000 -0.001289
v -0.001815 0.000000 -0.000965
v -0.001908 0.000000 -0.000632
v -0.001972 0.000000 -0.000291
v -0.002007 0.000000 0.000053
v -0.002011 0.000000 0.000399
v -0.001986 0.000000 0.000744
v -0.001931 0.000000 0.001086
v -0.001846 0.000000 0.001421
v -0.001733 0.000000 0.001748
v -0.001592 0.000000 0.002064
v -0.001424 0.000000 0.002367
v -0.001231 0.000000 0.002654
v 0.005204 0.000000 0.002654
v 0.005398 0.000000 0.002367
v 0.005566 0.000000 0.002064
v 0.005707 0.000000 0.001748
v 0.005820 0.000000 0.001421
v 0.005904 0.000000 0.001086
v 0.005960 0.000000 0.000744
v 0.005985 0.000000 0.000399
v 0.005981 0.000000 0.000053
v 0.005946 0.000000 -0.000291
v 0.005882 0.000000 -0.000632
v 0.005789 0.000000 -0.000965
v 0.005667 0.000000 -0.001289
v 0.005518 0.000000 -0.001601
v 0.005343 0.000000 -0.001899
v 0.005142 0.000000 -0.002181
v 0.004918 0.000000 -0.002445
v 0.004671 0.000000 -0.002688
v 0.004405 0.000000 -0.002909
v 0.004120 0.000000 -0.003106
v 0.003820 0.000000 -0.003278
v 0.003506 0.000000 -0.003423
v 0.003180 0.000000 -0.003540
v 0.002846 0.000000 -0.003629
v 0.002505 0.000000 -0.003689
v 0.002160 0.000000 -0.003719
v 0.006696 -0.004000 0.028170
v 0.006434 -0.004000 0.028430
v 0.008204 -0.004000 0.028690
v 0.008654 -0.004000 0.028072
v 0.008674 -0.004000 0.028100
v 0.008690 -0.004000 0.028129
v 0.008705 -0.004000 0.028160
v 0.008716 -0.004000 0.028192
v 0.008725 -0.004000 0.028225
v 0.008731 -0.004000 0.028258
v 0.008734 -0.004000 0.028292
v 0.008734 -0.004000 0.028326
v 0.008732 -0.004000 0.028360
v 0.008726 -0.004000 0.028393
v 0.008718 -0.004000 0.028426
v 0.008707 -0.004000 0.028458
v 0.008693 -0.004000 0.028489
v 0.008677 -0.004000 0.028519
v 0.008658 -0.004000 0.028547
v 0.008637 -0.004000 0.028574
v 0.008613 -0.004000 0.028598
v 0.008588 -0.004000 0.028621
v 0.008561 -0.004000 0.028641
v 0.008532 -0.004000 0.028659
v 0.008502 -0.004000 0.028675
v 0.008471 -0.004000 0.028688
v 0.008438 -0.004000 0.028698
v 0.008405 -0.004000 0.028705
v 0.008371 -0.004000 0.028710
v 0.008338 -0.004000 0.028712
v 0.008304 -0.004000 0.028711
v 0.008270 -0.004000 0.028706
v 0.008237 -0.004000 0.028700
v 0.007697 -0.004000 0.026796
v -0.003881 -0.004000 0.026486
v -0.004030 -0.004000 0.026148
v -0.001513 -0.004000 0.018212
v 0.009943 -0.004000 0.023096
v 0.008487 -0.004000 0.023746
v 0.008279 -0.004000 0.022059
v -0.002814 -0.004000 0.019307
v -0.002853 -0.004000 0.017347
v -0.003438 -0.004000 0.017839
v 0.004987 -0.004000 0.017923
v 0.005469 -0.004000 0.018201
v -0.002708 -0.004000 0.028185
v -0.002445 -0.004000 0.028445
v -0.002168 -0.004000 0.028689
v 0.008438 -0.004000 0.024483
v -0.005880 -0.004000 0.022362
v -0.004310 -0.004000 0.022079
v -0.004513 -0.004000 0.023767
v -0.004498 -0.004000 0.024136
v -0.004209 -0.004000 0.021724
v -0.004087 -0.004000 0.021376
v -0.003055 -0.004000 0.019587
v 0.007015 -0.004000 0.019571
v 0.007241 -0.004000 0.019863
v 0.008838 -0.004000 0.019539
v 0.008871 -0.004000 0.019537
v 0.009170 -0.004000 0.020216
v 0.008054 -0.004000 0.021356
v -0.004462 -0.004000 0.024504
v -0.005818 -0.004000 0.025343
v -0.005624 -0.004000 0.026083
v -0.005658 -0.004000 0.026080
v -0.006089 -0.004000 0.022469
v -0.006063 -0.004000 0.022447
v -0.006191 -0.004000 0.022876
v -0.005230 -0.004000 0.020214
v -0.004877 -0.004000 0.019561
v -0.005207 -0.004000 0.020240
v -0.004844 -0.004000 0.019567
v -0.003280 -0.004000 0.019880
v -0.003272 -0.004000 0.017338
v -0.003242 -0.004000 0.017322
v -0.003211 -0.004000 0.017308
v -0.003179 -0.004000 0.017298
v -0.003146 -0.004000 0.017290
v -0.003112 -0.004000 0.017285
v -0.003078 -0.004000 0.017283
v 0.008804 -0.004000 0.019544
v 0.009850 -0.004000 0.022337
v 0.009883 -0.004000 0.022344
v 0.009915 -0.004000 0.022354
v 0.010006 -0.004000 0.022400
v 0.010033 -0.004000 0.022421
v -0.002287 -0.004000 0.030723
v -0.002320 -0.004000 0.030714
v -0.002585 -0.004000 0.030228
v -0.003713 -0.004000 0.026814
v -0.004666 -0.004000 0.028093
v -0.004214 -0.004000 0.028710
v -0.004247 -0.004000 0.028720
v -0.005691 -0.004000 0.026074
v -0.005724 -0.004000 0.026066
v -0.005756 -0.004000 0.026055
v -0.005958 -0.004000 0.025489
v -0.005940 -0.004000 0.025460
v -0.005817 -0.004000 0.026024
v -0.003459 -0.004000 0.017775
v -0.003466 -0.004000 0.017742
v -0.003301 -0.004000 0.017356
v -0.003469 -0.004000 0.017708
v -0.003470 -0.004000 0.017674
v -0.002977 -0.004000 0.017294
v -0.002945 -0.004000 0.017303
v 0.007099 -0.004000 0.017273
v 0.007393 -0.004000 0.017822
v 0.007065 -0.004000 0.017268
v 0.007031 -0.004000 0.017266
v 0.008176 -0.004000 0.021704
v 0.009987 -0.004000 0.025624
v 0.009982 -0.004000 0.025591
v 0.009975 -0.004000 0.025557
v 0.009826 -0.004000 0.025337
v 0.009798 -0.004000 0.025318
v -0.001938 -0.004000 0.030636
v -0.001965 -0.004000 0.030657
v -0.001993 -0.004000 0.030676
v -0.005920 -0.004000 0.025433
v -0.005897 -0.004000 0.025407
v -0.005873 -0.004000 0.025384
v -0.005787 -0.004000 0.026041
v -0.005846 -0.004000 0.025362
v -0.006036 -0.004000 0.022426
v -0.006007 -0.004000 0.022408
v -0.005977 -0.004000 0.022393
v -0.005250 -0.004000 0.020187
v -0.005269 -0.004000 0.020159
v -0.004911 -0.004000 0.019559
v -0.004945 -0.004000 0.019559
v -0.003463 -0.004000 0.017606
v -0.003455 -0.004000 0.017573
v -0.003444 -0.004000 0.017541
v -0.003353 -0.004000 0.017400
v -0.003376 -0.004000 0.017425
v -0.003396 -0.004000 0.017452
v -0.003468 -0.004000 0.017640
v -0.003328 -0.004000 0.017377
v -0.003044 -0.004000 0.017284
v -0.003011 -0.004000 0.017287
v -0.002913 -0.004000 0.017315
v -0.002882 -0.004000 0.017330
v 0.006835 -0.004000 0.017314
v 0.006866 -0.004000 0.017299
v 0.006898 -0.004000 0.017287
v 0.006930 -0.004000 0.017278
v 0.006964 -0.004000 0.017271
v 0.006997 -0.004000 0.017267
v 0.008905 -0.004000 0.019537
v 0.008939 -0.004000 0.019540
v 0.008973 -0.004000 0.019546
v 0.009852 -0.004000 0.025358
v 0.009877 -0.004000 0.025382
v 0.009899 -0.004000 0.025407
v 0.007864 -0.004000 0.026467
v -0.001013 -0.004000 0.002923
v -0.004280 -0.004000 0.028727
v -0.004313 -0.004000 0.028731
v -0.004347 -0.004000 0.028732
v -0.004381 -0.004000 0.028731
v -0.004415 -0.004000 0.028726
v -0.004685 -0.004000 0.028121
v -0.004448 -0.004000 0.028719
v -0.004481 -0.004000 0.028709
v -0.006008 -0.004000 0.025684
v -0.006006 -0.004000 0.025718
v -0.005845 -0.004000 0.026005
v -0.005872 -0.004000 0.025984
v -0.005896 -0.004000 0.025961
v -0.005919 -0.004000 0.025935
v -0.005939 -0.004000 0.025908
v -0.005972 -0.004000 0.025849
v -0.005985 -0.004000 0.025817
v -0.005995 -0.004000 0.025785
v -0.006007 -0.004000 0.025650
v -0.006002 -0.004000 0.025616
v -0.005995 -0.004000 0.025583
v -0.005985 -0.004000 0.025551
v -0.005973 -0.004000 0.025519
v -0.005971 -0.004000 0.023122
v -0.006002 -0.004000 0.023107
v -0.006031 -0.004000 0.023089
v -0.006108 -0.004000 0.023022
v -0.006129 -0.004000 0.022996
v -0.006148 -0.004000 0.022968
v -0.006165 -0.004000 0.022939
v -0.006179 -0.004000 0.022908
v -0.006193 -0.004000 0.022642
v -0.006182 -0.004000 0.022610
v -0.006168 -0.004000 0.022579
v -0.006152 -0.004000 0.022549
v -0.003450 -0.004000 0.017808
v -0.003431 -0.004000 0.017510
v -0.003415 -0.004000 0.017480
v 0.006773 -0.004000 0.019292
v 0.006806 -0.004000 0.017331
v 0.007132 -0.004000 0.017281
v 0.007164 -0.004000 0.017292
v 0.007195 -0.004000 0.017305
v 0.009947 -0.004000 0.022367
v 0.009977 -0.004000 0.022382
v 0.009988 -0.004000 0.025658
v 0.009987 -0.004000 0.025692
v 0.009982 -0.004000 0.025726
v 0.009952 -0.004000 0.025493
v 0.009965 -0.004000 0.025525
v 0.009919 -0.004000 0.025434
v 0.009937 -0.004000 0.025463
v -0.002023 -0.004000 0.030692
v -0.002054 -0.004000 0.030706
v -0.002086 -0.004000 0.030717
v -0.002119 -0.004000 0.030725
v -0.002152 -0.004000 0.030730
v -0.002186 -0.004000 0.030733
v -0.002491 -0.004000 0.030607
v -0.002513 -0.004000 0.030581
v -0.002533 -0.004000 0.030554
v -0.004512 -0.004000 0.028696
v -0.004542 -0.004000 0.028681
v -0.004571 -0.004000 0.028663
v -0.004598 -0.004000 0.028642
v -0.004624 -0.004000 0.028620
v -0.004647 -0.004000 0.028595
v -0.005957 -0.004000 0.025879
v -0.006002 -0.004000 0.025752
v -0.006058 -0.004000 0.023069
v -0.006084 -0.004000 0.023047
v -0.005946 -0.004000 0.022380
v -0.005914 -0.004000 0.022370
v 0.004987 -0.004000 0.002923
v 0.007329 -0.004000 0.017407
v 0.007306 -0.004000 0.017382
v 0.007281 -0.004000 0.017360
v 0.007350 -0.004000 0.017434
v 0.007369 -0.004000 0.017463
v 0.007385 -0.004000 0.017492
v 0.009005 -0.004000 0.019555
v 0.009037 -0.004000 0.019567
v 0.009068 -0.004000 0.019581
v 0.009097 -0.004000 0.019598
v 0.009125 -0.004000 0.019617
v 0.009152 -0.004000 0.019639
v 0.009284 -0.004000 0.019941
v 0.009282 -0.004000 0.019975
v 0.009277 -0.004000 0.020008
v 0.009231 -0.004000 0.020135
v 0.009213 -0.004000 0.020164
v 0.009272 -0.004000 0.019840
v 0.010058 -0.004000 0.022443
v 0.010082 -0.004000 0.022468
v 0.010103 -0.004000 0.022494
v 0.010056 -0.004000 0.023021
v 0.010030 -0.004000 0.023043
v 0.010138 -0.004000 0.022552
v 0.010003 -0.004000 0.023063
v 0.009975 -0.004000 0.025759
v 0.009965 -0.004000 0.025791
v 0.009953 -0.004000 0.025823
v -0.001013 -0.004000 0.017923
v -0.002220 -0.004000 0.030732
v -0.002254 -0.004000 0.030729
v -0.002352 -0.004000 0.030703
v -0.002383 -0.004000 0.030688
v -0.002412 -0.004000 0.030671
v -0.004728 -0.004000 0.028214
v -0.004716 -0.004000 0.028182
v -0.004687 -0.004000 0.028541
v -0.006200 -0.004000 0.022843
v -0.006206 -0.004000 0.022810
v -0.006209 -0.004000 0.022776
v -0.006209 -0.004000 0.022742
v -0.006207 -0.004000 0.022708
v -0.006201 -0.004000 0.022675
v -0.006133 -0.004000 0.022521
v -0.006112 -0.004000 0.022494
v 0.007225 -0.004000 0.017321
v 0.007254 -0.004000 0.017339
v 0.009192 -0.004000 0.020191
v 0.009263 -0.004000 0.019807
v 0.010163 -0.004000 0.022615
v 0.010172 -0.004000 0.022648
v 0.010079 -0.004000 0.022996
v 0.010180 -0.004000 0.022749
v 0.010177 -0.004000 0.022783
v 0.010122 -0.004000 0.022522
v 0.009974 -0.004000 0.023081
v 0.008012 -0.004000 0.026128
v -0.002440 -0.004000 0.030652
v -0.002466 -0.004000 0.030630
v -0.002550 -0.004000 0.030524
v -0.002565 -0.004000 0.030494
v -0.002577 -0.004000 0.030462
v -0.002587 -0.004000 0.030430
v -0.002594 -0.004000 0.030397
v -0.002598 -0.004000 0.030363
v -0.004704 -0.004000 0.028511
v -0.004717 -0.004000 0.028480
v -0.004742 -0.004000 0.028280
v -0.004668 -0.004000 0.028569
v -0.004702 -0.004000 0.028151
v -0.005284 -0.004000 0.020129
v -0.005297 -0.004000 0.020097
v -0.005237 -0.004000 0.019712
v -0.005308 -0.004000 0.020065
v -0.005315 -0.004000 0.020032
v -0.005320 -0.004000 0.019998
v -0.005322 -0.004000 0.019964
v -0.005257 -0.004000 0.019740
v -0.005107 -0.004000 0.019604
v -0.005077 -0.004000 0.019590
v -0.005045 -0.004000 0.019578
v 0.009218 -0.004000 0.019716
v 0.009235 -0.004000 0.019745
v 0.009250 -0.004000 0.019776
v 0.009283 -0.004000 0.019907
v 0.009270 -0.004000 0.020041
v 0.009260 -0.004000 0.020074
v 0.009247 -0.004000 0.020105
v 0.010177 -0.004000 0.022682
v 0.010180 -0.004000 0.022715
v 0.010120 -0.004000 0.022942
v 0.010162 -0.004000 0.022849
v 0.010137 -0.004000 0.022912
v 0.010151 -0.004000 0.022881
v 0.010171 -0.004000 0.022817
v 0.010101 -0.004000 0.022970
v 0.009938 -0.004000 0.025853
v 0.009920 -0.004000 0.025882
v 0.009900 -0.004000 0.025909
v -0.002599 -0.004000 0.030329
v -0.002597 -0.004000 0.030295
v -0.002593 -0.004000 0.030261
v -0.004729 -0.004000 0.028448
v -0.004737 -0.004000 0.028415
v -0.004745 -0.004000 0.028314
v -0.004743 -0.004000 0.028381
v -0.004745 -0.004000 0.028348
v -0.004736 -0.004000 0.028246
v -0.005012 -0.004000 0.019569
v -0.004979 -0.004000 0.019563
v 0.007424 -0.004000 0.017656
v 0.007409 -0.004000 0.017556
v 0.007422 -0.004000 0.017622
v 0.007417 -0.004000 0.017589
v 0.007424 -0.004000 0.017690
v 0.007420 -0.004000 0.017724
v 0.007414 -0.004000 0.017757
v 0.007398 -0.004000 0.017524
v 0.007405 -0.004000 0.017790
v 0.009176 -0.004000 0.019663
v 0.009198 -0.004000 0.019689
v 0.009279 -0.004000 0.019873
v 0.010152 -0.004000 0.022583
v 0.009673 -0.004000 0.026049
v 0.009640 -0.004000 0.026055
v 0.009606 -0.004000 0.026058
v 0.009877 -0.004000 0.025935
v 0.009853 -0.004000 0.025959
v 0.009826 -0.004000 0.025980
v -0.001815 -0.004000 -0.000965
v -0.001694 -0.004000 -0.001289
v -0.005274 -0.004000 0.019769
v -0.005321 -0.004000 0.019931
v -0.005317 -0.004000 0.019897
v -0.005191 -0.004000 0.019662
v -0.005165 -0.004000 0.019641
v -0.005137 -0.004000 0.019621
v 0.008473 -0.004000 0.024115
v -0.001266 -0.004000 0.018062
v -0.005311 -0.004000 0.019864
v -0.005301 -0.004000 0.019831
v -0.005289 -0.004000 0.019799
v -0.005215 -0.004000 0.019686
v 0.009798 -0.004000 0.025999
v 0.009769 -0.004000 0.026016
v 0.009738 -0.004000 0.026030
v -0.001544 -0.004000 -0.001601
v -0.001369 -0.004000 -0.001899
v -0.001168 -0.004000 -0.002181
v -0.000944 -0.004000 -0.002445
v -0.000697 -0.004000 -0.002688
v -0.000431 -0.004000 -0.002909
v -0.000147 -0.004000 -0.003106
v 0.000154 -0.004000 -0.003278
v 0.000468 -0.004000 -0.003423
v 0.000794 -0.004000 -0.003540
v 0.001128 -0.004000 -0.003629
v 0.001469 -0.004000 -0.003689
v 0.001814 -0.004000 -0.003719
v 0.002160 -0.004000 -0.003719
v 0.002505 -0.004000 -0.003689
v 0.002846 -0.004000 -0.003629
v 0.003180 -0.004000 -0.003540
v 0.003506 -0.004000 -0.003423
v 0.003820 -0.004000 -0.003278
v 0.004120 -0.004000 -0.003106
v 0.004405 -0.004000 -0.002909
v 0.004671 -0.004000 -0.002688
v 0.004918 -0.004000 -0.002445
v 0.005142 -0.004000 -0.002181
v 0.005343 -0.004000 -0.001899
v 0.005518 -0.004000 -0.001601
v 0.005667 -0.004000 -0.001289
v 0.005789 -0.004000 -0.000965
v 0.005882 -0.004000 -0.000632
v 0.005946 -0.004000 -0.000291
v 0.005981 -0.004000 0.000053
v 0.005985 -0.004000 0.000399
v 0.005960 -0.004000 0.000744
v 0.005904 -0.004000 0.001086
v 0.005820 -0.004000 0.001421
v 0.005707 -0.004000 0.001748
v 0.005566 -0.004000 0.002064
v 0.005398 -0.004000 0.002367
v 0.005204 -0.004000 0.002654
v 0.009706 -0.004000 0.026041
v -0.001592 -0.004000 0.002064
v -0.001733 -0.004000 0.001748
v -0.001986 -0.004000 0.000744
v -0.002011 -0.004000 0.000399
v -0.002007 -0.004000 0.000053
v -0.001972 -0.004000 -0.000291
v -0.001908 -0.004000 -0.000632
v -0.001424 -0.004000 0.002367
v -0.001231 -0.004000 0.002654
v -0.001846 -0.004000 0.001421
v -0.001931 -0.004000 0.001086
# 1352 vertices, 0 vertices normals

f 1 2 3
f 1 3 4
f 3 5 4
f 4 5 6
f 1 7 2
f 7 8 2
f 9 10 11
f 9 11 12
f 11 13 12
f 12 13 14
f 13 15 14
f 14 15 16
f 15 17 16
f 16 17 18
f 17 19 18
f 18 19 20
f 19 21 20
f 20 21 22
f 21 23 22
f 22 23 24
f 23 25 24
f 24 25 26
f 25 27 26
f 26 27 28
f 27 29 28
f 28 29 30
f 29 31 30
f 30 31 32
f 31 33 32
f 32 33 34
f 33 35 34
f 34 35 36
f 35 37 36
f 36 37 38
f 37 39 38
f 38 39 40
f 39 41 40
f 40 41 42
f 41 43 42
f 42 43 44
f 43 45 44
f 44 45 46
f 45 47 46
f 46 47 48
f 47 49 48
f 48 49 50
f 49 51 50
f 50 51 52
f 51 53 52
f 52 53 54
f 53 55 54
f 54 55 56
f 55 57 56
f 56 57 58
f 57 59 58
f 58 59 60
f 59 61 60
f 60 61 62
f 61 63 62
f 62 63 64
f 63 65 64
f 64 65 66
f 65 67 66
f 66 67 68
f 67 8 68
f 68 8 7
f 9 69 10
f 69 70 10
f 71 72 73
f 72 74 73
f 73 74 75
f 74 76 75
f 75 76 77
f 76 78 77
f 77 78 79
f 78 80 79
f 79 80 81
f 80 82 81
f 81 82 83
f 82 84 83
f 83 84 85
f 84 86 85
f 85 86 87
f 86 88 87
f 87 88 89
f 88 90 89
f 89 90 91
f 90 92 91
f 91 92 93
f 92 94 93
f 93 94 95
f 94 96 95
f 95 96 97
f 96 98 97
f 97 98 99
f 98 100 99
f 99 100 101
f 100 102 101
f 101 102 103
f 102 104 103
f 103 104 105
f 104 106 105
f 105 106 107
f 106 108 107
f 107 108 109
f 108 110 109
f 109 110 111
f 110 112 111
f 111 112 113
f 112 114 113
f 113 114 115
f 114 116 115
f 115 116 117
f 116 118 117
f 117 118 119
f 118 120 119
f 119 120 121
f 120 122 121
f 121 122 123
f 122 124 123
f 123 124 125
f 124 126 125
f 125 126 127
f 126 128 127
f 127 128 129
f 128 130 129
f 129 130 131
f 130 132 131
f 131 132 133
f 132 134 133
f 133 134 135
f 134 136 135
f 135 136 137
f 136 138 137
f 137 138 139
f 138 140 139
f 139 140 141
f 140 142 141
f 141 142 143
f 142 144 143
f 143 144 145
f 144 146 145
f 145 146 147
f 146 148 147
f 147 148 149
f 148 150 149
f 149 150 151
f 150 152 151
f 151 152 153
f 152 154 153
f 153 154 155
f 154 156 155
f 155 156 157
f 156 158 157
f 157 158 159
f 158 160 159
f 159 160 161
f 160 162 161
f 161 162 163
f 162 164 163
f 163 164 165
f 164 166 165
f 165 166 167
f 166 168 167
f 167 168 169
f 168 170 169
f 169 170 171
f 170 172 171
f 171 172 173
f 172 174 173
f 173 174 175
f 174 176 175
f 175 176 177
f 176 178 177
f 177 178 179
f 178 180 179
f 179 180 181
f 180 182 181
f 181 182 183
f 182 184 183
f 183 184 185
f 184 186 185
f 185 186 187
f 186 188 187
f 187 188 189
f 188 190 189
f 189 190 191
f 190 192 191
f 191 192 193
f 192 194 193
f 193 194 195
f 194 196 195
f 195 196 197
f 196 198 197
f 197 198 199
f 198 200 199
f 199 200 201
f 200 202 201
f 201 202 203
f 202 204 203
f 203 204 205
f 204 206 205
f 205 206 207
f 206 208 207
f 207 208 209
f 208 210 209
f 209 210 211
f 210 212 211
f 211 212 213
f 212 214 213
f 213 214 71
f 214 72 71
f 215 216 217
f 215 217 218
f 217 70 218
f 218 70 69
f 215 219 216
f 219 220 216
f 221 222 223
f 221 223 224
f 223 225 224
f 224 225 226
f 225 227 226
f 226 227 228
f 227 229 228
f 228 229 230
f 229 231 230
f 230 231 232
f 231 233 232
f 232 233 234
f 233 235 234
f 234 235 236
f 235 237 236
f 236 237 238
f 237 239 238
f 238 239 240
f 239 241 240
f 240 241 242
f 241 243 242
f 242 243 244
f 243 245 244
f 244 245 246
f 245 247 246
f 246 247 248
f 247 249 248
f 248 249 250
f 249 251 250
f 250 251 252
f 251 253 252
f 252 253 254
f 253 255 254
f 254 255 256
f 255 257 256
f 256 257 258
f 257 259 258
f 258 259 260
f 259 261 260
f 260 261 262
f 261 263 262
f 262 263 264
f 263 265 264
f 264 265 266
f 265 267 266
f 266 267 268
f 267 269 268
f 268 269 270
f 269 271 270
f 270 271 272
f 271 273 272
f 272 273 274
f 273 275 274
f 274 275 276
f 275 277 276
f 276 277 278
f 277 279 278
f 278 279 280
f 279 220 280
f 280 220 219
f 221 281 222
f 281 282 222
f 283 284 285
f 284 286 285
f 285 286 287
f 286 288 287
f 287 288 289
f 288 290 289
f 289 290 291
f 290 292 291
f 291 292 293
f 292 294 293
f 293 294 295
f 294 296 295
f 295 296 297
f 296 298 297
f 297 298 299
f 298 300 299
f 299 300 301
f 300 302 301
f 301 302 303
f 302 304 303
f 303 304 305
f 304 306 305
f 305 306 307
f 306 308 307
f 307 308 309
f 308 310 309
f 309 310 311
f 310 312 311
f 311 312 313
f 312 314 313
f 313 314 315
f 314 316 315
f 315 316 317
f 316 318 317
f 317 318 319
f 318 320 319
f 319 320 321
f 320 322 321
f 321 322 323
f 322 324 323
f 323 324 325
f 324 326 325
f 325 326 327
f 326 328 327
f 327 328 329
f 328 330 329
f 329 330 331
f 330 332 331
f 331 332 333
f 332 334 333
f 333 334 335
f 334 336 335
f 335 336 337
f 336 338 337
f 337 338 339
f 338 340 339
f 339 340 341
f 340 342 341
f 341 342 343
f 342 344 343
f 343 344 345
f 344 346 345
f 345 346 347
f 346 348 347
f 347 348 349
f 348 350 349
f 349 350 351
f 350 352 351
f 351 352 353
f 352 354 353
f 353 354 355
f 354 356 355
f 355 356 357
f 356 358 357
f 357 358 359
f 358 360 359
f 359 360 361
f 360 362 361
f 361 362 363
f 362 364 363
f 363 364 365
f 364 366 365
f 365 366 367
f 366 368 367
f 367 368 369
f 368 370 369
f 369 370 371
f 370 372 371
f 371 372 373
f 372 374 373
f 373 374 375
f 374 376 375
f 375 376 377
f 376 378 377
f 377 378 379
f 378 380 379
f 379 380 381
f 380 382 381
f 381 382 383
f 382 384 383
f 383 384 385
f 384 386 385
f 385 386 387
f 386 388 387
f 387 388 389
f 388 390 389
f 389 390 391
f 390 392 391
f 391 392 393
f 392 394 393
f 393 394 395
f 394 396 395
f 395 396 397
f 396 398 397
f 397 398 399
f 398 400 399
f 399 400 401
f 400 402 401
f 401 402 403
f 402 404 403
f 403 404 405
f 404 406 405
f 405 406 407
f 406 408 407
f 407 408 409
f 408 410 409
f 409 410 411
f 410 412 411
f 411 412 413
f 412 414 413
f 413 414 415
f 414 416 415
f 415 416 417
f 416 418 417
f 417 418 419
f 418 420 419
f 419 420 421
f 420 422 421
f 421 422 423
f 422 424 423
f 423 424 425
f 424 426 425
f 425 426 283
f 426 284 283
f 427 428 429
f 427 429 430
f 429 282 430
f 430 282 281
f 427 431 428
f 431 432 428
f 433 434 435
f 433 435 436
f 435 437 436
f 436 437 438
f 437 439 438
f 438 439 440
f 439 441 440
f 440 441 442
f 441 443 442
f 442 443 444
f 443 445 444
f 444 445 446
f 445 447 446
f 446 447 448
f 447 449 448
f 448 449 450
f 449 451 450
f 450 451 452
f 451 453 452
f 452 453 454
f 453 455 454
f 454 455 456
f 455 457 456
f 456 457 458
f 457 459 458
f 458 459 460
f 459 461 460
f 460 461 462
f 461 463 462
f 462 463 464
f 463 465 464
f 464 465 466
f 465 467 466
f 466 467 468
f 467 469 468
f 468 469 470
f 469 471 470
f 470 471 472
f 471 473 472
f 472 473 474
f 473 475 474
f 474 475 476
f 475 477 476
f 476 477 478
f 477 479 478
f 478 479 480
f 479 481 480
f 480 481 482
f 481 483 482
f 482 483 484
f 483 485 484
f 484 485 486
f 485 487 486
f 486 487 488
f 487 489 488
f 488 489 490
f 489 491 490
f 490 491 492
f 491 432 492
f 492 432 431
f 433 493 434
f 493 494 434
f 495 496 497
f 498 499 500
f 501 502 500
f 503 504 500
f 505 506 507
f 508 509 510
f 509 511 510
f 510 511 512
f 508 513 514
f 513 515 514
f 514 515 516
f 515 517 516
f 516 517 518
f 216 345 347
f 216 353 217
f 353 355 217
f 217 355 70
f 507 506 519
f 510 520 521
f 521 522 510
f 522 523 510
f 510 523 524
f 508 514 509
f 514 525 509
f 509 525 526
f 347 349 216
f 349 351 216
f 216 351 353
f 494 428 434
f 428 432 434
f 51 49 8
f 25 23 8
f 527 500 528
f 500 502 528
f 528 502 529
f 502 530 529
f 529 530 531
f 530 532 531
f 506 533 519
f 533 534 519
f 519 534 535
f 510 536 537
f 538 539 540
f 329 331 216
f 331 333 216
f 487 485 434
f 51 8 53
f 43 41 8
f 41 39 8
f 8 39 37
f 37 35 8
f 35 33 8
f 8 33 31
f 541 542 543
f 512 544 510
f 544 545 510
f 510 545 536
f 537 546 510
f 546 547 510
f 510 547 520
f 539 548 540
f 548 549 540
f 540 549 550
f 538 540 551
f 540 552 551
f 551 552 553
f 553 554 551
f 554 555 551
f 551 555 556
f 557 558 517
f 558 559 517
f 517 559 518
f 560 561 562
f 563 564 565
f 564 566 565
f 565 566 567
f 566 568 567
f 567 568 509
f 568 569 509
f 509 569 570
f 333 335 216
f 335 337 216
f 216 337 339
f 339 341 216
f 341 343 216
f 216 343 345
f 277 321 279
f 321 220 279
f 321 323 220
f 323 325 220
f 220 325 216
f 325 327 216
f 216 327 329
f 49 47 8
f 47 45 8
f 8 45 43
f 31 29 8
f 29 27 8
f 8 27 25
f 501 500 571
f 500 504 571
f 571 504 543
f 504 572 543
f 543 572 541
f 542 573 543
f 573 574 543
f 543 574 575
f 576 577 507
f 550 578 540
f 578 579 540
f 540 579 580
f 524 581 510
f 581 551 510
f 510 551 582
f 551 556 582
f 583 584 585
f 584 586 585
f 585 586 587
f 561 588 562
f 588 589 562
f 562 589 590
f 485 483 434
f 483 481 434
f 434 481 479
f 67 65 57
f 591 592 593
f 592 594 593
f 595 596 592
f 575 597 543
f 597 598 543
f 543 598 599
f 599 600 543
f 600 601 543
f 543 601 602
f 602 603 543
f 603 604 543
f 543 604 605
f 606 607 608
f 609 610 611
f 612 507 613
f 507 614 613
f 577 615 507
f 615 616 507
f 507 616 505
f 617 618 619
f 618 620 619
f 619 620 621
f 621 622 619
f 622 623 619
f 619 623 624
f 557 625 558
f 625 626 558
f 558 626 627
f 628 629 630
f 631 585 632
f 585 633 632
f 590 634 562
f 634 635 562
f 562 635 636
f 636 637 562
f 637 638 562
f 562 638 526
f 638 639 526
f 526 639 509
f 639 640 509
f 509 640 567
f 641 642 643
f 644 645 643
f 645 646 643
f 643 646 570
f 646 647 570
f 570 647 509
f 647 648 509
f 509 648 649
f 495 497 650
f 277 275 321
f 275 273 321
f 321 273 271
f 393 651 391
f 651 389 391
f 432 491 434
f 491 489 434
f 434 489 487
f 479 477 434
f 477 475 434
f 434 475 473
f 473 471 434
f 471 469 434
f 434 469 467
f 67 57 8
f 57 55 8
f 8 55 53
f 23 21 8
f 21 19 8
f 8 19 17
f 17 15 8
f 15 13 8
f 8 13 11
f 503 500 652
f 500 499 652
f 652 499 653
f 499 654 653
f 653 654 592
f 654 655 592
f 592 655 656
f 595 592 657
f 605 658 543
f 658 659 543
f 543 659 660
f 532 661 662
f 663 664 619
f 664 665 619
f 619 665 617
f 527 519 500
f 519 535 500
f 500 535 666
f 535 619 666
f 666 619 667
f 619 624 667
f 668 669 670
f 669 671 670
f 671 672 670
f 672 673 670
f 670 673 558
f 560 562 585
f 562 674 585
f 585 674 583
f 587 675 585
f 675 676 585
f 585 676 677
f 678 679 565
f 679 680 565
f 565 680 563
f 642 681 643
f 681 682 643
f 643 682 683
f 271 269 321
f 269 267 321
f 321 267 265
f 415 417 684
f 417 419 684
f 684 419 421
f 421 423 684
f 423 425 684
f 684 425 283
f 143 403 405
f 357 359 2
f 359 361 2
f 2 361 3
f 361 363 3
f 3 363 5
f 363 365 5
f 5 365 367
f 367 369 5
f 369 371 5
f 5 371 373
f 467 465 434
f 465 463 434
f 434 463 461
f 65 63 57
f 63 61 57
f 57 61 59
f 656 685 592
f 685 686 592
f 592 686 594
f 591 687 592
f 687 688 592
f 592 688 689
f 690 691 592
f 691 692 592
f 610 693 611
f 693 543 611
f 611 543 694
f 543 660 694
f 609 611 608
f 611 695 608
f 608 695 606
f 607 696 608
f 696 697 608
f 608 697 698
f 699 700 701
f 702 703 532
f 662 704 532
f 704 705 532
f 532 705 531
f 612 706 507
f 706 707 507
f 507 707 576
f 708 709 619
f 709 710 619
f 619 710 711
f 711 712 619
f 712 713 619
f 619 713 714
f 627 715 558
f 715 716 558
f 558 716 717
f 668 670 629
f 670 718 629
f 629 718 630
f 677 719 585
f 719 720 585
f 585 720 633
f 631 721 585
f 721 722 585
f 585 722 723
f 723 724 585
f 724 725 585
f 585 725 726
f 678 565 727
f 565 728 727
f 727 728 729
f 730 731 732
f 733 734 643
f 734 735 643
f 643 735 641
f 683 736 643
f 736 737 643
f 643 737 644
f 409 411 684
f 411 413 684
f 684 413 415
f 283 285 684
f 285 287 684
f 684 287 289
f 397 143 395
f 143 393 395
f 397 399 143
f 399 401 143
f 143 401 403
f 393 143 651
f 143 145 651
f 651 145 147
f 11 10 8
f 10 70 8
f 8 70 2
f 70 355 2
f 2 355 357
f 373 375 5
f 375 377 5
f 5 377 379
f 379 381 5
f 381 383 5
f 5 383 385
f 443 441 445
f 441 439 445
f 445 439 437
f 689 738 592
f 738 739 592
f 592 739 690
f 692 740 592
f 740 741 592
f 592 741 657
f 742 596 743
f 742 744 596
f 744 745 596
f 596 745 592
f 746 747 748
f 747 749 748
f 699 701 532
f 701 750 532
f 532 750 702
f 703 751 532
f 751 752 532
f 532 752 661
f 753 754 507
f 754 755 507
f 507 755 756
f 753 757 754
f 757 758 754
f 754 758 759
f 714 760 619
f 760 761 619
f 619 761 663
f 717 762 558
f 762 763 558
f 558 763 764
f 630 765 766
f 729 767 727
f 767 768 727
f 727 768 769
f 769 770 727
f 770 771 727
f 727 771 772
f 772 773 727
f 773 774 727
f 727 774 775
f 730 732 776
f 777 778 779
f 778 780 779
f 779 780 781
f 775 782 727
f 782 779 727
f 727 779 783
f 779 781 783
f 784 785 786
f 785 787 786
f 786 787 643
f 787 788 643
f 643 788 733
f 497 789 790
f 790 791 497
f 791 792 497
f 497 792 793
f 794 497 795
f 497 796 795
f 794 797 497
f 797 798 497
f 497 798 650
f 265 263 321
f 263 261 321
f 321 261 259
f 289 291 684
f 291 293 684
f 684 293 500
f 293 295 500
f 137 139 684
f 139 141 684
f 684 141 409
f 141 143 409
f 409 143 407
f 143 405 407
f 153 799 151
f 799 651 151
f 151 651 149
f 651 147 149
f 389 651 387
f 651 800 387
f 387 800 509
f 461 459 434
f 459 457 434
f 434 457 455
f 455 453 434
f 453 451 434
f 434 451 449
f 449 447 434
f 447 445 434
f 434 445 435
f 445 437 435
f 801 802 803
f 802 742 803
f 803 742 804
f 742 743 804
f 759 805 754
f 805 806 754
f 754 806 807
f 807 808 809
f 756 810 507
f 810 811 507
f 507 811 812
f 764 813 558
f 813 814 558
f 558 814 670
f 766 815 630
f 815 816 630
f 630 816 628
f 776 732 779
f 732 817 779
f 779 817 777
f 818 819 497
f 820 821 497
f 821 822 497
f 497 822 823
f 793 824 497
f 824 825 497
f 497 825 796
f 259 257 321
f 257 255 321
f 321 255 253
f 295 297 500
f 297 299 500
f 500 299 301
f 123 125 826
f 125 127 826
f 826 127 129
f 385 387 5
f 387 509 5
f 5 509 496
f 509 649 496
f 496 649 497
f 827 828 829
f 828 830 829
f 829 830 831
f 827 829 748
f 829 832 748
f 748 832 746
f 749 833 748
f 833 834 748
f 748 834 835
f 809 836 807
f 836 837 807
f 807 837 754
f 812 838 507
f 838 839 507
f 507 839 614
f 840 841 619
f 841 842 619
f 619 842 708
f 840 843 841
f 843 844 841
f 841 844 845
f 845 846 841
f 846 847 841
f 841 847 848
f 819 849 497
f 849 850 497
f 497 850 820
f 823 851 497
f 851 852 497
f 497 852 789
f 301 303 500
f 303 305 500
f 500 305 307
f 129 131 826
f 131 133 826
f 826 133 684
f 133 135 684
f 684 135 137
f 700 853 701
f 853 748 701
f 701 748 854
f 748 835 854
f 786 855 784
f 855 856 784
f 784 856 857
f 858 859 860
f 859 861 860
f 860 861 862
f 861 863 862
f 862 863 864
f 857 865 784
f 865 862 784
f 784 862 866
f 862 864 866
f 818 497 867
f 497 868 867
f 867 868 869
f 868 870 869
f 869 870 871
f 253 251 321
f 251 249 321
f 321 249 247
f 307 309 500
f 309 311 500
f 500 311 313
f 247 245 321
f 245 243 321
f 321 243 241
f 313 315 500
f 315 317 500
f 500 317 319
f 282 319 321
f 241 239 321
f 239 237 321
f 321 237 282
f 153 155 799
f 155 157 799
f 799 157 159
f 282 429 319
f 429 428 319
f 319 428 500
f 428 494 500
f 500 494 498
f 71 872 213
f 872 873 213
f 213 873 211
f 873 874 211
f 211 874 209
f 874 875 209
f 209 875 207
f 875 876 207
f 207 876 205
f 876 877 205
f 205 877 203
f 877 878 203
f 203 878 201
f 878 879 201
f 201 879 199
f 879 880 199
f 199 880 197
f 880 881 197
f 197 881 195
f 881 882 195
f 195 882 193
f 882 883 193
f 193 883 191
f 883 884 191
f 191 884 189
f 884 885 189
f 189 885 187
f 885 886 187
f 187 886 185
f 886 887 185
f 185 887 183
f 887 888 183
f 183 888 181
f 888 889 181
f 181 889 179
f 889 890 179
f 179 890 177
f 890 891 177
f 177 891 175
f 891 892 175
f 175 892 173
f 892 893 173
f 173 893 171
f 893 894 171
f 171 894 169
f 894 895 169
f 169 895 167
f 895 896 167
f 167 896 165
f 896 897 165
f 165 897 163
f 897 799 163
f 163 799 161
f 799 159 161
f 123 826 121
f 826 898 121
f 121 898 119
f 898 899 119
f 119 899 117
f 899 900 117
f 117 900 115
f 900 901 115
f 115 901 113
f 901 902 113
f 113 902 111
f 902 903 111
f 111 903 109
f 903 904 109
f 109 904 107
f 904 905 107
f 107 905 105
f 905 906 105
f 105 906 103
f 906 907 103
f 103 907 101
f 907 908 101
f 101 908 99
f 908 909 99
f 99 909 97
f 909 910 97
f 97 910 95
f 910 911 95
f 95 911 93
f 911 912 93
f 93 912 91
f 912 913 91
f 91 913 89
f 913 914 89
f 89 914 87
f 914 915 87
f 87 915 85
f 915 916 85
f 85 916 83
f 916 917 83
f 83 917 81
f 917 918 81
f 81 918 79
f 918 919 79
f 79 919 77
f 919 920 77
f 77 920 75
f 920 921 75
f 75 921 73
f 921 922 73
f 73 922 71
f 922 923 71
f 71 923 872
f 235 223 237
f 223 222 237
f 237 222 282
f 235 233 223
f 233 231 223
f 223 231 225
f 231 229 225
f 225 229 227
f 924 499 498
f 924 498 925
f 498 494 925
f 925 494 493
f 924 926 499
f 926 654 499
f 927 653 592
f 927 592 928
f 592 745 928
f 928 745 929
f 745 744 929
f 929 744 930
f 744 742 930
f 930 742 931
f 742 802 931
f 931 802 932
f 802 801 932
f 932 801 933
f 801 803 933
f 933 803 934
f 803 804 934
f 934 804 935
f 804 743 935
f 935 743 936
f 743 596 936
f 936 596 937
f 596 595 937
f 937 595 938
f 595 657 938
f 938 657 939
f 657 741 939
f 939 741 940
f 741 740 940
f 940 740 941
f 740 692 941
f 941 692 942
f 692 691 942
f 942 691 943
f 691 690 943
f 943 690 944
f 690 739 944
f 944 739 945
f 739 738 945
f 945 738 946
f 738 689 946
f 946 689 947
f 689 688 947
f 947 688 948
f 688 687 948
f 948 687 949
f 687 591 949
f 949 591 950
f 591 593 950
f 950 593 951
f 593 594 951
f 951 594 952
f 594 686 952
f 952 686 953
f 686 685 953
f 953 685 954
f 685 656 954
f 954 656 955
f 656 655 955
f 955 655 956
f 655 654 956
f 956 654 926
f 927 957 653
f 957 652 653
f 958 959 960
f 961 962 963
f 960 964 965
f 964 966 965
f 967 968 284
f 925 493 215
f 969 960 970
f 960 971 970
f 348 346 972
f 925 215 924
f 973 974 975
f 974 960 975
f 975 960 976
f 974 977 960
f 977 978 960
f 960 978 964
f 978 979 964
f 284 980 981
f 982 983 984
f 985 288 286
f 951 952 927
f 976 960 986
f 960 959 986
f 986 959 987
f 959 988 987
f 987 988 989
f 990 991 992
f 993 994 995
f 994 996 995
f 995 996 978
f 996 997 978
f 978 997 979
f 998 999 966
f 999 1000 966
f 966 1000 1001
f 1001 1002 966
f 1002 1003 966
f 966 1003 1004
f 286 284 985
f 284 981 985
f 985 981 984
f 981 1005 984
f 984 1005 982
f 963 1006 961
f 1006 1007 961
f 961 1007 1008
f 1009 1010 961
f 366 364 69
f 1011 1012 1013
f 958 960 1014
f 960 969 1014
f 1014 969 1015
f 969 1016 1015
f 1015 1016 1017
f 989 1018 987
f 1018 1019 987
f 987 1019 1020
f 1021 1022 1023
f 1024 1025 1026
f 1025 1027 1026
f 1026 1027 1028
f 966 1029 1030
f 1031 1032 1033
f 1032 1034 1033
f 1035 292 985
f 292 290 985
f 985 290 288
f 300 298 962
f 298 296 962
f 1036 356 1037
f 356 1038 1037
f 1039 354 1040
f 354 352 1040
f 1040 352 972
f 352 350 972
f 972 350 348
f 936 937 931
f 1041 1042 1013
f 1042 1043 1013
f 1022 1044 1023
f 1044 1045 1023
f 1023 1045 1046
f 1020 1047 987
f 1047 1023 987
f 987 1023 1048
f 1023 1046 1048
f 991 1049 992
f 1049 1050 992
f 992 1050 1051
f 993 1052 994
f 1052 1053 994
f 994 1053 1054
f 1053 1055 1054
f 1056 1057 1058
f 1059 1056 1060
f 1056 1061 1060
f 1028 1062 1026
f 1062 1056 1026
f 1026 1056 1063
f 1056 1059 1063
f 1004 1064 966
f 1064 1065 966
f 966 1065 1029
f 1030 1066 966
f 1066 1067 966
f 966 1067 965
f 284 178 176
f 1068 1069 1032
f 1069 1070 1032
f 1032 1070 1071
f 1071 1072 1032
f 1072 1073 1032
f 1032 1073 1034
f 983 1074 984
f 1074 1075 984
f 984 1075 1076
f 296 294 962
f 294 292 962
f 962 292 963
f 292 1035 963
f 1039 1077 354
f 1077 1078 354
f 354 1078 1079
f 931 937 930
f 942 943 927
f 943 944 927
f 927 944 945
f 948 949 927
f 949 950 927
f 927 950 951
f 952 953 927
f 953 954 927
f 927 954 955
f 955 956 927
f 956 926 927
f 927 926 957
f 926 924 957
f 957 924 1080
f 433 482 484
f 258 260 219
f 382 380 69
f 380 378 69
f 372 370 69
f 370 368 69
f 69 368 366
f 184 182 1081
f 1017 1082 1015
f 1082 1083 1015
f 1015 1083 1084
f 1084 1085 1015
f 1085 1086 1015
f 1015 1086 1087
f 1086 1088 1087
f 1087 1088 1089
f 1090 1023 1091
f 1023 1092 1091
f 1091 1092 1093
f 1093 1094 1091
f 1094 1095 1091
f 1091 1095 1096
f 1097 1098 1099
f 1090 1100 1023
f 1100 1101 1023
f 1023 1101 1102
f 1102 1103 1023
f 1103 1104 1023
f 1023 1104 1021
f 975 1105 973
f 1105 1106 973
f 973 1106 1107
f 1108 1109 973
f 1109 1110 973
f 1110 1111 973
f 1111 1112 973
f 973 1112 992
f 1113 1114 992
f 1114 1115 992
f 992 1115 1116
f 998 966 1026
f 966 1117 1026
f 1026 1117 1024
f 1058 1118 1056
f 1118 1119 1056
f 1056 1119 1061
f 166 284 168
f 284 170 168
f 284 150 148
f 980 284 1120
f 284 968 1120
f 1120 968 1032
f 968 1121 1032
f 1032 1121 1068
f 1031 1122 1032
f 1122 1123 1032
f 1032 1123 1124
f 1008 1125 961
f 1125 1126 961
f 961 1126 1009
f 1036 1127 356
f 1127 1128 356
f 356 1128 1129
f 354 1130 356
f 1130 1131 356
f 356 1131 1038
f 1079 1132 354
f 1132 1133 354
f 354 1133 1130
f 932 933 934
f 938 939 928
f 939 940 928
f 928 940 927
f 940 941 927
f 927 941 942
f 945 946 927
f 946 947 927
f 927 947 948
f 484 486 433
f 486 488 433
f 433 488 490
f 246 248 219
f 248 250 219
f 219 250 252
f 14 390 12
f 390 388 12
f 12 388 9
f 388 386 9
f 9 386 69
f 386 384 69
f 69 384 382
f 378 376 69
f 376 374 69
f 69 374 372
f 364 362 69
f 362 360 69
f 69 360 358
f 14 16 390
f 16 18 390
f 390 18 20
f 1043 1134 1013
f 1134 1135 1013
f 1013 1135 1136
f 1136 1137 1013
f 1137 1138 1013
f 1013 1138 1139
f 1140 1141 1013
f 1141 1142 1013
f 1089 1143 1087
f 1143 1144 1087
f 1087 1144 1145
f 1145 1146 1087
f 1146 1147 1087
f 1087 1147 1148
f 1096 1149 1091
f 1149 1097 1091
f 1091 1097 1150
f 1097 1099 1150
f 1107 1151 973
f 1151 1152 973
f 973 1152 1108
f 1051 1153 992
f 1153 1154 992
f 992 1154 973
f 132 130 1155
f 130 128 1155
f 176 174 284
f 174 172 284
f 284 172 170
f 156 284 158
f 284 160 158
f 156 154 284
f 154 152 284
f 284 152 150
f 148 146 284
f 146 144 284
f 284 144 967
f 144 142 967
f 967 142 140
f 1156 1032 1157
f 1032 1158 1157
f 1156 1159 1032
f 1159 1160 1032
f 1032 1160 1161
f 1076 1162 984
f 1162 1163 984
f 984 1163 1164
f 1164 1165 984
f 1165 1166 984
f 984 1166 1167
f 1168 1169 1170
f 1171 1172 1173
f 1010 1174 961
f 1174 1175 961
f 961 1175 1176
f 1177 1178 1179
f 1178 1180 1179
f 346 344 972
f 344 342 972
f 972 342 340
f 1129 1181 356
f 1181 1182 356
f 356 1182 1183
f 938 928 937
f 928 929 937
f 937 929 930
f 462 464 433
f 470 472 433
f 472 474 433
f 433 474 476
f 476 478 433
f 478 480 433
f 433 480 482
f 490 492 433
f 492 431 433
f 433 431 493
f 431 427 493
f 493 427 215
f 280 219 268
f 219 266 268
f 426 424 1184
f 424 422 1184
f 410 408 960
f 1139 1185 1013
f 1185 1186 1013
f 1013 1186 1011
f 1012 1187 1013
f 1187 1188 1013
f 1013 1188 1189
f 1190 1191 1192
f 1193 1194 992
f 1194 1195 992
f 992 1195 1196
f 1196 1197 992
f 1197 1198 992
f 992 1198 1113
f 1116 1199 992
f 1199 1200 992
f 992 1200 990
f 166 164 284
f 164 162 284
f 284 162 160
f 1124 1201 1032
f 1201 1202 1032
f 1032 1202 1158
f 1172 1203 1173
f 1203 984 1173
f 1173 984 1204
f 1205 1206 1207
f 1207 1208 1209
f 1176 1210 961
f 1210 1179 961
f 961 1179 1211
f 1179 1180 1211
f 340 338 972
f 338 336 972
f 972 336 334
f 932 934 931
f 934 935 931
f 931 935 936
f 462 433 460
f 464 466 433
f 466 468 433
f 433 468 470
f 232 234 219
f 252 254 219
f 254 256 219
f 219 256 258
f 260 262 219
f 262 264 219
f 219 264 266
f 1080 924 1212
f 924 215 1212
f 1212 215 358
f 215 218 358
f 358 218 69
f 20 22 390
f 22 24 390
f 390 24 26
f 410 960 412
f 396 394 960
f 394 392 960
f 182 180 1081
f 180 178 1081
f 1081 178 1184
f 178 284 1184
f 1184 284 426
f 1189 1213 1013
f 1213 1214 1013
f 1013 1214 1140
f 1142 1215 1013
f 1215 1216 1013
f 1013 1216 1217
f 1217 1218 1013
f 1218 1219 1013
f 1013 1219 1220
f 1221 1222 1223
f 1148 1224 1087
f 1224 1192 1087
f 1087 1192 1225
f 1192 1191 1225
f 1226 1227 1228
f 1227 1229 1228
f 1228 1229 1230
f 1230 1231 1228
f 1231 1232 1228
f 1228 1232 1233
f 1234 1235 1053
f 1235 1236 1053
f 140 138 967
f 138 136 967
f 967 136 1155
f 136 134 1155
f 1155 134 132
f 1237 1238 984
f 1238 1239 984
f 984 1239 1204
f 1168 1170 1240
f 1241 1242 1173
f 1242 1243 1173
f 1173 1243 1171
f 1206 1244 1207
f 1244 1245 1207
f 1207 1245 1208
f 1246 1247 1248
f 1247 1249 1248
f 1209 1250 1207
f 1250 1247 1207
f 1207 1247 1251
f 1247 1246 1251
f 318 316 962
f 316 314 962
f 962 314 312
f 1183 1252 356
f 1252 1253 356
f 356 1253 1254
f 436 438 446
f 438 440 446
f 440 442 446
f 446 442 444
f 450 452 433
f 452 454 433
f 234 236 219
f 236 238 219
f 219 238 240
f 240 242 219
f 242 244 219
f 219 244 246
f 26 28 390
f 28 30 390
f 390 30 32
f 408 406 960
f 406 404 960
f 960 404 402
f 1220 1255 1013
f 1255 1256 1013
f 1013 1256 1257
f 1222 1258 1223
f 1258 1259 1223
f 1223 1259 1260
f 1259 1261 1260
f 1260 1261 1262
f 1221 1223 1192
f 1223 1263 1192
f 1192 1263 1190
f 1236 1264 1053
f 1264 1265 1053
f 1053 1265 1055
f 1266 1267 1268
f 1267 1269 1268
f 1266 1270 1267
f 1270 1271 1267
f 1267 1271 1272
f 1161 1273 1032
f 1273 1267 1032
f 1032 1267 1274
f 1267 1272 1274
f 1167 1275 984
f 1275 1276 984
f 984 1276 1237
f 1241 1173 1170
f 1173 1277 1170
f 1170 1277 1240
f 1177 1179 1207
f 1179 1278 1207
f 1207 1278 1205
f 334 332 972
f 332 330 972
f 972 330 328
f 312 310 962
f 310 308 962
f 962 308 306
f 306 304 962
f 304 302 962
f 962 302 300
f 1279 1280 1281
f 1254 1282 356
f 1282 1283 356
f 356 1283 1284
f 436 446 433
f 446 448 433
f 433 448 450
f 454 456 433
f 456 458 433
f 433 458 460
f 224 226 219
f 274 268 272
f 268 270 272
f 274 276 268
f 276 278 268
f 268 278 280
f 402 400 960
f 400 398 960
f 960 398 396
f 1013 971 1041
f 971 960 1041
f 1041 960 6
f 960 392 6
f 6 392 4
f 392 1 4
f 1285 1286 190
f 1233 1232 1287
f 1232 1288 1287
f 1287 1288 1289
f 1290 1291 1053
f 1291 1292 1053
f 1053 1292 1234
f 328 326 972
f 326 324 972
f 972 324 1293
f 324 322 1293
f 1293 322 962
f 322 320 962
f 962 320 318
f 427 430 215
f 430 281 215
f 215 281 219
f 281 221 219
f 219 221 224
f 32 34 390
f 34 36 390
f 390 36 38
f 422 420 1184
f 420 418 1184
f 1184 418 1294
f 418 416 1294
f 1294 416 960
f 416 414 960
f 960 414 412
f 1289 1295 1287
f 1295 1296 1287
f 1287 1296 1297
f 1226 1228 1053
f 1228 1298 1053
f 1053 1298 1290
f 1284 1299 356
f 1299 1300 356
f 356 1300 1301
f 226 228 219
f 228 230 219
f 219 230 232
f 38 40 390
f 40 42 390
f 390 42 44
f 190 1286 192
f 1286 1302 192
f 192 1302 194
f 1302 1303 194
f 194 1303 196
f 1303 1304 196
f 196 1304 198
f 1304 1305 198
f 198 1305 200
f 1305 1306 200
f 200 1306 202
f 1306 1307 202
f 202 1307 204
f 1307 1308 204
f 204 1308 206
f 1308 1309 206
f 206 1309 208
f 1309 1310 208
f 208 1310 210
f 1310 1311 210
f 210 1311 212
f 1311 1312 212
f 212 1312 214
f 1312 1313 214
f 1313 1314 214
f 214 1314 72
f 1314 1315 72
f 72 1315 74
f 1315 1316 74
f 74 1316 76
f 1316 1317 76
f 76 1317 78
f 1317 1318 78
f 78 1318 80
f 1318 1319 80
f 80 1319 82
f 1319 1320 82
f 82 1320 84
f 1320 1321 84
f 84 1321 86
f 1321 1322 86
f 86 1322 88
f 1322 1323 88
f 88 1323 90
f 1323 1324 90
f 90 1324 92
f 1324 1325 92
f 92 1325 94
f 1325 1326 94
f 94 1326 96
f 1326 1327 96
f 96 1327 98
f 1327 1328 98
f 98 1328 100
f 1328 1329 100
f 100 1329 102
f 1329 1330 102
f 102 1330 104
f 1330 1331 104
f 104 1331 106
f 1331 1332 106
f 106 1332 108
f 1332 1333 108
f 108 1333 110
f 1333 1334 110
f 110 1334 112
f 1334 1335 112
f 112 1335 114
f 1335 1336 114
f 114 1336 116
f 1336 1337 116
f 116 1337 118
f 1337 1338 118
f 118 1338 120
f 1338 1339 120
f 120 1339 122
f 1339 1340 122
f 122 1340 124
f 1340 1155 124
f 124 1155 126
f 1155 128 126
f 358 356 1212
f 356 1301 1212
f 1212 1301 1281
f 1301 1341 1281
f 1281 1341 1279
f 44 46 390
f 46 48 390
f 390 48 50
f 50 52 390
f 52 54 390
f 390 54 56
f 1342 1343 186
f 1344 1345 186
f 1345 1346 186
f 186 1346 1347
f 190 188 1285
f 188 186 1285
f 1285 186 1348
f 186 1347 1348
f 1342 186 1349
f 392 390 1
f 390 56 1
f 1 56 7
f 56 58 7
f 7 58 68
f 184 1081 186
f 1081 1350 186
f 186 1350 1349
f 1343 1351 186
f 1351 1352 186
f 186 1352 1344
f 58 60 62
f 62 64 58
f 64 66 58
f 58 66 68
f 1212 504 503
f 1212 503 1080
f 503 652 1080
f 1080 652 957
f 1212 1281 504
f 1281 572 504
f 1040 543 693
f 1040 693 1039
f 693 610 1039
f 1039 610 1077
f 610 609 1077
f 1077 609 1078
f 609 608 1078
f 1078 608 1079
f 608 698 1079
f 1079 698 1132
f 698 697 1132
f 1132 697 1133
f 697 696 1133
f 1133 696 1130
f 696 607 1130
f 1130 607 1131
f 607 606 1131
f 1131 606 1038
f 606 695 1038
f 1038 695 1037
f 695 611 1037
f 1037 611 1036
f 611 694 1036
f 1036 694 1127
f 694 660 1127
f 1127 660 1128
f 660 659 1128
f 1128 659 1129
f 659 658 1129
f 1129 658 1181
f 658 605 1181
f 1181 605 1182
f 605 604 1182
f 1182 604 1183
f 604 603 1183
f 1183 603 1252
f 603 602 1252
f 1252 602 1253
f 602 601 1253
f 1253 601 1254
f 601 600 1254
f 1254 600 1282
f 600 599 1282
f 1282 599 1283
f 599 598 1283
f 1283 598 1284
f 598 597 1284
f 1284 597 1299
f 597 575 1299
f 1299 575 1300
f 575 574 1300
f 1300 574 1301
f 574 573 1301
f 1301 573 1341
f 573 542 1341
f 1341 542 1279
f 542 541 1279
f 1279 541 1280
f 541 572 1280
f 1280 572 1281
f 1040 972 543
f 972 571 543
f 962 502 501
f 962 501 1293
f 501 571 1293
f 1293 571 972
f 962 961 502
f 961 530 502
f 1006 529 531
f 1006 531 1007
f 531 705 1007
f 1007 705 1008
f 705 704 1008
f 1008 704 1125
f 704 662 1125
f 1125 662 1126
f 662 661 1126
f 1126 661 1009
f 661 752 1009
f 1009 752 1010
f 752 751 1010
f 1010 751 1174
f 751 703 1174
f 1174 703 1175
f 703 702 1175
f 1175 702 1176
f 702 750 1176
f 1176 750 1210
f 750 701 1210
f 1210 701 1179
f 701 854 1179
f 1179 854 1278
f 854 835 1278
f 1278 835 1205
f 835 834 1205
f 1205 834 1206
f 834 833 1206
f 1206 833 1244
f 833 749 1244
f 1244 749 1245
f 749 747 1245
f 1245 747 1208
f 747 746 1208
f 1208 746 1209
f 746 832 1209
f 1209 832 1250
f 832 829 1250
f 1250 829 1247
f 829 831 1247
f 1247 831 1249
f 831 830 1249
f 1249 830 1248
f 830 828 1248
f 1248 828 1246
f 828 827 1246
f 1246 827 1251
f 827 748 1251
f 1251 748 1207
f 748 853 1207
f 1207 853 1177
f 853 700 1177
f 1177 700 1178
f 700 699 1178
f 1178 699 1180
f 699 532 1180
f 1180 532 1211
f 532 530 1211
f 1211 530 961
f 1006 963 529
f 963 528 529
f 974 973 526
f 973 562 526
f 986 567 640
f 986 640 976
f 640 639 976
f 976 639 975
f 1105 638 637
f 1105 637 1106
f 637 636 1106
f 1106 636 1107
f 636 635 1107
f 1107 635 1151
f 635 634 1151
f 1151 634 1152
f 634 590 1152
f 1152 590 1108
f 590 589 1108
f 1108 589 1109
f 589 588 1109
f 1109 588 1110
f 588 561 1110
f 1110 561 1111
f 561 560 1111
f 1111 560 1112
f 560 585 1112
f 1112 585 992
f 585 726 992
f 992 726 1193
f 726 725 1193
f 1193 725 1194
f 725 724 1194
f 1194 724 1195
f 724 723 1195
f 1195 723 1196
f 723 722 1196
f 1196 722 1197
f 722 721 1197
f 1197 721 1198
f 721 631 1198
f 1198 631 1113
f 631 632 1113
f 1113 632 1114
f 632 633 1114
f 1114 633 1115
f 633 720 1115
f 1115 720 1116
f 720 719 1116
f 1116 719 1199
f 719 677 1199
f 1199 677 1200
f 677 676 1200
f 1200 676 990
f 676 675 990
f 990 675 991
f 675 587 991
f 991 587 1049
f 587 586 1049
f 1049 586 1050
f 586 584 1050
f 1050 584 1051
f 584 583 1051
f 1051 583 1153
f 583 674 1153
f 1153 674 1154
f 674 562 1154
f 1154 562 973
f 1014 570 569
f 1014 569 958
f 569 568 958
f 958 568 959
f 1105 975 638
f 975 639 638
f 974 526 525
f 974 525 977
f 525 514 977
f 977 514 978
f 986 987 567
f 987 565 567
f 988 959 566
f 959 568 566
f 971 649 648
f 971 648 970
f 648 647 970
f 970 647 969
f 988 566 564
f 988 564 989
f 564 563 989
f 989 563 1018
f 563 680 1018
f 1018 680 1019
f 680 679 1019
f 1019 679 1020
f 679 678 1020
f 1020 678 1047
f 678 727 1047
f 1047 727 1023
f 727 783 1023
f 1023 783 1092
f 783 781 1092
f 1092 781 1093
f 781 780 1093
f 1093 780 1094
f 780 778 1094
f 1094 778 1095
f 778 777 1095
f 1095 777 1096
f 777 817 1096
f 1096 817 1149
f 817 732 1149
f 1149 732 1097
f 732 731 1097
f 1097 731 1098
f 731 730 1098
f 1098 730 1099
f 730 776 1099
f 1099 776 1150
f 776 779 1150
f 1150 779 1091
f 779 782 1091
f 1091 782 1090
f 782 775 1090
f 1090 775 1100
f 775 774 1100
f 1100 774 1101
f 774 773 1101
f 1101 773 1102
f 773 772 1102
f 1102 772 1103
f 772 771 1103
f 1103 771 1104
f 771 770 1104
f 1104 770 1021
f 770 769 1021
f 1021 769 1022
f 769 768 1022
f 1022 768 1044
f 768 767 1044
f 1044 767 1045
f 767 729 1045
f 1045 729 1046
f 729 728 1046
f 1046 728 1048
f 728 565 1048
f 1048 565 987
f 1014 1015 570
f 1015 643 570
f 1041 496 495
f 1041 495 1042
f 495 650 1042
f 1042 650 1043
f 650 798 1043
f 1043 798 1134
f 798 797 1134
f 1134 797 1135
f 797 794 1135
f 1135 794 1136
f 794 795 1136
f 1136 795 1137
f 795 796 1137
f 1137 796 1138
f 796 825 1138
f 1138 825 1139
f 825 824 1139
f 1139 824 1185
f 824 793 1185
f 1185 793 1186
f 793 792 1186
f 1186 792 1011
f 792 791 1011
f 1011 791 1012
f 791 790 1012
f 1012 790 1187
f 790 789 1187
f 1187 789 1188
f 789 852 1188
f 1188 852 1189
f 852 851 1189
f 1189 851 1213
f 851 823 1213
f 1213 823 1214
f 823 822 1214
f 1214 822 1140
f 822 821 1140
f 1140 821 1141
f 821 820 1141
f 1141 820 1142
f 820 850 1142
f 1142 850 1215
f 850 849 1215
f 1215 849 1216
f 849 819 1216
f 1216 819 1217
f 819 818 1217
f 1217 818 1218
f 818 867 1218
f 1218 867 1219
f 867 869 1219
f 1219 869 1220
f 869 871 1220
f 1220 871 1255
f 871 870 1255
f 1255 870 1256
f 870 868 1256
f 1256 868 1257
f 868 497 1257
f 1257 497 1013
f 1120 535 534
f 1120 534 980
f 534 533 980
f 980 533 981
f 1041 6 496
f 6 5 496
f 971 1013 649
f 1013 497 649
f 985 519 527
f 985 527 1035
f 527 528 1035
f 1035 528 963
f 1016 969 646
f 969 647 646
f 1016 646 645
f 1016 645 1017
f 645 644 1017
f 1017 644 1082
f 644 737 1082
f 1082 737 1083
f 737 736 1083
f 1083 736 1084
f 736 683 1084
f 1084 683 1085
f 683 682 1085
f 1085 682 1086
f 682 681 1086
f 1086 681 1088
f 681 642 1088
f 1088 642 1089
f 642 641 1089
f 1089 641 1143
f 641 735 1143
f 1143 735 1144
f 735 734 1144
f 1144 734 1145
f 734 733 1145
f 1145 733 1146
f 733 788 1146
f 1146 788 1147
f 788 787 1147
f 1147 787 1148
f 787 785 1148
f 1148 785 1224
f 785 784 1224
f 1224 784 1192
f 784 866 1192
f 1192 866 1221
f 866 864 1221
f 1221 864 1222
f 864 863 1222
f 1222 863 1258
f 863 861 1258
f 1258 861 1259
f 861 859 1259
f 1259 859 1261
f 859 858 1261
f 1261 858 1262
f 858 860 1262
f 1262 860 1260
f 860 862 1260
f 1260 862 1223
f 862 865 1223
f 1223 865 1263
f 865 857 1263
f 1263 857 1190
f 857 856 1190
f 1190 856 1191
f 856 855 1191
f 1191 855 1225
f 855 786 1225
f 1225 786 1087
f 786 643 1087
f 1087 643 1015
f 995 978 516
f 978 514 516
f 1120 1032 535
f 1032 619 535
f 995 516 518
f 995 518 993
f 518 559 993
f 993 559 1052
f 559 558 1052
f 1052 558 1053
f 558 673 1053
f 1053 673 1226
f 673 672 1226
f 1226 672 1227
f 672 671 1227
f 1227 671 1229
f 671 669 1229
f 1229 669 1230
f 669 668 1230
f 1230 668 1231
f 668 629 1231
f 1231 629 1232
f 629 628 1232
f 1232 628 1288
f 628 816 1288
f 1288 816 1289
f 816 815 1289
f 1289 815 1295
f 815 766 1295
f 1295 766 1296
f 766 765 1296
f 1296 765 1297
f 765 630 1297
f 1297 630 1287
f 630 718 1287
f 1287 718 1233
f 718 670 1233
f 1233 670 1228
f 670 814 1228
f 1228 814 1298
f 814 813 1298
f 1298 813 1290
f 813 764 1290
f 1290 764 1291
f 764 763 1291
f 1291 763 1292
f 763 762 1292
f 1292 762 1234
f 762 717 1234
f 1234 717 1235
f 717 716 1235
f 1235 716 1236
f 716 715 1236
f 1236 715 1264
f 715 627 1264
f 1264 627 1265
f 627 626 1265
f 1265 626 1055
f 626 625 1055
f 1055 625 1054
f 625 557 1054
f 1054 557 994
f 557 517 994
f 994 517 996
f 997 515 513
f 997 513 979
f 513 508 979
f 979 508 964
f 997 996 515
f 996 517 515
f 1121 666 667
f 1121 667 1068
f 667 624 1068
f 1068 624 1069
f 624 623 1069
f 1069 623 1070
f 623 622 1070
f 1070 622 1071
f 622 621 1071
f 1071 621 1072
f 621 620 1072
f 1072 620 1073
f 620 618 1073
f 1073 618 1034
f 618 617 1034
f 1034 617 1033
f 617 665 1033
f 1033 665 1031
f 665 664 1031
f 1031 664 1122
f 664 663 1122
f 1122 663 1123
f 663 761 1123
f 1123 761 1124
f 761 760 1124
f 1124 760 1201
f 760 714 1201
f 1201 714 1202
f 714 713 1202
f 1202 713 1158
f 713 712 1158
f 1158 712 1157
f 712 711 1157
f 1157 711 1156
f 711 710 1156
f 1156 710 1159
f 710 709 1159
f 1159 709 1160
f 709 708 1160
f 1160 708 1161
f 708 842 1161
f 1161 842 1273
f 842 841 1273
f 1273 841 1267
f 841 848 1267
f 1267 848 1269
f 848 847 1269
f 1269 847 1268
f 847 846 1268
f 1268 846 1266
f 846 845 1266
f 1266 845 1270
f 845 844 1270
f 1270 844 1271
f 844 843 1271
f 1271 843 1272
f 843 840 1272
f 1272 840 1274
f 840 619 1274
f 1274 619 1032
f 966 964 510
f 964 508 510
f 985 984 519
f 984 507 519
f 966 510 582
f 966 582 1117
f 582 556 1117
f 1117 556 1024
f 556 555 1024
f 1024 555 1025
f 555 554 1025
f 1025 554 1027
f 554 553 1027
f 1027 553 1028
f 553 552 1028
f 1028 552 1062
f 552 540 1062
f 1062 540 1056
f 540 580 1056
f 1056 580 1057
f 580 579 1057
f 1057 579 1058
f 579 578 1058
f 1058 578 1118
f 578 550 1118
f 1118 550 1119
f 550 549 1119
f 1119 549 1061
f 549 548 1061
f 1061 548 1060
f 548 539 1060
f 1060 539 1059
f 539 538 1059
f 1059 538 1063
f 538 551 1063
f 1063 551 1026
f 551 581 1026
f 1026 581 998
f 581 524 998
f 998 524 999
f 524 523 999
f 999 523 1000
f 523 522 1000
f 1000 522 1001
f 522 521 1001
f 1001 521 1002
f 521 520 1002
f 1002 520 1003
f 520 547 1003
f 1003 547 1004
f 547 546 1004
f 1004 546 1064
f 546 537 1064
f 1064 537 1065
f 537 536 1065
f 1065 536 1029
f 536 545 1029
f 1029 545 1030
f 545 544 1030
f 1030 544 1066
f 544 512 1066
f 1066 512 1067
f 512 511 1067
f 1067 511 965
f 1005 506 505
f 1005 505 982
f 505 616 982
f 982 616 983
f 616 615 983
f 983 615 1074
f 615 577 1074
f 1074 577 1075
f 577 576 1075
f 1075 576 1076
f 576 707 1076
f 1076 707 1162
f 707 706 1162
f 1162 706 1163
f 706 612 1163
f 1163 612 1164
f 612 613 1164
f 1164 613 1165
f 613 614 1165
f 1165 614 1166
f 614 839 1166
f 1166 839 1167
f 839 838 1167
f 1167 838 1275
f 838 812 1275
f 1275 812 1276
f 812 811 1276
f 1276 811 1237
f 811 810 1237
f 1237 810 1238
f 810 756 1238
f 1238 756 1239
f 756 755 1239
f 1239 755 1204
f 755 754 1204
f 1204 754 1173
f 754 837 1173
f 1173 837 1277
f 837 836 1277
f 1277 836 1240
f 836 809 1240
f 1240 809 1168
f 809 808 1168
f 1168 808 1169
f 808 807 1169
f 1169 807 1170
f 807 806 1170
f 1170 806 1241
f 806 805 1241
f 1241 805 1242
f 805 759 1242
f 1242 759 1243
f 759 758 1243
f 1243 758 1171
f 758 757 1171
f 1171 757 1172
f 757 753 1172
f 1172 753 1203
f 753 507 1203
f 1203 507 984
f 960 965 509
f 965 511 509
f 1005 981 506
f 981 533 506
f 960 509 800
f 960 800 1294
f 800 651 1294
f 1294 651 1184
f 1121 968 666
f 968 500 666
f 1081 1184 799
f 1184 651 799
f 1081 799 897
f 1081 897 1350
f 897 896 1350
f 1350 896 1349
f 896 895 1349
f 1349 895 1342
f 895 894 1342
f 1342 894 1343
f 894 893 1343
f 1343 893 1351
f 893 892 1351
f 1351 892 1352
f 892 891 1352
f 1352 891 1344
f 891 890 1344
f 1344 890 1345
f 890 889 1345
f 1345 889 1346
f 889 888 1346
f 1346 888 1347
f 888 887 1347
f 1347 887 1348
f 887 886 1348
f 1348 886 1285
f 886 885 1285
f 1285 885 1286
f 885 884 1286
f 1286 884 1302
f 884 883 1302
f 1302 883 1303
f 883 882 1303
f 1303 882 1304
f 882 881 1304
f 1304 881 1305
f 881 880 1305
f 1305 880 1306
f 880 879 1306
f 1306 879 1307
f 879 878 1307
f 1307 878 1308
f 878 877 1308
f 1308 877 1309
f 877 876 1309
f 1309 876 1310
f 876 875 1310
f 1310 875 1311
f 875 874 1311
f 1311 874 1312
f 874 873 1312
f 1312 873 1313
f 873 872 1313
f 1313 872 1314
f 872 923 1314
f 1314 923 1315
f 923 922 1315
f 1315 922 1316
f 922 921 1316
f 1316 921 1317
f 921 920 1317
f 1317 920 1318
f 920 919 1318
f 1318 919 1319
f 919 918 1319
f 1319 918 1320
f 918 917 1320
f 1320 917 1321
f 917 916 1321
f 1321 916 1322
f 916 915 1322
f 1322 915 1323
f 915 914 1323
f 1323 914 1324
f 914 913 1324
f 1324 913 1325
f 913 912 1325
f 1325 912 1326
f 912 911 1326
f 1326 911 1327
f 911 910 1327
f 1327 910 1328
f 910 909 1328
f 1328 909 1329
f 909 908 1329
f 1329 908 1330
f 908 907 1330
f 1330 907 1331
f 907 906 1331
f 1331 906 1332
f 906 905 1332
f 1332 905 1333
f 905 904 1333
f 1333 904 1334
f 904 903 1334
f 1334 903 1335
f 903 902 1335
f 1335 902 1336
f 902 901 1336
f 1336 901 1337
f 901 900 1337
f 1337 900 1338
f 900 899 1338
f 1338 899 1339
f 899 898 1339
f 1339 898 1340
f 898 826 1340
f 1340 826 1155
f 967 1155 684
f 1155 826 684
f 684 500 967
f 500 968 967
# 2708 faces, 0 coords texture

# End of File
