####
#
# OBJ File Generated by Meshlab
#
####
# Object grip.obj
#
# Vertices: 474
# Faces: 952
#
####
v 0.000000 -0.008000 0.010486
v 0.007700 -0.008000 0.010728
v 0.000000 -0.013000 0.015488
v 0.007700 -0.009123 0.011851
v 0.008700 -0.009891 0.012651
v 0.008700 -0.010891 0.013651
v 0.007700 -0.011722 0.014451
v 0.007700 -0.012749 0.015479
v 0.008027 -0.013000 0.015740
v 0.007700 -0.013000 0.018079
v 0.007700 -0.013000 0.019107
v 0.000000 -0.013000 0.038728
v 0.007700 -0.013000 0.025334
v 0.007700 -0.013000 0.026362
v 0.008700 -0.013000 0.016279
v 0.008700 -0.013000 0.017279
v 0.007700 -0.013000 0.022734
v 0.008700 -0.013000 0.023534
v 0.008700 -0.013000 0.024534
v 0.007700 -0.013000 0.021707
v 0.008700 -0.013000 0.020907
v 0.008700 -0.013000 0.019907
v 0.007700 -0.013000 0.029989
v 0.008700 -0.013000 0.030789
v 0.008700 -0.013000 0.031789
v 0.008700 -0.013000 0.027162
v 0.008700 -0.013000 0.028162
v 0.007700 -0.013000 0.028962
v 0.007700 -0.013000 0.032589
v 0.008700 -0.013000 0.034417
v 0.008700 -0.013000 0.035417
v 0.007700 -0.013000 0.033617
v 0.007700 -0.013000 0.036217
v 0.008700 -0.013000 0.038045
v 0.008700 -0.013000 0.039045
v 0.007700 -0.013000 0.037245
v 0.007700 -0.013000 0.039845
v 0.000044 -0.013000 0.039802
v 0.000175 -0.013000 0.040870
v 0.007700 -0.013000 0.040872
v 0.007700 -0.013000 0.044500
v 0.008700 -0.013000 0.045300
v 0.008700 -0.013000 0.046300
v 0.008700 -0.013000 0.041672
v 0.008700 -0.013000 0.042672
v 0.007700 -0.013000 0.043472
v 0.000393 -0.013000 0.041923
v 0.003395 -0.013000 0.047565
v 0.002708 -0.013000 0.046737
v 0.007700 -0.013000 0.047100
v 0.007700 -0.013000 0.048128
v 0.008700 -0.013000 0.048928
v 0.006741 -0.013000 0.050240
v 0.008700 -0.013000 0.049928
v 0.007700 -0.013000 0.050728
v 0.001081 -0.013000 0.043959
v 0.000695 -0.013000 0.042955
v 0.005826 -0.013000 0.049676
v 0.004959 -0.013000 0.049039
v 0.004147 -0.013000 0.048334
v 0.002091 -0.013000 0.045857
v 0.001547 -0.013000 0.044928
v 0.000000 -0.008000 -0.004433
v 0.000000 0.000000 -0.004433
v 0.000183 -0.008000 -0.004441
v 0.000183 0.000000 -0.004441
v 0.000365 -0.008000 -0.004465
v 0.000365 0.000000 -0.004465
v 0.000544 -0.008000 -0.004505
v 0.000544 0.000000 -0.004505
v 0.000718 -0.008000 -0.004560
v 0.000718 0.000000 -0.004560
v 0.000887 -0.008000 -0.004630
v 0.000887 0.000000 -0.004630
v 0.001050 -0.008000 -0.004715
v 0.001050 0.000000 -0.004715
v 0.001205 -0.008000 -0.004813
v 0.001205 0.000000 -0.004813
v 0.001350 -0.008000 -0.004925
v 0.001350 0.000000 -0.004925
v 0.001485 -0.008000 -0.005048
v 0.001485 0.000000 -0.005048
v 0.001609 -0.008000 -0.005184
v 0.001609 0.000000 -0.005184
v 0.001720 -0.008000 -0.005329
v 0.001720 0.000000 -0.005329
v 0.001819 -0.008000 -0.005483
v 0.001819 0.000000 -0.005483
v 0.001903 -0.008000 -0.005646
v 0.001903 0.000000 -0.005646
v 0.001973 -0.008000 -0.005815
v 0.001973 0.000000 -0.005815
v 0.002028 -0.008000 -0.005990
v 0.002028 0.000000 -0.005990
v 0.002068 -0.008000 -0.006169
v 0.002068 0.000000 -0.006169
v 0.002092 -0.008000 -0.006350
v 0.002092 0.000000 -0.006350
v 0.002100 -0.008000 -0.006533
v 0.002100 0.000000 -0.006533
v 0.002092 -0.008000 -0.006716
v 0.002092 0.000000 -0.006716
v 0.002068 -0.008000 -0.006898
v 0.002068 0.000000 -0.006898
v 0.002028 -0.008000 -0.007077
v 0.002028 0.000000 -0.007077
v 0.001973 -0.008000 -0.007252
v 0.001973 0.000000 -0.007252
v 0.001903 -0.008000 -0.007421
v 0.001903 0.000000 -0.007421
v 0.001819 -0.008000 -0.007583
v 0.001819 0.000000 -0.007583
v 0.001720 -0.008000 -0.007738
v 0.001720 0.000000 -0.007738
v 0.001609 -0.008000 -0.007883
v 0.001609 0.000000 -0.007883
v 0.001485 -0.008000 -0.008018
v 0.001485 0.000000 -0.008018
v 0.001350 -0.008000 -0.008142
v 0.001350 0.000000 -0.008142
v 0.001205 -0.008000 -0.008254
v 0.001205 0.000000 -0.008254
v 0.001050 -0.008000 -0.008352
v 0.001050 0.000000 -0.008352
v 0.000887 -0.008000 -0.008437
v 0.000887 0.000000 -0.008437
v 0.000718 -0.008000 -0.008507
v 0.000718 0.000000 -0.008507
v 0.000544 -0.008000 -0.008562
v 0.000544 0.000000 -0.008562
v 0.000365 -0.008000 -0.008602
v 0.000365 0.000000 -0.008602
v 0.000183 -0.008000 -0.008625
v 0.000183 0.000000 -0.008625
v 0.000000 -0.008000 -0.008633
v 0.000000 0.000000 -0.008633
v -0.000183 -0.008000 -0.008625
v -0.000183 0.000000 -0.008625
v -0.000365 -0.008000 -0.008602
v -0.000365 0.000000 -0.008602
v -0.000544 -0.008000 -0.008562
v -0.000544 0.000000 -0.008562
v -0.000718 -0.008000 -0.008507
v -0.000718 0.000000 -0.008507
v -0.000887 -0.008000 -0.008437
v -0.000887 0.000000 -0.008437
v -0.001050 -0.008000 -0.008352
v -0.001050 0.000000 -0.008352
v -0.001205 -0.008000 -0.008254
v -0.001205 0.000000 -0.008254
v -0.001350 -0.008000 -0.008142
v -0.001350 0.000000 -0.008142
v -0.001485 -0.008000 -0.008018
v -0.001485 0.000000 -0.008018
v -0.001609 -0.008000 -0.007883
v -0.001609 0.000000 -0.007883
v -0.001720 -0.008000 -0.007738
v -0.001720 0.000000 -0.007738
v -0.001819 -0.008000 -0.007583
v -0.001819 0.000000 -0.007583
v -0.001903 -0.008000 -0.007421
v -0.001903 0.000000 -0.007421
v -0.001973 -0.008000 -0.007252
v -0.001973 0.000000 -0.007252
v -0.002028 -0.008000 -0.007077
v -0.002028 0.000000 -0.007077
v -0.002068 -0.008000 -0.006898
v -0.002068 0.000000 -0.006898
v -0.002092 -0.008000 -0.006716
v -0.002092 0.000000 -0.006716
v -0.002100 -0.008000 -0.006533
v -0.002100 0.000000 -0.006533
v -0.002092 -0.008000 -0.006350
v -0.002092 0.000000 -0.006350
v -0.002068 -0.008000 -0.006169
v -0.002068 0.000000 -0.006169
v -0.002028 -0.008000 -0.005990
v -0.002028 0.000000 -0.005990
v -0.001973 -0.008000 -0.005815
v -0.001973 0.000000 -0.005815
v -0.001903 -0.008000 -0.005646
v -0.001903 0.000000 -0.005646
v -0.001819 -0.008000 -0.005483
v -0.001819 0.000000 -0.005483
v -0.001720 -0.008000 -0.005329
v -0.001720 0.000000 -0.005329
v -0.001609 -0.008000 -0.005184
v -0.001609 0.000000 -0.005184
v -0.001485 -0.008000 -0.005048
v -0.001485 0.000000 -0.005048
v -0.001350 -0.008000 -0.004925
v -0.001350 0.000000 -0.004925
v -0.001205 -0.008000 -0.004813
v -0.001205 0.000000 -0.004813
v -0.001050 -0.008000 -0.004715
v -0.001050 0.000000 -0.004715
v -0.000887 -0.008000 -0.004630
v -0.000887 0.000000 -0.004630
v -0.000718 -0.008000 -0.004560
v -0.000718 0.000000 -0.004560
v -0.000544 -0.008000 -0.004505
v -0.000544 0.000000 -0.004505
v -0.000365 -0.008000 -0.004465
v -0.000365 0.000000 -0.004465
v -0.000183 -0.008000 -0.004441
v -0.000183 0.000000 -0.004441
v 0.007700 0.005000 0.037245
v 0.007700 0.005000 0.036217
v 0.008000 -0.008000 0.006529
v 0.008000 0.000000 0.006529
v 0.008139 -0.008000 0.006523
v 0.008139 0.000000 0.006523
v 0.008278 -0.008000 0.006505
v 0.008278 0.000000 0.006505
v 0.008414 -0.008000 0.006475
v 0.008414 0.000000 0.006475
v 0.008547 -0.008000 0.006433
v 0.008547 0.000000 0.006433
v 0.008676 -0.008000 0.006379
v 0.008676 0.000000 0.006379
v 0.008800 -0.008000 0.006315
v 0.008800 0.000000 0.006315
v 0.008918 -0.008000 0.006240
v 0.008918 0.000000 0.006240
v 0.009028 -0.008000 0.006155
v 0.009028 0.000000 0.006155
v 0.009131 -0.008000 0.006061
v 0.009131 0.000000 0.006061
v 0.009226 -0.008000 0.005958
v 0.009226 0.000000 0.005958
v 0.009311 -0.008000 0.005847
v 0.009311 0.000000 0.005847
v 0.009386 -0.008000 0.005729
v 0.009386 0.000000 0.005729
v 0.009450 -0.008000 0.005605
v 0.009450 0.000000 0.005605
v 0.009504 -0.008000 0.005476
v 0.009504 0.000000 0.005476
v 0.009545 -0.008000 0.005343
v 0.009545 0.000000 0.005343
v 0.009576 -0.008000 0.005207
v 0.009576 0.000000 0.005207
v 0.009594 -0.008000 0.005069
v 0.009594 0.000000 0.005069
v 0.009600 -0.008000 0.004929
v 0.009600 0.000000 0.004929
v 0.009594 -0.008000 0.004790
v 0.009594 0.000000 0.004790
v 0.009576 -0.008000 0.004651
v 0.009576 0.000000 0.004651
v 0.009545 -0.008000 0.004515
v 0.009545 0.000000 0.004515
v 0.009504 -0.008000 0.004382
v 0.009504 0.000000 0.004382
v 0.009450 -0.008000 0.004253
v 0.009450 0.000000 0.004253
v 0.009386 -0.008000 0.004129
v 0.009386 0.000000 0.004129
v 0.009311 -0.008000 0.004011
v 0.009311 0.000000 0.004011
v 0.009226 -0.008000 0.003901
v 0.009226 0.000000 0.003901
v 0.009131 -0.008000 0.003798
v 0.009131 0.000000 0.003798
v 0.009028 -0.008000 0.003703
v 0.009028 0.000000 0.003703
v 0.008918 -0.008000 0.003619
v 0.008918 0.000000 0.003619
v 0.008800 -0.008000 0.003544
v 0.008800 0.000000 0.003544
v 0.008676 -0.008000 0.003479
v 0.008676 0.000000 0.003479
v 0.008547 -0.008000 0.003426
v 0.008547 0.000000 0.003426
v 0.008414 -0.008000 0.003384
v 0.008414 0.000000 0.003384
v 0.008278 -0.008000 0.003353
v 0.008278 0.000000 0.003353
v 0.008139 -0.008000 0.003335
v 0.008139 0.000000 0.003335
v 0.008000 -0.008000 0.003329
v 0.008000 0.000000 0.003329
v 0.007861 -0.008000 0.003335
v 0.007861 0.000000 0.003335
v 0.007722 -0.008000 0.003353
v 0.007722 0.000000 0.003353
v 0.007586 -0.008000 0.003384
v 0.007586 0.000000 0.003384
v 0.007453 -0.008000 0.003426
v 0.007453 0.000000 0.003426
v 0.007324 -0.008000 0.003479
v 0.007324 0.000000 0.003479
v 0.007200 -0.008000 0.003544
v 0.007200 0.000000 0.003544
v 0.007082 -0.008000 0.003619
v 0.007082 0.000000 0.003619
v 0.006972 -0.008000 0.003703
v 0.006972 0.000000 0.003703
v 0.006869 -0.008000 0.003798
v 0.006869 0.000000 0.003798
v 0.006774 -0.008000 0.003901
v 0.006774 0.000000 0.003901
v 0.006689 -0.008000 0.004011
v 0.006689 0.000000 0.004011
v 0.006614 -0.008000 0.004129
v 0.006614 0.000000 0.004129
v 0.006550 -0.008000 0.004253
v 0.006550 0.000000 0.004253
v 0.006496 -0.008000 0.004382
v 0.006496 0.000000 0.004382
v 0.006455 -0.008000 0.004515
v 0.006455 0.000000 0.004515
v 0.006424 -0.008000 0.004651
v 0.006424 0.000000 0.004651
v 0.006406 -0.008000 0.004790
v 0.006406 0.000000 0.004790
v 0.006400 -0.008000 0.004929
v 0.006400 0.000000 0.004929
v 0.006406 -0.008000 0.005069
v 0.006406 0.000000 0.005069
v 0.006424 -0.008000 0.005207
v 0.006424 0.000000 0.005207
v 0.006455 -0.008000 0.005343
v 0.006455 0.000000 0.005343
v 0.006496 -0.008000 0.005476
v 0.006496 0.000000 0.005476
v 0.006550 -0.008000 0.005605
v 0.006550 0.000000 0.005605
v 0.006614 -0.008000 0.005729
v 0.006614 0.000000 0.005729
v 0.006689 -0.008000 0.005847
v 0.006689 0.000000 0.005847
v 0.006774 -0.008000 0.005958
v 0.006774 0.000000 0.005958
v 0.006869 -0.008000 0.006061
v 0.006869 0.000000 0.006061
v 0.006972 -0.008000 0.006155
v 0.006972 0.000000 0.006155
v 0.007082 -0.008000 0.006240
v 0.007082 0.000000 0.006240
v 0.007200 -0.008000 0.006315
v 0.007200 0.000000 0.006315
v 0.007324 -0.008000 0.006379
v 0.007324 0.000000 0.006379
v 0.007453 -0.008000 0.006433
v 0.007453 0.000000 0.006433
v 0.007586 -0.008000 0.006475
v 0.007586 0.000000 0.006475
v 0.007722 -0.008000 0.006505
v 0.007722 0.000000 0.006505
v 0.007861 -0.008000 0.006523
v 0.007861 0.000000 0.006523
v 0.008700 0.005000 0.035417
v 0.008700 0.005000 0.034417
v 0.007700 0.005000 0.033617
v 0.007700 0.005000 0.032589
v 0.008700 0.005000 0.031789
v 0.008700 0.005000 0.030789
v 0.007700 0.005000 0.029989
v 0.007700 0.005000 0.028962
v 0.008700 0.005000 0.028162
v 0.008700 0.005000 0.027162
v 0.007700 0.005000 0.026362
v 0.007700 0.005000 0.025334
v 0.007700 0.001123 0.011851
v 0.007700 0.000000 0.010728
v 0.000000 0.000000 0.010486
v 0.008027 0.005000 0.015740
v 0.007700 0.004749 0.015479
v 0.000000 0.005000 0.015488
v 0.007700 0.003722 0.014451
v 0.008700 0.002891 0.013651
v 0.008700 0.001891 0.012651
v 0.008700 0.005000 0.024534
v 0.008700 0.005000 0.023534
v 0.007700 0.005000 0.022734
v 0.007700 0.005000 0.021707
v 0.008700 0.005000 0.048928
v 0.007700 0.005000 0.048128
v 0.007700 0.005000 0.047100
v 0.008700 0.005000 0.046300
v 0.008700 0.005000 0.045300
v 0.007700 0.005000 0.044500
v 0.008700 0.005000 0.049928
v 0.007700 0.005000 0.043472
v 0.010900 -0.008000 0.007728
v 0.010900 -0.008000 0.002728
v 0.010900 0.000000 0.007728
v 0.010900 0.000000 0.002728
v 0.008700 0.005000 0.042672
v 0.000390 -0.008000 -0.010892
v 0.004209 -0.008000 -0.010481
v 0.004586 -0.008000 -0.010258
v 0.006509 -0.008000 -0.007932
v 0.002557 -0.008000 -0.011032
v 0.002986 -0.008000 -0.010948
v 0.003407 -0.008000 -0.010828
v 0.003816 -0.008000 -0.010672
v 0.000815 -0.008000 -0.010995
v 0.001248 -0.008000 -0.011060
v 0.001684 -0.008000 -0.011088
v 0.002122 -0.008000 -0.011079
v 0.006325 -0.008000 -0.008329
v 0.006108 -0.008000 -0.008709
v 0.005859 -0.008000 -0.009069
v 0.004941 -0.008000 -0.010003
v 0.005273 -0.008000 -0.009718
v 0.005580 -0.008000 -0.009406
v -0.003000 -0.008000 -0.007728
v -0.000025 -0.008000 -0.010754
v -0.000427 -0.008000 -0.010580
v -0.000812 -0.008000 -0.010373
v -0.002135 -0.008000 -0.009240
v -0.002400 -0.008000 -0.008891
v -0.002633 -0.008000 -0.008521
v -0.002833 -0.008000 -0.008132
v -0.001178 -0.008000 -0.010133
v -0.001523 -0.008000 -0.009863
v -0.001842 -0.008000 -0.009565
v 0.008700 0.005000 0.041672
v 0.007700 0.005000 0.040872
v 0.007700 0.005000 0.039845
v 0.008700 0.005000 0.039045
v 0.008700 0.005000 0.038045
v 0.006509 0.000000 -0.007932
v 0.007700 0.005000 0.050728
v 0.007700 0.005000 0.019107
v 0.007700 0.005000 0.018079
v 0.006741 0.005000 0.050240
v 0.005826 0.005000 0.049676
v 0.004959 0.005000 0.049039
v 0.004147 0.005000 0.048334
v 0.003395 0.005000 0.047565
v 0.002708 0.005000 0.046737
v 0.002091 0.005000 0.045857
v 0.001547 0.005000 0.044928
v 0.001081 0.005000 0.043959
v 0.000695 0.005000 0.042955
v 0.000393 0.005000 0.041923
v 0.000175 0.005000 0.040870
v 0.000044 0.005000 0.039802
v 0.000000 0.005000 0.038728
v 0.000390 0.000000 -0.010892
v 0.000815 0.000000 -0.010995
v 0.001248 0.000000 -0.011060
v 0.002986 0.000000 -0.010948
v 0.002557 0.000000 -0.011032
v 0.002122 0.000000 -0.011079
v 0.001684 0.000000 -0.011088
v 0.004941 0.000000 -0.010003
v 0.004586 0.000000 -0.010258
v 0.004209 0.000000 -0.010481
v 0.003816 0.000000 -0.010672
v 0.003407 0.000000 -0.010828
v -0.003000 0.000000 -0.007728
v 0.006108 0.000000 -0.008709
v 0.005859 0.000000 -0.009069
v 0.005580 0.000000 -0.009406
v 0.005273 0.000000 -0.009718
v 0.006325 0.000000 -0.008329
v -0.002633 0.000000 -0.008521
v -0.002400 0.000000 -0.008891
v -0.002135 0.000000 -0.009240
v -0.002833 0.000000 -0.008132
v -0.001842 0.000000 -0.009565
v -0.001523 0.000000 -0.009863
v -0.001178 0.000000 -0.010133
v -0.000812 0.000000 -0.010373
v -0.000427 0.000000 -0.010580
v -0.000025 0.000000 -0.010754
v 0.008700 0.005000 0.016279
v 0.008700 0.005000 0.017279
v 0.008700 0.005000 0.019907
v 0.008700 0.005000 0.020907
# 474 vertices, 0 vertices normals

f 1 2 3
f 2 4 3
f 5 6 4
f 6 7 4
f 4 7 3
f 7 8 3
f 3 8 9
f 10 11 12
f 13 14 12
f 15 16 9
f 16 10 9
f 9 10 3
f 10 12 3
f 17 18 19
f 19 13 17
f 13 12 17
f 17 12 20
f 12 11 20
f 20 11 21
f 11 22 21
f 23 24 25
f 26 27 14
f 27 28 14
f 14 28 12
f 28 23 12
f 12 23 29
f 23 25 29
f 30 31 32
f 31 33 32
f 34 35 36
f 35 37 36
f 29 32 12
f 32 33 12
f 12 33 38
f 33 36 38
f 38 36 39
f 36 37 39
f 39 37 40
f 41 42 43
f 44 45 40
f 45 46 40
f 40 46 39
f 46 47 39
f 48 49 50
f 51 52 53
f 52 54 53
f 53 54 55
f 43 50 41
f 50 56 41
f 41 56 46
f 56 57 46
f 46 57 47
f 53 58 51
f 58 59 51
f 51 59 50
f 59 60 50
f 50 60 48
f 49 61 50
f 61 62 50
f 50 62 56
f 63 64 65
f 64 66 65
f 65 66 67
f 66 68 67
f 67 68 69
f 68 70 69
f 69 70 71
f 70 72 71
f 71 72 73
f 72 74 73
f 73 74 75
f 74 76 75
f 75 76 77
f 76 78 77
f 77 78 79
f 78 80 79
f 79 80 81
f 80 82 81
f 81 82 83
f 82 84 83
f 83 84 85
f 84 86 85
f 85 86 87
f 86 88 87
f 87 88 89
f 88 90 89
f 89 90 91
f 90 92 91
f 91 92 93
f 92 94 93
f 93 94 95
f 94 96 95
f 95 96 97
f 96 98 97
f 97 98 99
f 98 100 99
f 99 100 101
f 100 102 101
f 101 102 103
f 102 104 103
f 103 104 105
f 104 106 105
f 105 106 107
f 106 108 107
f 107 108 109
f 108 110 109
f 109 110 111
f 110 112 111
f 111 112 113
f 112 114 113
f 113 114 115
f 114 116 115
f 115 116 117
f 116 118 117
f 117 118 119
f 118 120 119
f 119 120 121
f 120 122 121
f 121 122 123
f 122 124 123
f 123 124 125
f 124 126 125
f 125 126 127
f 126 128 127
f 127 128 129
f 128 130 129
f 129 130 131
f 130 132 131
f 131 132 133
f 132 134 133
f 133 134 135
f 134 136 135
f 135 136 137
f 136 138 137
f 137 138 139
f 138 140 139
f 139 140 141
f 140 142 141
f 141 142 143
f 142 144 143
f 143 144 145
f 144 146 145
f 145 146 147
f 146 148 147
f 147 148 149
f 148 150 149
f 149 150 151
f 150 152 151
f 151 152 153
f 152 154 153
f 153 154 155
f 154 156 155
f 155 156 157
f 156 158 157
f 157 158 159
f 158 160 159
f 159 160 161
f 160 162 161
f 161 162 163
f 162 164 163
f 163 164 165
f 164 166 165
f 165 166 167
f 166 168 167
f 167 168 169
f 168 170 169
f 169 170 171
f 170 172 171
f 171 172 173
f 172 174 173
f 173 174 175
f 174 176 175
f 175 176 177
f 176 178 177
f 177 178 179
f 178 180 179
f 179 180 181
f 180 182 181
f 181 182 183
f 182 184 183
f 183 184 185
f 184 186 185
f 185 186 187
f 186 188 187
f 187 188 189
f 188 190 189
f 189 190 191
f 190 192 191
f 191 192 193
f 192 194 193
f 193 194 195
f 194 196 195
f 195 196 197
f 196 198 197
f 197 198 199
f 198 200 199
f 199 200 201
f 200 202 201
f 201 202 203
f 202 204 203
f 203 204 205
f 204 206 205
f 205 206 63
f 206 64 63
f 207 36 208
f 36 33 208
f 209 210 211
f 210 212 211
f 211 212 213
f 212 214 213
f 213 214 215
f 214 216 215
f 215 216 217
f 216 218 217
f 217 218 219
f 218 220 219
f 219 220 221
f 220 222 221
f 221 222 223
f 222 224 223
f 223 224 225
f 224 226 225
f 225 226 227
f 226 228 227
f 227 228 229
f 228 230 229
f 229 230 231
f 230 232 231
f 231 232 233
f 232 234 233
f 233 234 235
f 234 236 235
f 235 236 237
f 236 238 237
f 237 238 239
f 238 240 239
f 239 240 241
f 240 242 241
f 241 242 243
f 242 244 243
f 243 244 245
f 244 246 245
f 245 246 247
f 246 248 247
f 247 248 249
f 248 250 249
f 249 250 251
f 250 252 251
f 251 252 253
f 252 254 253
f 253 254 255
f 254 256 255
f 255 256 257
f 256 258 257
f 257 258 259
f 258 260 259
f 259 260 261
f 260 262 261
f 261 262 263
f 262 264 263
f 263 264 265
f 264 266 265
f 265 266 267
f 266 268 267
f 267 268 269
f 268 270 269
f 269 270 271
f 270 272 271
f 271 272 273
f 272 274 273
f 273 274 275
f 274 276 275
f 275 276 277
f 276 278 277
f 277 278 279
f 278 280 279
f 279 280 281
f 280 282 281
f 281 282 283
f 282 284 283
f 283 284 285
f 284 286 285
f 285 286 287
f 286 288 287
f 287 288 289
f 288 290 289
f 289 290 291
f 290 292 291
f 291 292 293
f 292 294 293
f 293 294 295
f 294 296 295
f 295 296 297
f 296 298 297
f 297 298 299
f 298 300 299
f 299 300 301
f 300 302 301
f 301 302 303
f 302 304 303
f 303 304 305
f 304 306 305
f 305 306 307
f 306 308 307
f 307 308 309
f 308 310 309
f 309 310 311
f 310 312 311
f 311 312 313
f 312 314 313
f 313 314 315
f 314 316 315
f 315 316 317
f 316 318 317
f 317 318 319
f 318 320 319
f 319 320 321
f 320 322 321
f 321 322 323
f 322 324 323
f 323 324 325
f 324 326 325
f 325 326 327
f 326 328 327
f 327 328 329
f 328 330 329
f 329 330 331
f 330 332 331
f 331 332 333
f 332 334 333
f 333 334 335
f 334 336 335
f 335 336 337
f 336 338 337
f 337 338 339
f 338 340 339
f 339 340 341
f 340 342 341
f 341 342 343
f 342 344 343
f 343 344 345
f 344 346 345
f 345 346 347
f 346 348 347
f 347 348 349
f 348 350 349
f 349 350 351
f 350 352 351
f 351 352 209
f 352 210 209
f 208 33 353
f 33 31 353
f 353 31 354
f 31 30 354
f 354 30 355
f 30 32 355
f 355 32 356
f 32 29 356
f 356 29 357
f 29 25 357
f 357 25 358
f 25 24 358
f 358 24 359
f 24 23 359
f 359 23 360
f 23 28 360
f 360 28 361
f 28 27 361
f 361 27 362
f 27 26 362
f 362 26 363
f 26 14 363
f 363 14 364
f 14 13 364
f 365 366 367
f 368 369 370
f 369 371 370
f 372 373 371
f 373 365 371
f 371 365 370
f 365 367 370
f 364 13 374
f 13 19 374
f 374 19 375
f 19 18 375
f 375 18 376
f 18 17 376
f 376 17 377
f 17 20 377
f 4 365 5
f 365 373 5
f 378 52 379
f 52 51 379
f 379 51 380
f 51 50 380
f 380 50 381
f 50 43 381
f 381 43 382
f 43 42 382
f 382 42 383
f 42 41 383
f 384 54 378
f 54 52 378
f 2 366 4
f 366 365 4
f 383 41 385
f 41 46 385
f 386 387 388
f 387 389 388
f 385 46 390
f 46 45 390
f 127 129 391
f 221 223 386
f 223 225 386
f 386 225 227
f 392 393 287
f 181 183 1
f 307 309 77
f 227 229 386
f 229 231 386
f 386 231 233
f 233 235 386
f 235 237 386
f 386 237 239
f 247 249 387
f 249 251 387
f 387 263 265
f 273 275 394
f 275 277 394
f 394 277 279
f 395 396 289
f 396 397 289
f 289 397 287
f 397 398 287
f 287 398 392
f 399 400 291
f 400 401 291
f 291 401 289
f 401 402 289
f 289 402 395
f 345 347 2
f 239 241 386
f 241 243 386
f 386 243 387
f 243 245 387
f 387 245 247
f 251 253 387
f 253 255 387
f 387 255 257
f 279 281 394
f 281 283 394
f 394 283 403
f 283 285 403
f 403 285 404
f 285 405 404
f 393 406 287
f 406 407 287
f 287 407 285
f 407 408 285
f 285 408 405
f 409 163 165
f 71 73 2
f 73 75 2
f 2 75 77
f 127 391 125
f 257 259 387
f 259 261 387
f 387 261 263
f 265 267 387
f 267 269 387
f 387 269 394
f 269 271 394
f 394 271 273
f 129 131 391
f 131 133 391
f 391 133 410
f 133 135 410
f 410 135 411
f 135 137 411
f 411 137 412
f 165 167 409
f 167 169 409
f 409 169 171
f 299 301 77
f 85 87 291
f 87 89 291
f 291 89 91
f 111 113 391
f 309 311 77
f 311 313 77
f 77 313 315
f 413 151 414
f 151 153 414
f 414 153 415
f 153 155 415
f 155 157 415
f 415 157 416
f 157 159 416
f 416 159 409
f 159 161 409
f 409 161 163
f 181 1 179
f 1 409 179
f 179 409 177
f 183 185 1
f 185 187 1
f 1 187 189
f 189 191 1
f 191 193 1
f 1 193 195
f 195 197 1
f 197 199 1
f 1 199 201
f 201 203 1
f 203 205 1
f 1 205 63
f 301 303 77
f 303 305 77
f 77 305 307
f 345 2 343
f 209 211 2
f 211 213 2
f 137 139 412
f 139 141 412
f 412 141 417
f 141 143 417
f 417 143 418
f 143 145 418
f 418 145 419
f 145 147 419
f 419 147 413
f 147 149 413
f 413 149 151
f 171 173 409
f 173 175 409
f 409 175 177
f 63 65 1
f 65 67 1
f 1 67 2
f 67 69 2
f 2 69 71
f 293 295 77
f 295 297 77
f 77 297 299
f 91 93 291
f 93 95 291
f 291 95 97
f 399 291 391
f 291 109 391
f 391 109 111
f 113 115 391
f 115 117 391
f 391 117 119
f 315 317 77
f 317 319 77
f 77 319 321
f 329 331 2
f 347 349 2
f 349 351 2
f 2 351 209
f 77 79 293
f 79 81 293
f 293 81 291
f 81 83 291
f 291 83 85
f 97 99 291
f 99 101 291
f 291 101 103
f 103 105 291
f 105 107 291
f 291 107 109
f 119 121 391
f 121 123 391
f 391 123 125
f 321 323 77
f 323 325 77
f 77 325 2
f 325 327 2
f 2 327 329
f 331 333 2
f 333 335 2
f 2 335 337
f 337 339 2
f 339 341 2
f 2 341 343
f 213 215 2
f 215 217 2
f 2 217 386
f 217 219 386
f 386 219 221
f 390 45 420
f 45 44 420
f 420 44 421
f 44 40 421
f 422 37 423
f 37 35 423
f 424 34 207
f 34 36 207
f 421 40 422
f 40 37 422
f 387 394 389
f 394 425 389
f 423 35 424
f 35 34 424
f 7 371 8
f 371 369 8
f 426 55 384
f 55 54 384
f 5 373 6
f 373 372 6
f 427 11 428
f 11 10 428
f 6 372 7
f 372 371 7
f 55 426 429
f 55 429 53
f 429 430 53
f 53 430 58
f 430 431 58
f 58 431 59
f 431 432 59
f 59 432 60
f 432 433 60
f 60 433 48
f 433 434 48
f 48 434 49
f 434 435 49
f 49 435 61
f 435 436 61
f 61 436 62
f 436 437 62
f 62 437 56
f 437 438 56
f 56 438 57
f 438 439 57
f 57 439 47
f 439 440 47
f 47 440 39
f 440 441 39
f 39 441 38
f 441 442 38
f 38 442 12
f 216 214 366
f 214 212 366
f 366 212 210
f 132 130 443
f 224 388 226
f 388 228 226
f 444 443 292
f 388 242 240
f 240 238 388
f 238 236 388
f 388 236 234
f 234 232 388
f 232 230 388
f 388 230 228
f 224 222 388
f 222 220 388
f 388 220 366
f 220 218 366
f 366 218 216
f 304 302 72
f 444 292 445
f 256 254 389
f 254 252 389
f 389 252 250
f 250 248 389
f 248 246 389
f 389 246 388
f 246 244 388
f 388 244 242
f 64 206 367
f 206 204 367
f 367 204 202
f 64 312 310
f 268 266 389
f 266 264 389
f 389 264 262
f 118 116 443
f 116 114 443
f 210 352 366
f 352 350 366
f 366 350 348
f 68 66 306
f 66 64 306
f 306 64 308
f 64 310 308
f 302 300 72
f 300 298 72
f 72 298 74
f 304 72 306
f 72 70 306
f 306 70 68
f 446 447 290
f 447 448 290
f 290 448 292
f 448 449 292
f 292 449 445
f 450 451 288
f 425 284 282
f 282 280 425
f 280 278 425
f 425 278 276
f 262 260 389
f 260 258 389
f 389 258 256
f 130 128 443
f 128 126 443
f 443 126 124
f 98 96 292
f 96 94 292
f 292 94 92
f 92 90 292
f 90 88 292
f 292 88 86
f 340 338 367
f 451 452 288
f 452 453 288
f 288 453 290
f 453 454 290
f 290 454 446
f 276 274 425
f 274 272 425
f 425 272 389
f 272 270 389
f 389 270 268
f 202 200 367
f 200 198 367
f 367 198 196
f 196 194 367
f 194 192 367
f 367 192 190
f 170 168 455
f 168 166 455
f 106 104 292
f 326 324 367
f 324 322 367
f 367 322 320
f 320 318 367
f 318 316 367
f 367 316 64
f 316 314 64
f 64 314 312
f 86 84 292
f 84 82 292
f 292 82 294
f 82 80 294
f 294 80 296
f 80 78 296
f 296 78 298
f 78 76 298
f 298 76 74
f 456 457 286
f 457 458 286
f 286 458 288
f 458 459 288
f 288 459 450
f 284 425 286
f 425 460 286
f 286 460 456
f 190 188 367
f 188 186 367
f 367 186 184
f 461 156 462
f 156 154 462
f 462 154 463
f 124 122 443
f 122 120 443
f 443 120 118
f 114 112 443
f 112 110 443
f 443 110 292
f 110 108 292
f 292 108 106
f 104 102 292
f 102 100 292
f 292 100 98
f 348 346 366
f 346 344 366
f 366 344 367
f 344 342 367
f 367 342 340
f 338 336 367
f 336 334 367
f 367 334 332
f 184 182 367
f 182 180 367
f 367 180 455
f 180 178 455
f 455 178 176
f 166 164 455
f 164 162 455
f 455 162 464
f 162 160 464
f 464 160 461
f 160 158 461
f 461 158 156
f 332 330 367
f 330 328 367
f 367 328 326
f 176 174 455
f 174 172 455
f 455 172 170
f 154 152 463
f 152 150 463
f 463 150 465
f 150 148 465
f 465 148 466
f 148 146 466
f 466 146 467
f 146 144 467
f 467 144 468
f 144 142 468
f 142 140 468
f 468 140 469
f 140 138 469
f 469 138 470
f 138 136 470
f 470 136 443
f 136 134 443
f 443 134 132
f 471 15 9
f 8 369 9
f 369 368 9
f 9 368 471
f 12 442 3
f 442 370 3
f 3 370 1
f 370 367 1
f 409 1 455
f 1 367 455
f 409 455 464
f 409 464 416
f 464 461 416
f 416 461 415
f 461 462 415
f 415 462 414
f 462 463 414
f 414 463 413
f 463 465 413
f 413 465 419
f 465 466 419
f 419 466 418
f 466 467 418
f 418 467 417
f 467 468 417
f 417 468 412
f 468 469 412
f 412 469 411
f 469 470 411
f 411 470 410
f 470 443 410
f 410 443 391
f 443 444 391
f 391 444 399
f 444 445 399
f 399 445 400
f 445 449 400
f 400 449 401
f 449 448 401
f 401 448 402
f 448 447 402
f 402 447 395
f 447 446 395
f 395 446 396
f 446 454 396
f 396 454 397
f 454 453 397
f 397 453 398
f 453 452 398
f 398 452 392
f 452 451 392
f 392 451 393
f 451 450 393
f 393 450 406
f 450 459 406
f 406 459 407
f 459 458 407
f 407 458 408
f 458 457 408
f 408 457 405
f 457 456 405
f 405 456 404
f 456 460 404
f 404 460 403
f 460 425 403
f 403 425 394
f 2 386 366
f 386 388 366
f 472 16 471
f 16 15 471
f 428 10 472
f 10 16 472
f 473 22 427
f 22 11 427
f 364 374 375
f 428 472 471
f 356 357 358
f 474 473 377
f 473 427 377
f 376 377 442
f 377 427 442
f 442 427 370
f 427 428 370
f 370 428 368
f 428 471 368
f 422 423 424
f 442 359 360
f 361 362 360
f 362 363 360
f 360 363 442
f 363 364 442
f 442 364 376
f 364 375 376
f 440 207 441
f 207 208 441
f 441 208 442
f 353 354 208
f 354 355 208
f 208 355 442
f 355 356 442
f 442 356 359
f 356 358 359
f 430 429 379
f 390 420 385
f 420 421 385
f 385 421 440
f 421 422 440
f 440 422 207
f 422 424 207
f 378 379 384
f 379 429 384
f 384 429 426
f 435 434 380
f 434 433 380
f 433 432 380
f 380 432 379
f 432 431 379
f 379 431 430
f 381 382 380
f 382 383 380
f 440 439 385
f 439 438 385
f 385 438 383
f 438 437 383
f 383 437 380
f 437 436 380
f 380 436 435
f 474 21 473
f 21 22 473
f 377 20 474
f 20 21 474
# 952 faces, 0 coords texture

# End of File
