####
#
# OBJ File Generated by Meshlab
#
####
# Object link.obj
#
# Vertices: 496
# Faces: 996
#
####
v -0.012074 0.000000 -0.016489
v -0.012074 -0.002000 -0.016489
v -0.011935 0.000000 -0.016482
v -0.011935 -0.002000 -0.016482
v -0.011796 0.000000 -0.016464
v -0.011796 -0.002000 -0.016464
v -0.011660 0.000000 -0.016434
v -0.011660 -0.002000 -0.016434
v -0.011527 0.000000 -0.016392
v -0.011527 -0.002000 -0.016392
v -0.011398 0.000000 -0.016339
v -0.011398 -0.002000 -0.016339
v -0.011274 0.000000 -0.016274
v -0.011274 -0.002000 -0.016274
v -0.011156 0.000000 -0.016199
v -0.011156 -0.002000 -0.016199
v -0.011046 0.000000 -0.016114
v -0.011046 -0.002000 -0.016114
v -0.010943 0.000000 -0.016020
v -0.010943 -0.002000 -0.016020
v -0.010849 0.000000 -0.015917
v -0.010849 -0.002000 -0.015917
v -0.010764 0.000000 -0.015806
v -0.010764 -0.002000 -0.015806
v -0.010689 0.000000 -0.015689
v -0.010689 -0.002000 -0.015689
v -0.010624 0.000000 -0.015565
v -0.010624 -0.002000 -0.015565
v -0.010571 0.000000 -0.015436
v -0.010571 -0.002000 -0.015436
v -0.010529 0.000000 -0.015303
v -0.010529 -0.002000 -0.015303
v -0.010498 0.000000 -0.015166
v -0.010498 -0.002000 -0.015166
v -0.010480 0.000000 -0.015028
v -0.010480 -0.002000 -0.015028
v -0.010474 0.000000 -0.014889
v -0.010474 -0.002000 -0.014889
v -0.010480 0.000000 -0.014749
v -0.010480 -0.002000 -0.014749
v -0.010498 0.000000 -0.014611
v -0.010498 -0.002000 -0.014611
v -0.010529 0.000000 -0.014474
v -0.010529 -0.002000 -0.014474
v -0.010571 0.000000 -0.014341
v -0.010571 -0.002000 -0.014341
v -0.010624 0.000000 -0.014212
v -0.010624 -0.002000 -0.014212
v -0.010689 0.000000 -0.014089
v -0.010689 -0.002000 -0.014089
v -0.010764 0.000000 -0.013971
v -0.010764 -0.002000 -0.013971
v -0.010849 0.000000 -0.013860
v -0.010849 -0.002000 -0.013860
v -0.010943 0.000000 -0.013757
v -0.010943 -0.002000 -0.013757
v -0.011046 0.000000 -0.013663
v -0.011046 -0.002000 -0.013663
v -0.011156 0.000000 -0.013578
v -0.011156 -0.002000 -0.013578
v -0.011274 0.000000 -0.013503
v -0.011274 -0.002000 -0.013503
v -0.011398 0.000000 -0.013438
v -0.011398 -0.002000 -0.013438
v -0.011527 0.000000 -0.013385
v -0.011527 -0.002000 -0.013385
v -0.011660 0.000000 -0.013343
v -0.011660 -0.002000 -0.013343
v -0.011796 0.000000 -0.013313
v -0.011796 -0.002000 -0.013313
v -0.011935 0.000000 -0.013295
v -0.011935 -0.002000 -0.013295
v -0.012074 0.000000 -0.013289
v -0.012074 -0.002000 -0.013289
v -0.012214 0.000000 -0.013295
v -0.012214 -0.002000 -0.013295
v -0.012352 0.000000 -0.013313
v -0.012352 -0.002000 -0.013313
v -0.012488 0.000000 -0.013343
v -0.012488 -0.002000 -0.013343
v -0.012621 0.000000 -0.013385
v -0.012621 -0.002000 -0.013385
v -0.012750 0.000000 -0.013438
v -0.012750 -0.002000 -0.013438
v -0.012874 0.000000 -0.013503
v -0.012874 -0.002000 -0.013503
v -0.012992 0.000000 -0.013578
v -0.012992 -0.002000 -0.013578
v -0.013103 0.000000 -0.013663
v -0.013103 -0.002000 -0.013663
v -0.013206 0.000000 -0.013757
v -0.013206 -0.002000 -0.013757
v -0.013300 0.000000 -0.013860
v -0.013300 -0.002000 -0.013860
v -0.013385 0.000000 -0.013971
v -0.013385 -0.002000 -0.013971
v -0.013460 0.000000 -0.014089
v -0.013460 -0.002000 -0.014089
v -0.013524 0.000000 -0.014212
v -0.013524 -0.002000 -0.014212
v -0.013578 0.000000 -0.014341
v -0.013578 -0.002000 -0.014341
v -0.013620 0.000000 -0.014474
v -0.013620 -0.002000 -0.014474
v -0.013650 0.000000 -0.014611
v -0.013650 -0.002000 -0.014611
v -0.013668 0.000000 -0.014749
v -0.013668 -0.002000 -0.014749
v -0.013674 0.000000 -0.014889
v -0.013674 -0.002000 -0.014889
v -0.013668 0.000000 -0.015028
v -0.013668 -0.002000 -0.015028
v -0.013650 0.000000 -0.015166
v -0.013650 -0.002000 -0.015166
v -0.013620 0.000000 -0.015303
v -0.013620 -0.002000 -0.015303
v -0.013578 0.000000 -0.015436
v -0.013578 -0.002000 -0.015436
v -0.013524 0.000000 -0.015565
v -0.013524 -0.002000 -0.015565
v -0.013460 0.000000 -0.015689
v -0.013460 -0.002000 -0.015689
v -0.013385 0.000000 -0.015806
v -0.013385 -0.002000 -0.015806
v -0.013300 0.000000 -0.015917
v -0.013300 -0.002000 -0.015917
v -0.013206 0.000000 -0.016020
v -0.013206 -0.002000 -0.016020
v -0.013103 0.000000 -0.016114
v -0.013103 -0.002000 -0.016114
v -0.012992 0.000000 -0.016199
v -0.012992 -0.002000 -0.016199
v -0.012874 0.000000 -0.016274
v -0.012874 -0.002000 -0.016274
v -0.012750 0.000000 -0.016339
v -0.012750 -0.002000 -0.016339
v -0.012621 0.000000 -0.016392
v -0.012621 -0.002000 -0.016392
v -0.012488 0.000000 -0.016434
v -0.012488 -0.002000 -0.016434
v -0.012352 0.000000 -0.016464
v -0.012352 -0.002000 -0.016464
v -0.012214 0.000000 -0.016482
v -0.012214 -0.002000 -0.016482
v -0.012074 0.000000 -0.039489
v -0.012074 -0.002000 -0.039489
v -0.011935 0.000000 -0.039482
v -0.011935 -0.002000 -0.039482
v -0.011796 0.000000 -0.039464
v -0.011796 -0.002000 -0.039464
v -0.011660 0.000000 -0.039434
v -0.011660 -0.002000 -0.039434
v -0.011527 0.000000 -0.039392
v -0.011527 -0.002000 -0.039392
v -0.011398 0.000000 -0.039339
v -0.011398 -0.002000 -0.039339
v -0.011274 0.000000 -0.039274
v -0.011274 -0.002000 -0.039274
v -0.011156 0.000000 -0.039199
v -0.011156 -0.002000 -0.039199
v -0.011046 0.000000 -0.039114
v -0.011046 -0.002000 -0.039114
v -0.010943 0.000000 -0.039020
v -0.010943 -0.002000 -0.039020
v -0.010849 0.000000 -0.038917
v -0.010849 -0.002000 -0.038917
v -0.010764 0.000000 -0.038806
v -0.010764 -0.002000 -0.038806
v -0.010689 0.000000 -0.038689
v -0.010689 -0.002000 -0.038689
v -0.010624 0.000000 -0.038565
v -0.010624 -0.002000 -0.038565
v -0.010571 0.000000 -0.038436
v -0.010571 -0.002000 -0.038436
v -0.010529 0.000000 -0.038303
v -0.010529 -0.002000 -0.038303
v -0.010498 0.000000 -0.038166
v -0.010498 -0.002000 -0.038166
v -0.010480 0.000000 -0.038028
v -0.010480 -0.002000 -0.038028
v -0.010474 0.000000 -0.037889
v -0.010474 -0.002000 -0.037889
v -0.010480 0.000000 -0.037749
v -0.010480 -0.002000 -0.037749
v -0.010498 0.000000 -0.037611
v -0.010498 -0.002000 -0.037611
v -0.010529 0.000000 -0.037474
v -0.010529 -0.002000 -0.037474
v -0.010571 0.000000 -0.037341
v -0.010571 -0.002000 -0.037341
v -0.010624 0.000000 -0.037212
v -0.010624 -0.002000 -0.037212
v -0.010689 0.000000 -0.037089
v -0.010689 -0.002000 -0.037089
v -0.010764 0.000000 -0.036971
v -0.010764 -0.002000 -0.036971
v -0.010849 0.000000 -0.036860
v -0.010849 -0.002000 -0.036860
v -0.010943 0.000000 -0.036757
v -0.010943 -0.002000 -0.036757
v -0.011046 0.000000 -0.036663
v -0.011046 -0.002000 -0.036663
v -0.011156 0.000000 -0.036578
v -0.011156 -0.002000 -0.036578
v -0.011274 0.000000 -0.036503
v -0.011274 -0.002000 -0.036503
v -0.011398 0.000000 -0.036438
v -0.011398 -0.002000 -0.036438
v -0.011527 0.000000 -0.036385
v -0.011527 -0.002000 -0.036385
v -0.011660 0.000000 -0.036343
v -0.011660 -0.002000 -0.036343
v -0.011796 0.000000 -0.036313
v -0.011796 -0.002000 -0.036313
v -0.011935 0.000000 -0.036295
v -0.011935 -0.002000 -0.036295
v -0.012074 0.000000 -0.036289
v -0.012074 -0.002000 -0.036289
v -0.012214 0.000000 -0.036295
v -0.012214 -0.002000 -0.036295
v -0.012352 0.000000 -0.036313
v -0.012352 -0.002000 -0.036313
v -0.012488 0.000000 -0.036343
v -0.012488 -0.002000 -0.036343
v -0.012621 0.000000 -0.036385
v -0.012621 -0.002000 -0.036385
v -0.012750 0.000000 -0.036438
v -0.012750 -0.002000 -0.036438
v -0.012874 0.000000 -0.036503
v -0.012874 -0.002000 -0.036503
v -0.012992 0.000000 -0.036578
v -0.012992 -0.002000 -0.036578
v -0.013103 0.000000 -0.036663
v -0.013103 -0.002000 -0.036663
v -0.013206 0.000000 -0.036757
v -0.013206 -0.002000 -0.036757
v -0.013300 0.000000 -0.036860
v -0.013300 -0.002000 -0.036860
v -0.013385 0.000000 -0.036971
v -0.013385 -0.002000 -0.036971
v -0.013460 0.000000 -0.037089
v -0.013460 -0.002000 -0.037089
v -0.013524 0.000000 -0.037212
v -0.013524 -0.002000 -0.037212
v -0.013578 0.000000 -0.037341
v -0.013578 -0.002000 -0.037341
v -0.013620 0.000000 -0.037474
v -0.013620 -0.002000 -0.037474
v -0.013650 0.000000 -0.037611
v -0.013650 -0.002000 -0.037611
v -0.013668 0.000000 -0.037749
v -0.013668 -0.002000 -0.037749
v -0.013674 0.000000 -0.037889
v -0.013674 -0.002000 -0.037889
v -0.013668 0.000000 -0.038028
v -0.013668 -0.002000 -0.038028
v -0.013650 0.000000 -0.038166
v -0.013650 -0.002000 -0.038166
v -0.013620 0.000000 -0.038303
v -0.013620 -0.002000 -0.038303
v -0.013578 0.000000 -0.038436
v -0.013578 -0.002000 -0.038436
v -0.013524 0.000000 -0.038565
v -0.013524 -0.002000 -0.038565
v -0.013460 0.000000 -0.038689
v -0.013460 -0.002000 -0.038689
v -0.013385 0.000000 -0.038806
v -0.013385 -0.002000 -0.038806
v -0.013300 0.000000 -0.038917
v -0.013300 -0.002000 -0.038917
v -0.013206 0.000000 -0.039020
v -0.013206 -0.002000 -0.039020
v -0.013103 0.000000 -0.039114
v -0.013103 -0.002000 -0.039114
v -0.012992 0.000000 -0.039199
v -0.012992 -0.002000 -0.039199
v -0.012874 0.000000 -0.039274
v -0.012874 -0.002000 -0.039274
v -0.012750 0.000000 -0.039339
v -0.012750 -0.002000 -0.039339
v -0.012621 0.000000 -0.039392
v -0.012621 -0.002000 -0.039392
v -0.012488 0.000000 -0.039434
v -0.012488 -0.002000 -0.039434
v -0.012352 0.000000 -0.039464
v -0.012352 -0.002000 -0.039464
v -0.012214 0.000000 -0.039482
v -0.012214 -0.002000 -0.039482
v -0.010074 -0.002000 -0.016389
v -0.010074 0.000000 -0.016389
v -0.009952 0.000000 -0.016209
v -0.009952 -0.002000 -0.016209
v -0.009845 0.000000 -0.016020
v -0.009845 -0.002000 -0.016020
v -0.009755 0.000000 -0.015823
v -0.009755 -0.002000 -0.015823
v -0.009683 0.000000 -0.015618
v -0.009683 -0.002000 -0.015618
v -0.009629 0.000000 -0.015408
v -0.009629 -0.002000 -0.015408
v -0.009593 0.000000 -0.015194
v -0.009593 -0.002000 -0.015194
v -0.009576 0.000000 -0.014978
v -0.009576 -0.002000 -0.014978
v -0.009577 0.000000 -0.014761
v -0.009577 -0.002000 -0.014761
v -0.009598 0.000000 -0.014545
v -0.009598 -0.002000 -0.014545
v -0.009637 0.000000 -0.014331
v -0.009637 -0.002000 -0.014331
v -0.009695 0.000000 -0.014122
v -0.009695 -0.002000 -0.014122
v -0.009770 0.000000 -0.013918
v -0.009770 -0.002000 -0.013918
v -0.009863 0.000000 -0.013722
v -0.009863 -0.002000 -0.013722
v -0.009972 0.000000 -0.013535
v -0.009972 -0.002000 -0.013535
v -0.010098 0.000000 -0.013358
v -0.010098 -0.002000 -0.013358
v -0.010238 0.000000 -0.013192
v -0.010238 -0.002000 -0.013192
v -0.010392 0.000000 -0.013039
v -0.010392 -0.002000 -0.013039
v -0.010559 0.000000 -0.012900
v -0.010559 -0.002000 -0.012900
v -0.010737 0.000000 -0.012776
v -0.010737 -0.002000 -0.012776
v -0.010925 0.000000 -0.012668
v -0.010925 -0.002000 -0.012668
v -0.011122 0.000000 -0.012577
v -0.011122 -0.002000 -0.012577
v -0.011326 0.000000 -0.012503
v -0.011326 -0.002000 -0.012503
v -0.011536 0.000000 -0.012447
v -0.011536 -0.002000 -0.012447
v -0.011749 0.000000 -0.012410
v -0.011749 -0.002000 -0.012410
v -0.011966 0.000000 -0.012391
v -0.011966 -0.002000 -0.012391
v -0.012183 0.000000 -0.012391
v -0.012183 -0.002000 -0.012391
v -0.012399 0.000000 -0.012410
v -0.012399 -0.002000 -0.012410
v -0.012613 0.000000 -0.012447
v -0.012613 -0.002000 -0.012447
v -0.012822 0.000000 -0.012503
v -0.012822 -0.002000 -0.012503
v -0.013026 0.000000 -0.012577
v -0.013026 -0.002000 -0.012577
v -0.013223 0.000000 -0.012668
v -0.013223 -0.002000 -0.012668
v -0.013412 0.000000 -0.012776
v -0.013412 -0.002000 -0.012776
v -0.013590 0.000000 -0.012900
v -0.013590 -0.002000 -0.012900
v -0.013756 0.000000 -0.013039
v -0.013756 -0.002000 -0.013039
v -0.013910 0.000000 -0.013192
v -0.013910 -0.002000 -0.013192
v -0.014051 0.000000 -0.013358
v -0.014051 -0.002000 -0.013358
v -0.014176 0.000000 -0.013535
v -0.014176 -0.002000 -0.013535
v -0.014285 0.000000 -0.013722
v -0.014285 -0.002000 -0.013722
v -0.014378 0.000000 -0.013918
v -0.014378 -0.002000 -0.013918
v -0.014454 0.000000 -0.014122
v -0.014454 -0.002000 -0.014122
v -0.014511 0.000000 -0.014331
v -0.014511 -0.002000 -0.014331
v -0.014550 0.000000 -0.014545
v -0.014550 -0.002000 -0.014545
v -0.014571 0.000000 -0.014761
v -0.014571 -0.002000 -0.014761
v -0.014573 0.000000 -0.014978
v -0.014573 -0.002000 -0.014978
v -0.014555 0.000000 -0.015194
v -0.014555 -0.002000 -0.015194
v -0.014520 0.000000 -0.015408
v -0.014520 -0.002000 -0.015408
v -0.014465 0.000000 -0.015618
v -0.014465 -0.002000 -0.015618
v -0.014393 0.000000 -0.015823
v -0.014393 -0.002000 -0.015823
v -0.014303 0.000000 -0.016020
v -0.014303 -0.002000 -0.016020
v -0.014197 0.000000 -0.016209
v -0.014197 -0.002000 -0.016209
v -0.014074 0.000000 -0.016389
v -0.014074 -0.002000 -0.016389
v -0.010074 0.000000 -0.036389
v -0.014074 0.000000 -0.036389
v -0.011749 0.000000 -0.040367
v -0.011536 0.000000 -0.040330
v -0.011326 0.000000 -0.040274
v -0.011122 0.000000 -0.040200
v -0.010925 0.000000 -0.040109
v -0.010737 0.000000 -0.040001
v -0.010559 0.000000 -0.039877
v -0.010392 0.000000 -0.039738
v -0.010238 0.000000 -0.039585
v -0.010098 0.000000 -0.039419
v -0.009972 0.000000 -0.039242
v -0.009863 0.000000 -0.039055
v -0.009770 0.000000 -0.038859
v -0.009695 0.000000 -0.038655
v -0.009637 0.000000 -0.038446
v -0.009598 0.000000 -0.038232
v -0.011966 0.000000 -0.040386
v -0.012183 0.000000 -0.040386
v -0.012399 0.000000 -0.040367
v -0.012613 0.000000 -0.040330
v -0.012822 0.000000 -0.040274
v -0.013026 0.000000 -0.040200
v -0.013223 0.000000 -0.040109
v -0.013412 0.000000 -0.040001
v -0.013590 0.000000 -0.039877
v -0.013756 0.000000 -0.039738
v -0.013910 0.000000 -0.039585
v -0.014051 0.000000 -0.039419
v -0.014176 0.000000 -0.039242
v -0.014285 0.000000 -0.039055
v -0.014378 0.000000 -0.038859
v -0.014454 0.000000 -0.038655
v -0.014511 0.000000 -0.038446
v -0.014550 0.000000 -0.038232
v -0.014571 0.000000 -0.038016
v -0.014573 0.000000 -0.037799
v -0.014555 0.000000 -0.037583
v -0.014520 0.000000 -0.037369
v -0.014465 0.000000 -0.037159
v -0.014393 0.000000 -0.036954
v -0.014303 0.000000 -0.036757
v -0.014197 0.000000 -0.036568
v -0.009952 0.000000 -0.036568
v -0.009845 0.000000 -0.036757
v -0.009755 0.000000 -0.036954
v -0.009683 0.000000 -0.037159
v -0.009629 0.000000 -0.037369
v -0.009593 0.000000 -0.037583
v -0.009576 0.000000 -0.037799
v -0.009577 0.000000 -0.038016
v -0.010074 -0.002000 -0.036389
v -0.014074 -0.002000 -0.036389
v -0.014197 -0.002000 -0.036568
v -0.014303 -0.002000 -0.036757
v -0.014393 -0.002000 -0.036954
v -0.014465 -0.002000 -0.037159
v -0.014520 -0.002000 -0.037369
v -0.014555 -0.002000 -0.037583
v -0.014573 -0.002000 -0.037799
v -0.014571 -0.002000 -0.038016
v -0.014550 -0.002000 -0.038232
v -0.014511 -0.002000 -0.038446
v -0.014454 -0.002000 -0.038655
v -0.014378 -0.002000 -0.038859
v -0.014285 -0.002000 -0.039055
v -0.014176 -0.002000 -0.039242
v -0.014051 -0.002000 -0.039419
v -0.013910 -0.002000 -0.039585
v -0.013756 -0.002000 -0.039738
v -0.013590 -0.002000 -0.039877
v -0.013412 -0.002000 -0.040001
v -0.013223 -0.002000 -0.040109
v -0.013026 -0.002000 -0.040200
v -0.012822 -0.002000 -0.040274
v -0.012613 -0.002000 -0.040330
v -0.012399 -0.002000 -0.040367
v -0.012183 -0.002000 -0.040386
v -0.011966 -0.002000 -0.040386
v -0.011749 -0.002000 -0.040367
v -0.011536 -0.002000 -0.040330
v -0.011326 -0.002000 -0.040274
v -0.011122 -0.002000 -0.040200
v -0.010925 -0.002000 -0.040109
v -0.010737 -0.002000 -0.040001
v -0.010559 -0.002000 -0.039877
v -0.010392 -0.002000 -0.039738
v -0.010238 -0.002000 -0.039585
v -0.010098 -0.002000 -0.039419
v -0.009972 -0.002000 -0.039242
v -0.009863 -0.002000 -0.039055
v -0.009770 -0.002000 -0.038859
v -0.009695 -0.002000 -0.038655
v -0.009637 -0.002000 -0.038446
v -0.009598 -0.002000 -0.038232
v -0.009577 -0.002000 -0.038016
v -0.009576 -0.002000 -0.037799
v -0.009593 -0.002000 -0.037583
v -0.009629 -0.002000 -0.037369
v -0.009683 -0.002000 -0.037159
v -0.009755 -0.002000 -0.036954
v -0.009845 -0.002000 -0.036757
v -0.009952 -0.002000 -0.036568
# 496 vertices, 0 vertices normals

f 1 2 3
f 2 4 3
f 3 4 5
f 4 6 5
f 5 6 7
f 6 8 7
f 7 8 9
f 8 10 9
f 9 10 11
f 10 12 11
f 11 12 13
f 12 14 13
f 13 14 15
f 14 16 15
f 15 16 17
f 16 18 17
f 17 18 19
f 18 20 19
f 19 20 21
f 20 22 21
f 21 22 23
f 22 24 23
f 23 24 25
f 24 26 25
f 25 26 27
f 26 28 27
f 27 28 29
f 28 30 29
f 29 30 31
f 30 32 31
f 31 32 33
f 32 34 33
f 33 34 35
f 34 36 35
f 35 36 37
f 36 38 37
f 37 38 39
f 38 40 39
f 39 40 41
f 40 42 41
f 41 42 43
f 42 44 43
f 43 44 45
f 44 46 45
f 45 46 47
f 46 48 47
f 47 48 49
f 48 50 49
f 49 50 51
f 50 52 51
f 51 52 53
f 52 54 53
f 53 54 55
f 54 56 55
f 55 56 57
f 56 58 57
f 57 58 59
f 58 60 59
f 59 60 61
f 60 62 61
f 61 62 63
f 62 64 63
f 63 64 65
f 64 66 65
f 65 66 67
f 66 68 67
f 67 68 69
f 68 70 69
f 69 70 71
f 70 72 71
f 71 72 73
f 72 74 73
f 73 74 75
f 74 76 75
f 75 76 77
f 76 78 77
f 77 78 79
f 78 80 79
f 79 80 81
f 80 82 81
f 81 82 83
f 82 84 83
f 83 84 85
f 84 86 85
f 85 86 87
f 86 88 87
f 87 88 89
f 88 90 89
f 89 90 91
f 90 92 91
f 91 92 93
f 92 94 93
f 93 94 95
f 94 96 95
f 95 96 97
f 96 98 97
f 97 98 99
f 98 100 99
f 99 100 101
f 100 102 101
f 101 102 103
f 102 104 103
f 103 104 105
f 104 106 105
f 105 106 107
f 106 108 107
f 107 108 109
f 108 110 109
f 109 110 111
f 110 112 111
f 111 112 113
f 112 114 113
f 113 114 115
f 114 116 115
f 115 116 117
f 116 118 117
f 117 118 119
f 118 120 119
f 119 120 121
f 120 122 121
f 121 122 123
f 122 124 123
f 123 124 125
f 124 126 125
f 125 126 127
f 126 128 127
f 127 128 129
f 128 130 129
f 129 130 131
f 130 132 131
f 131 132 133
f 132 134 133
f 133 134 135
f 134 136 135
f 135 136 137
f 136 138 137
f 137 138 139
f 138 140 139
f 139 140 141
f 140 142 141
f 141 142 143
f 142 144 143
f 143 144 1
f 144 2 1
f 145 146 147
f 146 148 147
f 147 148 149
f 148 150 149
f 149 150 151
f 150 152 151
f 151 152 153
f 152 154 153
f 153 154 155
f 154 156 155
f 155 156 157
f 156 158 157
f 157 158 159
f 158 160 159
f 159 160 161
f 160 162 161
f 161 162 163
f 162 164 163
f 163 164 165
f 164 166 165
f 165 166 167
f 166 168 167
f 167 168 169
f 168 170 169
f 169 170 171
f 170 172 171
f 171 172 173
f 172 174 173
f 173 174 175
f 174 176 175
f 175 176 177
f 176 178 177
f 177 178 179
f 178 180 179
f 179 180 181
f 180 182 181
f 181 182 183
f 182 184 183
f 183 184 185
f 184 186 185
f 185 186 187
f 186 188 187
f 187 188 189
f 188 190 189
f 189 190 191
f 190 192 191
f 191 192 193
f 192 194 193
f 193 194 195
f 194 196 195
f 195 196 197
f 196 198 197
f 197 198 199
f 198 200 199
f 199 200 201
f 200 202 201
f 201 202 203
f 202 204 203
f 203 204 205
f 204 206 205
f 205 206 207
f 206 208 207
f 207 208 209
f 208 210 209
f 209 210 211
f 210 212 211
f 211 212 213
f 212 214 213
f 213 214 215
f 214 216 215
f 215 216 217
f 216 218 217
f 217 218 219
f 218 220 219
f 219 220 221
f 220 222 221
f 221 222 223
f 222 224 223
f 223 224 225
f 224 226 225
f 225 226 227
f 226 228 227
f 227 228 229
f 228 230 229
f 229 230 231
f 230 232 231
f 231 232 233
f 232 234 233
f 233 234 235
f 234 236 235
f 235 236 237
f 236 238 237
f 237 238 239
f 238 240 239
f 239 240 241
f 240 242 241
f 241 242 243
f 242 244 243
f 243 244 245
f 244 246 245
f 245 246 247
f 246 248 247
f 247 248 249
f 248 250 249
f 249 250 251
f 250 252 251
f 251 252 253
f 252 254 253
f 253 254 255
f 254 256 255
f 255 256 257
f 256 258 257
f 257 258 259
f 258 260 259
f 259 260 261
f 260 262 261
f 261 262 263
f 262 264 263
f 263 264 265
f 264 266 265
f 265 266 267
f 266 268 267
f 267 268 269
f 268 270 269
f 269 270 271
f 270 272 271
f 271 272 273
f 272 274 273
f 273 274 275
f 274 276 275
f 275 276 277
f 276 278 277
f 277 278 279
f 278 280 279
f 279 280 281
f 280 282 281
f 281 282 283
f 282 284 283
f 283 284 285
f 284 286 285
f 285 286 287
f 286 288 287
f 287 288 145
f 288 146 145
f 289 290 291
f 289 291 292
f 291 293 292
f 292 293 294
f 293 295 294
f 294 295 296
f 295 297 296
f 296 297 298
f 297 299 298
f 298 299 300
f 299 301 300
f 300 301 302
f 301 303 302
f 302 303 304
f 303 305 304
f 304 305 306
f 305 307 306
f 306 307 308
f 307 309 308
f 308 309 310
f 309 311 310
f 310 311 312
f 311 313 312
f 312 313 314
f 313 315 314
f 314 315 316
f 315 317 316
f 316 317 318
f 317 319 318
f 318 319 320
f 319 321 320
f 320 321 322
f 321 323 322
f 322 323 324
f 323 325 324
f 324 325 326
f 325 327 326
f 326 327 328
f 327 329 328
f 328 329 330
f 329 331 330
f 330 331 332
f 331 333 332
f 332 333 334
f 333 335 334
f 334 335 336
f 335 337 336
f 336 337 338
f 337 339 338
f 338 339 340
f 339 341 340
f 340 341 342
f 341 343 342
f 342 343 344
f 343 345 344
f 344 345 346
f 345 347 346
f 346 347 348
f 347 349 348
f 348 349 350
f 349 351 350
f 350 351 352
f 351 353 352
f 352 353 354
f 353 355 354
f 354 355 356
f 355 357 356
f 356 357 358
f 357 359 358
f 358 359 360
f 359 361 360
f 360 361 362
f 361 363 362
f 362 363 364
f 363 365 364
f 364 365 366
f 365 367 366
f 366 367 368
f 367 369 368
f 368 369 370
f 369 371 370
f 370 371 372
f 371 373 372
f 372 373 374
f 373 375 374
f 374 375 376
f 375 377 376
f 376 377 378
f 377 379 378
f 378 379 380
f 379 381 380
f 380 381 382
f 381 383 382
f 382 383 384
f 383 385 384
f 384 385 386
f 385 387 386
f 386 387 388
f 387 389 388
f 388 389 390
f 389 391 390
f 390 391 392
f 105 107 391
f 107 109 391
f 391 109 111
f 7 9 290
f 9 11 290
f 290 11 13
f 179 393 177
f 393 175 177
f 219 221 394
f 221 223 394
f 387 385 103
f 129 131 217
f 13 15 290
f 15 17 290
f 290 17 19
f 209 290 207
f 290 205 207
f 223 225 394
f 225 227 394
f 394 227 229
f 105 391 103
f 391 389 103
f 103 389 387
f 185 187 393
f 187 189 393
f 393 189 191
f 121 123 217
f 141 217 139
f 217 137 139
f 209 211 290
f 211 213 290
f 290 213 215
f 379 377 103
f 377 375 103
f 179 181 393
f 181 183 393
f 393 183 185
f 191 193 393
f 193 195 393
f 393 195 197
f 197 199 393
f 199 201 393
f 393 201 290
f 201 203 290
f 290 203 205
f 123 125 217
f 125 127 217
f 217 127 129
f 131 133 217
f 133 135 217
f 217 135 137
f 229 231 394
f 231 233 394
f 394 233 235
f 145 147 395
f 375 373 103
f 373 371 103
f 103 371 101
f 371 369 101
f 101 369 99
f 369 367 99
f 99 367 97
f 367 365 97
f 97 365 95
f 365 363 95
f 95 363 93
f 363 361 93
f 93 361 91
f 361 359 91
f 91 359 89
f 359 357 89
f 89 357 87
f 357 355 87
f 87 355 85
f 355 353 85
f 85 353 83
f 353 351 83
f 83 351 81
f 351 349 81
f 81 349 79
f 349 347 79
f 79 347 77
f 347 345 77
f 77 345 75
f 345 343 75
f 75 343 73
f 343 341 73
f 341 339 73
f 73 339 71
f 339 337 71
f 71 337 69
f 337 335 69
f 69 335 67
f 335 333 67
f 67 333 65
f 333 331 65
f 65 331 63
f 331 329 63
f 63 329 61
f 329 327 61
f 61 327 59
f 327 325 59
f 59 325 57
f 325 323 57
f 57 323 55
f 323 321 55
f 55 321 53
f 321 319 53
f 53 319 51
f 319 317 51
f 51 317 49
f 317 315 49
f 49 315 47
f 315 313 47
f 47 313 45
f 313 311 45
f 45 311 43
f 311 309 43
f 43 309 41
f 309 307 41
f 41 307 39
f 307 305 39
f 39 305 37
f 305 303 37
f 37 303 35
f 303 301 35
f 35 301 33
f 301 299 33
f 33 299 31
f 299 297 31
f 31 297 29
f 297 295 29
f 29 295 27
f 295 293 27
f 27 293 25
f 293 291 25
f 25 291 23
f 291 290 23
f 23 290 21
f 290 19 21
f 141 143 217
f 143 1 217
f 217 1 215
f 1 3 215
f 215 3 290
f 3 5 290
f 290 5 7
f 385 383 103
f 383 381 103
f 103 381 379
f 394 391 219
f 391 111 219
f 219 111 217
f 111 113 217
f 217 113 115
f 115 117 217
f 117 119 217
f 217 119 121
f 395 147 396
f 147 149 396
f 396 149 397
f 149 151 397
f 397 151 398
f 151 153 398
f 398 153 399
f 153 155 399
f 399 155 400
f 155 157 400
f 400 157 401
f 157 159 401
f 401 159 402
f 159 161 402
f 402 161 403
f 161 163 403
f 403 163 404
f 163 165 404
f 404 165 405
f 165 167 405
f 405 167 406
f 167 169 406
f 406 169 407
f 169 171 407
f 407 171 408
f 171 173 408
f 408 173 409
f 173 175 409
f 409 175 410
f 395 411 145
f 411 412 145
f 145 412 287
f 412 413 287
f 287 413 285
f 413 414 285
f 285 414 283
f 414 415 283
f 283 415 281
f 415 416 281
f 281 416 279
f 416 417 279
f 279 417 277
f 417 418 277
f 277 418 275
f 418 419 275
f 275 419 273
f 419 420 273
f 273 420 271
f 420 421 271
f 271 421 269
f 421 422 269
f 269 422 267
f 422 423 267
f 267 423 265
f 423 424 265
f 265 424 263
f 424 425 263
f 263 425 261
f 425 426 261
f 261 426 259
f 426 427 259
f 259 427 257
f 427 428 257
f 257 428 255
f 428 429 255
f 255 429 253
f 429 430 253
f 253 430 251
f 430 431 251
f 251 431 249
f 431 432 249
f 249 432 247
f 432 433 247
f 247 433 245
f 433 434 245
f 245 434 243
f 434 435 243
f 243 435 241
f 435 436 241
f 241 436 239
f 436 394 239
f 239 394 237
f 394 235 237
f 393 437 175
f 437 438 175
f 175 438 439
f 439 440 175
f 440 441 175
f 175 441 442
f 442 443 175
f 443 444 175
f 175 444 410
f 289 445 290
f 445 393 290
f 446 392 394
f 392 391 394
f 446 394 436
f 446 436 447
f 436 435 447
f 447 435 448
f 435 434 448
f 448 434 449
f 434 433 449
f 449 433 450
f 433 432 450
f 450 432 451
f 432 431 451
f 451 431 452
f 431 430 452
f 452 430 453
f 430 429 453
f 453 429 454
f 429 428 454
f 454 428 455
f 428 427 455
f 455 427 456
f 427 426 456
f 456 426 457
f 426 425 457
f 457 425 458
f 425 424 458
f 458 424 459
f 424 423 459
f 459 423 460
f 423 422 460
f 460 422 461
f 422 421 461
f 461 421 462
f 421 420 462
f 462 420 463
f 420 419 463
f 463 419 464
f 419 418 464
f 464 418 465
f 418 417 465
f 465 417 466
f 417 416 466
f 466 416 467
f 416 415 467
f 467 415 468
f 415 414 468
f 468 414 469
f 414 413 469
f 469 413 470
f 413 412 470
f 470 412 471
f 412 411 471
f 471 411 472
f 411 395 472
f 472 395 473
f 395 396 473
f 473 396 474
f 396 397 474
f 474 397 475
f 397 398 475
f 475 398 476
f 398 399 476
f 476 399 477
f 399 400 477
f 477 400 478
f 400 401 478
f 478 401 479
f 401 402 479
f 479 402 480
f 402 403 480
f 480 403 481
f 403 404 481
f 481 404 482
f 404 405 482
f 482 405 483
f 405 406 483
f 483 406 484
f 406 407 484
f 484 407 485
f 407 408 485
f 485 408 486
f 408 409 486
f 486 409 487
f 409 410 487
f 487 410 488
f 410 444 488
f 488 444 489
f 444 443 489
f 489 443 490
f 443 442 490
f 490 442 491
f 442 441 491
f 491 441 492
f 441 440 492
f 492 440 493
f 440 439 493
f 493 439 494
f 439 438 494
f 494 438 495
f 438 437 495
f 495 437 496
f 437 393 496
f 496 393 445
f 246 244 446
f 224 222 392
f 445 202 200
f 42 40 289
f 296 298 44
f 246 446 248
f 260 456 262
f 456 457 262
f 262 457 264
f 457 458 264
f 264 458 266
f 458 459 266
f 266 459 268
f 459 460 268
f 268 460 270
f 460 461 270
f 270 461 272
f 461 462 272
f 272 462 274
f 462 463 274
f 274 463 276
f 463 464 276
f 276 464 278
f 464 465 278
f 278 465 280
f 465 466 280
f 280 466 282
f 466 467 282
f 282 467 284
f 467 468 284
f 284 468 286
f 468 469 286
f 286 469 288
f 28 26 289
f 26 24 289
f 14 212 210
f 258 256 446
f 256 254 446
f 244 242 446
f 242 240 446
f 446 240 238
f 230 228 392
f 228 226 392
f 392 226 224
f 448 449 260
f 24 22 289
f 22 20 289
f 289 20 18
f 212 14 214
f 14 12 214
f 214 12 10
f 10 8 214
f 8 6 214
f 214 6 4
f 210 208 14
f 208 206 14
f 14 206 16
f 296 44 294
f 254 252 446
f 252 250 446
f 446 250 248
f 238 236 446
f 236 234 446
f 446 234 392
f 234 232 392
f 392 232 230
f 142 140 222
f 140 138 222
f 222 138 136
f 260 452 453
f 40 38 289
f 38 36 289
f 289 36 34
f 202 445 204
f 445 289 204
f 204 289 206
f 289 18 206
f 206 18 16
f 42 289 44
f 289 292 44
f 44 292 294
f 44 304 306
f 136 134 222
f 134 132 222
f 222 132 392
f 132 130 392
f 392 130 128
f 258 446 260
f 446 447 260
f 260 447 448
f 449 450 260
f 450 451 260
f 260 451 452
f 453 454 260
f 454 455 260
f 260 455 456
f 34 32 289
f 32 30 289
f 289 30 28
f 142 222 144
f 222 220 144
f 144 220 2
f 220 218 2
f 2 218 4
f 218 216 4
f 4 216 214
f 306 308 44
f 308 310 44
f 44 310 46
f 310 312 46
f 46 312 48
f 312 314 48
f 48 314 50
f 314 316 50
f 50 316 52
f 316 318 52
f 52 318 54
f 318 320 54
f 54 320 56
f 320 322 56
f 56 322 58
f 322 324 58
f 58 324 60
f 324 326 60
f 60 326 62
f 326 328 62
f 62 328 64
f 328 330 64
f 64 330 66
f 330 332 66
f 66 332 68
f 332 334 68
f 68 334 70
f 334 336 70
f 70 336 72
f 298 300 44
f 300 302 44
f 44 302 304
f 469 470 288
f 470 471 288
f 288 471 146
f 471 472 146
f 146 472 148
f 472 473 148
f 148 473 150
f 473 474 150
f 150 474 152
f 474 475 152
f 152 475 154
f 475 476 154
f 154 476 156
f 476 477 156
f 156 477 158
f 477 478 158
f 158 478 160
f 478 479 160
f 160 479 162
f 479 480 162
f 162 480 164
f 480 481 164
f 164 481 166
f 481 482 166
f 166 482 168
f 482 483 168
f 168 483 170
f 483 484 170
f 170 484 172
f 484 485 172
f 172 485 174
f 485 486 174
f 174 486 176
f 486 487 176
f 176 487 178
f 487 488 178
f 178 488 180
f 488 489 180
f 180 489 182
f 489 490 182
f 182 490 184
f 490 491 184
f 184 491 186
f 491 492 186
f 186 492 188
f 492 493 188
f 188 493 190
f 493 494 190
f 190 494 192
f 494 495 192
f 192 495 194
f 495 496 194
f 194 496 196
f 496 445 196
f 196 445 198
f 445 200 198
f 336 338 72
f 338 340 72
f 72 340 74
f 340 342 74
f 74 342 76
f 342 344 76
f 76 344 78
f 344 346 78
f 78 346 80
f 346 348 80
f 80 348 82
f 348 350 82
f 82 350 84
f 350 352 84
f 84 352 86
f 352 354 86
f 86 354 88
f 354 356 88
f 88 356 90
f 356 358 90
f 90 358 92
f 358 360 92
f 92 360 94
f 360 362 94
f 94 362 96
f 362 364 96
f 96 364 98
f 364 366 98
f 98 366 100
f 366 368 100
f 100 368 102
f 368 370 102
f 102 370 104
f 370 372 104
f 104 372 106
f 372 374 106
f 106 374 108
f 374 376 108
f 108 376 110
f 376 378 110
f 110 378 112
f 378 380 112
f 112 380 114
f 380 382 114
f 114 382 116
f 382 384 116
f 116 384 118
f 384 386 118
f 118 386 120
f 386 388 120
f 120 388 122
f 388 390 122
f 122 390 124
f 390 392 124
f 124 392 126
f 392 128 126
# 996 faces, 0 coords texture

# End of File
