####
#
# OBJ File Generated by Meshlab
#
####
# Object link_down.obj
#
# Vertices: 508
# Faces: 1020
#
####
v -0.000183 0.000000 0.011415
v 0.000000 0.000000 0.011407
v 0.002500 0.000000 0.011058
v 0.000183 0.000000 0.011415
v -0.000887 0.000000 0.011604
v -0.000718 0.000000 0.011534
v 0.000000 0.000000 -0.007805
v -0.000544 0.000000 0.011479
v 0.000365 0.000000 0.011439
v 0.000544 0.000000 0.011479
v 0.000718 0.000000 0.011534
v 0.000887 0.000000 0.011604
v 0.001050 0.000000 0.011689
v 0.001205 0.000000 0.011787
v -0.002068 0.000000 0.013143
v -0.002028 0.000000 0.012964
v -0.001973 0.000000 0.012789
v 0.001050 0.000000 -0.008086
v 0.000887 0.000000 -0.008001
v 0.000718 0.000000 -0.007931
v 0.000544 0.000000 -0.007876
v 0.000365 0.000000 -0.007837
v 0.000183 0.000000 -0.007813
v -0.000365 0.000000 0.011439
v -0.001350 0.000000 0.011899
v -0.001205 0.000000 0.011787
v -0.001050 0.000000 0.011689
v 0.002068 0.000000 -0.010269
v 0.002092 0.000000 -0.010088
v 0.002500 0.000000 -0.007455
v 0.002100 0.000000 -0.009905
v 0.002092 0.000000 -0.009722
v -0.001903 0.000000 0.012620
v -0.001819 0.000000 0.012457
v -0.001720 0.000000 0.012303
v 0.001205 0.000000 -0.008184
v 0.001350 0.000000 -0.008296
v -0.000544 0.000000 -0.007876
v -0.000718 0.000000 -0.007931
v -0.002500 0.000000 0.011058
v -0.000887 0.000000 -0.008001
v -0.002500 0.000000 -0.007455
v -0.001050 0.000000 -0.008086
v -0.001205 0.000000 -0.008184
v -0.002068 0.000000 0.013872
v -0.002092 0.000000 0.013690
v -0.002100 0.000000 0.013507
v -0.002092 0.000000 0.013324
v -0.001609 0.000000 0.012157
v -0.001485 0.000000 0.012022
v 0.002068 0.000000 -0.009540
v 0.002028 0.000000 -0.009361
v 0.001973 0.000000 -0.009186
v 0.001903 0.000000 -0.009017
v 0.001819 0.000000 -0.008855
v 0.001720 0.000000 -0.008700
v -0.000183 0.000000 -0.007813
v -0.000365 0.000000 -0.007837
v 0.001609 0.000000 -0.008555
v 0.001485 0.000000 -0.008420
v -0.002703 0.000000 0.011284
v -0.002886 0.000000 0.011527
v -0.003047 0.000000 0.011785
v -0.003185 0.000000 0.012056
v -0.003299 0.000000 0.012338
v -0.003388 0.000000 0.012628
v -0.003451 0.000000 0.012926
v -0.003489 0.000000 0.013227
v -0.003500 0.000000 0.013531
v -0.003485 0.000000 0.013835
v -0.003443 0.000000 0.014136
v -0.002028 0.000000 0.014051
v -0.003376 0.000000 0.014432
v -0.001973 0.000000 0.014226
v -0.003283 0.000000 0.014722
v -0.001903 0.000000 0.014395
v -0.003165 0.000000 0.015002
v -0.001819 0.000000 0.014557
v -0.003023 0.000000 0.015271
v -0.001720 0.000000 0.014712
v -0.002859 0.000000 0.015527
v -0.001609 0.000000 0.014857
v -0.002673 0.000000 0.015767
v -0.001485 0.000000 0.014992
v -0.002466 0.000000 0.015991
v -0.001350 0.000000 0.015116
v -0.002242 0.000000 0.016195
v -0.001205 0.000000 0.015228
v -0.002000 0.000000 0.016380
v -0.001050 0.000000 0.015326
v -0.001743 0.000000 0.016542
v -0.000887 0.000000 0.015411
v -0.001473 0.000000 0.016682
v -0.000718 0.000000 0.015481
v -0.001192 0.000000 0.016798
v -0.000544 0.000000 0.015536
v -0.000902 0.000000 0.016889
v -0.000365 0.000000 0.015575
v -0.000605 0.000000 0.016955
v -0.000183 0.000000 0.015599
v -0.000304 0.000000 0.016994
v 0.000000 0.000000 0.015607
v -0.000000 0.000000 0.017007
v 0.000183 0.000000 0.015599
v 0.000304 0.000000 0.016994
v 0.000365 0.000000 0.015575
v 0.000605 0.000000 0.016955
v 0.000544 0.000000 0.015536
v 0.000902 0.000000 0.016889
v 0.000718 0.000000 0.015481
v 0.001192 0.000000 0.016798
v 0.000887 0.000000 0.015411
v 0.001473 0.000000 0.016682
v 0.001050 0.000000 0.015326
v 0.001743 0.000000 0.016542
v 0.001205 0.000000 0.015228
v 0.002000 0.000000 0.016380
v 0.001350 0.000000 0.015116
v 0.002242 0.000000 0.016195
v 0.001485 0.000000 0.014992
v 0.002466 0.000000 0.015991
v 0.001609 0.000000 0.014857
v 0.002673 0.000000 0.015767
v 0.001720 0.000000 0.014712
v 0.002859 0.000000 0.015527
v 0.001819 0.000000 0.014557
v 0.003023 0.000000 0.015271
v 0.001903 0.000000 0.014395
v 0.003165 0.000000 0.015002
v 0.001973 0.000000 0.014226
v 0.003283 0.000000 0.014722
v 0.002028 0.000000 0.014051
v 0.003376 0.000000 0.014432
v 0.002068 0.000000 0.013872
v 0.003443 0.000000 0.014136
v 0.002092 0.000000 0.013690
v 0.003485 0.000000 0.013835
v 0.002100 0.000000 0.013507
v 0.003500 0.000000 0.013531
v 0.002092 0.000000 0.013324
v 0.003489 0.000000 0.013227
v 0.002068 0.000000 0.013143
v 0.003451 0.000000 0.012926
v 0.002028 0.000000 0.012964
v 0.003388 0.000000 0.012628
v 0.001973 0.000000 0.012789
v 0.003299 0.000000 0.012338
v 0.001903 0.000000 0.012620
v 0.003185 0.000000 0.012056
v 0.001819 0.000000 0.012457
v 0.003047 0.000000 0.011785
v 0.001720 0.000000 0.012303
v 0.002886 0.000000 0.011527
v 0.001609 0.000000 0.012157
v 0.002703 0.000000 0.011284
v 0.001485 0.000000 0.012022
v 0.001350 0.000000 0.011899
v -0.001350 0.000000 -0.008296
v -0.001485 0.000000 -0.008420
v -0.002703 0.000000 -0.007681
v -0.001609 0.000000 -0.008555
v -0.002886 0.000000 -0.007924
v -0.001720 0.000000 -0.008700
v -0.003047 0.000000 -0.008182
v -0.001819 0.000000 -0.008855
v -0.003185 0.000000 -0.008453
v -0.001903 0.000000 -0.009017
v -0.003299 0.000000 -0.008735
v -0.001973 0.000000 -0.009186
v -0.003388 0.000000 -0.009026
v -0.002028 0.000000 -0.009361
v -0.003451 0.000000 -0.009323
v -0.002068 0.000000 -0.009540
v -0.003489 0.000000 -0.009625
v -0.002092 0.000000 -0.009722
v -0.003500 0.000000 -0.009929
v -0.002100 0.000000 -0.009905
v -0.003485 0.000000 -0.010232
v -0.002092 0.000000 -0.010088
v -0.003443 0.000000 -0.010533
v -0.002068 0.000000 -0.010269
v -0.003376 0.000000 -0.010830
v -0.002028 0.000000 -0.010448
v -0.003283 0.000000 -0.011119
v -0.001973 0.000000 -0.010623
v -0.003165 0.000000 -0.011399
v -0.001903 0.000000 -0.010792
v -0.003023 0.000000 -0.011668
v -0.001819 0.000000 -0.010955
v -0.002859 0.000000 -0.011924
v -0.001720 0.000000 -0.011109
v -0.002673 0.000000 -0.012165
v -0.001609 0.000000 -0.011255
v -0.002466 0.000000 -0.012388
v -0.001485 0.000000 -0.011390
v -0.002242 0.000000 -0.012593
v -0.001350 0.000000 -0.011513
v -0.002000 0.000000 -0.012777
v -0.001205 0.000000 -0.011625
v -0.001743 0.000000 -0.012940
v -0.001050 0.000000 -0.011723
v -0.001473 0.000000 -0.013080
v -0.000887 0.000000 -0.011808
v -0.001192 0.000000 -0.013195
v -0.000718 0.000000 -0.011878
v -0.000902 0.000000 -0.013286
v -0.000544 0.000000 -0.011933
v -0.000605 0.000000 -0.013352
v -0.000365 0.000000 -0.011973
v -0.000304 0.000000 -0.013392
v -0.000183 0.000000 -0.011997
v -0.000000 0.000000 -0.013405
v 0.000000 0.000000 -0.012005
v 0.000304 0.000000 -0.013392
v 0.000183 0.000000 -0.011997
v 0.000605 0.000000 -0.013352
v 0.000365 0.000000 -0.011973
v 0.000902 0.000000 -0.013286
v 0.000544 0.000000 -0.011933
v 0.001192 0.000000 -0.013195
v 0.000718 0.000000 -0.011878
v 0.001473 0.000000 -0.013080
v 0.000887 0.000000 -0.011808
v 0.001743 0.000000 -0.012940
v 0.001050 0.000000 -0.011723
v 0.002000 0.000000 -0.012777
v 0.001205 0.000000 -0.011625
v 0.002242 0.000000 -0.012593
v 0.001350 0.000000 -0.011513
v 0.002466 0.000000 -0.012388
v 0.001485 0.000000 -0.011390
v 0.002673 0.000000 -0.012165
v 0.001609 0.000000 -0.011255
v 0.002859 0.000000 -0.011924
v 0.001720 0.000000 -0.011109
v 0.003023 0.000000 -0.011668
v 0.001819 0.000000 -0.010955
v 0.003165 0.000000 -0.011399
v 0.001903 0.000000 -0.010792
v 0.003283 0.000000 -0.011119
v 0.001973 0.000000 -0.010623
v 0.003376 0.000000 -0.010830
v 0.002028 0.000000 -0.010448
v 0.003443 0.000000 -0.010533
v 0.003485 0.000000 -0.010232
v 0.003500 0.000000 -0.009929
v 0.002703 0.000000 -0.007681
v 0.002886 0.000000 -0.007924
v 0.003047 0.000000 -0.008182
v 0.003185 0.000000 -0.008453
v 0.003299 0.000000 -0.008735
v 0.003388 0.000000 -0.009026
v 0.003451 0.000000 -0.009323
v 0.003489 0.000000 -0.009625
v -0.000183 -0.002000 0.011415
v -0.002500 -0.002000 0.011058
v 0.000000 -0.002000 0.011407
v -0.002500 -0.002000 -0.007455
v -0.000365 -0.002000 0.011439
v -0.000544 -0.002000 0.011479
v -0.000718 -0.002000 0.011534
v 0.002500 -0.002000 0.011058
v 0.001609 -0.002000 0.012157
v 0.001485 -0.002000 0.012022
v 0.000544 -0.002000 0.011479
v 0.002500 -0.002000 -0.007455
v 0.000718 -0.002000 0.011534
v 0.000887 -0.002000 0.011604
v -0.000544 -0.002000 -0.007876
v -0.000718 -0.002000 -0.007931
v -0.000887 -0.002000 -0.008001
v -0.000183 -0.002000 -0.007813
v 0.000000 -0.002000 -0.007805
v 0.000183 -0.002000 -0.007813
v 0.000365 -0.002000 -0.007837
v 0.000544 -0.002000 -0.007876
v 0.000718 -0.002000 -0.007931
v 0.002068 -0.002000 0.013872
v 0.002092 -0.002000 0.013690
v 0.002100 -0.002000 0.013507
v 0.002092 -0.002000 0.013324
v 0.002068 -0.002000 0.013143
v 0.002028 -0.002000 0.012964
v 0.001973 -0.002000 0.012789
v 0.001903 -0.002000 0.012620
v 0.001350 -0.002000 0.011899
v 0.001205 -0.002000 0.011787
v 0.001050 -0.002000 0.011689
v -0.002028 -0.002000 -0.009361
v -0.001973 -0.002000 -0.009186
v -0.001903 -0.002000 -0.009017
v -0.001819 -0.002000 -0.008855
v -0.001720 -0.002000 -0.008700
v 0.000365 -0.002000 0.011439
v 0.000183 -0.002000 0.011415
v -0.000365 -0.002000 -0.007837
v -0.001609 -0.002000 -0.008555
v -0.001485 -0.002000 -0.008420
v -0.001350 -0.002000 -0.008296
v -0.001205 -0.002000 -0.008184
v -0.001050 -0.002000 -0.008086
v 0.001819 -0.002000 0.012457
v 0.001720 -0.002000 0.012303
v -0.002092 -0.002000 -0.010088
v -0.002100 -0.002000 -0.009905
v -0.002092 -0.002000 -0.009722
v -0.002068 -0.002000 -0.009540
v 0.000887 -0.002000 -0.008001
v 0.001050 -0.002000 -0.008086
v 0.001205 -0.002000 -0.008184
v -0.000887 -0.002000 0.011604
v -0.001050 -0.002000 0.011689
v -0.001205 -0.002000 0.011787
v 0.002703 -0.002000 0.011284
v 0.002886 -0.002000 0.011527
v 0.003047 -0.002000 0.011785
v -0.002886 -0.002000 -0.007924
v -0.003047 -0.002000 -0.008182
v -0.002068 -0.002000 -0.010269
v 0.003185 -0.002000 0.012056
v 0.003299 -0.002000 0.012338
v 0.003388 -0.002000 0.012628
v -0.002703 -0.002000 -0.007681
v -0.003185 -0.002000 -0.008453
v -0.003299 -0.002000 -0.008735
v -0.003388 -0.002000 -0.009026
v -0.003451 -0.002000 -0.009323
v -0.003489 -0.002000 -0.009625
v -0.003500 -0.002000 -0.009929
v 0.003451 -0.002000 0.012926
v 0.003489 -0.002000 0.013227
v 0.003500 -0.002000 0.013531
v -0.003485 -0.002000 -0.010232
v -0.003443 -0.002000 -0.010533
v -0.002028 -0.002000 -0.010448
v -0.003376 -0.002000 -0.010830
v -0.001973 -0.002000 -0.010623
v -0.003283 -0.002000 -0.011119
v -0.001903 -0.002000 -0.010792
v -0.003165 -0.002000 -0.011399
v -0.001819 -0.002000 -0.010955
v -0.003023 -0.002000 -0.011668
v -0.001720 -0.002000 -0.011109
v -0.002859 -0.002000 -0.011924
v -0.001609 -0.002000 -0.011255
v -0.002673 -0.002000 -0.012165
v -0.001485 -0.002000 -0.011390
v -0.002466 -0.002000 -0.012388
v -0.001350 -0.002000 -0.011513
v -0.002242 -0.002000 -0.012593
v -0.001205 -0.002000 -0.011625
v -0.002000 -0.002000 -0.012777
v -0.001050 -0.002000 -0.011723
v -0.001743 -0.002000 -0.012940
v -0.000887 -0.002000 -0.011808
v -0.001473 -0.002000 -0.013080
v -0.000718 -0.002000 -0.011878
v -0.001192 -0.002000 -0.013195
v -0.000544 -0.002000 -0.011933
v -0.000902 -0.002000 -0.013286
v -0.000365 -0.002000 -0.011973
v -0.000605 -0.002000 -0.013352
v -0.000183 -0.002000 -0.011997
v -0.000304 -0.002000 -0.013392
v 0.000000 -0.002000 -0.012005
v -0.000000 -0.002000 -0.013405
v 0.000183 -0.002000 -0.011997
v 0.000304 -0.002000 -0.013392
v 0.000365 -0.002000 -0.011973
v 0.000605 -0.002000 -0.013352
v 0.000544 -0.002000 -0.011933
v 0.000902 -0.002000 -0.013286
v 0.000718 -0.002000 -0.011878
v 0.001192 -0.002000 -0.013195
v 0.000887 -0.002000 -0.011808
v 0.001473 -0.002000 -0.013080
v 0.001050 -0.002000 -0.011723
v 0.001743 -0.002000 -0.012940
v 0.001205 -0.002000 -0.011625
v 0.002000 -0.002000 -0.012777
v 0.001350 -0.002000 -0.011513
v 0.002242 -0.002000 -0.012593
v 0.001485 -0.002000 -0.011390
v 0.002466 -0.002000 -0.012388
v 0.001609 -0.002000 -0.011255
v 0.002673 -0.002000 -0.012165
v 0.001720 -0.002000 -0.011109
v 0.002859 -0.002000 -0.011924
v 0.001819 -0.002000 -0.010955
v 0.003023 -0.002000 -0.011668
v 0.001903 -0.002000 -0.010792
v 0.003165 -0.002000 -0.011399
v 0.001973 -0.002000 -0.010623
v 0.003283 -0.002000 -0.011119
v 0.002028 -0.002000 -0.010448
v 0.003376 -0.002000 -0.010830
v 0.002068 -0.002000 -0.010269
v 0.003443 -0.002000 -0.010533
v 0.002092 -0.002000 -0.010088
v 0.003485 -0.002000 -0.010232
v 0.002100 -0.002000 -0.009905
v 0.003500 -0.002000 -0.009929
v 0.002092 -0.002000 -0.009722
v 0.003489 -0.002000 -0.009625
v 0.002068 -0.002000 -0.009540
v 0.003451 -0.002000 -0.009323
v 0.002028 -0.002000 -0.009361
v 0.003388 -0.002000 -0.009026
v 0.001973 -0.002000 -0.009186
v 0.003299 -0.002000 -0.008735
v 0.001903 -0.002000 -0.009017
v 0.003185 -0.002000 -0.008453
v 0.001819 -0.002000 -0.008855
v 0.003047 -0.002000 -0.008182
v 0.001720 -0.002000 -0.008700
v 0.002886 -0.002000 -0.007924
v 0.001609 -0.002000 -0.008555
v 0.002703 -0.002000 -0.007681
v 0.001485 -0.002000 -0.008420
v 0.001350 -0.002000 -0.008296
v 0.003485 -0.002000 0.013835
v 0.003443 -0.002000 0.014136
v 0.002028 -0.002000 0.014051
v 0.003376 -0.002000 0.014432
v 0.001973 -0.002000 0.014226
v 0.003283 -0.002000 0.014722
v 0.001903 -0.002000 0.014395
v 0.003165 -0.002000 0.015002
v 0.001819 -0.002000 0.014557
v 0.003023 -0.002000 0.015271
v 0.001720 -0.002000 0.014712
v 0.002859 -0.002000 0.015527
v 0.001609 -0.002000 0.014857
v 0.002673 -0.002000 0.015767
v 0.001485 -0.002000 0.014992
v 0.002466 -0.002000 0.015991
v 0.001350 -0.002000 0.015116
v 0.002242 -0.002000 0.016195
v 0.001205 -0.002000 0.015228
v 0.002000 -0.002000 0.016380
v 0.001050 -0.002000 0.015326
v 0.001743 -0.002000 0.016542
v 0.000887 -0.002000 0.015411
v 0.001473 -0.002000 0.016682
v 0.000718 -0.002000 0.015481
v 0.001192 -0.002000 0.016798
v 0.000544 -0.002000 0.015536
v 0.000902 -0.002000 0.016889
v 0.000365 -0.002000 0.015575
v 0.000605 -0.002000 0.016955
v 0.000183 -0.002000 0.015599
v 0.000304 -0.002000 0.016994
v 0.000000 -0.002000 0.015607
v -0.000000 -0.002000 0.017007
v -0.000183 -0.002000 0.015599
v -0.000304 -0.002000 0.016994
v -0.000365 -0.002000 0.015575
v -0.000605 -0.002000 0.016955
v -0.000544 -0.002000 0.015536
v -0.000902 -0.002000 0.016889
v -0.000718 -0.002000 0.015481
v -0.001192 -0.002000 0.016798
v -0.000887 -0.002000 0.015411
v -0.001473 -0.002000 0.016682
v -0.001050 -0.002000 0.015326
v -0.001743 -0.002000 0.016542
v -0.001205 -0.002000 0.015228
v -0.002000 -0.002000 0.016380
v -0.001350 -0.002000 0.015116
v -0.002242 -0.002000 0.016195
v -0.001485 -0.002000 0.014992
v -0.002466 -0.002000 0.015991
v -0.001609 -0.002000 0.014857
v -0.002673 -0.002000 0.015767
v -0.001720 -0.002000 0.014712
v -0.002859 -0.002000 0.015527
v -0.001819 -0.002000 0.014557
v -0.003023 -0.002000 0.015271
v -0.001903 -0.002000 0.014395
v -0.003165 -0.002000 0.015002
v -0.001973 -0.002000 0.014226
v -0.003283 -0.002000 0.014722
v -0.002028 -0.002000 0.014051
v -0.003376 -0.002000 0.014432
v -0.002068 -0.002000 0.013872
v -0.003443 -0.002000 0.014136
v -0.002092 -0.002000 0.013690
v -0.003485 -0.002000 0.013835
v -0.002100 -0.002000 0.013507
v -0.003500 -0.002000 0.013531
v -0.002092 -0.002000 0.013324
v -0.003489 -0.002000 0.013227
v -0.002068 -0.002000 0.013143
v -0.003451 -0.002000 0.012926
v -0.002028 -0.002000 0.012964
v -0.003388 -0.002000 0.012628
v -0.001973 -0.002000 0.012789
v -0.003299 -0.002000 0.012338
v -0.001903 -0.002000 0.012620
v -0.003185 -0.002000 0.012056
v -0.001819 -0.002000 0.012457
v -0.003047 -0.002000 0.011785
v -0.001720 -0.002000 0.012303
v -0.002886 -0.002000 0.011527
v -0.001609 -0.002000 0.012157
v -0.002703 -0.002000 0.011284
v -0.001485 -0.002000 0.012022
v -0.001350 -0.002000 0.011899
# 508 vertices, 0 vertices normals

f 1 2 3
f 2 4 3
f 5 6 7
f 6 8 7
f 4 9 3
f 9 10 3
f 3 10 11
f 11 12 3
f 12 13 3
f 3 13 14
f 15 16 7
f 16 17 7
f 18 19 3
f 19 20 3
f 3 20 21
f 21 22 3
f 22 23 3
f 3 23 1
f 23 7 1
f 1 7 24
f 7 8 24
f 25 26 7
f 26 27 7
f 7 27 5
f 28 29 30
f 29 31 30
f 30 31 32
f 17 33 7
f 33 34 7
f 7 34 35
f 18 3 36
f 3 30 36
f 36 30 37
f 38 39 40
f 39 41 40
f 40 41 42
f 41 43 42
f 42 43 44
f 45 46 40
f 46 47 40
f 40 47 48
f 35 49 7
f 49 50 7
f 7 50 25
f 32 51 30
f 51 52 30
f 30 52 53
f 53 54 30
f 54 55 30
f 30 55 56
f 15 7 48
f 7 57 48
f 48 57 40
f 57 58 40
f 40 58 38
f 56 59 30
f 59 60 30
f 30 60 37
f 40 61 45
f 61 62 45
f 45 62 63
f 63 64 45
f 64 65 45
f 45 65 66
f 66 67 45
f 67 68 45
f 45 68 69
f 69 70 45
f 70 71 45
f 45 71 72
f 71 73 72
f 72 73 74
f 73 75 74
f 74 75 76
f 75 77 76
f 76 77 78
f 77 79 78
f 78 79 80
f 79 81 80
f 80 81 82
f 81 83 82
f 82 83 84
f 83 85 84
f 84 85 86
f 85 87 86
f 86 87 88
f 87 89 88
f 88 89 90
f 89 91 90
f 90 91 92
f 91 93 92
f 92 93 94
f 93 95 94
f 94 95 96
f 95 97 96
f 96 97 98
f 97 99 98
f 98 99 100
f 99 101 100
f 100 101 102
f 101 103 102
f 102 103 104
f 103 105 104
f 104 105 106
f 105 107 106
f 106 107 108
f 107 109 108
f 108 109 110
f 109 111 110
f 110 111 112
f 111 113 112
f 112 113 114
f 113 115 114
f 114 115 116
f 115 117 116
f 116 117 118
f 117 119 118
f 118 119 120
f 119 121 120
f 120 121 122
f 121 123 122
f 122 123 124
f 123 125 124
f 124 125 126
f 125 127 126
f 126 127 128
f 127 129 128
f 128 129 130
f 129 131 130
f 130 131 132
f 131 133 132
f 132 133 134
f 133 135 134
f 134 135 136
f 135 137 136
f 136 137 138
f 137 139 138
f 138 139 140
f 139 141 140
f 140 141 142
f 141 143 142
f 142 143 144
f 143 145 144
f 144 145 146
f 145 147 146
f 146 147 148
f 147 149 148
f 148 149 150
f 149 151 150
f 150 151 152
f 151 153 152
f 152 153 154
f 153 155 154
f 154 155 156
f 155 3 156
f 156 3 157
f 3 14 157
f 44 158 42
f 158 159 42
f 42 159 160
f 159 161 160
f 160 161 162
f 161 163 162
f 162 163 164
f 163 165 164
f 164 165 166
f 165 167 166
f 166 167 168
f 167 169 168
f 168 169 170
f 169 171 170
f 170 171 172
f 171 173 172
f 172 173 174
f 173 175 174
f 174 175 176
f 175 177 176
f 176 177 178
f 177 179 178
f 178 179 180
f 179 181 180
f 180 181 182
f 181 183 182
f 182 183 184
f 183 185 184
f 184 185 186
f 185 187 186
f 186 187 188
f 187 189 188
f 188 189 190
f 189 191 190
f 190 191 192
f 191 193 192
f 192 193 194
f 193 195 194
f 194 195 196
f 195 197 196
f 196 197 198
f 197 199 198
f 198 199 200
f 199 201 200
f 200 201 202
f 201 203 202
f 202 203 204
f 203 205 204
f 204 205 206
f 205 207 206
f 206 207 208
f 207 209 208
f 208 209 210
f 209 211 210
f 210 211 212
f 211 213 212
f 212 213 214
f 213 215 214
f 214 215 216
f 215 217 216
f 216 217 218
f 217 219 218
f 218 219 220
f 219 221 220
f 220 221 222
f 221 223 222
f 222 223 224
f 223 225 224
f 224 225 226
f 225 227 226
f 226 227 228
f 227 229 228
f 228 229 230
f 229 231 230
f 230 231 232
f 231 233 232
f 232 233 234
f 233 235 234
f 234 235 236
f 235 237 236
f 236 237 238
f 237 239 238
f 238 239 240
f 239 241 240
f 240 241 242
f 241 243 242
f 242 243 244
f 243 28 244
f 244 28 245
f 28 246 245
f 30 247 28
f 247 248 28
f 28 248 249
f 249 250 28
f 250 251 28
f 28 251 252
f 252 253 28
f 253 254 28
f 28 254 246
f 255 256 257
f 256 258 257
f 255 259 256
f 259 260 256
f 256 260 261
f 262 263 264
f 265 266 267
f 266 268 267
f 269 257 270
f 257 271 270
f 272 273 266
f 273 274 266
f 274 275 266
f 275 276 266
f 266 276 277
f 262 278 279
f 279 280 262
f 280 281 262
f 262 281 282
f 282 283 262
f 283 284 262
f 262 284 285
f 264 286 262
f 286 287 262
f 262 287 266
f 287 288 266
f 266 288 268
f 289 290 257
f 290 291 257
f 291 292 257
f 257 292 293
f 265 294 266
f 294 295 266
f 266 295 272
f 295 257 272
f 272 257 296
f 257 269 296
f 293 297 257
f 297 298 257
f 257 298 299
f 299 300 257
f 300 301 257
f 257 301 271
f 285 302 262
f 302 303 262
f 262 303 263
f 304 305 258
f 305 306 258
f 258 306 257
f 306 307 257
f 257 307 289
f 277 308 266
f 308 309 266
f 266 309 310
f 261 311 256
f 311 312 256
f 256 312 313
f 262 314 278
f 314 315 278
f 278 315 316
f 317 318 319
f 316 320 278
f 320 321 278
f 278 321 322
f 304 258 319
f 258 323 319
f 319 323 317
f 318 324 319
f 324 325 319
f 319 325 326
f 326 327 319
f 327 328 319
f 319 328 329
f 322 330 278
f 330 331 278
f 278 331 332
f 329 333 319
f 333 334 319
f 319 334 335
f 334 336 335
f 335 336 337
f 336 338 337
f 337 338 339
f 338 340 339
f 339 340 341
f 340 342 341
f 341 342 343
f 342 344 343
f 343 344 345
f 344 346 345
f 345 346 347
f 346 348 347
f 347 348 349
f 348 350 349
f 349 350 351
f 350 352 351
f 351 352 353
f 352 354 353
f 353 354 355
f 354 356 355
f 355 356 357
f 356 358 357
f 357 358 359
f 358 360 359
f 359 360 361
f 360 362 361
f 361 362 363
f 362 364 363
f 363 364 365
f 364 366 365
f 365 366 367
f 366 368 367
f 367 368 369
f 368 370 369
f 369 370 371
f 370 372 371
f 371 372 373
f 372 374 373
f 373 374 375
f 374 376 375
f 375 376 377
f 376 378 377
f 377 378 379
f 378 380 379
f 379 380 381
f 380 382 381
f 381 382 383
f 382 384 383
f 383 384 385
f 384 386 385
f 385 386 387
f 386 388 387
f 387 388 389
f 388 390 389
f 389 390 391
f 390 392 391
f 391 392 393
f 392 394 393
f 393 394 395
f 394 396 395
f 395 396 397
f 396 398 397
f 397 398 399
f 398 400 399
f 399 400 401
f 400 402 401
f 401 402 403
f 402 404 403
f 403 404 405
f 404 406 405
f 405 406 407
f 406 408 407
f 407 408 409
f 408 410 409
f 409 410 411
f 410 412 411
f 411 412 413
f 412 414 413
f 413 414 415
f 414 416 415
f 415 416 417
f 416 418 417
f 417 418 419
f 418 266 419
f 419 266 420
f 266 310 420
f 332 421 278
f 421 422 278
f 278 422 423
f 422 424 423
f 423 424 425
f 424 426 425
f 425 426 427
f 426 428 427
f 427 428 429
f 428 430 429
f 429 430 431
f 430 432 431
f 431 432 433
f 432 434 433
f 433 434 435
f 434 436 435
f 435 436 437
f 436 438 437
f 437 438 439
f 438 440 439
f 439 440 441
f 440 442 441
f 441 442 443
f 442 444 443
f 443 444 445
f 444 446 445
f 445 446 447
f 446 448 447
f 447 448 449
f 448 450 449
f 449 450 451
f 450 452 451
f 451 452 453
f 452 454 453
f 453 454 455
f 454 456 455
f 455 456 457
f 456 458 457
f 457 458 459
f 458 460 459
f 459 460 461
f 460 462 461
f 461 462 463
f 462 464 463
f 463 464 465
f 464 466 465
f 465 466 467
f 466 468 467
f 467 468 469
f 468 470 469
f 469 470 471
f 470 472 471
f 471 472 473
f 472 474 473
f 473 474 475
f 474 476 475
f 475 476 477
f 476 478 477
f 477 478 479
f 478 480 479
f 479 480 481
f 480 482 481
f 481 482 483
f 482 484 483
f 483 484 485
f 484 486 485
f 485 486 487
f 486 488 487
f 487 488 489
f 488 490 489
f 489 490 491
f 490 492 491
f 491 492 493
f 492 494 493
f 493 494 495
f 494 496 495
f 495 496 497
f 496 498 497
f 497 498 499
f 498 500 499
f 499 500 501
f 500 502 501
f 501 502 503
f 502 504 503
f 503 504 505
f 504 506 505
f 505 506 507
f 506 256 507
f 507 256 508
f 256 313 508
f 258 42 160
f 258 160 323
f 160 162 323
f 323 162 317
f 162 164 317
f 317 164 318
f 164 166 318
f 318 166 324
f 166 168 324
f 324 168 325
f 168 170 325
f 325 170 326
f 170 172 326
f 326 172 327
f 172 174 327
f 327 174 328
f 174 176 328
f 328 176 329
f 176 178 329
f 329 178 333
f 178 180 333
f 333 180 334
f 180 182 334
f 334 182 336
f 182 184 336
f 336 184 338
f 184 186 338
f 338 186 340
f 186 188 340
f 340 188 342
f 188 190 342
f 342 190 344
f 190 192 344
f 344 192 346
f 192 194 346
f 346 194 348
f 194 196 348
f 348 196 350
f 196 198 350
f 350 198 352
f 198 200 352
f 352 200 354
f 200 202 354
f 354 202 356
f 202 204 356
f 356 204 358
f 204 206 358
f 358 206 360
f 206 208 360
f 360 208 362
f 208 210 362
f 362 210 364
f 210 212 364
f 364 212 366
f 212 214 366
f 366 214 368
f 214 216 368
f 368 216 370
f 216 218 370
f 370 218 372
f 218 220 372
f 372 220 374
f 220 222 374
f 374 222 376
f 222 224 376
f 376 224 378
f 224 226 378
f 378 226 380
f 226 228 380
f 380 228 382
f 228 230 382
f 382 230 384
f 230 232 384
f 384 232 386
f 232 234 386
f 386 234 388
f 234 236 388
f 388 236 390
f 236 238 390
f 390 238 392
f 238 240 392
f 392 240 394
f 240 242 394
f 394 242 396
f 242 244 396
f 396 244 398
f 244 245 398
f 398 245 400
f 245 246 400
f 400 246 402
f 246 254 402
f 402 254 404
f 254 253 404
f 404 253 406
f 253 252 406
f 406 252 408
f 252 251 408
f 408 251 410
f 251 250 410
f 410 250 412
f 250 249 412
f 412 249 414
f 249 248 414
f 414 248 416
f 248 247 416
f 416 247 418
f 247 30 418
f 418 30 266
f 258 256 42
f 256 40 42
f 262 266 3
f 266 30 3
f 453 102 451
f 102 104 451
f 451 104 449
f 104 106 449
f 449 106 447
f 106 108 447
f 447 108 445
f 108 110 445
f 445 110 443
f 110 112 443
f 443 112 441
f 112 114 441
f 441 114 439
f 114 116 439
f 439 116 437
f 116 118 437
f 437 118 435
f 118 120 435
f 435 120 433
f 120 122 433
f 433 122 431
f 122 124 431
f 431 124 429
f 124 126 429
f 429 126 427
f 126 128 427
f 427 128 425
f 128 130 425
f 425 130 423
f 130 132 423
f 423 132 278
f 132 134 278
f 278 134 279
f 134 136 279
f 279 136 280
f 136 138 280
f 280 138 281
f 138 140 281
f 281 140 282
f 140 142 282
f 282 142 283
f 142 144 283
f 283 144 284
f 144 146 284
f 284 146 285
f 146 148 285
f 285 148 302
f 148 150 302
f 302 150 303
f 150 152 303
f 303 152 263
f 152 154 263
f 263 154 264
f 154 156 264
f 264 156 286
f 156 157 286
f 286 157 287
f 157 14 287
f 287 14 288
f 14 13 288
f 288 13 268
f 13 12 268
f 268 12 267
f 12 11 267
f 267 11 265
f 11 10 265
f 265 10 294
f 10 9 294
f 294 9 295
f 9 4 295
f 295 4 257
f 4 2 257
f 257 2 255
f 2 1 255
f 255 1 259
f 1 24 259
f 259 24 260
f 24 8 260
f 260 8 261
f 8 6 261
f 261 6 311
f 6 5 311
f 311 5 312
f 5 27 312
f 312 27 313
f 27 26 313
f 313 26 508
f 26 25 508
f 508 25 507
f 25 50 507
f 507 50 505
f 50 49 505
f 505 49 503
f 49 35 503
f 503 35 501
f 35 34 501
f 501 34 499
f 34 33 499
f 499 33 497
f 33 17 497
f 497 17 495
f 17 16 495
f 495 16 493
f 16 15 493
f 493 15 491
f 15 48 491
f 491 48 489
f 48 47 489
f 489 47 487
f 47 46 487
f 487 46 485
f 46 45 485
f 485 45 483
f 45 72 483
f 483 72 481
f 72 74 481
f 481 74 479
f 74 76 479
f 479 76 477
f 76 78 477
f 477 78 475
f 78 80 475
f 475 80 473
f 80 82 473
f 473 82 471
f 82 84 471
f 471 84 469
f 84 86 469
f 469 86 467
f 86 88 467
f 467 88 465
f 88 90 465
f 465 90 463
f 90 92 463
f 463 92 461
f 92 94 461
f 461 94 459
f 94 96 459
f 459 96 457
f 96 98 457
f 457 98 455
f 98 100 455
f 455 100 453
f 100 102 453
f 262 3 155
f 262 155 314
f 155 153 314
f 314 153 315
f 153 151 315
f 315 151 316
f 151 149 316
f 316 149 320
f 149 147 320
f 320 147 321
f 147 145 321
f 321 145 322
f 145 143 322
f 322 143 330
f 143 141 330
f 330 141 331
f 141 139 331
f 331 139 332
f 139 137 332
f 332 137 421
f 137 135 421
f 421 135 422
f 135 133 422
f 422 133 424
f 133 131 424
f 424 131 426
f 131 129 426
f 426 129 428
f 129 127 428
f 428 127 430
f 127 125 430
f 430 125 432
f 125 123 432
f 432 123 434
f 123 121 434
f 434 121 436
f 121 119 436
f 436 119 438
f 119 117 438
f 438 117 440
f 117 115 440
f 440 115 442
f 115 113 442
f 442 113 444
f 113 111 444
f 444 111 446
f 111 109 446
f 446 109 448
f 109 107 448
f 448 107 450
f 107 105 450
f 450 105 452
f 105 103 452
f 452 103 454
f 103 101 454
f 454 101 456
f 101 99 456
f 456 99 458
f 99 97 458
f 458 97 460
f 97 95 460
f 460 95 462
f 95 93 462
f 462 93 464
f 93 91 464
f 464 91 466
f 91 89 466
f 466 89 468
f 89 87 468
f 468 87 470
f 87 85 470
f 470 85 472
f 85 83 472
f 472 83 474
f 83 81 474
f 474 81 476
f 81 79 476
f 476 79 478
f 79 77 478
f 478 77 480
f 77 75 480
f 480 75 482
f 75 73 482
f 482 73 484
f 73 71 484
f 484 71 486
f 71 70 486
f 486 70 488
f 70 69 488
f 488 69 490
f 69 68 490
f 490 68 492
f 68 67 492
f 492 67 494
f 67 66 494
f 494 66 496
f 66 65 496
f 496 65 498
f 65 64 498
f 498 64 500
f 64 63 500
f 500 63 502
f 63 62 502
f 502 62 504
f 62 61 504
f 504 61 506
f 61 40 506
f 506 40 256
f 273 7 274
f 7 23 274
f 274 23 275
f 23 22 275
f 275 22 276
f 22 21 276
f 276 21 277
f 21 20 277
f 277 20 308
f 20 19 308
f 308 19 309
f 19 18 309
f 309 18 310
f 18 36 310
f 310 36 420
f 36 37 420
f 420 37 419
f 37 60 419
f 419 60 417
f 60 59 417
f 417 59 415
f 59 56 415
f 415 56 413
f 56 55 413
f 413 55 411
f 55 54 411
f 411 54 409
f 54 53 409
f 409 53 407
f 53 52 407
f 407 52 405
f 52 51 405
f 405 51 403
f 51 32 403
f 403 32 401
f 32 31 401
f 401 31 399
f 31 29 399
f 399 29 397
f 29 28 397
f 397 28 395
f 28 243 395
f 395 243 393
f 243 241 393
f 393 241 391
f 241 239 391
f 391 239 389
f 239 237 389
f 389 237 387
f 237 235 387
f 387 235 385
f 235 233 385
f 385 233 383
f 233 231 383
f 383 231 381
f 231 229 381
f 381 229 379
f 229 227 379
f 379 227 377
f 227 225 377
f 377 225 375
f 225 223 375
f 375 223 373
f 223 221 373
f 373 221 371
f 221 219 371
f 371 219 369
f 219 217 369
f 369 217 367
f 217 215 367
f 367 215 365
f 215 213 365
f 365 213 363
f 213 211 363
f 363 211 361
f 211 209 361
f 361 209 359
f 209 207 359
f 359 207 357
f 207 205 357
f 357 205 355
f 205 203 355
f 355 203 353
f 203 201 353
f 353 201 351
f 201 199 351
f 351 199 349
f 199 197 349
f 349 197 347
f 197 195 347
f 347 195 345
f 195 193 345
f 345 193 343
f 193 191 343
f 343 191 341
f 191 189 341
f 341 189 339
f 189 187 339
f 339 187 337
f 187 185 337
f 337 185 335
f 185 183 335
f 335 183 319
f 183 181 319
f 319 181 304
f 181 179 304
f 304 179 305
f 179 177 305
f 305 177 306
f 177 175 306
f 306 175 307
f 175 173 307
f 307 173 289
f 173 171 289
f 289 171 290
f 171 169 290
f 290 169 291
f 169 167 291
f 291 167 292
f 167 165 292
f 292 165 293
f 165 163 293
f 293 163 297
f 163 161 297
f 297 161 298
f 161 159 298
f 298 159 299
f 159 158 299
f 299 158 300
f 158 44 300
f 300 44 301
f 44 43 301
f 301 43 271
f 43 41 271
f 271 41 270
f 41 39 270
f 270 39 269
f 39 38 269
f 269 38 296
f 38 58 296
f 296 58 272
f 58 57 272
f 272 57 273
f 57 7 273
# 1020 faces, 0 coords texture

# End of File
