####
#
# OBJ File Generated by Meshlab
#
####
# Object pcb_chazuo_92_2.obj
#
# Vertices: 568
# Faces: 1144
#
####
v -0.005000 -0.013300 -0.010550
v -0.005000 -0.013300 -0.008492
v -0.005000 -0.014500 -0.010550
v -0.005000 -0.014500 -0.008492
v -0.030500 -0.014500 0.009350
v -0.030500 -0.014500 0.010550
v -0.030500 -0.013300 0.009350
v -0.030500 -0.013300 0.010550
v -0.030508 -0.014500 0.009167
v -0.030508 -0.013300 0.009167
v -0.030532 -0.014500 0.008985
v -0.030532 -0.013300 0.008985
v -0.030572 -0.014500 0.008806
v -0.030572 -0.013300 0.008806
v -0.030627 -0.014500 0.008632
v -0.030627 -0.013300 0.008632
v -0.030697 -0.014500 0.008463
v -0.030697 -0.013300 0.008463
v -0.030781 -0.014500 0.008300
v -0.030781 -0.013300 0.008300
v -0.030880 -0.014500 0.008145
v -0.030880 -0.013300 0.008145
v -0.030991 -0.014500 0.008000
v -0.030991 -0.013300 0.008000
v -0.031115 -0.014500 0.007865
v -0.031115 -0.013300 0.007865
v -0.031250 -0.014500 0.007741
v -0.031250 -0.013300 0.007741
v -0.031395 -0.014500 0.007630
v -0.031395 -0.013300 0.007630
v -0.031550 -0.014500 0.007531
v -0.031550 -0.013300 0.007531
v -0.031713 -0.014500 0.007447
v -0.031713 -0.013300 0.007447
v -0.031882 -0.014500 0.007377
v -0.031882 -0.013300 0.007377
v -0.032056 -0.014500 0.007322
v -0.032056 -0.013300 0.007322
v -0.032235 -0.014500 0.007282
v -0.032235 -0.013300 0.007282
v -0.032417 -0.014500 0.007258
v -0.032417 -0.013300 0.007258
v -0.032600 -0.014500 0.007250
v -0.032600 -0.013300 0.007250
v -0.033800 -0.013300 0.007250
v -0.033800 -0.014500 0.007250
v -0.033100 -0.013300 -0.005500
v -0.033100 -0.014500 -0.005500
v -0.033096 -0.013300 -0.005596
v -0.033096 -0.014500 -0.005596
v -0.033083 -0.013300 -0.005691
v -0.033083 -0.014500 -0.005691
v -0.033063 -0.013300 -0.005785
v -0.033063 -0.014500 -0.005785
v -0.033034 -0.013300 -0.005876
v -0.033034 -0.014500 -0.005876
v -0.032997 -0.013300 -0.005965
v -0.032997 -0.014500 -0.005965
v -0.032953 -0.013300 -0.006050
v -0.032953 -0.014500 -0.006050
v -0.032901 -0.013300 -0.006131
v -0.032901 -0.014500 -0.006131
v -0.032843 -0.013300 -0.006207
v -0.032843 -0.014500 -0.006207
v -0.032778 -0.013300 -0.006278
v -0.032778 -0.014500 -0.006278
v -0.032707 -0.013300 -0.006343
v -0.032707 -0.014500 -0.006343
v -0.032631 -0.013300 -0.006401
v -0.032631 -0.014500 -0.006401
v -0.032550 -0.013300 -0.006453
v -0.032550 -0.014500 -0.006453
v -0.032465 -0.013300 -0.006497
v -0.032465 -0.014500 -0.006497
v -0.032376 -0.013300 -0.006534
v -0.032376 -0.014500 -0.006534
v -0.032285 -0.013300 -0.006563
v -0.032285 -0.014500 -0.006563
v -0.032191 -0.013300 -0.006583
v -0.032191 -0.014500 -0.006583
v -0.032096 -0.013300 -0.006596
v -0.032096 -0.014500 -0.006596
v -0.032000 -0.013300 -0.006600
v -0.032000 -0.014500 -0.006600
v -0.031904 -0.013300 -0.006596
v -0.031904 -0.014500 -0.006596
v -0.031809 -0.013300 -0.006583
v -0.031809 -0.014500 -0.006583
v -0.031715 -0.013300 -0.006563
v -0.031715 -0.014500 -0.006563
v -0.031624 -0.013300 -0.006534
v -0.031624 -0.014500 -0.006534
v -0.031535 -0.013300 -0.006497
v -0.031535 -0.014500 -0.006497
v -0.031450 -0.013300 -0.006453
v -0.031450 -0.014500 -0.006453
v -0.031369 -0.013300 -0.006401
v -0.031369 -0.014500 -0.006401
v -0.031293 -0.013300 -0.006343
v -0.031293 -0.014500 -0.006343
v -0.031222 -0.013300 -0.006278
v -0.031222 -0.014500 -0.006278
v -0.031157 -0.013300 -0.006207
v -0.031157 -0.014500 -0.006207
v -0.031099 -0.013300 -0.006131
v -0.031099 -0.014500 -0.006131
v -0.031047 -0.013300 -0.006050
v -0.031047 -0.014500 -0.006050
v -0.031003 -0.013300 -0.005965
v -0.031003 -0.014500 -0.005965
v -0.030966 -0.013300 -0.005876
v -0.030966 -0.014500 -0.005876
v -0.030937 -0.013300 -0.005785
v -0.030937 -0.014500 -0.005785
v -0.030917 -0.013300 -0.005691
v -0.030917 -0.014500 -0.005691
v -0.030904 -0.013300 -0.005596
v -0.030904 -0.014500 -0.005596
v -0.030900 -0.013300 -0.005500
v -0.030900 -0.014500 -0.005500
v -0.030904 -0.013300 -0.005404
v -0.030904 -0.014500 -0.005404
v -0.030917 -0.013300 -0.005309
v -0.030917 -0.014500 -0.005309
v -0.030937 -0.013300 -0.005215
v -0.030937 -0.014500 -0.005215
v -0.030966 -0.013300 -0.005124
v -0.030966 -0.014500 -0.005124
v -0.031003 -0.013300 -0.005035
v -0.031003 -0.014500 -0.005035
v -0.031047 -0.013300 -0.004950
v -0.031047 -0.014500 -0.004950
v -0.031099 -0.013300 -0.004869
v -0.031099 -0.014500 -0.004869
v -0.031157 -0.013300 -0.004793
v -0.031157 -0.014500 -0.004793
v -0.031222 -0.013300 -0.004722
v -0.031222 -0.014500 -0.004722
v -0.031293 -0.013300 -0.004657
v -0.031293 -0.014500 -0.004657
v -0.031369 -0.013300 -0.004599
v -0.031369 -0.014500 -0.004599
v -0.031450 -0.013300 -0.004547
v -0.031450 -0.014500 -0.004547
v -0.031535 -0.013300 -0.004503
v -0.031535 -0.014500 -0.004503
v -0.031624 -0.013300 -0.004466
v -0.031624 -0.014500 -0.004466
v -0.031715 -0.013300 -0.004437
v -0.031715 -0.014500 -0.004437
v -0.031809 -0.013300 -0.004417
v -0.031809 -0.014500 -0.004417
v -0.031904 -0.013300 -0.004404
v -0.031904 -0.014500 -0.004404
v -0.032000 -0.013300 -0.004400
v -0.032000 -0.014500 -0.004400
v -0.032096 -0.013300 -0.004404
v -0.032096 -0.014500 -0.004404
v -0.032191 -0.013300 -0.004417
v -0.032191 -0.014500 -0.004417
v -0.032285 -0.013300 -0.004437
v -0.032285 -0.014500 -0.004437
v -0.032376 -0.013300 -0.004466
v -0.032376 -0.014500 -0.004466
v -0.032465 -0.013300 -0.004503
v -0.032465 -0.014500 -0.004503
v -0.032550 -0.013300 -0.004547
v -0.032550 -0.014500 -0.004547
v -0.032631 -0.013300 -0.004599
v -0.032631 -0.014500 -0.004599
v -0.032707 -0.013300 -0.004657
v -0.032707 -0.014500 -0.004657
v -0.032778 -0.013300 -0.004722
v -0.032778 -0.014500 -0.004722
v -0.032843 -0.013300 -0.004793
v -0.032843 -0.014500 -0.004793
v -0.032901 -0.013300 -0.004869
v -0.032901 -0.014500 -0.004869
v -0.032953 -0.013300 -0.004950
v -0.032953 -0.014500 -0.004950
v -0.032997 -0.013300 -0.005035
v -0.032997 -0.014500 -0.005035
v -0.033034 -0.013300 -0.005124
v -0.033034 -0.014500 -0.005124
v -0.033063 -0.013300 -0.005215
v -0.033063 -0.014500 -0.005215
v -0.033083 -0.013300 -0.005309
v -0.033083 -0.014500 -0.005309
v -0.033096 -0.013300 -0.005404
v -0.033096 -0.014500 -0.005404
v -0.007500 -0.013300 0.006600
v -0.007500 -0.014500 0.006600
v -0.007498 -0.013300 0.006548
v -0.007498 -0.014500 0.006548
v -0.007491 -0.013300 0.006496
v -0.007491 -0.014500 0.006496
v -0.007480 -0.013300 0.006445
v -0.007480 -0.014500 0.006445
v -0.007464 -0.013300 0.006395
v -0.007464 -0.014500 0.006395
v -0.007444 -0.013300 0.006346
v -0.007444 -0.014500 0.006346
v -0.007420 -0.013300 0.006300
v -0.007420 -0.014500 0.006300
v -0.007391 -0.013300 0.006256
v -0.007391 -0.014500 0.006256
v -0.007360 -0.013300 0.006214
v -0.007360 -0.014500 0.006214
v -0.007324 -0.013300 0.006176
v -0.007324 -0.014500 0.006176
v -0.007286 -0.013300 0.006140
v -0.007286 -0.014500 0.006140
v -0.007244 -0.013300 0.006109
v -0.007244 -0.014500 0.006109
v -0.007200 -0.013300 0.006080
v -0.007200 -0.014500 0.006080
v -0.007154 -0.013300 0.006056
v -0.007154 -0.014500 0.006056
v -0.007105 -0.013300 0.006036
v -0.007105 -0.014500 0.006036
v -0.007055 -0.013300 0.006020
v -0.007055 -0.014500 0.006020
v -0.007004 -0.013300 0.006009
v -0.007004 -0.014500 0.006009
v -0.006952 -0.013300 0.006002
v -0.006952 -0.014500 0.006002
v -0.006900 -0.013300 0.006000
v -0.006900 -0.014500 0.006000
v -0.006848 -0.013300 0.006002
v -0.006848 -0.014500 0.006002
v -0.006796 -0.013300 0.006009
v -0.006796 -0.014500 0.006009
v -0.006745 -0.013300 0.006020
v -0.006745 -0.014500 0.006020
v -0.006695 -0.013300 0.006036
v -0.006695 -0.014500 0.006036
v -0.006646 -0.013300 0.006056
v -0.006646 -0.014500 0.006056
v -0.006600 -0.013300 0.006080
v -0.006600 -0.014500 0.006080
v -0.006556 -0.013300 0.006109
v -0.006556 -0.014500 0.006109
v -0.006514 -0.013300 0.006140
v -0.006514 -0.014500 0.006140
v -0.006476 -0.013300 0.006176
v -0.006476 -0.014500 0.006176
v -0.006440 -0.013300 0.006214
v -0.006440 -0.014500 0.006214
v -0.006409 -0.013300 0.006256
v -0.006409 -0.014500 0.006256
v -0.006380 -0.013300 0.006300
v -0.006380 -0.014500 0.006300
v -0.006356 -0.013300 0.006346
v -0.006356 -0.014500 0.006346
v -0.006336 -0.013300 0.006395
v -0.006336 -0.014500 0.006395
v -0.006320 -0.013300 0.006445
v -0.006320 -0.014500 0.006445
v -0.006309 -0.013300 0.006496
v -0.006309 -0.014500 0.006496
v -0.006302 -0.013300 0.006548
v -0.006302 -0.014500 0.006548
v -0.006300 -0.013300 0.006600
v -0.006300 -0.014500 0.006600
v -0.006302 -0.013300 0.006652
v -0.006302 -0.014500 0.006652
v -0.006309 -0.013300 0.006704
v -0.006309 -0.014500 0.006704
v -0.006320 -0.013300 0.006755
v -0.006320 -0.014500 0.006755
v -0.006336 -0.013300 0.006805
v -0.006336 -0.014500 0.006805
v -0.006356 -0.013300 0.006854
v -0.006356 -0.014500 0.006854
v -0.006380 -0.013300 0.006900
v -0.006380 -0.014500 0.006900
v -0.006409 -0.013300 0.006944
v -0.006409 -0.014500 0.006944
v -0.006440 -0.013300 0.006986
v -0.006440 -0.014500 0.006986
v -0.006476 -0.013300 0.007024
v -0.006476 -0.014500 0.007024
v -0.006514 -0.013300 0.007060
v -0.006514 -0.014500 0.007060
v -0.006556 -0.013300 0.007091
v -0.006556 -0.014500 0.007091
v -0.006600 -0.013300 0.007120
v -0.006600 -0.014500 0.007120
v -0.006646 -0.013300 0.007144
v -0.006646 -0.014500 0.007144
v -0.006695 -0.013300 0.007164
v -0.006695 -0.014500 0.007164
v -0.006745 -0.013300 0.007180
v -0.006745 -0.014500 0.007180
v -0.006796 -0.013300 0.007191
v -0.006796 -0.014500 0.007191
v -0.006848 -0.013300 0.007198
v -0.006848 -0.014500 0.007198
v -0.006900 -0.013300 0.007200
v -0.006900 -0.014500 0.007200
v -0.006952 -0.013300 0.007198
v -0.006952 -0.014500 0.007198
v -0.007004 -0.013300 0.007191
v -0.007004 -0.014500 0.007191
v -0.007055 -0.013300 0.007180
v -0.007055 -0.014500 0.007180
v -0.007105 -0.013300 0.007164
v -0.007105 -0.014500 0.007164
v -0.007154 -0.013300 0.007144
v -0.007154 -0.014500 0.007144
v -0.007200 -0.013300 0.007120
v -0.007200 -0.014500 0.007120
v -0.007244 -0.013300 0.007091
v -0.007244 -0.014500 0.007091
v -0.007286 -0.013300 0.007060
v -0.007286 -0.014500 0.007060
v -0.007324 -0.013300 0.007024
v -0.007324 -0.014500 0.007024
v -0.007360 -0.013300 0.006986
v -0.007360 -0.014500 0.006986
v -0.007391 -0.013300 0.006944
v -0.007391 -0.014500 0.006944
v -0.007420 -0.013300 0.006900
v -0.007420 -0.014500 0.006900
v -0.007444 -0.013300 0.006854
v -0.007444 -0.014500 0.006854
v -0.007464 -0.013300 0.006805
v -0.007464 -0.014500 0.006805
v -0.007480 -0.013300 0.006755
v -0.007480 -0.014500 0.006755
v -0.007491 -0.013300 0.006704
v -0.007491 -0.014500 0.006704
v -0.007498 -0.013300 0.006652
v -0.007498 -0.014500 0.006652
v -0.027500 -0.013300 0.000000
v -0.027500 -0.014500 0.000000
v -0.027492 -0.013300 -0.000174
v -0.027492 -0.014500 -0.000174
v -0.027470 -0.013300 -0.000347
v -0.027470 -0.014500 -0.000347
v -0.027432 -0.013300 -0.000518
v -0.027432 -0.014500 -0.000518
v -0.027379 -0.013300 -0.000684
v -0.027379 -0.014500 -0.000684
v -0.027313 -0.013300 -0.000845
v -0.027313 -0.014500 -0.000845
v -0.027232 -0.013300 -0.001000
v -0.027232 -0.014500 -0.001000
v -0.027138 -0.013300 -0.001147
v -0.027138 -0.014500 -0.001147
v -0.027032 -0.013300 -0.001286
v -0.027032 -0.014500 -0.001286
v -0.026914 -0.013300 -0.001414
v -0.026914 -0.014500 -0.001414
v -0.026786 -0.013300 -0.001532
v -0.026786 -0.014500 -0.001532
v -0.026647 -0.013300 -0.001638
v -0.026647 -0.014500 -0.001638
v -0.026500 -0.013300 -0.001732
v -0.026500 -0.014500 -0.001732
v -0.026345 -0.013300 -0.001813
v -0.026345 -0.014500 -0.001813
v -0.026184 -0.013300 -0.001879
v -0.026184 -0.014500 -0.001879
v -0.026018 -0.013300 -0.001932
v -0.026018 -0.014500 -0.001932
v -0.025847 -0.013300 -0.001970
v -0.025847 -0.014500 -0.001970
v -0.025674 -0.013300 -0.001992
v -0.025674 -0.014500 -0.001992
v -0.025500 -0.013300 -0.002000
v -0.025500 -0.014500 -0.002000
v -0.025326 -0.013300 -0.001992
v -0.025326 -0.014500 -0.001992
v -0.025153 -0.013300 -0.001970
v -0.025153 -0.014500 -0.001970
v -0.024982 -0.013300 -0.001932
v -0.024982 -0.014500 -0.001932
v -0.024816 -0.013300 -0.001879
v -0.024816 -0.014500 -0.001879
v -0.024655 -0.013300 -0.001813
v -0.024655 -0.014500 -0.001813
v -0.024500 -0.013300 -0.001732
v -0.024500 -0.014500 -0.001732
v -0.024353 -0.013300 -0.001638
v -0.024353 -0.014500 -0.001638
v -0.024214 -0.013300 -0.001532
v -0.024214 -0.014500 -0.001532
v -0.024086 -0.013300 -0.001414
v -0.024086 -0.014500 -0.001414
v -0.023968 -0.013300 -0.001286
v -0.023968 -0.014500 -0.001286
v -0.023862 -0.013300 -0.001147
v -0.023862 -0.014500 -0.001147
v -0.023768 -0.013300 -0.001000
v -0.023768 -0.014500 -0.001000
v -0.023687 -0.013300 -0.000845
v -0.023687 -0.014500 -0.000845
v -0.023621 -0.013300 -0.000684
v -0.023621 -0.014500 -0.000684
v -0.023568 -0.013300 -0.000518
v -0.023568 -0.014500 -0.000518
v -0.023530 -0.013300 -0.000347
v -0.023530 -0.014500 -0.000347
v -0.023508 -0.013300 -0.000174
v -0.023508 -0.014500 -0.000174
v -0.023500 -0.013300 -0.000000
v -0.023500 -0.014500 -0.000000
v -0.023508 -0.013300 0.000174
v -0.023508 -0.014500 0.000174
v -0.023530 -0.013300 0.000347
v -0.023530 -0.014500 0.000347
v -0.023568 -0.013300 0.000518
v -0.023568 -0.014500 0.000518
v -0.023621 -0.013300 0.000684
v -0.023621 -0.014500 0.000684
v -0.023687 -0.013300 0.000845
v -0.023687 -0.014500 0.000845
v -0.023768 -0.013300 0.001000
v -0.023768 -0.014500 0.001000
v -0.023862 -0.013300 0.001147
v -0.023862 -0.014500 0.001147
v -0.023968 -0.013300 0.001286
v -0.023968 -0.014500 0.001286
v -0.024086 -0.013300 0.001414
v -0.024086 -0.014500 0.001414
v -0.024214 -0.013300 0.001532
v -0.024214 -0.014500 0.001532
v -0.024353 -0.013300 0.001638
v -0.024353 -0.014500 0.001638
v -0.024500 -0.013300 0.001732
v -0.024500 -0.014500 0.001732
v -0.024655 -0.013300 0.001813
v -0.024655 -0.014500 0.001813
v -0.024816 -0.013300 0.001879
v -0.024816 -0.014500 0.001879
v -0.024982 -0.013300 0.001932
v -0.024982 -0.014500 0.001932
v -0.025153 -0.013300 0.001970
v -0.025153 -0.014500 0.001970
v -0.025326 -0.013300 0.001992
v -0.025326 -0.014500 0.001992
v -0.025500 -0.013300 0.002000
v -0.025500 -0.014500 0.002000
v -0.025674 -0.013300 0.001992
v -0.025674 -0.014500 0.001992
v -0.025847 -0.013300 0.001970
v -0.025847 -0.014500 0.001970
v -0.026018 -0.013300 0.001932
v -0.026018 -0.014500 0.001932
v -0.026184 -0.013300 0.001879
v -0.026184 -0.014500 0.001879
v -0.026345 -0.013300 0.001813
v -0.026345 -0.014500 0.001813
v -0.026500 -0.013300 0.001732
v -0.026500 -0.014500 0.001732
v -0.026647 -0.013300 0.001638
v -0.026647 -0.014500 0.001638
v -0.026786 -0.013300 0.001532
v -0.026786 -0.014500 0.001532
v -0.026914 -0.013300 0.001414
v -0.026914 -0.014500 0.001414
v -0.027032 -0.013300 0.001286
v -0.027032 -0.014500 0.001286
v -0.027138 -0.013300 0.001147
v -0.027138 -0.014500 0.001147
v -0.027232 -0.013300 0.001000
v -0.027232 -0.014500 0.001000
v -0.027313 -0.013300 0.000845
v -0.027313 -0.014500 0.000845
v -0.027379 -0.013300 0.000684
v -0.027379 -0.014500 0.000684
v -0.027432 -0.013300 0.000518
v -0.027432 -0.014500 0.000518
v -0.027470 -0.013300 0.000347
v -0.027470 -0.014500 0.000347
v -0.027492 -0.013300 0.000174
v -0.027492 -0.014500 0.000174
v -0.005000 -0.013300 0.010550
v -0.005000 -0.014500 0.010550
v -0.005000 -0.014500 0.005992
v -0.005000 -0.013300 0.005992
v -0.030500 -0.014500 -0.010550
v -0.030500 -0.013300 -0.010550
v -0.030500 -0.013300 -0.009350
v -0.030500 -0.014500 -0.009350
v -0.032600 -0.014500 -0.007250
v -0.032600 -0.013300 -0.007250
v -0.032417 -0.014500 -0.007258
v -0.032417 -0.013300 -0.007258
v -0.032235 -0.014500 -0.007282
v -0.032235 -0.013300 -0.007282
v -0.032056 -0.014500 -0.007322
v -0.032056 -0.013300 -0.007322
v -0.031882 -0.014500 -0.007377
v -0.031882 -0.013300 -0.007377
v -0.031713 -0.014500 -0.007447
v -0.031713 -0.013300 -0.007447
v -0.031550 -0.014500 -0.007531
v -0.031550 -0.013300 -0.007531
v -0.031395 -0.014500 -0.007630
v -0.031395 -0.013300 -0.007630
v -0.031250 -0.014500 -0.007741
v -0.031250 -0.013300 -0.007741
v -0.031115 -0.014500 -0.007865
v -0.031115 -0.013300 -0.007865
v -0.030991 -0.014500 -0.008000
v -0.030991 -0.013300 -0.008000
v -0.030880 -0.014500 -0.008145
v -0.030880 -0.013300 -0.008145
v -0.030781 -0.014500 -0.008300
v -0.030781 -0.013300 -0.008300
v -0.030697 -0.014500 -0.008463
v -0.030697 -0.013300 -0.008463
v -0.030627 -0.014500 -0.008632
v -0.030627 -0.013300 -0.008632
v -0.030572 -0.014500 -0.008806
v -0.030572 -0.013300 -0.008806
v -0.030532 -0.014500 -0.008985
v -0.030532 -0.013300 -0.008985
v -0.030508 -0.014500 -0.009167
v -0.030508 -0.013300 -0.009167
v -0.033800 -0.013300 -0.007250
v -0.006141 -0.013300 0.005053
v -0.005590 -0.013300 0.005546
v -0.008178 -0.013300 -0.004499
v -0.008422 -0.013300 -0.003801
v -0.008606 -0.013300 -0.003085
v -0.007109 -0.013300 -0.006437
v -0.007519 -0.013300 -0.005822
v -0.007876 -0.013300 -0.005174
v -0.007519 -0.013300 0.003322
v -0.006648 -0.013300 -0.007015
v -0.006141 -0.013300 -0.007553
v -0.005590 -0.013300 -0.008046
v -0.008730 -0.013300 -0.002356
v -0.008792 -0.013300 -0.001620
v -0.008792 -0.013300 -0.000880
v -0.008730 -0.013300 -0.000144
v -0.007876 -0.013300 0.002674
v -0.008178 -0.013300 0.001999
v -0.008422 -0.013300 0.001301
v -0.008606 -0.013300 0.000585
v -0.006648 -0.013300 0.004515
v -0.007109 -0.013300 0.003937
v -0.033800 -0.014500 -0.007250
v -0.006648 -0.014500 -0.007015
v -0.007109 -0.014500 -0.006437
v -0.006141 -0.014500 -0.007553
v -0.005590 -0.014500 -0.008046
v -0.008422 -0.014500 0.001301
v -0.008730 -0.014500 -0.002356
v -0.008422 -0.014500 -0.003801
v -0.008606 -0.014500 -0.003085
v -0.007519 -0.014500 -0.005822
v -0.007876 -0.014500 -0.005174
v -0.008178 -0.014500 -0.004499
v -0.008792 -0.014500 -0.001620
v -0.008792 -0.014500 -0.000880
v -0.008730 -0.014500 -0.000144
v -0.008606 -0.014500 0.000585
v -0.005590 -0.014500 0.005546
v -0.006141 -0.014500 0.005053
v -0.006648 -0.014500 0.004515
v -0.008178 -0.014500 0.001999
v -0.007876 -0.014500 0.002674
v -0.007109 -0.014500 0.003937
v -0.007519 -0.014500 0.003322
# 568 vertices, 0 vertices normals

f 1 2 3
f 2 4 3
f 5 6 7
f 6 8 7
f 5 7 9
f 7 10 9
f 9 10 11
f 10 12 11
f 11 12 13
f 12 14 13
f 13 14 15
f 14 16 15
f 15 16 17
f 16 18 17
f 17 18 19
f 18 20 19
f 19 20 21
f 20 22 21
f 21 22 23
f 22 24 23
f 23 24 25
f 24 26 25
f 25 26 27
f 26 28 27
f 27 28 29
f 28 30 29
f 29 30 31
f 30 32 31
f 31 32 33
f 32 34 33
f 33 34 35
f 34 36 35
f 35 36 37
f 36 38 37
f 37 38 39
f 38 40 39
f 39 40 41
f 40 42 41
f 41 42 43
f 42 44 43
f 45 46 44
f 46 43 44
f 47 48 49
f 48 50 49
f 49 50 51
f 50 52 51
f 51 52 53
f 52 54 53
f 53 54 55
f 54 56 55
f 55 56 57
f 56 58 57
f 57 58 59
f 58 60 59
f 59 60 61
f 60 62 61
f 61 62 63
f 62 64 63
f 63 64 65
f 64 66 65
f 65 66 67
f 66 68 67
f 67 68 69
f 68 70 69
f 69 70 71
f 70 72 71
f 71 72 73
f 72 74 73
f 73 74 75
f 74 76 75
f 75 76 77
f 76 78 77
f 77 78 79
f 78 80 79
f 79 80 81
f 80 82 81
f 81 82 83
f 82 84 83
f 83 84 85
f 84 86 85
f 85 86 87
f 86 88 87
f 87 88 89
f 88 90 89
f 89 90 91
f 90 92 91
f 91 92 93
f 92 94 93
f 93 94 95
f 94 96 95
f 95 96 97
f 96 98 97
f 97 98 99
f 98 100 99
f 99 100 101
f 100 102 101
f 101 102 103
f 102 104 103
f 103 104 105
f 104 106 105
f 105 106 107
f 106 108 107
f 107 108 109
f 108 110 109
f 109 110 111
f 110 112 111
f 111 112 113
f 112 114 113
f 113 114 115
f 114 116 115
f 115 116 117
f 116 118 117
f 117 118 119
f 118 120 119
f 119 120 121
f 120 122 121
f 121 122 123
f 122 124 123
f 123 124 125
f 124 126 125
f 125 126 127
f 126 128 127
f 127 128 129
f 128 130 129
f 129 130 131
f 130 132 131
f 131 132 133
f 132 134 133
f 133 134 135
f 134 136 135
f 135 136 137
f 136 138 137
f 137 138 139
f 138 140 139
f 139 140 141
f 140 142 141
f 141 142 143
f 142 144 143
f 143 144 145
f 144 146 145
f 145 146 147
f 146 148 147
f 147 148 149
f 148 150 149
f 149 150 151
f 150 152 151
f 151 152 153
f 152 154 153
f 153 154 155
f 154 156 155
f 155 156 157
f 156 158 157
f 157 158 159
f 158 160 159
f 159 160 161
f 160 162 161
f 161 162 163
f 162 164 163
f 163 164 165
f 164 166 165
f 165 166 167
f 166 168 167
f 167 168 169
f 168 170 169
f 169 170 171
f 170 172 171
f 171 172 173
f 172 174 173
f 173 174 175
f 174 176 175
f 175 176 177
f 176 178 177
f 177 178 179
f 178 180 179
f 179 180 181
f 180 182 181
f 181 182 183
f 182 184 183
f 183 184 185
f 184 186 185
f 185 186 187
f 186 188 187
f 187 188 189
f 188 190 189
f 189 190 47
f 190 48 47
f 191 192 193
f 192 194 193
f 193 194 195
f 194 196 195
f 195 196 197
f 196 198 197
f 197 198 199
f 198 200 199
f 199 200 201
f 200 202 201
f 201 202 203
f 202 204 203
f 203 204 205
f 204 206 205
f 205 206 207
f 206 208 207
f 207 208 209
f 208 210 209
f 209 210 211
f 210 212 211
f 211 212 213
f 212 214 213
f 213 214 215
f 214 216 215
f 215 216 217
f 216 218 217
f 217 218 219
f 218 220 219
f 219 220 221
f 220 222 221
f 221 222 223
f 222 224 223
f 223 224 225
f 224 226 225
f 225 226 227
f 226 228 227
f 227 228 229
f 228 230 229
f 229 230 231
f 230 232 231
f 231 232 233
f 232 234 233
f 233 234 235
f 234 236 235
f 235 236 237
f 236 238 237
f 237 238 239
f 238 240 239
f 239 240 241
f 240 242 241
f 241 242 243
f 242 244 243
f 243 244 245
f 244 246 245
f 245 246 247
f 246 248 247
f 247 248 249
f 248 250 249
f 249 250 251
f 250 252 251
f 251 252 253
f 252 254 253
f 253 254 255
f 254 256 255
f 255 256 257
f 256 258 257
f 257 258 259
f 258 260 259
f 259 260 261
f 260 262 261
f 261 262 263
f 262 264 263
f 263 264 265
f 264 266 265
f 265 266 267
f 266 268 267
f 267 268 269
f 268 270 269
f 269 270 271
f 270 272 271
f 271 272 273
f 272 274 273
f 273 274 275
f 274 276 275
f 275 276 277
f 276 278 277
f 277 278 279
f 278 280 279
f 279 280 281
f 280 282 281
f 281 282 283
f 282 284 283
f 283 284 285
f 284 286 285
f 285 286 287
f 286 288 287
f 287 288 289
f 288 290 289
f 289 290 291
f 290 292 291
f 291 292 293
f 292 294 293
f 293 294 295
f 294 296 295
f 295 296 297
f 296 298 297
f 297 298 299
f 298 300 299
f 299 300 301
f 300 302 301
f 301 302 303
f 302 304 303
f 303 304 305
f 304 306 305
f 305 306 307
f 306 308 307
f 307 308 309
f 308 310 309
f 309 310 311
f 310 312 311
f 311 312 313
f 312 314 313
f 313 314 315
f 314 316 315
f 315 316 317
f 316 318 317
f 317 318 319
f 318 320 319
f 319 320 321
f 320 322 321
f 321 322 323
f 322 324 323
f 323 324 325
f 324 326 325
f 325 326 327
f 326 328 327
f 327 328 329
f 328 330 329
f 329 330 331
f 330 332 331
f 331 332 333
f 332 334 333
f 333 334 191
f 334 192 191
f 335 336 337
f 336 338 337
f 337 338 339
f 338 340 339
f 339 340 341
f 340 342 341
f 341 342 343
f 342 344 343
f 343 344 345
f 344 346 345
f 345 346 347
f 346 348 347
f 347 348 349
f 348 350 349
f 349 350 351
f 350 352 351
f 351 352 353
f 352 354 353
f 353 354 355
f 354 356 355
f 355 356 357
f 356 358 357
f 357 358 359
f 358 360 359
f 359 360 361
f 360 362 361
f 361 362 363
f 362 364 363
f 363 364 365
f 364 366 365
f 365 366 367
f 366 368 367
f 367 368 369
f 368 370 369
f 369 370 371
f 370 372 371
f 371 372 373
f 372 374 373
f 373 374 375
f 374 376 375
f 375 376 377
f 376 378 377
f 377 378 379
f 378 380 379
f 379 380 381
f 380 382 381
f 381 382 383
f 382 384 383
f 383 384 385
f 384 386 385
f 385 386 387
f 386 388 387
f 387 388 389
f 388 390 389
f 389 390 391
f 390 392 391
f 391 392 393
f 392 394 393
f 393 394 395
f 394 396 395
f 395 396 397
f 396 398 397
f 397 398 399
f 398 400 399
f 399 400 401
f 400 402 401
f 401 402 403
f 402 404 403
f 403 404 405
f 404 406 405
f 405 406 407
f 406 408 407
f 407 408 409
f 408 410 409
f 409 410 411
f 410 412 411
f 411 412 413
f 412 414 413
f 413 414 415
f 414 416 415
f 415 416 417
f 416 418 417
f 417 418 419
f 418 420 419
f 419 420 421
f 420 422 421
f 421 422 423
f 422 424 423
f 423 424 425
f 424 426 425
f 425 426 427
f 426 428 427
f 427 428 429
f 428 430 429
f 429 430 431
f 430 432 431
f 431 432 433
f 432 434 433
f 433 434 435
f 434 436 435
f 435 436 437
f 436 438 437
f 437 438 439
f 438 440 439
f 439 440 441
f 440 442 441
f 441 442 443
f 442 444 443
f 443 444 445
f 444 446 445
f 445 446 447
f 446 448 447
f 447 448 449
f 448 450 449
f 449 450 451
f 450 452 451
f 451 452 453
f 452 454 453
f 453 454 455
f 454 456 455
f 455 456 457
f 456 458 457
f 457 458 459
f 458 460 459
f 459 460 461
f 460 462 461
f 461 462 463
f 462 464 463
f 463 464 465
f 464 466 465
f 465 466 467
f 466 468 467
f 467 468 469
f 468 470 469
f 469 470 471
f 470 472 471
f 471 472 473
f 472 474 473
f 473 474 475
f 474 476 475
f 475 476 477
f 476 478 477
f 477 478 335
f 478 336 335
f 479 8 480
f 8 6 480
f 480 481 479
f 481 482 479
f 3 483 1
f 483 484 1
f 484 483 485
f 483 486 485
f 487 488 489
f 488 490 489
f 489 490 491
f 490 492 491
f 491 492 493
f 492 494 493
f 493 494 495
f 494 496 495
f 495 496 497
f 496 498 497
f 497 498 499
f 498 500 499
f 499 500 501
f 500 502 501
f 501 502 503
f 502 504 503
f 503 504 505
f 504 506 505
f 505 506 507
f 506 508 507
f 507 508 509
f 508 510 509
f 509 510 511
f 510 512 511
f 511 512 513
f 512 514 513
f 513 514 515
f 514 516 515
f 515 516 517
f 516 518 517
f 517 518 519
f 518 520 519
f 519 520 521
f 520 522 521
f 521 522 486
f 522 485 486
f 187 189 523
f 189 47 523
f 40 38 155
f 187 523 185
f 523 45 185
f 185 45 183
f 18 16 443
f 161 163 45
f 163 165 45
f 45 165 167
f 177 45 175
f 45 173 175
f 177 179 45
f 179 181 45
f 45 181 183
f 40 155 42
f 167 169 45
f 169 171 45
f 45 171 173
f 18 443 20
f 16 14 443
f 14 12 443
f 443 12 10
f 1 484 485
f 524 413 525
f 413 415 525
f 525 415 482
f 447 449 22
f 319 321 8
f 42 155 44
f 155 157 44
f 44 157 45
f 157 159 45
f 45 159 161
f 207 209 415
f 209 211 415
f 211 213 415
f 213 215 415
f 415 215 217
f 20 443 22
f 443 445 22
f 22 445 447
f 47 49 523
f 49 51 523
f 523 51 53
f 1 107 109
f 109 111 1
f 111 113 1
f 1 113 115
f 331 8 329
f 8 327 329
f 199 201 415
f 217 219 415
f 219 221 415
f 415 221 223
f 243 245 482
f 245 247 482
f 482 247 249
f 259 482 257
f 482 255 257
f 36 461 38
f 461 463 38
f 38 463 465
f 453 28 451
f 28 26 451
f 451 26 449
f 26 24 449
f 449 24 22
f 53 55 523
f 55 57 523
f 523 57 59
f 59 61 523
f 61 63 523
f 523 63 65
f 526 119 527
f 119 121 527
f 527 121 528
f 529 117 530
f 117 119 530
f 530 119 531
f 119 526 531
f 399 401 532
f 311 313 8
f 321 323 8
f 323 325 8
f 8 325 327
f 333 191 433
f 191 193 433
f 201 203 415
f 203 205 415
f 415 205 207
f 423 197 421
f 197 419 421
f 231 233 482
f 233 235 482
f 482 235 237
f 237 239 482
f 239 241 482
f 482 241 243
f 249 251 482
f 251 253 482
f 482 253 255
f 273 275 479
f 275 277 479
f 479 277 279
f 279 281 479
f 281 283 479
f 479 283 285
f 465 467 38
f 467 469 38
f 38 469 471
f 529 533 117
f 533 534 117
f 117 534 115
f 534 535 115
f 115 535 1
f 535 2 1
f 528 121 536
f 121 123 536
f 536 123 537
f 537 123 538
f 123 125 538
f 538 125 539
f 540 127 532
f 127 129 532
f 532 129 131
f 345 137 343
f 137 139 343
f 139 141 343
f 141 143 343
f 343 143 145
f 297 299 479
f 299 301 479
f 479 301 303
f 313 315 8
f 315 317 8
f 8 317 319
f 10 7 443
f 7 8 443
f 443 8 441
f 8 439 441
f 223 225 415
f 225 227 415
f 415 227 482
f 227 229 482
f 482 229 231
f 259 261 482
f 261 263 482
f 482 263 265
f 265 267 482
f 267 269 482
f 482 269 479
f 269 271 479
f 479 271 273
f 285 287 479
f 287 289 479
f 479 289 291
f 291 293 479
f 293 295 479
f 479 295 297
f 477 155 475
f 155 38 475
f 475 38 473
f 38 471 473
f 477 335 155
f 335 337 155
f 155 337 339
f 71 488 69
f 488 523 69
f 69 523 67
f 523 65 67
f 485 522 1
f 522 520 1
f 1 520 518
f 532 391 393
f 401 403 532
f 403 405 532
f 532 405 407
f 145 147 343
f 147 149 343
f 343 149 151
f 339 341 155
f 341 343 155
f 155 343 153
f 343 151 153
f 303 305 479
f 305 307 479
f 479 307 8
f 307 309 8
f 8 309 311
f 199 415 197
f 415 417 197
f 197 417 419
f 423 425 197
f 425 427 197
f 197 427 429
f 193 195 433
f 195 197 433
f 433 197 431
f 197 429 431
f 453 455 28
f 455 457 28
f 28 457 30
f 457 459 30
f 30 459 32
f 459 461 32
f 32 461 34
f 461 36 34
f 99 101 518
f 101 103 518
f 518 103 1
f 103 105 1
f 1 105 107
f 540 541 127
f 541 542 127
f 127 542 125
f 542 543 125
f 125 543 539
f 393 395 532
f 395 397 532
f 532 397 399
f 524 544 413
f 544 545 413
f 413 545 411
f 545 532 411
f 411 532 409
f 532 407 409
f 333 433 331
f 433 435 331
f 331 435 8
f 435 437 8
f 8 437 439
f 365 367 131
f 367 369 131
f 131 357 359
f 518 516 99
f 516 514 99
f 99 514 512
f 512 510 99
f 510 508 99
f 99 508 506
f 506 504 99
f 504 502 99
f 99 502 500
f 496 93 498
f 93 95 498
f 498 95 500
f 95 97 500
f 500 97 99
f 345 347 137
f 347 349 137
f 137 349 135
f 349 351 135
f 135 351 133
f 351 353 133
f 133 353 131
f 353 355 131
f 131 355 357
f 359 361 131
f 361 363 131
f 131 363 365
f 369 371 131
f 371 373 131
f 131 373 375
f 383 385 532
f 492 81 494
f 81 83 494
f 494 83 496
f 83 85 496
f 496 85 87
f 87 89 496
f 89 91 496
f 496 91 93
f 71 73 488
f 73 75 488
f 488 75 490
f 75 77 490
f 490 77 492
f 77 79 492
f 492 79 81
f 385 387 532
f 387 389 532
f 532 389 391
f 375 377 131
f 377 379 131
f 131 379 532
f 379 381 532
f 532 381 383
f 45 523 46
f 523 546 46
f 487 546 488
f 546 523 488
f 546 50 48
f 392 390 3
f 515 517 100
f 412 228 414
f 228 416 414
f 392 3 394
f 487 72 546
f 72 70 546
f 546 70 68
f 56 54 546
f 54 52 546
f 546 52 50
f 400 547 548
f 68 66 546
f 66 64 546
f 546 64 62
f 62 60 546
f 60 58 546
f 546 58 56
f 100 517 102
f 48 190 546
f 190 188 546
f 546 188 46
f 188 186 46
f 46 186 184
f 220 218 6
f 549 3 550
f 3 4 550
f 521 486 372
f 486 483 372
f 372 483 374
f 483 376 374
f 122 120 372
f 120 118 372
f 412 410 551
f 406 404 552
f 402 553 404
f 553 554 404
f 404 554 552
f 548 555 400
f 555 556 400
f 400 556 402
f 556 557 402
f 402 557 553
f 547 400 549
f 400 398 549
f 549 398 3
f 398 396 3
f 3 396 394
f 390 388 3
f 388 386 3
f 3 386 384
f 489 491 80
f 146 144 344
f 128 126 372
f 126 124 372
f 372 124 122
f 118 116 372
f 116 114 372
f 372 114 112
f 552 558 406
f 558 559 406
f 406 559 408
f 559 560 408
f 408 560 410
f 560 561 410
f 410 561 551
f 384 382 3
f 382 380 3
f 3 380 483
f 380 378 483
f 483 378 376
f 80 78 489
f 78 76 489
f 489 76 487
f 76 74 487
f 487 74 72
f 166 164 344
f 112 110 372
f 110 519 372
f 372 519 521
f 110 108 519
f 108 106 519
f 519 106 517
f 106 104 517
f 517 104 102
f 495 94 92
f 184 182 46
f 182 180 46
f 46 180 178
f 166 344 168
f 350 348 138
f 348 346 138
f 138 346 140
f 346 344 140
f 140 344 142
f 344 144 142
f 128 372 130
f 372 370 130
f 130 370 132
f 370 368 132
f 132 368 366
f 98 96 499
f 5 224 6
f 224 222 6
f 6 222 220
f 5 9 224
f 9 11 224
f 224 11 226
f 11 13 226
f 226 13 15
f 212 210 6
f 210 208 6
f 6 208 206
f 334 332 6
f 250 248 562
f 416 228 418
f 228 226 418
f 418 226 420
f 23 25 450
f 366 364 132
f 364 362 132
f 132 362 360
f 495 86 493
f 86 84 493
f 493 84 491
f 84 82 491
f 491 82 80
f 248 246 562
f 246 244 562
f 562 244 563
f 244 242 563
f 563 242 240
f 426 424 226
f 424 422 226
f 226 422 420
f 152 150 344
f 150 148 344
f 344 148 146
f 360 358 132
f 358 356 132
f 132 356 354
f 92 90 495
f 90 88 495
f 495 88 86
f 94 495 96
f 495 497 96
f 96 497 499
f 98 499 100
f 499 501 100
f 100 501 503
f 503 505 100
f 505 507 100
f 100 507 509
f 509 511 100
f 511 513 100
f 100 513 515
f 218 216 6
f 216 214 6
f 6 214 212
f 234 564 236
f 564 563 236
f 236 563 238
f 563 240 238
f 27 454 25
f 454 452 25
f 25 452 450
f 470 46 472
f 46 474 472
f 39 462 37
f 462 35 37
f 350 138 352
f 138 136 352
f 352 136 354
f 136 134 354
f 354 134 132
f 200 198 6
f 198 196 6
f 258 256 481
f 256 254 481
f 481 254 562
f 254 252 562
f 562 252 250
f 412 551 228
f 551 565 228
f 228 565 566
f 15 17 226
f 17 19 226
f 226 19 426
f 19 21 426
f 426 21 428
f 23 450 21
f 450 448 21
f 21 448 446
f 446 444 21
f 444 442 21
f 21 442 440
f 440 438 21
f 438 436 21
f 21 436 434
f 168 344 170
f 344 342 170
f 170 342 172
f 342 340 172
f 172 340 338
f 178 176 46
f 176 174 46
f 46 174 172
f 39 41 462
f 41 43 462
f 462 43 464
f 43 46 464
f 164 162 344
f 162 160 344
f 344 160 158
f 158 156 344
f 156 154 344
f 344 154 152
f 206 204 6
f 204 202 6
f 6 202 200
f 196 194 6
f 194 192 6
f 6 192 334
f 332 330 6
f 330 328 6
f 6 328 326
f 294 292 480
f 282 480 284
f 480 286 284
f 282 280 480
f 280 278 480
f 480 278 276
f 270 481 272
f 481 480 272
f 272 480 274
f 480 276 274
f 270 268 481
f 268 266 481
f 481 266 264
f 264 262 481
f 262 260 481
f 481 260 258
f 434 432 21
f 432 430 21
f 21 430 428
f 338 336 172
f 336 478 172
f 172 478 46
f 478 476 46
f 46 476 474
f 470 468 46
f 468 466 46
f 46 466 464
f 460 458 27
f 458 456 27
f 27 456 454
f 292 290 480
f 290 288 480
f 480 288 286
f 234 232 564
f 232 230 564
f 564 230 567
f 230 228 567
f 567 228 568
f 228 566 568
f 27 29 460
f 29 31 460
f 460 31 462
f 31 33 462
f 462 33 35
f 326 324 6
f 324 322 6
f 6 322 480
f 322 320 480
f 480 320 318
f 318 316 480
f 316 314 480
f 480 314 312
f 312 310 480
f 310 308 480
f 480 308 306
f 306 304 480
f 304 302 480
f 480 302 300
f 300 298 480
f 298 296 480
f 480 296 294
f 482 481 525
f 481 562 525
f 525 562 524
f 562 563 524
f 524 563 544
f 563 564 544
f 544 564 545
f 564 567 545
f 545 567 532
f 567 568 532
f 532 568 540
f 568 566 540
f 540 566 541
f 566 565 541
f 541 565 542
f 565 551 542
f 542 551 543
f 551 561 543
f 543 561 539
f 561 560 539
f 539 560 538
f 560 559 538
f 538 559 537
f 559 558 537
f 537 558 536
f 558 552 536
f 536 552 528
f 552 554 528
f 528 554 527
f 554 553 527
f 527 553 526
f 553 557 526
f 526 557 531
f 557 556 531
f 531 556 530
f 556 555 530
f 530 555 529
f 555 548 529
f 529 548 533
f 548 547 533
f 533 547 534
f 547 549 534
f 534 549 535
f 549 550 535
f 535 550 2
f 550 4 2
# 1144 faces, 0 coords texture

# End of File
