####
#
# OBJ File Generated by Meshlab
#
####
# Object servo_to_shaft.obj
#
# Vertices: 1192
# Faces: 2404
#
####
v 0.002149 -0.008000 -0.002880
v -0.000068 -0.008000 0.003593
v 0.002145 -0.007904 -0.002881
v -0.000072 -0.007904 0.003591
v 0.002133 -0.007809 -0.002885
v -0.000083 -0.007809 0.003587
v 0.002113 -0.007715 -0.002892
v -0.000103 -0.007715 0.003581
v 0.002086 -0.007624 -0.002901
v -0.000130 -0.007624 0.003571
v 0.002051 -0.007535 -0.002913
v -0.000165 -0.007535 0.003559
v 0.002010 -0.007450 -0.002928
v -0.000207 -0.007450 0.003545
v 0.001961 -0.007369 -0.002944
v -0.000256 -0.007369 0.003528
v 0.001905 -0.007293 -0.002963
v -0.000311 -0.007293 0.003509
v 0.001844 -0.007222 -0.002984
v -0.000372 -0.007222 0.003488
v 0.001777 -0.007157 -0.003007
v -0.000439 -0.007157 0.003465
v 0.001705 -0.007099 -0.003032
v -0.000511 -0.007099 0.003441
v 0.001629 -0.007047 -0.003058
v -0.000588 -0.007047 0.003414
v 0.001548 -0.007003 -0.003086
v -0.000668 -0.007003 0.003387
v 0.001464 -0.006966 -0.003114
v -0.000752 -0.006966 0.003358
v 0.001378 -0.006937 -0.003144
v -0.000839 -0.006937 0.003329
v 0.001289 -0.006917 -0.003174
v -0.000928 -0.006917 0.003298
v 0.001199 -0.006904 -0.003205
v -0.001018 -0.006904 0.003267
v 0.001108 -0.006900 -0.003236
v -0.001108 -0.006900 0.003236
v 0.001018 -0.006904 -0.003267
v -0.001199 -0.006904 0.003205
v 0.000928 -0.006917 -0.003298
v -0.001289 -0.006917 0.003174
v 0.000839 -0.006937 -0.003329
v -0.001378 -0.006937 0.003144
v 0.000752 -0.006966 -0.003358
v -0.001464 -0.006966 0.003114
v 0.000668 -0.007003 -0.003387
v -0.001548 -0.007003 0.003086
v 0.000588 -0.007047 -0.003414
v -0.001629 -0.007047 0.003058
v 0.000511 -0.007099 -0.003441
v -0.001705 -0.007099 0.003032
v 0.000439 -0.007157 -0.003465
v -0.001777 -0.007157 0.003007
v 0.000372 -0.007222 -0.003488
v -0.001844 -0.007222 0.002984
v 0.000311 -0.007293 -0.003509
v -0.001905 -0.007293 0.002963
v 0.000256 -0.007369 -0.003528
v -0.001961 -0.007369 0.002944
v 0.000207 -0.007450 -0.003545
v -0.002010 -0.007450 0.002928
v 0.000165 -0.007535 -0.003559
v -0.002051 -0.007535 0.002913
v 0.000130 -0.007624 -0.003571
v -0.002086 -0.007624 0.002901
v 0.000103 -0.007715 -0.003581
v -0.002113 -0.007715 0.002892
v 0.000083 -0.007809 -0.003587
v -0.002133 -0.007809 0.002885
v 0.000072 -0.007904 -0.003591
v -0.002145 -0.007904 0.002881
v 0.000068 -0.008000 -0.003593
v -0.002149 -0.008000 0.002880
v 0.000072 -0.008096 -0.003591
v -0.002145 -0.008096 0.002881
v 0.000083 -0.008191 -0.003587
v -0.002133 -0.008191 0.002885
v 0.000103 -0.008285 -0.003581
v -0.002113 -0.008285 0.002892
v 0.000130 -0.008376 -0.003571
v -0.002086 -0.008376 0.002901
v 0.000165 -0.008465 -0.003559
v -0.002051 -0.008465 0.002913
v 0.000207 -0.008550 -0.003545
v -0.002010 -0.008550 0.002928
v 0.000256 -0.008631 -0.003528
v -0.001961 -0.008631 0.002944
v 0.000311 -0.008707 -0.003509
v -0.001905 -0.008707 0.002963
v 0.000372 -0.008778 -0.003488
v -0.001844 -0.008778 0.002984
v 0.000439 -0.008843 -0.003465
v -0.001777 -0.008843 0.003007
v 0.000511 -0.008901 -0.003441
v -0.001705 -0.008901 0.003032
v 0.000588 -0.008953 -0.003414
v -0.001629 -0.008953 0.003058
v 0.000668 -0.008997 -0.003387
v -0.001548 -0.008997 0.003086
v 0.000752 -0.009034 -0.003358
v -0.001464 -0.009034 0.003114
v 0.000839 -0.009063 -0.003329
v -0.001378 -0.009063 0.003144
v 0.000928 -0.009083 -0.003298
v -0.001289 -0.009083 0.003174
v 0.001018 -0.009096 -0.003267
v -0.001199 -0.009096 0.003205
v 0.001108 -0.009100 -0.003236
v -0.001108 -0.009100 0.003236
v 0.001199 -0.009096 -0.003205
v -0.001018 -0.009096 0.003267
v 0.001289 -0.009083 -0.003174
v -0.000928 -0.009083 0.003298
v 0.001378 -0.009063 -0.003144
v -0.000839 -0.009063 0.003329
v 0.001464 -0.009034 -0.003114
v -0.000752 -0.009034 0.003358
v 0.001548 -0.008997 -0.003086
v -0.000668 -0.008997 0.003387
v 0.001629 -0.008953 -0.003058
v -0.000588 -0.008953 0.003414
v 0.001705 -0.008901 -0.003032
v -0.000511 -0.008901 0.003441
v 0.001777 -0.008843 -0.003007
v -0.000439 -0.008843 0.003465
v 0.001844 -0.008778 -0.002984
v -0.000372 -0.008778 0.003488
v 0.001905 -0.008707 -0.002963
v -0.000311 -0.008707 0.003509
v 0.001961 -0.008631 -0.002944
v -0.000256 -0.008631 0.003528
v 0.002010 -0.008550 -0.002928
v -0.000207 -0.008550 0.003545
v 0.002051 -0.008465 -0.002913
v -0.000165 -0.008465 0.003559
v 0.002086 -0.008376 -0.002901
v -0.000130 -0.008376 0.003571
v 0.002113 -0.008285 -0.002892
v -0.000103 -0.008285 0.003581
v 0.002133 -0.008191 -0.002885
v -0.000083 -0.008191 0.003587
v 0.002145 -0.008096 -0.002881
v -0.000072 -0.008096 0.003591
v 0.000760 -0.015000 0.003876
v -0.002977 -0.015000 0.002596
v 0.003737 -0.015000 0.001280
v -0.003737 -0.015000 -0.001280
v 0.002977 -0.015000 -0.002596
v -0.000760 -0.015000 -0.003876
v -0.000000 -0.005000 0.008650
v -0.000000 -0.002000 0.008650
v 0.000144 -0.005000 0.008644
v 0.000144 -0.002000 0.008644
v 0.000287 -0.005000 0.008625
v 0.000287 -0.002000 0.008625
v 0.000427 -0.005000 0.008594
v 0.000427 -0.002000 0.008594
v 0.000564 -0.005000 0.008550
v 0.000564 -0.002000 0.008550
v 0.000697 -0.005000 0.008495
v 0.000697 -0.002000 0.008495
v 0.000825 -0.005000 0.008429
v 0.000825 -0.002000 0.008429
v 0.000946 -0.005000 0.008352
v 0.000946 -0.002000 0.008352
v 0.001061 -0.005000 0.008264
v 0.001061 -0.002000 0.008264
v 0.001167 -0.005000 0.008167
v 0.001167 -0.002000 0.008167
v 0.001264 -0.005000 0.008061
v 0.001264 -0.002000 0.008061
v 0.001352 -0.005000 0.007946
v 0.001352 -0.002000 0.007946
v 0.001429 -0.005000 0.007825
v 0.001429 -0.002000 0.007825
v 0.001495 -0.005000 0.007697
v 0.001495 -0.002000 0.007697
v 0.001550 -0.005000 0.007564
v 0.001550 -0.002000 0.007564
v 0.001594 -0.005000 0.007427
v 0.001594 -0.002000 0.007427
v 0.001625 -0.005000 0.007287
v 0.001625 -0.002000 0.007287
v 0.001644 -0.005000 0.007144
v 0.001644 -0.002000 0.007144
v 0.001650 -0.005000 0.007000
v 0.001650 -0.002000 0.007000
v 0.001644 -0.005000 0.006856
v 0.001644 -0.002000 0.006856
v 0.001625 -0.005000 0.006713
v 0.001625 -0.002000 0.006713
v 0.001594 -0.005000 0.006573
v 0.001594 -0.002000 0.006573
v 0.001550 -0.005000 0.006436
v 0.001550 -0.002000 0.006436
v 0.001495 -0.005000 0.006303
v 0.001495 -0.002000 0.006303
v 0.001429 -0.005000 0.006175
v 0.001429 -0.002000 0.006175
v 0.001352 -0.005000 0.006054
v 0.001352 -0.002000 0.006054
v 0.001264 -0.005000 0.005939
v 0.001264 -0.002000 0.005939
v 0.001167 -0.005000 0.005833
v 0.001167 -0.002000 0.005833
v 0.001061 -0.005000 0.005736
v 0.001061 -0.002000 0.005736
v 0.000946 -0.005000 0.005648
v 0.000946 -0.002000 0.005648
v 0.000825 -0.005000 0.005571
v 0.000825 -0.002000 0.005571
v 0.000697 -0.005000 0.005505
v 0.000697 -0.002000 0.005505
v 0.000564 -0.005000 0.005450
v 0.000564 -0.002000 0.005450
v 0.000427 -0.005000 0.005406
v 0.000427 -0.002000 0.005406
v 0.000287 -0.005000 0.005375
v 0.000287 -0.002000 0.005375
v 0.000144 -0.005000 0.005356
v 0.000144 -0.002000 0.005356
v 0.000000 -0.005000 0.005350
v 0.000000 -0.002000 0.005350
v -0.000144 -0.005000 0.005356
v -0.000144 -0.002000 0.005356
v -0.000287 -0.005000 0.005375
v -0.000287 -0.002000 0.005375
v -0.000427 -0.005000 0.005406
v -0.000427 -0.002000 0.005406
v -0.000564 -0.005000 0.005450
v -0.000564 -0.002000 0.005450
v -0.000697 -0.005000 0.005505
v -0.000697 -0.002000 0.005505
v -0.000825 -0.005000 0.005571
v -0.000825 -0.002000 0.005571
v -0.000946 -0.005000 0.005648
v -0.000946 -0.002000 0.005648
v -0.001061 -0.005000 0.005736
v -0.001061 -0.002000 0.005736
v -0.001167 -0.005000 0.005833
v -0.001167 -0.002000 0.005833
v -0.001264 -0.005000 0.005939
v -0.001264 -0.002000 0.005939
v -0.001352 -0.005000 0.006054
v -0.001352 -0.002000 0.006054
v -0.001429 -0.005000 0.006175
v -0.001429 -0.002000 0.006175
v -0.001495 -0.005000 0.006303
v -0.001495 -0.002000 0.006303
v -0.001550 -0.005000 0.006436
v -0.001550 -0.002000 0.006436
v -0.001594 -0.005000 0.006573
v -0.001594 -0.002000 0.006573
v -0.001625 -0.005000 0.006713
v -0.001625 -0.002000 0.006713
v -0.001644 -0.005000 0.006856
v -0.001644 -0.002000 0.006856
v -0.001650 -0.005000 0.007000
v -0.001650 -0.002000 0.007000
v -0.001644 -0.005000 0.007144
v -0.001644 -0.002000 0.007144
v -0.001625 -0.005000 0.007287
v -0.001625 -0.002000 0.007287
v -0.001594 -0.005000 0.007427
v -0.001594 -0.002000 0.007427
v -0.001550 -0.005000 0.007564
v -0.001550 -0.002000 0.007564
v -0.001495 -0.005000 0.007697
v -0.001495 -0.002000 0.007697
v -0.001429 -0.005000 0.007825
v -0.001429 -0.002000 0.007825
v -0.001352 -0.005000 0.007946
v -0.001352 -0.002000 0.007946
v -0.001264 -0.005000 0.008061
v -0.001264 -0.002000 0.008061
v -0.001167 -0.005000 0.008167
v -0.001167 -0.002000 0.008167
v -0.001061 -0.005000 0.008264
v -0.001061 -0.002000 0.008264
v -0.000946 -0.005000 0.008352
v -0.000946 -0.002000 0.008352
v -0.000825 -0.005000 0.008429
v -0.000825 -0.002000 0.008429
v -0.000697 -0.005000 0.008495
v -0.000697 -0.002000 0.008495
v -0.000564 -0.005000 0.008550
v -0.000564 -0.002000 0.008550
v -0.000427 -0.005000 0.008594
v -0.000427 -0.002000 0.008594
v -0.000287 -0.005000 0.008625
v -0.000287 -0.002000 0.008625
v -0.000144 -0.005000 0.008644
v -0.000144 -0.002000 0.008644
v 0.009176 0.000000 0.004279
v 0.009969 0.000000 0.004649
v 0.009514 0.000000 0.003463
v 0.010337 0.000000 0.003762
v 0.009780 0.000000 0.002621
v 0.010625 0.000000 0.002847
v 0.009971 0.000000 0.001758
v 0.010833 0.000000 0.001910
v 0.010086 0.000000 0.000882
v 0.010958 0.000000 0.000959
v 0.010125 0.000000 0.000000
v 0.011000 0.000000 0.000000
v 0.010086 0.000000 -0.000882
v 0.010958 0.000000 -0.000959
v 0.009971 0.000000 -0.001758
v 0.010833 0.000000 -0.001910
v 0.009780 0.000000 -0.002621
v 0.010625 0.000000 -0.002847
v 0.009514 0.000000 -0.003463
v 0.010337 0.000000 -0.003762
v 0.009176 0.000000 -0.004279
v 0.009969 0.000000 -0.004649
v 0.008769 0.000000 -0.005063
v 0.009526 0.000000 -0.005500
v 0.008294 0.000000 -0.005807
v 0.009011 0.000000 -0.006309
v 0.007756 0.000000 -0.006508
v 0.008426 0.000000 -0.007071
v 0.007159 0.000000 -0.007159
v 0.007778 0.000000 -0.007778
v 0.006508 0.000000 -0.007756
v 0.007071 0.000000 -0.008426
v 0.005807 0.000000 -0.008294
v 0.006309 0.000000 -0.009011
v 0.005063 0.000000 -0.008769
v 0.005500 0.000000 -0.009526
v 0.004279 0.000000 -0.009176
v 0.004649 0.000000 -0.009969
v 0.003463 0.000000 -0.009514
v 0.003762 0.000000 -0.010337
v 0.002621 0.000000 -0.009780
v 0.002847 0.000000 -0.010625
v 0.001758 0.000000 -0.009971
v 0.001910 0.000000 -0.010833
v 0.000882 0.000000 -0.010086
v 0.000959 0.000000 -0.010958
v 0.000000 0.000000 -0.010125
v 0.000000 0.000000 -0.011000
v -0.000882 0.000000 -0.010086
v -0.000959 0.000000 -0.010958
v -0.001758 0.000000 -0.009971
v -0.001910 0.000000 -0.010833
v -0.002621 0.000000 -0.009780
v -0.002847 0.000000 -0.010625
v -0.003463 0.000000 -0.009514
v -0.003762 0.000000 -0.010337
v -0.004279 0.000000 -0.009176
v -0.004649 0.000000 -0.009969
v -0.005063 0.000000 -0.008769
v -0.005500 0.000000 -0.009526
v -0.005807 0.000000 -0.008294
v -0.006309 0.000000 -0.009011
v -0.006508 0.000000 -0.007756
v -0.007071 0.000000 -0.008426
v -0.007159 0.000000 -0.007159
v -0.007778 0.000000 -0.007778
v -0.007756 0.000000 -0.006508
v -0.008426 0.000000 -0.007071
v -0.008294 0.000000 -0.005807
v -0.009011 0.000000 -0.006309
v -0.008769 0.000000 -0.005063
v -0.009526 0.000000 -0.005500
v -0.009176 0.000000 -0.004279
v -0.009969 0.000000 -0.004649
v -0.009514 0.000000 -0.003463
v -0.010337 0.000000 -0.003762
v -0.009780 0.000000 -0.002621
v -0.010625 0.000000 -0.002847
v -0.009971 0.000000 -0.001758
v -0.010833 0.000000 -0.001910
v -0.010086 0.000000 -0.000882
v -0.010958 0.000000 -0.000959
v -0.010125 0.000000 -0.000000
v -0.011000 0.000000 -0.000000
v -0.010086 0.000000 0.000882
v -0.010958 0.000000 0.000959
v -0.009971 0.000000 0.001758
v -0.010833 0.000000 0.001910
v -0.009780 0.000000 0.002621
v -0.010625 0.000000 0.002847
v -0.009514 0.000000 0.003463
v -0.010337 0.000000 0.003762
v -0.009176 0.000000 0.004279
v -0.009969 0.000000 0.004649
v -0.008769 0.000000 0.005063
v -0.009526 0.000000 0.005500
v -0.008294 0.000000 0.005807
v -0.009011 0.000000 0.006309
v -0.007756 0.000000 0.006508
v -0.008426 0.000000 0.007071
v -0.007159 0.000000 0.007159
v -0.007778 0.000000 0.007778
v -0.006508 0.000000 0.007756
v -0.007071 0.000000 0.008426
v -0.005807 0.000000 0.008294
v -0.006309 0.000000 0.009011
v -0.005063 0.000000 0.008769
v -0.005500 0.000000 0.009526
v -0.004279 0.000000 0.009176
v -0.004649 0.000000 0.009969
v -0.003463 0.000000 0.009514
v -0.003762 0.000000 0.010337
v -0.002621 0.000000 0.009780
v -0.002847 0.000000 0.010625
v -0.001758 0.000000 0.009971
v -0.001910 0.000000 0.010833
v -0.000882 0.000000 0.010086
v -0.000959 0.000000 0.010958
v -0.000000 0.000000 0.010125
v 0.000000 0.000000 0.011000
v 0.000882 0.000000 0.010086
v 0.000959 0.000000 0.010958
v 0.001758 0.000000 0.009971
v 0.001910 0.000000 0.010833
v 0.002621 0.000000 0.009780
v 0.002847 0.000000 0.010625
v 0.003463 0.000000 0.009514
v 0.003762 0.000000 0.010337
v 0.004279 0.000000 0.009176
v 0.004649 0.000000 0.009969
v 0.005063 0.000000 0.008769
v 0.005500 0.000000 0.009526
v 0.005807 0.000000 0.008294
v 0.006309 0.000000 0.009011
v 0.006508 0.000000 0.007756
v 0.007071 0.000000 0.008426
v 0.007159 0.000000 0.007159
v 0.007778 0.000000 0.007778
v 0.007756 0.000000 0.006508
v 0.008426 0.000000 0.007071
v 0.008294 0.000000 0.005807
v 0.009011 0.000000 0.006309
v 0.008769 0.000000 0.005063
v 0.009526 0.000000 0.005500
v -0.004500 -0.005000 0.005600
v -0.004500 -0.002000 0.005600
v -0.004404 -0.005000 0.005596
v -0.004404 -0.002000 0.005596
v -0.004309 -0.005000 0.005583
v -0.004309 -0.002000 0.005583
v -0.004215 -0.005000 0.005563
v -0.004215 -0.002000 0.005563
v -0.004124 -0.005000 0.005534
v -0.004124 -0.002000 0.005534
v -0.004035 -0.005000 0.005497
v -0.004035 -0.002000 0.005497
v -0.003950 -0.005000 0.005453
v -0.003950 -0.002000 0.005453
v -0.003869 -0.005000 0.005401
v -0.003869 -0.002000 0.005401
v -0.003793 -0.005000 0.005343
v -0.003793 -0.002000 0.005343
v -0.003722 -0.005000 0.005278
v -0.003722 -0.002000 0.005278
v -0.003657 -0.005000 0.005207
v -0.003657 -0.002000 0.005207
v -0.003599 -0.005000 0.005131
v -0.003599 -0.002000 0.005131
v -0.003547 -0.005000 0.005050
v -0.003547 -0.002000 0.005050
v -0.003503 -0.005000 0.004965
v -0.003503 -0.002000 0.004965
v -0.003466 -0.005000 0.004876
v -0.003466 -0.002000 0.004876
v -0.003437 -0.005000 0.004785
v -0.003437 -0.002000 0.004785
v -0.003417 -0.005000 0.004691
v -0.003417 -0.002000 0.004691
v -0.003404 -0.005000 0.004596
v -0.003404 -0.002000 0.004596
v -0.003400 -0.005000 0.004500
v -0.003400 -0.002000 0.004500
v -0.003404 -0.005000 0.004404
v -0.003404 -0.002000 0.004404
v -0.003417 -0.005000 0.004309
v -0.003417 -0.002000 0.004309
v -0.003437 -0.005000 0.004215
v -0.003437 -0.002000 0.004215
v -0.003466 -0.005000 0.004124
v -0.003466 -0.002000 0.004124
v -0.003503 -0.005000 0.004035
v -0.003503 -0.002000 0.004035
v -0.003547 -0.005000 0.003950
v -0.003547 -0.002000 0.003950
v -0.003599 -0.005000 0.003869
v -0.003599 -0.002000 0.003869
v -0.003657 -0.005000 0.003793
v -0.003657 -0.002000 0.003793
v -0.003722 -0.005000 0.003722
v -0.003722 -0.002000 0.003722
v -0.003793 -0.005000 0.003657
v -0.003793 -0.002000 0.003657
v -0.003869 -0.005000 0.003599
v -0.003869 -0.002000 0.003599
v -0.003950 -0.005000 0.003547
v -0.003950 -0.002000 0.003547
v -0.004035 -0.005000 0.003503
v -0.004035 -0.002000 0.003503
v -0.004124 -0.005000 0.003466
v -0.004124 -0.002000 0.003466
v -0.004215 -0.005000 0.003437
v -0.004215 -0.002000 0.003437
v -0.004309 -0.005000 0.003417
v -0.004309 -0.002000 0.003417
v -0.004404 -0.005000 0.003404
v -0.004404 -0.002000 0.003404
v -0.004500 -0.005000 0.003400
v -0.004500 -0.002000 0.003400
v -0.004596 -0.005000 0.003404
v -0.004596 -0.002000 0.003404
v -0.004691 -0.005000 0.003417
v -0.004691 -0.002000 0.003417
v -0.004785 -0.005000 0.003437
v -0.004785 -0.002000 0.003437
v -0.004876 -0.005000 0.003466
v -0.004876 -0.002000 0.003466
v -0.004965 -0.005000 0.003503
v -0.004965 -0.002000 0.003503
v -0.005050 -0.005000 0.003547
v -0.005050 -0.002000 0.003547
v -0.005131 -0.005000 0.003599
v -0.005131 -0.002000 0.003599
v -0.005207 -0.005000 0.003657
v -0.005207 -0.002000 0.003657
v -0.005278 -0.005000 0.003722
v -0.005278 -0.002000 0.003722
v -0.005343 -0.005000 0.003793
v -0.005343 -0.002000 0.003793
v -0.005401 -0.005000 0.003869
v -0.005401 -0.002000 0.003869
v -0.005453 -0.005000 0.003950
v -0.005453 -0.002000 0.003950
v -0.005497 -0.005000 0.004035
v -0.005497 -0.002000 0.004035
v -0.005534 -0.005000 0.004124
v -0.005534 -0.002000 0.004124
v -0.005563 -0.005000 0.004215
v -0.005563 -0.002000 0.004215
v -0.005583 -0.005000 0.004309
v -0.005583 -0.002000 0.004309
v -0.005596 -0.005000 0.004404
v -0.005596 -0.002000 0.004404
v -0.005600 -0.005000 0.004500
v -0.005600 -0.002000 0.004500
v -0.005596 -0.005000 0.004596
v -0.005596 -0.002000 0.004596
v -0.005583 -0.005000 0.004691
v -0.005583 -0.002000 0.004691
v -0.005563 -0.005000 0.004785
v -0.005563 -0.002000 0.004785
v -0.005534 -0.005000 0.004876
v -0.005534 -0.002000 0.004876
v -0.005497 -0.005000 0.004965
v -0.005497 -0.002000 0.004965
v -0.005453 -0.005000 0.005050
v -0.005453 -0.002000 0.005050
v -0.005401 -0.005000 0.005131
v -0.005401 -0.002000 0.005131
v -0.005343 -0.005000 0.005207
v -0.005343 -0.002000 0.005207
v -0.005278 -0.005000 0.005278
v -0.005278 -0.002000 0.005278
v -0.005207 -0.005000 0.005343
v -0.005207 -0.002000 0.005343
v -0.005131 -0.005000 0.005401
v -0.005131 -0.002000 0.005401
v -0.005050 -0.005000 0.005453
v -0.005050 -0.002000 0.005453
v -0.004965 -0.005000 0.005497
v -0.004965 -0.002000 0.005497
v -0.004876 -0.005000 0.005534
v -0.004876 -0.002000 0.005534
v -0.004785 -0.005000 0.005563
v -0.004785 -0.002000 0.005563
v -0.004691 -0.005000 0.005583
v -0.004691 -0.002000 0.005583
v -0.004596 -0.005000 0.005596
v -0.004596 -0.002000 0.005596
v 0.000959 -0.005000 0.010958
v 0.001910 -0.005000 0.010833
v 0.002847 -0.005000 0.010625
v 0.003762 -0.005000 0.010337
v 0.004649 -0.005000 0.009969
v 0.005500 -0.005000 0.009526
v 0.006309 -0.005000 0.009011
v 0.007071 -0.005000 0.008426
v 0.007778 -0.005000 0.007778
v 0.008426 -0.005000 0.007071
v 0.009011 -0.005000 0.006309
v 0.009526 -0.005000 0.005500
v 0.009969 -0.005000 0.004649
v 0.010337 -0.005000 0.003762
v 0.010625 -0.005000 0.002847
v 0.010833 -0.005000 0.001910
v 0.010958 -0.005000 0.000959
v 0.011000 -0.005000 0.000000
v 0.010958 -0.005000 -0.000959
v 0.010833 -0.005000 -0.001910
v 0.010625 -0.005000 -0.002847
v 0.010337 -0.005000 -0.003762
v 0.009969 -0.005000 -0.004649
v 0.009526 -0.005000 -0.005500
v 0.009011 -0.005000 -0.006309
v 0.008426 -0.005000 -0.007071
v 0.007778 -0.005000 -0.007778
v 0.007071 -0.005000 -0.008426
v 0.006309 -0.005000 -0.009011
v 0.005500 -0.005000 -0.009526
v 0.004649 -0.005000 -0.009969
v 0.003762 -0.005000 -0.010337
v 0.002847 -0.005000 -0.010625
v 0.001910 -0.005000 -0.010833
v 0.000959 -0.005000 -0.010958
v 0.000000 -0.005000 -0.011000
v -0.000959 -0.005000 -0.010958
v -0.001910 -0.005000 -0.010833
v -0.002847 -0.005000 -0.010625
v -0.003762 -0.005000 -0.010337
v -0.004649 -0.005000 -0.009969
v -0.005500 -0.005000 -0.009526
v -0.006309 -0.005000 -0.009011
v -0.007071 -0.005000 -0.008426
v -0.007778 -0.005000 -0.007778
v -0.008426 -0.005000 -0.007071
v -0.009011 -0.005000 -0.006309
v -0.009526 -0.005000 -0.005500
v -0.009969 -0.005000 -0.004649
v -0.010337 -0.005000 -0.003762
v -0.010625 -0.005000 -0.002847
v -0.010833 -0.005000 -0.001910
v -0.010958 -0.005000 -0.000959
v -0.011000 -0.005000 -0.000000
v -0.010958 -0.005000 0.000959
v -0.010833 -0.005000 0.001910
v -0.010625 -0.005000 0.002847
v -0.010337 -0.005000 0.003762
v -0.009969 -0.005000 0.004649
v -0.009526 -0.005000 0.005500
v -0.009011 -0.005000 0.006309
v -0.008426 -0.005000 0.007071
v -0.007778 -0.005000 0.007778
v -0.007071 -0.005000 0.008426
v -0.006309 -0.005000 0.009011
v -0.005500 -0.005000 0.009526
v -0.004649 -0.005000 0.009969
v -0.003762 -0.005000 0.010337
v -0.002847 -0.005000 0.010625
v -0.001910 -0.005000 0.010833
v -0.000959 -0.005000 0.010958
v 0.000000 -0.005000 0.011000
v 0.007000 -0.005000 0.001650
v 0.007000 -0.002000 0.001650
v 0.007144 -0.005000 0.001644
v 0.007144 -0.002000 0.001644
v 0.007287 -0.005000 0.001625
v 0.007287 -0.002000 0.001625
v 0.007427 -0.005000 0.001594
v 0.007427 -0.002000 0.001594
v 0.007564 -0.005000 0.001550
v 0.007564 -0.002000 0.001550
v 0.007697 -0.005000 0.001495
v 0.007697 -0.002000 0.001495
v 0.007825 -0.005000 0.001429
v 0.007825 -0.002000 0.001429
v 0.007946 -0.005000 0.001352
v 0.007946 -0.002000 0.001352
v 0.008061 -0.005000 0.001264
v 0.008061 -0.002000 0.001264
v 0.008167 -0.005000 0.001167
v 0.008167 -0.002000 0.001167
v 0.008264 -0.005000 0.001061
v 0.008264 -0.002000 0.001061
v 0.008352 -0.005000 0.000946
v 0.008352 -0.002000 0.000946
v 0.008429 -0.005000 0.000825
v 0.008429 -0.002000 0.000825
v 0.008495 -0.005000 0.000697
v 0.008495 -0.002000 0.000697
v 0.008550 -0.005000 0.000564
v 0.008550 -0.002000 0.000564
v 0.008594 -0.005000 0.000427
v 0.008594 -0.002000 0.000427
v 0.008625 -0.005000 0.000287
v 0.008625 -0.002000 0.000287
v 0.008644 -0.005000 0.000144
v 0.008644 -0.002000 0.000144
v 0.008650 -0.005000 0.000000
v 0.008650 -0.002000 0.000000
v 0.008644 -0.005000 -0.000144
v 0.008644 -0.002000 -0.000144
v 0.008625 -0.005000 -0.000287
v 0.008625 -0.002000 -0.000287
v 0.008594 -0.005000 -0.000427
v 0.008594 -0.002000 -0.000427
v 0.008550 -0.005000 -0.000564
v 0.008550 -0.002000 -0.000564
v 0.008495 -0.005000 -0.000697
v 0.008495 -0.002000 -0.000697
v 0.008429 -0.005000 -0.000825
v 0.008429 -0.002000 -0.000825
v 0.008352 -0.005000 -0.000946
v 0.008352 -0.002000 -0.000946
v 0.008264 -0.005000 -0.001061
v 0.008264 -0.002000 -0.001061
v 0.008167 -0.005000 -0.001167
v 0.008167 -0.002000 -0.001167
v 0.008061 -0.005000 -0.001264
v 0.008061 -0.002000 -0.001264
v 0.007946 -0.005000 -0.001352
v 0.007946 -0.002000 -0.001352
v 0.007825 -0.005000 -0.001429
v 0.007825 -0.002000 -0.001429
v 0.007697 -0.005000 -0.001495
v 0.007697 -0.002000 -0.001495
v 0.007564 -0.005000 -0.001550
v 0.007564 -0.002000 -0.001550
v 0.007427 -0.005000 -0.001594
v 0.007427 -0.002000 -0.001594
v 0.007287 -0.005000 -0.001625
v 0.007287 -0.002000 -0.001625
v 0.007144 -0.005000 -0.001644
v 0.007144 -0.002000 -0.001644
v 0.007000 -0.005000 -0.001650
v 0.007000 -0.002000 -0.001650
v 0.006856 -0.005000 -0.001644
v 0.006856 -0.002000 -0.001644
v 0.006713 -0.005000 -0.001625
v 0.006713 -0.002000 -0.001625
v 0.006573 -0.005000 -0.001594
v 0.006573 -0.002000 -0.001594
v 0.006436 -0.005000 -0.001550
v 0.006436 -0.002000 -0.001550
v 0.006303 -0.005000 -0.001495
v 0.006303 -0.002000 -0.001495
v 0.006175 -0.005000 -0.001429
v 0.006175 -0.002000 -0.001429
v 0.006054 -0.005000 -0.001352
v 0.006054 -0.002000 -0.001352
v 0.005939 -0.005000 -0.001264
v 0.005939 -0.002000 -0.001264
v 0.005833 -0.005000 -0.001167
v 0.005833 -0.002000 -0.001167
v 0.005736 -0.005000 -0.001061
v 0.005736 -0.002000 -0.001061
v 0.005648 -0.005000 -0.000946
v 0.005648 -0.002000 -0.000946
v 0.005571 -0.005000 -0.000825
v 0.005571 -0.002000 -0.000825
v 0.005505 -0.005000 -0.000697
v 0.005505 -0.002000 -0.000697
v 0.005450 -0.005000 -0.000564
v 0.005450 -0.002000 -0.000564
v 0.005406 -0.005000 -0.000427
v 0.005406 -0.002000 -0.000427
v 0.005375 -0.005000 -0.000287
v 0.005375 -0.002000 -0.000287
v 0.005356 -0.005000 -0.000144
v 0.005356 -0.002000 -0.000144
v 0.005350 -0.005000 -0.000000
v 0.005350 -0.002000 -0.000000
v 0.005356 -0.005000 0.000144
v 0.005356 -0.002000 0.000144
v 0.005375 -0.005000 0.000287
v 0.005375 -0.002000 0.000287
v 0.005406 -0.005000 0.000427
v 0.005406 -0.002000 0.000427
v 0.005450 -0.005000 0.000564
v 0.005450 -0.002000 0.000564
v 0.005505 -0.005000 0.000697
v 0.005505 -0.002000 0.000697
v 0.005571 -0.005000 0.000825
v 0.005571 -0.002000 0.000825
v 0.005648 -0.005000 0.000946
v 0.005648 -0.002000 0.000946
v 0.005736 -0.005000 0.001061
v 0.005736 -0.002000 0.001061
v 0.005833 -0.005000 0.001167
v 0.005833 -0.002000 0.001167
v 0.005939 -0.005000 0.001264
v 0.005939 -0.002000 0.001264
v 0.006054 -0.005000 0.001352
v 0.006054 -0.002000 0.001352
v 0.006175 -0.005000 0.001429
v 0.006175 -0.002000 0.001429
v 0.006303 -0.005000 0.001495
v 0.006303 -0.002000 0.001495
v 0.006436 -0.005000 0.001550
v 0.006436 -0.002000 0.001550
v 0.006573 -0.005000 0.001594
v 0.006573 -0.002000 0.001594
v 0.006713 -0.005000 0.001625
v 0.006713 -0.002000 0.001625
v 0.006856 -0.005000 0.001644
v 0.006856 -0.002000 0.001644
v -0.000000 -0.005000 -0.005350
v -0.000000 -0.002000 -0.005350
v 0.000144 -0.005000 -0.005356
v 0.000144 -0.002000 -0.005356
v 0.000287 -0.005000 -0.005375
v 0.000287 -0.002000 -0.005375
v 0.000427 -0.005000 -0.005406
v 0.000427 -0.002000 -0.005406
v 0.000564 -0.005000 -0.005450
v 0.000564 -0.002000 -0.005450
v 0.000697 -0.005000 -0.005505
v 0.000697 -0.002000 -0.005505
v 0.000825 -0.005000 -0.005571
v 0.000825 -0.002000 -0.005571
v 0.000946 -0.005000 -0.005648
v 0.000946 -0.002000 -0.005648
v 0.001061 -0.005000 -0.005736
v 0.001061 -0.002000 -0.005736
v 0.001167 -0.005000 -0.005833
v 0.001167 -0.002000 -0.005833
v 0.001264 -0.005000 -0.005939
v 0.001264 -0.002000 -0.005939
v 0.001352 -0.005000 -0.006054
v 0.001352 -0.002000 -0.006054
v 0.001429 -0.005000 -0.006175
v 0.001429 -0.002000 -0.006175
v 0.001495 -0.005000 -0.006303
v 0.001495 -0.002000 -0.006303
v 0.001550 -0.005000 -0.006436
v 0.001550 -0.002000 -0.006436
v 0.001594 -0.005000 -0.006573
v 0.001594 -0.002000 -0.006573
v 0.001625 -0.005000 -0.006713
v 0.001625 -0.002000 -0.006713
v 0.001644 -0.005000 -0.006856
v 0.001644 -0.002000 -0.006856
v 0.001650 -0.005000 -0.007000
v 0.001650 -0.002000 -0.007000
v 0.001644 -0.005000 -0.007144
v 0.001644 -0.002000 -0.007144
v 0.001625 -0.005000 -0.007287
v 0.001625 -0.002000 -0.007287
v 0.001594 -0.005000 -0.007427
v 0.001594 -0.002000 -0.007427
v 0.001550 -0.005000 -0.007564
v 0.001550 -0.002000 -0.007564
v 0.001495 -0.005000 -0.007697
v 0.001495 -0.002000 -0.007697
v 0.001429 -0.005000 -0.007825
v 0.001429 -0.002000 -0.007825
v 0.001352 -0.005000 -0.007946
v 0.001352 -0.002000 -0.007946
v 0.001264 -0.005000 -0.008061
v 0.001264 -0.002000 -0.008061
v 0.001167 -0.005000 -0.008167
v 0.001167 -0.002000 -0.008167
v 0.001061 -0.005000 -0.008264
v 0.001061 -0.002000 -0.008264
v 0.000946 -0.005000 -0.008352
v 0.000946 -0.002000 -0.008352
v 0.000825 -0.005000 -0.008429
v 0.000825 -0.002000 -0.008429
v 0.000697 -0.005000 -0.008495
v 0.000697 -0.002000 -0.008495
v 0.000564 -0.005000 -0.008550
v 0.000564 -0.002000 -0.008550
v 0.000427 -0.005000 -0.008594
v 0.000427 -0.002000 -0.008594
v 0.000287 -0.005000 -0.008625
v 0.000287 -0.002000 -0.008625
v 0.000144 -0.005000 -0.008644
v 0.000144 -0.002000 -0.008644
v 0.000000 -0.005000 -0.008650
v 0.000000 -0.002000 -0.008650
v -0.000144 -0.005000 -0.008644
v -0.000144 -0.002000 -0.008644
v -0.000287 -0.005000 -0.008625
v -0.000287 -0.002000 -0.008625
v -0.000427 -0.005000 -0.008594
v -0.000427 -0.002000 -0.008594
v -0.000564 -0.005000 -0.008550
v -0.000564 -0.002000 -0.008550
v -0.000697 -0.005000 -0.008495
v -0.000697 -0.002000 -0.008495
v -0.000825 -0.005000 -0.008429
v -0.000825 -0.002000 -0.008429
v -0.000946 -0.005000 -0.008352
v -0.000946 -0.002000 -0.008352
v -0.001061 -0.005000 -0.008264
v -0.001061 -0.002000 -0.008264
v -0.001167 -0.005000 -0.008167
v -0.001167 -0.002000 -0.008167
v -0.001264 -0.005000 -0.008061
v -0.001264 -0.002000 -0.008061
v -0.001352 -0.005000 -0.007946
v -0.001352 -0.002000 -0.007946
v -0.001429 -0.005000 -0.007825
v -0.001429 -0.002000 -0.007825
v -0.001495 -0.005000 -0.007697
v -0.001495 -0.002000 -0.007697
v -0.001550 -0.005000 -0.007564
v -0.001550 -0.002000 -0.007564
v -0.001594 -0.005000 -0.007427
v -0.001594 -0.002000 -0.007427
v -0.001625 -0.005000 -0.007287
v -0.001625 -0.002000 -0.007287
v -0.001644 -0.005000 -0.007144
v -0.001644 -0.002000 -0.007144
v -0.001650 -0.005000 -0.007000
v -0.001650 -0.002000 -0.007000
v -0.001644 -0.005000 -0.006856
v -0.001644 -0.002000 -0.006856
v -0.001625 -0.005000 -0.006713
v -0.001625 -0.002000 -0.006713
v -0.001594 -0.005000 -0.006573
v -0.001594 -0.002000 -0.006573
v -0.001550 -0.005000 -0.006436
v -0.001550 -0.002000 -0.006436
v -0.001495 -0.005000 -0.006303
v -0.001495 -0.002000 -0.006303
v -0.001429 -0.005000 -0.006175
v -0.001429 -0.002000 -0.006175
v -0.001352 -0.005000 -0.006054
v -0.001352 -0.002000 -0.006054
v -0.001264 -0.005000 -0.005939
v -0.001264 -0.002000 -0.005939
v -0.001167 -0.005000 -0.005833
v -0.001167 -0.002000 -0.005833
v -0.001061 -0.005000 -0.005736
v -0.001061 -0.002000 -0.005736
v -0.000946 -0.005000 -0.005648
v -0.000946 -0.002000 -0.005648
v -0.000825 -0.005000 -0.005571
v -0.000825 -0.002000 -0.005571
v -0.000697 -0.005000 -0.005505
v -0.000697 -0.002000 -0.005505
v -0.000564 -0.005000 -0.005450
v -0.000564 -0.002000 -0.005450
v -0.000427 -0.005000 -0.005406
v -0.000427 -0.002000 -0.005406
v -0.000287 -0.005000 -0.005375
v -0.000287 -0.002000 -0.005375
v -0.000144 -0.005000 -0.005356
v -0.000144 -0.002000 -0.005356
v 0.001758 -0.002000 0.009971
v 0.000000 -0.002000 0.010125
v 0.000882 -0.002000 0.010086
v -0.002526 -0.002000 0.009805
v -0.002525 -0.002000 0.002525
v 0.009805 -0.002000 0.002526
v -0.000882 -0.002000 0.010086
v -0.001758 -0.002000 0.009971
v 0.002621 -0.002000 0.009780
v 0.003463 -0.002000 0.009514
v 0.008294 -0.002000 0.005807
v 0.007756 -0.002000 0.006508
v 0.007159 -0.002000 0.007159
v 0.006508 -0.002000 0.007756
v 0.005807 -0.002000 0.008294
v 0.004279 -0.002000 0.009176
v 0.005063 -0.002000 0.008769
v 0.008769 -0.002000 0.005063
v 0.009176 -0.002000 0.004279
v 0.009514 -0.002000 0.003463
v 0.009780 -0.002000 0.002621
v -0.008294 -0.002000 0.005807
v -0.005063 -0.002000 0.008769
v -0.004279 -0.002000 0.009176
v -0.008769 -0.002000 0.005063
v -0.009514 -0.002000 0.003463
v -0.009176 -0.002000 0.004279
v -0.003463 -0.002000 0.009514
v -0.005807 -0.002000 0.008294
v -0.006508 -0.002000 0.007756
v -0.007159 -0.002000 0.007159
v -0.007756 -0.002000 0.006508
v -0.009780 -0.002000 0.002621
v -0.009805 -0.002000 0.002526
v -0.002621 -0.002000 0.009780
v -0.006054 -0.002000 -0.001352
v -0.005939 -0.002000 -0.001264
v -0.002526 -0.002000 -0.009805
v -0.005648 -0.002000 -0.000946
v -0.005571 -0.002000 -0.000825
v -0.005505 -0.002000 -0.000697
v -0.008352 -0.002000 0.000946
v -0.009971 -0.002000 0.001758
v -0.008264 -0.002000 0.001061
v -0.008167 -0.002000 0.001167
v -0.008061 -0.002000 0.001264
v -0.005833 -0.002000 -0.001167
v -0.005736 -0.002000 -0.001061
v -0.007144 -0.002000 0.001644
v -0.007287 -0.002000 0.001625
v -0.007427 -0.002000 0.001594
v -0.007564 -0.002000 0.001550
v -0.007697 -0.002000 0.001495
v -0.007825 -0.002000 0.001429
v -0.007946 -0.002000 0.001352
v -0.006573 -0.002000 -0.001594
v -0.006436 -0.002000 -0.001550
v -0.003463 -0.002000 -0.009514
v -0.005375 -0.002000 0.000287
v -0.005406 -0.002000 0.000427
v -0.005450 -0.002000 -0.000564
v -0.005406 -0.002000 -0.000427
v -0.005375 -0.002000 -0.000287
v -0.005356 -0.002000 -0.000144
v -0.005450 -0.002000 0.000564
v -0.005505 -0.002000 0.000697
v -0.005571 -0.002000 0.000825
v -0.005648 -0.002000 0.000946
v -0.005736 -0.002000 0.001061
v -0.005833 -0.002000 0.001167
v -0.008495 -0.002000 -0.000697
v -0.009971 -0.002000 -0.001758
v -0.008550 -0.002000 -0.000564
v -0.010086 -0.002000 -0.000882
v -0.008594 -0.002000 -0.000427
v -0.009176 -0.002000 -0.004279
v -0.009514 -0.002000 -0.003463
v -0.007946 -0.002000 -0.001352
v -0.005350 -0.002000 0.000000
v -0.005356 -0.002000 0.000144
v -0.008644 -0.002000 0.000144
v -0.010125 -0.002000 -0.000000
v -0.008625 -0.002000 0.000287
v -0.010086 -0.002000 0.000882
v -0.008594 -0.002000 0.000427
v -0.008429 -0.002000 -0.000825
v -0.008352 -0.002000 -0.000946
v -0.009780 -0.002000 -0.002621
v -0.007825 -0.002000 -0.001429
v -0.007697 -0.002000 -0.001495
v -0.008769 -0.002000 -0.005063
v -0.007564 -0.002000 -0.001550
v -0.008294 -0.002000 -0.005807
v -0.005939 -0.002000 0.001264
v -0.006054 -0.002000 0.001352
v -0.006175 -0.002000 0.001429
v -0.008429 -0.002000 0.000825
v -0.008495 -0.002000 0.000697
v -0.008550 -0.002000 0.000564
v -0.008650 -0.002000 -0.000000
v -0.008644 -0.002000 -0.000144
v -0.008625 -0.002000 -0.000287
v -0.008264 -0.002000 -0.001061
v -0.008167 -0.002000 -0.001167
v -0.008061 -0.002000 -0.001264
v -0.002621 -0.002000 -0.009780
v -0.006303 -0.002000 -0.001495
v -0.006175 -0.002000 -0.001429
v -0.006303 -0.002000 0.001495
v -0.006436 -0.002000 0.001550
v -0.006573 -0.002000 0.001594
v -0.006713 -0.002000 0.001625
v -0.006856 -0.002000 0.001644
v -0.007000 -0.002000 0.001650
v -0.007427 -0.002000 -0.001594
v -0.007287 -0.002000 -0.001625
v -0.007756 -0.002000 -0.006508
v -0.007144 -0.002000 -0.001644
v -0.007159 -0.002000 -0.007159
v -0.007000 -0.002000 -0.001650
v -0.006508 -0.002000 -0.007756
v -0.006856 -0.002000 -0.001644
v -0.005807 -0.002000 -0.008294
v -0.006713 -0.002000 -0.001625
v -0.005063 -0.002000 -0.008769
v -0.004279 -0.002000 -0.009176
v -0.000882 -0.002000 -0.010086
v -0.001758 -0.002000 -0.009971
v 0.009971 -0.002000 0.001758
v 0.000000 -0.002000 -0.010125
v 0.000882 -0.002000 -0.010086
v 0.010086 -0.002000 0.000882
v 0.001758 -0.002000 -0.009971
v 0.010086 -0.002000 -0.000882
v 0.009971 -0.002000 -0.001758
v 0.009514 -0.002000 -0.003463
v 0.009176 -0.002000 -0.004279
v 0.010125 -0.002000 0.000000
v 0.009780 -0.002000 -0.002621
v 0.003463 -0.002000 -0.009514
v 0.002621 -0.002000 -0.009780
v 0.004279 -0.002000 -0.009176
v 0.008294 -0.002000 -0.005807
v 0.007756 -0.002000 -0.006508
v 0.007159 -0.002000 -0.007159
v 0.006508 -0.002000 -0.007756
v 0.005807 -0.002000 -0.008294
v 0.005063 -0.002000 -0.008769
v 0.008769 -0.002000 -0.005063
v -0.007000 -0.005000 0.001650
v -0.006856 -0.005000 0.001644
v -0.006713 -0.005000 0.001625
v -0.006573 -0.005000 0.001594
v -0.006436 -0.005000 0.001550
v -0.006303 -0.005000 0.001495
v -0.006175 -0.005000 0.001429
v -0.006054 -0.005000 0.001352
v -0.005939 -0.005000 0.001264
v -0.005833 -0.005000 0.001167
v -0.005736 -0.005000 0.001061
v -0.005648 -0.005000 0.000946
v -0.005571 -0.005000 0.000825
v -0.005505 -0.005000 0.000697
v -0.005450 -0.005000 0.000564
v -0.005406 -0.005000 0.000427
v -0.005375 -0.005000 0.000287
v -0.005356 -0.005000 0.000144
v -0.005350 -0.005000 0.000000
v -0.005356 -0.005000 -0.000144
v -0.005375 -0.005000 -0.000287
v -0.005406 -0.005000 -0.000427
v -0.005450 -0.005000 -0.000564
v -0.005505 -0.005000 -0.000697
v -0.005571 -0.005000 -0.000825
v -0.005648 -0.005000 -0.000946
v -0.005736 -0.005000 -0.001061
v -0.005833 -0.005000 -0.001167
v -0.005939 -0.005000 -0.001264
v -0.006054 -0.005000 -0.001352
v -0.006175 -0.005000 -0.001429
v -0.006303 -0.005000 -0.001495
v -0.006436 -0.005000 -0.001550
v -0.006573 -0.005000 -0.001594
v -0.006713 -0.005000 -0.001625
v -0.006856 -0.005000 -0.001644
v -0.007000 -0.005000 -0.001650
v -0.007144 -0.005000 -0.001644
v -0.007287 -0.005000 -0.001625
v -0.007427 -0.005000 -0.001594
v -0.007564 -0.005000 -0.001550
v -0.007697 -0.005000 -0.001495
v -0.007825 -0.005000 -0.001429
v -0.007946 -0.005000 -0.001352
v -0.008061 -0.005000 -0.001264
v -0.008167 -0.005000 -0.001167
v -0.008264 -0.005000 -0.001061
v -0.008352 -0.005000 -0.000946
v -0.008429 -0.005000 -0.000825
v -0.008495 -0.005000 -0.000697
v -0.008550 -0.005000 -0.000564
v -0.008594 -0.005000 -0.000427
v -0.008625 -0.005000 -0.000287
v -0.008644 -0.005000 -0.000144
v -0.008650 -0.005000 -0.000000
v -0.008644 -0.005000 0.000144
v -0.008625 -0.005000 0.000287
v -0.008594 -0.005000 0.000427
v -0.008550 -0.005000 0.000564
v -0.008495 -0.005000 0.000697
v -0.008429 -0.005000 0.000825
v -0.008352 -0.005000 0.000946
v -0.008264 -0.005000 0.001061
v -0.008167 -0.005000 0.001167
v -0.008061 -0.005000 0.001264
v -0.007946 -0.005000 0.001352
v -0.007825 -0.005000 0.001429
v -0.007697 -0.005000 0.001495
v -0.007564 -0.005000 0.001550
v -0.007427 -0.005000 0.001594
v -0.007287 -0.005000 0.001625
v -0.007144 -0.005000 0.001644
v -0.003737 -0.005000 -0.001280
v -0.000760 -0.005000 -0.003876
v 0.002693 -0.005000 0.007125
v -0.007125 -0.005000 0.007125
v -0.004543 -0.005000 -0.002763
v -0.004543 -0.005000 0.002525
v -0.007125 -0.005000 -0.002763
v -0.007125 -0.005000 0.002525
v -0.002525 -0.005000 0.004613
v -0.002977 -0.005000 0.002596
v -0.004543 -0.005000 0.007125
v -0.002525 -0.005000 0.007125
v -0.007125 -0.005000 0.004613
v 0.002693 -0.005000 0.004613
v -0.002525 -0.005000 -0.004613
v 0.002693 -0.005000 -0.004613
v -0.004543 -0.005000 -0.004613
v -0.007125 -0.005000 -0.004613
v 0.004543 -0.005000 0.007125
v 0.004543 -0.005000 0.004613
v 0.004543 -0.005000 -0.002763
v 0.004543 -0.005000 0.002525
v 0.004543 -0.005000 -0.004613
v 0.002693 -0.005000 0.002525
v 0.000760 -0.005000 0.003876
v -0.002525 -0.005000 -0.002763
v 0.002693 -0.005000 -0.002763
v 0.002977 -0.005000 -0.002596
v 0.003737 -0.005000 0.001280
# 1192 vertices, 0 vertices normals

f 1 2 3
f 2 4 3
f 3 4 5
f 4 6 5
f 5 6 7
f 6 8 7
f 7 8 9
f 8 10 9
f 9 10 11
f 10 12 11
f 11 12 13
f 12 14 13
f 13 14 15
f 14 16 15
f 15 16 17
f 16 18 17
f 17 18 19
f 18 20 19
f 19 20 21
f 20 22 21
f 21 22 23
f 22 24 23
f 23 24 25
f 24 26 25
f 25 26 27
f 26 28 27
f 27 28 29
f 28 30 29
f 29 30 31
f 30 32 31
f 31 32 33
f 32 34 33
f 33 34 35
f 34 36 35
f 35 36 37
f 36 38 37
f 37 38 39
f 38 40 39
f 39 40 41
f 40 42 41
f 41 42 43
f 42 44 43
f 43 44 45
f 44 46 45
f 45 46 47
f 46 48 47
f 47 48 49
f 48 50 49
f 49 50 51
f 50 52 51
f 51 52 53
f 52 54 53
f 53 54 55
f 54 56 55
f 55 56 57
f 56 58 57
f 57 58 59
f 58 60 59
f 59 60 61
f 60 62 61
f 61 62 63
f 62 64 63
f 63 64 65
f 64 66 65
f 65 66 67
f 66 68 67
f 67 68 69
f 68 70 69
f 69 70 71
f 70 72 71
f 71 72 73
f 72 74 73
f 73 74 75
f 74 76 75
f 75 76 77
f 76 78 77
f 77 78 79
f 78 80 79
f 79 80 81
f 80 82 81
f 81 82 83
f 82 84 83
f 83 84 85
f 84 86 85
f 85 86 87
f 86 88 87
f 87 88 89
f 88 90 89
f 89 90 91
f 90 92 91
f 91 92 93
f 92 94 93
f 93 94 95
f 94 96 95
f 95 96 97
f 96 98 97
f 97 98 99
f 98 100 99
f 99 100 101
f 100 102 101
f 101 102 103
f 102 104 103
f 103 104 105
f 104 106 105
f 105 106 107
f 106 108 107
f 107 108 109
f 108 110 109
f 109 110 111
f 110 112 111
f 111 112 113
f 112 114 113
f 113 114 115
f 114 116 115
f 115 116 117
f 116 118 117
f 117 118 119
f 118 120 119
f 119 120 121
f 120 122 121
f 121 122 123
f 122 124 123
f 123 124 125
f 124 126 125
f 125 126 127
f 126 128 127
f 127 128 129
f 128 130 129
f 129 130 131
f 130 132 131
f 131 132 133
f 132 134 133
f 133 134 135
f 134 136 135
f 135 136 137
f 136 138 137
f 137 138 139
f 138 140 139
f 139 140 141
f 140 142 141
f 141 142 143
f 142 144 143
f 143 144 1
f 144 2 1
f 145 146 147
f 146 148 147
f 147 148 149
f 148 150 149
f 151 152 153
f 152 154 153
f 153 154 155
f 154 156 155
f 155 156 157
f 156 158 157
f 157 158 159
f 158 160 159
f 159 160 161
f 160 162 161
f 161 162 163
f 162 164 163
f 163 164 165
f 164 166 165
f 165 166 167
f 166 168 167
f 167 168 169
f 168 170 169
f 169 170 171
f 170 172 171
f 171 172 173
f 172 174 173
f 173 174 175
f 174 176 175
f 175 176 177
f 176 178 177
f 177 178 179
f 178 180 179
f 179 180 181
f 180 182 181
f 181 182 183
f 182 184 183
f 183 184 185
f 184 186 185
f 185 186 187
f 186 188 187
f 187 188 189
f 188 190 189
f 189 190 191
f 190 192 191
f 191 192 193
f 192 194 193
f 193 194 195
f 194 196 195
f 195 196 197
f 196 198 197
f 197 198 199
f 198 200 199
f 199 200 201
f 200 202 201
f 201 202 203
f 202 204 203
f 203 204 205
f 204 206 205
f 205 206 207
f 206 208 207
f 207 208 209
f 208 210 209
f 209 210 211
f 210 212 211
f 211 212 213
f 212 214 213
f 213 214 215
f 214 216 215
f 215 216 217
f 216 218 217
f 217 218 219
f 218 220 219
f 219 220 221
f 220 222 221
f 221 222 223
f 222 224 223
f 223 224 225
f 224 226 225
f 225 226 227
f 226 228 227
f 227 228 229
f 228 230 229
f 229 230 231
f 230 232 231
f 231 232 233
f 232 234 233
f 233 234 235
f 234 236 235
f 235 236 237
f 236 238 237
f 237 238 239
f 238 240 239
f 239 240 241
f 240 242 241
f 241 242 243
f 242 244 243
f 243 244 245
f 244 246 245
f 245 246 247
f 246 248 247
f 247 248 249
f 248 250 249
f 249 250 251
f 250 252 251
f 251 252 253
f 252 254 253
f 253 254 255
f 254 256 255
f 255 256 257
f 256 258 257
f 257 258 259
f 258 260 259
f 259 260 261
f 260 262 261
f 261 262 263
f 262 264 263
f 263 264 265
f 264 266 265
f 265 266 267
f 266 268 267
f 267 268 269
f 268 270 269
f 269 270 271
f 270 272 271
f 271 272 273
f 272 274 273
f 273 274 275
f 274 276 275
f 275 276 277
f 276 278 277
f 277 278 279
f 278 280 279
f 279 280 281
f 280 282 281
f 281 282 283
f 282 284 283
f 283 284 285
f 284 286 285
f 285 286 287
f 286 288 287
f 287 288 289
f 288 290 289
f 289 290 291
f 290 292 291
f 291 292 293
f 292 294 293
f 293 294 151
f 294 152 151
f 295 296 297
f 296 298 297
f 297 298 299
f 298 300 299
f 299 300 301
f 300 302 301
f 301 302 303
f 302 304 303
f 303 304 305
f 304 306 305
f 305 306 307
f 306 308 307
f 307 308 309
f 308 310 309
f 309 310 311
f 310 312 311
f 311 312 313
f 312 314 313
f 313 314 315
f 314 316 315
f 315 316 317
f 316 318 317
f 317 318 319
f 318 320 319
f 319 320 321
f 320 322 321
f 321 322 323
f 322 324 323
f 323 324 325
f 324 326 325
f 325 326 327
f 326 328 327
f 327 328 329
f 328 330 329
f 329 330 331
f 330 332 331
f 331 332 333
f 332 334 333
f 333 334 335
f 334 336 335
f 335 336 337
f 336 338 337
f 337 338 339
f 338 340 339
f 339 340 341
f 340 342 341
f 341 342 343
f 342 344 343
f 343 344 345
f 344 346 345
f 345 346 347
f 346 348 347
f 347 348 349
f 348 350 349
f 349 350 351
f 350 352 351
f 351 352 353
f 352 354 353
f 353 354 355
f 354 356 355
f 355 356 357
f 356 358 357
f 357 358 359
f 358 360 359
f 359 360 361
f 360 362 361
f 361 362 363
f 362 364 363
f 363 364 365
f 364 366 365
f 365 366 367
f 366 368 367
f 367 368 369
f 368 370 369
f 369 370 371
f 370 372 371
f 371 372 373
f 372 374 373
f 373 374 375
f 374 376 375
f 375 376 377
f 376 378 377
f 377 378 379
f 378 380 379
f 379 380 381
f 380 382 381
f 381 382 383
f 382 384 383
f 383 384 385
f 384 386 385
f 385 386 387
f 386 388 387
f 387 388 389
f 388 390 389
f 389 390 391
f 390 392 391
f 391 392 393
f 392 394 393
f 393 394 395
f 394 396 395
f 395 396 397
f 396 398 397
f 397 398 399
f 398 400 399
f 399 400 401
f 400 402 401
f 401 402 403
f 402 404 403
f 403 404 405
f 404 406 405
f 405 406 407
f 406 408 407
f 407 408 409
f 408 410 409
f 409 410 411
f 410 412 411
f 411 412 413
f 412 414 413
f 413 414 415
f 414 416 415
f 415 416 417
f 416 418 417
f 417 418 419
f 418 420 419
f 419 420 421
f 420 422 421
f 421 422 423
f 422 424 423
f 423 424 425
f 424 426 425
f 425 426 427
f 426 428 427
f 427 428 429
f 428 430 429
f 429 430 431
f 430 432 431
f 431 432 433
f 432 434 433
f 433 434 435
f 434 436 435
f 435 436 437
f 436 438 437
f 437 438 295
f 438 296 295
f 439 440 441
f 440 442 441
f 441 442 443
f 442 444 443
f 443 444 445
f 444 446 445
f 445 446 447
f 446 448 447
f 447 448 449
f 448 450 449
f 449 450 451
f 450 452 451
f 451 452 453
f 452 454 453
f 453 454 455
f 454 456 455
f 455 456 457
f 456 458 457
f 457 458 459
f 458 460 459
f 459 460 461
f 460 462 461
f 461 462 463
f 462 464 463
f 463 464 465
f 464 466 465
f 465 466 467
f 466 468 467
f 467 468 469
f 468 470 469
f 469 470 471
f 470 472 471
f 471 472 473
f 472 474 473
f 473 474 475
f 474 476 475
f 475 476 477
f 476 478 477
f 477 478 479
f 478 480 479
f 479 480 481
f 480 482 481
f 481 482 483
f 482 484 483
f 483 484 485
f 484 486 485
f 485 486 487
f 486 488 487
f 487 488 489
f 488 490 489
f 489 490 491
f 490 492 491
f 491 492 493
f 492 494 493
f 493 494 495
f 494 496 495
f 495 496 497
f 496 498 497
f 497 498 499
f 498 500 499
f 499 500 501
f 500 502 501
f 501 502 503
f 502 504 503
f 503 504 505
f 504 506 505
f 505 506 507
f 506 508 507
f 507 508 509
f 508 510 509
f 509 510 511
f 510 512 511
f 511 512 513
f 512 514 513
f 513 514 515
f 514 516 515
f 515 516 517
f 516 518 517
f 517 518 519
f 518 520 519
f 519 520 521
f 520 522 521
f 521 522 523
f 522 524 523
f 523 524 525
f 524 526 525
f 525 526 527
f 526 528 527
f 527 528 529
f 528 530 529
f 529 530 531
f 530 532 531
f 531 532 533
f 532 534 533
f 533 534 535
f 534 536 535
f 535 536 537
f 536 538 537
f 537 538 539
f 538 540 539
f 539 540 541
f 540 542 541
f 541 542 543
f 542 544 543
f 543 544 545
f 544 546 545
f 545 546 547
f 546 548 547
f 547 548 549
f 548 550 549
f 549 550 551
f 550 552 551
f 551 552 553
f 552 554 553
f 553 554 555
f 554 556 555
f 555 556 557
f 556 558 557
f 557 558 559
f 558 560 559
f 559 560 561
f 560 562 561
f 561 562 563
f 562 564 563
f 563 564 565
f 564 566 565
f 565 566 567
f 566 568 567
f 567 568 569
f 568 570 569
f 569 570 571
f 570 572 571
f 571 572 573
f 572 574 573
f 573 574 575
f 574 576 575
f 575 576 577
f 576 578 577
f 577 578 579
f 578 580 579
f 579 580 581
f 580 582 581
f 581 582 439
f 582 440 439
f 414 583 416
f 583 584 416
f 416 584 418
f 584 585 418
f 418 585 420
f 585 586 420
f 420 586 422
f 586 587 422
f 422 587 424
f 587 588 424
f 424 588 426
f 588 589 426
f 426 589 428
f 589 590 428
f 428 590 430
f 590 591 430
f 430 591 432
f 591 592 432
f 432 592 434
f 592 593 434
f 434 593 436
f 593 594 436
f 436 594 438
f 594 595 438
f 438 595 296
f 595 596 296
f 296 596 298
f 596 597 298
f 298 597 300
f 597 598 300
f 300 598 302
f 598 599 302
f 302 599 304
f 599 600 304
f 304 600 306
f 600 601 306
f 306 601 308
f 601 602 308
f 308 602 310
f 602 603 310
f 310 603 312
f 603 604 312
f 312 604 314
f 604 605 314
f 314 605 316
f 605 606 316
f 316 606 318
f 606 607 318
f 318 607 320
f 607 608 320
f 320 608 322
f 608 609 322
f 322 609 324
f 609 610 324
f 324 610 326
f 610 611 326
f 326 611 328
f 611 612 328
f 328 612 330
f 612 613 330
f 330 613 332
f 613 614 332
f 332 614 334
f 614 615 334
f 334 615 336
f 615 616 336
f 336 616 338
f 616 617 338
f 338 617 340
f 617 618 340
f 340 618 342
f 618 619 342
f 342 619 344
f 619 620 344
f 344 620 346
f 620 621 346
f 346 621 348
f 621 622 348
f 348 622 350
f 622 623 350
f 350 623 352
f 623 624 352
f 352 624 354
f 624 625 354
f 354 625 356
f 625 626 356
f 356 626 358
f 626 627 358
f 358 627 360
f 627 628 360
f 360 628 362
f 628 629 362
f 362 629 364
f 629 630 364
f 364 630 366
f 630 631 366
f 366 631 368
f 631 632 368
f 368 632 370
f 632 633 370
f 370 633 372
f 633 634 372
f 372 634 374
f 634 635 374
f 374 635 376
f 635 636 376
f 376 636 378
f 636 637 378
f 378 637 380
f 637 638 380
f 380 638 382
f 638 639 382
f 382 639 384
f 639 640 384
f 384 640 386
f 640 641 386
f 386 641 388
f 641 642 388
f 388 642 390
f 642 643 390
f 390 643 392
f 643 644 392
f 392 644 394
f 644 645 394
f 394 645 396
f 645 646 396
f 396 646 398
f 646 647 398
f 398 647 400
f 647 648 400
f 400 648 402
f 648 649 402
f 402 649 404
f 649 650 404
f 404 650 406
f 650 651 406
f 406 651 408
f 651 652 408
f 408 652 410
f 652 653 410
f 410 653 412
f 653 654 412
f 412 654 414
f 654 583 414
f 655 656 657
f 656 658 657
f 657 658 659
f 658 660 659
f 659 660 661
f 660 662 661
f 661 662 663
f 662 664 663
f 663 664 665
f 664 666 665
f 665 666 667
f 666 668 667
f 667 668 669
f 668 670 669
f 669 670 671
f 670 672 671
f 671 672 673
f 672 674 673
f 673 674 675
f 674 676 675
f 675 676 677
f 676 678 677
f 677 678 679
f 678 680 679
f 679 680 681
f 680 682 681
f 681 682 683
f 682 684 683
f 683 684 685
f 684 686 685
f 685 686 687
f 686 688 687
f 687 688 689
f 688 690 689
f 689 690 691
f 690 692 691
f 691 692 693
f 692 694 693
f 693 694 695
f 694 696 695
f 695 696 697
f 696 698 697
f 697 698 699
f 698 700 699
f 699 700 701
f 700 702 701
f 701 702 703
f 702 704 703
f 703 704 705
f 704 706 705
f 705 706 707
f 706 708 707
f 707 708 709
f 708 710 709
f 709 710 711
f 710 712 711
f 711 712 713
f 712 714 713
f 713 714 715
f 714 716 715
f 715 716 717
f 716 718 717
f 717 718 719
f 718 720 719
f 719 720 721
f 720 722 721
f 721 722 723
f 722 724 723
f 723 724 725
f 724 726 725
f 725 726 727
f 726 728 727
f 727 728 729
f 728 730 729
f 729 730 731
f 730 732 731
f 731 732 733
f 732 734 733
f 733 734 735
f 734 736 735
f 735 736 737
f 736 738 737
f 737 738 739
f 738 740 739
f 739 740 741
f 740 742 741
f 741 742 743
f 742 744 743
f 743 744 745
f 744 746 745
f 745 746 747
f 746 748 747
f 747 748 749
f 748 750 749
f 749 750 751
f 750 752 751
f 751 752 753
f 752 754 753
f 753 754 755
f 754 756 755
f 755 756 757
f 756 758 757
f 757 758 759
f 758 760 759
f 759 760 761
f 760 762 761
f 761 762 763
f 762 764 763
f 763 764 765
f 764 766 765
f 765 766 767
f 766 768 767
f 767 768 769
f 768 770 769
f 769 770 771
f 770 772 771
f 771 772 773
f 772 774 773
f 773 774 775
f 774 776 775
f 775 776 777
f 776 778 777
f 777 778 779
f 778 780 779
f 779 780 781
f 780 782 781
f 781 782 783
f 782 784 783
f 783 784 785
f 784 786 785
f 785 786 787
f 786 788 787
f 787 788 789
f 788 790 789
f 789 790 791
f 790 792 791
f 791 792 793
f 792 794 793
f 793 794 795
f 794 796 795
f 795 796 797
f 796 798 797
f 797 798 655
f 798 656 655
f 799 800 801
f 800 802 801
f 801 802 803
f 802 804 803
f 803 804 805
f 804 806 805
f 805 806 807
f 806 808 807
f 807 808 809
f 808 810 809
f 809 810 811
f 810 812 811
f 811 812 813
f 812 814 813
f 813 814 815
f 814 816 815
f 815 816 817
f 816 818 817
f 817 818 819
f 818 820 819
f 819 820 821
f 820 822 821
f 821 822 823
f 822 824 823
f 823 824 825
f 824 826 825
f 825 826 827
f 826 828 827
f 827 828 829
f 828 830 829
f 829 830 831
f 830 832 831
f 831 832 833
f 832 834 833
f 833 834 835
f 834 836 835
f 835 836 837
f 836 838 837
f 837 838 839
f 838 840 839
f 839 840 841
f 840 842 841
f 841 842 843
f 842 844 843
f 843 844 845
f 844 846 845
f 845 846 847
f 846 848 847
f 847 848 849
f 848 850 849
f 849 850 851
f 850 852 851
f 851 852 853
f 852 854 853
f 853 854 855
f 854 856 855
f 855 856 857
f 856 858 857
f 857 858 859
f 858 860 859
f 859 860 861
f 860 862 861
f 861 862 863
f 862 864 863
f 863 864 865
f 864 866 865
f 865 866 867
f 866 868 867
f 867 868 869
f 868 870 869
f 869 870 871
f 870 872 871
f 871 872 873
f 872 874 873
f 873 874 875
f 874 876 875
f 875 876 877
f 876 878 877
f 877 878 879
f 878 880 879
f 879 880 881
f 880 882 881
f 881 882 883
f 882 884 883
f 883 884 885
f 884 886 885
f 885 886 887
f 886 888 887
f 887 888 889
f 888 890 889
f 889 890 891
f 890 892 891
f 891 892 893
f 892 894 893
f 893 894 895
f 894 896 895
f 895 896 897
f 896 898 897
f 897 898 899
f 898 900 899
f 899 900 901
f 900 902 901
f 901 902 903
f 902 904 903
f 903 904 905
f 904 906 905
f 905 906 907
f 906 908 907
f 907 908 909
f 908 910 909
f 909 910 911
f 910 912 911
f 911 912 913
f 912 914 913
f 913 914 915
f 914 916 915
f 915 916 917
f 916 918 917
f 917 918 919
f 918 920 919
f 919 920 921
f 920 922 921
f 921 922 923
f 922 924 923
f 923 924 925
f 924 926 925
f 925 926 927
f 926 928 927
f 927 928 929
f 928 930 929
f 929 930 931
f 930 932 931
f 931 932 933
f 932 934 933
f 933 934 935
f 934 936 935
f 935 936 937
f 936 938 937
f 937 938 939
f 938 940 939
f 939 940 941
f 940 942 941
f 941 942 799
f 942 800 799
f 164 162 943
f 154 944 156
f 944 945 156
f 156 945 158
f 278 276 946
f 276 274 946
f 246 244 947
f 943 162 945
f 162 160 945
f 945 160 158
f 216 214 948
f 214 212 948
f 948 212 210
f 210 208 948
f 208 206 948
f 948 206 204
f 292 949 294
f 949 944 294
f 294 944 152
f 944 154 152
f 286 950 288
f 950 949 288
f 288 949 290
f 949 292 290
f 286 284 950
f 284 282 950
f 950 282 946
f 282 280 946
f 946 280 278
f 254 252 947
f 252 250 947
f 250 248 947
f 947 248 246
f 244 242 947
f 242 240 947
f 947 240 238
f 238 236 947
f 236 234 947
f 947 234 232
f 947 220 948
f 220 218 948
f 948 218 216
f 232 230 947
f 230 228 947
f 947 228 226
f 951 952 172
f 274 272 946
f 272 270 946
f 946 270 268
f 268 266 946
f 266 264 946
f 946 264 262
f 226 224 947
f 224 222 947
f 947 222 220
f 194 192 953
f 172 170 951
f 170 168 951
f 951 168 943
f 168 166 943
f 943 166 164
f 204 202 948
f 202 200 948
f 948 200 198
f 953 192 954
f 192 190 954
f 954 190 955
f 190 188 955
f 955 188 956
f 188 186 956
f 956 186 957
f 958 176 952
f 176 174 952
f 952 174 172
f 186 184 957
f 184 182 957
f 957 182 959
f 182 180 959
f 959 180 958
f 180 178 958
f 958 178 176
f 953 960 194
f 960 961 194
f 194 961 196
f 961 962 196
f 196 962 198
f 962 963 198
f 198 963 948
f 262 260 946
f 260 258 946
f 946 258 947
f 258 256 947
f 947 256 254
f 556 554 964
f 965 966 440
f 964 554 967
f 968 969 546
f 970 444 966
f 444 442 966
f 966 442 440
f 554 552 967
f 552 550 967
f 967 550 969
f 550 548 969
f 969 548 546
f 440 582 965
f 582 580 965
f 965 580 971
f 580 578 971
f 578 576 971
f 576 574 971
f 971 574 972
f 574 572 972
f 572 570 972
f 972 570 973
f 570 568 973
f 568 566 973
f 566 564 973
f 973 564 974
f 564 562 974
f 562 560 974
f 974 560 964
f 560 558 964
f 964 558 556
f 546 544 968
f 544 542 968
f 968 542 975
f 542 540 975
f 975 540 976
f 540 538 976
f 976 538 536
f 536 534 976
f 534 532 976
f 976 532 530
f 530 528 976
f 528 526 976
f 976 526 524
f 468 466 946
f 468 946 470
f 510 508 947
f 502 500 947
f 500 498 947
f 947 498 496
f 496 494 947
f 494 492 947
f 947 492 490
f 490 488 947
f 488 486 947
f 947 486 484
f 478 476 947
f 476 474 947
f 947 474 946
f 474 472 946
f 946 472 470
f 466 464 946
f 464 462 946
f 946 462 460
f 460 458 946
f 458 456 946
f 946 456 454
f 524 522 976
f 522 520 976
f 976 520 518
f 508 506 947
f 506 504 947
f 947 504 502
f 484 482 947
f 482 480 947
f 947 480 478
f 454 452 946
f 452 450 946
f 946 450 977
f 450 448 977
f 977 448 970
f 448 446 970
f 970 446 444
f 518 516 976
f 516 514 976
f 976 514 947
f 514 512 947
f 947 512 510
f 978 979 980
f 981 982 980
f 982 983 980
f 984 985 986
f 985 976 986
f 986 976 987
f 976 988 987
f 979 989 980
f 989 990 980
f 980 990 981
f 976 991 992
f 992 993 976
f 993 994 976
f 976 994 995
f 995 996 976
f 996 997 976
f 976 997 988
f 998 999 1000
f 947 1001 1002
f 983 1003 980
f 1003 1004 980
f 980 1004 947
f 1004 1005 947
f 947 1005 1006
f 1002 1007 947
f 1007 1008 947
f 947 1008 1009
f 1009 1010 947
f 1010 1011 947
f 947 1011 1012
f 1013 1014 1015
f 1014 1016 1015
f 1015 1016 1017
f 1018 1019 1020
f 1006 1021 947
f 1021 1022 947
f 947 1022 1001
f 1023 1024 1025
f 1024 1026 1025
f 1025 1026 1027
f 1013 1028 1014
f 1028 1029 1014
f 1014 1029 1030
f 1020 1031 1018
f 1031 1032 1018
f 1018 1032 1033
f 1032 1034 1033
f 1033 1034 1035
f 1012 1036 947
f 1036 1037 947
f 947 1037 1038
f 984 1039 985
f 1039 1040 985
f 985 1040 1026
f 1040 1041 1026
f 1026 1041 1027
f 1023 1042 1024
f 1042 1043 1024
f 1024 1043 1016
f 1043 1044 1016
f 1016 1044 1017
f 1029 1045 1030
f 1045 1046 1030
f 1030 1046 1019
f 1046 1047 1019
f 1019 1047 1020
f 1000 999 1048
f 999 1049 1048
f 1048 1049 980
f 1049 1050 980
f 980 1050 978
f 1038 1051 947
f 1051 1052 947
f 947 1052 1053
f 1053 1054 947
f 1054 1055 947
f 947 1055 976
f 1055 1056 976
f 976 1056 991
f 1034 1057 1035
f 1057 1058 1035
f 1035 1058 1059
f 1058 1060 1059
f 1059 1060 1061
f 1060 1062 1061
f 1061 1062 1063
f 1062 1064 1063
f 1063 1064 1065
f 1064 1066 1065
f 1065 1066 1067
f 1066 998 1067
f 1067 998 1068
f 998 1000 1068
f 796 794 947
f 676 674 948
f 880 1069 882
f 1069 1070 882
f 882 1070 884
f 788 786 947
f 786 784 947
f 942 940 947
f 940 938 947
f 938 936 947
f 936 934 947
f 947 934 932
f 796 947 798
f 947 948 798
f 798 948 656
f 758 756 800
f 980 888 1070
f 888 886 1070
f 1070 886 884
f 794 792 947
f 792 790 947
f 947 790 788
f 784 782 947
f 782 780 947
f 947 780 778
f 676 948 678
f 948 1071 678
f 678 1071 680
f 674 672 948
f 672 670 948
f 948 670 668
f 932 930 947
f 930 928 947
f 947 928 926
f 926 924 947
f 924 922 947
f 947 922 920
f 894 892 980
f 892 890 980
f 980 890 888
f 874 1072 876
f 1072 1069 876
f 876 1069 878
f 1069 880 878
f 868 1073 870
f 1073 1072 870
f 870 1072 872
f 1072 874 872
f 668 666 948
f 666 664 948
f 948 664 662
f 662 660 948
f 660 658 948
f 948 658 656
f 900 898 980
f 898 896 980
f 980 896 894
f 778 776 947
f 776 774 947
f 947 774 772
f 942 947 800
f 947 760 800
f 800 760 758
f 686 684 1074
f 920 918 947
f 918 916 947
f 947 916 914
f 772 770 947
f 770 768 947
f 947 768 766
f 766 764 947
f 764 762 947
f 947 762 760
f 868 866 1073
f 866 864 1073
f 1073 864 1075
f 864 862 1075
f 700 1076 702
f 1076 1077 702
f 702 1077 704
f 1074 684 1071
f 684 682 1071
f 1071 682 680
f 906 904 980
f 904 902 980
f 980 902 900
f 914 912 947
f 912 910 947
f 947 910 980
f 910 908 980
f 980 908 906
f 1078 1079 716
f 700 698 1076
f 698 696 1076
f 1076 696 1080
f 696 694 1080
f 694 692 1080
f 692 690 1080
f 1080 690 1074
f 690 688 1074
f 1074 688 686
f 754 804 756
f 804 802 756
f 756 802 800
f 1081 708 1077
f 708 706 1077
f 1077 706 704
f 1082 1083 854
f 814 750 748
f 716 714 1078
f 714 712 1078
f 1078 712 1081
f 712 710 1081
f 1081 710 708
f 862 860 1075
f 860 858 1075
f 1075 858 1083
f 858 856 1083
f 1083 856 854
f 814 812 750
f 812 810 750
f 750 810 808
f 854 852 1082
f 852 850 1082
f 1082 850 1084
f 754 752 804
f 752 750 804
f 804 750 806
f 750 808 806
f 832 1085 834
f 1085 1086 834
f 834 1086 836
f 1086 1087 836
f 836 1087 838
f 1087 1088 838
f 838 1088 840
f 1088 1089 840
f 730 728 1085
f 850 848 1084
f 848 846 1084
f 1084 846 1090
f 846 844 1090
f 1090 844 1089
f 844 842 1089
f 1089 842 840
f 830 828 742
f 828 826 742
f 742 826 824
f 824 822 742
f 822 820 742
f 742 820 744
f 830 742 832
f 742 740 832
f 832 740 738
f 738 736 832
f 736 734 832
f 832 734 1085
f 734 732 1085
f 1085 732 730
f 1085 722 1091
f 722 720 1091
f 1091 720 1079
f 720 718 1079
f 1079 718 716
f 744 820 746
f 820 818 746
f 746 818 748
f 818 816 748
f 748 816 814
f 728 726 1085
f 726 724 1085
f 1085 724 722
f 1092 1056 1093
f 1056 1055 1093
f 1093 1055 1094
f 1055 1054 1094
f 1094 1054 1095
f 1054 1053 1095
f 1095 1053 1096
f 1053 1052 1096
f 1096 1052 1097
f 1052 1051 1097
f 1097 1051 1098
f 1051 1038 1098
f 1098 1038 1099
f 1038 1037 1099
f 1099 1037 1100
f 1037 1036 1100
f 1100 1036 1101
f 1036 1012 1101
f 1101 1012 1102
f 1012 1011 1102
f 1102 1011 1103
f 1011 1010 1103
f 1103 1010 1104
f 1010 1009 1104
f 1104 1009 1105
f 1009 1008 1105
f 1105 1008 1106
f 1008 1007 1106
f 1106 1007 1107
f 1007 1002 1107
f 1107 1002 1108
f 1002 1001 1108
f 1108 1001 1109
f 1001 1022 1109
f 1109 1022 1110
f 1022 1021 1110
f 1110 1021 1111
f 1021 1006 1111
f 1111 1006 1112
f 1006 1005 1112
f 1112 1005 1113
f 1005 1004 1113
f 1113 1004 1114
f 1004 1003 1114
f 1114 1003 1115
f 1003 983 1115
f 1115 983 1116
f 983 982 1116
f 1116 982 1117
f 982 981 1117
f 1117 981 1118
f 981 990 1118
f 1118 990 1119
f 990 989 1119
f 1119 989 1120
f 989 979 1120
f 1120 979 1121
f 979 978 1121
f 1121 978 1122
f 978 1050 1122
f 1122 1050 1123
f 1050 1049 1123
f 1123 1049 1124
f 1049 999 1124
f 1124 999 1125
f 999 998 1125
f 1125 998 1126
f 998 1066 1126
f 1126 1066 1127
f 1066 1064 1127
f 1127 1064 1128
f 1064 1062 1128
f 1128 1062 1129
f 1062 1060 1129
f 1129 1060 1130
f 1060 1058 1130
f 1130 1058 1131
f 1058 1057 1131
f 1131 1057 1132
f 1057 1034 1132
f 1132 1034 1133
f 1034 1032 1133
f 1133 1032 1134
f 1032 1031 1134
f 1134 1031 1135
f 1031 1020 1135
f 1135 1020 1136
f 1020 1047 1136
f 1136 1047 1137
f 1047 1046 1137
f 1137 1046 1138
f 1046 1045 1138
f 1138 1045 1139
f 1045 1029 1139
f 1139 1029 1140
f 1029 1028 1140
f 1140 1028 1141
f 1028 1013 1141
f 1141 1013 1142
f 1013 1015 1142
f 1142 1015 1143
f 1015 1017 1143
f 1143 1017 1144
f 1017 1044 1144
f 1144 1044 1145
f 1044 1043 1145
f 1145 1043 1146
f 1043 1042 1146
f 1146 1042 1147
f 1042 1023 1147
f 1147 1023 1148
f 1023 1025 1148
f 1148 1025 1149
f 1025 1027 1149
f 1149 1027 1150
f 1027 1041 1150
f 1150 1041 1151
f 1041 1040 1151
f 1151 1040 1152
f 1040 1039 1152
f 1152 1039 1153
f 1039 984 1153
f 1153 984 1154
f 984 986 1154
f 1154 986 1155
f 986 987 1155
f 1155 987 1156
f 987 988 1156
f 1156 988 1157
f 988 997 1157
f 1157 997 1158
f 997 996 1158
f 1158 996 1159
f 996 995 1159
f 1159 995 1160
f 995 994 1160
f 1160 994 1161
f 994 993 1161
f 1161 993 1162
f 993 992 1162
f 1162 992 1163
f 992 991 1163
f 1163 991 1092
f 991 1056 1092
f 347 980 345
f 980 1070 345
f 345 1070 343
f 1070 1069 343
f 343 1069 341
f 1069 1072 341
f 341 1072 339
f 1072 1073 339
f 339 1073 337
f 1073 1075 337
f 337 1075 335
f 1075 1083 335
f 335 1083 333
f 1083 1082 333
f 333 1082 331
f 1082 1084 331
f 331 1084 329
f 1084 1090 329
f 329 1090 327
f 1090 1089 327
f 327 1089 325
f 1089 1088 325
f 325 1088 323
f 1088 1087 323
f 323 1087 321
f 1087 1086 321
f 321 1086 319
f 1086 1085 319
f 319 1085 317
f 1085 1091 317
f 317 1091 315
f 1091 1079 315
f 315 1079 313
f 1079 1078 313
f 313 1078 311
f 1078 1081 311
f 311 1081 309
f 1081 1077 309
f 309 1077 307
f 1077 1076 307
f 307 1076 305
f 1076 1080 305
f 305 1080 303
f 1080 1074 303
f 303 1074 301
f 383 976 381
f 976 985 381
f 381 985 379
f 985 1026 379
f 379 1026 377
f 1026 1024 377
f 377 1024 375
f 1024 1016 375
f 375 1016 373
f 1016 1014 373
f 373 1014 371
f 1014 1030 371
f 371 1030 369
f 1030 1019 369
f 369 1019 367
f 1019 1018 367
f 367 1018 365
f 1018 1033 365
f 365 1033 363
f 1033 1035 363
f 363 1035 361
f 1035 1059 361
f 361 1059 359
f 1059 1061 359
f 359 1061 357
f 1061 1063 357
f 357 1063 355
f 1063 1065 355
f 355 1065 353
f 1065 1067 353
f 353 1067 351
f 1067 1068 351
f 351 1068 349
f 1068 1000 349
f 349 1000 347
f 1000 1048 347
f 347 1048 980
f 409 946 407
f 946 977 407
f 407 977 405
f 977 970 405
f 405 970 403
f 970 966 403
f 403 966 401
f 966 965 401
f 401 965 399
f 965 971 399
f 399 971 397
f 971 972 397
f 397 972 395
f 972 973 395
f 395 973 393
f 973 974 393
f 393 974 391
f 974 964 391
f 391 964 389
f 964 967 389
f 389 967 387
f 967 969 387
f 387 969 385
f 969 968 385
f 385 968 383
f 968 975 383
f 383 975 976
f 1074 1071 301
f 1071 948 301
f 301 948 299
f 948 963 299
f 299 963 297
f 963 962 297
f 297 962 295
f 962 961 295
f 295 961 437
f 961 960 437
f 437 960 435
f 960 953 435
f 435 953 433
f 953 954 433
f 433 954 431
f 954 955 431
f 431 955 429
f 955 956 429
f 429 956 427
f 956 957 427
f 427 957 425
f 957 959 425
f 425 959 423
f 959 958 423
f 423 958 421
f 958 952 421
f 421 952 419
f 952 951 419
f 419 951 417
f 951 943 417
f 417 943 415
f 943 945 415
f 415 945 413
f 945 944 413
f 413 944 411
f 944 949 411
f 411 949 409
f 949 950 409
f 409 950 946
f 1164 1165 148
f 1165 150 148
f 586 585 1166
f 645 644 1167
f 1115 1116 1168
f 1112 1113 1168
f 1113 1114 1168
f 1168 1114 1115
f 1116 1117 1168
f 1117 1118 1168
f 1168 1118 1119
f 1107 1108 1169
f 1119 1120 1168
f 1120 1121 1168
f 1168 1121 1122
f 1102 1103 1169
f 1103 1104 1169
f 1122 1123 1168
f 1123 1124 1168
f 1168 1124 1170
f 1124 1125 1170
f 1170 1125 1126
f 1162 1163 1171
f 1163 1092 1171
f 1171 1092 1093
f 1099 1169 1098
f 1169 1097 1098
f 1099 1100 1169
f 1100 1101 1169
f 1169 1101 1102
f 1104 1105 1169
f 1105 1106 1169
f 1169 1106 1107
f 1126 1127 1170
f 1127 1128 1170
f 1170 1128 1129
f 1108 1109 1169
f 1109 1110 1169
f 1169 1110 1168
f 1110 1111 1168
f 1168 1111 1112
f 1093 1094 1171
f 1094 1095 1171
f 1171 1095 1169
f 1095 1096 1169
f 1169 1096 1097
f 1155 639 1154
f 639 1153 1154
f 1129 1130 1170
f 1130 1131 1170
f 1170 1131 1132
f 633 1133 1134
f 634 1141 1142
f 1153 639 1152
f 639 638 1152
f 1152 638 1151
f 634 1142 635
f 1155 1156 639
f 1156 1157 639
f 639 1157 1158
f 1134 1135 633
f 1135 1136 633
f 633 1136 1137
f 1137 1138 633
f 1138 1139 633
f 633 1139 634
f 1139 1140 634
f 634 1140 1141
f 1142 1143 635
f 1143 1144 635
f 635 1144 636
f 1144 1145 636
f 1159 1160 1171
f 1160 1161 1171
f 1171 1161 1162
f 1145 1146 636
f 1146 1147 636
f 636 1147 637
f 1147 1148 637
f 1148 1149 637
f 637 1149 638
f 1149 1150 638
f 638 1150 1151
f 1172 475 477
f 497 499 1173
f 499 501 1173
f 485 487 1173
f 487 489 1173
f 1173 489 491
f 491 493 1173
f 493 495 1173
f 1173 495 497
f 503 505 1169
f 505 507 1169
f 1169 507 509
f 477 479 1172
f 479 481 1172
f 1172 481 483
f 469 471 1172
f 471 473 1172
f 1172 473 475
f 441 443 1174
f 443 445 1174
f 1174 445 1175
f 445 447 1175
f 1175 447 449
f 449 451 1175
f 451 453 1175
f 1175 453 455
f 455 457 1175
f 457 459 1175
f 1175 459 461
f 461 463 1175
f 463 465 1175
f 1175 465 1172
f 465 467 1172
f 1172 467 469
f 1176 549 551
f 577 579 1174
f 557 1167 555
f 1167 1176 555
f 555 1176 553
f 1176 551 553
f 579 581 1174
f 581 439 1174
f 1174 439 441
f 557 559 1167
f 559 561 1167
f 1167 561 563
f 563 565 1167
f 565 567 1167
f 1167 567 569
f 569 571 1167
f 571 573 1167
f 1167 573 1174
f 573 575 1174
f 1174 575 577
f 543 545 1176
f 545 547 1176
f 1176 547 549
f 509 511 1169
f 511 513 1169
f 1169 513 515
f 515 517 1169
f 517 519 1169
f 1169 519 1171
f 519 521 1171
f 1171 521 523
f 523 525 1171
f 525 527 1171
f 1171 527 529
f 529 531 1171
f 531 533 1171
f 1171 533 535
f 535 537 1171
f 537 539 1171
f 1171 539 1176
f 539 541 1176
f 1176 541 543
f 199 201 1177
f 235 237 1172
f 247 1172 245
f 1172 243 245
f 199 1177 197
f 201 203 1177
f 203 205 1177
f 1177 205 207
f 207 209 1177
f 209 211 1177
f 1177 211 213
f 237 239 1172
f 239 241 1172
f 1172 241 243
f 1166 187 189
f 213 215 1177
f 215 217 1177
f 1177 217 219
f 227 229 1172
f 247 249 1172
f 249 251 1172
f 1172 251 1175
f 251 253 1175
f 1175 253 255
f 229 231 1172
f 231 233 1172
f 1172 233 235
f 189 191 1166
f 191 193 1166
f 1166 193 1177
f 193 195 1177
f 1177 195 197
f 255 257 1175
f 257 259 1175
f 1175 259 261
f 219 221 1177
f 221 223 1177
f 1177 223 1172
f 223 225 1172
f 1172 225 227
f 584 161 163
f 584 163 585
f 163 165 585
f 585 165 167
f 181 183 1166
f 183 185 1166
f 1166 185 187
f 651 269 271
f 167 169 585
f 169 171 585
f 585 171 173
f 261 263 1175
f 263 265 1175
f 1175 265 267
f 271 273 651
f 273 275 651
f 651 275 277
f 277 279 651
f 279 281 651
f 651 281 652
f 281 283 652
f 283 285 652
f 285 287 652
f 652 287 653
f 287 289 653
f 289 291 653
f 653 291 654
f 291 293 654
f 293 151 654
f 151 153 654
f 654 153 583
f 153 155 583
f 155 157 583
f 583 157 584
f 157 159 584
f 584 159 161
f 173 175 585
f 175 177 585
f 585 177 1166
f 177 179 1166
f 1166 179 181
f 618 871 873
f 618 873 619
f 617 867 618
f 867 869 618
f 618 869 871
f 873 875 619
f 875 877 619
f 619 877 620
f 877 879 620
f 931 933 1178
f 933 935 1178
f 801 803 1179
f 859 616 857
f 616 615 857
f 857 615 855
f 859 861 616
f 861 863 616
f 616 863 617
f 863 865 617
f 617 865 867
f 879 881 620
f 881 883 620
f 620 883 621
f 883 885 621
f 621 885 887
f 919 921 1178
f 921 923 1178
f 1178 923 925
f 935 937 1178
f 937 939 1178
f 1178 939 941
f 887 889 621
f 889 891 621
f 621 891 893
f 925 927 1178
f 927 929 1178
f 1178 929 931
f 801 1179 799
f 893 895 621
f 895 897 621
f 621 897 899
f 829 831 1179
f 907 909 1178
f 909 911 1178
f 1178 911 913
f 1179 809 811
f 849 851 615
f 851 853 615
f 615 853 855
f 913 915 1178
f 915 917 1178
f 1178 917 919
f 803 805 1179
f 805 807 1179
f 1179 807 809
f 811 813 1179
f 813 815 1179
f 1179 815 817
f 817 819 1179
f 819 821 1179
f 1179 821 823
f 839 841 615
f 841 843 615
f 899 901 621
f 901 903 621
f 621 903 905
f 823 825 1179
f 825 827 1179
f 1179 827 829
f 843 845 615
f 845 847 615
f 615 847 849
f 831 833 1179
f 833 835 1179
f 1179 835 615
f 835 837 615
f 615 837 839
f 905 907 621
f 907 1178 621
f 621 1178 622
f 1178 1180 622
f 1181 626 1180
f 626 625 1180
f 625 624 1180
f 624 623 1180
f 1180 623 622
f 632 631 1181
f 631 630 1181
f 1181 630 629
f 629 628 1181
f 628 627 1181
f 1181 627 626
f 632 1170 633
f 1170 1132 633
f 633 1132 1133
f 1158 1159 639
f 1159 1171 639
f 639 1171 640
f 1171 1176 640
f 640 1176 641
f 1176 642 641
f 1167 644 1176
f 644 643 1176
f 1176 643 642
f 649 648 1174
f 648 647 1174
f 1174 647 1167
f 647 646 1167
f 1167 646 645
f 649 1174 650
f 1174 1175 650
f 650 1175 651
f 1175 267 651
f 651 267 269
f 1182 591 590
f 590 589 1182
f 589 588 1182
f 1182 588 587
f 595 594 1183
f 594 593 1183
f 1183 593 1182
f 593 592 1182
f 1182 592 591
f 1184 749 751
f 775 777 1185
f 751 753 1184
f 753 755 1184
f 1184 755 757
f 667 669 597
f 669 671 597
f 597 671 673
f 679 598 677
f 598 597 677
f 677 597 675
f 597 673 675
f 699 602 697
f 602 601 697
f 725 727 1184
f 727 729 1184
f 1184 741 743
f 765 767 1185
f 767 769 1185
f 777 779 1185
f 779 781 1185
f 1185 781 783
f 679 681 598
f 681 683 598
f 598 683 599
f 713 715 603
f 715 717 603
f 729 731 1184
f 731 733 1184
f 1184 733 735
f 743 745 1184
f 745 747 1184
f 1184 747 749
f 769 771 1185
f 771 773 1185
f 1185 773 775
f 783 785 1185
f 785 787 1185
f 1185 787 789
f 795 797 1185
f 797 655 1185
f 661 597 659
f 597 657 659
f 661 663 597
f 663 665 597
f 597 665 667
f 683 685 599
f 685 687 599
f 599 687 600
f 687 689 600
f 699 701 602
f 701 703 602
f 602 703 603
f 703 705 603
f 603 705 707
f 717 719 603
f 719 721 603
f 603 721 723
f 735 737 1184
f 737 739 1184
f 1184 739 741
f 757 759 1184
f 759 761 1184
f 1184 761 763
f 789 791 1185
f 791 793 1185
f 1185 793 795
f 595 1183 596
f 1183 1185 596
f 596 1185 597
f 1185 655 597
f 597 655 657
f 689 691 600
f 691 693 600
f 600 693 601
f 693 695 601
f 601 695 697
f 707 709 603
f 709 711 603
f 603 711 713
f 723 725 603
f 725 1184 603
f 603 1184 604
f 1184 1186 604
f 604 1186 605
f 614 613 1186
f 613 612 1186
f 1186 612 611
f 611 610 1186
f 610 609 1186
f 1186 609 608
f 608 607 1186
f 607 606 1186
f 1186 606 605
f 1187 1177 1188
f 1177 1172 1188
f 1188 1172 1173
f 1172 483 1173
f 1173 483 485
f 501 503 1173
f 503 1169 1173
f 1173 1169 1164
f 1169 1168 1164
f 1164 1168 1189
f 941 799 1178
f 799 1179 1178
f 1178 1179 1165
f 1179 1190 1165
f 1165 1190 1191
f 1192 1184 1185
f 1184 763 1185
f 1185 763 765
f 587 586 1182
f 586 1166 1182
f 1182 1166 1183
f 1166 1177 1183
f 1183 1177 1185
f 1177 1187 1185
f 1185 1187 1192
f 1187 1188 1192
f 1192 1191 1184
f 1191 1190 1184
f 1184 1190 1186
f 1190 1179 1186
f 1186 1179 614
f 1179 615 614
f 632 1181 1170
f 1181 1180 1170
f 1170 1180 1168
f 1180 1178 1168
f 1168 1178 1189
f 1178 1165 1189
f 1189 1165 1164
f 1192 1188 147
f 1188 145 147
f 1191 1192 149
f 1192 147 149
f 79 81 150
f 99 101 150
f 101 103 150
f 111 113 149
f 1165 73 75
f 103 105 150
f 105 107 150
f 150 107 149
f 107 109 149
f 149 109 111
f 1165 75 150
f 75 77 150
f 150 77 79
f 81 83 150
f 83 85 150
f 150 85 87
f 87 89 150
f 89 91 150
f 150 91 93
f 93 95 150
f 95 97 150
f 150 97 99
f 113 115 149
f 115 117 149
f 149 117 119
f 9 11 1191
f 11 13 1191
f 13 15 1191
f 15 17 1191
f 1191 17 19
f 31 33 1191
f 33 35 1191
f 1191 35 1165
f 35 37 1165
f 1165 37 39
f 39 41 1165
f 41 43 1165
f 1165 43 45
f 19 21 1191
f 21 23 1191
f 1191 23 25
f 25 27 1191
f 27 29 1191
f 1191 29 31
f 119 121 149
f 121 123 149
f 149 123 125
f 149 143 1191
f 143 1 1191
f 1191 1 3
f 45 47 1165
f 47 49 1165
f 1165 49 51
f 67 1165 65
f 1165 63 65
f 67 69 1165
f 69 71 1165
f 1165 71 73
f 125 127 149
f 127 129 149
f 149 129 131
f 3 5 1191
f 5 7 1191
f 1191 7 9
f 51 53 1165
f 53 55 1165
f 1165 55 57
f 57 59 1165
f 59 61 1165
f 1165 61 63
f 131 133 149
f 133 135 149
f 149 135 137
f 137 139 149
f 139 141 149
f 149 141 143
f 1173 1164 146
f 1164 148 146
f 116 114 145
f 106 104 146
f 104 102 146
f 146 102 100
f 114 112 145
f 112 110 145
f 145 110 146
f 110 108 146
f 146 108 106
f 142 145 144
f 145 1188 144
f 145 130 128
f 88 86 146
f 30 1188 32
f 1188 34 32
f 142 140 145
f 140 138 145
f 145 138 136
f 128 126 145
f 126 124 145
f 145 124 122
f 122 120 145
f 120 118 145
f 145 118 116
f 86 84 146
f 84 82 146
f 146 82 80
f 80 78 146
f 78 76 146
f 146 76 1173
f 76 74 1173
f 1173 74 72
f 136 134 145
f 134 132 145
f 145 132 130
f 100 98 146
f 98 96 146
f 146 96 94
f 48 46 1173
f 46 44 1173
f 1173 44 42
f 42 40 1173
f 40 38 1173
f 1173 38 1188
f 38 36 1188
f 1188 36 34
f 30 28 1188
f 28 26 1188
f 1188 26 24
f 24 22 1188
f 22 20 1188
f 1188 20 18
f 18 16 1188
f 16 14 1188
f 1188 14 12
f 6 4 1188
f 4 2 1188
f 1188 2 144
f 94 92 146
f 92 90 146
f 146 90 88
f 72 70 1173
f 70 68 1173
f 1173 68 66
f 66 64 1173
f 64 62 1173
f 1173 62 60
f 60 58 1173
f 58 56 1173
f 1173 56 54
f 54 52 1173
f 52 50 1173
f 1173 50 48
f 12 10 1188
f 10 8 1188
f 1188 8 6
# 2404 faces, 0 coords texture

# End of File
