####
#
# OBJ File Generated by Meshlab
#
####
# Object shaft_10mm.obj
#
# Vertices: 1566
# Faces: 3152
#
####
v 0.000453 -0.003096 -0.003605
v 0.000464 -0.003191 -0.003600
v 0.001058 -0.003144 -0.004907
v 0.000483 -0.003285 -0.003591
v 0.001075 -0.003238 -0.004904
v 0.001065 -0.003191 -0.004906
v 0.000509 -0.003376 -0.003579
v 0.001099 -0.003331 -0.004898
v 0.001086 -0.003285 -0.004901
v 0.000543 -0.003465 -0.003564
v 0.001132 -0.003421 -0.004891
v 0.001115 -0.003376 -0.004895
v 0.000630 -0.003631 -0.003524
v 0.001195 -0.003550 -0.004876
v 0.000583 -0.003550 -0.003545
v 0.001172 -0.003508 -0.004881
v 0.001151 -0.003465 -0.004886
v 0.001303 -0.003707 -0.004848
v 0.001299 -0.003702 -0.004849
v 0.001246 -0.003631 -0.004863
v 0.000949 -0.003953 -0.003377
v 0.001509 -0.003901 -0.004788
v 0.000875 -0.003901 -0.003411
v 0.001435 -0.003843 -0.004810
v 0.000806 -0.003843 -0.003442
v 0.001367 -0.003778 -0.004830
v 0.000742 -0.003778 -0.003472
v 0.000683 -0.003707 -0.003499
v 0.001026 -0.003997 -0.003341
v 0.001627 -0.003976 -0.004749
v 0.001586 -0.003953 -0.004763
v 0.001106 -0.004034 -0.003304
v 0.001717 -0.004020 -0.004717
v 0.001667 -0.003997 -0.004735
v 0.001190 -0.004063 -0.003266
v 0.001794 -0.004049 -0.004689
v 0.001751 -0.004034 -0.004705
v 0.001275 -0.004083 -0.003227
v 0.001880 -0.004074 -0.004655
v 0.001837 -0.004063 -0.004672
v 0.001361 -0.004096 -0.003187
v 0.001967 -0.004091 -0.004618
v 0.001924 -0.004083 -0.004637
v 0.001448 -0.004100 -0.003147
v 0.002055 -0.004099 -0.004580
v 0.002011 -0.004096 -0.004599
v 0.001535 -0.004096 -0.003107
v 0.002122 -0.004100 -0.004550
v 0.002099 -0.004100 -0.004560
v 0.001622 -0.004083 -0.003067
v 0.002228 -0.004091 -0.004498
v 0.002185 -0.004096 -0.004519
v 0.001707 -0.004063 -0.003028
v 0.002313 -0.004074 -0.004456
v 0.002271 -0.004083 -0.004477
v 0.001790 -0.004034 -0.002990
v 0.002395 -0.004049 -0.004412
v 0.002354 -0.004063 -0.004434
v 0.001871 -0.003997 -0.002952
v 0.002510 -0.003998 -0.004347
v 0.002435 -0.004034 -0.004390
v 0.002214 -0.003707 -0.002795
v 0.002780 -0.003778 -0.004180
v 0.002155 -0.003778 -0.002822
v 0.002720 -0.003843 -0.004219
v 0.002091 -0.003843 -0.002851
v 0.002655 -0.003901 -0.004260
v 0.002021 -0.003901 -0.002883
v 0.002586 -0.003953 -0.004303
v 0.001948 -0.003953 -0.002917
v 0.002549 -0.003976 -0.004324
v 0.002512 -0.003997 -0.004346
v 0.002883 -0.003631 -0.004109
v 0.002880 -0.003637 -0.004112
v 0.002834 -0.003707 -0.004143
v 0.002267 -0.003631 -0.002770
v 0.002314 -0.003550 -0.002749
v 0.002926 -0.003550 -0.004079
v 0.002354 -0.003465 -0.002730
v 0.002963 -0.003465 -0.004053
v 0.002945 -0.003508 -0.004065
v 0.002387 -0.003376 -0.002715
v 0.002413 -0.003285 -0.002703
v 0.003016 -0.003285 -0.004013
v 0.003005 -0.003331 -0.004021
v 0.002993 -0.003376 -0.004030
v 0.002978 -0.003421 -0.004041
v 0.002432 -0.003191 -0.002694
v 0.002444 -0.003096 -0.002689
v 0.003044 -0.003096 -0.003992
v 0.003039 -0.003144 -0.003995
v 0.003033 -0.003191 -0.004000
v 0.003026 -0.003238 -0.004006
v 0.002444 -0.002904 -0.002689
v 0.003046 -0.002952 -0.003990
v 0.002447 -0.003000 -0.002687
v 0.003047 -0.003000 -0.003990
v 0.003046 -0.003048 -0.003990
v 0.002432 -0.002809 -0.002694
v 0.003039 -0.002857 -0.003995
v 0.003044 -0.002904 -0.003992
v 0.002413 -0.002715 -0.002703
v 0.003026 -0.002762 -0.004006
v 0.003033 -0.002809 -0.004000
v 0.002387 -0.002624 -0.002715
v 0.003005 -0.002669 -0.004021
v 0.003016 -0.002715 -0.004013
v 0.002354 -0.002535 -0.002730
v 0.002978 -0.002579 -0.004041
v 0.002993 -0.002624 -0.004030
v 0.002267 -0.002369 -0.002770
v 0.002926 -0.002450 -0.004079
v 0.002314 -0.002450 -0.002749
v 0.002945 -0.002492 -0.004065
v 0.002963 -0.002535 -0.004053
v 0.001948 -0.002047 -0.002917
v 0.002655 -0.002099 -0.004260
v 0.002021 -0.002099 -0.002883
v 0.002720 -0.002157 -0.004219
v 0.002091 -0.002157 -0.002851
v 0.002780 -0.002222 -0.004180
v 0.002155 -0.002222 -0.002822
v 0.002834 -0.002293 -0.004143
v 0.002214 -0.002293 -0.002795
v 0.002880 -0.002363 -0.004112
v 0.002883 -0.002369 -0.004109
v 0.001871 -0.002003 -0.002952
v 0.002549 -0.002024 -0.004324
v 0.002586 -0.002047 -0.004303
v 0.001790 -0.001966 -0.002990
v 0.002510 -0.002002 -0.004347
v 0.002512 -0.002003 -0.004346
v 0.001707 -0.001937 -0.003028
v 0.002395 -0.001951 -0.004412
v 0.002435 -0.001966 -0.004390
v 0.001622 -0.001917 -0.003067
v 0.002313 -0.001926 -0.004456
v 0.002354 -0.001937 -0.004434
v 0.001535 -0.001904 -0.003107
v 0.002228 -0.001909 -0.004498
v 0.002271 -0.001917 -0.004477
v 0.001448 -0.001900 -0.003147
v 0.002122 -0.001900 -0.004550
v 0.002185 -0.001904 -0.004519
v 0.001361 -0.001904 -0.003187
v 0.002055 -0.001901 -0.004580
v 0.002099 -0.001900 -0.004560
v 0.001275 -0.001917 -0.003227
v 0.001967 -0.001909 -0.004618
v 0.002011 -0.001904 -0.004599
v 0.001190 -0.001937 -0.003266
v 0.001880 -0.001926 -0.004655
v 0.001924 -0.001917 -0.004637
v 0.001106 -0.001966 -0.003304
v 0.001794 -0.001951 -0.004689
v 0.001837 -0.001937 -0.004672
v 0.001026 -0.002003 -0.003341
v 0.001717 -0.001980 -0.004717
v 0.001751 -0.001966 -0.004705
v 0.000683 -0.002293 -0.003499
v 0.001367 -0.002222 -0.004830
v 0.000742 -0.002222 -0.003472
v 0.001435 -0.002157 -0.004810
v 0.000806 -0.002157 -0.003442
v 0.001509 -0.002099 -0.004788
v 0.000875 -0.002099 -0.003411
v 0.001586 -0.002047 -0.004763
v 0.000949 -0.002047 -0.003377
v 0.001627 -0.002024 -0.004749
v 0.001667 -0.002003 -0.004735
v 0.001246 -0.002369 -0.004863
v 0.001299 -0.002298 -0.004849
v 0.001303 -0.002293 -0.004848
v 0.000630 -0.002369 -0.003524
v 0.000583 -0.002450 -0.003545
v 0.001195 -0.002450 -0.004876
v 0.000543 -0.002535 -0.003564
v 0.001151 -0.002535 -0.004886
v 0.001172 -0.002492 -0.004881
v 0.000509 -0.002624 -0.003579
v 0.000483 -0.002715 -0.003591
v 0.001086 -0.002715 -0.004901
v 0.001099 -0.002669 -0.004898
v 0.001115 -0.002624 -0.004895
v 0.001132 -0.002579 -0.004891
v 0.000464 -0.002809 -0.003600
v 0.000453 -0.002904 -0.003605
v 0.001053 -0.002904 -0.004908
v 0.001058 -0.002856 -0.004907
v 0.001065 -0.002809 -0.004906
v 0.001075 -0.002762 -0.004904
v 0.001053 -0.003096 -0.004908
v 0.001049 -0.003048 -0.004909
v 0.000449 -0.003000 -0.003607
v 0.001048 -0.003000 -0.004909
v 0.001049 -0.002952 -0.004909
v 0.003634 -0.010000 0.001672
v 0.003265 -0.010000 -0.002311
v 0.000369 -0.010000 0.003983
v -0.000369 -0.010000 -0.003983
v -0.003265 -0.010000 0.002311
v -0.003634 -0.010000 -0.001672
v -0.003634 0.000000 -0.001672
v -0.000369 0.000000 -0.003983
v 0.003265 0.000000 -0.002311
v 0.003634 0.000000 0.001672
v 0.007000 -0.062900 0.005900
v 0.007000 -0.066000 0.005900
v 0.007096 -0.062900 0.005904
v 0.007096 -0.066000 0.005904
v 0.007191 -0.062900 0.005917
v 0.007191 -0.066000 0.005917
v 0.007285 -0.062900 0.005937
v 0.007285 -0.066000 0.005937
v 0.007376 -0.062900 0.005966
v 0.007376 -0.066000 0.005966
v 0.007465 -0.062900 0.006003
v 0.007465 -0.066000 0.006003
v 0.007550 -0.062900 0.006047
v 0.007550 -0.066000 0.006047
v 0.007631 -0.062900 0.006099
v 0.007631 -0.066000 0.006099
v 0.007707 -0.062900 0.006157
v 0.007707 -0.066000 0.006157
v 0.007778 -0.062900 0.006222
v 0.007778 -0.066000 0.006222
v 0.007843 -0.062900 0.006293
v 0.007843 -0.066000 0.006293
v 0.007901 -0.062900 0.006369
v 0.007901 -0.066000 0.006369
v 0.007953 -0.062900 0.006450
v 0.007953 -0.066000 0.006450
v 0.007997 -0.062900 0.006535
v 0.007997 -0.066000 0.006535
v 0.008034 -0.062900 0.006624
v 0.008034 -0.066000 0.006624
v 0.008063 -0.062900 0.006715
v 0.008063 -0.066000 0.006715
v 0.008083 -0.062900 0.006809
v 0.008083 -0.066000 0.006809
v 0.008096 -0.062900 0.006904
v 0.008096 -0.066000 0.006904
v 0.008100 -0.062900 0.007000
v 0.008100 -0.066000 0.007000
v 0.008096 -0.062900 0.007096
v 0.008096 -0.066000 0.007096
v 0.008083 -0.062900 0.007191
v 0.008083 -0.066000 0.007191
v 0.008063 -0.062900 0.007285
v 0.008063 -0.066000 0.007285
v 0.008034 -0.062900 0.007376
v 0.008034 -0.066000 0.007376
v 0.007997 -0.062900 0.007465
v 0.007997 -0.066000 0.007465
v 0.007953 -0.062900 0.007550
v 0.007953 -0.066000 0.007550
v 0.007901 -0.062900 0.007631
v 0.007901 -0.066000 0.007631
v 0.007843 -0.062900 0.007707
v 0.007843 -0.066000 0.007707
v 0.007778 -0.062900 0.007778
v 0.007778 -0.066000 0.007778
v 0.007707 -0.062900 0.007843
v 0.007707 -0.066000 0.007843
v 0.007631 -0.062900 0.007901
v 0.007631 -0.066000 0.007901
v 0.007550 -0.062900 0.007953
v 0.007550 -0.066000 0.007953
v 0.007465 -0.062900 0.007997
v 0.007465 -0.066000 0.007997
v 0.007376 -0.062900 0.008034
v 0.007376 -0.066000 0.008034
v 0.007285 -0.062900 0.008063
v 0.007285 -0.066000 0.008063
v 0.007191 -0.062900 0.008083
v 0.007191 -0.066000 0.008083
v 0.007096 -0.062900 0.008096
v 0.007096 -0.066000 0.008096
v 0.007000 -0.062900 0.008100
v 0.007000 -0.066000 0.008100
v 0.006904 -0.062900 0.008096
v 0.006904 -0.066000 0.008096
v 0.006809 -0.062900 0.008083
v 0.006809 -0.066000 0.008083
v 0.006715 -0.062900 0.008063
v 0.006715 -0.066000 0.008063
v 0.006624 -0.062900 0.008034
v 0.006624 -0.066000 0.008034
v 0.006535 -0.062900 0.007997
v 0.006535 -0.066000 0.007997
v 0.006450 -0.062900 0.007953
v 0.006450 -0.066000 0.007953
v 0.006369 -0.062900 0.007901
v 0.006369 -0.066000 0.007901
v 0.006293 -0.062900 0.007843
v 0.006293 -0.066000 0.007843
v 0.006222 -0.062900 0.007778
v 0.006222 -0.066000 0.007778
v 0.006157 -0.062900 0.007707
v 0.006157 -0.066000 0.007707
v 0.006099 -0.062900 0.007631
v 0.006099 -0.066000 0.007631
v 0.006047 -0.062900 0.007550
v 0.006047 -0.066000 0.007550
v 0.006003 -0.062900 0.007465
v 0.006003 -0.066000 0.007465
v 0.005966 -0.062900 0.007376
v 0.005966 -0.066000 0.007376
v 0.005937 -0.062900 0.007285
v 0.005937 -0.066000 0.007285
v 0.005917 -0.062900 0.007191
v 0.005917 -0.066000 0.007191
v 0.005904 -0.062900 0.007096
v 0.005904 -0.066000 0.007096
v 0.005900 -0.062900 0.007000
v 0.005900 -0.066000 0.007000
v 0.005904 -0.062900 0.006904
v 0.005904 -0.066000 0.006904
v 0.005917 -0.062900 0.006809
v 0.005917 -0.066000 0.006809
v 0.005937 -0.062900 0.006715
v 0.005937 -0.066000 0.006715
v 0.005966 -0.062900 0.006624
v 0.005966 -0.066000 0.006624
v 0.006003 -0.062900 0.006535
v 0.006003 -0.066000 0.006535
v 0.006047 -0.062900 0.006450
v 0.006047 -0.066000 0.006450
v 0.006099 -0.062900 0.006369
v 0.006099 -0.066000 0.006369
v 0.006157 -0.062900 0.006293
v 0.006157 -0.066000 0.006293
v 0.006222 -0.062900 0.006222
v 0.006222 -0.066000 0.006222
v 0.006293 -0.062900 0.006157
v 0.006293 -0.066000 0.006157
v 0.006369 -0.062900 0.006099
v 0.006369 -0.066000 0.006099
v 0.006450 -0.062900 0.006047
v 0.006450 -0.066000 0.006047
v 0.006535 -0.062900 0.006003
v 0.006535 -0.066000 0.006003
v 0.006624 -0.062900 0.005966
v 0.006624 -0.066000 0.005966
v 0.006715 -0.062900 0.005937
v 0.006715 -0.066000 0.005937
v 0.006809 -0.062900 0.005917
v 0.006809 -0.066000 0.005917
v 0.006904 -0.062900 0.005904
v 0.006904 -0.066000 0.005904
v -0.000373 -0.059000 -0.008883
v -0.001045 -0.059000 -0.005929
v -0.000525 -0.059000 -0.005997
v -0.002544 -0.059000 -0.005456
v -0.002059 -0.059000 -0.005657
v -0.001075 -0.059000 -0.009138
v 0.000373 -0.059000 -0.013117
v 0.000556 -0.059000 -0.013077
v 0.001307 -0.059000 -0.014943
v -0.003870 -0.059000 -0.004612
v -0.003453 -0.059000 -0.004931
v -0.003010 -0.059000 -0.005213
v 0.004257 -0.059000 -0.004257
v 0.004418 -0.059000 -0.004089
v 0.001233 -0.059000 -0.009239
v -0.001558 -0.059000 -0.005815
v 0.002605 -0.059000 -0.014772
v 0.001233 -0.059000 -0.012761
v 0.001382 -0.059000 -0.012647
v 0.001558 -0.059000 -0.005815
v 0.002059 -0.059000 -0.005657
v 0.000909 -0.059000 -0.009051
v 0.002544 -0.059000 -0.005456
v 0.001075 -0.059000 -0.009138
v 0.000735 -0.059000 -0.008980
v 0.000556 -0.059000 -0.008923
v 0.001045 -0.059000 -0.005929
v 0.000373 -0.059000 -0.008883
v 0.000525 -0.059000 -0.005997
v 0.000187 -0.059000 -0.008858
v 0.000000 -0.059000 -0.006020
v 0.000000 -0.059000 -0.008850
v -0.000187 -0.059000 -0.008858
v -0.000556 -0.059000 -0.008923
v -0.000735 -0.059000 -0.008980
v -0.000909 -0.059000 -0.009051
v 0.000187 -0.059000 -0.013142
v -0.000000 -0.059000 -0.015000
v 0.000000 -0.059000 -0.013150
v 0.003882 -0.059000 -0.014489
v -0.001233 -0.059000 -0.009239
v -0.001382 -0.059000 -0.009353
v -0.004257 -0.059000 -0.004257
v -0.001520 -0.059000 -0.009480
v -0.001647 -0.059000 -0.009618
v -0.001949 -0.059000 -0.010091
v -0.002020 -0.059000 -0.010265
v -0.002077 -0.059000 -0.010444
v -0.002117 -0.059000 -0.010627
v -0.005130 -0.059000 -0.014095
v -0.002142 -0.059000 -0.010813
v -0.000735 -0.059000 -0.013020
v -0.000556 -0.059000 -0.013077
v -0.001307 -0.059000 -0.014943
v -0.000373 -0.059000 -0.013117
v -0.000187 -0.059000 -0.013142
v 0.006339 -0.059000 -0.013595
v 0.005130 -0.059000 -0.014095
v 0.001862 -0.059000 -0.012075
v 0.001647 -0.059000 -0.009618
v 0.001520 -0.059000 -0.009480
v 0.001382 -0.059000 -0.009353
v -0.001761 -0.059000 -0.009767
v -0.001862 -0.059000 -0.009925
v -0.002150 -0.059000 -0.011000
v -0.002142 -0.059000 -0.011187
v -0.002117 -0.059000 -0.011373
v -0.002077 -0.059000 -0.011556
v -0.002020 -0.059000 -0.011735
v -0.001949 -0.059000 -0.011909
v -0.001862 -0.059000 -0.012075
v -0.001761 -0.059000 -0.012233
v -0.003882 -0.059000 -0.014489
v 0.000735 -0.059000 -0.013020
v 0.000909 -0.059000 -0.012949
v 0.001075 -0.059000 -0.012862
v 0.003010 -0.059000 -0.005213
v 0.003453 -0.059000 -0.004931
v 0.003870 -0.059000 -0.004612
v -0.001382 -0.059000 -0.012647
v -0.002605 -0.059000 -0.014772
v -0.001520 -0.059000 -0.012520
v -0.001647 -0.059000 -0.012382
v -0.001233 -0.059000 -0.012761
v -0.001075 -0.059000 -0.012862
v -0.000909 -0.059000 -0.012949
v 0.001520 -0.059000 -0.012520
v 0.001647 -0.059000 -0.012382
v 0.001761 -0.059000 -0.012233
v 0.001949 -0.059000 -0.011909
v 0.002020 -0.059000 -0.011735
v 0.007500 -0.059000 -0.012990
v 0.002077 -0.059000 -0.011556
v 0.008604 -0.059000 -0.012287
v 0.002117 -0.059000 -0.011373
v 0.009642 -0.059000 -0.011491
v 0.002142 -0.059000 -0.011187
v 0.010607 -0.059000 -0.010607
v 0.002150 -0.059000 -0.011000
v 0.011491 -0.059000 -0.009642
v 0.002142 -0.059000 -0.010813
v 0.012287 -0.059000 -0.008604
v 0.002117 -0.059000 -0.010627
v 0.012990 -0.059000 -0.007500
v 0.002077 -0.059000 -0.010444
v 0.013595 -0.059000 -0.006339
v 0.002020 -0.059000 -0.010265
v 0.014095 -0.059000 -0.005130
v 0.001949 -0.059000 -0.010091
v 0.014432 -0.059000 -0.004087
v 0.001862 -0.059000 -0.009925
v 0.001761 -0.059000 -0.009767
v 0.000000 -0.059000 0.015000
v 0.000000 -0.059000 0.013150
v -0.000187 -0.059000 0.013142
v -0.001307 -0.059000 0.014943
v -0.000373 -0.059000 0.013117
v -0.000556 -0.059000 0.013077
v 0.012761 -0.059000 0.001233
v 0.012647 -0.059000 0.001382
v 0.014772 -0.059000 0.002605
v -0.001075 -0.059000 0.012862
v -0.002605 -0.059000 0.014772
v -0.000909 -0.059000 0.012949
v -0.000735 -0.059000 0.013020
v -0.003870 -0.059000 0.004612
v -0.004089 -0.059000 0.004418
v -0.001233 -0.059000 0.009239
v -0.001761 -0.059000 0.012233
v -0.001862 -0.059000 0.012075
v -0.004087 -0.059000 0.014432
v -0.001949 -0.059000 0.011909
v -0.002020 -0.059000 0.011735
v 0.008923 -0.059000 -0.000556
v 0.005815 -0.059000 -0.001558
v 0.005929 -0.059000 -0.001045
v 0.001307 -0.059000 0.014943
v 0.000909 -0.059000 0.012949
v 0.000735 -0.059000 0.013020
v 0.000556 -0.059000 0.013077
v 0.000373 -0.059000 0.013117
v 0.000187 -0.059000 0.013142
v 0.009480 -0.059000 -0.001520
v 0.009353 -0.059000 -0.001382
v 0.009239 -0.059000 -0.001233
v 0.013020 -0.059000 -0.000735
v 0.013077 -0.059000 -0.000556
v 0.014943 -0.059000 -0.001307
v 0.013117 -0.059000 -0.000373
v 0.015000 -0.059000 -0.000000
v 0.013142 -0.059000 -0.000187
v 0.014095 -0.059000 0.005130
v 0.014489 -0.059000 0.003882
v 0.012382 -0.059000 0.001647
v -0.002077 -0.059000 0.011556
v -0.002117 -0.059000 0.011373
v -0.002142 -0.059000 0.011187
v 0.009618 -0.059000 -0.001647
v 0.009767 -0.059000 -0.001761
v 0.009925 -0.059000 -0.001862
v 0.012647 -0.059000 -0.001382
v 0.012761 -0.059000 -0.001233
v 0.014772 -0.059000 -0.002605
v 0.012862 -0.059000 -0.001075
v 0.012949 -0.059000 -0.000909
v 0.012520 -0.059000 0.001520
v 0.012233 -0.059000 0.001761
v 0.012075 -0.059000 0.001862
v 0.013595 -0.059000 0.006339
v -0.001233 -0.059000 0.012761
v -0.001382 -0.059000 0.012647
v -0.003882 -0.059000 0.014489
v -0.001520 -0.059000 0.012520
v -0.001647 -0.059000 0.012382
v -0.002150 -0.059000 0.011000
v -0.002142 -0.059000 0.010813
v -0.002117 -0.059000 0.010627
v -0.002077 -0.059000 0.010444
v -0.002020 -0.059000 0.010265
v -0.001949 -0.059000 0.010091
v -0.001862 -0.059000 0.009925
v -0.001761 -0.059000 0.009767
v -0.001647 -0.059000 0.009618
v -0.001520 -0.059000 0.009480
v -0.001382 -0.059000 0.009353
v 0.001075 -0.059000 0.012862
v 0.002605 -0.059000 0.014772
v 0.001233 -0.059000 0.012761
v 0.004612 -0.059000 -0.003870
v 0.004931 -0.059000 -0.003453
v 0.005213 -0.059000 -0.003010
v 0.013150 -0.059000 -0.000000
v 0.013142 -0.059000 0.000187
v 0.014943 -0.059000 0.001307
v 0.013117 -0.059000 0.000373
v 0.013077 -0.059000 0.000556
v 0.013020 -0.059000 0.000735
v 0.012949 -0.059000 0.000909
v 0.012862 -0.059000 0.001075
v 0.001558 -0.059000 0.005815
v 0.001045 -0.059000 0.005929
v 0.000556 -0.059000 0.008923
v 0.000525 -0.059000 0.005997
v 0.000373 -0.059000 0.008883
v 0.010091 -0.059000 -0.001949
v 0.010265 -0.059000 -0.002020
v 0.010444 -0.059000 -0.002077
v 0.010627 -0.059000 -0.002117
v 0.010813 -0.059000 -0.002142
v 0.011000 -0.059000 -0.002150
v 0.011187 -0.059000 -0.002142
v 0.012520 -0.059000 -0.001520
v 0.014489 -0.059000 -0.003882
v 0.012382 -0.059000 -0.001647
v 0.012233 -0.059000 -0.001761
v -0.001558 -0.059000 0.005815
v -0.002059 -0.059000 0.005657
v -0.000909 -0.059000 0.009051
v -0.002544 -0.059000 0.005456
v -0.001075 -0.059000 0.009138
v -0.003010 -0.059000 0.005213
v -0.003453 -0.059000 0.004931
v 0.005130 -0.059000 0.014095
v 0.006339 -0.059000 0.013595
v 0.001949 -0.059000 0.011909
v 0.001761 -0.059000 0.009767
v 0.001862 -0.059000 0.009925
v 0.009618 -0.059000 0.001647
v 0.001949 -0.059000 0.010091
v 0.002020 -0.059000 0.010265
v 0.003882 -0.059000 0.014489
v 0.001520 -0.059000 0.012520
v 0.001382 -0.059000 0.012647
v 0.009051 -0.059000 0.000909
v 0.008980 -0.059000 0.000735
v 0.005815 -0.059000 0.001558
v 0.008923 -0.059000 0.000556
v 0.005929 -0.059000 0.001045
v 0.008883 -0.059000 0.000373
v 0.005997 -0.059000 0.000525
v 0.008858 -0.059000 0.000187
v 0.006020 -0.059000 -0.000000
v 0.008850 -0.059000 0.000000
v 0.005997 -0.059000 -0.000525
v 0.008858 -0.059000 -0.000187
v 0.008883 -0.059000 -0.000373
v 0.005657 -0.059000 -0.002059
v 0.008980 -0.059000 -0.000735
v 0.005456 -0.059000 -0.002544
v 0.009051 -0.059000 -0.000909
v 0.009138 -0.059000 -0.001075
v 0.011373 -0.059000 -0.002117
v 0.011556 -0.059000 -0.002077
v 0.011735 -0.059000 -0.002020
v 0.011909 -0.059000 -0.001949
v 0.012075 -0.059000 -0.001862
v -0.000735 -0.059000 0.008980
v -0.000556 -0.059000 0.008923
v -0.001045 -0.059000 0.005929
v -0.000373 -0.059000 0.008883
v -0.000525 -0.059000 0.005997
v -0.000187 -0.059000 0.008858
v 0.000000 -0.059000 0.006020
v 0.000000 -0.059000 0.008850
v 0.000187 -0.059000 0.008858
v 0.004931 -0.059000 0.003453
v 0.004612 -0.059000 0.003870
v 0.001233 -0.059000 0.009239
v 0.004257 -0.059000 0.004257
v 0.001862 -0.059000 0.012075
v 0.001761 -0.059000 0.012233
v 0.001647 -0.059000 0.012382
v 0.003870 -0.059000 0.004612
v 0.003453 -0.059000 0.004931
v 0.003010 -0.059000 0.005213
v 0.005657 -0.059000 0.002059
v 0.005456 -0.059000 0.002544
v 0.009138 -0.059000 0.001075
v 0.005213 -0.059000 0.003010
v 0.009239 -0.059000 0.001233
v 0.009353 -0.059000 0.001382
v 0.002142 -0.059000 0.011187
v 0.002117 -0.059000 0.011373
v 0.009925 -0.059000 0.001862
v 0.002077 -0.059000 0.011556
v 0.001382 -0.059000 0.009353
v 0.009480 -0.059000 0.001520
v 0.001520 -0.059000 0.009480
v 0.001647 -0.059000 0.009618
v 0.002077 -0.059000 0.010444
v 0.002117 -0.059000 0.010627
v 0.009767 -0.059000 0.001761
v 0.002142 -0.059000 0.010813
v 0.002150 -0.059000 0.011000
v 0.010091 -0.059000 0.001949
v 0.002020 -0.059000 0.011735
v 0.011909 -0.059000 0.001949
v 0.011735 -0.059000 0.002020
v 0.012990 -0.059000 0.007500
v 0.011556 -0.059000 0.002077
v 0.012287 -0.059000 0.008604
v 0.011373 -0.059000 0.002117
v 0.011491 -0.059000 0.009642
v 0.011187 -0.059000 0.002142
v 0.010607 -0.059000 0.010607
v 0.011000 -0.059000 0.002150
v 0.009642 -0.059000 0.011491
v 0.010813 -0.059000 0.002142
v 0.008604 -0.059000 0.012287
v 0.010627 -0.059000 0.002117
v 0.007500 -0.059000 0.012990
v 0.010444 -0.059000 0.002077
v 0.010265 -0.059000 0.002020
v 0.002059 -0.059000 0.005657
v 0.000735 -0.059000 0.008980
v 0.002544 -0.059000 0.005456
v 0.000909 -0.059000 0.009051
v 0.001075 -0.059000 0.009138
v -0.005213 -0.059000 -0.003010
v -0.004931 -0.059000 -0.003453
v -0.009138 -0.059000 -0.001075
v -0.008883 -0.059000 0.000373
v -0.008923 -0.059000 0.000556
v -0.005997 -0.059000 0.000525
v -0.014095 -0.059000 -0.005130
v -0.012075 -0.059000 -0.001862
v -0.011909 -0.059000 -0.001949
v -0.014095 -0.059000 0.005130
v -0.012075 -0.059000 0.001862
v -0.012233 -0.059000 0.001761
v -0.014943 -0.059000 0.001307
v -0.012949 -0.059000 0.000909
v -0.013020 -0.059000 0.000735
v -0.009618 -0.059000 0.001647
v -0.009767 -0.059000 0.001761
v -0.009925 -0.059000 0.001862
v -0.010091 -0.059000 0.001949
v -0.014489 -0.059000 0.003882
v -0.013142 -0.059000 0.000187
v -0.015000 -0.059000 0.000000
v -0.013117 -0.059000 0.000373
v -0.013077 -0.059000 0.000556
v -0.013150 -0.059000 0.000000
v -0.013142 -0.059000 -0.000187
v -0.014943 -0.059000 -0.001307
v -0.013117 -0.059000 -0.000373
v -0.013077 -0.059000 -0.000556
v -0.014772 -0.059000 -0.002605
v -0.012761 -0.059000 -0.001233
v -0.012647 -0.059000 -0.001382
v -0.010091 -0.059000 -0.001949
v -0.009925 -0.059000 -0.001862
v -0.009480 -0.059000 0.001520
v -0.009353 -0.059000 0.001382
v -0.012862 -0.059000 0.001075
v -0.014772 -0.059000 0.002605
v -0.012761 -0.059000 0.001233
v -0.014489 -0.059000 -0.003882
v -0.011735 -0.059000 -0.002020
v -0.011556 -0.059000 -0.002077
v -0.011373 -0.059000 -0.002117
v -0.011187 -0.059000 -0.002142
v -0.011000 -0.059000 -0.002150
v -0.010813 -0.059000 -0.002142
v -0.009239 -0.059000 -0.001233
v -0.004612 -0.059000 -0.003870
v -0.009353 -0.059000 -0.001382
v -0.009480 -0.059000 -0.001520
v -0.009239 -0.059000 0.001233
v -0.004257 -0.059000 0.004257
v -0.004612 -0.059000 0.003870
v -0.011909 -0.059000 0.001949
v -0.013595 -0.059000 0.006339
v -0.011735 -0.059000 0.002020
v -0.012382 -0.059000 0.001647
v -0.012520 -0.059000 0.001520
v -0.012647 -0.059000 0.001382
v -0.013020 -0.059000 -0.000735
v -0.012949 -0.059000 -0.000909
v -0.012862 -0.059000 -0.001075
v -0.012520 -0.059000 -0.001520
v -0.012382 -0.059000 -0.001647
v -0.012233 -0.059000 -0.001761
v -0.010627 -0.059000 -0.002117
v -0.010444 -0.059000 -0.002077
v -0.010265 -0.059000 -0.002020
v -0.009767 -0.059000 -0.001761
v -0.009618 -0.059000 -0.001647
v -0.005456 -0.059000 -0.002544
v -0.009051 -0.059000 -0.000909
v -0.005657 -0.059000 -0.002059
v -0.008980 -0.059000 -0.000735
v -0.005815 -0.059000 -0.001558
v -0.008923 -0.059000 -0.000556
v -0.005929 -0.059000 -0.001045
v -0.008883 -0.059000 -0.000373
v -0.005997 -0.059000 -0.000525
v -0.008858 -0.059000 -0.000187
v -0.006020 -0.059000 0.000000
v -0.008850 -0.059000 -0.000000
v -0.008858 -0.059000 0.000187
v -0.004931 -0.059000 0.003453
v -0.005213 -0.059000 0.003010
v -0.005456 -0.059000 0.002544
v -0.005657 -0.059000 0.002059
v -0.005815 -0.059000 0.001558
v -0.005929 -0.059000 0.001045
v -0.008980 -0.059000 0.000735
v -0.009051 -0.059000 0.000909
v -0.009138 -0.059000 0.001075
v -0.011556 -0.059000 0.002077
v -0.012990 -0.059000 0.007500
v -0.011373 -0.059000 0.002117
v -0.012287 -0.059000 0.008604
v -0.011187 -0.059000 0.002142
v -0.011491 -0.059000 0.009642
v -0.011000 -0.059000 0.002150
v -0.010607 -0.059000 0.010607
v -0.010813 -0.059000 0.002142
v -0.009642 -0.059000 0.011491
v -0.010627 -0.059000 0.002117
v -0.008604 -0.059000 0.012287
v -0.010444 -0.059000 0.002077
v -0.007500 -0.059000 0.012990
v -0.010265 -0.059000 0.002020
v -0.006339 -0.059000 0.013595
v -0.005130 -0.059000 0.014095
v -0.012287 -0.059000 -0.008604
v -0.012990 -0.059000 -0.007500
v -0.008604 -0.059000 -0.012287
v -0.009642 -0.059000 -0.011491
v -0.013595 -0.059000 -0.006339
v -0.007500 -0.059000 -0.012990
v -0.006339 -0.059000 -0.013595
v -0.010607 -0.059000 -0.010607
v -0.011491 -0.059000 -0.009642
v 0.014489 -0.065000 -0.003882
v 0.014772 -0.065000 -0.002605
v 0.014943 -0.065000 -0.001307
v 0.015000 -0.065000 0.000000
v 0.014943 -0.065000 0.001307
v 0.014772 -0.065000 0.002605
v 0.014489 -0.065000 0.003882
v 0.014095 -0.065000 0.005130
v 0.013595 -0.065000 0.006339
v 0.012990 -0.065000 0.007500
v 0.012287 -0.065000 0.008604
v 0.011491 -0.065000 0.009642
v 0.010607 -0.065000 0.010607
v 0.009642 -0.065000 0.011491
v 0.008604 -0.065000 0.012287
v 0.007500 -0.065000 0.012990
v 0.006339 -0.065000 0.013595
v 0.005130 -0.065000 0.014095
v 0.003882 -0.065000 0.014489
v 0.002605 -0.065000 0.014772
v 0.001307 -0.065000 0.014943
v -0.000000 -0.065000 0.015000
v -0.001307 -0.065000 0.014943
v -0.002605 -0.065000 0.014772
v -0.003882 -0.065000 0.014489
v -0.005130 -0.065000 0.014095
v -0.006339 -0.065000 0.013595
v -0.007500 -0.065000 0.012990
v -0.008604 -0.065000 0.012287
v -0.009642 -0.065000 0.011491
v -0.010607 -0.065000 0.010607
v -0.011491 -0.065000 0.009642
v -0.012287 -0.065000 0.008604
v -0.012990 -0.065000 0.007500
v -0.013595 -0.065000 0.006339
v -0.014095 -0.065000 0.005130
v -0.014489 -0.065000 0.003882
v -0.014772 -0.065000 0.002605
v -0.014943 -0.065000 0.001307
v -0.015000 -0.065000 -0.000000
v -0.014943 -0.065000 -0.001307
v -0.014772 -0.065000 -0.002605
v -0.014489 -0.065000 -0.003882
v -0.014095 -0.065000 -0.005130
v -0.013595 -0.065000 -0.006339
v -0.012990 -0.065000 -0.007500
v -0.012287 -0.065000 -0.008604
v -0.011491 -0.065000 -0.009642
v -0.010607 -0.065000 -0.010607
v -0.009642 -0.065000 -0.011491
v -0.008604 -0.065000 -0.012287
v -0.007500 -0.065000 -0.012990
v -0.006339 -0.065000 -0.013595
v -0.005130 -0.065000 -0.014095
v -0.003882 -0.065000 -0.014489
v -0.002605 -0.065000 -0.014772
v -0.001307 -0.065000 -0.014943
v 0.000000 -0.065000 -0.015000
v 0.001307 -0.065000 -0.014943
v 0.002605 -0.065000 -0.014772
v 0.003882 -0.065000 -0.014489
v 0.005130 -0.065000 -0.014095
v 0.006339 -0.065000 -0.013595
v 0.007500 -0.065000 -0.012990
v 0.008604 -0.065000 -0.012287
v 0.009642 -0.065000 -0.011491
v 0.010607 -0.065000 -0.010607
v 0.011491 -0.065000 -0.009642
v 0.012287 -0.065000 -0.008604
v 0.012990 -0.065000 -0.007500
v 0.013595 -0.065000 -0.006339
v 0.014095 -0.065000 -0.005130
v 0.000187 -0.066000 -0.013142
v -0.000000 -0.066000 -0.013150
v 0.000000 -0.066000 -0.014000
v 0.004025 -0.066000 0.004025
v 0.000000 -0.066000 -0.008850
v 0.000187 -0.066000 -0.008858
v 0.000373 -0.066000 -0.008883
v 0.000556 -0.066000 -0.008923
v 0.000735 -0.066000 -0.008980
v 0.001382 -0.066000 -0.012647
v 0.001233 -0.066000 -0.012761
v 0.002431 -0.066000 -0.013787
v 0.000909 -0.066000 -0.012949
v 0.000735 -0.066000 -0.013020
v 0.001220 -0.066000 -0.013947
v 0.000556 -0.066000 -0.013077
v 0.000373 -0.066000 -0.013117
v -0.008980 -0.066000 -0.000735
v -0.001075 -0.066000 -0.009138
v -0.008923 -0.066000 -0.000556
v -0.008883 -0.066000 -0.000373
v -0.001382 -0.066000 -0.009353
v -0.001233 -0.066000 -0.009239
v -0.009138 -0.066000 -0.001075
v -0.009051 -0.066000 -0.000909
v 0.000909 -0.066000 -0.009051
v 0.001075 -0.066000 -0.009138
v 0.001233 -0.066000 -0.009239
v 0.001382 -0.066000 -0.009353
v 0.001520 -0.066000 -0.009480
v 0.001647 -0.066000 -0.009618
v 0.001761 -0.066000 -0.009767
v 0.001862 -0.066000 -0.009925
v 0.001949 -0.066000 -0.010091
v -0.012075 -0.066000 -0.001862
v -0.013523 -0.066000 -0.003623
v -0.011909 -0.066000 -0.001949
v -0.013156 -0.066000 -0.004788
v -0.011735 -0.066000 -0.002020
v -0.012688 -0.066000 -0.005917
v -0.012949 -0.066000 -0.000909
v -0.013020 -0.066000 -0.000735
v -0.013947 -0.066000 -0.001220
v -0.013077 -0.066000 -0.000556
v -0.014000 -0.066000 -0.000000
v -0.013117 -0.066000 -0.000373
v -0.013142 -0.066000 -0.000187
v -0.013150 -0.066000 0.000000
v 0.002142 -0.066000 -0.010813
v 0.002150 -0.066000 -0.011000
v 0.004029 -0.066000 -0.013408
v 0.002142 -0.066000 -0.011187
v 0.002020 -0.066000 -0.011735
v 0.001949 -0.066000 -0.011909
v 0.001862 -0.066000 -0.012075
v 0.003623 -0.066000 -0.013523
v -0.008980 -0.066000 0.000735
v -0.008923 -0.066000 0.000556
v -0.008883 -0.066000 0.000373
v -0.008858 -0.066000 0.000187
v -0.008850 -0.066000 -0.000000
v -0.008858 -0.066000 -0.000187
v -0.002077 -0.066000 -0.010444
v -0.002020 -0.066000 -0.010265
v -0.010725 -0.066000 -0.008999
v -0.011000 -0.066000 -0.002150
v -0.011468 -0.066000 -0.008030
v -0.011187 -0.066000 -0.002142
v -0.012124 -0.066000 -0.007000
v -0.011373 -0.066000 -0.002117
v -0.011556 -0.066000 -0.002077
v 0.001075 -0.066000 -0.012862
v -0.009239 -0.066000 0.001233
v -0.009138 -0.066000 0.001075
v -0.009051 -0.066000 0.000909
v -0.005917 -0.066000 -0.012688
v -0.004788 -0.066000 -0.013156
v -0.001949 -0.066000 -0.011909
v -0.009767 -0.066000 -0.001761
v -0.009925 -0.066000 -0.001862
v -0.001647 -0.066000 -0.009618
v -0.012233 -0.066000 -0.001761
v -0.012382 -0.066000 -0.001647
v -0.013787 -0.066000 -0.002431
v -0.012520 -0.066000 -0.001520
v -0.013142 -0.066000 0.000187
v -0.013117 -0.066000 0.000373
v -0.013947 -0.066000 0.001220
v -0.013077 -0.066000 0.000556
v -0.013020 -0.066000 0.000735
v -0.012761 -0.066000 0.001233
v -0.013787 -0.066000 0.002431
v -0.012862 -0.066000 0.001075
v -0.012949 -0.066000 0.000909
v -0.012075 -0.066000 0.001862
v -0.013408 -0.066000 0.004029
v -0.012233 -0.066000 0.001761
v -0.013523 -0.066000 0.003623
v -0.010265 -0.066000 0.002020
v -0.010091 -0.066000 0.001949
v -0.009925 -0.066000 0.001862
v -0.009767 -0.066000 0.001761
v -0.009353 -0.066000 0.001382
v -0.000909 -0.066000 -0.009051
v -0.000735 -0.066000 -0.008980
v 0.002020 -0.066000 -0.010265
v 0.002077 -0.066000 -0.010444
v 0.002117 -0.066000 -0.010627
v 0.002117 -0.066000 -0.011373
v 0.002077 -0.066000 -0.011556
v 0.001761 -0.066000 -0.012233
v 0.001647 -0.066000 -0.012382
v 0.001520 -0.066000 -0.012520
v -0.000187 -0.066000 -0.013142
v -0.000373 -0.066000 -0.013117
v -0.001220 -0.066000 -0.013947
v -0.000556 -0.066000 -0.013077
v -0.000735 -0.066000 -0.013020
v -0.001862 -0.066000 -0.012075
v -0.003623 -0.066000 -0.013523
v -0.001761 -0.066000 -0.012233
v -0.012647 -0.066000 -0.001382
v -0.012761 -0.066000 -0.001233
v -0.012862 -0.066000 -0.001075
v -0.012647 -0.066000 0.001382
v -0.012520 -0.066000 0.001520
v -0.012382 -0.066000 0.001647
v -0.011909 -0.066000 0.001949
v -0.011735 -0.066000 0.002020
v -0.011556 -0.066000 0.002077
v -0.001233 -0.066000 -0.012761
v -0.002431 -0.066000 -0.013787
v -0.001075 -0.066000 -0.012862
v -0.000909 -0.066000 -0.012949
v -0.001382 -0.066000 -0.012647
v -0.001520 -0.066000 -0.012520
v -0.001647 -0.066000 -0.012382
v -0.002020 -0.066000 -0.011735
v -0.002077 -0.066000 -0.011556
v -0.007000 -0.066000 -0.012124
v -0.002117 -0.066000 -0.011373
v -0.008030 -0.066000 -0.011468
v -0.002142 -0.066000 -0.011187
v -0.008999 -0.066000 -0.010725
v -0.002150 -0.066000 -0.011000
v -0.009899 -0.066000 -0.009899
v -0.002142 -0.066000 -0.010813
v -0.002117 -0.066000 -0.010627
v -0.010091 -0.066000 -0.001949
v -0.001862 -0.066000 -0.009925
v -0.001761 -0.066000 -0.009767
v -0.009618 -0.066000 0.001647
v -0.009480 -0.066000 0.001520
v -0.009239 -0.066000 -0.001233
v -0.009353 -0.066000 -0.001382
v -0.001520 -0.066000 -0.009480
v -0.009480 -0.066000 -0.001520
v -0.009618 -0.066000 -0.001647
v -0.010265 -0.066000 -0.002020
v -0.010444 -0.066000 -0.002077
v -0.010627 -0.066000 -0.002117
v -0.001949 -0.066000 -0.010091
v -0.010813 -0.066000 -0.002142
v -0.000556 -0.066000 -0.008923
v -0.000373 -0.066000 -0.008883
v -0.000187 -0.066000 -0.008858
v -0.011373 -0.066000 0.002117
v -0.011187 -0.066000 0.002142
v -0.011000 -0.066000 0.002150
v -0.010813 -0.066000 0.002142
v -0.010627 -0.066000 0.002117
v -0.010444 -0.066000 0.002077
v -0.000187 -0.066000 0.013142
v 0.000000 -0.066000 0.013150
v 0.000000 -0.066000 0.014000
v 0.000735 -0.066000 0.008980
v 0.000556 -0.066000 0.008923
v -0.001220 -0.066000 0.013947
v -0.001075 -0.066000 0.012862
v -0.000909 -0.066000 0.012949
v 0.000187 -0.066000 0.013142
v 0.000373 -0.066000 0.013117
v 0.001220 -0.066000 0.013947
v 0.000556 -0.066000 0.013077
v 0.000735 -0.066000 0.013020
v 0.001382 -0.066000 0.009353
v 0.001233 -0.066000 0.009239
v -0.001233 -0.066000 0.012761
v -0.002431 -0.066000 0.013787
v -0.001382 -0.066000 0.012647
v -0.000735 -0.066000 0.013020
v -0.000556 -0.066000 0.013077
v -0.000373 -0.066000 0.013117
v 0.002077 -0.066000 0.010444
v 0.002020 -0.066000 0.010265
v 0.000373 -0.066000 0.008883
v 0.000187 -0.066000 0.008858
v -0.000000 -0.066000 0.008850
v 0.000909 -0.066000 0.012949
v 0.001075 -0.066000 0.012862
v 0.002431 -0.066000 0.013787
v 0.001233 -0.066000 0.012761
v 0.001382 -0.066000 0.012647
v 0.001520 -0.066000 0.012520
v 0.003623 -0.066000 0.013523
v 0.001647 -0.066000 0.012382
v 0.001761 -0.066000 0.012233
v 0.004029 -0.066000 0.013408
v 0.001862 -0.066000 0.012075
v 0.001949 -0.066000 0.011909
v 0.001949 -0.066000 0.010091
v 0.001862 -0.066000 0.009925
v 0.001761 -0.066000 0.009767
v 0.001075 -0.066000 0.009138
v 0.000909 -0.066000 0.009051
v -0.001862 -0.066000 0.012075
v -0.003623 -0.066000 0.013523
v -0.001949 -0.066000 0.011909
v -0.004788 -0.066000 0.013156
v -0.002020 -0.066000 0.011735
v -0.005917 -0.066000 0.012688
v 0.002117 -0.066000 0.011373
v 0.002142 -0.066000 0.011187
v 0.001647 -0.066000 0.009618
v 0.001520 -0.066000 0.009480
v -0.000187 -0.066000 0.008858
v -0.000373 -0.066000 0.008883
v -0.000556 -0.066000 0.008923
v -0.000735 -0.066000 0.008980
v -0.000909 -0.066000 0.009051
v -0.001075 -0.066000 0.009138
v -0.001233 -0.066000 0.009239
v -0.001382 -0.066000 0.009353
v -0.001520 -0.066000 0.009480
v -0.001647 -0.066000 0.009618
v -0.001761 -0.066000 0.009767
v -0.001862 -0.066000 0.009925
v -0.013156 -0.066000 0.004788
v -0.001949 -0.066000 0.010091
v -0.012688 -0.066000 0.005917
v -0.001761 -0.066000 0.012233
v -0.001647 -0.066000 0.012382
v -0.001520 -0.066000 0.012520
v 0.002020 -0.066000 0.011735
v 0.002077 -0.066000 0.011556
v 0.002150 -0.066000 0.011000
v 0.002142 -0.066000 0.010813
v 0.002117 -0.066000 0.010627
v -0.012124 -0.066000 0.007000
v -0.002020 -0.066000 0.010265
v -0.011468 -0.066000 0.008030
v -0.002077 -0.066000 0.010444
v -0.010725 -0.066000 0.008999
v -0.002117 -0.066000 0.010627
v -0.009899 -0.066000 0.009899
v -0.002142 -0.066000 0.010813
v -0.008999 -0.066000 0.010725
v -0.002150 -0.066000 0.011000
v -0.008030 -0.066000 0.011468
v -0.002142 -0.066000 0.011187
v -0.007000 -0.066000 0.012124
v -0.002117 -0.066000 0.011373
v -0.002077 -0.066000 0.011556
v 0.008030 -0.066000 0.011468
v 0.007000 -0.066000 0.012124
v 0.009899 -0.066000 0.009899
v 0.008999 -0.066000 0.010725
v 0.010725 -0.066000 0.008999
v 0.011468 -0.066000 0.008030
v 0.012124 -0.066000 0.007000
v 0.012688 -0.066000 0.005917
v 0.013408 -0.066000 0.004029
v 0.013156 -0.066000 0.004788
v 0.005917 -0.066000 0.012688
v 0.004788 -0.066000 0.013156
v 0.008980 -0.066000 -0.000735
v 0.008923 -0.066000 -0.000556
v 0.012382 -0.066000 -0.001647
v 0.013523 -0.066000 -0.003623
v 0.012520 -0.066000 -0.001520
v 0.013787 -0.066000 -0.002431
v 0.012647 -0.066000 -0.001382
v 0.008883 -0.066000 -0.000373
v 0.008858 -0.066000 -0.000187
v 0.008850 -0.066000 0.000000
v 0.008858 -0.066000 0.000187
v 0.008883 -0.066000 0.000373
v 0.013020 -0.066000 -0.000735
v 0.012949 -0.066000 -0.000909
v 0.013947 -0.066000 -0.001220
v 0.012862 -0.066000 -0.001075
v 0.012761 -0.066000 -0.001233
v 0.012233 -0.066000 -0.001761
v 0.012075 -0.066000 -0.001862
v 0.013156 -0.066000 -0.004788
v 0.011909 -0.066000 -0.001949
v 0.012688 -0.066000 -0.005917
v 0.010091 -0.066000 -0.001949
v 0.009925 -0.066000 -0.001862
v 0.009767 -0.066000 -0.001761
v 0.009618 -0.066000 -0.001647
v 0.014000 -0.066000 0.000000
v 0.013117 -0.066000 -0.000373
v 0.013077 -0.066000 -0.000556
v 0.004788 -0.066000 -0.013156
v 0.005917 -0.066000 -0.012688
v 0.010265 -0.066000 -0.002020
v 0.007000 -0.066000 -0.012124
v 0.010444 -0.066000 -0.002077
v 0.008030 -0.066000 -0.011468
v 0.010627 -0.066000 -0.002117
v 0.008999 -0.066000 -0.010725
v 0.010813 -0.066000 -0.002142
v 0.009899 -0.066000 -0.009899
v 0.011000 -0.066000 -0.002150
v 0.010725 -0.066000 -0.008999
v 0.011187 -0.066000 -0.002142
v 0.011468 -0.066000 -0.008030
v 0.011373 -0.066000 -0.002117
v 0.012124 -0.066000 -0.007000
v 0.011556 -0.066000 -0.002077
v 0.011735 -0.066000 -0.002020
v 0.009480 -0.066000 -0.001520
v 0.009353 -0.066000 -0.001382
v 0.009239 -0.066000 -0.001233
v 0.009138 -0.066000 -0.001075
v 0.009051 -0.066000 -0.000909
v 0.008923 -0.066000 0.000556
v 0.008980 -0.066000 0.000735
v 0.009051 -0.066000 0.000909
v 0.009138 -0.066000 0.001075
v 0.009239 -0.066000 0.001233
v 0.009353 -0.066000 0.001382
v 0.009480 -0.066000 0.001520
v 0.009618 -0.066000 0.001647
v 0.009767 -0.066000 0.001761
v 0.009925 -0.066000 0.001862
v 0.010091 -0.066000 0.001949
v 0.010265 -0.066000 0.002020
v 0.013523 -0.066000 0.003623
v 0.012382 -0.066000 0.001647
v 0.013787 -0.066000 0.002431
v 0.012520 -0.066000 0.001520
v 0.011735 -0.066000 0.002020
v 0.011909 -0.066000 0.001949
v 0.012075 -0.066000 0.001862
v 0.012233 -0.066000 0.001761
v 0.013142 -0.066000 0.000187
v 0.013150 -0.066000 -0.000000
v 0.013142 -0.066000 -0.000187
v 0.012647 -0.066000 0.001382
v 0.012761 -0.066000 0.001233
v 0.013947 -0.066000 0.001220
v 0.012862 -0.066000 0.001075
v 0.012949 -0.066000 0.000909
v 0.013020 -0.066000 0.000735
v 0.013077 -0.066000 0.000556
v 0.013117 -0.066000 0.000373
v 0.011000 -0.066000 0.002150
v 0.011187 -0.066000 0.002142
v 0.010444 -0.066000 0.002077
v 0.010627 -0.066000 0.002117
v 0.010813 -0.066000 0.002142
v 0.011373 -0.066000 0.002117
v 0.011556 -0.066000 0.002077
v 0.002510 -0.058000 -0.004347
v 0.000872 0.000000 -0.004944
v 0.000872 -0.058000 -0.004944
v 0.001299 0.000000 -0.004849
v 0.002122 0.000000 -0.004550
v 0.001717 0.000000 -0.004717
v 0.002510 0.000000 -0.004347
v 0.002879 0.000000 -0.004112
v 0.003227 -0.058000 -0.003846
v 0.003227 0.000000 -0.003846
v 0.002879 -0.058000 -0.004112
v 0.002122 -0.058000 -0.004550
v 0.001717 -0.058000 -0.004717
v 0.001299 -0.058000 -0.004849
v -0.002978 -0.003421 0.004041
v -0.002993 -0.003376 0.004030
v -0.003227 -0.058000 0.003846
v -0.002926 -0.003550 0.004079
v -0.002945 -0.003508 0.004065
v -0.002963 -0.003465 0.004053
v -0.003005 -0.003331 0.004021
v -0.003016 -0.003285 0.004013
v -0.003026 -0.003238 0.004006
v -0.003033 -0.003191 0.004000
v -0.003039 -0.003144 0.003995
v -0.003044 -0.003096 0.003992
v -0.003046 -0.003048 0.003990
v -0.003047 -0.003000 0.003990
v -0.003227 0.000000 0.003846
v -0.003046 -0.002952 0.003990
v -0.003044 -0.002904 0.003992
v -0.003039 -0.002856 0.003995
v -0.003033 -0.002809 0.004000
v -0.003026 -0.002762 0.004006
v -0.003016 -0.002715 0.004013
v -0.003005 -0.002669 0.004021
v -0.002993 -0.002624 0.004030
v -0.002978 -0.002579 0.004041
v -0.002963 -0.002535 0.004053
v -0.002945 -0.002492 0.004065
v -0.002720 -0.003843 0.004219
v -0.002780 -0.003778 0.004180
v -0.002879 -0.058000 0.004112
v -0.002549 -0.003976 0.004324
v -0.002586 -0.003953 0.004303
v -0.002655 -0.003901 0.004260
v -0.002510 -0.058000 0.004347
v -0.002510 -0.003998 0.004347
v -0.002512 -0.003997 0.004346
v -0.002834 -0.003707 0.004143
v -0.002880 -0.003637 0.004112
v -0.002883 -0.003631 0.004109
v -0.002122 -0.058000 0.004550
v -0.002122 -0.004100 0.004550
v -0.002185 -0.004096 0.004519
v -0.002228 -0.004091 0.004498
v -0.002271 -0.004083 0.004477
v -0.002313 -0.004074 0.004456
v -0.002354 -0.004063 0.004434
v -0.002395 -0.004049 0.004412
v -0.002435 -0.004034 0.004390
v -0.001924 -0.004083 0.004637
v -0.001967 -0.004091 0.004618
v -0.001717 -0.058000 0.004717
v -0.001751 -0.004034 0.004705
v -0.001794 -0.004049 0.004689
v -0.001837 -0.004063 0.004672
v -0.001880 -0.004074 0.004655
v -0.002011 -0.004096 0.004599
v -0.002055 -0.004099 0.004580
v -0.002099 -0.004100 0.004560
v -0.001367 -0.003778 0.004830
v -0.001435 -0.003843 0.004810
v -0.001509 -0.003901 0.004788
v -0.001586 -0.003953 0.004763
v -0.001626 -0.003976 0.004749
v -0.001667 -0.003997 0.004735
v -0.001717 -0.004020 0.004717
v -0.001058 -0.002856 0.004907
v -0.001053 -0.002904 0.004908
v -0.000872 0.000000 0.004944
v -0.001086 -0.002715 0.004901
v -0.001075 -0.002762 0.004904
v -0.001065 -0.002809 0.004906
v -0.001132 -0.002579 0.004891
v -0.001115 -0.002624 0.004895
v -0.001099 -0.002669 0.004898
v -0.001195 -0.002450 0.004876
v -0.001172 -0.002492 0.004881
v -0.001151 -0.002535 0.004886
v -0.001049 -0.002952 0.004909
v -0.001048 -0.003000 0.004909
v -0.001049 -0.003048 0.004909
v -0.000872 -0.058000 0.004944
v -0.001053 -0.003096 0.004908
v -0.001058 -0.003143 0.004907
v -0.001065 -0.003191 0.004906
v -0.001075 -0.003238 0.004904
v -0.001086 -0.003285 0.004901
v -0.001099 -0.003331 0.004898
v -0.001115 -0.003376 0.004895
v -0.001132 -0.003421 0.004891
v -0.001151 -0.003465 0.004886
v -0.001172 -0.003508 0.004881
v -0.001195 -0.003550 0.004876
v -0.001246 -0.003631 0.004863
v -0.001299 -0.058000 0.004849
v -0.001299 -0.003702 0.004849
v -0.001303 -0.003707 0.004848
v -0.001435 -0.002157 0.004810
v -0.001367 -0.002222 0.004830
v -0.001299 0.000000 0.004849
v -0.001626 -0.002024 0.004749
v -0.001586 -0.002047 0.004763
v -0.001509 -0.002099 0.004788
v -0.001303 -0.002293 0.004848
v -0.001299 -0.002298 0.004849
v -0.001246 -0.002369 0.004863
v -0.002099 -0.001900 0.004560
v -0.002055 -0.001901 0.004580
v -0.002122 0.000000 0.004550
v -0.001717 0.000000 0.004717
v -0.002011 -0.001904 0.004599
v -0.001967 -0.001909 0.004618
v -0.001924 -0.001917 0.004637
v -0.001880 -0.001926 0.004655
v -0.001837 -0.001937 0.004672
v -0.001794 -0.001951 0.004689
v -0.001751 -0.001966 0.004705
v -0.001717 -0.001980 0.004717
v -0.001667 -0.002003 0.004735
v -0.002510 0.000000 0.004347
v -0.002435 -0.001966 0.004390
v -0.002395 -0.001951 0.004412
v -0.002354 -0.001937 0.004434
v -0.002313 -0.001926 0.004456
v -0.002271 -0.001917 0.004477
v -0.002228 -0.001909 0.004498
v -0.002185 -0.001904 0.004519
v -0.002122 -0.001900 0.004550
v -0.002834 -0.002293 0.004143
v -0.002780 -0.002222 0.004180
v -0.002879 0.000000 0.004112
v -0.002926 -0.002450 0.004079
v -0.002883 -0.002369 0.004109
v -0.002880 -0.002363 0.004112
v -0.002720 -0.002157 0.004219
v -0.002655 -0.002099 0.004260
v -0.002586 -0.002047 0.004303
v -0.002549 -0.002024 0.004325
v -0.002512 -0.002003 0.004346
v -0.002510 -0.002002 0.004347
v 0.000438 -0.058000 -0.005001
v 0.000438 0.000000 -0.005001
v -0.000000 -0.058000 -0.005020
v 0.000000 0.000000 -0.005020
v -0.000438 -0.058000 -0.005001
v -0.000438 0.000000 -0.005001
v -0.000872 -0.058000 -0.004944
v -0.000872 0.000000 -0.004944
v -0.001299 -0.058000 -0.004849
v -0.001299 0.000000 -0.004849
v -0.001717 -0.058000 -0.004717
v -0.001717 0.000000 -0.004717
v -0.002122 -0.058000 -0.004550
v -0.002122 0.000000 -0.004550
v -0.002510 -0.058000 -0.004347
v -0.002510 0.000000 -0.004347
v -0.002879 -0.058000 -0.004112
v -0.002879 0.000000 -0.004112
v -0.003227 -0.058000 -0.003846
v -0.003227 0.000000 -0.003846
v -0.003550 -0.058000 -0.003550
v -0.003550 0.000000 -0.003550
v -0.003846 -0.058000 -0.003227
v -0.003846 0.000000 -0.003227
v -0.004112 -0.058000 -0.002879
v -0.004112 0.000000 -0.002879
v -0.004347 -0.058000 -0.002510
v -0.004347 0.000000 -0.002510
v -0.004550 -0.058000 -0.002122
v -0.004550 0.000000 -0.002122
v -0.004717 -0.058000 -0.001717
v -0.004717 0.000000 -0.001717
v -0.004849 -0.058000 -0.001299
v -0.004849 0.000000 -0.001299
v -0.004944 -0.058000 -0.000872
v -0.004944 0.000000 -0.000872
v -0.005001 -0.058000 -0.000438
v -0.005001 0.000000 -0.000438
v -0.005020 -0.058000 0.000000
v -0.005020 0.000000 -0.000000
v -0.005001 -0.058000 0.000438
v -0.005001 0.000000 0.000438
v -0.004944 -0.058000 0.000872
v -0.004944 0.000000 0.000872
v -0.004849 -0.058000 0.001299
v -0.004849 0.000000 0.001299
v -0.004717 -0.058000 0.001717
v -0.004717 0.000000 0.001717
v -0.004550 -0.058000 0.002122
v -0.004550 0.000000 0.002122
v -0.004347 -0.058000 0.002510
v -0.004347 0.000000 0.002510
v -0.004112 -0.058000 0.002879
v -0.004112 0.000000 0.002879
v -0.003846 -0.058000 0.003227
v -0.003846 0.000000 0.003227
v -0.003550 -0.058000 0.003550
v -0.003550 0.000000 0.003550
v -0.000438 -0.058000 0.005001
v -0.000438 0.000000 0.005001
v 0.000000 -0.058000 0.005020
v 0.000000 0.000000 0.005020
v 0.000438 -0.058000 0.005001
v 0.000438 0.000000 0.005001
v 0.000872 -0.058000 0.004944
v 0.000872 0.000000 0.004944
v 0.001299 -0.058000 0.004849
v 0.001299 0.000000 0.004849
v 0.001717 -0.058000 0.004717
v 0.001717 0.000000 0.004717
v 0.002122 -0.058000 0.004550
v 0.002122 0.000000 0.004550
v 0.002510 -0.058000 0.004347
v 0.002510 0.000000 0.004347
v 0.002879 -0.058000 0.004112
v 0.002879 0.000000 0.004112
v 0.003227 -0.058000 0.003846
v 0.003227 0.000000 0.003846
v 0.003550 -0.058000 0.003550
v 0.003550 0.000000 0.003550
v 0.003846 -0.058000 0.003227
v 0.003846 0.000000 0.003227
v 0.004112 -0.058000 0.002879
v 0.004112 0.000000 0.002879
v 0.004347 -0.058000 0.002510
v 0.004347 0.000000 0.002510
v 0.004550 -0.058000 0.002122
v 0.004550 0.000000 0.002122
v 0.004717 -0.058000 0.001717
v 0.004717 0.000000 0.001717
v 0.004849 -0.058000 0.001299
v 0.004849 0.000000 0.001299
v 0.004944 -0.058000 0.000872
v 0.004944 0.000000 0.000872
v 0.005001 -0.058000 0.000438
v 0.005001 0.000000 0.000438
v 0.005020 -0.058000 -0.000000
v 0.005020 0.000000 0.000000
v 0.005001 -0.058000 -0.000438
v 0.005001 0.000000 -0.000438
v 0.004944 -0.058000 -0.000872
v 0.004944 0.000000 -0.000872
v 0.004849 -0.058000 -0.001299
v 0.004849 0.000000 -0.001299
v 0.004717 -0.058000 -0.001717
v 0.004717 0.000000 -0.001717
v 0.004550 -0.058000 -0.002122
v 0.004550 0.000000 -0.002122
v 0.004347 -0.058000 -0.002510
v 0.004347 0.000000 -0.002510
v 0.004112 -0.058000 -0.002879
v 0.004112 0.000000 -0.002879
v 0.003846 -0.058000 -0.003227
v 0.003846 0.000000 -0.003227
v 0.003550 -0.058000 -0.003550
v 0.003550 0.000000 -0.003550
v -0.002444 -0.002904 0.002689
v -0.002432 -0.002809 0.002694
v -0.002413 -0.002715 0.002703
v -0.002387 -0.002624 0.002715
v -0.002354 -0.002535 0.002730
v -0.002267 -0.002369 0.002770
v -0.002314 -0.002450 0.002749
v -0.001948 -0.002047 0.002917
v -0.002021 -0.002099 0.002883
v -0.002091 -0.002157 0.002851
v -0.002155 -0.002222 0.002822
v -0.002214 -0.002293 0.002795
v -0.001871 -0.002003 0.002952
v -0.001790 -0.001966 0.002990
v -0.001707 -0.001937 0.003028
v -0.001622 -0.001917 0.003067
v -0.001535 -0.001904 0.003107
v -0.001448 -0.001900 0.003147
v -0.001361 -0.001904 0.003187
v -0.001275 -0.001917 0.003227
v -0.001190 -0.001937 0.003266
v -0.001106 -0.001966 0.003304
v -0.001026 -0.002003 0.003341
v -0.000683 -0.002293 0.003499
v -0.000742 -0.002222 0.003472
v -0.000806 -0.002157 0.003442
v -0.000875 -0.002099 0.003411
v -0.000949 -0.002047 0.003377
v -0.000630 -0.002369 0.003524
v -0.000583 -0.002450 0.003545
v -0.000543 -0.002535 0.003564
v -0.000509 -0.002624 0.003579
v -0.000483 -0.002715 0.003591
v -0.000464 -0.002809 0.003600
v -0.000453 -0.002904 0.003605
v -0.000453 -0.003096 0.003605
v -0.000449 -0.003000 0.003607
v -0.000464 -0.003191 0.003600
v -0.000483 -0.003285 0.003591
v -0.000509 -0.003376 0.003579
v -0.000543 -0.003465 0.003564
v -0.000630 -0.003631 0.003524
v -0.000583 -0.003550 0.003545
v -0.000949 -0.003953 0.003377
v -0.000875 -0.003901 0.003411
v -0.000806 -0.003843 0.003442
v -0.000742 -0.003778 0.003472
v -0.000683 -0.003707 0.003499
v -0.001026 -0.003997 0.003341
v -0.001106 -0.004034 0.003304
v -0.001190 -0.004063 0.003266
v -0.001275 -0.004083 0.003227
v -0.001361 -0.004096 0.003187
v -0.001448 -0.004100 0.003147
v -0.001535 -0.004096 0.003107
v -0.001622 -0.004083 0.003067
v -0.001707 -0.004063 0.003028
v -0.001790 -0.004034 0.002990
v -0.001871 -0.003997 0.002952
v -0.002214 -0.003707 0.002795
v -0.002155 -0.003778 0.002822
v -0.002091 -0.003843 0.002851
v -0.002021 -0.003901 0.002883
v -0.001948 -0.003953 0.002917
v -0.002267 -0.003631 0.002770
v -0.002314 -0.003550 0.002749
v -0.002354 -0.003465 0.002730
v -0.002387 -0.003376 0.002715
v -0.002413 -0.003285 0.002703
v -0.002432 -0.003191 0.002694
v -0.002444 -0.003096 0.002689
v -0.002447 -0.003000 0.002687
v 0.007000 -0.062900 0.007000
v 0.000369 0.000000 0.003983
v -0.003265 0.000000 0.002311
# 1566 vertices, 0 vertices normals

f 1 2 3
f 4 5 2
f 5 6 2
f 2 6 3
f 7 8 4
f 8 9 4
f 4 9 5
f 10 11 7
f 11 12 7
f 7 12 8
f 13 14 15
f 14 16 15
f 15 16 10
f 16 17 10
f 10 17 11
f 18 19 13
f 19 20 13
f 13 20 14
f 21 22 23
f 22 24 23
f 23 24 25
f 24 26 25
f 25 26 27
f 26 18 27
f 27 18 28
f 18 13 28
f 29 30 21
f 30 31 21
f 21 31 22
f 32 33 29
f 33 34 29
f 29 34 30
f 35 36 32
f 36 37 32
f 32 37 33
f 38 39 35
f 39 40 35
f 35 40 36
f 41 42 38
f 42 43 38
f 38 43 39
f 44 45 41
f 45 46 41
f 41 46 42
f 47 48 44
f 48 49 44
f 44 49 45
f 50 51 47
f 51 52 47
f 47 52 48
f 53 54 50
f 54 55 50
f 50 55 51
f 56 57 53
f 57 58 53
f 53 58 54
f 59 60 56
f 60 61 56
f 56 61 57
f 62 63 64
f 63 65 64
f 64 65 66
f 65 67 66
f 66 67 68
f 67 69 68
f 68 69 70
f 69 71 70
f 70 71 59
f 71 72 59
f 59 72 60
f 73 74 62
f 74 75 62
f 62 75 63
f 62 76 73
f 76 77 73
f 73 77 78
f 79 80 77
f 80 81 77
f 77 81 78
f 82 83 84
f 84 85 82
f 85 86 82
f 82 86 79
f 86 87 79
f 79 87 80
f 88 89 90
f 90 91 88
f 91 92 88
f 88 92 83
f 92 93 83
f 83 93 84
f 94 95 96
f 95 97 96
f 96 97 89
f 97 98 89
f 89 98 90
f 99 100 94
f 100 101 94
f 94 101 95
f 102 103 99
f 103 104 99
f 99 104 100
f 105 106 102
f 106 107 102
f 102 107 103
f 108 109 105
f 109 110 105
f 105 110 106
f 111 112 113
f 112 114 113
f 113 114 108
f 114 115 108
f 108 115 109
f 116 117 118
f 117 119 118
f 118 119 120
f 119 121 120
f 120 121 122
f 121 123 122
f 122 123 124
f 123 125 124
f 124 125 111
f 125 126 111
f 111 126 112
f 127 128 116
f 128 129 116
f 116 129 117
f 130 131 127
f 131 132 127
f 127 132 128
f 133 134 130
f 134 135 130
f 130 135 131
f 136 137 133
f 137 138 133
f 133 138 134
f 139 140 136
f 140 141 136
f 136 141 137
f 142 143 139
f 143 144 139
f 139 144 140
f 145 146 142
f 146 147 142
f 142 147 143
f 148 149 145
f 149 150 145
f 145 150 146
f 151 152 148
f 152 153 148
f 148 153 149
f 154 155 151
f 155 156 151
f 151 156 152
f 157 158 154
f 158 159 154
f 154 159 155
f 160 161 162
f 161 163 162
f 162 163 164
f 163 165 164
f 164 165 166
f 165 167 166
f 166 167 168
f 167 169 168
f 168 169 157
f 169 170 157
f 157 170 158
f 171 172 160
f 172 173 160
f 160 173 161
f 160 174 171
f 174 175 171
f 171 175 176
f 177 178 175
f 178 179 175
f 175 179 176
f 180 181 182
f 182 183 180
f 183 184 180
f 180 184 177
f 184 185 177
f 177 185 178
f 186 187 188
f 188 189 186
f 189 190 186
f 186 190 181
f 190 191 181
f 181 191 182
f 3 192 1
f 192 193 1
f 1 193 194
f 193 195 194
f 194 195 187
f 195 196 187
f 187 196 188
f 197 198 199
f 198 200 199
f 199 200 201
f 200 202 201
f 202 200 203
f 200 204 203
f 198 197 205
f 197 206 205
f 127 116 205
f 139 136 205
f 198 77 76
f 15 200 13
f 200 28 13
f 157 154 204
f 154 151 204
f 136 133 205
f 133 130 205
f 205 130 127
f 205 96 89
f 205 89 198
f 89 88 198
f 198 88 83
f 83 82 198
f 82 79 198
f 198 79 77
f 151 148 204
f 148 145 204
f 204 145 205
f 145 142 205
f 205 142 139
f 116 118 205
f 118 120 205
f 205 120 122
f 59 56 198
f 56 53 198
f 198 53 50
f 41 200 44
f 200 198 44
f 44 198 47
f 198 50 47
f 164 166 204
f 166 168 204
f 204 168 157
f 122 124 205
f 124 111 205
f 205 111 113
f 76 62 198
f 62 64 198
f 198 64 66
f 23 25 200
f 25 27 200
f 200 27 28
f 66 68 198
f 68 70 198
f 198 70 59
f 113 108 205
f 108 105 205
f 205 105 102
f 102 99 205
f 99 94 205
f 205 94 96
f 41 38 200
f 38 35 200
f 200 35 32
f 32 29 200
f 29 21 200
f 200 21 23
f 187 186 204
f 186 181 204
f 204 181 180
f 180 177 204
f 177 175 204
f 204 175 174
f 15 10 200
f 10 7 200
f 200 7 4
f 4 2 200
f 2 1 200
f 200 1 204
f 1 194 204
f 204 194 187
f 174 160 204
f 160 162 204
f 204 162 164
f 207 208 209
f 208 210 209
f 209 210 211
f 210 212 211
f 211 212 213
f 212 214 213
f 213 214 215
f 214 216 215
f 215 216 217
f 216 218 217
f 217 218 219
f 218 220 219
f 219 220 221
f 220 222 221
f 221 222 223
f 222 224 223
f 223 224 225
f 224 226 225
f 225 226 227
f 226 228 227
f 227 228 229
f 228 230 229
f 229 230 231
f 230 232 231
f 231 232 233
f 232 234 233
f 233 234 235
f 234 236 235
f 235 236 237
f 236 238 237
f 237 238 239
f 238 240 239
f 239 240 241
f 240 242 241
f 241 242 243
f 242 244 243
f 243 244 245
f 244 246 245
f 245 246 247
f 246 248 247
f 247 248 249
f 248 250 249
f 249 250 251
f 250 252 251
f 251 252 253
f 252 254 253
f 253 254 255
f 254 256 255
f 255 256 257
f 256 258 257
f 257 258 259
f 258 260 259
f 259 260 261
f 260 262 261
f 261 262 263
f 262 264 263
f 263 264 265
f 264 266 265
f 265 266 267
f 266 268 267
f 267 268 269
f 268 270 269
f 269 270 271
f 270 272 271
f 271 272 273
f 272 274 273
f 273 274 275
f 274 276 275
f 275 276 277
f 276 278 277
f 277 278 279
f 278 280 279
f 279 280 281
f 280 282 281
f 281 282 283
f 282 284 283
f 283 284 285
f 284 286 285
f 285 286 287
f 286 288 287
f 287 288 289
f 288 290 289
f 289 290 291
f 290 292 291
f 291 292 293
f 292 294 293
f 293 294 295
f 294 296 295
f 295 296 297
f 296 298 297
f 297 298 299
f 298 300 299
f 299 300 301
f 300 302 301
f 301 302 303
f 302 304 303
f 303 304 305
f 304 306 305
f 305 306 307
f 306 308 307
f 307 308 309
f 308 310 309
f 309 310 311
f 310 312 311
f 311 312 313
f 312 314 313
f 313 314 315
f 314 316 315
f 315 316 317
f 316 318 317
f 317 318 319
f 318 320 319
f 319 320 321
f 320 322 321
f 321 322 323
f 322 324 323
f 323 324 325
f 324 326 325
f 325 326 327
f 326 328 327
f 327 328 329
f 328 330 329
f 329 330 331
f 330 332 331
f 331 332 333
f 332 334 333
f 333 334 335
f 334 336 335
f 335 336 337
f 336 338 337
f 337 338 339
f 338 340 339
f 339 340 341
f 340 342 341
f 341 342 343
f 342 344 343
f 343 344 345
f 344 346 345
f 345 346 347
f 346 348 347
f 347 348 349
f 348 350 349
f 349 350 207
f 350 208 207
f 351 352 353
f 354 355 356
f 357 358 359
f 360 361 356
f 361 362 356
f 356 362 354
f 363 364 365
f 352 351 366
f 367 368 369
f 370 371 372
f 371 373 372
f 372 373 374
f 372 375 370
f 375 376 370
f 370 376 377
f 376 378 377
f 377 378 379
f 378 380 379
f 379 380 381
f 380 382 381
f 381 382 353
f 382 383 353
f 353 383 351
f 351 384 366
f 384 385 366
f 366 385 355
f 385 386 355
f 355 386 356
f 357 359 387
f 359 388 387
f 387 388 389
f 367 369 390
f 356 391 360
f 391 392 360
f 360 392 393
f 392 394 393
f 393 394 395
f 396 397 393
f 397 398 393
f 398 399 400
f 399 401 400
f 402 403 404
f 403 405 404
f 404 405 388
f 405 406 388
f 388 406 389
f 407 408 409
f 410 411 364
f 411 412 364
f 364 412 365
f 395 413 393
f 413 414 393
f 393 414 396
f 401 415 400
f 415 416 400
f 400 416 417
f 417 418 400
f 418 419 400
f 400 419 420
f 420 421 400
f 421 422 400
f 400 422 423
f 358 424 359
f 424 425 359
f 359 425 367
f 425 426 367
f 367 426 368
f 373 427 374
f 427 428 374
f 374 428 365
f 428 429 365
f 365 429 363
f 430 431 432
f 431 423 432
f 432 423 433
f 423 422 433
f 430 434 431
f 434 435 431
f 431 435 404
f 435 436 404
f 404 436 402
f 369 437 390
f 437 438 390
f 390 438 408
f 438 439 408
f 408 439 409
f 409 440 407
f 440 441 407
f 407 441 442
f 441 443 442
f 442 443 444
f 443 445 444
f 444 445 446
f 445 447 446
f 446 447 448
f 447 449 448
f 448 449 450
f 449 451 450
f 450 451 452
f 451 453 452
f 452 453 454
f 453 455 454
f 454 455 456
f 455 457 456
f 456 457 458
f 457 459 458
f 458 459 460
f 459 461 460
f 460 461 462
f 463 464 465
f 463 465 466
f 465 467 466
f 466 467 468
f 469 470 471
f 472 473 474
f 473 466 474
f 474 466 475
f 466 468 475
f 476 477 478
f 479 480 481
f 480 482 481
f 481 482 483
f 484 485 486
f 487 488 489
f 489 490 487
f 490 491 487
f 487 491 463
f 491 492 463
f 463 492 464
f 493 364 494
f 364 495 494
f 496 497 498
f 497 499 498
f 498 499 500
f 499 501 500
f 502 503 504
f 483 505 481
f 505 506 481
f 481 506 507
f 493 508 364
f 508 509 364
f 364 509 510
f 511 512 513
f 512 514 513
f 513 514 498
f 514 515 498
f 498 515 496
f 471 470 503
f 470 516 503
f 503 516 504
f 504 517 502
f 517 518 502
f 502 518 519
f 472 520 473
f 520 521 473
f 473 521 522
f 521 523 522
f 522 523 481
f 523 524 481
f 481 524 479
f 507 525 481
f 525 526 481
f 481 526 477
f 526 527 477
f 527 528 477
f 528 529 477
f 477 529 530
f 530 531 477
f 531 532 477
f 477 532 533
f 533 534 477
f 534 535 477
f 477 535 478
f 488 487 536
f 487 537 536
f 536 537 538
f 364 539 495
f 539 540 495
f 495 540 541
f 501 542 500
f 542 543 500
f 500 543 544
f 543 545 544
f 544 545 546
f 546 547 544
f 547 548 544
f 544 548 471
f 548 549 471
f 471 549 469
f 550 551 552
f 551 553 552
f 552 553 554
f 510 555 364
f 555 556 364
f 364 556 557
f 557 558 364
f 558 460 364
f 364 460 410
f 460 462 410
f 558 559 460
f 559 560 460
f 460 560 561
f 511 513 562
f 513 563 562
f 562 563 564
f 563 460 564
f 564 460 565
f 566 567 568
f 567 569 568
f 568 569 570
f 569 571 570
f 570 571 478
f 571 572 478
f 478 572 476
f 573 574 575
f 576 577 578
f 577 579 578
f 578 579 580
f 581 582 537
f 582 583 537
f 537 583 538
f 584 585 586
f 585 587 586
f 586 587 588
f 587 589 588
f 588 589 590
f 589 591 590
f 590 591 592
f 591 593 592
f 592 593 594
f 593 595 594
f 594 595 486
f 595 596 486
f 486 596 484
f 485 484 597
f 484 598 597
f 597 598 599
f 598 600 599
f 599 600 541
f 600 601 541
f 541 601 495
f 561 602 460
f 602 603 460
f 460 603 604
f 604 605 460
f 605 606 460
f 460 606 565
f 568 607 566
f 607 608 566
f 566 608 609
f 608 610 609
f 609 610 611
f 610 612 611
f 611 612 613
f 612 614 613
f 613 614 553
f 614 615 553
f 553 615 554
f 616 617 618
f 617 619 618
f 575 620 573
f 620 621 573
f 573 621 581
f 621 622 581
f 581 622 582
f 619 623 618
f 623 624 618
f 618 624 625
f 586 626 584
f 626 627 584
f 584 627 628
f 627 629 628
f 628 629 630
f 629 616 630
f 630 616 631
f 632 633 634
f 633 635 634
f 616 618 631
f 618 636 631
f 631 636 637
f 636 638 637
f 637 638 578
f 638 639 578
f 578 639 576
f 580 640 578
f 640 641 578
f 578 641 642
f 641 643 642
f 642 643 634
f 643 644 634
f 634 644 632
f 574 645 575
f 645 634 575
f 575 634 646
f 634 635 646
f 518 647 519
f 647 648 519
f 519 648 649
f 648 650 649
f 649 650 651
f 650 652 651
f 651 652 653
f 652 654 653
f 653 654 655
f 654 656 655
f 655 656 657
f 656 658 657
f 657 658 659
f 658 660 659
f 659 660 661
f 660 662 661
f 661 662 574
f 662 663 574
f 574 663 645
f 550 552 664
f 552 665 664
f 664 665 666
f 665 667 666
f 666 667 625
f 667 668 625
f 625 668 618
f 669 670 671
f 672 673 674
f 675 676 677
f 678 679 680
f 681 682 683
f 684 685 481
f 685 686 481
f 481 686 687
f 678 680 688
f 689 690 691
f 690 681 691
f 691 681 692
f 681 683 692
f 689 693 690
f 693 694 690
f 690 694 695
f 694 696 695
f 695 696 697
f 698 699 700
f 701 702 393
f 684 481 703
f 481 477 703
f 703 477 704
f 682 681 705
f 681 706 705
f 705 706 707
f 698 700 708
f 677 709 675
f 709 710 675
f 675 710 711
f 711 712 675
f 712 713 675
f 675 713 714
f 671 670 715
f 670 716 715
f 715 716 717
f 716 393 717
f 717 393 718
f 704 477 719
f 477 720 719
f 719 720 721
f 679 678 722
f 678 723 722
f 722 723 724
f 680 725 688
f 725 726 688
f 688 726 706
f 726 727 706
f 706 727 707
f 697 728 695
f 728 729 695
f 695 729 698
f 729 730 698
f 698 730 699
f 700 731 708
f 731 732 708
f 708 732 675
f 732 733 675
f 675 733 676
f 734 735 393
f 735 736 393
f 393 736 701
f 702 737 393
f 737 738 393
f 393 738 718
f 669 671 739
f 671 740 739
f 739 740 741
f 740 742 741
f 741 742 743
f 742 744 743
f 743 744 745
f 744 746 745
f 745 746 747
f 746 748 747
f 747 748 749
f 748 750 749
f 749 750 674
f 750 751 674
f 674 751 672
f 721 752 719
f 752 753 719
f 719 753 754
f 755 756 673
f 756 757 673
f 673 757 674
f 673 758 755
f 758 759 755
f 755 759 754
f 759 760 754
f 754 760 719
f 724 723 761
f 723 762 761
f 761 762 763
f 762 764 763
f 763 764 765
f 764 766 765
f 765 766 767
f 766 768 767
f 767 768 769
f 768 770 769
f 769 770 771
f 770 772 771
f 771 772 773
f 772 774 773
f 773 774 775
f 774 776 775
f 775 776 687
f 776 777 687
f 687 777 481
f 778 779 393
f 780 781 393
f 714 734 675
f 734 393 675
f 675 393 782
f 393 779 782
f 780 393 783
f 398 400 393
f 400 784 393
f 393 784 783
f 781 785 393
f 785 786 393
f 393 786 778
f 787 513 788
f 513 498 788
f 788 498 789
f 498 500 789
f 789 500 790
f 500 544 790
f 790 544 791
f 544 471 791
f 791 471 792
f 471 503 792
f 792 503 793
f 503 502 793
f 793 502 794
f 502 519 794
f 794 519 795
f 519 649 795
f 795 649 796
f 649 651 796
f 796 651 797
f 651 653 797
f 797 653 798
f 653 655 798
f 798 655 799
f 655 657 799
f 799 657 800
f 657 659 800
f 800 659 801
f 659 661 801
f 801 661 802
f 661 574 802
f 802 574 803
f 574 573 803
f 803 573 804
f 573 581 804
f 804 581 805
f 581 537 805
f 805 537 806
f 537 487 806
f 806 487 807
f 487 463 807
f 807 463 808
f 463 466 808
f 808 466 809
f 466 473 809
f 809 473 810
f 473 522 810
f 810 522 811
f 522 481 811
f 811 481 812
f 481 777 812
f 777 776 812
f 812 776 813
f 776 774 813
f 813 774 814
f 774 772 814
f 814 772 815
f 772 770 815
f 815 770 816
f 770 768 816
f 816 768 817
f 768 766 817
f 817 766 818
f 766 764 818
f 818 764 819
f 764 762 819
f 819 762 820
f 762 723 820
f 820 723 821
f 723 678 821
f 821 678 822
f 678 688 822
f 822 688 823
f 688 706 823
f 823 706 824
f 706 681 824
f 824 681 825
f 681 690 825
f 825 690 826
f 690 695 826
f 826 695 827
f 695 698 827
f 827 698 828
f 698 708 828
f 828 708 829
f 708 675 829
f 829 675 830
f 675 782 830
f 830 782 831
f 782 779 831
f 831 779 832
f 779 778 832
f 832 778 833
f 778 786 833
f 833 786 834
f 786 785 834
f 834 785 835
f 785 781 835
f 835 781 836
f 781 780 836
f 836 780 837
f 780 783 837
f 837 783 838
f 783 784 838
f 838 784 839
f 784 400 839
f 839 400 840
f 400 423 840
f 840 423 841
f 423 431 841
f 841 431 842
f 431 404 842
f 842 404 843
f 404 388 843
f 843 388 844
f 388 359 844
f 844 359 845
f 359 367 845
f 845 367 846
f 367 390 846
f 846 390 847
f 390 408 847
f 847 408 848
f 408 407 848
f 848 407 849
f 407 442 849
f 849 442 850
f 442 444 850
f 850 444 851
f 444 446 851
f 851 446 852
f 446 448 852
f 852 448 853
f 448 450 853
f 853 450 854
f 450 452 854
f 854 452 855
f 452 454 855
f 855 454 856
f 454 456 856
f 856 456 857
f 456 458 857
f 857 458 858
f 458 460 858
f 858 460 787
f 460 563 787
f 787 563 513
f 859 860 861
f 862 863 864
f 864 865 862
f 865 866 862
f 862 866 867
f 868 869 870
f 871 872 873
f 872 874 873
f 873 874 861
f 874 875 861
f 861 875 859
f 876 877 878
f 877 879 878
f 880 881 882
f 881 877 882
f 882 877 883
f 877 876 883
f 867 884 862
f 884 885 862
f 862 885 886
f 886 887 862
f 887 888 862
f 862 888 889
f 889 890 862
f 890 891 862
f 862 891 892
f 893 894 895
f 894 896 895
f 895 896 897
f 896 898 897
f 899 900 901
f 900 902 901
f 901 902 903
f 902 904 903
f 904 905 903
f 903 905 906
f 907 908 909
f 908 910 909
f 911 912 909
f 912 913 909
f 909 913 914
f 915 916 877
f 916 917 877
f 877 917 918
f 918 919 877
f 919 920 877
f 877 920 879
f 921 922 923
f 922 924 923
f 923 924 925
f 924 926 925
f 925 926 927
f 926 928 927
f 927 928 898
f 928 929 898
f 898 929 897
f 870 869 873
f 869 930 873
f 873 930 871
f 931 932 877
f 932 933 877
f 877 933 915
f 934 935 936
f 937 938 939
f 893 940 894
f 940 941 894
f 894 941 942
f 941 943 942
f 906 944 903
f 944 945 903
f 903 945 946
f 945 947 946
f 946 947 948
f 949 950 951
f 950 946 951
f 951 946 952
f 946 948 952
f 953 954 955
f 954 956 955
f 957 958 862
f 958 959 862
f 862 959 960
f 931 877 961
f 877 962 961
f 961 962 963
f 892 964 862
f 964 965 862
f 862 965 909
f 965 966 909
f 909 966 907
f 910 967 909
f 967 968 909
f 909 968 911
f 913 969 914
f 969 970 914
f 914 970 870
f 970 971 870
f 870 971 868
f 860 972 861
f 972 973 861
f 861 973 974
f 973 975 974
f 974 975 976
f 936 935 977
f 935 978 977
f 977 978 979
f 943 980 942
f 980 981 942
f 942 981 901
f 981 982 901
f 901 982 899
f 949 983 950
f 983 984 950
f 950 984 956
f 984 985 956
f 956 985 955
f 953 986 954
f 986 987 954
f 954 987 988
f 989 990 991
f 990 974 991
f 991 974 992
f 974 976 992
f 989 993 990
f 993 994 990
f 990 994 978
f 994 995 978
f 978 995 979
f 936 996 934
f 996 997 934
f 934 997 998
f 997 999 998
f 998 999 1000
f 999 1001 1000
f 1000 1001 1002
f 1001 1003 1002
f 1002 1003 1004
f 1003 1005 1004
f 1004 1005 923
f 1005 1006 923
f 923 1006 921
f 1007 1008 938
f 1008 1009 938
f 938 1009 939
f 960 1010 862
f 1010 1011 862
f 862 1011 961
f 882 1012 880
f 1012 1013 880
f 880 1013 1014
f 1013 1015 1014
f 1014 1015 939
f 1015 1016 939
f 939 1016 937
f 1007 1017 1008
f 1017 1018 1008
f 1008 1018 1019
f 922 1020 924
f 1020 1008 924
f 924 1008 1021
f 1008 1019 1021
f 963 1022 961
f 1022 1023 961
f 961 1023 862
f 1023 1024 862
f 862 1024 863
f 988 1025 954
f 1025 1026 954
f 954 1026 1027
f 1027 1028 954
f 1028 1029 954
f 954 1029 862
f 1029 1030 862
f 862 1030 957
f 1031 1032 1033
f 1034 1035 862
f 1036 1037 1038
f 1032 1039 1033
f 1039 1040 1033
f 1033 1040 1041
f 1040 1042 1041
f 1041 1042 1043
f 1044 1045 862
f 1037 1036 1046
f 1036 1047 1046
f 1046 1047 1048
f 1038 1049 1036
f 1049 1050 1036
f 1036 1050 1033
f 1050 1051 1033
f 1033 1051 1031
f 1052 1053 862
f 1035 1054 862
f 1054 1055 862
f 862 1055 1056
f 1043 1057 1041
f 1057 1058 1041
f 1041 1058 1059
f 1058 1060 1059
f 1060 1061 1059
f 1061 1062 1059
f 1059 1062 1063
f 1062 1064 1063
f 1064 1065 1063
f 1063 1065 1066
f 1065 1067 1066
f 1066 1067 1068
f 1053 1069 862
f 1069 1070 862
f 862 1070 1071
f 1045 1072 862
f 1072 1073 862
f 862 1073 1034
f 1074 1075 1076
f 1075 1077 1076
f 1076 1077 1078
f 1077 1079 1078
f 1066 1080 1081
f 1071 1082 862
f 1082 1083 862
f 862 1083 1044
f 1056 1084 862
f 1084 1085 862
f 862 1085 954
f 1085 1086 954
f 954 1086 1087
f 1087 1088 954
f 1088 1089 954
f 954 1089 1090
f 1090 1091 954
f 1091 1092 954
f 954 1092 1093
f 1093 1094 954
f 1094 1095 954
f 954 1095 1096
f 1095 1097 1096
f 1096 1097 1098
f 1074 1099 1075
f 1099 1100 1075
f 1075 1100 1047
f 1100 1101 1047
f 1047 1101 1048
f 1068 1102 1066
f 1102 1103 1066
f 1066 1103 1080
f 1081 1104 1066
f 1104 1105 1066
f 1066 1105 862
f 1105 1106 862
f 862 1106 1052
f 1098 1097 1107
f 1097 1108 1107
f 1107 1108 1109
f 1108 1110 1109
f 1109 1110 1111
f 1110 1112 1111
f 1111 1112 1113
f 1112 1114 1113
f 1113 1114 1115
f 1114 1116 1115
f 1115 1116 1117
f 1116 1118 1117
f 1117 1118 1119
f 1118 1120 1119
f 1119 1120 1079
f 1120 1121 1079
f 1079 1121 1078
f 276 1122 278
f 1122 1123 278
f 278 1123 280
f 318 862 320
f 862 322 320
f 310 308 1066
f 264 1124 266
f 1124 1125 266
f 266 1125 268
f 258 1126 260
f 1126 1124 260
f 260 1124 262
f 1124 264 262
f 276 274 1122
f 274 272 1122
f 1122 272 1125
f 272 270 1125
f 1125 270 268
f 258 256 1126
f 256 254 1126
f 1126 254 1127
f 254 252 1127
f 246 1128 248
f 1128 1127 248
f 248 1127 250
f 1127 252 250
f 246 244 1128
f 244 242 1128
f 1128 242 1129
f 232 230 1130
f 230 228 1130
f 208 350 862
f 350 348 862
f 862 348 346
f 340 338 862
f 338 336 862
f 862 336 334
f 318 316 862
f 316 314 862
f 862 314 1066
f 314 312 1066
f 1066 312 310
f 242 240 1129
f 240 238 1129
f 1129 238 1131
f 238 236 1131
f 1131 236 1130
f 236 234 1130
f 1130 234 232
f 346 344 862
f 344 342 862
f 862 342 340
f 1066 302 300
f 1132 284 1123
f 284 282 1123
f 1123 282 280
f 228 226 1130
f 226 224 1130
f 1130 224 222
f 222 220 1130
f 220 218 1130
f 1130 218 216
f 216 214 1130
f 214 212 1130
f 1130 212 862
f 212 210 862
f 862 210 208
f 334 332 862
f 332 330 862
f 862 330 328
f 328 326 862
f 326 324 862
f 862 324 322
f 308 306 1066
f 306 304 1066
f 1066 304 302
f 300 298 1066
f 298 296 1066
f 1066 296 294
f 294 292 1066
f 292 290 1066
f 1066 290 1133
f 290 288 1133
f 1133 288 1132
f 288 286 1132
f 1132 286 284
f 1134 1135 909
f 1136 1137 1138
f 1137 1139 1138
f 1138 1139 1140
f 909 1135 862
f 1135 1141 862
f 862 1141 1142
f 1142 1143 862
f 1143 1144 862
f 862 1144 1145
f 1146 1147 1148
f 1147 1149 1148
f 1148 1149 1139
f 1149 1150 1139
f 1139 1150 1140
f 1136 1151 1137
f 1151 1152 1137
f 1137 1152 1153
f 1152 1154 1153
f 1153 1154 1155
f 1156 1157 909
f 1157 1158 909
f 909 1158 1159
f 1160 1161 1148
f 1161 1162 1148
f 1148 1162 1146
f 909 1163 1156
f 1163 1164 1156
f 1156 1164 1165
f 1164 1166 1165
f 1165 1166 1167
f 1166 1168 1167
f 1167 1168 1169
f 1168 1170 1169
f 1169 1170 1171
f 1170 1172 1171
f 1171 1172 1173
f 1172 1174 1173
f 1173 1174 1175
f 1174 1176 1175
f 1175 1176 1177
f 1176 1178 1177
f 1177 1178 1179
f 1178 1155 1179
f 1179 1155 1180
f 1155 1154 1180
f 1159 1181 909
f 1181 1182 909
f 909 1182 1183
f 1183 1184 909
f 1184 1185 909
f 909 1185 1134
f 1145 1186 862
f 1186 1187 862
f 862 1187 1188
f 1188 1189 862
f 1189 1190 862
f 862 1190 1191
f 1191 1192 862
f 1192 1193 862
f 862 1193 1194
f 1194 1195 862
f 1195 1196 862
f 862 1196 1197
f 1198 1199 1200
f 1199 1201 1200
f 1202 1203 1130
f 1203 1204 1130
f 1130 1204 1198
f 1204 1205 1198
f 1198 1205 1199
f 1206 1207 1160
f 1207 1208 1160
f 1160 1208 1161
f 1201 1209 1200
f 1209 1210 1200
f 1200 1210 1211
f 1210 1212 1211
f 1211 1212 1213
f 1213 1214 1211
f 1214 1215 1211
f 1211 1215 1160
f 1215 1216 1160
f 1160 1216 1206
f 1130 1217 1218
f 1197 1219 862
f 1219 1220 862
f 862 1220 1130
f 1220 1221 1130
f 1130 1221 1217
f 1218 1222 1130
f 1222 1223 1130
f 1130 1223 1202
f 61 60 1224
f 189 188 1225
f 185 184 1225
f 184 183 1225
f 1225 183 182
f 176 179 1225
f 179 178 1225
f 1225 178 185
f 182 191 1225
f 191 190 1225
f 1225 190 189
f 188 196 1225
f 196 195 1225
f 1225 195 193
f 1226 193 192
f 192 3 1226
f 3 6 1226
f 1226 6 5
f 5 9 1226
f 9 8 1226
f 1226 8 12
f 12 11 1226
f 11 17 1226
f 1226 17 16
f 163 161 1227
f 169 167 1227
f 167 165 1227
f 1227 165 163
f 161 173 1227
f 173 172 1227
f 1227 172 1225
f 172 171 1225
f 1225 171 176
f 147 146 1228
f 1228 146 1229
f 146 150 1229
f 150 149 1229
f 1229 149 153
f 153 152 1229
f 152 156 1229
f 1229 156 155
f 155 159 1229
f 159 158 1229
f 1229 158 1227
f 158 170 1227
f 1227 170 169
f 1230 135 134
f 134 138 1230
f 138 137 1230
f 1230 137 141
f 141 140 1230
f 140 144 1230
f 1230 144 1228
f 144 143 1228
f 1228 143 147
f 123 121 1231
f 121 119 1231
f 119 117 1231
f 1231 117 129
f 129 128 1231
f 128 132 1231
f 1231 132 1230
f 132 131 1230
f 1230 131 135
f 84 93 1232
f 87 86 1232
f 86 85 1232
f 1232 85 84
f 78 81 1232
f 81 80 1232
f 1232 80 87
f 93 92 1232
f 92 91 1232
f 1232 91 90
f 98 97 1233
f 97 95 1233
f 1233 95 101
f 101 100 1233
f 100 104 1233
f 1233 104 103
f 103 107 1233
f 107 106 1233
f 1233 106 110
f 110 109 1233
f 109 115 1233
f 1233 115 114
f 114 112 1233
f 112 126 1233
f 1233 126 1231
f 126 125 1231
f 1231 125 123
f 65 63 1234
f 71 69 1234
f 69 67 1234
f 1234 67 65
f 1224 60 1234
f 60 72 1234
f 1234 72 71
f 63 75 1234
f 75 74 1234
f 1234 74 1232
f 74 73 1232
f 1232 73 78
f 1235 48 1224
f 48 52 1224
f 52 51 1224
f 51 55 1224
f 1224 55 54
f 54 58 1224
f 58 57 1224
f 1224 57 61
f 36 40 1236
f 36 1236 37
f 40 39 1236
f 39 43 1236
f 1236 43 42
f 42 46 1236
f 46 45 1236
f 1236 45 1235
f 45 49 1235
f 1235 49 48
f 16 14 1226
f 14 20 1226
f 1226 20 1237
f 20 19 1237
f 1237 19 1236
f 19 18 1236
f 18 26 1236
f 1236 26 24
f 24 22 1236
f 22 31 1236
f 1236 31 30
f 30 34 1236
f 34 33 1236
f 1236 33 37
f 1238 1239 1240
f 1241 1242 1240
f 1242 1243 1240
f 1240 1243 1238
f 1239 1244 1240
f 1244 1245 1240
f 1240 1245 1246
f 1246 1247 1240
f 1247 1248 1240
f 1240 1248 1249
f 1250 1251 1252
f 1251 1253 1252
f 1252 1253 1254
f 1254 1255 1252
f 1255 1256 1252
f 1252 1256 1257
f 1257 1258 1252
f 1258 1259 1252
f 1252 1259 1260
f 1260 1261 1252
f 1261 1262 1252
f 1252 1262 1263
f 1264 1265 1266
f 1267 1268 1266
f 1268 1269 1266
f 1266 1269 1264
f 1270 1271 1266
f 1271 1272 1266
f 1266 1272 1267
f 1265 1273 1266
f 1273 1274 1266
f 1266 1274 1240
f 1274 1275 1240
f 1240 1275 1241
f 1276 1277 1270
f 1277 1278 1270
f 1270 1278 1279
f 1279 1280 1270
f 1280 1281 1270
f 1270 1281 1282
f 1282 1283 1270
f 1283 1284 1270
f 1270 1284 1271
f 1285 1286 1287
f 1288 1289 1287
f 1289 1290 1287
f 1290 1291 1287
f 1287 1291 1285
f 1286 1292 1287
f 1292 1293 1287
f 1287 1293 1276
f 1293 1294 1276
f 1276 1294 1277
f 1287 1295 1296
f 1296 1297 1287
f 1297 1298 1287
f 1287 1298 1299
f 1299 1300 1287
f 1300 1301 1287
f 1287 1301 1288
f 1302 1303 1304
f 1305 1306 1304
f 1306 1307 1304
f 1304 1307 1302
f 1308 1309 1304
f 1309 1310 1304
f 1304 1310 1305
f 1311 1312 1304
f 1312 1313 1304
f 1304 1313 1308
f 1303 1314 1304
f 1314 1315 1304
f 1304 1315 1316
f 1317 1316 1318
f 1318 1319 1317
f 1319 1320 1317
f 1317 1320 1321
f 1321 1322 1317
f 1322 1323 1317
f 1317 1323 1324
f 1324 1325 1317
f 1325 1326 1317
f 1317 1326 1327
f 1327 1328 1317
f 1328 1329 1317
f 1317 1329 1330
f 1329 1331 1330
f 1330 1331 1287
f 1331 1332 1287
f 1287 1332 1295
f 1333 1334 1335
f 1336 1337 1335
f 1337 1338 1335
f 1335 1338 1333
f 1334 1339 1335
f 1339 1340 1335
f 1335 1340 1304
f 1340 1341 1304
f 1304 1341 1311
f 1342 1343 1344
f 1344 1343 1345
f 1343 1346 1345
f 1346 1347 1345
f 1345 1347 1348
f 1348 1349 1345
f 1349 1350 1345
f 1345 1350 1351
f 1351 1352 1345
f 1352 1353 1345
f 1345 1353 1335
f 1353 1354 1335
f 1335 1354 1336
f 1355 1356 1357
f 1357 1358 1355
f 1358 1359 1355
f 1355 1359 1360
f 1360 1361 1355
f 1361 1362 1355
f 1355 1362 1344
f 1362 1363 1344
f 1344 1363 1342
f 1364 1365 1366
f 1263 1367 1252
f 1367 1368 1252
f 1252 1368 1366
f 1368 1369 1366
f 1366 1369 1364
f 1365 1370 1366
f 1370 1371 1366
f 1366 1371 1372
f 1372 1373 1366
f 1373 1374 1366
f 1366 1374 1355
f 1374 1375 1355
f 1355 1375 1356
f 193 1226 1225
f 1226 1376 1225
f 1225 1376 1377
f 1376 1378 1377
f 1377 1378 1379
f 1378 1380 1379
f 1379 1380 1381
f 1380 1382 1381
f 1381 1382 1383
f 1382 1384 1383
f 1383 1384 1385
f 1384 1386 1385
f 1385 1386 1387
f 1386 1388 1387
f 1387 1388 1389
f 1388 1390 1389
f 1389 1390 1391
f 1390 1392 1391
f 1391 1392 1393
f 1392 1394 1393
f 1393 1394 1395
f 1394 1396 1395
f 1395 1396 1397
f 1396 1398 1397
f 1397 1398 1399
f 1398 1400 1399
f 1399 1400 1401
f 1400 1402 1401
f 1401 1402 1403
f 1402 1404 1403
f 1403 1404 1405
f 1404 1406 1405
f 1405 1406 1407
f 1406 1408 1407
f 1407 1408 1409
f 1408 1410 1409
f 1409 1410 1411
f 1410 1412 1411
f 1411 1412 1413
f 1412 1414 1413
f 1413 1414 1415
f 1414 1416 1415
f 1415 1416 1417
f 1416 1418 1417
f 1417 1418 1419
f 1418 1420 1419
f 1419 1420 1421
f 1420 1422 1421
f 1421 1422 1423
f 1422 1424 1423
f 1423 1424 1425
f 1424 1426 1425
f 1425 1426 1427
f 1426 1428 1427
f 1427 1428 1429
f 1428 1430 1429
f 1429 1430 1431
f 1430 1432 1431
f 1431 1432 1433
f 1432 1240 1433
f 1433 1240 1252
f 1240 1249 1252
f 1252 1249 1250
f 1316 1317 1304
f 1317 1434 1304
f 1304 1434 1435
f 1434 1436 1435
f 1435 1436 1437
f 1436 1438 1437
f 1437 1438 1439
f 1438 1440 1439
f 1439 1440 1441
f 1440 1442 1441
f 1441 1442 1443
f 1442 1444 1443
f 1443 1444 1445
f 1444 1446 1445
f 1445 1446 1447
f 1446 1448 1447
f 1447 1448 1449
f 1448 1450 1449
f 1449 1450 1451
f 1450 1452 1451
f 1451 1452 1453
f 1452 1454 1453
f 1453 1454 1455
f 1454 1456 1455
f 1455 1456 1457
f 1456 1458 1457
f 1457 1458 1459
f 1458 1460 1459
f 1459 1460 1461
f 1460 1462 1461
f 1461 1462 1463
f 1462 1464 1463
f 1463 1464 1465
f 1464 1466 1465
f 1465 1466 1467
f 1466 1468 1467
f 1467 1468 1469
f 1468 1470 1469
f 1469 1470 1471
f 1470 1472 1471
f 1471 1472 1473
f 1472 1474 1473
f 1473 1474 1475
f 1474 1476 1475
f 1475 1476 1477
f 1476 1478 1477
f 1477 1478 1479
f 1478 1480 1479
f 1479 1480 1481
f 1480 1482 1481
f 1481 1482 1483
f 1482 1484 1483
f 1483 1484 1485
f 1484 1486 1485
f 1485 1486 1487
f 1486 1488 1487
f 1487 1488 1489
f 1488 1490 1489
f 1489 1490 1491
f 1490 1232 1491
f 1491 1232 1233
f 1232 90 1233
f 1233 90 98
f 1492 1493 1255
f 1494 1257 1493
f 1257 1256 1493
f 1493 1256 1255
f 1495 1259 1494
f 1259 1258 1494
f 1494 1258 1257
f 1496 1261 1495
f 1261 1260 1495
f 1495 1260 1259
f 1497 1367 1498
f 1367 1263 1498
f 1498 1263 1496
f 1263 1262 1496
f 1496 1262 1261
f 1499 1371 1500
f 1371 1370 1500
f 1500 1370 1501
f 1370 1365 1501
f 1501 1365 1502
f 1365 1364 1502
f 1502 1364 1503
f 1364 1369 1503
f 1503 1369 1497
f 1369 1368 1497
f 1497 1368 1367
f 1504 1373 1499
f 1373 1372 1499
f 1499 1372 1371
f 1505 1375 1504
f 1375 1374 1504
f 1504 1374 1373
f 1506 1357 1505
f 1357 1356 1505
f 1505 1356 1375
f 1507 1359 1506
f 1359 1358 1506
f 1506 1358 1357
f 1508 1361 1507
f 1361 1360 1507
f 1507 1360 1359
f 1509 1363 1508
f 1363 1362 1508
f 1508 1362 1361
f 1510 1343 1509
f 1343 1342 1509
f 1509 1342 1363
f 1511 1347 1510
f 1347 1346 1510
f 1510 1346 1343
f 1512 1349 1511
f 1349 1348 1511
f 1511 1348 1347
f 1513 1351 1512
f 1351 1350 1512
f 1512 1350 1349
f 1514 1353 1513
f 1353 1352 1513
f 1513 1352 1351
f 1515 1334 1516
f 1334 1333 1516
f 1516 1333 1517
f 1333 1338 1517
f 1517 1338 1518
f 1338 1337 1518
f 1518 1337 1519
f 1337 1336 1519
f 1519 1336 1514
f 1336 1354 1514
f 1514 1354 1353
f 1341 1340 1515
f 1340 1339 1515
f 1515 1339 1334
f 1515 1520 1341
f 1520 1521 1341
f 1341 1521 1311
f 1522 1313 1521
f 1313 1312 1521
f 1521 1312 1311
f 1523 1524 1305
f 1305 1310 1523
f 1310 1309 1523
f 1523 1309 1522
f 1309 1308 1522
f 1522 1308 1313
f 1525 1526 1303
f 1303 1302 1525
f 1302 1307 1525
f 1525 1307 1524
f 1307 1306 1524
f 1524 1306 1305
f 1527 1316 1528
f 1316 1315 1528
f 1528 1315 1526
f 1315 1314 1526
f 1526 1314 1303
f 1529 1319 1527
f 1319 1318 1527
f 1527 1318 1316
f 1530 1321 1529
f 1321 1320 1529
f 1529 1320 1319
f 1531 1323 1530
f 1323 1322 1530
f 1530 1322 1321
f 1532 1325 1531
f 1325 1324 1531
f 1531 1324 1323
f 1533 1328 1534
f 1328 1327 1534
f 1534 1327 1532
f 1327 1326 1532
f 1532 1326 1325
f 1332 1331 1533
f 1331 1329 1533
f 1533 1329 1328
f 1535 1297 1536
f 1297 1296 1536
f 1536 1296 1537
f 1296 1295 1537
f 1537 1295 1538
f 1295 1332 1538
f 1538 1332 1539
f 1332 1533 1539
f 1540 1299 1535
f 1299 1298 1535
f 1535 1298 1297
f 1541 1301 1540
f 1301 1300 1540
f 1540 1300 1299
f 1542 1289 1541
f 1289 1288 1541
f 1541 1288 1301
f 1543 1291 1542
f 1291 1290 1542
f 1542 1290 1289
f 1544 1286 1543
f 1286 1285 1543
f 1543 1285 1291
f 1545 1293 1544
f 1293 1292 1544
f 1544 1292 1286
f 1546 1277 1545
f 1277 1294 1545
f 1545 1294 1293
f 1547 1279 1546
f 1279 1278 1546
f 1546 1278 1277
f 1548 1281 1547
f 1281 1280 1547
f 1547 1280 1279
f 1549 1283 1548
f 1283 1282 1548
f 1548 1282 1281
f 1550 1271 1549
f 1271 1284 1549
f 1549 1284 1283
f 1551 1265 1552
f 1265 1264 1552
f 1552 1264 1553
f 1264 1269 1553
f 1553 1269 1554
f 1269 1268 1554
f 1554 1268 1555
f 1268 1267 1555
f 1555 1267 1550
f 1267 1272 1550
f 1550 1272 1271
f 1275 1274 1551
f 1274 1273 1551
f 1551 1273 1265
f 1551 1556 1275
f 1556 1557 1275
f 1275 1557 1241
f 1558 1243 1557
f 1243 1242 1557
f 1557 1242 1241
f 1559 1560 1245
f 1245 1244 1559
f 1244 1239 1559
f 1559 1239 1558
f 1239 1238 1558
f 1558 1238 1243
f 1561 1562 1249
f 1249 1248 1561
f 1248 1247 1561
f 1561 1247 1560
f 1247 1246 1560
f 1560 1246 1245
f 1255 1254 1492
f 1254 1253 1492
f 1492 1253 1563
f 1253 1251 1563
f 1563 1251 1562
f 1251 1250 1562
f 1562 1250 1249
f 347 349 1564
f 349 207 1564
f 1564 207 209
f 341 343 1564
f 343 345 1564
f 1564 345 347
f 335 337 1564
f 337 339 1564
f 1564 339 341
f 329 331 1564
f 331 333 1564
f 1564 333 335
f 323 325 1564
f 325 327 1564
f 1564 327 329
f 317 319 1564
f 319 321 1564
f 1564 321 323
f 311 313 1564
f 313 315 1564
f 1564 315 317
f 305 307 1564
f 307 309 1564
f 1564 309 311
f 299 301 1564
f 301 303 1564
f 1564 303 305
f 293 295 1564
f 295 297 1564
f 1564 297 299
f 287 289 1564
f 289 291 1564
f 1564 291 293
f 281 283 1564
f 283 285 1564
f 1564 285 287
f 275 277 1564
f 277 279 1564
f 1564 279 281
f 269 271 1564
f 271 273 1564
f 1564 273 275
f 263 265 1564
f 265 267 1564
f 1564 267 269
f 257 259 1564
f 259 261 1564
f 1564 261 263
f 251 253 1564
f 253 255 1564
f 1564 255 257
f 245 247 1564
f 247 249 1564
f 1564 249 251
f 239 241 1564
f 241 243 1564
f 1564 243 245
f 233 235 1564
f 235 237 1564
f 1564 237 239
f 227 229 1564
f 229 231 1564
f 1564 231 233
f 221 223 1564
f 223 225 1564
f 1564 225 227
f 215 217 1564
f 217 219 1564
f 1564 219 221
f 209 211 1564
f 211 213 1564
f 1564 213 215
f 1403 1405 203
f 1304 1435 1565
f 1411 1413 203
f 1431 1433 1566
f 1433 1252 1566
f 1566 1252 1366
f 1421 1423 1566
f 1423 1425 1566
f 1304 1565 1335
f 1425 1427 1566
f 1427 1429 1566
f 1566 1429 1431
f 1435 1437 1565
f 1437 1439 1565
f 1565 1439 1441
f 1405 1407 203
f 1407 1409 203
f 203 1409 1411
f 1413 1415 203
f 1415 1417 203
f 203 1417 1566
f 1417 1419 1566
f 1566 1419 1421
f 1379 1381 204
f 1381 1383 204
f 1383 1385 204
f 1385 1387 204
f 204 1387 1389
f 1389 1391 204
f 1391 1393 204
f 204 1393 203
f 1393 1395 203
f 203 1395 1397
f 1479 1481 205
f 1441 1443 1565
f 1443 1445 1565
f 1565 1445 1447
f 1455 1457 206
f 1457 1459 206
f 1366 1355 1566
f 1355 1344 1566
f 1566 1344 1565
f 1344 1345 1565
f 1565 1345 1335
f 1397 1399 203
f 1399 1401 203
f 203 1401 1403
f 205 1228 204
f 1228 1229 204
f 204 1229 1227
f 1227 1225 204
f 1225 1377 204
f 204 1377 1379
f 1447 1449 1565
f 1449 1451 1565
f 1565 1451 206
f 1451 1453 206
f 206 1453 1455
f 1459 1461 206
f 1461 1463 206
f 206 1463 1465
f 1487 1489 205
f 1489 1491 205
f 205 1491 1233
f 1465 1467 206
f 1467 1469 206
f 206 1469 1471
f 1471 1473 206
f 1473 1475 206
f 206 1475 205
f 1475 1477 205
f 205 1477 1479
f 1481 1483 205
f 1483 1485 205
f 205 1485 1487
f 1233 1231 205
f 1231 1230 205
f 205 1230 1228
f 847 870 846
f 870 873 846
f 846 873 845
f 873 861 845
f 845 861 844
f 861 974 844
f 844 974 843
f 974 990 843
f 843 990 842
f 990 978 842
f 842 978 841
f 978 935 841
f 841 935 840
f 935 934 840
f 840 934 839
f 934 998 839
f 839 998 838
f 998 1000 838
f 838 1000 837
f 1000 1002 837
f 837 1002 836
f 1002 1004 836
f 836 1004 835
f 1004 923 835
f 835 923 834
f 923 925 834
f 834 925 833
f 925 927 833
f 833 927 832
f 927 898 832
f 832 898 831
f 898 896 831
f 831 896 830
f 896 894 830
f 830 894 829
f 894 942 829
f 829 942 828
f 942 901 828
f 828 901 827
f 901 903 827
f 827 903 826
f 903 946 826
f 826 946 825
f 946 950 825
f 825 950 824
f 950 956 824
f 824 956 823
f 956 954 823
f 823 954 822
f 1163 909 847
f 909 914 847
f 847 914 870
f 793 1200 792
f 1200 1211 792
f 792 1211 791
f 1211 1160 791
f 791 1160 790
f 1160 1148 790
f 790 1148 789
f 1148 1139 789
f 789 1139 788
f 1139 1137 788
f 788 1137 787
f 1137 1153 787
f 787 1153 858
f 1153 1155 858
f 858 1155 857
f 1155 1178 857
f 857 1178 856
f 1178 1176 856
f 856 1176 855
f 1176 1174 855
f 855 1174 854
f 1174 1172 854
f 854 1172 853
f 1172 1170 853
f 853 1170 852
f 1170 1168 852
f 852 1168 851
f 1168 1166 851
f 851 1166 850
f 1166 1164 850
f 850 1164 849
f 1164 1163 849
f 849 1163 848
f 1163 847 848
f 1131 1130 793
f 1130 1198 793
f 793 1198 1200
f 804 1132 803
f 1132 1123 803
f 803 1123 802
f 1123 1122 802
f 802 1122 801
f 1122 1125 801
f 801 1125 800
f 1125 1124 800
f 800 1124 799
f 1124 1126 799
f 799 1126 798
f 1126 1127 798
f 798 1127 797
f 1127 1128 797
f 797 1128 796
f 1128 1129 796
f 796 1129 795
f 1129 1131 795
f 795 1131 794
f 1131 793 794
f 954 1096 822
f 1096 1098 822
f 822 1098 821
f 1098 1107 821
f 821 1107 820
f 1107 1109 820
f 820 1109 819
f 1109 1111 819
f 819 1111 818
f 1111 1113 818
f 818 1113 817
f 1113 1115 817
f 817 1115 816
f 1115 1117 816
f 816 1117 815
f 1117 1119 815
f 815 1119 814
f 1119 1079 814
f 814 1079 813
f 1079 1077 813
f 813 1077 812
f 1077 1075 812
f 812 1075 811
f 1075 1047 811
f 811 1047 810
f 1047 1036 810
f 810 1036 809
f 1036 1033 809
f 809 1033 808
f 1033 1041 808
f 808 1041 807
f 1041 1059 807
f 807 1059 806
f 1059 1063 806
f 806 1063 805
f 1063 1066 805
f 805 1066 804
f 1066 1133 804
f 804 1133 1132
f 389 860 387
f 860 859 387
f 387 859 357
f 859 875 357
f 357 875 358
f 875 874 358
f 358 874 424
f 874 872 424
f 424 872 425
f 872 871 425
f 425 871 426
f 871 930 426
f 426 930 368
f 930 869 368
f 368 869 369
f 869 868 369
f 369 868 437
f 868 971 437
f 437 971 438
f 971 970 438
f 438 970 439
f 970 969 439
f 439 969 409
f 969 913 409
f 409 913 440
f 913 912 440
f 440 912 441
f 912 911 441
f 441 911 443
f 911 968 443
f 443 968 445
f 968 967 445
f 445 967 447
f 967 910 447
f 447 910 449
f 910 908 449
f 449 908 451
f 908 907 451
f 451 907 453
f 907 966 453
f 453 966 455
f 966 965 455
f 455 965 457
f 965 964 457
f 457 964 459
f 964 892 459
f 459 892 461
f 892 891 461
f 461 891 462
f 891 890 462
f 462 890 410
f 890 889 410
f 410 889 411
f 889 888 411
f 411 888 412
f 888 887 412
f 412 887 365
f 887 886 365
f 365 886 374
f 886 885 374
f 374 885 372
f 885 884 372
f 372 884 375
f 884 867 375
f 375 867 376
f 867 866 376
f 376 866 378
f 866 865 378
f 378 865 380
f 865 864 380
f 380 864 382
f 864 863 382
f 382 863 383
f 863 1024 383
f 383 1024 351
f 1024 1023 351
f 351 1023 384
f 1023 1022 384
f 384 1022 385
f 1022 963 385
f 385 963 386
f 963 962 386
f 386 962 356
f 962 877 356
f 356 877 391
f 877 881 391
f 391 881 392
f 881 880 392
f 392 880 394
f 880 1014 394
f 394 1014 395
f 1014 939 395
f 395 939 413
f 939 1009 413
f 413 1009 414
f 1009 1008 414
f 414 1008 396
f 1008 1020 396
f 396 1020 397
f 1020 922 397
f 397 922 398
f 922 921 398
f 398 921 399
f 921 1006 399
f 399 1006 401
f 1006 1005 401
f 401 1005 415
f 1005 1003 415
f 415 1003 416
f 1003 1001 416
f 416 1001 417
f 1001 999 417
f 417 999 418
f 999 997 418
f 418 997 419
f 997 996 419
f 419 996 420
f 996 936 420
f 420 936 421
f 936 977 421
f 421 977 422
f 977 979 422
f 422 979 433
f 979 995 433
f 433 995 432
f 995 994 432
f 432 994 430
f 994 993 430
f 430 993 434
f 993 989 434
f 434 989 435
f 989 991 435
f 435 991 436
f 991 992 436
f 436 992 402
f 992 976 402
f 402 976 403
f 976 975 403
f 403 975 405
f 975 973 405
f 405 973 406
f 973 972 406
f 406 972 389
f 972 860 389
f 1240 572 1266
f 572 571 1266
f 1266 571 1270
f 571 569 1270
f 1270 569 1276
f 569 567 1276
f 1276 567 1287
f 567 566 1287
f 1287 566 1330
f 566 609 1330
f 1330 609 1317
f 609 611 1317
f 1317 611 1434
f 611 613 1434
f 1434 613 1436
f 613 553 1436
f 1436 553 1438
f 553 551 1438
f 1438 551 1440
f 551 550 1440
f 1440 550 1442
f 550 664 1442
f 1442 664 1444
f 664 666 1444
f 1444 666 1446
f 666 625 1446
f 1446 625 1448
f 625 624 1448
f 1448 624 1450
f 624 623 1450
f 1450 623 1452
f 623 619 1452
f 1452 619 1454
f 619 617 1454
f 1454 617 1456
f 617 616 1456
f 1456 616 1458
f 616 629 1458
f 1458 629 1460
f 629 627 1460
f 1460 627 1462
f 627 626 1462
f 1462 626 1464
f 626 586 1464
f 1464 586 1466
f 586 588 1466
f 1466 588 1468
f 588 590 1468
f 1468 590 1470
f 590 592 1470
f 1470 592 1472
f 592 594 1472
f 1472 594 1474
f 594 486 1474
f 1474 486 1476
f 486 485 1476
f 1476 485 1478
f 485 597 1478
f 1478 597 1480
f 597 599 1480
f 1480 599 1482
f 599 541 1482
f 1482 541 1484
f 541 540 1484
f 1484 540 1486
f 540 539 1486
f 1486 539 1488
f 539 364 1488
f 1488 364 1490
f 364 363 1490
f 363 429 1490
f 1490 429 1232
f 429 428 1232
f 1232 428 1234
f 428 427 1234
f 1234 427 1224
f 427 373 1224
f 1224 373 1235
f 373 371 1235
f 1235 371 1236
f 371 370 1236
f 1236 370 1237
f 370 377 1237
f 1237 377 1226
f 377 379 1226
f 1226 379 1376
f 379 381 1376
f 1376 381 1378
f 381 353 1378
f 1378 353 1380
f 353 352 1380
f 1380 352 1382
f 352 366 1382
f 1382 366 1384
f 366 355 1384
f 1384 355 1386
f 355 354 1386
f 1386 354 1388
f 354 362 1388
f 1388 362 1390
f 362 361 1390
f 1390 361 1392
f 361 360 1392
f 1392 360 1394
f 360 393 1394
f 1394 393 1396
f 393 716 1396
f 1396 716 1398
f 716 670 1398
f 1398 670 1400
f 670 669 1400
f 1400 669 1402
f 669 739 1402
f 1402 739 1404
f 739 741 1404
f 1404 741 1406
f 741 743 1406
f 1406 743 1408
f 743 745 1408
f 1408 745 1410
f 745 747 1410
f 1410 747 1412
f 747 749 1412
f 1412 749 1414
f 749 674 1414
f 1414 674 1416
f 674 757 1416
f 1416 757 1418
f 757 756 1418
f 1418 756 1420
f 756 755 1420
f 1420 755 1422
f 755 754 1422
f 1422 754 1424
f 754 753 1424
f 1424 753 1426
f 753 752 1426
f 1426 752 1428
f 752 721 1428
f 1428 721 1430
f 721 720 1430
f 1430 720 1432
f 720 477 1432
f 1432 477 1240
f 477 476 1240
f 1240 476 572
f 560 1173 561
f 1173 1175 561
f 561 1175 602
f 1175 1177 602
f 602 1177 603
f 1177 1179 603
f 603 1179 604
f 1179 1180 604
f 604 1180 605
f 1180 1154 605
f 605 1154 606
f 1154 1152 606
f 606 1152 565
f 1152 1151 565
f 565 1151 564
f 1151 1136 564
f 564 1136 562
f 1136 1138 562
f 562 1138 511
f 1138 1140 511
f 511 1140 512
f 1140 1150 512
f 512 1150 514
f 1150 1149 514
f 514 1149 515
f 1149 1147 515
f 515 1147 496
f 1147 1146 496
f 496 1146 497
f 1146 1162 497
f 497 1162 499
f 1162 1161 499
f 499 1161 501
f 1161 1208 501
f 501 1208 542
f 1208 1207 542
f 542 1207 543
f 1207 1206 543
f 543 1206 545
f 1206 1216 545
f 545 1216 546
f 1216 1215 546
f 546 1215 547
f 1215 1214 547
f 547 1214 548
f 1214 1213 548
f 548 1213 549
f 1213 1212 549
f 549 1212 469
f 1212 1210 469
f 469 1210 470
f 1210 1209 470
f 470 1209 516
f 1209 1201 516
f 516 1201 504
f 1201 1199 504
f 504 1199 517
f 1199 1205 517
f 517 1205 518
f 1205 1204 518
f 518 1204 647
f 1204 1203 647
f 647 1203 648
f 1203 1202 648
f 648 1202 650
f 1202 1223 650
f 650 1223 652
f 1223 1222 652
f 652 1222 654
f 1222 1218 654
f 654 1218 656
f 1218 1217 656
f 656 1217 658
f 1217 1221 658
f 658 1221 660
f 1221 1220 660
f 660 1220 662
f 1220 1219 662
f 662 1219 663
f 1219 1197 663
f 663 1197 645
f 1197 1196 645
f 645 1196 634
f 1196 1195 634
f 634 1195 642
f 1195 1194 642
f 642 1194 578
f 1194 1193 578
f 578 1193 637
f 1193 1192 637
f 637 1192 631
f 1192 1191 631
f 631 1191 630
f 1191 1190 630
f 630 1190 628
f 1190 1189 628
f 628 1189 584
f 1189 1188 584
f 584 1188 585
f 1188 1187 585
f 585 1187 587
f 1187 1186 587
f 587 1186 589
f 1186 1145 589
f 589 1145 591
f 1145 1144 591
f 591 1144 593
f 1144 1143 593
f 593 1143 595
f 1143 1142 595
f 595 1142 596
f 1142 1141 596
f 596 1141 484
f 1141 1135 484
f 484 1135 598
f 1135 1134 598
f 598 1134 600
f 1134 1185 600
f 600 1185 601
f 1185 1184 601
f 601 1184 495
f 1184 1183 495
f 495 1183 494
f 1183 1182 494
f 494 1182 493
f 1182 1181 493
f 493 1181 508
f 1181 1159 508
f 508 1159 509
f 1159 1158 509
f 509 1158 510
f 1158 1157 510
f 510 1157 555
f 1157 1156 555
f 555 1156 556
f 1156 1165 556
f 556 1165 557
f 1165 1167 557
f 557 1167 558
f 1167 1169 558
f 558 1169 559
f 1169 1171 559
f 559 1171 560
f 1171 1173 560
f 201 202 1566
f 202 203 1566
f 713 924 714
f 924 1021 714
f 714 1021 734
f 1021 1019 734
f 734 1019 735
f 1019 1018 735
f 735 1018 736
f 1018 1017 736
f 736 1017 701
f 1017 1007 701
f 701 1007 702
f 1007 938 702
f 702 938 737
f 938 937 737
f 737 937 738
f 937 1016 738
f 738 1016 718
f 1016 1015 718
f 718 1015 717
f 1015 1013 717
f 717 1013 715
f 1013 1012 715
f 715 1012 671
f 1012 882 671
f 671 882 740
f 882 883 740
f 740 883 742
f 883 876 742
f 742 876 744
f 876 878 744
f 744 878 746
f 878 879 746
f 746 879 748
f 879 920 748
f 748 920 750
f 920 919 750
f 750 919 751
f 919 918 751
f 751 918 672
f 918 917 672
f 672 917 673
f 917 916 673
f 673 916 758
f 916 915 758
f 758 915 759
f 915 933 759
f 759 933 760
f 933 932 760
f 760 932 719
f 932 931 719
f 719 931 704
f 931 961 704
f 704 961 703
f 961 1011 703
f 703 1011 684
f 1011 1010 684
f 684 1010 685
f 1010 960 685
f 685 960 686
f 960 959 686
f 686 959 687
f 959 958 687
f 687 958 775
f 958 957 775
f 775 957 773
f 957 1030 773
f 773 1030 771
f 1030 1029 771
f 771 1029 769
f 1029 1028 769
f 769 1028 767
f 1028 1027 767
f 767 1027 765
f 1027 1026 765
f 765 1026 763
f 1026 1025 763
f 763 1025 761
f 1025 988 761
f 761 988 724
f 988 987 724
f 724 987 722
f 987 986 722
f 722 986 679
f 986 953 679
f 679 953 680
f 953 955 680
f 680 955 725
f 955 985 725
f 725 985 726
f 985 984 726
f 726 984 727
f 984 983 727
f 727 983 707
f 983 949 707
f 707 949 705
f 949 951 705
f 705 951 682
f 951 952 682
f 682 952 683
f 952 948 683
f 683 948 692
f 948 947 692
f 692 947 691
f 947 945 691
f 691 945 689
f 945 944 689
f 689 944 693
f 944 906 693
f 693 906 694
f 906 905 694
f 694 905 696
f 905 904 696
f 696 904 697
f 904 902 697
f 697 902 728
f 902 900 728
f 728 900 729
f 900 899 729
f 729 899 730
f 899 982 730
f 730 982 699
f 982 981 699
f 699 981 700
f 981 980 700
f 700 980 731
f 980 943 731
f 731 943 732
f 943 941 732
f 732 941 733
f 941 940 733
f 733 940 676
f 940 893 676
f 676 893 677
f 893 895 677
f 677 895 709
f 895 897 709
f 709 897 710
f 897 929 710
f 710 929 711
f 929 928 711
f 711 928 712
f 928 926 712
f 712 926 713
f 926 924 713
f 614 1056 615
f 1056 1055 615
f 615 1055 554
f 1055 1054 554
f 554 1054 552
f 1054 1035 552
f 552 1035 665
f 1035 1034 665
f 665 1034 667
f 1034 1073 667
f 667 1073 668
f 1073 1072 668
f 668 1072 618
f 1072 1045 618
f 618 1045 636
f 1045 1044 636
f 636 1044 638
f 1044 1083 638
f 638 1083 639
f 1083 1082 639
f 639 1082 576
f 1082 1071 576
f 576 1071 577
f 1071 1070 577
f 577 1070 579
f 1070 1069 579
f 579 1069 580
f 1069 1053 580
f 580 1053 640
f 1053 1052 640
f 640 1052 641
f 1052 1106 641
f 641 1106 643
f 1106 1105 643
f 643 1105 644
f 1105 1104 644
f 644 1104 632
f 1104 1081 632
f 632 1081 633
f 1081 1080 633
f 633 1080 635
f 1080 1103 635
f 635 1103 646
f 1103 1102 646
f 646 1102 575
f 1102 1068 575
f 575 1068 620
f 1068 1067 620
f 620 1067 621
f 1067 1065 621
f 621 1065 622
f 1065 1064 622
f 622 1064 582
f 1064 1062 582
f 582 1062 583
f 1062 1061 583
f 583 1061 538
f 1061 1060 538
f 538 1060 536
f 1060 1058 536
f 536 1058 488
f 1058 1057 488
f 488 1057 489
f 1057 1043 489
f 489 1043 490
f 1043 1042 490
f 490 1042 491
f 1042 1040 491
f 491 1040 492
f 1040 1039 492
f 492 1039 464
f 1039 1032 464
f 464 1032 465
f 1032 1031 465
f 465 1031 467
f 1031 1051 467
f 467 1051 468
f 1051 1050 468
f 468 1050 475
f 1050 1049 475
f 475 1049 474
f 1049 1038 474
f 474 1038 472
f 1038 1037 472
f 472 1037 520
f 1037 1046 520
f 520 1046 521
f 1046 1048 521
f 521 1048 523
f 1048 1101 523
f 523 1101 524
f 1101 1100 524
f 524 1100 479
f 1100 1099 479
f 479 1099 480
f 1099 1074 480
f 480 1074 482
f 1074 1076 482
f 482 1076 483
f 1076 1078 483
f 483 1078 505
f 1078 1121 505
f 505 1121 506
f 1121 1120 506
f 506 1120 507
f 1120 1118 507
f 507 1118 525
f 1118 1116 525
f 525 1116 526
f 1116 1114 526
f 526 1114 527
f 1114 1112 527
f 527 1112 528
f 1112 1110 528
f 528 1110 529
f 1110 1108 529
f 529 1108 530
f 1108 1097 530
f 530 1097 531
f 1097 1095 531
f 531 1095 532
f 1095 1094 532
f 532 1094 533
f 1094 1093 533
f 533 1093 534
f 1093 1092 534
f 534 1092 535
f 1092 1091 535
f 535 1091 478
f 1091 1090 478
f 478 1090 570
f 1090 1089 570
f 570 1089 568
f 1089 1088 568
f 568 1088 607
f 1088 1087 607
f 607 1087 608
f 1087 1086 608
f 608 1086 610
f 1086 1085 610
f 610 1085 612
f 1085 1084 612
f 612 1084 614
f 1084 1056 614
f 1560 1559 201
f 1559 1558 201
f 1558 1557 201
f 201 1557 1556
f 1556 1551 201
f 1551 1552 201
f 201 1552 1553
f 1543 1542 199
f 1518 1519 1565
f 1519 1514 1565
f 1514 1513 1565
f 1565 1513 1512
f 1507 1506 1566
f 1495 1566 1496
f 1566 1498 1496
f 1492 1563 1566
f 1563 1562 1566
f 1566 1562 201
f 1562 1561 201
f 201 1561 1560
f 1553 1554 201
f 1554 1555 201
f 201 1555 1550
f 1507 1566 1508
f 1506 1505 1566
f 1505 1504 1566
f 1566 1504 1499
f 1495 1494 1566
f 1494 1493 1566
f 1566 1493 1492
f 1550 1549 201
f 1549 1548 201
f 201 1548 1547
f 1547 1546 201
f 1546 1545 201
f 201 1545 199
f 1545 1544 199
f 199 1544 1543
f 1542 1541 199
f 1541 1540 199
f 199 1540 1535
f 1512 1511 1565
f 1511 1510 1565
f 1565 1510 1566
f 1510 1509 1566
f 1566 1509 1508
f 1499 1500 1566
f 1500 1501 1566
f 1566 1501 1502
f 1502 1503 1566
f 1503 1497 1566
f 1566 1497 1498
f 1535 1536 199
f 1536 1537 199
f 199 1537 1538
f 1538 1539 199
f 1539 1533 199
f 199 1533 1534
f 1526 1525 1565
f 1525 1524 1565
f 1521 1520 1565
f 1520 1515 1565
f 1534 1532 199
f 1532 1531 199
f 199 1531 1530
f 1524 1523 1565
f 1523 1522 1565
f 1565 1522 1521
f 1515 1516 1565
f 1516 1517 1565
f 1565 1517 1518
f 1530 1529 199
f 1529 1527 199
f 199 1527 1565
f 1527 1528 1565
f 1565 1528 1526
f 197 199 206
f 199 1565 206
# 3152 faces, 0 coords texture

# End of File
